<svg xmlns="http://www.w3.org/2000/svg" width="512" height="512"><path fill="#391a1f" d="m195.709-.124 2.483.01h2.601c2.852 0 5.703.009 8.555.016l5.914.005q7.8.006 15.6.024 7.953.014 15.906.02Q262.383-.033 278 0v15h29v14h15v15h14v15l4-1 11 1 1 28 13 1c.956 7.15 1.105 14.106 1.022 21.313l-.03 3.64q-.04 4.897-.093 9.797-.05 5.134-.092 10.27-.085 9.705-.18 19.41-.107 11.057-.203 22.114Q365.22 197.272 365 220h-14v14h-15v15h-14v14h14v15h15l1 14 13 1 1 14h14v-73h7v-87h-7v-45h30v13h2v2h12v29h15v30h14v29h15v73h-15v43h15v45h-15v58h-14v29h-15v15h-15v15h-14v14h-15v15q-6.168.036-12.335.055-2.1.008-4.2.02-3.011.018-6.024.023l-3.665.016C351 512 351 512 350 511c-.1-1.988-.13-3.979-.133-5.969l-.004-3.668.012-3.863-.012-3.863.004-3.668.004-3.393C350 484 350 484 351 483h14v-74h8v-43h-37v87c-5 1-5 1-14 1v29h-14l-1 22h-44v-37h-15v-15l-28 1-1 14h-14v37h-44c-.941-2.824-1.117-4.53-1.098-7.45l.01-2.568.026-2.67.013-2.705q.02-3.303.049-6.607h-14v-30h-15v-29H87v-14H73v-59h14v-15h15v-29l-14 1c-1-1-1-1-1.098-4.16L87 293H73v-29H58v-15H44v-15h14v-15h15v-14h29V88l14-1 1-28 13-1 1-14h15l-.062-6.937c-.022-2.355-.01-4.71.062-7.063 1-1 1-1 4.16-1.098L161 29V15h28V1c1.811-1.811 4.299-1.12 6.709-1.124M395 161v73h-8q-.034 13.834-.052 27.668-.007 6.423-.023 12.847-.016 6.195-.02 12.39-.003 2.367-.01 4.735-.01 3.308-.009 6.615l-.006 3.81c-.084 2.87-.084 2.87 1.12 4.935h21v-29h14c1.327-1.101 1.327-1.101 1.12-3.854l-.006-3.869v-2.128c0-2.333-.009-4.665-.016-6.997l-.005-4.838q-.006-6.38-.024-12.76-.014-6.504-.02-13.01-.017-12.771-.049-25.544h-15v-44zm-15 205v44h-7q-.034 11.123-.052 22.244-.007 5.163-.023 10.328c-.013 3.954-.018 7.908-.023 11.862l-.015 3.762v3.458l-.007 3.062c-.137 2.25-.137 2.25 1.12 3.284h6v-15h14v-29h15v-58z"/><path fill="#3d1b1e" d="m195.709-.124 2.483.01h2.601c2.852 0 5.703.009 8.555.016l5.914.005q7.8.006 15.6.024 7.953.014 15.906.02Q262.383-.033 278 0v15h29v14h15v15h14v15l4-1 11 1 1 28 13 1c.956 7.15 1.105 14.106 1.022 21.313l-.03 3.64q-.04 4.897-.093 9.797-.05 5.134-.092 10.27-.085 9.705-.18 19.41-.107 11.057-.203 22.114Q365.22 197.272 365 220h-14v14h-15v15h-14v14h-30v15H175v15h-14v-15h-15v15h-15v14h-14v29h-15v-29l-14 1c-1-1-1-1-1.098-4.16L87 293H73v-29H58v-15H44v-15h14v-15h15v-14h29V88l14-1 1-28 13-1 1-14h15l-.062-6.937c-.022-2.355-.01-4.71.062-7.063 1-1 1-1 4.16-1.098L161 29V15h28V1c1.811-1.811 4.299-1.12 6.709-1.124"/><path fill="#205436" d="m195.709-.124 2.483.01h2.601c2.852 0 5.703.009 8.555.016l5.914.005q7.8.006 15.6.024 7.953.014 15.906.02Q262.383-.033 278 0v15h29v14h15v15h14v15l4-1c1.92.083 3.839.233 5.75.438l2.984.308L351 59c1.725 29.37.508 58.53 0 88H234v29h-15v-29H117l-.562-30.5-.186-9.463c-.287-16.052-.174-32 .748-48.037l13-1 1-14h15l-.062-6.937c-.022-2.355-.01-4.71.062-7.063 1-1 1-1 4.16-1.098L161 29V15h28V1c1.811-1.811 4.299-1.12 6.709-1.124"/><path fill="#4d8643" d="M292 263h44v15h15l1 14 13 1c.921 9.926.902 19.093 0 29h8v14l-7 1-1 14h-29v-15h-14v-29h-15v59h-44v14h-88v-14h-14v-59h-15v29h-29v-29h14v-14h15v-15h15v15h14v-15h117z"/><path fill="#39181c" d="M380 102h30v13h2v2h12v29h15v30h14v29h15v73h-15v43h15v45h-44v-30h-15v15l-4.68-.035-6.195-.027-3.07-.026c-5.69-.018-11.214.256-16.867.894-2.824.25-5.5.081-8.313-.243l-2.82-.31L365 351q-.04-3.469-.062-6.937l-.036-3.903C365 337 365 337 366 336h7v-14h-8v-15h15v-73h7v-87h-7zm15 59v73h-8q-.034 13.834-.052 27.668a9039 9039 0 0 1-.023 12.847q-.016 6.195-.02 12.39-.003 2.367-.01 4.735-.01 3.308-.009 6.615l-.006 3.81c-.084 2.87-.084 2.87 1.12 4.935h21v-29h14c1.327-1.101 1.327-1.101 1.12-3.854l-.006-3.869v-2.128c0-2.333-.009-4.665-.016-6.997l-.005-4.838q-.006-6.38-.024-12.76-.014-6.504-.02-13.01c-.01-8.514-.029-17.029-.049-25.544h-15v-44z"/><path fill="#feb691" d="M146 176h29v29h15v-29h14v14h15v15h29v-15h15v-14h14v29h15v-29h29v43h-14v30h-15v14H175v-14h-14v-15h-15z"/><path fill="#4d8643" d="M146 278h15v15h14v14h15v15h14v14h15v15h15v15h29v14h-88v-14h-14v-59h-15v29h-29v-29h14v-14h15z"/><path fill="#598f50" d="M219 15h29v117h44v14l-58 1v29h-15v-30h-44v-14h44z"/><path fill="#2c5f38" d="M189 9h1v6h14v102h-72V88h14V59h15V30h28z"/><path fill="#4c8543" d="M146 410h176v29H146z"/><path fill="#653c2a" d="M161 380h131v15h15v15H161z"/><path fill="#154b35" d="M248 15h15v102h88v30H249v-1h43v-14h-44z"/><path fill="#3e2333" d="M380 102h30v13h2v2h12v30h14v29h-14v29c-13 1-13 1-15 0v-44h-2l-1 2v-2h-11v73h-8v-87h-7z"/><path fill="#886959" d="M73 205h29v14h15v15h15v15h14v14h-29v15H87v-15h15v-14H87v-15H73v15H44v-15h14v-15h15z"/><path fill="#804835" d="M424 380h15v73h-15v15h-15v15h-14v14h-1v-15h-14v-29h14v-29h30z"/><path fill="#7f4936" d="M87 336h1v15h29v15h14v29h-14v15H88v14h-1v-14H73v-59h14z"/><path fill="#824a36" d="M424 146h15v30h14v29h15v73h-29v-73h-15v-29h14v-29h-14z"/><path fill="#134a36" d="M175 278h88v15h-59v14h15v14h15v30h-15v-15h-15v-14h-14v-15h-15z"/><path fill="#39191d" d="M409 336h15v30h29v58h-14v-44h-15v44h-15v-59h-28c-1-1-1-1-1.133-3.687l.008-3.313-.008-3.312C380 352 380 352 381 351a100 100 0 0 1 5 0v-8h1v8h22z"/><path fill="#58894f" d="M161 15h28v15h-28v29h-15v29h-14v29h-15c-.747-19.401-1.215-38.6 0-58l13-1 1-14h15l-.062-6.937c-.022-2.355-.01-4.71.062-7.063 1-1 1-1 4.16-1.098L161 29z"/><path fill="#588e4f" d="M263 44h15v15h14v14h15v29h-15v15h-29z"/><path fill="#578e4e" d="M190 44h14v73h-29v-15h-14V73h14V59h15z"/><path fill="#3f2432" d="M373 352h7l1 12 28 1v1h-29v44h-7l1 57 6 1v14h14v15h-14v15q-6.168.036-12.335.055-2.1.008-4.2.02-3.011.018-6.024.023l-3.665.016C351 512 351 512 350 511c-.1-1.988-.13-3.979-.133-5.969l-.004-3.668.012-3.863-.012-3.863.004-3.668.004-3.393C350 484 350 484 351 483h14v-74h8v-43h-37v-1h37z"/><path fill="#3f2030" d="M380 234h7l1 87 36 1v14h-15v15l-4.68-.035-6.195-.027-3.07-.026c-5.69-.018-11.214.256-16.867.894-2.824.25-5.5.081-8.313-.243l-2.82-.31L365 351q-.04-3.469-.062-6.937l-.036-3.903C365 337 365 337 366 336h7v-14h-8v-15h15z"/><path fill="#95c593" d="M175 132h117v14l-58 1v29h-15v-30h-44z"/><path fill="#5b8e52" d="M278 15h29v14h15v15h14v15l4-1 11 1v29h-29V59h-15V30h-29z"/><path fill="#f1af8f" d="M468 321v45h-44v-30h15v-14l6.063-.5 3.41-.281c6.502-.314 13.017-.219 19.527-.219"/><path fill="#2b583b" d="M307 307h15v73h-59v-14h44z"/><path fill="#824936" d="M292 380v15H175v-14q16.46-.198 32.919-.391l15.296-.182c22.93-.277 45.853-.512 68.785-.427"/><path fill="#d67d66" d="M263 161h59v73h-15v-15h14v-43h-29v29h-15v-29h-14z"/><path fill="#3a181c" d="M424 205h15v102h-15c-1.047-23.953-.975-47.847-.562-71.812l.038-2.26q.244-13.965.524-27.928"/><path fill="#96563b" d="M102 234h30v15h14v14h-29v15H87v-15h15z"/><path fill="#124c35" d="M263 278h29v15h-14v14h-74v-14h59z"/><path fill="#2d5e37" d="M189 9h1v6h14v29h-14v15h-15v14h-14V30h28z"/><path fill="#422125" d="M380 102h30v13h2v2h12v30h-15v-30h-14v30h-15z"/><path fill="#3b1c21" d="m195.646-.124 2.454.01h2.572c2.819 0 5.638.009 8.457.016l5.847.005q7.712.006 15.423.024 7.862.014 15.724.02Q261.561-.033 277 0v15h-87l-1-14c1.8-1.8 4.25-1.12 6.646-1.124"/><path fill="#d77c64" d="M146 161h58v15h-14v29h-15v-29h-29z"/><path fill="#2a583b" d="M146 307h15v59h14v14h-29z"/><path fill="#fbb490" d="M88 366h14v14h29v15h-14v15H88z"/><path fill="#255543" d="M161 453h43v14h15v1h-14v37h-44l-1-2 44 1v-36h-14v22h-15v-8h-14z"/><path fill="#48292d" d="M73 234h14v15h15v14H87v30H73v-29H58v-15h15z"/><path fill="#5a8c4e" d="M234 147h14v58h-29v-29h15z"/><path fill="#154b36" d="M248 453h1v14h14v-14h44v29h-15v8h-14v-22h-30z"/><path fill="#412327" d="m321 453 3 1h-2v29h-14l-1 22h-44v-37h15v22h14v-8h29z"/><path fill="#46252a" d="M453 205h15v73h-15z"/><path fill="#3b191e" d="M424 147h14v29h-14v29c-13 1-13 1-15 0v-44h15z"/><path fill="#325f3b" d="M117 132h58v14h44v1H117z"/><path fill="#325f3c" d="M292 132h58v14c-20.242 1.214-40.468 1.12-60.737 1.069q-6.83-.014-13.66-.02-13.3-.016-26.603-.049v-1h43z"/><path fill="#7a4b35" d="M204 307h15v14h15v30h-15v-15h-15z"/><path fill="#cd7760" d="M204 278h59v15h-59z"/><path fill="#124b35" d="M88 336h43v29h-14v-14H88z"/><path fill="#391a1e" d="M73 351h14v59H73z"/><path fill="#124d37" d="M351 322h22v14l-7 1-1 14h-29v-15h15z"/><path fill="#884e39" d="M424 380h15v44h-15z"/><path fill="#b09282" d="M58 219h15v30H44v-15h14z"/><path fill="#93c391" d="M219 44h15v44h-15z"/><path fill="#391c1f" d="M278 15h29v14h15v15h-15V30h-29z"/><path fill="#3f2126" d="M354.16 482.902 365 483v14h15v15q-6.168.036-12.335.055-2.1.008-4.2.02-3.011.018-6.024.023l-3.665.016C351 512 351 512 350 511c-.1-1.988-.13-3.979-.133-5.969l-.004-3.668.012-3.863-.012-3.863.004-3.668.004-3.393c.19-3.797.41-3.554 4.29-3.674"/><path fill="#144a33" d="M263 278h29v15h-14v14h-15z"/><path fill="#94c492" d="M175 59h15v29h-29V73h14z"/><path fill="#3a1c20" d="M161 15h28v15h-28v14h-15c-.098-10.84-.098-10.84 0-14 1-1 1-1 4.16-1.098L161 29z"/><path fill="#d57f66" d="M395 322h29v14h-15v15h-14z"/><path fill="#3b191d" d="M453 322h14v43h-14z"/><path fill="#7f4935" d="M161 468h29v22h-15v-8h-14zm117 0h29v14h-15v8h-14z"/><path fill="#7d4c3b" d="M424 146h15v59h-15v-29h14v-29h-14z"/><path fill="#ca826c" d="M336 190h15v29h14v1h-14v14h-1v-15h-14z"/><path fill="#3e1b1e" d="M409 117h15v30h-15z"/><path fill="#844c3a" d="m424 276 2 1 13 1v29h-15q-.25-6.381-.482-12.762a1696 1696 0 0 0-.166-4.345q-.122-3.116-.23-6.233l-.144-3.793C423 277 423 277 424 276"/><path fill="#5c8e51" d="M351 87c1.423 2.847 1.008 5.146.879 8.32l-.147 3.809-.17 3.996-.158 4.02q-.196 4.927-.404 9.855h-15V88z"/><path fill="#391c20" d="M351 59v29h-15V59c4.472-2.236 10.015-.383 15 0"/><path fill="#3b1a1e" d="M424 424h15v29h-15z"/><path fill="#864c39" d="M409 424h15v29h-15z"/><path fill="#295639" d="M307 410h15v29h-15z"/><path fill="#28583a" d="M146 410h15v29h-15z"/><path fill="#3a1d1e" d="M234 351h29v15h-29z"/><path fill="#2a5538" d="M307 307h15v29h-15z"/><path fill="#2c5939" d="M146 307h15v29h-15z"/><path fill="#37191c" d="M102 307h15v29h-15z"/><path fill="#39191b" d="M219 190h29v15h-29z"/><path fill="#cb7b63" d="M117 190h15v29h-15z"/><path fill="#3b181a" d="M175 176h15v29h-15z"/><path fill="#643528" d="M336 161h15v29h-15z"/><path fill="#452b38" d="M373 352h7l1 12 28 1v1h-29v43h-6v-43h-38v-1h37z"/><path fill="#39191e" d="M73 263h14v30H73z"/><path fill="#804a37" d="M395 117h14v30h-14z"/><path fill="#3d1d22" d="M131 59v29h-14c-.805-4.026-1.07-6.748-.879-10.738l.147-3.233.17-3.341.158-3.4q.194-4.145.404-8.288 2.373-.293 4.75-.562l2.672-.317C127 58 127 58 131 59"/><path fill="#39181c" d="M395 424h14v29h-14z"/><path fill="#38191d" d="M263 366h29v14h-29z"/><path fill="#d77f66" d="M219 205h29v14h-29z"/><path fill="#39171c" d="M278 176h14v29h-14z"/><path fill="#38181c" d="M439 176h14v29h-14z"/><path fill="#683729" d="M117 161h14v29h-14z"/><path fill="#5a8e50" d="M132 59h14v29h-14z"/><path fill="#7d4b38" d="M373 322h7v29h-15c-.098-10.84-.098-10.84 0-14l1-1h7z"/><path fill="#46272a" d="M394 424h1v44h-15v-15h14z"/><path fill="#67382a" d="M424 380h15v44h-1v-29h-14z"/><path fill="#2a563a" d="M336 336h15v14h13v-14l2 1-1 14h-29z"/><path fill="#5b8a51" d="M277 0h1v30h-15V15h14z"/><path fill="#7f4b3a" d="M380 468h15v14h14v1h-14v14h-1v-15h-14z"/><path fill="#8a4c3b" d="M387 322h8v29h-8z"/><path fill="#5b8951" d="M189 9h1v6h14v15h-15z"/><path fill="#3d1b1d" d="M409 453h15v15h-15z"/><path fill="#7f4b34" d="M263 351h15v15h-15z"/><path fill="#d4846b" d="M424 351h15v15h-15z"/><path fill="#38191a" d="M219 336h15v15h-15z"/><path fill="#693d2e" d="M175 278h15v15h-15z"/><path fill="#2e593d" d="M292 263h15v15h-15z"/><path fill="#673929" d="M131 234h1v15h14v14h-15z"/><path fill="#3a181a" d="M102 234h15v15h-15z"/><path fill="#d67d66" d="M292 234h15v15h-15z"/><path fill="#d77e68" d="M146 219h15v15h-15z"/><path fill="#8f715e" d="M102 219h15v15h-15z"/><path fill="#3b1b20" d="M58 219h15v15H58z"/><path fill="#d17f68" d="M248 190h15v15h-15z"/><path fill="#d27f67" d="M204 190h15v15h-15z"/><path fill="#5c8e52" d="M307 44h15v15h-15z"/><path fill="#5c8f53" d="M146 44h15v15h-15z"/><path fill="#44292c" d="M307 29h15v15h-15z"/><path fill="#43292b" d="M150.16 28.902 161 29v15h-15c-.098-10.84-.098-10.84 0-14 1-1 1-1 4.16-1.098"/><path fill="#371a1d" d="M365 307h15v14c-5.08.847-9.848 1.09-15 1z"/><path fill="#7f4a39" d="M409 147h15v14h-17l-1 2v-2l-2-1 4-1z"/><path fill="#844a36" d="M365 483h15v14h-15z"/><path fill="#d17b64" d="M117 380h14v15h-14z"/><path fill="#804a34" d="M234 336h14v15h-14z"/><path fill="#3a191e" d="M88 336h14v15H88z"/><path fill="#381c1e" d="M307 322h15v14h-15z"/><path fill="#fbb08d" d="M409 322h15v14h-15z"/><path fill="#3a1d1e" d="M204 322h15v14h-15z"/><path fill="#361b1d" d="M146 322h15v14h-15z"/><path fill="#381b1c" d="M190 307h14v15h-14z"/><path fill="#643729" d="M424 293h15v14h-15z"/><path fill="#2a5c3c" d="M263 293h15v14h-15z"/><path fill="#361a1b" d="M175 293h15v14h-15z"/><path fill="#37191c" d="M336 278h14v15h-14z"/><path fill="#391b1e" d="M322 263h14v15h-14z"/><path fill="#d4836b" d="M175 249h15v14h-15z"/><path fill="#3a191c" d="M87 249h15v14H87z"/><path fill="#3c191e" d="M73 234h14v15H73z"/><path fill="#3a1a1f" d="M44 234h14v15H44z"/><path fill="#d67d67" d="M161 234h14v15h-14z"/><path fill="#ae9181" d="M73 219h14v15H73z"/><path fill="#39181c" d="M88 219h14v15H88z"/><path fill="#5a8f50" d="M292 132h15v14h-15z"/><path fill="#361a1d" d="M322 44h14v15h-14z"/><path fill="#371b1e" d="M132 44h14v15h-14z"/><path fill="#5b9053" d="M292 30h15v14h-15z"/><path fill="#3a181d" d="M380 483h14v14h-14z"/><path fill="#3c191d" d="M395 468h14v14h-14z"/><path fill="#2c583a" d="M322 322h14v14h-14z"/><path fill="#744430" d="M190 293h14v14h-14z"/><path fill="#39191d" d="M117 293h14v14h-14z"/><path fill="#d88870" d="M278 249h14v14h-14z"/><path fill="#8d705c" d="M73 249h14v14H73z"/><path fill="#aa8e7e" d="M88 205h14v14H88z"/><path fill="#39181d" d="M73 205h14v14H73z"/><path fill="#fcb895" d="M336 205h14v14h-14z"/><path fill="#fcb893" d="M117 205h14v14h-14z"/><path fill="#5a8f50" d="M161 132h14v14h-14z"/><path fill="#588e50" d="M161 59h14v14h-14z"/><path fill="#598e51" d="M161 30h14v14h-14z"/><path fill="#2d5a3d" d="M278 278h14v14c-9.18.195-9.18.195-12 0-2-2-2-2-2.195-4.82z"/><path fill="#3b181c" d="M395 147h14v12c-5.473 2.19-8.258 2.171-14 2z"/><path fill="#38191d" d="M351 293h14v12c-4.927 1.97-8.78 2.18-14 2z"/><path fill="#38181c" d="M88 293h14v14l-14-1z"/><path fill="#341519" d="M373 468h7v14h-7z"/><path fill="#585f49" d="M350 278h1c.902 9.907.921 19.074 0 29l15-2-1 3h-15z"/><path fill="#fab99e" d="M409 322h15v14h-9c3-2 3-2 7-2l1-11c-7.477.516-7.477.516-14 4z"/><path fill="#608552" d="M204 336h15v15h-1l-1-12-13-2z"/><path fill="#5d7f4d" d="M223 351h11v14l-2-1c-.414-2.723-.414-2.723-.625-6.062l-.227-3.348L231 352h-8z"/><path fill="#694a30" d="M234 336h14c-3.904 1.952-6.722 2.506-11 3l-2 6h-1z"/><path fill="#664830" d="M277 351h1v15h-15l1-2h11z"/><path fill="#d67a64" d="M278 255c4.688 3.613 4.688 3.613 6 5v3h-6z"/><path fill="#64894c" d="M219 308h2c1.297 4.61.711 8.338 0 13h-2z"/><path fill="#12442a" d="M204 16h2l-.062 3.313c-.123 3.63-.123 3.63 1.062 6.687-.937 2.688-.937 2.688-2 5h-1z"/><path fill="#f0b69e" d="M116 395h1v14l-4-1 2-2c.463-2.662.463-2.662.625-5.625l.227-3.04z"/></svg>