<svg xmlns="http://www.w3.org/2000/svg" viewBox="0 0 338 512"><path fill="#a37a61" stroke="#a37a61" d="M132.5 41v1zm21 0 .5 11.5h-1zm31 0 .5 3.5h-1zm-72 2 .5 4.5h-1zm92 3 .5 2.5h-1zm-92 3 .5 3.5h-1zm20 0 .5 1.5h-1zm-20 7v1zm20 2v1zm-20 3v1zm20 0v1zm-30 3 .5 14.5h-1zm51 0 .5 5.5h-1zm61 0 .5 2.5h-1zm0 6v1zm-61 2v1zm61 1 .5 5.5h-1zm-39 46v1zm3 0 3.5.5-3.5.5zm5 0v1zm-152 21 1.5.5-1.5.5zm10 10 2.5.5-2.5.5zm153 31v1zm-81 21h8l1.5 1.5-.5 8.5-.5-9h-8.5zm82 0 3.5.5-3.5.5zm8 0v1zm-19 11 .5 19.5h-1zm39 0 1 2q-3.4-.9-1.5 4.5 2.3 1.3-.5 2.5H216v-7l2.5 1 .5-2 3.5 1zm22 0 .5 8.5h-1zm-153 9 3.5.5-3.5.5zm9 0v1zm124 0v1zm-144 11 .5 2.5h-1zm134 9v1zm-102 1 2.5.5-2.5.5zm29 0v1zm32 0v1zm29 0v1zm-61 3 .5 1.5h-1zm23 7 8.5.5-8.5.5zm-25 3v1zm-17 7-.5 1.5-.5 19.5-.5-19.5zm2 0 6.5.5-6.5.5zm59 0 9.5.5-10 .5-.5 20-.5-19.5zm-51 1 .5 20.5h-1zm-20 30 8.5.5-8.5.5zm81 0 9.5.5-10 .5-.5 3-.5-2.5zm-71 1v1zm51 0 .5 9.5h-1zm-32 1v1zm51 6 .5 3.5h-1zm-51 2v1zm-10 1 .5 9.5h-1zm52 2 .5 6.5h-1zm-51 9 .5 19 4 .5-5 .5zm41 0 .5 9.5-2 1 1-1zm9 0 .5 20-9-.5 8-.5zm-70 10v1zm30 0 9.5.5-9.5.5zm21 0 1.5.5-1.5.5zm4 0v1zm27 0v1zm-73 2 .5 8.5h-1zm18 7 2.5.5-2.5.5zm-8 12v1zm-9 8v1zm2 1 2.5.5-2.5.5zm5 0 3.5 1.5-.5 9.5-.5-10q-3.3.8-2.5-1Zm54 0 9.5.5-10 .5-.5 10-.5-9.5zm-82 1 .5 50.5h-1zm10 0v1zm102 0 .5 50.5h-1zm-101 10 7.5.5-7.5.5zm9 0 .5 7.5h-1zm73 0v1zm2 0 5.5.5-5.5.5zm-70 10 2.5.5-2.5.5zm5 0v1zm52 0v1zm-52 4 .5 2.5h-1zm0 4v1zm52 0v1zm0 31v1zm-41 1 2.5 1.5-3 .5zm30 1v1zm11 0 .5 6.5h-1zm-52 1 .5 4.5h-1zm0 6v1zm0 3 .5 27.5h-1zm52 0 .5 41.5h-1zm81 1v1zm-174 1 .5 5.5h-1zm134 4v1zm-134 4v1zm-39 11v1zm2 0 3.5.5-3.5.5zm6 0v1zm207 0v1zm-166 1v1zm114 0v1zm-83 13 .5 2.5h-1zm-40 6 8.5.5-8.5.5zm123 0 9.5.5-9.5.5z" opacity=".996"/><path fill="#f7d38c" stroke="#f7d38c" d="m277.5 10 8.5.5-8.5.5zm38 0v1zm-160 21q6.8-1.7 8.5 1.5V41h-10v-8.5zM102 41h10v12h-10zm103 0h10v12h-10zm-41.5 1v1zm0 7v1zm0 3 1 1 9.5.5-9.5.5zM143 53l11 .5-1 1v28l.5 1.5H143zm-40.5 1 .5 7.5h-1zm20 11 .5 1.5h-1zm11 4 .5 1.5h-1zm-11 2v1zm.5 3h10v10h-10zM81.5 98l.5 2.5h-1zm-30 42v1zm113 0q1.7 2.7 8 1l2-1 4 2 4-1q3.3 1.9 1.5 8l-5.5-1-2 1h-2l-2 1-.5-3 6-1.5-3-1 5-1-11.5-.5-1.5 1.5-1 6.5-2.5 1h-2l-6 1v-1l3-1q1.5 2.5 3-1l2.5-.5zm1.5 2v1zm17 1-1 3h1zm-2 1-1 2h1zm-56.5 6 4 1 3-1-1 2-3-1-3.5 1 2 5.5v2l-1 7q2.7 1.8 1 8h-2l-.5 5.5-.5-28.5zm.5 17-1 6h1zm20.5-17 3.5 1v2q-2.7-1.1-2 1.5h-1l1-2zm5.5 0 4 .5-4.5 2.5.5-1.5zm34 0 6.5 1q1.3-2.2 2.5.5v2l-.5 1.5-.5-2-3.5-1-3 6-.5-2.5v-2zm-41.5 2v1zm28 0 .5 2.5h-1zm22 4 .5 11.5h-1zm-48 2 .5 7.5h-1l-.5-2.5-1 2-.5-5.5h1l.5 2.5zm-74 2v1zm-51 1 .5 8.5h-1zm150 0 .5 2.5h-1zm-40 2 .5 6.5h-1zm15 4 .5 2.5h-1zm39 0v1zm-41 3 .5 3.5h-1zm28 0 .5 3.5h-1zm13 0 .5 6.5h-1zm-55 1 .5 6.5h-1zm16 2q2.3-.7 1.5 1.5zm26 2 .5 2.5h-1zm22 0 .5 5q-4.1 1.3-3-2 3.1 1.1 2.5-3Zm-68 3v1zm60.5 0q3.3-1.1 2 3-3.3 1.1-2-3Zm-154.5 3 8.5.5-8.5.5zm99 0 3.5 2.5-1.5.5-2.5-1zm15 0v1zm45.5 0 2 .5v8.5q-5.2 1.7-4-2l2-.5zm-66.5 1 2.5 1v5q5.2-1.7 4 2-4.6 1.3-6-1.5zm62 0-1 2-4.5-.5zm-51 1 8.5.5-8.5.5zm39 0v1zm11 6 1.5.5-1.5.5zm-51 1v1zm-11 1 2.5.5-2.5.5zm5 0 3.5.5-3.5.5z" opacity=".996"/><path fill="#f7d38c" stroke="#f7d38c" d="m184.5 191 3.5.5-3.5.5zm-51 1 .5 2.5h-1zm48 0 1.5 2.5-2-1zm-47 4 .5 2.5-1.5 3.5-.5-4.5zm48 0 .5 2.5h-1zm-2 1 .5 3-6-1.5zm-43.5 1 6.5 1 28.5.5-35 .5zm-85.5 3v1zm127 0 5.5.5-5.5.5zm-127 11 8.5.5-8.5.5zm31 12v1zm0 7 1 1 8.5.5-10 .5zm-11 11v1zm-22 42v1zm94 9 3.5 1.5-4 .5zm6 1 18.5.5-18.5.5zm21 0 3.5.5-3.5.5zM143 305l13 .5-11.5.5-1 1zm15.5 0 1.5.5-1.5.5zm11 0 4.5.5-4.5.5zm-26 8 .5 1.5h-1zm-112 116 1.5.5-1.5.5zm9 2 .5 1.5h-1zm1 18 8.5.5-8.5.5zm236 0 8.5.5-8.5.5zm-145 21v1zm52 0 .5 20 3 .5-4 .5zm-71 20 13.5.5-13.5.5zm17 0 1.5.5-1.5.5zm61 0 7.5.5-7.5.5zm11 0 1.5.5-1.5.5z" opacity=".996"/><path fill="#ba7836" stroke="#ba7836" d="M124.5 42h7.5v21h-9V43.5zm60.5 0h9v21h-9zm-72.5 21 .5 19.5-1.5 1.5H103V64h8.5zm92 0 1 1h8.5v20h-19l-1-5.5 1-4.5h10v-9.5zM236 213h9v9h-9zM92 223h10v9H92zm134 0h9v9h-9zM72 233h9v10h-9zm143 0h10v10h-8.5l-1.5-1.5zM52 254h9v9l-5.5 1-3.5-1zm10 175h29v10H62zm164.5 0h38l1.5 1.5q.8 6.1-1 8.5h-38.5l-.5-.5zM51 440h10v9H51zm216 0h9v9h-9z" opacity=".996"/><path fill="#8e9194" stroke="#8e9194" d="m307.5 10-.5 1.5-1 15 1 1v11l-1 1v12l1 3q-2.2 1.2-1 6v2q2.5 3.5 1 11l-1 2 1 1v13l-1 5 1 1v15l-1 1v8l1 3-1 5.5-2.5 1h-4q-2.2.8-1.5-1.5l-1-1v-90l1.5.5q2.6-.8 1.5 2.5l-1 2 1 4-1 4q2.5 1.5-1 3V55l2 .5v5l-2 3q3.4 2.6 2 10l-1 5q2.5 1.5 1 7l-1 2 1 1v29l-1 8 2-1v-43l1-5-1-3 1.5-3.5 1 55 .5-109.5h-1q1.3 4.8-2 3.5 1.7-5.2-2-4l1 4.5-2 .5-.5 9-.5-11.5 1-2-1-2 1-2.5h8.5zm-3.5 2v1zm-27.5-1v1zm41 0 .5 50.5h-1z" opacity=".996"/><path fill="#8e9194" stroke="#8e9194" d="m302.5 23 .5 2.5h-1zm-98 9v1zm93 0 .5 2.5h-1zm-93 5 .5 1.5h-1zm72 0 .5 32.5h-1zm26 1 .5 28.5h-1l-1-27zm-108 1 .5 1.5h-1zm123 25v1zm0 3v1zm0 6 .5 30.5h-1zm-41 33 .5 12.5h-1zm41 5v1zm0 7 .5 4.5h-1zm-41 5v1zm41 4v1zm0 2v1zm.5 12h9v5.5l-.5 3.5H318zm3 4v1zm-44 16h9v9h-9zm5 3v1h1zm-1 1-1 2h1zm3 1v1zm14.5-5h8.5v20h-10v-8.5h1v7.5h6l1-2.5v-13l1-1q-6.6.5-7.5-2.5Zm-1 9v1zm20 7 .5 8.5h-1zm-50.5 5h9v10h-9zm4 3 1 1q1 3-2 2l-1 3h3l1-2q2-5-2-4Zm-1 1v1zm-1 1-1 2h1zm-11.5 5 2.5.5q-2.1 3.3-2.5-.5Zm5 0v1zm55 7 .5 11.5h-1zm-19 3h8.5v10h-9v-3.5l-1-5zm3.5 3v1h1zm-1 1-1 2h1zm3 0-1 2h1zm-2 2v1h1zm-45 1h7.5l.5 1.5.5 1.5-4-1-4.5 1zm-205.5 2v1zm164 10v1zm30.5 2h8.5l1.5 1.5-1 3 1 4.5-5.5 1-4.5-1zm5 3v1q2-1 1 2h1q1-4-2-3Zm0 3v1h1zm0 2v1h2zm25.5-4 .5 3.5h-1zm-188 37 3.5 1.5-1 3 1 5.5h-9v-9zm-.5 4 1 4h1q1-5-2-4Zm-1 2v1h1zm189.5-6 .5 6.5h-1zm-199 11 .5 1.5h-1zm4 0 .5 11.5h-1zm20 0 .5 1.5h-1zm0 3 .5 2.5h-1zm-29 3 .5 4.5h-1zm29 5v1zm-9 2 1.5 4.5-.5 1.5 4-1 3 1 1.5-.5-.5 1.5H92zm-20 2 .5 3 5 .5-6 .5zm29 0v1zm50 25 1.5.5-1.5.5zm13 0v1zm3 0 5.5.5-5.5.5zm-137 1 .5 4.5h-1zm196 0 1.5.5q-3.1 1.8-1.5 3.5l-1.5-2.5zm8 0 .5 9-8.5 1-1.5-4 3 .5-.5 1.5q4.4 1.5 3.5-1.5l1-2q-2.2-1.2.5-2.5 2.5.7 2-2Zm-6 2v1zm-146 21v1zm2 1 .5 4.5h-1zm149 3 .5 1.5h-1zm-152 3 2.5.5q-2.3 3.9-8 3.5l-1-2.5 1.5.5 5.5-.5zm154 0 2.5.5-2.5.5zm10 1v1zm0 2 .5 5.5h-1zm-173 3 1.5 3.5-2 .5zm18 1 .5 2.5h-1zm150 2 2.5.5-2.5.5zm-168 13v1zm2.5 0 2 .5-.5 1.5q2.6.7 1.5-2h4l-.5 10-.5-7h-6zm163.5 0 1.5.5-1.5.5zm6 0 1.5 2.5h-1zm1 7 .5 1.5h-1zm-9 2v1zm9 5 .5 4.5h-3V384q2.8 1 2.5-2ZM75 386l4 1.5-4 .5zm162.5 0v1zm-207 11v1zm31.5 2h9v9h-7.5l-1.5-1.5zm4 3-1 2h1zm3 0-1 2h1zm-1 2v1zm178-5h6.5l1 1 1.5-.5v8.5h-9zm3 2v3h1q1-4-1-3Zm4 1v1zm0 2-1 2h1zM30.5 439v1zm31 17v1z" opacity=".996"/><path fill="#623726" stroke="#623726" d="M194.5 42v1zm0 2 .5 11.5h-1zm-11 19v1zm12 0 7.5.5-7.5.5zm-83 43 .5 21.5h-1v-19l-1-1zm41 0 .5 1.5h-1zm14 0 3.5.5-3.5.5zm37 0 .5 33.5h-1zm3 0 4.5.5-4.5.5zm6 0v1zm4 3v1zm4 0v1zm-4 4 .5 10.5h-1zm5 3v1zm-129 2v1zm7 0v1zm53 0 .5 7.5h-1zm-7 4v1zm4 0v1zm67 4 1 2zm-16 1v1zm-48 1v1zm70 0 1 2zm-131 1v1zm20 0v1zM11 130h9v9.5l-1.5-.5H11zm8 3v1zm-5 1-1 2h1zm4 3v1zm209.5-1 1 2zm4 1v1zm-201 2v1zm-8 1q5.4-.6 7.5 1v9h-7.5q-3.2-1.7-1.5-8.5zm.5 1v1zm1 2v1zm1 1-1 3h3l-2-1zm3 3v1h1zm34.5 15 .5 3q3.3 1.1 2-3h6l-.5 8-2-5-.5 4.5 4 2v2q1.5 6-1.5 7.5-6.7 1.8-8.5-1.5l.5-7.5 2.5 1.5V171l-3-.5zm7.5 2v1zm-4 10-1 4h3l-2-1zm3 4v1zm2 1v1zm41.5-13v1zm0 5 .5 4.5h-1zm0 6 .5 1.5h-1zm92 1v1zm-132 3 9.5.5-9.5.5zm-9 51 1.5.5-1.5.5zm-2 27 .5 1.5h-1zm133 74 .5 2.5h-1zm-162 9v1zm162 6v1zm-82 8v1zM83 388h7.5l1.5 1.5-1 1v9l1 2-1 5 .5 1.5-9.5-1 1-10.5q-2.2-1.3-1-6zm3 3v1zm-1 4v1zm142.5-7h7.5v20l-9-.5 1-3-1-1-1-13zm1.5 16v1zM30.5 438l8.5 1.5-7.5.5zm31 1v1zm21 0 3.5.5-3.5.5zm7 0v1zm138 0v1zm37 0v1zm-203 4 .5 4.5h-1zm124 56v1z" opacity=".996"/><path fill="#4d281f" stroke="#4d281f" d="m96.5 95 3.5.5-3.5.5zm78 0 .5 8q3 1.3 2-2.5l1-1-1.5-2.5 3 1 2-1-1.5 2.5q-.5 4 2.5 4.5l.5-1.5-1-3 1.5-2.5.5 6.5-3.5 1.5-5 1-1.5-3.5zm4.5 8v1h1zm-3 1v1z" opacity=".996"/><path fill="#4d281f" stroke="#4d281f" d="m178.5 95 5.5.5-5.5.5zm-77 1v1zm117 0 2.5.5-.5 1.5 3.5 1.5 1 3-1 2 .5 1.5-6.5-4.5 1-2q-3.7-1.7-.5-3.5Zm4.5 7v1zM93 97l3.5 1 3-1-.5 1.5q.8 3.8-1.5 4.5l-1.5-.5-1.5 2.5-1.5-.5zm2 5-1 2h1z" opacity=".996"/><path fill="#4d281f" stroke="#4d281f" d="m101.5 98 .5 8-6-.5 5-4zm114 0q-.1 5.6 4 7l1.5.5-6 .5v23.5l.5.5h9.5v8.5h-1l-.5-4.5q-2.7 1.2-.5 2.5-.7 3.8 1.5 4.5 1.5-2.5 7-1h2l1.5.5v14l-1 1V170h-8.5l-1.5 1.5q1.5 7-1.5 6.5h-2l-4.5-1 1-3.5-1-1v-12q2.5-1.5 1-7l-2.5-4.5H206v-5.5l1.5-3.5h7.5v-10h-10v-23h6.5l1-1q1.3 2.3 2.5-.5zm-8.5 10 1 2 4-1zm6 1q1 5 0 16h1v-14zm-6 1-1 17h1zm6 16-1 2 2-1zm-5 1v1zm11 5v1zm3 0v1zm-4 1-1 2h1zm5 0v1zm-6 4-1 3h1zm-1 3v1zm-8 1v1zm18 0v1l3 1 3-1zm8 0v1zm-26 2-1 4h2zm2 4v1h2zm8 5v1zm15 5-1 8h1zm0 9v1zm-1 1v1zm-5 1v1zm2 0v1h2zm-113.5-62 3 1 2-1 2.5.5V117h-10v-9.5l1.5-.5zm1.5 2v1h1zm3 0 1 2q1-3-1-2Zm-6 1v5l4 1h2q2 1 1-1h-1q-4 1-5-1l1-2q1-3-2-2Zm29-3h4v1.5l-.5 1.5 3.5-.5q-2.3-1.2.5-2.5l2.5.5V119h-7l.5-2 4.5 1q1.6-2.1 1-7.5h-1q1 4.5-1.5 5.5H146v-6.5h-1l-1 8 .5 1.5-1.5-.5zm8 3v1zm13-3 4 1.5-.5 1.5 2.5-.5-.5-1.5 1 1 2.5-1.5v2l-1 8 1 2.5h-6.5l-1.5-1.5q3.5-1.5 2-8h-1q1.3 5.3-1.5 6.5l.5-1.5zm-62 11h10v13h-10v8.5h-1l-1-6.5-5 .5 4 .5q-1 5.7 2.5 8l1-1h8.5l-1 2.5 1 3v2l-.5 1.5h-7l-2.5 6.5 1 1V168l-3 .5v9.5h-6v-6.5l1-1-2.5-1.5-4 1v-1l3.5-.5-5.5-1.5-2 3-.5-2.5 2-3-1-2v-2l1-8h-1l-.5 5.5-.5-12q3.3 1.1 2-3-3 1.3-2-2.5l2.5-.5 7 1-.5-1.5V130h10zm7 1-3 1-1 2 4-1q2 1 1 6-1 2-4 1v1q4 1 5-1 2-7-2-9Zm-5 3-1 6h2q1-5-1-6Zm-9 12v1zm-1 1-1 5h1zm-8 7 1 2h1zm5 0v1zm12 0v1h1zm7 0v1zm-5 1v1h4zm5 3v1zm-15 27-1 2h1zm59.5-53h2l5 1 1.5-.5-2 3h2q1.5 7-1.5 6.5H157q1.1-2.7-1.5-2-3.4-1.9-1-8Zm4.5 1-4 3 1 3v-2l5-3zm2 4-2 3h2zm-6.5 4v1zm41 2 1 2q1.7-3.5 7.5-2l-.5 6-2-4-2.5.5 3 2q-2.5 1.5 1 3l-1.5 1.5-1.5-.5 2-1-4-.5q1.1 2.7-1.5 2l-1.5-1.5zm3.5 1v1z" opacity=".996"/><path fill="#4d281f" stroke="#4d281f" d="m100 170 2 .5v7.5l-2-.5zm22.5 11v1zm79 0v1zm-127 1v1zm2.5 0q3.8-1 5 1.5l-.5 6.5-.5-4h-2zm28.5 0 2.5.5-2.5.5zm4.5 0 2 .5-2 1zm96.5 0 2 3 3.5-.5-2-1 2.5-1.5 1.5 3.5v2l-.5 3.5-3-1-3 1-1.5-3.5h2zm5.5 5-4 2h4zm-139-3 5 1q1.5 4.5-3 3l-.5-3-1.5.5zm31.5 0h2l4.5 2q2.1 5.2-2.5 4l-3.5-2.5zm2.5 3v1h1zm3 0v1zm-1 1v1zm85.5 20v1zm41 14 .5 9.5h-1zm-91.5 2h27.5l1.5 1.5q2.6 7.3-3.5 5.5h-2l-1.5-.5q4.6.6 6-2l-1.5-3.5h-23l-1.5 1.5-1.5 2.5z" opacity=".996"/><path fill="#4d281f" stroke="#4d281f" d="m150.5 226 1 1H169q1.4 4-5.5 2l-3.5 2.5v7.5h-3q.9-6.2-1-9-2.1-1.6-7.5-1l-1.5-1.5z" opacity=".996"/><path fill="#4d281f" stroke="#4d281f" d="m146 230 7 1.5-7 .5zm77.5 2 1.5.5-1.5.5zm-62 5q2.8 1.2.5 2.5l1 2-6 .5q-1.2-3.7 4-2zm33 27v1zm-162 72q3-.9 1.5 3.5h-1l-.5-1.5-1 2-.5-2.5zm2.5 4q3.7-1.5 3 1.5l-3.5 1.5.5-1.5zm87.5 6v1zm-60 93 13.5.5-13.5.5zm28 0v1zm138 0 35.5.5-35.5.5z" opacity=".996"/><path fill="#72442d" stroke="#72442d" d="M194.5 43v1zm0 13 .5 2.5h-1zm-77 7 3.5.5-3.5.5zm15 0v1zm4 0v1zm6 0v1zm32 0v1zm4 0 4.5.5-4.5.5zm16 0 .5 7.5h-1zm9 0v1zm-9 9 .5 1.5h-1zm-31 1v1zm-61 22 6 1 1-1h22l2 1h2l5-1 2 1 1-1h21l1 1h8.5v10h-9.5l-.5 2.5-1 4 1 3-1.5 3.5h-8l-1.5-1.5q-1.5-7.5 1-11-1.2-2.7-2.5-.5-6.2 1.8-8-1l-.5 14h10v10h-7.5l-1.5-1.5q1.8-6.7-1.5-8.5H132v10h-6.5l-3.5 1.5v8.5h-15.5l-4.5 1 1-3.5q-2.2-1.2-1-6l-1.5-1.5q-5.5-1.5-7 1l-1.5-.5-1 3q2.3 1.2 1 6l-1.5 1.5H83v-21.5l2.5-.5 4-1q1.8 2.8 3.5-1.5V106h9v-8.5zm70.5 2v1zm-60 9q-3 1-1 3v8h-4l-4-1-2 2v12h11v-13l3 1 7-1v-11zm-19 12v1zm7 0v1zm46 4v1zm4 0v1zm34.5-27 4 1q1.7-2.7 8-1h11l1 1 3-1 1.5.5V106h-10v22.5l-3.5 1.5-5.5-2.5V119h-8.5q-2.7-1.2-.5-2.5l-2-11 2-9zm16.5 32v1zm13.5-21h8l1.5 1.5-1 9q1.3 2.8 2.5.5l2 1 5-1 1.5 1.5v15l-1 2 1 4.5-5.5-1-2 1-2.5-1-.5-10q-1.8 2.8-8 1l-1.5-1.5v-20zm2.5 3v1zm4 0v1zm-4 4-1 11h1zm5 3v1zm4 2-1 2h1zm-9 8v1zm1 1v1zm5 1v1zm4 8v1zm1 1v1zm3 0v1zm-211.5-7 .5 9.5h-1zm184.5 0h9.5l.5 2.5-1 1v6.5l-6.5-1q-1.2 2.3-2.5-.5zm-186.5 3v1zm12 8 .5 7.5h-1zm85 72 1.5 2.5v24h-1v-24zm3 0q4.5-.5 4.5.5v29h-1l-1-9q2.5-1.5 1-7l-1-1V214q-3.3.8-2.5-1Zm77 0h2q2.6-.7 1.5 2l-2.5 1zm6 1v1z" opacity=".996"/><path fill="#72442d" stroke="#72442d" d="m118.5 216 .5 4.5h-1zm82 0 .5 22.5h-1zm-5 5 .5 2.5h-1zm-114 11v1zm37 0 .5 6.5h-1zm63 3v1zm-44 1 2.5 1.5-.5 1.5-.5-2zm41 0 1.5.5-2 .5-.5 2-.5-1.5zm-45 3 .5 3.5h-1zm50 0 .5 4-2-.5zm-7 1v1zm19 0 1.5 2.5-2 .5zm6 0v1zm-60 2v1zm61 0v1zm-31 3v1zm2 0 .5 3.5h-1zm-5 1 1.5.5-2 .5-.5 2-.5-1.5zm4 6 1.5.5-1.5.5zm-111 3 .5 3.5h-1zm0 6v1zm137 58v1zm2 0v1zm-85 4v1zm82 0v1zm4 0v1zm-5 2v1zm3 0 3.5.5-3.5.5zm-169 12v1zm114 0v1zm12 0 1.5.5-1.5.5zm16 0-1 2zm20 1v1zm-2 1v1zm-160 1v1zm140 0 .5 1.5h-1zm17 1v1zm-30 1 3.5.5-3.5.5zm9 0 2.5.5-2.5.5zm-36 1v1zm-100 1v1zm155 1v1zm9 1 .5 1.5h-1zm-11 1-1 2zm-3 2v1zm29 0v1zm-32 2 .5 1.5h-1zm-68 1v1zm73 0h1.5v5l-10-.5 7.5-.5 1.5-1.5zm25 1v1zm-74 1v1zm43 0v1zm-43 2 9.5.5-9.5.5zm72 0v1zm2 0 5.5.5-5.5.5zm-4 2v1zm-88 1v1zm86 0-1 2-1.5-.5zm-84 1 1.5.5-1.5.5zm2 2v1zm-5 1 1 3 2.5.5-5 .5zm83 0v1zm-1 2v1zm7 0 .5 1.5h-1zm-83 1v1zm79 0v1zm-6 2-1 2zm-66 2v1zm62 0 1.5.5-1.5.5zm-60 2v1zm58 0 .5 1.5-2 1zm6 1 .5 4-3-.5 2-.5zm-63 1v1zm3 4 .5 8.5 1 1-2 .5zm48 1v1zm-43 1 4.5.5-4.5.5zm17 0 6.5.5-6.5.5zm24 0v1zm4 5 .5 3-4-.5 3-.5zm-43 1 2 1 3-1 4 1 28.5.5-39.5.5v-1zm86 2v1zm0 16 .5 2.5h-1zm-143 3 6.5.5-6.5.5zm58 1q3-.9 1.5 3.5h-1zm32.5 0 5 .5-4 .5-.5 4zm7.5 0q4.2-1.3 2.5 3.5h-1zm25 0 2.5.5-2.5.5zm4 0v1zm2 0 1.5.5-1.5.5zm-79 1v1zm78 3 .5 3.5h-1zm-106 1v1zm73 2 1.5.5-1.5.5zm-68 1 1.5 5.5h-1zm64 0v1zm2 0v1zm30 2 .5 4q-3 1.3-2-2.5zm-101 1 .5 6 3 .5-2.5.5q-3.1-1.6-1-7Zm46 0 3.5.5-3.5.5zm14 0v1zm4 0 2.5.5-2.5.5zm2 2v1zm-25 2v1zm24 0 .5 1.5-1.5 1.5h-22v-1h22zm38 2 1.5.5-1.5.5zm-98 1 1 2zm95 1v1zm-175 3v1zm0 2 .5 5.5h-1zm9 7 1.5.5-1.5.5zm52 0v1zm174 0v1zm22 0 9.5.5-9.5.5zm-191 3-1 2zm-1 3v1zm3 0v1zm1 3 2.5 1.5-1.5.5h-2l-1.5-.5zm118 0 4.5 1.5-5 .5zm-124 1 2.5.5-2.5.5zm130 0 1.5.5-1.5.5z" opacity=".996"/><path fill="#060113" stroke="#060113" d="m287.5 1 .5 8.5h-1zm19 0 .5 1.5h-1zm0 7 .5 1.5h-1zm-20 3 .5 1.5h-1zm0 6 .5 4.5h-1zM154 21l6 .5-5.5 1.5zm132.5 5v1zm-132 3 8.5 1.5-9 .5zm-27 2 3.5.5-3.5.5zm22 0 3.5.5-3.5.5zm19 0h5.5v9.5h-1V32h-4.5zm19 0q5.3-1.2 6.5 1.5l-1.5-.5q-6 1.2-5-1Zm-95 1v1zm31 0 .5 5.5h-1zm20 0 .5 10h-10v20h8v-8.5l1.5-1.5h8.5l.5-6 .5 7h-10v10h-10V41h10z"/><path fill="#060113" stroke="#060113" d="m164 32 2 .5-1 1v17l1.5 1.5q6.8-1.7 8.5 1.5V62h8V43.5l-1-1 2.5-2.5h8.5l.5-5 .5 6h-10v22h-10V53h-9.5l-.5-.5zm41.5 0v1zm19 0v1zm-92 1 .5 3.5h-1zm154 0 .5 6.5h-1zm-194 1 .5 4.5h-1zm113 0v1zm19 0 .5 32.5h-1zm-19 4 .5 2 9 .5-10 .5zm-82 1 8.5 1.5-9 .5v22h-10l.5-15 .5 14h7v-8.5l1-1v-8l-1-2.5h-7v4.5h-1V41h9.5zm-31 1 .5 5.5h-1z"/><path fill="#060113" stroke="#060113" d="m102.5 40 9.5.5-10 .5v43h113l.5-42 .5 41.5-4.5 2.5-4-1-4 1-1-1h-10l-26 1-1-1h-25l-9 1-5-1-4 1-1-1h-19l-1.5-1.5v-42z"/><path fill="#060113" stroke="#060113" d="M195 41h9v9.5h-1V42h-6.5l-1.5.5zm91.5 2 .5 14.5h-1zm-91 1 .5 18h7v-9.5h1V63h-9zm-103 5 .5 11.5h-1zm194 12 .5 9.5h-1zm-194 2v1zm30.5 1 9 .5-8 .5-.5 8zm62.5 0h8.5v8.5h-1V65h-8l-.5 3-.5-2.5zm-93 1 .5 28.5h-1zm132 5 .5 24-2-.5 1-1zm-93 2v1zm54 0v1zm101 1 .5 28.5h-1zm-166 20v1zm6 0 1.5.5-1.5.5zm8 0 2.5.5-2.5.5zm8 0v1zm19 0 1.5.5-1.5.5zm31 0v1zm20 0v1zm-130 2 .5 21h8V95.5h1V117h-9.5l-.5.5V171h10v9.5h-1V172h-8l-.5 9-.5-10H72v-10.5h1v9.5h8v-51.5l-2.5-.5v-1l3.5-.5zM225 95l2 .5-1 1V116h7.5l.5-1.5h1l-.5 2.5H225zm9.5 0v1zm52 9v1zM174 106l3 .5-2 .5v11h8v-9.5l-1-1 2-.5v12h-10zm112.5 2 .5 5.5h-1zM0 109h19.5l.5 1.5-1.5-.5H1v7.5H0zm72 8 3 .5-2 .5-.5 2zm164 0h9.5l.5.5V171l-20 1v7.5l1 1-2 .5v-10h9.5l1-1h9.5v-50.5l-1.5-1.5q-5.5-1.5-7 1zm50.5 0 .5 5.5h-1zm-275 1 2.5.5-2.5.5zm4 0 4.5.5-4.5.5zm-6 2v1zm12 0v1zm8 0v1zm103.5 0 2 .5-1 1-.5 8.5zm9.5 0 .5 10 10 .5-9.5.5-1.5-1.5zm22 0 .5 1.5h-1zm8 0 1.5.5v9.5h-7.5l-1-1-1.5.5.5-1.5h8.5v-4.5zm11.5 0 2 .5-1 1V139h7.5l.5-1.5h1l-.5 2.5H184zm9.5 0 .5 9.5h-1zm-193 3 .5 1.5H0zm164 0v1zm122 1 .5 4.5h-1zm-277 2 .5 1.5H9zm-9 1v1zm20.5 1 2.5 1 6.5-1-.5 2-4-1-4.5 1zM.5 130l.5 2.5H0zm30.5 0h10v10h10v10h9.5l.5 2q-2.8-1.9-9-1l-.5 9-.5-10H41v9.5l-1.5.5.5-1.5V151H22.5l-1 1-.5-2h20v-10H31zm1 1v8h8v-8zm12 10-2 2v6h8v-8zm79-11 9 .5-8 .5v7.5l.5.5h36l3-2 .5 3h-40.5l-.5.5v9.5h-9.5v-1h7.5v-6.5l.5-1.5-8.5-.5 10-.5zm32.5 0 1.5.5-1.5.5zm4 0v1zm2 0 2.5 1.5-.5 1.5-.5-2zm94.5 0 20 .5-19 .5-.5 29zm63.5 0v1zm2 0 9.5.5-9.5.5zm14 0q4.2-1.3 2.5 3.5h-1q1.1-3.3-1.5-2.5zm-263 1 .5 20.5h-1z"/><path fill="#060113" stroke="#060113" d="m236.5 131 .5 1.5h-1zm-236 3v1zm0 2 .5 3 9 .5-10 .5zm266 3 52.5.5-52.5.5zm56 0 4.5.5-4.5.5zm-311 1h8l.5 2.5h-1l-.5-1.5h-7zm183.5 0 9 .5-8 .5v8h7.5v1H195zm70.5 3 .5 1.5h-1zm-246 3 .5 4-3-.5 2-.5zm216 0 .5 4.5h-1zm30 0 .5 4 53 .5-28.5.5-1 1-3-1h-20l-1.5-1.5zm-254 3 1.5.5-1.5.5zm90.5 1h9.5l.5 1.5-1.5-.5q-6-1.5-7.5 1.5v27l1 1-2 .5zm31 0h9.5l.5.5v30h-1v-28l-.5-.5H134v27.5l1.5.5v1l-2.5-.5zm41 0h9.5l.5.5V181l-5-.5 4-.5v-27.5q0-1-4.5-.5h-2l-1.5.5v27l.5 1.5-1.5-.5zm31 0h9.5l.5.5v30h-1v-29l-.5-.5H206v28.5l1 1-2 .5zm116.5 0 3.5.5-3.5.5zm5 0 1.5.5-1.5.5zm-254 5 .5 2.5h-1zm39 0 .5 1.5h-1zm226 1 .5 4-3-.5 2-.5zm-316 3v1zm39 0v1zM41 161l3 .5-2 .5-.5 2zm8.5 0 1.5.5v9.5h9.5v1H52v8.5h-1V171h-9.5l-.5-1.5 1.5.5H50v-7.5zm62 0 .5 2.5h-1zm155 0 .5 16.5 1 1-.5 2.5-1.5-.5zm-225 6v1zm70 0 .5 1.5h-1zm0 3 .5 4.5h-1zm176 0 9.5.5-10 .5-.5 5-1.5-4.5zm-1 7v1zm-175 1 .5 3-2-.5zm175 1v1z"/><path fill="#060113" stroke="#060113" d="m137.5 180 3.5.5-3.5.5zm97 0v1zm-172 2v1zm8 0 1.5.5v9l.5 1.5-1-1H62l.5-2q1.5 2.5 7 1l1.5-3.5-1-2 1-2zm22 0 .5 9.5q-1 2.5-5.5 1.5v-1H92zm9 0v1zm12 0v1zm3 0v1zm4 0 2.5.5v9.5h8.5v1h-8l-1.5-1.5-1-7 .5-1.5zm75 0 .5 5.5h-1zm7 0 1.5.5-1.5.5zm13 0 .5 9.5-2.5 1.5v-1l1.5-.5zm9 0 .5 8.5h-1zm32 0 .5 9h7.5l1-1 .5 2h-10v24.5h-1v-23l-1-1 2-.5zm9 0v1zm-70 7v1zm87 1 4.5 1.5-9.5.5v-1zm15 1 10.5.5-11 .5v10h-6.5v-1h5.5v-8.5zm-215 1 3.5.5-3.5.5zm21 0 1.5.5-1.5.5zm5 0 2.5.5-2.5.5zm77 0 9.5.5-9.5.5zm42 0v1zm7 0v1zm11.5 0 2 .5-1.5 3.5zm-173.5 4 .5 2.5h-1zm174 3 .5 2.5-1.5 1.5h-9v-1h9zm-114 1 .5 2 52 .5-53 .5zm-19 1h9l1.5 1.5v8.5h8.5l1.5 1.5V232h8v-3.5h1q-2.1 5.8 2.5 4.5v1l-1.5.5v17l.5 1.5-1.5-.5V233h-9.5l-.5-.5V212h-10v-10h-9.5zm82 0 8.5.5-8.5.5zm92 0-.5 1.5-.5 8.5-.5-8.5zm-94 1 .5 10h-10v21h-10v10h-10v9.5h-1V244h-9.5v-1h10l.5-2.5 2.5 1.5h6.5v-8h-7.5l-1 1-.5-2h10v-9.5h1v8.5h8v-19.5l1.5-1.5h8.5zm12 0 .5 92.5h-1zm72 0 3.5.5-3.5.5zm-205 4 .5 5.5h-1zm164 5h9l1.5 1.5v8l1 1-2 .5v-10h-9.5zm72 0 8.5.5-8.5.5zm-94 1 .5 10.5h-1zm92 1 .5 4.5h-1zm-244 6 .5 2.5h-1zm244 0 .5 2.5h-1zm-51 1 .5 1.5h-1zm-153 2 .5 10.5-1.5 1.5H83v10H62.5v-1h19l.5-.5V233h20zM51 223l2 .5-1 1v18l-1.5 1.5h-8l-1 1-.5-2h10zm8.5 0 1.5.5-1.5.5zm83 0 .5 1.5h-1zm94 0h9.5v10h-10v-7.5h1q-3.2 9.8 6.5 6.5l1.5-1.5V224h-8.5zm30 0 .5 7.5h-1zm9 8 .5 2h-9.5l-.5.5V264l10 .5-9.5.5-1.5-1.5v-30l1.5-1.5h8z"/><path fill="#060113" stroke="#060113" d="m214.5 232 .5 11h10v-10h9.5v1H226v8.5l-1.5 2.5-1-1H214zm-62 1v1zm104 0 .5 9.5h-1zm-196 8 .5 1.5h-1zm174 1v1zm11.5 1 9 .5-8.5 1.5zm-204.5 4 .5 10.5h-1zm70 5 .5 1.5h-1zm-40 1 .5 11 2 .5-2 1q.8-2.6-2.5-1.5v-1l1.5-.5zm-21 1 .5 10 10 .5-9.5.5-1.5-1.5zm12 0v1zm20 0 .5 6.5h-1zm-20 4 1.5 5.5-2 .5zm-21 2v1zm41 2 5.5 1.5-6 .5v9.5l-1.5.5.5-1.5v-7l-1.5-.5v-1q3.5 1 3-2Zm-41 1v1zm24 0v1zm2 0v1zm23 0h11l1.5 1.5-.5 10.5-.5-11H90.5zm32.5 1h10v20h-10zm1 1v18h8v-18zm60-1h10v20h-8.5l-1.5-1.5zm1 1v18h8v-18zm-112.5 8v1zm30 5 .5 26.5-1.5 1.5h-19l-1.5-1.5v-9h1v9.5h20zm-61 3 1.5 2.5-2 .5zm30 3 .5 10.5h-1zm-20 2 .5 18.5q-1.7 3.3-8.5 1.5l-2 2-.5-3h10zm165 8 2.5.5-2.5.5zm4 0q4.5-1 5.5 1.5l-.5 6.5-.5-7h-4.5zm-108 1H123v20l-2-.5 1-1v-16l-1.5-1.5h-8zm30.5 0h31v10h10v9.5h-1V306h-8l-.5 9-.5-10h-30.5l-.5.5v9h-1V306h-8l-.5 9-.5-10h10zm1 1v7l2 1h27v-8zm51-1 9 .5-8 .5-.5 19zm19.5 0 .5 39.5h-1zm64 0 2.5.5-2.5.5zm6 0 2.5.5v42h-1v-41l-1.5-.5zm-59 8v1zm0 2 .5 9.5h-1zm-184 8v1zm-10 3 .5 3.5h-1zm50 0 .5 9.5h-1zm41.5 0 2 .5-1 1V335h8v-18l-4-.5 5-.5v20h-10zm20.5 0 .5 9h7.5l.5-1.5h1l-.5 2.5H143zm3 0 2.5.5-2.5.5zm6 0 .5 1.5h-1zm12 0 .5 5.5h-1zm5 0h4.5v10h-9.5l-.5-2.5h1l.5 1.5h7.5v-8h-3.5zm14.5 0 7 .5-6 .5v17.5l2.5.5v1l-3.5-.5zm8.5 0 1.5.5V336l-5-.5 4-.5v-17.5zm13 0 .5 29.5h-1zm-174 6 .5 3h8.5l1.5 1.5-.5 19.5-.5-20H31zm61 2 .5 1.5-2 1zm2 1 6.5.5-6.5.5zm-73 1 8.5.5-8.5.5zm62 0v1zm19 0 .5 7.5h-1zm122.5 0 3 .5-2 .5v8h3.5v1H225zm4.5 0 2.5.5-2.5.5zm5 0v1zm-205 2 .5 2.5h-1zm82 2v1zm-20 1 .5 5H72.5q-1.1.1-.5 5.5h-1q-1.2-5.2 1.5-6.5h18zm-70 3q1.5 2.5 7 1l1.5-.5-.5 1.5H21zm210 1 2.5.5-2.5.5zm5 0 3.5.5-3.5.5zm5 0 1.5.5-1.5.5zm3 0v1zm-225 2 .5 8.5 1.5 1.5 9.5.5-11 .5q-2.2-3.4-.5-11Zm73 0v1zm40.5 0 2 .5-1.5 8.5zm9.5 0 .5 8.5h-1zm31.5 0 2 .5-1.5 8.5zm9.5 0 .5 8.5h-1zm41 0v1zm62 2v1zm-215 6 .5 3.5h-1zm39 0 1.5.5-1.5.5zm71 0v1zm27 0v1zm7 1v1zM113 347h10v10h10v9.5l.5.5h49l1.5 1.5v8.5l-14-.5 13-.5v-7.5l-.5-.5H134v8h3.5v1H133v-10h-10v-10h-10zm1 1v8h8v-8zm10 10v8h8v-8z"/><path fill="#060113" stroke="#060113" d="m143 347 2 .5-1 1v7.5h27.5l1.5-1.5q.8-6.2-.5-6.5h-20v-1H174v10h-30.5l-.5-.5z"/><path fill="#060113" stroke="#060113" d="m146.5 347 1.5.5-1.5.5zm48.5 0h8.5l.5 1.5-1.5-.5q-5.5-1.5-7 1zm20.5 1 .5 6.5h-1zm-114 2 .5 2.5h-1zm94 1 .5 5h6.5l1-1 .5 2h-9zm-124 3 .5 2.5h-1zm-60 2 29.5.5-29.5.5zm204 0 .5 56.5h-1zm-114 1 .5 61.5h-1zm82.5 0h10v10h-10zm1 1v8h8v-8zm101.5 2v1zm0 2 .5 5h9.5l.5 1.5-1.5-.5h-8l-1.5-1.5zm-245 4-1 2h-8l-1 1-.5-2h9.5zm30 2 .5 6.5h-1zm21 0v1zm-61 6v1zm265 1 .5 5.5h-1zm-156 1 7.5.5-7.5.5zm9 0 4.5.5-4.5.5zm15 0 1.5.5-1.5.5zm-82 1 .5 4.5h-1zm6 0 3.5.5-3.5.5zm139 0v1zm4 0 2.5.5-2.5.5zm-200 1 .5 19.5h-1zm40 0 .5 2.5h-1zm225 6 .5 1.5h-1zm-225 1 .5 1.5h-1zm11 0 .5 2 8 .5-9 .5v10h-3.5v-1l2.5-.5v-8zm152 0 .5 3h-10v19.5h-1v-19l1.5-1.5h8zm-142 3 .5 19.5h-1zm144 0v1zm60 5v1zm0 3 .5 7.5h-1zm-234 1 12.5.5-12.5.5zm174 0 18.5.5-18.5.5zm-215 1 8.5.5-8.5.5zm235 0v1zm0 3 .5 6.5h-1zm40 4 .5 2.5h-1zm-214 3 5.5 1.5-6 .5zm146 1v1zm76 0v1zm2 0 .5 29.5h-1zm-91 6 .5 2.5h-1zm-82.5 4h10v8.5h-1V420h-8l-.5 71zm41 0 5 .5-4 .5v8.5l-1.5 1.5-30.5-.5 31-.5zm9.5 0 .5 81.5h-1zm32 0 .5 2.5h-1zm-114 3 .5 5.5h-1zm114 1 .5 5.5-1.5 1.5H206l-.5 65-.5-66h10zm82 5 .5 10.5h-1zm-205 1 .5 9.5h-1zm10 0h9l.5 1.5-1.5-.5h-8zm122 0 .5 9.5h-1zm-195 8 .5 1.5h-1zm-8 1v1zm75 0 1.5.5-1.5.5zm126 0v1zm-120 1 .5 30.5-1.5 1.5h-8l-1 1-.5-2h9.5l.5-.5zm72 0 .5 7.5h-1zm40 0 .5 31h10v21h-10v20.5l-3.5.5v-1l2.5-.5v-19l1.5-1.5h8.5v-19h-9.5l-.5-.5zm-183 1 .5 2.5h-1zm3 0H41v10h19.5v1h-18l-1 1-.5-2h-9.5l-.5-1.5 1.5.5H40v-8h-5.5zm28 0 6.5.5-6.5.5zm11 0 10.5.5-10.5.5zm13 0 3.5.5-3.5.5z"/><path fill="#060113" stroke="#060113" d="m91.5 440 .5 10H62.5l-.5-1.5 1.5.5h27l.5-.5zm133.5 0 2 .5-1 1v7.5l28 .5-29 .5zm6.5 0 1.5.5-1.5.5zm29 0 1.5.5-1.5.5zm5 0 .5 10h21v-9.5l1.5-.5-.5 1.5v7.5h8l.5-2 .5 3h-10v10h-17.5v-1H286v-8h-19v7.5l.5 1.5-1.5-.5V450h-9.5v-1h8.5zm29 0q3.3-1.1 2.5 1.5l-1.5-.5zm-152 1 .5 2.5h-1zm154 2 .5 2.5h-1zm-122 8 .5 5.5h-1zm-32 1 .5 2.5h-1zm-101 7 19.5.5-19.5.5zm133 7 .5 5.5h-1zm-82 15 .5 2.5h-1zm50 8v1zm-50 1h9l1.5 1.5v19l2.5.5v1l-3.5-.5V491h-9.5zm20 2 .5 9.5h-1zm21 0 .5 8.5h-1zm41 0v1zm-32 3 .5 1.5h-1zm32 3 .5 2.5h-1zm15 3v1zm10 0 3.5.5-6.5 1.5v-1zm-69 1v1zm12 5 .5 1.5h-1zm0 3 .5 2-4-.5zm-17 1 2.5.5-2.5.5zm49 0 3.5.5-3.5.5zm11 0 1.5.5-1.5.5z"/><path fill="#898e8f" stroke="#898e8f" d="M303.5 12v1zm-6 3 .5 1.5h-1zm3 0 .5 4q3.3 1.3 2-3.5h1l-.5 109.5-1-55-1.5 5.5 1 5-1 1v43l-1.5 1.5-.5-2.5 1-1v-43l-1-2 1-1v-10l-2-4h1l.5 1.5.5-27.5-3-1 1-3-1-3 1-1 .5-8.5 1 5zm2.5 8-1 3h1zm-3 3-1 9h1zm3 12-2 2 1 27h1zm-98.5-2v1z" opacity=".996"/><path fill="#898e8f" stroke="#898e8f" d="m298.5 52 .5 2.5h-1zm19 16 .5 1.5h-1zm0 44 .5 2.5h-1zm0 5v1zm0 23v1zm3 5v1zM298 162l8 1.5-1 1v13l-1 2.5h-6zm4 2v1h1zm-1 1-1 2h1zm3 0-1 12h1zm-3 5-1 7h1zm1 7v1h1zm-20.5-13 1.5.5-2 .5-.5 2-.5-1.5zm-11 21 2.5 1.5-1 4.5-3-.5 2-1-.5-1.5q2.6.7 1.5-2l-3 1.5-.5 1.5-.5-1.5zm-10 7 2 1 3.5-1-.5 19-.5-2-4.5-1-3.5 1 .5-16q1.5 2.5 3-1Zm2.5 4-1 12h1zm-3 1-1 2h1zm41.5 8 2.5 1.5-1.5 2.5-2.5-1.5zm-.5 1q-1 3 2 2 1-3-2-2Zm-39.5 5v1zm-46 2v1zm0 4v1zm35 9q3.8-1.2 2.5 2.5l-2.5 1.5v-1q2.6.7 1.5-2zm0 5 2.5.5-2.5.5zm-161 37 .5 3.5h-1zm-3 2 1.5.5-1.5.5zM72 275h5v1.5h1q-.8-3 3-1.5l1 14.5-1 4 .5 1.5q-3-2.8-8.5-2l-1-6.5 1-5zm4 3-1 6h1zm3 0-1 13h1zm13-3h8.5l.5 1.5v2l1 7v2l-1 3 1 2-3.5 1.5-2-1-3 1-.5-2.5zm6 2v1zm-3 1 1 13v-11l1-1zm3 13v1zm46.5 24v1zm5 0 1.5.5-1.5.5zm16 0 1.5.5-1.5.5zm63 1q6.9-2 5.5 2l-5 1.5 3 2-1 2.5-4-.5 1-2h-2l1-2q-2.8-1.7 1.5-3.5Zm.5 2v1zM84.5 337H91v15.5l-1 3.5H74.5l-1.5-1.5-1-7.5 3.5 1 5-1v1q-4.5-1-5.5 1.5l3.5.5 5.5-3.5q.7-2.6-2-1.5v-4.5zm.5 2-1 6h1zm141-2 8 .5-1.5 2.5q2.6-.8 1.5 2.5l-1 2 2.5 3.5 5.5 1q-1-3 2-2l.5 2 1-2q2.8 1.3.5 2.5-1.2 4.8 1 6l-2.5.5-3-1-1 1H226zm5 3-1 12h11l-7-3q-4-2-3-9Zm12 9v1zm-14 3v1zm1 1v1zm5.5 14 4 2 4-1 2.5.5-1 2 1 4-1 2 1 2-1 2v2q.7 2.6-2 1.5v3h-4.5l-2.5-.5v-8l1-1zm3.5 4v13h1v-11zm-165.5-3q3-.8 1.5 3h6v16l-5.5-1-3.5 1v-17.5zm5.5 4-1 6h1zm-1 12v1z" opacity=".996"/><path fill="#898e8f" stroke="#898e8f" d="m77.5 368 .5 2-2-.5zm167 18v1zm9 13v1zm-5 2q2.6-.8 1.5 2.5h-1zm-183 1 .5 1.5h-1zm3 0 .5 1.5h-1zm184 2 .5 1.5h-1zm-191 47 .5 4.5h-1zm0 6 .5 2.5h-1z" opacity=".996"/><path fill="#b59277" stroke="#b59277" d="m153.5 32 .5 8.5h-1zm-41 9 .5 1.5h-1zm11 0h8l1.5 1.5-.5 6.5-.5-7h-8.5zm62 0 8.5.5-8.5.5zm-1 4 .5 17.5h-1zm-72 3v1zm20 3 .5 6.5h-1zm0 8 .5 1.5h-1zm0 3v1zm22 1 8.5.5-8.5.5zm60 4 .5 2.5h-1zm0 4 .5 1.5h-1zm-112 8 .5 4.5h-1zm112 0 .5 4.5h-1zm-32 40 1.5 1.5V140l9 .5-8.5.5-1.5-1.5v-19zm-8 1 .5 5.5h-1zm0 7 .5 1.5h-1zm-48 13 37.5.5-37.5.5zm-12 10 3.5.5-3.5.5zm7 0 1.5.5-1.5.5zm74 0 8.5.5-8.5.5zm-1 2 .5 3.5h-1zm0 7v1zM21 161h9v10h-9zm173.5 0 .5 15.5h-1zM31 171h10v10H31zm19.5 10 .5 21h10v10h-8.5l-1.5-1.5V202H41v-20h8.5zm83 0 9.5.5-9.5.5zm46 0 4.5.5-4.5.5zm-57 21v1zm93.5 11h6.5l.5 1.5 1 5h-1q1-4.5-1.5-5.5-3.3-1.1-2.5 1.5l-1.5-.5q-2.6.7-1.5-2Zm-132.5 9 8.5.5-8.5.5zm9 10 9.5.5-9.5.5zm133 0 9.5.5-9.5.5zm-144 4 .5 6.5h-1zm-30 18 .5 9.5h-1zm133 60v1zm-62 12 .5 1.5h-1zm1 30 1.5.5-1.5.5zm5 0 1.5.5-1.5.5zm-37 73v1zm134 0v1zm-184 10 1.5.5-1.5.5zm3 0v1zm5 0 1.5.5-1.5.5zm227 0 10.5.5-10.5.5zm-10 1 .5 9.5h-1zm-215 9v1zm220 0 4.5.5-4.5.5zm-170 20v1z" opacity=".996"/><path fill="#8d5d3f" stroke="#8d5d3f" d="m204.5 53 .5 1.5h-1zm-91 10v1zm2 0 1.5.5-1.5.5zm7 0v1zm12 0 1.5.5-1.5.5zm3 0 2.5.5-2.5.5zm4 0v1zm36 0v1zm7 0v1zm9 0v1zm-40 8v1zM11 120h9v10h-9zm5 2v1zm-2 2-1 2h1zm7 6h9v10h-9zm4 3v1zm2 0v1zm1 1-1 2h1zm3 7h10v9H31zm10.5 10 3 1 6.5-1v9H41zM52 161h9v10h-9zm20 10h9v10h-9zm10 11h10v9H82zm5 2v1zm2 1v1zm27.5 27 3.5.5-3.5.5zm9 0 6.5.5-6.5.5zm62 0 5.5.5-5.5.5zm7 0 .5 4.5h-1zm3 0 1.5.5-1.5.5zm3 0 3.5.5-3.5.5zm36 0 8.5.5-8.5.5zm-42 6 .5 23.5h-1zm41 0v1zm0 3v1zm-103 11 .5 2.5h-1zm-71 2 .5 7.5h-1zm-9 19 8.5.5-8.5.5zm71 31v1zm3 0 3.5.5-3.5.5zm6 0v1zm61 0v1zm-19 10v1zm10 11v1zm-152 21q6.8-1.7 8.5 1.5 1.8 6.7-1.5 8.5H31v-8.5zm4.5 3v1zm1 1-1 2h1zm-3 2v1zm1 1v1h1zm-13.5 3 7.5 1v9h-9v-8.5zm3.5 3v1h1zm-1 3v1zm2 0v1zm116.5-6 1.5.5-1.5.5zm3 0v1zm14 0 2.5.5-2.5.5zm6 0 4.5.5-4.5.5zm28 1 .5 8.5q-.7 2.3-4.5 1.5v-1q4.4 1.5 3.5-1.5v-2zm-70 9 5.5.5-5.5.5zm7 0 1.5.5-1.5.5zm53 0 2.5.5-2.5.5zm-76 9v1zm4 7 .5 3.5h-1zm92 0 .5 3.5h-1zm-10 5 .5 8.5h-1zm0 10v1zm-89 31v1zm7 0 .5 7.5h-1zm92 0 .5 20.5h-1zm-92 17v1zm0 3v1zm-51 7 .5 2.5h-1zm-10 4 2.5.5-2.5.5zm6 0 3.5.5-3.5.5zm209 0 9.5.5-9.5.5z" opacity=".996"/><path fill="#4c3536" stroke="#4c3536" d="M194.5 41v1zm-85 53v1zm6 0 5.5.5-5.5.5zm28 0 1.5.5-1.5.5zm41 0v1zm4 0 2.5.5-2.5.5zm8 0 1.5.5-1.5.5zm18 0v1zm-194 24v1zm143 2v1zm0 7 .5 3-2-.5zm-10 2v1zm6 0v1zm-149 1 .5 10.5h-1zm20 0v1zm-15 9 1.5.5-1.5.5zm3 0v1zm177 0 1.5.5-1.5.5zm-185 3v1zm72 0 .5 24.5h-1zm-61 7v1zm91 1 .5 1.5h-1zm-91 10 8.5.5-8.5.5zm20 0v1zm9 0v1zm21 1 .5 9.5h-1zm11 9 5.5.5-5.5.5zm143 0v1zm2 0 7.5.5-7.5.5zm-115 6v1zm0 3v1zm-50 1v1zm30 0v1zm123 0v1zm-113 2 .5 9 9 .5-8.5.5-1.5-1.5zm112 0 .5 9.5h-1zm-142 9 9.5.5-9.5.5zm133 0 1.5.5-1.5.5zm4 0 3.5.5-3.5.5zm87.5 1 2 .5-1 1-.5 8.5zm3.5 0 6.5.5-6.5.5zm6 2 .5 7.5h-1zm-6 4 4.5.5-4.5.5zm-96 4 .5 8.5h-1zm53 11v1zm2 2 4.5 2.5q-1.3 3.2-6 3l4 1-5 .5 1.5-3 3.5-1.5zm6 2v1zm-122 6 .5 9 8 .5-9 .5zm30 0v1zm0 8 .5 2-9-.5zm-10 3 .5 8.5h-1zm-9 8v1zm50 1 .5 3.5h-1zm0 9 .5 9.5h-1zm-143 1v1zm82 0v1zm17 0 2.5.5-2.5.5zm-99 11v1zm33 0h7.5v8.5l-1.5 1.5H93l-1-7.5zm.5 1v1zm-1 1v1zm4 0v1zm3 5v1zm103.5-2 .5 20.5h-1zm-10 1 .5 11.5h-1zm10 23v1zm-92 1v1zm82 1 .5 1.5h-1zm0 3 .5 4.5h-1zm0 7 .5 3.5h-1zm-61 10 2.5.5-2.5.5zm54 0 1.5.5-1.5.5zm44 0 1.5.5-1.5.5zm-37 11v1zm-164 2 .5 1.5h-1zm164 0 .5 4.5h-1zm10 0v1zm0 2 .5 3.5h-1zm-92 1 .5 2.5h-1zm-82 2v1zm-10 3v1zm20 0 .5 9.5h-1zm149 0 4.5.5-4.5.5zm-87 10 7.5.5-7.5.5zm32 0 8.5.5-8.5.5zm40 0 8.5.5-8.5.5zm31 0 8.5.5-8.5.5zm-93 1v1zm82 2 .5 6.5h-1zm-82 3 .5 3.5h-1zm92 2v1zm-194 2v1zm72 42 .5 1.5h-1zm-20 30v1zm11 0 4.5.5-4.5.5zm153 0 1.5.5-1.5.5zm3 0v1zm14 0v1zm3 0v1zm2 0 1.5.5-1.5.5zm-44 3 .5 8.5h-1zm-112 8 7.5.5-7.5.5zm123 0 7.5.5-7.5.5zm-11 4 .5 15.5h-1zm-143 6v1zm51 23 .5 3.5h-1zm0 7 .5 11.5h-1zm20 12 .5 10h-20v-8.5l2.5 1.5 1.5.5-1.5.5-1.5-.5v5.5h17v-5h-1.5v-1l2.5-1.5zm-.5 3v1zm52.5-3 2 3 1.5.5-2 .5 1 5 2 .5-3.5.5v-2l-1.5-.5zm1.5 3v1zm15.5 0v1zm2 1v1zm-13 5 8.5.5-8.5.5zm12 0 1.5.5-1.5.5z" opacity=".996"/><path fill="#e6bc97" stroke="#e6bc97" d="m308.5 10 6.5.5-6.5.5zm-154 21v1zm9 10v1zm0 2 .5 5.5h-1zm0 7 .5 1.5h-1zm-61 3v1zm112 0 .5 9.5h-1zm-112 9 .5 1.5h-1zm20 2v1zm61 0v1zm-61 3 .5 3.5h-1zm0 5v1zm63 2 1.5.5-1.5.5zm-62 66 2.5.5-2.5.5zm42 0 7.5.5-7.5.5zm10 0h8l.5 1.5-1.5-.5-4 1-3-1zm18 0v1zm-28 2v1zm3 1h11l1.5 1.5-.5 1.5-.5-2-5 .5 3 1-6 1.5.5 3 3-2 2 1h2q4.5-1 5.5 1.5l2.5 4.5 2-3 3 1 1-3q2.3-.7 1.5 1.5l-2 3 2 4h-1l-.5-2.5-.5 11.5q2.5 1.5 1 7l-1 3.5q-3-1-2 2 4.1 1.7 3-2.5h1l-1 14.5-10-1v10h-5.5l-1 1H134l1-5.5h-2l1-4.5-5.5-1-2 1-3.5-1v-10.5l1.5-6.5 1.5.5-.5-7.5-1 6-.5-5.5 2-8v-2l-2-5.5q3.4.8 4.5-2v2l4-2 .5 32h10v-7.5l1-4-1-5 1.5-2.5 1 3 .5-7.5h-1l-.5 3.5q-2.2-2.7-1.5-8.5v-2q-.7-2.2 1.5-1.5l4.5 3q1.1-2.7-1.5-2v-1q4.4-1.5 3.5 1.5l-.5 1.5q2.6-3.9 10-3v2l2-1h2q2.6.8 1.5-2.5zm5.5 7v31l10 1 1-5-1-8v-19zm-16 1-2 1v1h4zm14 1-1 3h1zm-25 1-1 2h1zm40 2-1 3h1zm-16 6-1 3h1zm-40 2-1 7h1zm15 4-1 3h1zm26 3-1 4h1zm-42 1-1 7h1zm16 2 1 2q1-3-1-2Zm26 2-1 3h1zm-46 3v1zm60 0q-1 4 2 3 1-4-2-3Zm-55 3q-2 3 1 2zm15 0v1zm45 0v7h-2q-1 4 4 2v-8zm-66 1v7q1 2 6 1 1-4-4-2v-5zm62 0v1zm-54 1v1h1zm3 0v1h8zm39 0v1zm7 0v1h4zm4 6v1h1zm-51 1v1zm47 2-1 2 2 1zm1 4-1 3h1zm-2 1-6 2 6 1zm-44 1v2h35l-28-1z" opacity=".996"/><path fill="#e6bc97" stroke="#e6bc97" d="m182.5 143 .5 2.5h-1zm-69 7v1zm5 0 2.5.5-2.5.5zm5 0v1zm64 0 4.5.5-4.5.5zm7 10v1zm-174 10v1zm10 3 .5 3.5h-1zm0 7v1zm10 1v1zm20 31v1zm22 10 .5 1.5h-1zm0 4 .5 1.5h-1zm60.5 28h31v40l-5.5 1-1-1h-18l-2 1-4.5-2.5zm-92.5 30v1zm106 21 3 1 1-1h8l5.5 1-1 5.5 1 3.5-20.5 1-1-1H144l-1-3.5 1-2-1-2 1.5-1.5h11zm-116 124 .5 1.5h-1zm247 0v1zm9 0v1zm-256 4 .5 5.5h-1zm267 6v1zm-21 1 .5 9.5h-1zm-236 9v1zm226 0v1zm-215 11v1zm51.5 10h19v20l-4.5 1-1-1H113zm72 0h19v20l-4.5 1q-1.7-2.7-8-1l-3 1-3.5-1z" opacity=".996"/><path fill="#ebb444" stroke="#ebb444" d="M154 41h9v11.5l1.5 1.5h9.5v10h8.5l1.5 1.5v8l1.5 1.5 9.5-1V64h10V53h9v11h-9v8.5l-1.5 1.5H195l-1 5.5 1 3-1.5 1.5h-39l-1.5-1.5V74h11V63h-11v-8.5l1-1zm-51 12h9v9.5l-1.5 1.5H103zm10 11h9v8.5l1 1V84h-10zm20 0h10v20h-10V71.5l1-2zM83 223h9v9h-8.5l-1.5-1.5 1-4zm-21 10h10v8.5l-1.5 1.5H62zM33.5 429H40v10h-9v-9zm255 0q6.8-1.7 8.5 1.5v8.5h-10v-8.5zM41 440h10v9H41zm235 0h10v9h-10z" opacity=".996"/><path fill="#d2805c" stroke="#d2805c" d="M123.5 42v1zm-12 21v1zm42 0v1zm10 0v1zm51 0v1zm-10 10v1zm-92 10v1zm82 0v1zM175 120h8v20h-19v-10h9.5l1.5-1.5-1-2zm-52 21h40.5l.5.5v8.5h-40.5l-.5-.5zm61 0h10v9h-10zm-71 10h10v30h-10zm82 0h8.5l.5.5V181h-8.5l-.5-.5zm30.5 72 .5 8.5h-1zm-173 40 2.5.5-2.5.5zm4 0 4.5.5-4.5.5zm171 166v1zm-2 1 .5 3.5h-1zm0 5 .5 3.5h-1zm-182 4v1zm2 0 3.5.5-3.5.5zm8 10v1zm5 0 1.5.5-1.5.5zm210 0 2.5.5-2.5.5z" opacity=".996"/><path fill="#5f5d63" stroke="#5f5d63" d="m287.5 11 3 1 6.5-1v117.5l-.5.5H287zm7.5 4-1 9h1zm0 34-1 4h1zm0 5-1 9h1zm0 67-1 2h1zm1 5v1zm11.5-113 .5 13.5h-1zm-154 17v1zm154 1 .5 2.5h-1zm0 11 .5 13.5h-1zm0 44 .5 10.5h-1zm-225 8 4.5.5-4.5.5zm6 0 1.5.5-1.5.5zm137 0 9.5.5-9.5.5zm-215 25 .5 2.5h-1zm8 0 1.5.5-1.5.5zm7 0 1.5.5-1.5.5zm282 5 .5 1.5h-1zm0 3 .5 2.5h-1zm-164 2v1zm-21 10v1zm145 1 19.5.5-20 .5-.5 9-.5-8.5zm-206 10 .5 1.5h-1zm-31 10 5.5.5-5.5.5zm10 0v1zm216 0v1zm7 0 2.5.5-2.5.5zm55 0 11.5.5-11.5.5zm-11 1 .5 3.5h-1zM287 171h10v10h-10zm20.5 7 .5 2.5h-1zm-44 3 2.5.5-2.5.5zm12 0v1zm1 8 .5 3h10v10h10v10h-10v-10h-11v20h-10v-29.5l.5-.5h9.5zm31 17 .5 5.5h-1zm-244 6 4.5.5-4.5.5zm6 0 2.5.5-2.5.5zm63 0v1zm52 0v1zm74 0 1.5.5-1.5.5zm-200 10 3.5.5-3.5.5zm193 0 5 1 5-1 4.5 1v8.5l-1.5 1.5H256v10h-10v10h-21v-10h10.5l.5-1.5-1-2 1-6.5h20v-10h-4.5zm-5.5 12-1 2h1zm-6 2v1h5zm-1 1-1 6-2 4 3-2zm14 0-1 2h1zm-9 2-2 2 1 9 1-9 8-1zm-9 6-3 2h3zm-163 9h10v10H72v15.5l-1 2 1 2.5H62v-20h10zm-5 13v1h1zm2 1-1 3h1zm-3 1-1 2h1zm2 11v1zm9.5-6 5 1 2-1h2l4 1 1.5-.5v20l.5.5h9.5v10H82v-30h-4.5zm6.5 21v1zm131 0h9.5l.5.5V336h-9.5l-.5-.5zM82 316h10v10h10v10H92v-10H82zm153.5 7 .5 1.5h-1zm-133 24v1zm112 0 .5 2.5h-1zM82 367h10v10H82zm48.5 0 2.5.5-2.5.5zm55 0 1.5.5-1.5.5zm6 0v1zm33.5 0h10v9.5l1 4h-1V377h-10zm61.5 0v1zm-51 17 .5 3.5h-1zm-174 14 .5 2.5h-1zm10.5 0 7.5 1 2.5-1v10H72zm164 0h10v10h-10zm-174.5 4 .5 5.5h-1zm235 6v1zm-153 20v1zm30 0v1zm31 44 .5 8.5h-1z" opacity=".996"/><path fill="#70337a" stroke="#70337a" d="m90.5 202 1.5 1.5v8.5h9.5l.5 1.5-1.5-.5-4 1-2.5-1q-1.3 3.3 3.5 2l1.5 3.5-1.5-.5h-16l-1.5 1.5 4 2-3 2-.5 1.5-2-4-.5 8-5 .5 4.5 2.5 2-1 1 2q-7.5 1.5-10.5-1.5l.5-1.5-5.5-1q-1.7-4.5 3.5-3l1.5-3q3 1.3 2-2.5h1q-.7 2.6 2 1.5-1.2-4.6 1.5-6l6.5-1.5-.5-1.5 1.5.5 1-7 1.5-1.5H90v6.5h1q.7-7.5-.5-9.5Zm1.5 10v1zm1 1v1zm-13 7v1zm-8 4v1zm-5 3v1h1zm167.5-25v1zm-5 3 2.5 1.5-1.5 3.5-2.5-1.5zm-.5 1q-1 3 2 2 1-3-2-2Zm5.5 2 .5 1.5h-1zm-6 3 5.5.5-5.5.5zm-156 2v1z" opacity=".996"/><path fill="#70337a" stroke="#70337a" d="m99.5 220 .5 2-6-.5zm2 1v1zm-39 1v1zm18 6 .5 1.5h-1zm-12 3v1zm-17 12v1zm4 3 2.5 1.5-.5 2.5-.5-3-2.5 1zm-1 3v1zm3 3 2.5.5-2.5.5zm193 5 2.5 1.5-.5 1.5-.5-2q-2.7-1.1-2 1.5l.5 1.5-1.5-2.5zm-4 1 .5 1.5h-1zm10 6v1zm4 0v1zm-2.5 4 2 .5v43q.3 1.3 6.5.5l2.5 1q2.3 3.6 1 12.5l1.5 1.5.5-28h-7.5l-1.5-1.5 2.5-.5q1.3 2.3 6 1l1.5 1.5v67l2.5 2.5 1-2 .5 1.5-.5 1.5 3.5.5-5.5.5-2.5-1-.5-37-1.5 2.5V384q7.1-1.8 9 2.5l1 2v46l-2 1 1-1v-44l-1-3.5-2 .5 1 1v45h-1v-45l-1.5-.5-1.5-3h-4v-6.5l-1-4 1-5-3-1.5 1-2.5-1-2h1l.5 1.5 1.5-2.5-1-3 1-1v-8h-1l-.5 1.5-.5-2.5 1-3-1-2v-2l1-5-1-1v-14h1l.5 11.5.5-13.5-1-3-1-3.5-6.5-1-1.5-1.5v-18l-1-3 1-1v-18zm13 62-1 3h1zm-2 36-1 2h1zm-6.5-98v1zm3 0v1zm-9 2v1z" opacity=".996"/><path fill="#70337a" stroke="#70337a" d="m265.5 271 .5 16.5h-1zm-3 20 1.5 4.5-2 .5zm3 0 .5 1.5h-1zm-203 4v1zm9 0v1zm185 0v1zm11 0 2.5.5-2.5.5zm-201 3 2.5 1.5v13l-2.5.5-1.5-1.5v-12zm-.5 1v13h2v-12zm-3.5 16 9.5.5-9.5.5-1 1zm194 0 9.5.5-9.5.5zm-201 4 3.5 1.5-1 43.5-3-.5 2-.5v-38.5l1-4.5-3.5 1zm6 0 .5 4.5h-1zm-10 2v1zm224 3 .5 2.5h-1zm-224 6 1.5 24.5-1 1v10l.5 1.5-2 1 .5-1.5zm224 5 .5 10.5h-1zm-215 1v1z" opacity=".996"/><path fill="#70337a" stroke="#70337a" d="M54.5 349q3.4-.9 1.5 4.5l-2 1 1-4zm0 10v1zm221 4 .5 2.5h-1zm-234 4v1zm245 1v1zm-245 1 .5 2.5h-1zm225 0 .5 1.5h-1zm-220 1 2.5 1-1 2.5-.5 16.5-.5-16.5 1-1zm235 0 2.5 1.5-.5 9.5-.5-10zm-237 1 .5 1.5h-1zm0 4 .5 3.5h-1zm-3 4 .5 2.5h-1zm3 1 .5 5.5h-1zm221.5 1 2 .5-1 2 1 3q.7 2.6-2 1.5zm17.5 1 .5 13.5h-1zm-242 6 .5 2.5h-1zm6 3 .5 12.5h-1zm239 2v1zm-236 1 .5 1.5h-1zm-6 1 .5 5.5q-1.2 2.8-6.5 1.5v-1l4.5-1.5-.5-1.5 1.5.5zm6 2v1zm236 0v1zm-255 1v1zm3 0 1.5.5-1.5.5z" opacity=".996"/><path fill="#70337a" stroke="#70337a" d="m37.5 398 3.5.5-3.5.5zm-6 2 .5 6.5h-1zm252 0 .5 1.5h-1zm-248 1-.5 1.5v21q0 1 4.5.5v1q-5.4.6-5.5-.5v-22zm248 2q-.2 5.7 3 8l4.5.5-5.5.5-2.5-1z" opacity=".996"/><path fill="#70337a" stroke="#70337a" d="m286.5 407 1 2q-2.8.7-1-2Zm4 1q5.3-1.2 6.5 1.5l-1.5-.5q-6 1.3-5-1Zm-243 5 .5 21.5h-1zm246 0 .5 10.5h-1zm-243 4 .5 1.5h-1zm0 4v1zm-19 6 .5 1.5h-1zm19 0v1zm-17 1 6.5.5-6.5.5zm253 0v1zm2 0v1zm6 0v1zm-252 1 .5 2.5h-1zm0 5 .5 1.5h-1zm234 1v1zm-233 3v1zm3 0 1.5.5-1.5.5zm231 0v1zm5 0 1.5.5-1.5.5z" opacity=".996"/><path fill="#1c0e1b" stroke="#1c0e1b" d="m290.5 0 3.5.5-3.5.5zm5 0 11.5.5-11.5.5zm-8 10 8.5.5-8.5.5zm19 0v1zm-143 11 .5 4.5h-1zm0 6v1zm0 2 .5 2 4 .5-3.5.5zm-70 2 18.5.5-18.5.5zm30 0 3.5.5-3.5.5zm8 0 1 2zm12 0 5.5.5-5.5.5zm42 0 1.5.5-2.5 1.5zm8 0v1zm14 0 17.5.5-17.5.5zm-23 3 .5 5.5h-1zm-52 3 .5 3.5h-1zm42 4 8.5.5-8.5.5zm-42 23 .5 8.5-1.5 1.5h-8v-1h8.5zm52 0v1zm0 4 .5 5 9 .5-8.5.5q-2.9-1.4-1-6Zm-7 38 6.5.5-6.5.5zm-168 11-1 2zm226 1v1zm-102 1 9.5.5-9.5.5zm31 0 9.5.5-9.5.5zm20 0 9.5.5-9.5.5zm51 1 .5 25.5h-1zm-41 6 .5 1.5h-1zm-169 3 3.5.5-3.5.5zm140 0v1zm-2 1v1zm31 0 .5 1.5h-1zm-31 3 .5 3.5h-1zm31 0 .5 3.5h-1zm0 6v1zm-174 1 .5 9.5h-1zm92 0 .5 2.5h-1zm92 0v1zm-92 4 .5 1.5h-1zm92 0 .5 1.5h-1zm31 7 .5 18.5h-1zm41 9v1zm-215 11v1zm0 8v1zm1 2 9.5.5-9.5.5zm30 0 9.5.5-9.5.5zm20 0 .5 1.5h-1zm92 0 .5 1.5h-1zm11 0 9.5.5-9.5.5zm-11 5 .5 3.5h-1zm-92 2 .5 1.5h-1zm20 4 .5 7.5h-1zm52 0 .5 9.5h-1zm123 1 .5 1.5h-1zm0 5 .5 3.5h-1zm-72 4v1zm-154 3v1zm31 1 .5 36.5h-1zm-31 5v1zm65 11v1zm3 0 13.5.5-13.5.5zm90 0v1zm4 0 2.5.5-2.5.5zm23 0 8.5.5-8.5.5zm-154 33 .5 3.5h-1zm0 22v1zm72 6v1zm-121 1 2.5.5-2.5.5zm6 0 1.5.5-1.5.5zm-18 1v1zm61 3 .5 3.5h-1zm0 27 10.5.5-10.5.5zm83 0v1zm5 0v1zm4 0v1zm-92 7 .5 3.5h-1zm92 3v1zm-192 11 5.5.5-5.5.5zm80 0 9.5.5-9.5.5zm41 0v1zm5 0 4.5.5-4.5.5zm36 0 9.5.5-9.5.5zm42 0 8.5.5-8.5.5zm30 0 1.5.5-1.5.5zm5 0 2.5.5-2.5.5zm4 0v1zm31 4 .5 19.5h-1zm-174 4 .5 1.5h-1zm-91 2v1zm6 0 1.5.5-1.5.5zm3 0 9.5.5-9.5.5zm113 0 19.5.5-19.5.5zm22 0v1zm6 0 2.5.5-2.5.5zm115 15v1zm-225 6v1zm122 0v1zm-100 10v1zm3 0 1.5.5-1.5.5zm139 0v1zm10 11 .5 9.5h-1zm-174 6 .5 3.5h-1zm-10 4v1zm11 10 5.5.5-5.5.5zm7 0 2.5.5-2.5.5zm9 0 3.5.5-3.5.5zm5 0 8.5.5-8.5.5zm142 0 12.5.5-12.5.5zm19 0v1zm3 0 4.5.5-4.5.5zm50 0 8.5.5-8.5.5zm-246 10v1zm174 0v1zm-113 11 .5 18.5h-1zm0 39 .5 1.5h-1zm0 23v1zm92 3v1zm0 4 .5 1.5h-1zm-91 3 19.5.5-19.5.5zm71 0 4.5.5-4.5.5zm6 0 8.5.5-8.5.5zm13 0 1.5.5-1.5.5zm-85 2v1z" opacity=".996"/><path fill="#462829" stroke="#462829" d="m102.5 94 6.5.5-6.5.5zm8 0 4.5.5-4.5.5zm11 0 8.5.5-8.5.5zm10 0v1zm4 0 3.5.5-3.5.5zm6 0 1.5.5-1.5.5zm4 0 4.5.5-4.5.5zm24 0 4.5.5-4.5.5zm16 0 2.5.5-2.5.5zm6 0 4.5.5-4.5.5zm7 0 5.5.5-5.5.5zm7 0v1zm4 0 4.5.5-4.5.5zm-109 2v1zm75 0 1.5.5-1.5.5zm6 0 1.5.5-1.5.5zm35 0 1.5.5-1.5.5zm-121 1 1.5.5-1.5.5zm84 0v1zm41 0v1zm4 1 .5 3.5h-1zm-132 4 .5 1.5h-1zm2 0 .5 1.5h-1zm128 1v1zm2 0 .5 1.5h-1zm-49 1-1.5 2.5-.5 12.5-.5-10.5-1-1zm6 0v1zm-88 1v1zm71 13-1.5 2.5 1 1-.5 5.5-1-6-1 2-.5-1.5zm-4 6 .5 3-2-.5zm-6 3 2.5.5-2.5.5zm0 2 4.5.5-4.5.5zm6 0 1.5.5-1.5.5zm36 1 .5 1.5h-1zm4 7 3.5 1q1.1 3.5-6.5 2v-1l4.5-.5zm5 3 3.5 6.5-2-1q1-3.7-2-2.5zm-95 2v1zm-26 1v1zm25 2v1zm96 0 1.5 4.5-2-1zm-102 4 8.5.5-8.5.5zm106 0 4.5.5-4.5.5zm6 2 .5 15.5h-1zm-156 9 1.5.5-1.5.5zm173 2 .5 2.5h-1zm0 4-1 2zm-150 1 .5 2.5h-1zm3 0v1zm5 1v1zm136 0v1zm-136 2 2 1 1.5-.5-1.5 3.5-.5-3zm136 0v1zm-132 2 .5 1.5h-1zm121 0 .5 4.5h-1zm6 5v1zm-6 2v1zm-114 1v1zm123 0v1zm-29 1v1zm3 0v1zm2 0v1zm2 0v1zm-130 1 1 2q-2.8.7-1-2Zm36 2v1zm97 0q-.9 5.4 2 7l1.5.5-1.5.5-2.5-1z" opacity=".996"/><path fill="#462829" stroke="#462829" d="m208.5 184 3.5.5-4 .5q-1.7 4.1 2.5 3l1.5-.5q.9 3-3.5 1.5l-1.5-3.5zm-99 3-1 2zm-34 1 3.5 1.5-1.5.5zm5 2v1zm133 1v1zm87 4 .5 2.5-2 1zm3 0v1zm-5 6v1zm3 0 4.5.5-4.5.5zm-107 1v1zm0 2v1zm0 5 .5 1.5h-1zm10 2v1zm0 3v1zm-60 9h28l1.5 1.5-.5 6.5-.5-7h-28.5z" opacity=".996"/><path fill="#462829" stroke="#462829" d="m147.5 225 15 1q1.5-2.5 7-1 2.5 1.2 1.5 5-4.7-.9-7 1.5l.5 1.5-2-1-1.5 8q-3.8 1-5-1.5.8-5.8-2.5-7.5l-7.5-1q-1-3.8 1.5-5Zm3.5 1-4 2 2 1q5-1 7 1 2 3 1 9h3v-7l4-3q6 2 5-2h-17zm1.5 6v1zm63 0 7.5.5-7.5.5zm20 0v1z" opacity=".996"/><path fill="#462829" stroke="#462829" d="m154.5 237 .5 1.5h-1zm50 3v1zm-49 2 7.5.5-7.5.5zm-43 22v1zm82 1v1zm10 25 .5 2.5h-1zm-68 25 1.5.5-1.5.5zm41 0v1zm3 0 3.5.5-3.5.5zm14 3v1zm0 5v1zm-164 3 .5 1.5h-1zm82 2 .5 1.5h-1zm92 1v1zm-174 1 .5 2.5h-1zm82 4v1zm-92 3 .5 5.5h-1zm19 0-.5 1.5-.5 1.5-.5-1.5zm73 0v1zm-75 5v1zm-3 1v1zm-2 1v1zm78 2 2.5.5-2.5.5zm4 0v1zm2 0 1.5.5-1.5.5zm5 0v1zm62 0v1zm18 0 1.5.5-1.5.5zm3 0 .5 4.5h-1zm0 6 .5 1.5h-1zm-10 11v1zm-131 65 3.5.5-3.5.5zm7 0v1zm2 0v1zm9 0 10.5.5-10.5.5zm147 0v1zm2 0 3.5.5-3.5.5zm17 0v1zm3 0 5.5.5-5.5.5zm7 0v1zm2 0v1zm3 0 2.5.5-2.5.5zm-58 1 .5 1.5h-1zm62 0 .5 9.5h-1zm-166 10 1.5.5-1.5.5zm123 0v1zm-19 1 .5 2.5h-1zm0 19 .5 9.5h-1zm-2 35-.5 1.5-1.5 2.5.5-1.5zm-86 3v1zm13 0v1zm58 0v1z" opacity=".996"/><path fill="#867267" stroke="#867267" d="m288.5 11 2.5.5-2.5.5zm6 4 .5 8.5h-1zm-182 18 .5 5.5h-1zm0 7v1zm92 1 .5 4.5h-1zm0 8 .5 3.5h-1zm90 0 .5 3.5h-1zm0 5 .5 8.5h-1zm-141 16v1zm21 49v1zm2 0 1.5.5-1.5.5zm-146 1 .5 2.5h-1zm264 1 .5 1.5h-1zm1 5v1zm-265 3v1zm258 0 7.5.5-7.5.5zm-255 11 7.5.5-7.5.5zm233 0v1zm43 0 1 1h7.5v7.5l-1.5 1.5h-29l-.5-.5V141h21.5zm-265 10 6.5.5-6.5.5zm17 2 .5 8.5h-1zm-25 8v1zm2 0 1.5.5-1.5.5zm219 0 5.5.5-5.5.5zm73 0 4.5.5-4.5.5zm-279 1 .5 9.5h-1zm30 10 .5 9.5h-1zm189 10 4.5.5-4.5.5zm-76 1 .5 8.5h-1zm-112 9 9.5.5-9.5.5zm142 21v1zm21 0v1zm-113 1 .5 18.5h-1zm114 9v1zm2 0 2.5.5-2.5.5zm17 10v1zm-204 1v1zm-10 20v1zm113 0v1zm-92 21v1zm3 0 1.5.5-1.5.5zm7 0v1zm3 0v1zm3 0 2.5.5-2.5.5zm4 0 3.5.5-3.5.5zm32 10 1.5.5-1.5.5zm6 0 1.5.5-1.5.5zm55 0 7.5.5-7.5.5zm-63 10v1zm62 12v1zm-21 10 .5 9.5h-1zm-132 10v1zm9 0v1zm0 9v1zm-13 1 1.5.5-1.5.5zm208 35v1zm0 3v1zm-158 24 2.5.5-2.5.5zm55 26v1zm52 1 .5 2.5h-1zm-52 1 .5 1.5h-1zm82 2v1zm-82 28 .5 6.5h-1zm0 10 .5 3.5h-1zm72 24v1z" opacity=".996"/><path fill="#3d2650" stroke="#3d2650" d="M307.5 11v1zm-154 13 .5 1.5h-1zm0 3 .5 1.5h-1zm154 34 .5 8.5h-1zm0 41 .5 1.5h-1zm0 6 .5 15.5h-1zm-287 6 .5 2.5h-1zm287 12v1zm-297 15v1zm0 2 .5 1.5h-1zm267 17 9.5.5-10 .5-.5 5-.5-4.5zm40 0v1zm-41 7 .5 3.5h-1zm31 10v1zm-51 4 6.5.5-6.5.5zm20 0v1zm21 0 9.5.5-9.5.5zm-21 2v1zm0 2v1zm-174 6v1zm-1 11v1zm114 0v1zm6 0v1zm1.5 0 2 .5-2 1zm84.5 0v1zm0 2 .5 1.5h-1zm-31 2 .5 15.5h-1zm-60 4-1 2zm-154 2v1zm195 0-.5 3.5-.5 6.5-.5-8.5zm40 0 9.5.5-9.5.5zm-72 1v1zm-10 9 1 2zm-154 2 .5 7.5h-1zm0 20 .5 8.5h-1zm11 9v1zm9 0v1zm144 0 2.5.5-2.5.5zm17 0 13.5.5-13.5.5zM225 264l2 .5-1 1-.5 11.5zm3.5 0 1.5.5-1.5.5zm13 0 2.5.5-2.5.5zm-147 1v1zm7 8v1zm124 8 .5 2.5h-1zm9 11 3 4-3-1h-9l-.5-1.5 1.5.5 8.5-.5zm-173 3 .5 16.5h-1zm215 0v1zm0 2 .5 69.5h-1zm-203 8 2.5.5q-2.1 3.3-2.5-.5Zm5 0H82v9.5l-3.5 1.5v-1l2.5-.5V306q-3.3.8-2.5-1Zm157 6 .5 1.5h-1zm0 3q2.8 1.3.5 2.5l-.5 3.5-.5-3.5zm-184 1 6.5.5-6.5.5zm8 0 1.5.5-1.5.5zm13 0 1.5.5-2 .5v19.5l-1.5.5.5-1.5v-18zm154 0 4.5.5-4.5.5zm14 0 1.5.5-1.5.5zm5 0v1zm-10 7v1zm0 3v1zm-172 10 4.5.5-4.5.5zm183 0 2.5.5-2.5.5zm5 0q5.4-.6 5.5.5v48h-1v-47q0-1-4.5-.5zm-190 5 .5 25.5h-1zm174 41 .5 2.5h-1zm21 10 .5 4.5h-1zm-203 6 1.5.5-1.5.5zm5 0 2.5.5-2.5.5zm198 0v1zm-226 1 .5 30.5h-1zm236 2 .5 3.5h-1zm-205 1v1zm205 5 .5 6.5h-1zm0 10v1zm-41 3 .5 1.5h-1zm0 7 .5 1.5h-1z" opacity=".996"/><path fill="#753681" stroke="#753681" d="m155 65 8 .5V72h-8zm3 2q-3 5 2 3v-3l-1 2zM82 202h6v2l-4 1v6h-2l1-5.5zm2 1-1 2h1zm141-1 3.5 1 4-1 2.5 1-1 6.5.5 1.5q-4.4 1.5-3.5-1.5l1-3-1.5.5-2-1-1.5 4.5.5 1.5-2.5-3.5 1-3zm5 3v1h1zm-158 9h5v1.5q-2.7 1.3-2.5 5.5l-2.5-1 1-2.5zm6.5 0v1zm21 0 2.5 1.5v2l-1.5 2.5-2.5-.5 2-1zM84 219l3 .5-3 1.5zm4 0q4.1-1.3 3 2-4.1 1.3-3-2Zm-24.5 4 6.5.5-1 2.5h-4q1.1 3.3-3 2-1-3.8 1.5-5Z" opacity=".996"/><path fill="#753681" stroke="#753681" d="M66 229q3-1 2 2-3 1-2-2Zm-3.5 1 .5 1.5h-1zM52 243l9 .5-1 5 1 2.5-2.5-1-.5 2q-5.4 1.5-7-1.5l1-4zm4 3v1h1zm-1 1v1zm3 0-4 3h4zm188 7h10v8l-2 .5 2 1-1.5.5q-1.2-2.3-6-1l-1.5.5-1-2 1-3zm5 3v1h1zm-1 1-1 2h1zm3 0-1 2h1zm-2 2v1h1zm11.5 4 3.5 1-1 3.5v25l3 4-2 .5-.5-2-2 1-.5-2.5-1-4v-21l.5-1.5q-6.1 1.3-5.5-1.5l-.5-1.5q4.7 1.2 6-1Z" opacity=".996"/><path fill="#753681" stroke="#753681" d="m257.5 271 1.5.5-1.5.5zm-.5 4 2 .5V290q-3.3-1.1-2 3l2 .5v18q1.4 2.8 6 1.5l-.5 2h-7l-1.5-1.5v-11l1-2-1-3 1-3q-2.2-1.2-1-6v-2l1-5zM63 295q6.2-.9 9 1v11.5l-1 2 1 3-1 2.5-2-.5v-15l-2.5-1.5-3.5 1zm209 0 4 1.5-1 11 1 2v2q1.8 6.3-1 8l1 4h-1V321l-2-.5v-22zM63.5 310l2.5 3.5-3 1.5zm203 4 .5 3.5h-1zM51 316q6.9-1.5 10 1.5v2q.8 2.3-1.5 1.5l-4-2q-2.8 1.3-.5 2.5v13l-1 2 1 1v11l-1 3 1 6-2 1-1-3 1-1v-21l-2-11 1-3zm217.5 2-1 2zm-1 3 1.5.5-2.5 1.5z" opacity=".996"/><path fill="#753681" stroke="#753681" d="m59.5 325 .5 2.5h-1zm214 2 1.5.5-1.5.5zm-.5 4q4.5-1.7 3 3.5l-1 5.5h-2v-6l2-.5-2-.5zm-214.5 3v1zm208 3 .5 3.5h-1zm-207 3 .5 19.5 1 3v2q.8 2.6-2.5 1.5l-3.5 1q-1.7-4.1 2.5-3 3.3-1.7 1.5-8.5l-1-3 1-1zM58 365v1zm215-24q3.7-1.4 2 4.5l1 3v2q.9 8.4-1 12.5l-2-.5 1-2-1-1zm-6 17 2 .5-2 1z" opacity=".996"/><path fill="#753681" stroke="#753681" d="M52 360q3.5-1.1 2 6.5l-2-1zm-10 7h7.5l.5 1.5v2l1 3-1 3 1 5q-2.7 1.8-1 8l1 2-2 5 1 2.5q-3 1.3-2-2.5v-23l1-2.5q-2.7-1.1-2 1.5-2.2 1.2-1 6l-2 2v5h1l1.5-4.5.5 9q-3.7-1.4-2 4.5l-1.5 4.5-1-2-1.5.5 2-4-2-11 1-3q-2.3-1.2-1-6zm5 3v1zm-2 1-1 2h1zm0 4-1 4h1zm230.5-8v1zm1.5 0 6.5 1q1.2-2.2 2.5.5l1 2v17q-2.3 1.2-1 6l1 3-1 5 1 5-3 1.5-1-5.5 1-2-1-4 1-1v-15l-.5-9.5-1.5.5.5-1.5-2 1-3.5-2.5zm-9.5 7 .5 2.5-.5 1.5q3-.8 1.5 3-5.2 1.8-3-5.5zm1 10 4.5 1.5-5.5.5zm0 3 3.5.5-3.5.5zm9 0 1.5 3.5V404q-3.7 1.4-2-4.5l1-3-1-5v-2zM32 398q2.1 1.6 7.5 1l1.5 1.5-5 1.5q1.1-2.7-1.5-2l-2.5 1zm.5 4 .5 1.5h-1zm17 0 1.5 5.5v7l-1 3q-1.6 10.1 1 16l-1 2q2.3 1.3-.5 2.5l-1.5-3.5v-17l1-1q-3.5-4.2-2-12.5 2.8 1 2.5-2Zm228 4 1.5 1.5V435q-3.5 1.1-2-6.5l1-2q-2.5-1.5-1-7v-2l1-10zm-245 1 .5 1.5h-1zm255.5 1 8 1 1 9.5-1 2 1 4-1 3.5-5-2.5 1.5.5 1.5-.5v-2l-.5-10.5-.5 2-3-1.5 3-1-7-2 2-.5zm-255.5 4 .5 1.5h-1zm0 3 1.5 6.5-1.5 3.5zm2 10q5.8-.8 7.5 2.5l-3 .5q1.4-3.7-4.5-2zm-2 1v1zm255 0 2.5.5-2.5.5zm-3.5 2 2 .5-2 1zm0 3q4-1.4 2 5.5h-1l-.5-2.5-1.5.5zm-6.5 5 3.5.5-3.5.5z" opacity=".996"/><path fill="#85878b" stroke="#85878b" d="m299.5 15 .5 3.5h-1zm0 5 .5 4.5h-1zm0 6 .5 8.5h-1zm-187 5 .5 1.5h-1zm82 0 .5 7.5h-1zm10 0v1zm0 2 .5 2.5h-1zm95 3v1zm-187 3v1zm187 1 .5 1.5h-1zm0 6 .5 3.5h-1zm0 5 .5 3.5h-1zm0 10 .5 2.5h-1zm18 9 .5 2.5h-1zm-18 4 .5 2.5h-1zm0 12 .5 1.5h-1zm18 29 .5 1.5h-1zm-18 1v1zm-269 7 .5 5.5h-1zm287 0 .5 3.5h-1zm-30 6v1zm9 0v1zm-9 11 21.5.5-21.5.5zm23 0 6.5.5-6.5.5zm7 9v1zm-280 11v1zm298 0 2.5.5-2.5.5zm-34 4 2.5 1.5v11l-1.5 1.5-2.5-1.5.5-6.5.5 7 2-.5V165q-2.7-1.1-2 1.5h-1zm-18 2v1zm-222 15v1zm205 0 3.5.5-3.5.5zm6 4v1zm0 3v1zm-2 1v1zm-76 2v1zm68 5 .5 11.5-2.5 1.5v-1l1.5-.5zm-3 1 .5 1.5h-1zm58 14v1zm-102 1h8l1.5 1.5-1.5-.5h-8zm92 0v1zm-92 2 .5 2.5h-1zm9 1 .5 7-2-.5zm-9 3 .5 2.5h-1zm32 4v1zm29 0v1zm0 10v1zm-188 36 .5 1.5h-1zm-15 6 1.5.5-1.5.5zm23 0 5.5.5-5.5.5zm1 3-1.5 2.5-.5 11.5-.5-13zm-22 1 .5 5.5h-1zm3 0 .5 12.5h-1zm3 12 .5 3.5h-1zm16 1v1zm46 24v1zm2 0 3.5.5-3.5.5zm84 4 2.5 1.5-1.5-.5zm-2 2v1zM82 336l10 .5-7.5.5-2 2zm143.5 0h9.5v11h6v2q-5 .8-7-2.5 1.5-7-1.5-6.5l1-3h-8zm-141 3v1z" opacity=".996"/><path fill="#85878b" stroke="#85878b" d="M230.5 340q-.5 6.5 3 9l7.5 2.5-11 .5zM82 345l2 .5-3 2zm161.5 2 .5 1.5-2 1zm-168 2v1zm153 3 1 2zm-198 15 .5 29.5h-1zm205 1 .5 2.5h-1zm3 3 1.5 1.5v11h-1zm-160 1 .5 5.5h-1zm157 0 .5 1.5h-1zm0 3 .5 1.5h-1zm10 4 .5 1.5h-1zm-168 5v1zm175 18v1zm-185 2v1zm-6 46v1z" opacity=".996"/><path fill="#3a2326" stroke="#3a2326" d="M132.5 73v1zm52 0v1zm-91 21v1zm8 0v1zm29 0v1zm2 0 2.5.5-2.5.5zm7 0 1.5.5-1.5.5zm11 0 18.5.5-18.5.5zm24 0v1zm9 0v1zm21 0v1zm2 0 2.5.5-2.5.5zm9 0v1zm7 0 2.5.5-2.5.5zm-28 25 .5 4.5h-1zm-32 2v1zm32 7 .5 1.5h-1zm0 9v1zm10 4 .5 1.5h-1zm29 0v1zm-149 3 .5 1.5h-1zm123 2v1zm-95 1v1zm92 0v1zm6 0 1.5.5-1.5.5zm-5 2v1zm12 3v1zm15 5 .5 4.5h-1zm-181 3 7.5.5-7.5.5zm40 9v1zm11 12 9.5.5-9.5.5zm94 0 1.5.5-1.5.5zm3 0v1zm4 0v1zm2 0 9.5.5-9.5.5zm-93 2v1zm0 20 .5 2.5h-1zm82 0v1zm0 2 .5 2.5h-1zm0 6v1zm10 1 .5 1.5h-1zm55 1 6.5 2.5-1 3q2.3 1.3-.5 2.5l-2 1-4.5-1.5q4.7.2 6-3l-4-1.5-.5-2-1.5.5zm-55 2 .5 14.5h-1zm53 1 .5 2.5h-1zm-92 6 3.5.5-3.5.5zm7 0v1zm64 0 2.5.5-2.5.5zm4 0 2.5.5-2.5.5zm-86 3 8.5.5-8.5.5zm16 0v1zm-20 5v1zm3 1v1zm51 0 .5 8.5h-1zm-143 1v1zm101 0 1 2q-2.8.7-1-2Zm-9 1 .5 3.5h-1zm51 8 .5 1.5h-1zm-92 2 .5 11.5h-1zm0 16 .5 4.5h-1zm0 6 .5 11.5h-1zm-19 1v1zm-1 2v1zm20 10 .5 9.5h-1zm0 14 .5 1.5h-1zm26 23 4.5.5-4.5.5zm36 0 2.5.5-2.5.5zm4 0 1.5.5-1.5.5zm16 1 .5 1.5h-1zm0 3 .5 3.5h-1zm10 0 .5 4.5h-1zm-10 5 .5 1.5h-1zm-82 2 .5 1.5h-1zm92 0 .5 1.5h-1zm0 8 .5 2.5h-1zm-174 1v1zm82 0 .5 1.5h-1zm23 1 2.5.5-2.5.5zm-23 2 .5 5.5h-1zm-92 5 .5 2.5h-1zm184 1 .5 1.5-2 1zm-180 2 1.5.5-1.5.5zm89 0v1zm2 0v1zm3 0 2.5.5-2.5.5zm50 0v1zm27 0 5.5.5-5.5.5zm9 5v1zm0 4v1zm-10 2 .5 5.5h-1zm0 7 .5 2.5h-1zm-82 84 .5 19.5h-1zm92 21v1zm-92 1 .5 1.5h-1z" opacity=".996"/><path fill="#79493c" stroke="#79493c" d="m194.5 61 .5 1.5h-1zm-80 2v1zm7 0v1zm2 0 8.5.5-8.5.5zm10 0v1zm7 0v1zm35 0 1.5.5-1.5.5zm10 0 7.5.5-7.5.5zm9 8v1zm-88 24 2.5.5-2.5.5zm26 0 1.5.5-1.5.5zm3 0 4.5.5-4.5.5zm6 0 1.5.5-1.5.5zm24 0 8.5.5-8.5.5zm19 0 1.5 2.5-1.5 7.5zm5 0v1zm9 0v1zm11 0v1zm2 0v1zm3 0 .5 2.5h-1zm-112 1v1zm112 3 .5 6.5h-1zm-71 6v1zm9 0v1zm-60 2 .5 8.5h-1zm123 0v1zm-52 2 .5 3.5h-1zm61 3q-.6 5.1 2.5 6.5l-3-2zm-61 2v1zm22 1 .5 1.5h-1zm-77 1v1zm-25 1 2.5.5-3 .5-.5 22-.5-21.5zm7 0v1zm25 0 2.5.5-2.5.5zm113 0v1zm6 0v1zm-71 1v1zm22 0v1zm-42 2v1zm-133 2v1zm5 0v1zm128 1 1.5 5.5-2 .5zm-130 1 .5 1.5h-1zm113 4v1zm69 0 3.5 1.5-4 .5zm-99 1 4.5.5-4.5.5zm105 0v1zm2 0v1zm12 0v1zm-124 3v1zm123 2 .5 5.5h-1zm-112 2v1zm-11 3v1zm15 0 4.5.5-4.5.5zm6 0v1zm93 0v1zm2 0 1.5.5-1.5.5zm18 0 1.5.5-1.5.5zm4 0 2.5.5-2.5.5zm-199 1v1zm164 0v1zm0 6 .5 1.5h-1zm-164 3v1zm164 0v1zm-133 12v1zm143 0v1zm0 7 .5 2.5h-1zm-143 2v1zm143 4 .5 2.5h-1zm-91 38v1zm2 0v1zm7 0 2.5.5-2.5.5zm63 0 1.5.5-1.5.5zm8 0v1zm2 0v1zm40 0v1zm-32 1 .5 17.5h-1zm-90 1 .5 7.5h-1zm-32 9 .5 5.5h-1zm32 0 .5 9.5h-1zm-32 8v1zm-15 1 1.5.5-1.5.5zm66.5 1h8.5l1.5 1.5-.5 8.5h-2l-2.5-2.5 2-.5.5 2 1.5-5.5-3.5-1.5h-2l-1.5.5 1 2h-1q.7-2.6-2-1.5zm2 1v1zm39-1h8.5l1.5 1.5-3 2 1-2-1.5.5q-7.8-2.7-5.5 4.5h-1zm-60.5 2 .5 1.5h-1zm90 0v1zm-64 1v1zm64 1 .5 4.5h-1zm-26 3 1.5.5q-1.2 3.3-5 2.5l-2.5 4 1-3H165v3.5h-1V243h9.5l.5-1.5q1.8 1.6 3.5-1.5Zm-64 1v1zm88 0v1zm-86 1v1zm49 7 .5 3.5h-1zm2 1 1.5.5-1.5.5zm5 2v1zm-110 2v1zm0 8v1zm123 22v1zm-61 31 6.5.5-7 .5-.5 10q0-6-3-9l-6.5-.5 9.5-.5zm71.5 1q2.7-1.1 2 1.5v2l-1.5 5.5-.5-2.5 1-2zm6.5 0 2.5.5-.5 8.5zm-48 2 .5 3.5h-1zm-40 1 .5 5.5h-1z" opacity=".996"/><path fill="#79493c" stroke="#79493c" d="M118.5 323q2.3-.7 1.5 1.5zm81 0-1 2-1.5-.5zm-46 1 .5 1.5h-1zm-132 12v1zm8 0 1.5.5-1.5.5zm116 0 2.5 3.5h-1q.7-2.6-2-1.5l1 5h3q-1 3 2 2l.5-2 .5 2 17 .5-26 .5.5-9 1.5.5zm26 0 1 2 1-2 .5 9.5-2-1 1-4zm23 0-1 2zm-71 1 3.5.5-2 1q3.5 1.5 1 3l1.5 2.5q1.8-2.7 3.5 1.5l-4.5-1.5q-3 .9-1.5-3.5zm5 0 2.5.5-2.5.5zm60 0 1.5.5-2 .5-.5 2-.5-1.5zm-158 1 .5 1.5h-1z" opacity=".996"/><path fill="#79493c" stroke="#79493c" d="m149.5 338 16.5.5-16.5.5zm20 0v1zm22 0v1zm-63 2v1zm-98 1 .5 2.5h-1zm125 2 1.5.5-1.5.5zm33 0v1zm-158 2v1zm156 0v1zm-83 2h8.5v9l-5.5-1-2.5 1.5.5-1.5q-2.2.8-1.5-1.5l-1-5zm1.5 2v5l2-1 3 1-1-3zm6 5v1zm23.5-7 7.5.5-2 1 3 .5-.5 7-2.5-.5-1-3 1.5-2.5-2 1-2-1v2q-2.2.8-1.5-1.5-3.7-1.7-.5-3.5Zm.5 1v1zm3 0v1h1zm4 4-1 2h1zm32-5 3 .5-2 1 3 1-3 1.5-.5 4z" opacity=".996"/><path fill="#79493c" stroke="#79493c" d="M178.5 347q4.5-1 5.5 1.5l-1.5-.5q-5 1-4-1Zm26.5 0h8.5l.5 2.5q2.5 1.5 1 7l-5-2 .5-1.5 1.5.5 1-4.5-6-1-1 6.5.5 1.5-1.5-.5z" opacity=".996"/><path fill="#79493c" stroke="#79493c" d="m210.5 350 .5 1.5h-1zm-104 1v1zm28 4v1zm42 0v1zm32 0v1zm-95 2 2.5.5-2.5.5zm5 0h4.5v6.5q-3.1 1.8-1.5 3.5l-5.5-2.5 4-.5 1-3.5-1-2.5zm2.5 7v1zm74-7q3.7-1.5 3 1.5h-2l-.5 1.5zm4.5 0 4.5.5-4.5.5zm-86 2v1zm89 1-1 2zm-87 1v1zm80 2 1 3 6-3v1l-6 3q-2.5-1-1-4Zm-72 4 2.5.5-2.5.5zm8 1 1.5 2.5-2 1v-2zm53.5 0 2 .5-1 3 1.5 2.5 1.5-.5-2.5 3.5-1.5-.5zm2 6v1zm-62.5-5q4.2 1.7 1.5 3.5l-.5 1.5zm69 0-2 3zm-65 2v1zm60 0v1zm-57 2 .5 4-5-2.5 2.5-.5 1.5.5zm4 5 1.5.5-2 1 1 3h-1l-1-3zm8 0 13.5.5q-2.1 2.4-7.5 1.5-1.2-2.2-6-1zm16.5 0h6v2q4.1-1.3 3 2l-4-.5.5-1.5q-6.9 2-5.5-2Z" opacity=".996"/><path fill="#79493c" stroke="#79493c" d="M169.5 378q5.8-.7 8.5 1.5l-5.5.5-3-1zm13 1 1.5.5-3.5 2.5zm-33 2 3.5.5-3.5.5zm21 0 6.5.5-6.5.5zm-35 3v1zm-33 24v1zm2 0 2 3q-2.2.8-1.5-1.5zm110 0 .5 19.5-1.5 1.5h-8v-1q4.4 1.5 3.5-1.5h1q-.7 2.3 1.5 1.5-1.6-1.7 1.5-3.5zm-73 2 .5 2-2-.5zm70 0v1zm-76 1 1.5 3.5-2 3.5 2 .5-4 .5zm5 2 2.5 4.5-2 .5-2-3.5zm41 0 2.5 5.5-1.5-.5-4.5-.5 4-1zm-5 1 .5 1.5-2 1zm-74 4 .5 2.5h-1zm40.5 1 6 2.5-1.5 1.5-2.5-1.5-1 4 1 2.5 21 .5-21.5.5-1.5-1.5zm30.5 0v1z" opacity=".996"/><path fill="#79493c" stroke="#79493c" d="m212.5 419 .5 1.5h-1zm-43 2v1zm4 0 .5 6.5q-.7 2.3-4.5 1.5l.5-1.5.5-2.5 1 3 1.5-3.5-1-2zm37 3v1zm-99 2q3 1.5 0 3l-8.5-.5 9-1zm52 0 5.5.5-5.5.5zm-102 3 .5 2.5h-1zm-31 2v1zm256 0 .5 3.5h-1zm-225 2 .5 1.5h-1zm0 5v1zm225 0v1zm-232 1 2.5.5-2.5.5zm37.5 1h10v8.5h-1q.8-2.2-1.5-1.5v-1q3 .7 1.5-3l-6.5-1q-2.9 1.6-2 7zm9 1v1zm114-1h10v9l-6-1.5 3-.5-.5-4-3.5 1-2.5 4zm9 1v1zm-6 1v1zm2 0v1h1zm4 2-1 2h1zm-124.5 0v1z" opacity=".996"/><path fill="#79493c" stroke="#79493c" d="m95.5 447 1.5.5-1.5.5zm4 2v1z" opacity=".996"/><path fill="#7b463a" stroke="#7b463a" d="m163.5 64 .5 8.5-1.5 1.5h-8v-1h8.5zm9 33v1zm42 1v1zm10 8v1zm0 5v1zm-121 5 1.5.5-1.5.5zm123 3v1zm-132 10 1.5.5-1.5.5zm-70 4v1zm2 0 1.5 2.5h-1zm188 0v1zm20 1 .5 1.5h-1zm-123 5v1zm98 0 2.5.5-2.5.5zm-148 23 .5 7.5h-1zm25 22v1zm2 1v1zm26 27 1 3 .5-2 5 1 1 18.5q-2.7 1.8-1 8l1 2.5-6.5-1-2 1-.5-2.5 1-5-1-2 1-1v-11q1.8-6.3-1-8zm2.5 3-1 25h1zm2 1-1 5h1zm0 16-1 7h1zm1.5-20 1.5.5-1.5.5zm76 0 .5 1.5-1 2 1.5-.5q2.6.8 1.5-2.5l1.5.5 2.5.5v17l1 4-1 3 1 5-2.5.5q-4.5 1-5.5-1.5l-1-2v-15l1-3q-2.5-1.5-1-7zm5.5 2v1zm-1 2-1 23h1zm1 24-1 2h1zM81.5 229l.5 1.5h-1zm102 4v1zm-49 1 2.5 1v2q2.7-1.1 2 1.5h1q1.1-3.3-1.5-2.5v-1l3.5 1.5-2.5 6.5q-7.3 2.6-5.5-3.5l-1-3.5 2-.5zm1.5 2-1 2h1zm3 4 1 2q1-3-1-2Zm42.5-6-.5 1.5.5 1.5 2.5-1.5q.5 5.5-2.5 7.5l-4.5-.5 1.5-2.5q-3.3-1.1-2.5 1.5h-1V235h5.5zm-2.5 2v1h1zm-1 1-1 2h1zm-13 7 8 .5-2 .5.5 2 1.5-.5 1 5.5-9 1-1-4.5zm4 2v1h1zm-1 1-1 2h1zm-1 3v1h1zm30 66 4.5 1 1.5-.5q-2.2 1.3-1 6l2 3-1.5-.5-5 1-2.5-.5 1-3-1-2h1l.5 1.5.5-2.5zm2 3v1zm2 0v1zm-3 4q-2 3 1 2zm2 0v1zm2 0v1zm-89-6q6.1-1.7 8 1.5l1 7.5-9-.5q2.3-1.3 1-6zm3 6v1zm3 0 1 2q1-3-1-2Zm-82.5 6 1.5 2.5h-1zm-2 3 2.5 1.5-1.5.5zm112.5 4h12.5l3 1 3-1 5.5 1 2 3.5v3l-.5 2.5-4-1H152l-.5-2-.5 2q-3 1-2-2h-3v-2.5l-1-2.5q3 1 2-2Zm10 1q-2 3-7 1v1h16zm-9 1-1 2h1zm22 0v1zm1 2-1 2h1zm-13 2v1h3zm9 0v1h2zm-11 1v1h1zm16.5-7v1zm-45 1 3 1 1.5-.5-.5 8.5H123v-7.5h1l1 5.5 2-.5-1-2 1-1-1.5-2.5zm1.5 3v1zm0 3v1zm2 0v1zm-3 1v1zm2 0v1zm55-7 4.5 1 3-1q2.5 1 1.5 5.5v2q.5 3-6.5 1.5l-2.5-1zm3 1-1 2h1zm4 0v1h1zm-1 1v1zm-3 2v1zm1 2v1zm-163.5-4 1.5.5-1.5.5zm-1 3v1zm2 0v1zm107 5 1.5 3.5q-.7 2.3 1.5 1.5v-2l2 1 2-1-1.5 2.5 1 1q1.3 4.6-4.5 2.5l-2.5-.5v-2l1-5zm44 0 6.5 2q1.5 3.7-1.5 3l.5 1.5-1.5 2.5q-5.4 1.9-4.5-1.5h-1l-.5 1.5-.5-5 3-1.5-3-1zm3.5 2v1zm-3 2-1 2h1z" opacity=".996"/><path fill="#7b463a" stroke="#7b463a" d="m137.5 348 1.5.5-1.5.5zm3 0 1.5.5-1.5.5zm66.5 0 6 1-1.5 5-1.5-.5 1 2-1.5.5-1-1-2.5 1.5v-2zm3 1v1zm1 1-1 2h1zm-3 3v1zm-103-4 4 1.5 2 4-1.5-.5-3-1-1.5.5zm2 2v1zm34.5 1 .5 1.5h-1zm-38.5 3 2.5 1 2-1 4.5 1.5-6.5.5-2.5-.5zm38.5 0v1zm71 0 1 2zm-96 2 3.5 1 1 4-2 .5 2.5 3.5q-.7-2.7-5-2v1l3.5 1.5-1.5.5-5.5-3.5 1-4-.5-1.5zm-.5 2v1zm2 1v1h1zm-2 1v1zm-1 2v1zm83.5-6 5.5 2.5q.6 5.4-1 7.5l-3.5-1-2 1v-2q-2.2.8-1.5-1.5l-1-3 1.5-2.5 1.5.5zm3.5 2v1zm-2 1v1h1zm3 0v1zm-1 1v1zm-4 2v1zm4 0v1h1zm-3 1v1h2zm-3.5 2v1zm-72.5 2h7.5l.5 1.5 1 3-1.5 1.5-3.5.5 3 2-7 .5zm2 1 1 5v-1q3-2-1-4Zm3 1v1zm1 1v1zm1 1v1zm57.5-4 5.5.5-1 2h2l-1 5.5-5.5 1 1.5-2.5-1.5-2.5q-2.6.8-1.5-2.5zm2.5 2v1h1zm-1 1v1zm3 0v1zm-6.5 4v1zm9 1v1zm-60 2 2 1q1.3-2.2 6-1l1 1 11 1 5.5-2q1.3 3.7-4.5 2v1l10.5-1q-1.2-3 2.5-2 2.7 2.8 9 2v-1l-2.5-.5 8.5-.5v1q-3.3-1.1-2.5 1.5l-.5 1.5 3-2 .5 4.5-1 2.5-4.5 1-1-1h-28l-4-1h-4l-6 2q-2.7-1.2-1.5-6.5h1l.5 1.5.5-2.5zm4.5 2v1h4zm28 0-2 2h4q1-3-2-2Zm13 0v1zm-30 1v1h3zm21 0v1h6zm-35 3v1zm-32.5 24 1.5 3 2-.5-1-2.5h6v7.5l1 1v8l-.5 2.5-2-1v2H103zm2.5 5v1zm5 3-1 3h1zm-5 3-1 6h1zm6 0-1 3h1zm-5 6v1h2zm26.5-17q6.8-1.8 8.5 1.5l-1.5 2.5q4.6-1.4 2.5 4.5h-1l-1.5-3.5q-3.2 1.8.5 3.5l-.5 1.5H135l2-3.5-1.5-3.5-2 6-.5-6.5zm46 0 3.5 2.5 1 6h-1l-1.5-3.5-.5 2.5.5 1.5-7 1v-1q3.8 1.3 2.5-2.5l-3 1 1-6.5zm-.5 7v1h1zm26.5-7 3 1h4l1.5.5v12l-3 5 .5 1.5H210q1.5-3.8-1.5-3l.5 1.5q.8 2.6-2.5 1.5-2.7-1.4-1.5-6 3.3 1.3 2-3.5h-2zm6.5 2v1zm0 2-1 4h1zm1 7-1 2h1zm-2 5v1zm-65.5-5 9 1 1-1h11l5 1 1.5-.5-1 4v2l-.5 2.5-1-5-.5 2-23 .5 21.5 1.5 1.5-.5-.5 1.5H145l-1-2.5 1.5-4.5q1.8 3.8 3.5.5-4.2-.5-3.5-2.5Zm24.5 2v1zm2 0v1zm-25 2v1zm-85.5 9v1zm39 9v1zm123 0v1zm-129 1 2 1 2-1 2.5 1q1.5 3.8-1.5 3v1q2.3-.7 1.5 1.5l-2.5.5-2 1-3-1-1.5.5q2.3-1.2 1-6zm1.5 1v1zm4 1v1zm-4 1v1zm3 0v1zm-3 2v1h1zm121.5-5v1zm2 0 2.5 1.5q1.7 4.8-2.5 3.5v1q4.4-1.5 3.5 1.5l-1.5-.5-4-1-.5 2q-2.7 1.1-2-1.5l3-4.5 3-.5z" opacity=".996"/><path fill="#7b463a" stroke="#7b463a" d="m223.5 444 .5 1.5h-1z" opacity=".996"/><path fill="#989aa4" stroke="#989aa4" d="m307.5 2 .5 5.5h-1zm-10 9 .5 1.5h-1zm-21 1 .5 24.5h-1zm30 3 .5 11.5h-1zm-153 16v1zm51 8 .5 1.5h-1zm102 0 .5 12.5h-1zm0 16 .5 5.5h-1zm0 7 .5 1.5h-1zm11 0 .5 1.5h-1zm0 3 .5 1.5h-1zm-41 5 .5 35.5h-1zm30 4 .5 1.5h-1zm0 16 .5 4.5h-1zm-71 5v1zm0 3 .5 18.5h-1zm82 6 .5 6.5h-1zm-11 7 .5 8.5h-1zm-276 8v1zm246 0 .5 3.5h-1zm30 4 .5 7h-9.5l-.5-2.5h1q-.7 2.3 1.5 1.5l5-1h1.5zm-30 1 .5 5.5h-1zm41 4v1zm1 12h8l1.5 1.5-.5 8.5-1.5-4.5 1-4.5h-8.5zm7 9v1zm-39 12 .5 10-10-.5 9-.5zm11 0 .5 8.5h-1zm20 0 .5 15.5h-1zm-51 21 .5 9.5h-1zm51 4 .5 12.5h-1zm-256 1 .5 4.5h-1zm195 5 .5 19.5h-1zm41 10v1zm0 6 .5 3.5h-1zm10 5 .5 8.5h-1zm-246 4 .5 4.5h-1zm194 6v1zm21 0 .5 3.5h-1zm-21 2 .5 2.5h-1zm21 6v1zm-30 1 3.5.5-3.5.5zm8 0 1.5.5-1.5.5zM82 264l6 .5-5 .5-.5 9zm8.5 0 1.5.5-1.5.5zm1 2 .5 2.5h-1zm185 5 .5 23.5h-1zm-204 23 8.5.5-8.5.5zm-41 21 8.5.5-8.5.5zm142 0v1zm52 1v1zm0 3 .5 2.5h-1zm-195 2 .5 4.5h-1zm195 4v1zm7 0 2.5.5-2.5.5zm-212 1 .5 1.5h-1zm0 4 .5 5.5h-1zm54 6 6.5.5-6.5.5zm161 0 10.5.5-10.5.5zm-144 1 .5 20-20-.5 19-.5zm134 0 .5 19 20 .5-21 .5zm10 1 .5 7.5h-1zm-156 2 .5 1.5h-1zm159 0 .5 2 3 1.5-2.5.5q-2.5-1-1-4Zm-162 3 1.5.5-1.5.5zm161 1 .5 2 8 .5-7.5.5zm-165 2 8.5.5-8.5.5zm0 21 9.5.5-9.5.5zm164 0 9.5.5-9.5.5zm-155 11 .5 10-3-.5 2-.5zm-9 9 2.5.5-2.5.5zm164 0 9.5.5-9.5.5zm-216 11v1zm42 0H72v9.5h-1V399h-8.5zm184 0h9.5v9.5h-1V399h-8.5zm-226 6 .5 11.5h-1zm42 3v1zm245 2 .5 29.5h-1zm-287 20 .5 1.5h-1zm10 15 .5 5.5h-1z" opacity=".996"/><path fill="#491c52" stroke="#491c52" d="M92 202h8.5l1.5 1.5v8.5H92zm124.5 0 5 1 1.5-.5.5 1.5 1.5-.5v8.5h10v10h-10v-7.5q2.2-1.3-.5-2.5h-8l-1.5-1.5q-1.7-6.7 1.5-8.5Zm.5 8v1zm-144.5 2 9.5.5-9.5.5zm-9 10 8.5.5-8.5.5zm153 0 6 1q1.3-2.2 2.5.5v8.5h-10v-8.5zm.5 1v1zm18.5 12v1zm0 7v1zm-8 22 2 1 1-1h10l3 1 1-1H256v51.5l.5.5h9l.5.5v71l.5.5h9l.5.5V439h-9v-9.5l-1.5-.5-3-1-2 1-5-1q-7.5-1.5-11 1h-2l-16-1-1.5.5 1-2-1-5 1-2.5h39.5l.5-1.5v-2l1-9-1-2 1-4-1-2.5h-8.5l-1.5-1.5 1-5q-2.5-1.5-1-7l1-1V335l-7.5 1-3.5-1v-20h-9.5l-.5-.5v-19q2.3-1.2-.5-2.5l-1 1h-8l-1.5-1.5v-8l1-3-1-4 1-1v-11zm7.5 28v1zm3 3v1zM72.5 305h4l4.5 1v9h-9zm2.5 1v1zm-13.5 6 .5 4h9v18.5l-2.5 1.5-5-1-2.5 1 1-16.5-1-2v-2zm-3 3v1zM51 367h10v30l-5.5 1-2-1-2.5 1zm0 52h40.5l.5.5v8.5l-13.5 1q-1.2-2.2-6-1l-3 1-7-1-1.5 1.5v9.5H51z" opacity=".996"/><path fill="#512f26" stroke="#512f26" d="m92 95 7.5 1 2-1v1l-1.5.5 2 1-1 4-3.5 3.5-3 1 1.5-2.5.5-1.5q1.2 2.3 2.5-.5l1-4-7-.5-.5 5zm83.5 0 5.5 1.5-3.5.5zm39.5 0h9.5l.5 2.5q-1.2 2.8-2.5.5-2.6.7-1.5-2h-4.5l2.5 3.5-1 1 1.5 2.5 4.5 2.5-2.5.5-5.5-4.5zm-31.5 1-.5 1.5-1 4 2 4.5-6-.5 5-1q-3.5-.5-3-5zm-8 1q4.3 1.8 1.5 3.5 1.1 3.3-1.5 2.5l-1.5.5z" opacity=".996"/><path fill="#512f26" stroke="#512f26" d="m178.5 103 1.5.5-1.5.5zm-86 1 .5 1.5h-1zm21 2 1.5.5-1.5.5zm3 0 2.5.5-2.5.5zm5 0v1zm25.5 0 3 .5-1 1 3 3q.6 5.4-1 7.5l-4.5-1-1 2-1.5-3.5q2.3-1.2 1-6zm-1 3v7h4q2-1 1-5-1-3-5-2Zm5.5-3v1zm15 0v1zm5 0-2 3H167v6.5q-3.1 1.8-1.5 3.5l-1.5-2.5v-2l.5-2.5 1 3q-.8-6.3 3-8 1.5 2.5 3-1Zm34 0 1.5.5-1.5.5zm-89 2 1.5.5-2 .5-1 3.5q.8 2.3 4.5 1.5l1.5-.5q.8 2.3-1.5 1.5h-2l-3.5-1.5q-1.9-5.4 1.5-4.5zm3 0q2.3-.7 1.5 1.5zm87.5 0q5.5-1.2 7 2.5l-.5 14.5-.5-13.5-1-2.5q-3.8-1-5 1.5v16l1 1-2-1v-16zm-34.5 6 .5 2.5h-1zm-64 4q4 1.5 2.5 8.5-1 2.5-5.5 1.5l-2.5-1q-1.5-6.3 2.5-8zm-1.5 2-2 1v2q-2 6 4 4 2-1 1-5zm48.5-1v1zm6 0-2 3-3.5 1.5q.5 4-2.5 4.5l-.5-2q3.3 1.3 2-3.5zm51 7 1.5.5-2.5 1.5zm-100 2v1zm43 0 1.5.5-1.5.5zm5 0v1zm37 2 5.5 3.5 1 4-3-2q2.3-1.2-.5-2.5zm-102 2q6.3-2.2 4.5 3.5l2 5.5 6.5 1 1.5-.5q-1 2.5-5.5 1.5l-4.5-3.5-1-6.5q-3.8-1-5 1.5l-.5 4.5-.5-4.5zm123 0-.5 1.5-.5 1.5-.5-1.5zm3 0 2.5 2.5 1 6.5h6.5l1-1-2 3q-5.6.1-7.5-3.5l-1-4 1-1zm-208 2 .5 1.5h-1zm4 3v1zm180.5 0q3-1 2 2-3 1-2-2Zm18.5 0 .5 2.5-2 1zm-21 1v1zm-174 2 1 2zm7 0 1.5.5-1.5.5zm54 0 .5 1.5h-1zm2 0 3.5 2.5-1.5.5zm7 0 1.5.5-2.5 1.5zm20 0 .5 8.5h-1l-1-2zm95 0 1 2zm-183 3 1.5 3 4 1.5-1.5.5-3.5-1zm60 0 .5 2.5h-1zm122 0 .5 1.5h-1zm4 4v1zm-2 2 1.5.5-1.5.5zm7 0 1 2zm-130 3 .5 6.5-1 2v2l1 2-1.5 2.5-.5-8.5zm28 0 .5 13.5h-1zm104 1 .5 6.5h-1zm-115 2v1zm133 0 .5 14.5h-1zm-172 6 8.5.5-6 .5q1.3 4.1-2 3zm7 3-.5 1.5q-.7 4.3 2 5l-1.5.5q-2.5-1-1.5-5.5zm146 3 .5 4.5h-1zM84 168l6 .5-6 1.5zm15 0q4.1-1.3 3 2l-2 .5v7.5q2.7-1.1 2 1.5-1.7 3.3-8.5 1.5-2.7-1.2-1.5-6.5h1v3.5h6zm129.5 0 2.5.5-2.5.5zm-140 2 1.5.5-1.5.5zm4 0v1zm-30 1q3.8-1.2 2.5 2.5l1 3.5 3 1.5-1.5-.5q-4.2 1.3-2.5-3.5zm162 0 .5 8.5-1.5 1.5H216l-1-4 9 1zm-153 1v1zm145 1 .5 1.5h-1zm-146 6 1 2zm42 1 1 1 8.5.5-8.5.5zm-39 2h2q2.6-.7 1.5 2h2v2h2v3.5l.5 1.5H72v-6.5h1l.5 1.5 1.5-1.5zm1.5 3v4l4 1-1-1q2-6-3-4Zm6.5-3v1zm21.5 0 4.5 1 2.5-1 .5 2 1.5-.5v7.5h-9zm2 2v4l2-1 1 1-2 1 5 1v-4q-3 1-2-2zm100.5-2 1 2 .5-2 5 .5-5 1.5-.5 3zm8 0 .5 1.5h-1zm0 4v1zm-3 4 2.5.5-2.5.5zm89 2 7.5 1.5-1 1v6.5l-6.5 1q-3.2-1.7-1.5-8.5zm1.5 3-1 3v1h5l-4-1zm3 0v1zm-131.5 29v1zm-1 2 .5 2.5h-1zm-26 2 .5 4q-3 1.3-2-2.5zm19 3 3.5.5-3.5.5zm5 0 3.5.5-3.5.5zm-16 1q2.3-.7 1.5 1.5l2 8.5q-4.1 1.7-3-2.5l1-2zm9 2 .5 3.5-2-1zm0 5 .5 1.5h-1zm32 27 .5 3.5h-1zm0 16 .5 1.5h-1zm-82 48v1zm-82 4v1zm1 2v1zm2.5 0 6 .5v9.5h-9q-1.1-5.5 1.5-8l1 2zm5 2-1 2h1zm-4 2-1 3 1 1 3-1q2-4-3-3Zm-2 2v1zm0 2v1zm100.5 2v1zm71 10v1zm-119 35v1zm-1 4v1zm144 9v1zm-152 35 5.5.5-5.5.5zm10 0 2.5.5-2.5.5zm138 0 2.5.5-2.5.5zm-163 1 .5 2.5h-1zm52 51h18l.5 1.5-1 3q.5 4.5-.5 4.5H114l1-6.5zm2.5 3v1h1zm14 0v1h1zm-13 3v1zm13 0v1zm55-6h18.5l.5 3.5v2q1.5 4.4-1.5 3.5l-3 1-1-1h-10q-2.2.8-1.5-1.5l-2-4zm2 3v1h1zm14 0 1 3 1-2zm-13 3v1zm13 0v1z" opacity=".996"/><path fill="#b9bbc0" stroke="#b9bbc0" d="m307.5 0 .5 1.5h-1zm0 8 .5 1.5h-1zm-21 2v1zm-123 21v1zm72 63v1zm0 2 .5 1.5h-1zm92 44v1zm-307 10 .5 10.5h-1zm42 10 8.5.5-8.5.5zm-32 1 .5 11.5h-1zm205 10 .5 9.5-1.5 1.5h-9v-1h9.5zm-205 6 .5 2.5h-1zm11 4 8.5.5-8.5.5zm10 0h9l1.5 1.5-.5 4.5-.5-5h-9.5zm184 11 .5 9.5h-1zm-174 10 .5 14.5h-1zm247 10 9.5.5-9.5.5zm-31 10 30.5.5-30.5.5zm-134 87 .5 1.5h-1zm30 1 .5 1.5h-1zm-143 5v1zm10 0v1zm-20 13 .5 1.5h-1zm51.5 8q2.4 1.8 8.5 1l1.5-.5v9.5H72zm8 4-1 2h1zm-3 3v1h1zm158.5-6H246v9h-7.5l-.5-1.5h-1l-.5 1.5zm3.5 3q-2 3 1 4h2l-3-2zM20.5 399l.5 4.5h-1zm287 9v1zm-287 8 .5 12.5h-1zm0 15 .5 8h8.5l1.5 1.5-.5 3.5-.5-4h-8.5l-1.5-1.5zm123 8 30.5.5-30.5.5zm154 0 9.5.5-9.5.5zm-256 21 19.5.5-19.5.5zm225 0 20.5.5-20.5.5zm-134 11 .5 19.5h-1z" opacity=".996"/><path fill="#a46e46" stroke="#a46e46" d="m113.5 203 1.5.5-1.5.5zm8 0v1zm81 0 .5 1.5h-1zm-89 2v1zm82 0 .5 1.5h-1zm-77 1v1zm81 0 .5 1.5h-1zm-84 5 4.5.5-4.5.5zm6 0v1zm75 0v1zm3 0 2.5.5-2.5.5zm-76 2 .5 5.5h-1zm8 0v1zm54 0 1.5.5-1.5.5zm5 0 3.5 1.5-.5 2.5-.5-3q-3.3.8-2.5-1Zm-2 3 1.5 2.5h-1zm-61 1v1zm60 2v1zm-91 3 2.5.5-2.5.5zm89 0 .5 5.5h-1zm2.5 0 2 .5v8h-1q.8-6.1-1-8.5Zm-62.5 1 .5 1.5h-1zm-2 1v1zm4 0 .5 12.5 2 9.5 5.5 2 3.5-.5.5 5.5 3-5-.5 1.5-2 7 1 2-1 1v27l1 3-1 3 1 1v8h-1v-6l-2-.5v-2.5l1-1v-32h-1l-.5 2.5-.5-2h-5v-4.5h2q-1.5-4.4 1.5-3.5v-1l-3-1-2 1-2.5-1v-2h-5l-2 8q3.7-1.2 2 4l-4 1.5q-1.2 4.7 1 6l-1 1v9.5q3.5 1.1 2-6.5h1v7.5l-3 .5v8.5l6 2.5-7.5.5-.5-2.5 1-8-1-1v-15l1-1v-11l3.5-5.5q5.4.6 5.5-.5z" opacity=".996"/><path fill="#a46e46" stroke="#a46e46" d="m131.5 224 .5 8.5h-1zm62 0 .5 3.5h-1zm-70 3 1 4 1.5-.5q1.5 5.3-3 3.5zm70 3 .5 3.5h-1zm-7 1 .5 3.5h-1zm-63 4 1.5 6.5-2 1 1-2q-2.4-1.3-.5-5.5Zm8 0 .5 1.5h-1zm53 2v1zm-52 2 .5 2.5h-1zm52 0 1.5 2.5-1 2.5-3.5 2-.5-2-6 1-.5 6-.5-6.5 1.5-1.5h8.5zm8 1q3-.8 1.5 3h8.5l.5 2-4.5-1-2 1-3.5-1zm-76 3 5.5.5-4.5 1.5zm17 0 8.5.5-3.5 1.5h-2q-3.8.5-3-2Zm-20 1 .5 20.5h-1zm2 1v1zm25 1v1zm60 0-1 2-2.5.5 3 1.5-.5 10-1-5-.5 3-4 .5 2 1-8 1 3 1-3.5 1.5-.5-3-6-1q-1.2-3.7 4-2v-2.5h1l.5 2.5 2.5-6q6 2 4-4h6.5zm2 0 .5 2.5h-1z" opacity=".996"/><path fill="#a46e46" stroke="#a46e46" d="M178 247h8v2.5l-1 3.5h-7v15.5h1l.5-5.5 1 6 1-3 .5 18.5h-1l-.5-4.5-.5 5.5q1.5 3 3 0l.5-1.5.5 3-2 .5 2.5.5 2-1 2 1 3-1 5 1 3-4 1 6 1.5-3.5-1-2.5q4 1.4 2-5.5l-1-1v-14l-1-1 1-4-1-3 1-4-.5-1.5 2.5.5v21q-2.2 1.3-1 6l1 1v8l-1 4.5-10 .5 7.5 1.5 2.5-1-.5 2h-8l-1.5 1.5v12l1 2-1 5.5h-8v-3l3-.5v-9l-1.5-1.5h-8l-2 1-.5-2.5 1-4-3-2 1.5-3.5 1.5.5-.5-9.5-1 3-.5-6q3.3 1.1 2-3-3.3 1.1-2-3h2v-6q-3 1-2-2l2-.5V255q-2.7 1.1-2-1.5l-.5-1.5 3 1zm1 32-1 7h1zm12 13 1 3 1-2zm3 1v1zm-16 4v1zm2 0-1 3h5v-2h-1zm9 0-2 2q-1 3 2 2zm2 0-2 7q2 1 1 6h1zm-1 14v1h1zm7.5-51 1 2zm-74 1 .5 1.5q-2.7 1.3-2.5 5.5l-.5-3.5zm8 1v1zm1.5 0 3 1.5-1.5 2.5z" opacity=".996"/><path fill="#a46e46" stroke="#a46e46" d="m184.5 262 1.5.5-1.5.5zm9 0 1.5.5-1.5.5zm-12 1v1zm-47 5 .5 2.5h-1zm-21 1 .5 1.5h-1zm24 0 .5 8.5h-1zm58 1 .5 6.5h-1zm-82 2 .5 2.5h-1zm21 0 .5 2.5h-1zm0 5 .5 2.5h-1zm61 1 .5 3.5h-1zm-61 3 .5 1.5h-1zm-13 1v1zm11 3 1.5.5-1.5.5zm58 0 3 1 2-1v1l-2 1-3-1zm-60 1v1zm-17 1 1.5 2.5-1 3.5 5 .5-6 .5 1-5.5zm20 1 1.5.5-1.5.5zm3 0 1.5 2.5-2 1 1-2zm-10 3v1zm-4 2v1zm3 1 .5 1.5-1 1v11l-1 1v2l-.5 4.5-.5-6.5 1-2-1-3v-2q-.5-5.5 2.5-7.5Zm5.5 0h4v1.5l2 5-6 .5zm-3.5 4 1 5 1-2 .5 1.5-3 2zm11 2v1zm43 2-1 2-2 1h-2q-2.6.7-1.5-2zm-48 1-2 3zm4 0v1zm49 2 .5 1.5-1.5 3.5-.5-2.5zm-55 5 .5 1.5h-1zm-3 1v1zm-2 2 1.5.5-2.5 1.5zm7.5 3h7.5l.5 1.5-1.5-.5q-4.8-1.2-6 1zm41 0h6v2l-2.5-1-3.5 1z" opacity=".996"/><path fill="#a46e46" stroke="#a46e46" d="m182.5 316 .5 2.5-1.5 3.5-1.5-.5-.5 10.5-2-10-.5 3h-2v-6l4.5 1 2.5-1zm-4.5 4v1zm-1 1v1zm-14.5-4v1zm-2 1-1 2-2.5-.5zm-26.5 1 5 1 .5 2 1-3 .5 4.5h-2l-1 6.5h9.5l2 1 1-1h8l3.5 1.5-17.5.5q-1.3-2.2-6-1l-1.5.5V330q-3.7 1.5-3-1.5zm1 2v6h2v-6z" opacity=".996"/><path fill="#a46e46" stroke="#a46e46" d="m182.5 324-.5 1.5 1 4h-1l-1-4zm-42 1v1zm-26 1h7.5v10.5l1 1v8h-1l-.5-1.5-.5 2-3-.5.5-2.5q4.4 1.5 3.5-1.5l-2.5-4.5-.5 2.5 1 2.5q-3.3 1.3-2-3.5l-2-10.5q-3.3-1.1-2 3 3.3-1.1 2 3-3.5-1.1-2 6.5l2 4-2.5 1.5-.5-18.5zm2.5 1 1 2q2-1 1 2h1q2-6-3-4Zm3 6v1zm22.5-7v1zm12 0-.5 1.5q.8 2.3-1.5 1.5zm8 0v1zm34 0q7-1.5 6.5 1.5l1 2v2l-.5 2.5-2.5-6-5-1-.5 7-.5-6.5zm5.5 1v1zm-57.5 0v1zm30 0v1zm-27 1 2.5.5-2.5.5z" opacity=".996"/><path fill="#a46e46" stroke="#a46e46" d="m197.5 328 .5 2.5h-1zm-28 2q6-1.5 7.5 1.5l-8.5.5zm30 0 .5 6.5h-1zm-2 2v1zm-60 1 .5 1.5h-1zm20 0q5.3 2.8 13.5 2.5l-7.5.5-4-1-1 1H149q-1.3-3.7 4.5-2h2zm13 0 3 2q.8-2.7 5-2l-1 2-4 1zm11 0v1zm-46 1v1zm4 0 3.5.5-3.5.5zm5 1v1zm59 0v1zm-8 1v1zm2 0v1zm3.5 1q3.8-1.5 3 1.5l-1 2.5q-3.7 1.2-2-4Zm-85.5 1 .5 1.5h-1zm83 1 .5 2.5h-1zm-3 1v1zm0 2v1zm8 1 .5 1.5q-.7 2.3-4.5 1.5v-1q4.5 1.3 4-2Zm-8 1 1 2q-2.8.7-1-2Zm-71 3 3.5.5-3.5.5zm6 0 2.5 1.5-2 7.5-3.5-1-2 1q-2.2-.7-1.5-4.5l3 1q-1.1-3.3 1.5-2.5l1.5.5 1-2zm.5 5v1zm53-5 2 .5v7.5h2.5v1q-5.8 2.1-4.5-2.5zm6.5 0 2.5.5-2.5.5zm-3 1v1z" opacity=".996"/><path fill="#a46e46" stroke="#a46e46" d="M188 351q3-1 2 2-3 1-2-2Zm-55.5 4v1zm-29.5 2 5 .5-4.5 1.5zm6.5 0 2.5.5-5 6V403l3 .5-4 .5q-1.7 4.5 3.5 3l2-1 1 2-2-1q-1.5 2.5-7 1v-1q2.6.8 1.5-2.5l1-2.5-2-.5.5-1.5-1.5-.5 2-.5q1.3-5.1-2-6.5V384q3-1.2 2 2.5h1l-.5-9.5-.5 5-2-.5v-8h1l.5 1.5q2.5-5.7 1.5-14 3.8 1.5 3-1.5zm24.5 0 11 .5q-7.2-.5-10 2.5l1 2.5-2 .5zm38.5 0h10l.5 3q-2.9-2.9-10.5-2zm33 0h8l.5.5V408l-7.5-1-1.5.5q-.6-2.7 5.5-1.5l-.5-1.5v-32l-2-4 1-4-1-3.5 2-.5-3-.5-.5 2-2.5-3.5zm4.5 1 1 3 1 9 1-3-1-5q1-5-2-4Zm3 14-2 3 1 3h1zm-1 6-1 24v2h2v-16l-1-1 1-3zm1 27-1 2h1zm-55.5-47 3.5.5-3.5.5zm11 0 3 4h5l3.5-2v3h-7.5v1q6.3-.8 9 2l1-3 .5 4-11.5-1-2.5 1q1.8-5.2-5.5-3l-1-2 6.5-1.5-3-1z" opacity=".996"/><path fill="#a46e46" stroke="#a46e46" d="m144.5 360 7.5 1q1.1 3.3-3 2v3h-8v-3q-5.2 1.7-4-2h6.5zm37 1v1zm-78.5 2h2v6h-2zm103.5 0v1zm-95 1 .5 1.5h-1z" opacity=".996"/><path fill="#a46e46" stroke="#a46e46" d="m150.5 365 11.5.5-6.5 1.5-5-1zm55 0 .5 3q-2.1 1.6-7.5 1l-1.5 1.5q1.1 3.3-1.5 2.5l.5-1.5.5-4.5q1.3 2.3 6 1l2.5-1zm-71 1v1zm32 0 1.5.5-1.5.5zm-54 1v1zm2 1h7.5v3l-3 1.5-.5 1.5-4.5-2.5 4-.5q1.1-2.7-1.5-2-1.8 2.5-2-1Zm5.5 2v1z" opacity=".996"/><path fill="#a46e46" stroke="#a46e46" d="m199.5 371 1.5.5-1.5.5zm-78 1 .5 1.5h-1zm75 2 .5 3-2-.5zm-75.5 1q3.3-1.1 2 3h4.5l4-1 1.5 3.5-1 3 .5 3.5q-2.2.8-1.5-1.5l.5-1.5q-2.2.8-1.5-1.5h-1l-.5 3.5-1.5-3q-2.7 1.1-2-1.5l4-2q-6.3.8-8-3zm9 5v1zm58.5-3q3.3-1.1 2.5 1.5l-4 1.5z" opacity=".996"/><path fill="#a46e46" stroke="#a46e46" d="M184 378q3-1.2 2 2.5v2q1.3 5.3-1.5 6.5l-10.5-.5 11-1v-4zm4.5 3 .5 4.5h-1zm-56 7q5.4-1.9 4.5 1.5h1l.5-1.5.5 2 2 .5-4.5.5-4-2zm21 0 1.5.5-1.5.5zm3.5 0 8 .5-7 1 4 1-5.5.5.5-1.5zm11.5 0v1zm-18 2 4.5.5-4.5.5zm13 0 5.5.5-5.5.5zm11 0v1zm5 15 4 1 2.5 2.5-1.5-.5-9-1-1.5.5q-.9-3.4 4.5-1.5zm-44 1q6.8-1.8 8.5 1.5l1 6-.5 1.5 3-2 2.5 1.5-2 1q2.3 2.4 7 1.5 1.1 2.7-1.5 2h-2q-6.5 1-8.5-2.5V408h-8.5zm11.5 9-1 2h1zm-14.5-8 .5 1.5-1 1q1.7 8.2-1 12l1 3.5q-4 1.4-2-5.5l1-1v-9zm71 0 .5 1.5-2 1zm-31.5 2 2 .5v8l-1.5 1.5h-10l-5.5-.5 3-.5.5-2h9l2.5-1.5-1-3zm12 1q3-1.2 2 2.5l-1 3 2 6-1.5 6.5-.5-5.5v-2l-1-3zm19.5 2 .5 9.5h-1z" opacity=".996"/><path fill="#a46e46" stroke="#a46e46" d="m169.5 413 .5 2-2-.5zm-41 6 .5 9.5h-1zm60 1 .5 8.5h-1zm-75 5 1.5.5-1.5.5zm90 0v1zm-90 3v1zm18 0v1zm71 1 .5 1.5h-1zm-17 2 .5 21.5h-1zm-57 2 .5 34.5-1.5-.5-8 1-2-1-2.5 1-.5-3-1 4-.5-30.5h1q-.7 2.6 2 1.5v2.5l-2 3v17l2 3.5h12zm-15 1v1zm87.5 0q3.5-1.1 2 6.5l1 2q-2.5 1.5-1 7 2.5 1.5 1 7l-1 2 .5 1.5q-2.6-.8-1.5 2.5h2q2 6.9-2 5.5l-.5-2-1 2-1-1-12.5-.5 1.5-3.5.5 3h12v-5.5l2-6-2-11 1-3-1-2zm-109.5 2 .5 1.5h-1zm97 1 .5 7.5h-1zM93 450h7.5l1.5 1.5V469h-9zm1 1 2 4 2-1v-1q-3 1-2-2zm6 0v5h1zm1 6-1 2h1zm-5 1-1 2h1zm0 5-1 3h1zm120.5-13 7.5.5-2 1 .5 1.5-2.5.5 1 3 .5 3.5.5-6q3.5-1.1 2 6.5l-1 5.5-2 .5 3 2-1.5-.5-7.5 1 1-3.5-1-3 1-3q-2.8-1.8-1-8zm.5 1 1 4-1 2q-1 3 2 4l1-8zm0 3-1 2h1zm1 11v1h1z" opacity=".996"/><path fill="#a46e46" stroke="#a46e46" d="m115.5 451 .5 1.5h-1zm70 4 .5 13.5h-1zm-54 2 .5 4.5h-1zm-1 9v1z" opacity=".996"/><path fill="#a56f43" stroke="#a56f43" d="M204.5 61v1zm-89 142q5.3-1.2 6.5 1.5v6.5h-8v-6.5zm2.5 2 1 3h-2q-1 3 2 2l1-3zm-1 1-1 2h1zm78-3h6.5l.5 1.5q2.5 1.5 1 7l-1.5-.5H195v-3.5l1-2zm5 2-3 4h2q1 2 2 0 1-5-1-4Zm-76 8q6.1-1.7 8 1.5l-1 1v19l1 7h-1l-2-10v-15l-2.5-.5-1.5 2.5 1 4-1.5 6.5zm63.5 0 5.5 1-.5 17-.5-15q-3.8-1-5 1.5l1 6v2l-2.5 7.5-.5-4.5q2.3-1.2 1-6l-1-1V214zM124 234h2v5h-2zm61.5 0 1.5 2.5-2 1zm7 2 .5 2.5h-1zm-7 3v1zm-62 1v1zm1 2-1 2zm-10.5 2q4.5-1.5 3 3h3.5l-.5 1.5-2 4-.5 11.5-1-9-.5 32.5 1.5 2.5-1.5.5 7.5 1.5 1.5 1.5 1.5 4.5.5-7-3-1.5 10.5-.5 1-1 2.5 3.5 2.5 10.5 1-8 .5 10-4.5-1-3 1q-1.7-2.7-3.5 1.5l1 4-1 2 1 3.5-5-.5.5-1.5-3 2-.5-4.5 1-3v-11l-2.5-3.5-3 1-5.5-1 1-4.5-1-1zm2 1v1zm1 2-1 5h1zm20 44v1zm-6 3v7h-2v2l-1-5-1 7 2-1 1 4 1-6h7l-3-6v-2zm8 6v1zm-10 11v1z"/><path fill="#a56f43" stroke="#a56f43" d="m119.5 244 2.5.5-2.5.5zm14 0v1zm4 0v1zm3 0q3.4-.9 1.5 4.5l-1.5 3.5-1.5-2.5 1-2-1-2zm.5 2v1zm37.5-2 2.5.5-5 3-.5 3.5-.5-6zm5 0v1zm15 0 4.5 1.5-1 3.5 2 .5-3 .5q1-3.8-1.5-5zm-63 3v1zm2 0v1z"/><path fill="#a56f43" stroke="#a56f43" d="M197.5 248q3.8-1 2.5 2zm4 3 .5 3.5h-1zm-60 2 .5 4.5h-1zm33.5 2h2v6q-2.7 1.1-2-1.5zm23.5 0 1.5 5.5v23h-1v-22l-1.5-1.5-3.5-1.5 4-.5zm3 3 .5 3.5h-1zm-61 1 1.5 6.5-1.5 2.5-.5-3.5 1-2zm2 0 .5 1.5h-1zm-15 1 4.5 1.5-1.5 1.5H124q-1.2-3 2.5-2z"/><path fill="#a56f43" stroke="#a56f43" d="M188.5 260q7.2-.7 9.5 3.5v9l-2 .5q1.1-7.6-1-11l-6.5-1zm-66 1-.5 1.5-1 2V278l-2-.5q2.3-1.2 1-6l-1-2 1-2v-2q-.5-4 2.5-4.5Zm61 0 3.5.5-4 .5-.5 24-.5-19.5-1-2zm18 2 1.5 21-2-.5zm-66 1 .5 3.5h-1zm39.5 2h2v6h-2zm-39.5 3 .5 5.5h-1zm4.5 0q3-1 2 2-3 1-2-2Zm1.5 3 .5 2.5h-1zm55 2 1.5 1.5v8l-1.5 2.5q-2.7-1.3-.5-2.5zm-20 1 .5 2.5h-1zm-36 2 .5 1.5h-1zm-5 1v1zm-16.5 1 3 1.5-1 3 1 2-2-1zm59.5 0 .5 6.5h-1zm-44 1 2.5.5-1 4-2.5 2.5-2 1 1-2q2.6.8 1.5-2.5l1-2zm6 0 .5 6.5h-1zm36 1 .5 9.5-2-1q-.7-5.7 1.5-8.5Zm-53 5q7.6-1.5 6.5 2l-6.5-1zm61 0 8.5.5-5.5 1.5-3-1zm10 0v1zm7 0v1zm-61 4 .5 2.5h-1zm58 1h2l2.5.5-6.5 1.5v-1zm-23 3q2.8 1.3.5 2.5l1 4-.5 1.5 3-1 3 1q4-.5 4.5 2.5l-1.5.5q-3.9-2.9-10.5-2zm6.5 8v1z"/><path fill="#a56f43" stroke="#a56f43" d="m179.5 297 3 1 1.5-.5v2.5h-5zm9 0 .5 4q-3 1.3-2-2.5zm1 6v1zm-4 3 2.5 3.5-.5 2.5q-3.3 1.1-2.5-1.5l1-3zm-50 11q5.3-1.2 6.5 1.5v8l1.5 1.5 7-1 2.5.5-2.5 1.5-3-1-5 1-2.5-2.5 1-1-1.5-2.5 1.5.5-.5-4.5-1 3-.5-3-5-.5zm20 0 1 2q-2.8.7-1-2Zm6 0 .5 1.5h-1zm17 0 2 1 1.5-.5 1 6h-1V319h-6.5v-1zm-43 5 .5 4.5-2 1zm19.5 1q3-1 2 2-3 1-2-2Zm5.5 0q2.6-.8 1.5 2.5h-1zm22 2 .5 2.5-1 2 1 5.5-5-.5 3-2 .5 1.5.5-2.5-1-3zm-66 2q5.3-1.7 3.5 3.5h-1q1.1-4.2-3-2.5 1.3 4.1-2 3-1.5-3.7 1.5-3zm38 0v1zm8 0 2.5.5-2.5.5zm3.5 0 3.5 1 4.5-1q1.3 3.3-3.5 2l-2 1-2.5-1zm30 0q3.7-1.5 3 1.5h-2l1 3v2l-1 3v2q-1.3 4.8 2 3.5l.5-5 1 5 2.5-1v4h-6.5l-1.5-1.5v-4l1-4zm4 15v1z"/><path fill="#a56f43" stroke="#a56f43" d="m201.5 327-.5 1.5 2 8.5q-3.5 1.1-2-6.5l-1-2zm-67.5 3 3 .5v2l-.5 2.5-2.5-.5zm9 3 6 1.5-6 .5zm30 0 2 .5-2 1zm-59 1q3.3-1.3 2 3.5l-1 2 1.5 2.5 1-4 .5 3.5q-2.5 1.5 1 3l-1.5 1.5-3.5-.5 2-1q-3.2-3.5-2-10.5Zm24.5 0v1zm16 0v1zm9 0 8.5.5-8.5.5zm-42 7 .5 2-2-.5zm0 3v1zm7 3 2.5 1.5-4 .5q1.5 3.7-1.5 3l-1.5-4zm58 0 6.5 1v8h-3.5l-3.5-1q-1.1-2.7 1.5-2l2 1 1.5-3.5-3.5-2.5-1 2q-3-1.5 0-3Zm-55 7 .5 1.5h-1zm-7 1v1zm3 0v1zm-19 2 3.5 1.5-.5 5.5-1.5-3.5 1-2-2.5 1.5-1-1-2.5 1.5q1 3.8-2 2.5-1-3.8 1.5-5zm29.5 1h18.5l4 1q1.5-2.5 7-1v1l-1.5.5 3 1-7 1.5v2h6.5l.5 2-18.5-1-1.5.5V363q4.1 1.3 3-2-5-2.1-14-1zm31.5 0q5.5-1.5 7 1l2-1 4.5 2-1.5 6q-3.2-2.7-9.5-2.5 6.9.9 10-2l-3.5-2.5-5.5 1.5 4 1-5.5.5zm42 0 1.5 4.5v4l-1.5 3.5zm-76.5 2 2 .5-2 1zm-1 3 6 1v2h-6zm-23.5 2v1zm85 3v1zm-92.5 1q4-1.4 2 5.5h-1zm109.5 3 .5 5.5h-1zm-91 2v1zm65 4 .5 2.5h-1zm24.5 3q3-1.2 2 2.5l-1 3 1 1v16h-1l-1-10 1-4-1-1zm-79.5 3v1zm24 4q2.6-.7 1.5 2l-4-.5zm-12 1 5.5.5-5.5.5zm15 0 15.5.5-15.5.5zm16.5 0 8 .5-8 1.5zm-71.5 4 1.5 5.5h-1zm1 7v1zm-1.5 2h2v5h-2zm4.5 3 2.5 1.5-3.5.5zm105 0 .5 1.5h-1zm-99 3 1.5 2.5v13h-1l-1-2zm31 0v1zm58 2 .5 17.5-1 3 1 3.5q-4 1.4-2-5.5l1-1zm-58 4v1zm-14 2 .5 2.5h-1zm16 0v1zm7 0v1zm2 0 4.5.5-4.5.5zm31 2v1zm-57 5 1.5 2.5v40l-1.5 3.5zm-15 5 .5 11.5h-1zm70.5 0 2 .5-2 1zm1.5 4q2.8 1.3.5 2.5-1.6 12.1 1 20l-1 1V467q4.1-1.3 3 2l-4-.5zm15 5v1zm64 0 .5 1.5h-1zm-64 3 .5 2.5h-1zm-87 5q2.3.8 1.5 4.5l-1 4 1 1v8.5l-2-.5zm87 2 1.5 9.5-1 3 1 3h-1q-2.7-6-.5-15.5ZM94 451q3.3-1.3 2 3.5l-2-1zm5.5 0 1.5 4.5h-1zm117 0q4.2-1.1 2.5 3-2.7-1.1-2 1.5h2l-.5 5.5-2.5-6.5 1-2zm6 0q2.6-.8 1.5 2.5h-1zm-1 2 .5 6.5h-1l-1-4zm-121 4 .5 1.5h-1zm-5 1 .5 1.5h-1zm128 3v1zm-128 2 .5 2.5h-1zm128 0 .5 4.5q-1 2.5-5.5 1.5v-1l4.5-.5-2-1 2-.5zm-6 2v1zm-16 1 .5 2.5h-1z"/><path fill="#a36e45" stroke="#a36e45" d="m112.5 53 .5 2.5h-1zm92 2 .5 5.5h-1zm-92 2 .5 3.5h-1zm0 5v1zm41 11v1zm46 129q3.8-.7 4.5 1.5l-.5 8.5-.5-9q-4.4 1-3.5-1Zm-86 2v1zm87 1v1zm-87 1 1.5 5.5-2 .5zm84 2v1zm-77 3v1zm75 0v1zm2 0 1.5.5-1.5.5zm-4 2v1zm-62 2 .5 3.5h-1zm57 2 1.5 5q-4.1 1.2-1.5-5Zm5 0 .5 6.5h-1zm-70 2 .5 4.5h-1zm-24 3 1.5.5-1.5.5zm132 0v1zm-103 2 .5 12.5h-1zm60 0 2.5 19.5 2.5 2.5 6.5.5-7 .5v4q-5.2-2.1-4 2.5l-2.5 3.5-1-3-.5 3q-5.2-1.7-4 2l4 .5-5 2-1.5 7.5-.5-15.5-1-2h1l.5 1.5h6.5l1-6-5-.5q4.6.6 6-2l1-2zm-65 1 .5 1.5h-1zm2 0 .5 4.5-2 1zm68 3 .5 1.5h-1z"/><path fill="#a36e45" stroke="#a36e45" d="m184 233 2 .5-1.5 3.5zm-60.5 1v1zm8 0v1zm62 0 .5 5.5h-1zm-9 4 1.5.5-1.5.5zm-123 4v1zm68 0 .5 1.5h-1zm3 0v1zm-10 1v1zm20 1 .5 1.5h-1zm61 0 .5 4.5h-1zm-77 1 .5 2-3-.5zm4 0 8.5 1.5-6.5.5zm-13 1 1.5.5-1.5.5zm61 0v1zm-55.5 2h5q-1.1 2.7 1.5 2l2 1 2-1 2.5 1.5-2 .5-.5 4-1.5-.5v4.5h-9q1.3-5.3-2-4.5v-3zm3 6q-3 6 1 5 1-4-1-5Zm16.5-5 .5 9.5-1.5 2.5-.5-2.5 1-1zm32 4 1.5 5.5-2-1zm-36 6 .5 8.5-2 1q1.5-6.5-2-8l2-.5.5 2zm58 1v1zm-77 1v1zm12.5 0 2 .5-1.5 2.5zm43 0q3.3-1.1 2 3-3.3 1.1-2-3Zm8.5 1 .5 1.5h-1zm3 0v1zm2 0 4.5.5-4.5.5zm10 0v1zm-74 1v1zm70 0v1zm-81 2 .5 3.5h-1zm82 0 .5 3.5h-1zm-61 1 1.5 2.5-2-1zm7 0 .5 3-2-.5zm-20 2 .5 2.5h-1zm53 1 1.5 8.5-1 1-.5 14.5zm-61 2v1zm21 0v1zm5.5 0 2 .5-1.5 3.5zm63.5 1 .5 5.5h-1zm-7 1q2.3-.7 1.5 1.5zm-83 2 .5 11.5h-1zm20.5 0q3-1.2 2 2.5l-2-1zm61.5 2v1zm-58 1 1.5 13.5h-1l-2-4 1-1zm-2 1v1zm5 0v1zm-23 1 .5 4.5h-1zm78 2 .5 1.5h-1zm-74 1 2 2 8.5.5-8.5.5-1 1zm59 1 2 3 1.5.5-1.5.5q-3.6-1.1-2-4Zm18 0 .5 1.5-3.5 2.5v-1l2.5-1.5zm-14 1 5.5.5-5.5.5zm9 0v1zm-74 2v1zm6 0 7.5 1.5-5.5.5h-2l-4.5-.5zm78 0 .5 6.5h-1zm-90 1v1zm80 3 1.5.5-2 1 .5 1.5-2.5-.5q-.7-2.2 1.5-1.5zm-67 1v1zm74 0v1zm-59 1 1.5 2.5h-1zm-18 1v1zm16 1v1zm-16 1 .5 1.5h-1zm19 1 .5 6.5-1.5 1.5h-8v-1h8.5zm48 0 .5 12.5h-1zm3 1 .5 3.5h-1zm-7 3 1 2zm-63 1v1zm54 2v1zm2 0 5.5.5-5.5.5zm-56 2 .5 1.5h-1zm70 0 .5 1.5h-1zm0 4 .5 4.5h-1zm-4 1v1zm-47 5 .5 9.5h-1zm11.5 0 3.5 1 4-1-2 3H157v4q-2.7-1.1-2 1.5l1 2h-3l1-1zm2 1q-2 3 1 2zm25.5-1v1zm-20 3q3-.5 1.5 6.5l.5 1.5-2.5-.5 1-3.5q-3 1.3-2-2.5zm-26 2v1zm41 0v1z"/><path fill="#a36e45" stroke="#a36e45" d="m158.5 322 1.5 3.5v2l.5 2.5h8l-1 2h-5l-6.5-2.5q2.8-2.2 2.5-7.5Zm23 0 .5 2.5h-1zm-6 3q2.3-.7 1.5 1.5-1.5 3-3 0zm3 0 .5 7-3-1.5q2.8-1.2 2.5-5.5Z"/><path fill="#a36e45" stroke="#a36e45" d="m166.5 326 1.5.5-2 .5q1.3 3-2.5 2v-1zm2.5 0 4 .5-3.5 1.5zm34.5 0v1zm-52 1v1zm-13 1 1 2q-2.8.7-1-2Zm-22 2v1zm32 0 1.5.5-1.5.5zm55 0v1zm-65 1 5.5.5-5.5.5zm17 1v1zm-17 1 4.5.5-4.5.5zm34 0v1zm31 1v1zm-65 1 1.5.5-1.5.5zm5 0v1zm2 0 3.5.5-3.5.5zm14 0 3.5.5-3.5.5zm12 0v1zm3 0v1zm21 0v1zm8 1v1zm-84 2 .5 1.5h-1zm79 0v1zm5 1 .5 3.5h-1zm-82 6v1zm76 0 1.5.5-1.5.5zm6 0v1zm-80 2 .5 7.5h-1zm70 0 .5 8.5h-1zm-65 2 1 2zm60 1 1.5.5-1.5.5zm-56 2 .5 2.5h-1zm52 0v1zm3 0v1zm-42 5 26.5.5-26.5.5zm59 0v1zm-92 1v1zm64 0v1zm34 0v1zm-105 2 1.5.5-1.5.5zm32 0v1zm40 0v1zm32 0v1zm-4 1 .5 3.5h-1z"/><path fill="#a36e45" stroke="#a36e45" d="m108.5 362 .5 8 9 .5-4 1 4.5 2.5 1-2 .5 1.5-1 2 1 4.5 4.5 1 1.5-.5-1 2.5q2.7-1.1 2 1.5l2 1 .5-3.5.5 3.5-1 4 1 2.5 45 .5-2 1 3 .5.5-2h9q4.4-3.6 3.5-11h5v1.5l1 2.5h4.5l.5-2h2.5l2.5-3.5-1.5-3.5-.5 3q-2.7-1.1-2 1.5h-1l-2-9 1.5.5 5-2q1.3 2.3 2.5-.5l1.5-5.5.5 3.5-1 3 2 2V404h-7.5l-1.5 1.5-1 2v16l-1 1 1 1V466l-4-2.5v-8l1-1-.5-2.5-1.5-.5v-9l1-4-1-1V420h-4v6h-2l-1-6.5v-12l-2.5-3.5h-13l-1 1-1.5-2.5 1-2.5h13.5l.5-3h-13.5l-1-2H154v2h-6v-2q-2.7 1.1-2-1.5h-1l-1 3.5h-9.5l-.5-2h-2.5l-4.5-1 1-2.5-7-.5-1-5q-3.3 1.1-2-3h-6v-6h-2l-1 5.5 1 1v16l1 2.5h8v3.5l1 2q-2.5 1.5-1 7l1 5.5-3-.5v-12l-2.5-3.5-7.5-1v-39.5zm97.5 13-1 3h1zm-16 19v1h1z"/><path fill="#a36e45" stroke="#a36e45" d="m140.5 363 .5 3 14 .5-15 .5zm-5 3 2.5.5-2.5.5zm22 0 8.5.5-8.5.5zm11 0v1zm3 0 7.5.5-7.5.5zm-50 1v1zm74 2 .5 2.5h-1zm-74 2v1zm73.5 2 2 .5-1.5 2.5zm-69.5 4v1zm67 0 .5 2-2-.5zm-8 4 .5 2.5h-1zm-81.5 1q3-1 2 2-3 1-2-2Zm29.5 5v1zm52 0v1zm-47 1 .5 1.5h-1zm1.5 0h13.5l.5 2-9.5-1-4.5 1zm26.5 0 2.5.5-2.5.5zm4 0q4.5-1 5.5 1.5l-1.5-.5q-5 1-4-1Zm-25 2 3.5.5-3.5.5zm-40 4 .5 1.5-2 1zm-1 4v1zm0 2 .5 1.5h-1zm20.5 0h17.5q-.8 3.4 8 2l1.5 4h2l.5 3h7l4.5 1v-6.5l1.5-.5 3.5 2.5q1.8 7.8-2.5 9.5h-17l-3.5-2.5-1-8.5h-14.5l-1.5 1.5-1 2-1 21 1 4-1 1V466h-11v-28.5l1.5.5 1.5.5v14h1q-1.1-3.3 1.5-2.5l4.5-1v-7.5q-2.8-2.7-2-9l1-3-1-1-1-13.5 3-.5-3-.5zm-17.5 4v1zm28 2-1 2zm-24 1 1.5.5-1.5.5zm65 0 3.5.5-3.5.5zm31 0 2.5.5-2.5.5zm-33 1v1zm11 0 1 2q-2.8.7-1-2Zm19 1 .5 2.5h-1z"/><path fill="#a36e45" stroke="#a36e45" d="m132.5 410 .5 5.5h-1zm53 3 .5 2.5h-1zm-30.5 4 5 .5-5 1.5zm31.5 0v1zm-54 1v1zm20 0v1zm11 0v1zm-32 2 .5 1.5h-1zm54 1 2.5 2.5 1 11.5q3-1 2 2h3v7h-5v-6.5l-1-5.5-2-.5 1-3zm-72 1 1.5 2.5-2 .5zm90 0 .5 2.5h-1zm-72 3 .5 2.5h-1zm-18.5 1h3v9.5l-.5 4.5-.5-12q-3 1-2-2Zm90.5 0 .5 14.5h-1v-11l-2-2h2z"/><path fill="#a36e45" stroke="#a36e45" d="m113.5 429 .5 4.5h-1zm18 0 .5 27.5h-1zm-18 6 .5 2.5h-1zm2 8 .5 2.5h-1zm88 0 .5 6.5h-1zm-15 2 .5 13.5q3.3 1.4 2 6.5-2.7 1.1-2-1.5l-1-1zm1.5 16v1zm-74.5-11v1zm109 0 .5 18.5h-1q1.2-4.8-1-6l1-1zm-128 3 1.5.5-1.5.5zm19 0v1zm70 0 .5 1.5h-1zm35 0v1zm2 0v1zm-130 1 .5 14.5h-1zm111 3 .5 1.5h-1zm12 2 .5 2.5h-1zm-12 1 .5 1.5h-1zm-72 2 .5 5.5-2 1zm-16 1v1zm-1 2 2 4 .5-2 4.5 2 3-2 2 1q1.2-2.2 2.5.5l-.5 1.5h-15l.5-1.5zm101 0v1zm-25.5 2 10 .5-3 1 2 1-3 .5q1.3-3.7-4.5-2-1 3-6 2v-1q5.8 1.7 4.5-2Zm12.5 1q2.6-.7 1.5 2l-4-.5z"/><path fill="#644946" stroke="#644946" d="M307.5 12v1zm-154 9 .5 2.5h-1zm0 5v1zm154 1 .5 3.5h-1zm-154 2v1zm154 5 .5 7.5h-1zm0 22 .5 4.5h-1zm-113 3 .5 1.5h-1zm113 11 .5 15.5h-1zm-220 24v1zm3 0 1.5.5-1.5.5zm217 3 .5 4.5h-1zm0 7 .5 3.5h-1zm-215 2v1zm92 1 .5 11.5h-1zm-164 2 .5 4.5h-1zm0 8v1zm62 0v1zm-71 2 6.5.5-6.5.5zm8.5 0 5 .5-4 .5-.5 10zm7.5 0 2.5.5-2.5.5zm105 0 .5 11h-10v8.5l-1.5 1.5h-8v-1h8.5v-8.5l1.5-1.5h8.5zm11 2 .5 1.5h-1zm-133 2 .5 6.5h-1zm134 6 8.5.5-8.5.5zm-114 2 .5 7.5h-1zm-19 8 3.5.5-3.5.5zm6 0v1zm177 2 .5 4.5h-1zm72.5 0h20v9h-20zm-72.5 7v1zm10 2 .5 10.5h-1zm-162 10 7.5.5-7.5.5zm162 2 .5 5.5h-1zm103 3 .5 11.5h-1zm-31 1v1zm-164 1 .5 3.5h-1zm92 4 .5 2.5h-1zm0 6v1zm0 2 .5 1.5h-1zm-122 2 9.5.5-9.5.5zm194 1v1zm0 2v1zm0 2 .5 2.5h-1zm31 17v1zm-239 9v1zm188 0v1zm4 0 5.5.5-5.5.5zm-209 10 6.5.5-6.5.5zm168 0 3.5.5-3.5.5zm5 0v1zm32 0v1zm6 0 3.5.5-3.5.5zm-200 10v1zm3 0v1zm3 0 3.5.5-3.5.5zm74 1v1zm93 0 .5 1.5h-1zm10 1 .5 1.5q-1.6 3-7 1.5v7.5l-2.5 2.5-.5-2.5 2-2q-1.2-5.2 1.5-6.5 6.4 2 6-2Zm-10 2 .5 2.5h-1z" opacity=".996"/><path fill="#644946" stroke="#644946" d="m252.5 237 .5 1.5-1.5 1.5q-5.4-.6-7.5 1l-1.5 9-.5-9.5 1.5-1.5h8.5zm-78 3v1zm61 1v1zm-1 4 .5 2-3-.5zm-30 2 .5 4.5h-1zm-60 6 15.5.5-15.5.5zm19 0v1zm41 9 .5 6.5h-1zm-143 1v1zm5 4 2.5 1.5-.5 2.5-.5-3zm-1 2 .5 1.5h-1zm2 11v1zm4 0 .5 1.5h-1zm11 3v1zm1 12v1zm111 2v1zm0 6 .5 1.5h-1zm0 6 .5 7-6-.5 5-.5zm-64 6 2.5.5-2.5.5zm54 0 2.5.5-2.5.5zm-31 1 .5 1.5h-1zm82 4 .5 1.5h-1zm-82 2 .5 1.5h-1zm41 5v1zm-184 9v1zm113 0h9.5v9.5h-1V337h-8.5zm60.5 0 5 .5-4 .5-.5 9zm30.5 10v1zm-72 1 .5 1.5h-1zm-30 1 .5 3.5h-1zm-10 5 .5 3.5h-1zm72 2v1zm20 1v1zm-72 8 .5 2.5h-1zm4 3 3.5.5-3.5.5zm58 0 .5 9.5-1.5 1.5h-50q-2.7-1.2-1.5-6.5h1q-.6 5.4.5 5.5H184zm3 0 3.5.5-3.5.5zm5 0 1.5.5-1.5.5zm-60 1v1zm-50 20 .5 1.5h-1zm9 0v1zm134 0 .5 1.5h-1zm-134 2 .5 9.5h-1zm-9 6 .5 1.5h-1zm143 1 .5 10.5h-1zm10 1 .5 9.5h-1zm-144 4 .5 4.5h-1zm-9 5v1zm20 2 .5 8.5h-1zm35 9 5.5.5-5.5.5zm37 0 8.5.5-8.5.5zm-1 2v1zm-71 1 .5 7.5h-1zm64 7 2.5.5-2.5.5zm123 0 4.5.5-4.5.5zm6 0 1.5.5-1.5.5zm-265 1v1zm256 0 .5 1.5h-1zm0 6 .5 2.5h-1zm-225 13v1zm143 22 .5 1.5h-1zm0 11 .5 8.5h-1zm-20 18 .5 1.5h-1z" opacity=".996"/><path fill="#020223" stroke="#020223" d="M288 1h17.5l.5 1.5 1 5-1 2.5h-8.5l-1 1-1-1H288zm-11 10h8.5l.5 1.5 1 4-1 5 1 4v2l-1 12 1 3-1 1v14l1 3-1 1v9l1 2-1 1v28l1 2v2l-1 8 1 3q-2.3 1.3-1 6v2q-1 4.5 1.5 5.5h20l.5-.5v-118l.5-.5h8.5v118.5l1.5.5 3 1 13-1 2.5 1 1 3.5v21l-1 3.5-2.5 1H317v50.5l-.5.5H308v-20h-10.5l-1.5 1.5v8.5l-7.5 1-1.5-1.5V191l-4.5-1-5.5 1v-10h-8.5l-1.5-3.5v-16l-1.5-1.5h-8l-.5-.5V131h18.5l1.5-1.5zm-11 128-1 5 1 2-1 4 2 1h20l3 1 1-1h28l1-1 2 1 4-1 2 1v-10l-1-2-5 1-3-1zm10 21v11h9q2 1 1 5l1 5 1 1h20v-20l-1-2h-10v10h-10v-10zM160.5 21q4.6-1.4 2.5 4.5l1 3-1.5 1.5q-6.7 1.8-8.5-1.5-1.2-5.2 1.5-6.5zm-67 11H112v8h-9.5l-1.5 1.5v42l1.5 1.5h19l4 1 5-1 2 1q1.8-2.8 8-1h2l35 1 1-1h16l12 1 4-1 2 1 3.5-2.5v-41l-1-2.5h-8.5l-.5-1.5-1-3 1.5-3.5h17l1.5 1.5-1 1v32l1 3-1 1v22l-1.5 1.5h-9l-1-1-1 1h-48l-2-1-1 1h-19l-7-1q-1.2 2.3-6 1l-2-1-5 1H93V65.5l-1-3 1-2v-11l-1-3q2.3-1.2 1-6v-2l-1-5z" opacity=".996"/><path fill="#020223" stroke="#020223" d="M124 32h8v8h-7.5l-1.5-1.5zm20 0h9v13.5l-1 6.5h-8.5l-1.5 1.5V62h-8V42h10zm22.5 0h6.5v8.5l1.5 1.5q6.8-1.7 8.5 1.5V62h-8v-8.5l-1.5-1.5q-6.8 1.8-8.5-1.5v-17zm19 0q6.8-1.8 8.5 1.5l-1 6.5h-8v-5.5q-2.2-1.2.5-2.5ZM114 42h6.5l.5 1.5 1 1v8l-1 1V62h-7zm82.5 0h6.5v20h-7V44.5l-1-1zM124 65h8v6.5l-1.5 1.5H124zm61 0h8v8q-6.1 1.8-8-1.5zM83 95h8v21h-8zm144.5 0q6-1.5 7.5 1.5v17l-1 2.5h-8V96.5zM175 107q6.1-1.7 8 1.5v9.5h-8zM1 110h17.5l1.5 1.5v6.5h-6.5q-4-.5-4.5 2.5l1 5-1 2 1 1V139H1.5l-.5-2.5v-4l-1-4v-2l1-3-1-5 1-1zm9 7v1zm-1 1v1zm66.5-1 5.5 1v51.5l-.5.5H73v-9.5l-1-2 1-3-1-3 1-1v-20l-1-1v-10l1-2.5zm162 1q6-1.5 7.5 1.5v50l-.5.5H236v-36.5l1-2-1-1v-11zm-215 2q6-1.5 7.5 1.5v6.5h-7.5q-3 .5-1.5-6.5zm113 0h6.5v9.5l1.5 1.5h9l2-1 2 1 2-1 3 1 1.5.5v6.5l-2.5 1H124v-8h7.5l2.5-1v-8.5zm29.5 0q6.1-1.7 8 1.5v6.5h-9l1-4.5zm21.5 0h6.5v9.5q2.5 1.5 1 7l-1 2.5h-8v-17.5zM32 131h8v8h-8zm-21 10h7.5l.5 1.5 1 3-1 3.5-5.5 1-2.5-1zm32.5 0H50v8h-8v-6.5zm69.5 0 9 .5-1 1v6.5h-8zm83 0h8v8h-8zM22.5 151h10l1 1 6.5-1v7.5l-1.5 1.5h-16l-1.5-1.5q-1.5-6 1.5-7.5Zm29.5 0q6.2-.9 9 1 1.8 6.1-1.5 8H52zm52.5 0q6-1.5 7.5 1.5l-1 4 1 4-1 3 1 3-1 2v2l1 7-2.5 3.5q-5.2 1.3-6.5-1.5v-27zm73 0 5.5 1v27.5l-3.5.5-3 1-1.5-1.5V152zm28.5 0h7.5l.5.5V181h-6.5l-1.5-1.5zm-72 1h7.5l.5.5v28l-1.5-.5-4 1-2.5-1zm-89.5 9q4.5-1 5.5 1.5v7.5h-7.5l-1.5-3.5 1-4.5zm7.5 11h9v9h-9zm31 0h8v9h-8zm143 0h9v7.5q-1.5 3-7.5 1.5l-1.5-1.5zM63.5 182q6-1.5 7.5 1.5l-1 3 1 3q-1.5 3-7.5 1.5-3-1.5-1.5-7.5z" opacity=".996"/><path fill="#020223" stroke="#020223" d="M93 182h7.5l1.5 1.5v8l1.5 1.5 4-1 3 1 2.5-1v-8.5l1.5-1.5 2 1 3-1 2.5 1.5q-2.2 1.3-1 6l2.5 3.5h8.5v9.5l.5.5H185v-10h9.5l.5-2.5 1-3q-2.7-8.2 5.5-5.5l2.5 1v9h8.5l2 1 1.5-1.5V182h8v8.5l3.5 2.5q1.3-2.3 6-1l1.5 1.5v8.5h-20v9.5l-1 1v10l1 1v8l-1 1V244h9.5l1.5 1.5v8.5h21v10h-21v29.5q0 1-4.5.5h-2l-4.5 1v39.5l1 2.5h8.5l1.5 1.5V357h21v-19.5l1.5-.5 3-1 3 1q1.3-2.2 2.5.5l-.5 60.5-1-1H236v-7.5l1.5-1.5h8.5v-21h-21v10.5l3.5-.5 5 1 1.5-.5q.9 6.8-1 9.5h-8.5l-1.5 1.5v19l1.5 1.5 3 1 1-1 14-1 3 1h9l1.5-1.5-1-8 1.5-1.5h8.5v21h-39.5l-1.5-.5-1.5 20.5h-9l-.5.5V471h10v19h-8.5l-1.5 1.5v19l-2.5.5-1 1h-23l-2-1q-1.5 2.5-7 1l-4.5-1 1-12.5-1-5v-21q2.2-1.3 1-6l-1-1v-8q2.2-1.2 1-6l-1-4 1-1V439h-31.5l-.5 1.5-1 3q2.8 1.8 1 8l-1 3 1 1v35l-1 6 1 1v9l-1 2q2.3 1.2-.5 2.5-4.7 2.3-13 1l-3-1-1 1h-18l-3.5-1v-19.5l-1.5-1.5H92v-5.5l1-3-1-1v-8l1.5-1.5h8l1.5-1.5v-30q0-1-4.5-.5l-2-1-3.5 1-1-20H52.5l-1.5-1.5v-18l1.5-1.5H61v9.5q1.3 2.8 6.5 1.5h2l8-1q3.3 2.7 10 2l5.5-2.5v-19l-1.5-.5-1-1H83l-1-4.5 2.5-5.5 7.5 1v-8.5l1-1-1.5-1.5h-19q-3 1.5-1.5 7.5l1 3-1 3 1 4-1 2 1.5 1.5H81v8.5l-2.5.5-3 1-1-1H62v-60.5l.5-.5H71l1 8.5-1 4 1 5-1 3.5h21v-18.5l1.5-1.5h8.5l1-11q-2.4-1.7-8.5-1l-1.5.5-1-10.5H82v-9h19.5l1.5-1.5v-26l-1-3 1-1v-10l-1.5-1.5h-11l-2 1-6.5-2.5q2.5-1.5 1-7l-1.5-1.5H71v9.5l-1.5.5-5 1-1.5-1.5-1-7V244h20.5l.5-.5V234h18.5l1.5-1.5v-10l-1-1V202H82.5l-.5 2.5v2q1 4.5-1.5 5.5H73v-5.5q-2.5-1.5-1-7l1-3-1-3 1.5-1.5h8l4 1h2q4.5 1 5.5-1.5zm21 19-2 2v49l-1 1 1 2v41h9l1 2v16l-1 1h-9v15l-1 1 1 1v13q-3 2-10 1l-1 5 1 3-1 4v61l1 1-1 3q-1 4 1 6l1 1h8l1 2v70h18l1 1 2-1 1-1v-80l1-1h7v8l1 1 1 1h30l1-1v-9l5-1 3 1v81l2 1h11l1 1 8-1v-6l1-1v-65h9l1-1q1-5-1-6l1-3v-2l-1-3 1-2v-56l-1-1q3-2 1-7v-2l-7-2-3 1v-29l-1-2h-9v-19h8l1-1h1v-93l-2-1h-8l-1 1-2 1v8h-8l-2 2v19h-8v-8l-1-2h-30l-2 2 1 2-1 3v3h-8v-19l-1-2h-9v-8l-1-2zm5 302v1zm138-321h7.5l1.5 1.5q1.5 6-1.5 7.5H257z" opacity=".996"/><path fill="#020223" stroke="#020223" d="M248.5 192q5.3-1.2 6.5 1.5v23l1 3-1 2.5h-6.5l-1.5-1.5v-8l-1.5-1.5H236v-8h9.5l1.5-1.5-1-5zm33 10h4.5v8.5l1 2.5h18.5q1 0 .5 4.5v2l-.5 2.5H277v-18.5l3.5-.5zM62 213h10v9h-8.5l-.5-2.5zm-8.5 10q5.4-.6 7.5 1v16.5l-1 2.5h-8v-18.5zm213.5 0h9v7.5l-1.5 1.5h-8l.5-1.5zm-30.5 1h8.5v6.5l-1.5 1.5H237zm-90 9q5.3-1.2 6.5 1.5v9.5h10v9h-17.5l-1.5-1.5v-17l1.5-.5zm110.5 0h7.5l.5.5V264h-9v-11h-10v-7.5l1.5-1.5q6.8.9 9.5-1zm-91.5 1h7.5v8q-7.1 1.7-9-2.5-1-4.5 1.5-5.5Zm60.5 0h9v7.5l-1.5 1.5H226zM42.5 244H51v9.5l-1 1v9l1.5 1.5H61v18.5l1.5.5 3 1 3-1 2.5 1v10H61v20h-9.5l-.5.5v51l-.5.5h-8l-1.5-1.5V356H11v-19h8v8.5l1 2.5 20.5-1 1.5-1.5v-19l-1.5-1.5h-8l-.5-2.5-1-2 1-4.5h8.5l.5-1.5v-2q-1-5.5 2.5-6.5 6.8 1.7 8.5-1.5V284h-8.5l-2.5-3.5v-18l1-2-1-2 1-1v-10l-1-2zm32 20 6.5 1v7.5l-1.5 1.5q-6 1.5-7.5-1.5-1.5-7 2.5-8.5Zm49.5 1h8v18h-8zm61 0h8v18h-8zm81 0h10v30h-8.5l-1.5-1.5zM72 295h9v10h-9zm154 0h9v20h-9zm51.5 0 3 1 3-1 2.5 1v41.5l1 1-1 1V367h-8.5l-.5-.5zM144 296h28.5l.5.5v7.5h-27.5l-1.5-1.5zm-10 10h8v9h-8zm41 0h8v9h-8zM72 316h9v9.5l1.5.5h2q6-1.5 7.5 1.5l-1 7.5H72zm53.5 0 6.5 1v18h-8v-17.5zm18.5 0 4.5 1 3.5-1 1 6.5-1 2.5h-8zm21 0 8 1v8h-8l-1-2.5zm26.5 0 1.5 1.5V335l-4.5 1-3.5-1v-17.5q.1-1.1 5.5-.5zm44.5 0h10v19.5l-3.5-.5-2 1-4-1-2 1-3-1H226v-8l2.5-1 3 1 2-1q1.3 2.3 2.5-.5z" opacity=".996"/><path fill="#020223" stroke="#020223" d="m21 327 9 .5-1 3 1 3q-1.5 3-7.5 1.5l-1.5-1.5zm114.5 10h6.5v9h-8v-7.5zm41 0h6.5v8.5l-2.5.5H175v-7.5zm-31 10 2 1 4-1 1 1H173q1.8 6.1-1.5 8h-27l-.5-.5v-7zm-31.5 1h8v8h-8zm82.5 0q6-1.5 7.5 1.5 1.3 5.3-1.5 6.5H196v-4.5l-1-2zM124 358h8v8h-8zm61 0h8v8h-8zM32.5 368h8l.5.5V398h-9v-19.5l-1-3v-2q-1-4.5 1.5-5.5Zm101.5 0h48.5l.5.5v7.5l-16.5 1-2-1-1 1h-9l-5-1h-2l-9 1-4.5-1zm153 0h8.5l1.5 1.5-1 11 1 3-1 2q2.5 1.5 1 7v2l-1 9v2l-.5 2.5H287zM21 399h8.5l.5.5v37l-1 2.5q-6.1 1.8-8-1.5zm276 10h6.5l1 1 1.5-.5v29l-.5.5H298zM32 440l8 1v8h-7.5q-2.5-1-1.5-5.5zm37.5 0 14 1 2-1 4 1 1.5-.5v8l-.5.5h-27l-1.5-1.5V441h6.5zm158 0 5 1 1-1h26l2 1 3.5-1v9h-8.5l-2 1-1-1H226v-7.5zm62 0q5.8-.8 7.5 2.5l-1 3v2l-.5 1.5H288v-7.5zm-247 11H61v8H41v-6.5zm224.5 0h19v8h-16.5l-1 1-1.5-1.5z" opacity=".996"/><path fill="#74357d" stroke="#74357d" d="m154 64 9 .5-8 .5v7h7.5v1H154zm8.5 2v1z" opacity=".996"/><path fill="#74357d" stroke="#74357d" d="m157.5 67 1 2 1-2 .5 3q-4.7 1.5-2.5-3ZM88 202l2.5 1 1.5-.5-1 1v8l1.5 2.5q-4.2-1.9-2.5-9-3.8-1-5 1.5 1 6.5-2.5 8.5l-5.5 1q1.3-3.3-3.5-2v-1H82q-.7-3.1 2-2.5v-5h-2l1.5-2.5.5 2 4-1zm-5 11v1zm-4 1v1zm149.5-12v1zm5 0v1zm-8 3 .5 2.5h-1zm4 2 1.5.5-1.5.5zm-2 1 3.5 2.5-6 1.5.5-3 1 2zm7 3v1zM94 213l2.5 1 4-1 1 2-2-1-1 2-4.5-1zm7.5 3v1zm-29 1v1zm9 1h16l.5 1.5.5 1.5-14 1-4-2q-2.7 1.2-.5 2.5l1 5-1 2 1 2-1.5-.5-2 1-4.5-2.5 5-.5q-2-8.8 3.5-11Zm2.5 1v2l3-1zm4 0q-1 3 3 2 1-3-3-2Zm11.5-1v1zm2 1 .5 1.5-2 1zm-28 1 1 2q-2.8.7-1-2Zm-11 3v1zm7 1v1zm2 0v1zm-5 3 1.5.5-1.5.5zm-4.5 1 4 1.5q-.7 2.6 2 1.5l.5-2 2.5 1.5-3.5 1.5q-5.4 1.9-4.5-1.5zm-10.5 16v1zm9 0 .5 4.5h-1zm-9 2 .5 1.5h-1zm5 2 .5 2-2-.5zm2 2 2.5 1-.5 2-2.5-1zm-7 1 5.5 1.5-6 .5zm195 9v1zm5 0v1zm-5 2 .5 1.5h-1zm8 0 1.5.5q-2.1 2.4-7.5 1.5v-1q4.8 1.3 6-1Zm3 2 2.5.5-2.5.5zm4 0v1zm2 0 2.5.5-2.5.5zm-7 2 1.5 4.5-.5 1.5q3-.8 1.5 3-3.7-1.4-2 4.5h-1v-8l1-1z" opacity=".996"/><path fill="#74357d" stroke="#74357d" d="m260 268 2 .5v27l2.5 3.5 7.5-.5q-4.2.3-5.5-2.5l-1.5.5q1.3-2.7 2.5-.5l4.5-1 1 3.5-1 1-.5 27.5-1.5-1.5q1.3-8.9-1-12.5-2.8-1.9-9-1zm5.5 1 .5 1.5h-1zm-9 12 .5 2.5h-1zm0 6v1z" opacity=".996"/><path fill="#74357d" stroke="#74357d" d="m265.5 288 .5 2.5h-1zm-8 2 .5 2.5h-1zm8 3v1zm-9 1v1zm-186 1v1zm205 0v1zm-213 1 .5 3 2 .5v11h-2l-.5 4.5zm194 0v1zM66 299l2 .5V312l-2-.5zm190.5 1 .5 1.5h-1zm19 1 .5 6.5h-1zm-204 7 .5 1.5h-1zm204 2v1zm-209 3q3.8-1 2.5 2l-4-.5zm5 0 .5 1.5h-1zm185 1v1zm9 0v1zm-206 2 1.5.5-1.5.5zm208 0 .5 2.5-.5 1.5 1.5.5-2.5 1.5-.5-3.5zm-207 2v1zm-9 1 .5 1.5h-1zm224 0v1zM55 320q4.5-1.7 3 3.5l-1 1V363q-3.3-1.3-2 3.5h-1v-6l-2-.5v-2.5h1l.5 1.5 1.5-1.5 1-8-1-1v-11l-1-2 1-1zm0 39v1z" opacity=".996"/><path fill="#74357d" stroke="#74357d" d="m59 321 2 .5v16l-.5 22.5-1-20-1 12-.5-16.5 2-10zm214 0q4-1.4 2 5.5l1 4.5q-4.5 1.5-3-3l2-.5-2-.5zm-4.5 1 .5 11.5h-1zm-2 1 1.5 16.5h-1q-2.8-6.3-.5-16.5Zm-215 3 .5 3.5h-1z" opacity=".996"/><path fill="#74357d" stroke="#74357d" d="m270.5 330 1.5 3.5V370q2.7 1.9 9.5 1l1.5 1.5v38l1.5.5 8.5 1.5-3 1 3 1.5v9.5l1 1-2 1 2 1-6.5 1.5-3.5-1 .5 2 1.5-.5q.7 2.6-2 1.5v2.5l2 5.5-3.5-1-4 1-2.5-.5 1-3-.5-1.5 1 3 3.5-.5-2-1 1-1v-46l-3.5-4.5q-6.2.8-6.5-.5v-48l1-2zm21.5 95v1zm-4 1v1h2zm-4 8v1zM52.5 331l.5 2.5h-1zm221 2 1.5.5-1.5.5zm-221 2 .5 14.5h-1z" opacity=".996"/><path fill="#74357d" stroke="#74357d" d="m273.5 340 1.5.5-1.5.5zm-7 1 1.5 2.5-1 2 1 3-1 3h1l.5-1.5.5 8q-2.7-1.1-2 1.5l2 3-2.5 3.5.5-1.5-1-2zm9 8v1zm-217 6 .5 7.5h-1zm215 5 .5 1.5h-1zm2 0 .5 2.5-1 3 1.5 3.5 1.5.5-1.5.5q-4.5-1.4-3.5-7 3.1 1.1 2.5-3Zm-215 3v1zm-3 2 3.5 1.5-2.5.5zm211 1 .5 1.5v2q1.9 5.4-1.5 4.5l-1.5.5 1-5-.5-1.5q2.5.7 2-2Zm14 1 1.5.5-1.5.5zm3 0v1zm-244 1v1zm9 0v1zm236 1v1zm-236 1 .5 1.5h-1zm-9 2v1zm6 0-.5 1.5q1.3 6.8-1.5 9.5l-.5-3.5q2.3-1.2 1-6zm3 2v1zm0 2 .5 1.5h-1zm217 1v1zm1 4 .5 3q-2.7 1.1-2-1.5zm-218 1 .5 7.5h-1zm-9 3 .5 2.5h-1zm227 1q4.5-1 5.5 1.5l-1.5.5-4-1zm8 1v1zm10 1 .5 4.5h-1zM45 390l3 .5-1 1V435l2 .5q-2.2 1.3.5 2.5l1.5-.5q.8 2.6-2.5 1.5l-2-1-2 1h-2l-1.5-.5v-9l-.5-1.5 1.5-.5-3-1.5q1.4 4-5.5 2l-1.5.5-1-2v-19l2-5-.5-1.5 3-1v2h8l1.5-1.5zm-10 12-1 17-1-3h-1l1 9 1-3v4q5 1 6-1l-5-1zm-2 5-1 2h1zm0 5-1 2h1zm0 14v1zm10 3-1 3h1zm0 5-1 2h1zm234.5-44v1z" opacity=".996"/><path fill="#74357d" stroke="#74357d" d="m41.5 391 1.5 2.5-1.5 2.5zm9 1 .5 1.5h-1zm227 1 .5 3.5h-1zm-229 2 2.5 1.5-1.5.5zm-6 2v3l-2.5-.5zm-6 1v1zm14 0 .5 8.5h-1l-.5-4.5-1 2-.5-5zm227 0v1zm9 0 .5 3.5h-1zm-255 1v1zm245.5 5q3-1.2 2 2.5l-1.5 6.5-.5-5.5zm8.5 4 2.5 1.5-3 .5zm11 2 .5 5.5h-1zm-246 5v1zm-2 1v1zm229 2v1zm-227 1 .5 1.5h-1zm246 0 .5 1.5h-1zm-246 3 .5 4.5h-1zm246 3 .5 2.5h-1zm-19 1 .5 1.5h-1zm-227 2 .5 2.5h-1zm0 6 .5 1.5h-1z" opacity=".996"/><path fill="#2a1f2f" stroke="#2a1f2f" d="m287.5 0 2.5.5-2.5.5zm7 0v1zm3 10 8.5.5-8.5.5zm-205 21v1zm40 0v1zm52 0v1zm21 0 1.5.5-1.5.5zm-113 63v1zm2 0 6.5.5-6.5.5zm81 0 7.5.5-7.5.5zm41 0 5.5.5-5.5.5zm19 23v1zm0 2v1zm-41 5 .5 1.5h-1zm0 8v1zm0 6v1zm-82 5v1zm92 0v1zm-194 2 .5 4.5h-1zm102 1v1zm92 0v1zm-92 2 .5 1.5h-1zm92 0 .5 1.5h-1zm93 12 9.5.5-9.5.5zm-236 12 .5 6.5h-1zm0 8v1zm226 1 9.5.5-9.5.5zm20 0v1zm-103 2 .5 2.5h-1zm-92 1 .5 3.5h-1zm0 6 .5 1.5h-1zm92 0 .5 1.5h-1zm103 2v1zm0 3 .5 2.5h-1zm-195 7v1zm164 0 .5 3.5h-1zm-41 1 .5 8.5h-1zm52 9 9.5.5-9.5.5zm-29 1h2q6.1-1.2 5.5 1.5l-1.5-.5q-4.5-1-5.5 1.5l3 2-4.5 2.5.5-1.5-1-3 2-1zm7 5v1zm0 2 .5 2-3-.5zm-122 2 2.5.5-2.5.5zm4 0 1.5.5-1.5.5zm16 0 1.5.5-1.5.5zm6 0 2.5.5-2.5.5zm4 0v1zm102 0v1zm-214 1v1zm143 7v1zm-51 7 .5 5.5h-1zm-92 6v1zm12 10 7.5.5-7.5.5zm155 0 13.5.5-13.5.5zM92 264l2 .5-2 1zm-30.5 1 .5 18.5h-1zm36 1v1zm-5 3 .5 4.5h-1zm8 2v1zm-49 13v1zm153 10v1zm62 0v1zm-31 2 .5 14.5h-1zm41 0v1zm-41 17v1zm-161 2 3.5.5-3.5.5zm7 0 10.5.5-10.5.5zm115 0 3.5.5-3.5.5zm5 0 3.5 1.5-.5 2.5-.5-3q-3.3.8-2.5-1Zm24 0v1zm8 0 2.5.5-2.5.5zm4 0 2.5.5-2.5.5zm5 0 2.5.5-2.5.5zm-130 1 .5 5.5h-1zm92 8v1zm-193 12-.5 1.5-.5 18.5-.5-18.5zm7 0 1.5.5-1.5.5zm43 0 .5 3.5h-1zm73 0v1zm81 0v1zm-11 1 .5 6.5h-1zm-182 9 1.5.5-1.5.5zm4 0v1zm3 0v1zm11 0v1zm123 0 1.5.5-1.5.5zm3 0 1.5.5-1.5.5zm3 0 1.5.5-1.5.5zm-108 20v1zm0 2 .5 25.5h-1zm185 40v1zm6 0 3.5.5-3.5.5zm54 0v1zm-194 68 .5 2.5h-1zm92 15 .5 2.5h-1zm0 4 .5 2.5h-1zm0 5v1z" opacity=".996"/><path fill="#a16b42" stroke="#a16b42" d="M204.5 62v1zm-162 89 2.5.5-2.5.5zm75 54 2.5 1.5-1.5 3.5q-2.2.8-1.5-1.5l-1-2zm-.5 1q-1 3 2 2 1-3-2-2Zm82.5-1 1.5 3.5q-1.5 3-3 0zm.5 1-1 2h1zm35.5 7 .5 4.5h-1zm-109 3h2.5v8l-2 .5v20q-1.7 3.3-7.5 2.5l-2.5-1.5q5.7.2 8-3l1-4v-19l-1-2zm1.5 1v1zm61.5-1 2.5.5v14l1 5-1 3 1 3q-1.2 3.8 2.5 2.5l4.5 1.5-6.5.5-2.5-2.5-1-5v-21zm-2 1 .5 1.5h-1zm7 0v1zm-63 2 .5 4.5h-1zm104 0 .5 1.5h-1zm-48 1 .5 1.5h-1zm39 2 4.5.5-4.5.5zm6 0 2.5.5-2.5.5zm-45 2v1zm0 3 .5 15.5-2.5 3.5-3.5-.5 3-2q2.9-6.6 2.5-16.5Zm-58 3v1zm0 2 1.5 9.5 2 3.5 6 .5-6.5.5-2.5-1q-2.1-4.6-.5-13Z" opacity=".996"/><path fill="#a16b42" stroke="#a16b42" d="m132.5 235 .5 3.5h-1zm62 7v1zm-16 3q3.8-1 2.5 2l-2.5-1q.6 4.6-2 6l-2.5-.5 2-.5q-1-4.7 2.5-6Zm-62 2 .5 4.5h-1zm23 0 .5 1.5h-1zm61 0 .5 42.5h-1zm-61 3 .5 2.5h-1zm-14 4q2.5 1.2 1.5 5-4.1 1.2-1.5-5Zm-9 1 .5 32.5h-1zm58 3 .5 10.5h-1z" opacity=".996"/><path fill="#a16b42" stroke="#a16b42" d="m120 260 7 .5q-5.5-.5-7 3l-.5 2.5-.5-3.5zm9.5 0q6.3-1.2 7.5 2.5l-.5 17.5-.5-16.5-2.5-2.5q-5 1-4-1Zm52 0 5.5.5q-4.7-.2-6 3l-.5 5.5-.5-7.5zm12 0 4.5 1 1 2.5v20l-2.5 3.5-4 1v-1l4.5-1 1-2.5v-20q-.5-3-4.5-2.5zm-52 1 1.5.5v32l-2-1v-15l-1-2.5 2-.5v-12h-1l-.5 1.5-.5-1.5zm54 3v1zm-76 4v1zm19 0 .5 18.5h-1zm57 1v1zm-76 2 .5 5.5h-1zm2 8v1zm59 1 .5 3.5h-1zm-61 1 2 5 1.5-.5-.5 1.5 2.5.5-4.5.5q-3.1-1.6-1-7Zm17 0 .5 5.5q-.7 2.3-4.5 1.5l-2.5-.5q1.3-2.7 2.5-.5l3.5-2.5zm58 3v1zm-13 1v1zm3 2v1zm-58 1v1zm-10 2v1zm4 1q6.1-1.2 5.5 1.5l1 5h-1q.8-4.7-2.5-5.5-4 .8-3-1Zm75 0 2.5.5-2.5.5zm4 0v1zm-8 3v1zm-52 2 .5 1.5h-1zm38 1v1zm-47.5 4 8 .5-7 .5-1.5 6-.5-4.5zm50.5 0v1zm2 0q4.8-.7 5.5 2.5l-.5 4.5q.2-4.7-3-6-3 .5-2-1Zm3 4v1zm2 5v1zm3 1v1zm-34 5 1.5.5-1.5.5zm6 0v1zm0 2v1zm-25 1 1.5.5-1.5.5zm23 0-.5 1.5q-.4 6.4 3.5 8.5l4.5.5-8 .5-1-3.5 1-2-1.5-2.5q.2 5.7-3 8h-15l-1.5-1.5.5-4.5 3 5h11l2.5-2.5 1-6.5zm18 0 1.5.5-2.5 1.5zm-42 2 .5 5.5h-1z" opacity=".996"/><path fill="#a16b42" stroke="#a16b42" d="m180.5 321 1.5 11.5-2.5.5-20 1-2-1-1 1h-10l-1-1h-8l-1.5-1.5 1.5.5h17l1 1 1-1H180z" opacity=".996"/><path fill="#a16b42" stroke="#a16b42" d="m177.5 322 .5 6.5q-1.5 3-7.5 1.5v-1q5.1.6 6.5-2.5zm-34 5v1zm60 0v1zm-86 1 1.5.5-1.5.5zm82 0 1.5 2.5v11l-2 1 1-1v-11h-1q.9 7.4-1.5 11.5l-.5-3.5 1-1v-8zm-83 3 .5 11q4.1 1.7 3-2.5h1l-1.5 3.5-3.5-1.5zm3 2v1zm53 2v1zm-53 2v1zm4 9v1zm7 0v1zm57 0 2.5.5-2.5.5zm-60 3v1zm2 0v1zm58 0 3.5 1.5-1.5 3.5-1.5-.5 2-.5q1.3-4.1-2-3l-1.5 3-.5-2.5zm-61 3v1zm4 0v1zm-24 7 3.5 2.5 1 3-.5 1.5 2.5.5-.5 1.5 2.5 1.5-6 .5v-8.5l-1.5-.5zm6 0 .5 2.5h-1zm25 0 6.5 1.5-5.5.5zm41 0v1zm26 0 .5 2.5h-1zm6 0v1zm-37 1 3.5.5-3.5.5z" opacity=".996"/><path fill="#a16b42" stroke="#a16b42" d="m207 360 2 .5q-2.5 1.5-1 7l-2.5 3.5-2-1-5.5 1.5 2.5 9.5.5-2q3 1.3 2-2.5h1l1 3-2.5 3.5H200l-.5 2H195l-1-4h-6v7.5l-2.5 3.5h-9l-.5 2h-2.5v-1l1.5-.5-45-.5-1-5.5 1.5-2.5 1.5 5q2.3 2.6 8.5 2l3-1 4 1 2-1 5 1h2q4.8 1.3 6-1 1.2 2.3 6 1l5-1q1.3 2.3 6 1l6.5-3.5q-.6-5.4 1-7.5l6-1 .5-2h2q3 .5 1.5-6.5l1.5-1.5q5.4.6 7.5-1l1-4.5zm-101.5 1 .5 8.5h-1zm31 0 .5 1.5h-1zm44 0v1zm-42 2 1.5.5-1.5.5zm24 0v1zm-24 3 1.5.5-1.5.5zm66 0v1zm-88 3 1.5.5-1.5.5zm3 1 3 8 2-1v1l-1.5.5q5.4-.9 7 2l-1.5-.5-4 1-4.5-1-1-5.5 1-3zm92 4v1z" opacity=".996"/><path fill="#a16b42" stroke="#a16b42" d="m205.5 375 .5 2.5h-1zm-100 2 .5 9.5h-1zm4.5 0h2v6h6v3q3-1.2 2 2.5l1 2.5 7 .5-1 2.5 7 1 .5 2h9.5l1.5-4 .5 2q3.1-.7 2.5 2h5.5l.5-2H171l.5 2H185v3h-13.5l-.5 1.5-1 2q1.3 2.8 2.5.5h13l1.5 1.5 1 2v15h-1l-1-14-2.5-2.5-4-1-5.5 1-3 7.5q2.3 1.3-.5 2.5l-2 1-1-1h-12l-3 1-4.5-1.5 22-.5v-9.5l-1.5-1.5-3.5-1v7h-3.5l-1-1H153v-3q-3 1.3-2-2.5l-1.5-1.5H142l-.5-2H124v13.5l2.5.5v1H124v5.5l2 11q-2.3 1.3-1 6 3.3 3.9 2 11.5l-6 1-.5 3-.5-15-2.5-1-1 29-.5-30.5v-2l-1-23-3.5-4.5-4-1-1.5.5q1.8-3.2 8.5-1.5l2.5 3.5V420q4.9 1.8 3-4.5-2.5-1.5-1-7l1-2-1-4.5h-7.5l-.5-1.5-1-1v-16l-1-2zm75.5 0 2.5.5-2.5.5zm6 0v1zm20 1 .5 2.5h-1zm0 11 .5 3.5h-1zm-22 5 1.5.5-1.5.5zm22 2 .5 5.5h-1zm-108 1v1zm2 5 .5 1.5h-1zm106 1v1z" opacity=".996"/><path fill="#a16b42" stroke="#a16b42" d="M131.5 404h14l.5 3.5q2.3 1.3 1 6l-.5 2.5q-3-1.5-1.5-7.5l-2.5-2.5q-7.5-1-10.5 1l1 2.5h-2l-1.5 13.5-.5-15.5zm71 0q6.8-1.7 8.5 1.5l-6 .5-.5 2-1.5-.5-1 2v17l-1 1-.5 38.5-.5-40.5-1-1 1-1v-16z" opacity=".996"/><path fill="#a16b42" stroke="#a16b42" d="m132.5 416 .5 1.5h-1zm58.5 4 4 .5v17l1 4-1 1v9.5l2 .5-1 3q-2 8 2 10l-8.5.5v-1q3.4.9 1.5-4.5l-2-2V444h5v-7h-3q1-3-2-2v-9h2zm-4.5 6 .5 1.5h-1zm-1 4 1.5.5-1.5.5zm2 2v1zm0 2 .5 16.5h-1zm-95 16 .5 3.5h-1zm127 2v1zm-1 2v1zm-31 1 .5 10.5h-1zm2 6v1zm29 4v1zm-93 2 1.5.5-1.5.5zm-9 1v1zm5 0v1zm10 0 .5 2-3-.5zm60 0q5.8-1.7 4.5 2l-6-.5zm6 0 3.5.5q-1.2 2.8-2.5.5z" opacity=".996"/></svg>