<svg xmlns="http://www.w3.org/2000/svg" width="512" height="512" viewBox="0 0 512 512"><path fill="#34161a" d="M211.533.587h88.934V15.41h29.644v14.823h14.822v14.822h14.823v14.46h14.822V89.16H389.4v133.4h-14.822v-29.644h-14.822v29.644h14.46v14.823h-14.46v14.822h14.822v14.822H389.4v14.822h14.822v44.467H389.4v59.289h-14.822v14.822h-14.822v59.29h-14.823v29.282h-14.822v22.414h-44.467v-37.236h-14.822v-14.822h-29.644v14.822h-14.823v37.236H181.89v-22.414h-14.822v-29.283h-14.823v-59.289h-14.822v-14.822H122.6v-59.289h-14.822v-44.467H122.6v-14.822h14.822v-14.822h14.822v-14.822h-14.46V222.56h14.46v-29.644h-14.822v29.644H122.6V89.16h14.822V59.515h14.822V45.054h14.823V30.232h14.822V15.409h29.644z"/><path fill="#34161a" d="M122.6 89.52h14.822v58.928h103.756v177.867h59.289v14.822h-29.645v59.29h88.572v58.927h-14.46v29.644H330.11v22.414h-44.467v-37.236h-14.822v-14.822h-29.644v14.822h-14.823v37.236H181.89v-22.414h-14.823v-29.283h-14.822v-59.289h-14.822v-14.822H122.6v-59.289h-14.823v-44.467H122.6v-14.822h14.822v-14.822h14.822v-14.822h-14.46v-14.823h14.46v-29.644h-14.822v29.644H122.6z"/><path fill="#34161a" d="M241.178 355.96h29.644v44.467h88.572v58.927h-14.46v29.644H330.11v22.415h-44.467v-37.237h-14.822v-14.822h-29.644v14.822h-14.822v37.237h-44.467v-22.415h-14.822v-29.644h-14.461v-58.927h88.572z"/><path fill="#5e717a" d="M241.178 15.41h29.644v118.216h103.394v14.822H270.822v177.867h-29.644V148.448H137.784v-14.822h103.394z"/><path fill="#5d7079" d="M181.889 15.41h44.466v103.394c-32.085.225-32.085.225-41.094.28l-.921.005a5708 5708 0 0 1-35.645.124q-2.387.003-4.775 0l-1.7.001q-1.13.001-2.259-.002h-1.26c-.917-.047-.917-.047-1.279-.408a64 64 0 0 1-.041-2.73v-.865q0-1.424.006-2.846l.001-1.968q.003-2.595.01-5.19.005-3.112.007-6.223.006-4.73.017-9.461H122.6v-.362h14.822V59.515h14.822V45.054h14.822V30.232h14.823zm103.756 0h44.466v14.822h14.822v14.822h14.823v14.46h14.822V89.16H389.4v.362h-14.822v29.283h-88.933z"/><path fill="#44555e" d="M211.533.587h88.934V15.41h-14.823v103.395h88.934v29.644h-.362v-14.822H270.822V15.409h-29.644v118.217H137.784v14.822h-.362v-29.644h88.933V15.409h-14.822z"/><path fill="#8ea4af" d="M241.178 148.448h29.644v177.867h-29.644z"/><path fill="#b1a28f" d="M167.066 415.249h59.29v14.46h14.822v-14.46h29.644v14.46h14.822v-14.46h59.29v29.644h-74.112v-14.822h-29.644v14.46h-74.112z"/><path fill="#fcc09b" d="M285.645 178.093h14.822v44.467h14.822v-44.467h29.283v44.467h-14.46v29.644h-14.823v14.822h-29.644zm-118.217 0h29.283v44.467h14.822v-44.467h14.822v88.933h-29.644v-14.822h-14.822V222.56h-14.461z"/><path fill="#515a6c" d="M122.6 326.315h.361v58.928h14.461v-44.105h44.467c.421 17.287.421 17.287.408 22.253q-.002 1.407.003 2.814l-.002 1.82.002.836c-.008 1.88-.008 1.88-.411 2.283a80 80 0 0 1-3.04.035l-.923-.002q-1.464-.003-2.929-.01l-1.98-.006q-2.433-.006-4.866-.017c-.315 1.639-.416 3.203-.436 4.87l-.01.805q-.017 1.279-.03 2.558l-.02 1.587q-.037 2.93-.069 5.86l-.158 13.241h44.105V355.96h29.645v44.467h-88.572v58.927h14.46v.361h-14.822v-59.288h-14.822v-14.823H122.6z"/><path fill="#92a8b3" d="M241.178 15.41h29.644v118.216h-29.644z"/><path fill="#663724" d="M270.822 355.96h59.65v14.46c4.625-.014 4.625-.014 9.248-.032l1.732-.003.917-.005c.735 0 1.469.018 2.203.04 7.073 7.074.361 20.004.361 30.007h-74.11z"/><path fill="#5f717b" d="M374.217 252.204h.361v14.822H389.4v44.467h-14.822v14.822h-29.644v-14.822H330.11v-44.467h44.106zm-236.795 0h.361v14.822h44.106v44.467h-14.823v14.822h-29.644v-14.822H122.6v-44.467h14.822z"/><path fill="#45555e" d="M270.822 15.41h14.822v103.394h88.934v29.644h-.362v-14.822H270.822z"/><path fill="#91a8b3" d="M211.533 45.054h14.822v73.75h-29.644V103.98h-14.822V59.876c17.04-.415 17.04-.415 23.16-.384l6.484.023z"/><path fill="#33161a" d="M389.4 281.849h14.823v44.466h-15.184v58.928h-14.461v-44.105h-44.467v-29.645h14.823v14.822h29.644v-14.822H389.4zm-281.623 0H122.6v29.644h14.822v14.822h29.644v-14.822h14.823v29.645h-44.467v44.105h-14.46v-58.928h-15.185z"/><path fill="#91a8b2" d="M285.645 45.054h14.822v14.46h14.822v15.184h14.822v29.283H315.29v14.823h-29.644z"/><path fill="#3a475f" d="M181.889 459.354h44.466v52.059H181.89zm103.756 0h44.466v52.059h-44.466z"/><path fill="#535a6a" d="M389.039 326.315h.361v59.29h-14.822v14.822h-14.822v59.288h-14.822v-.361h14.46v-58.927h-14.46l-.362-29.645-14.1-.361-.18-6.304-.057-1.88c-.188-7.038-.124-14.049-.124-21.1h44.467v44.106h14.46z"/><path fill="#cddee3" d="M241.178 148.81H256v133.038h-14.822z"/><path fill="#5c7079" d="M181.889 15.41h44.466v29.644h-14.822v14.46h-44.105v-14.46h14.46z"/><path fill="#d7846c" d="M285.645 163.27h59.288v74.112h-14.822v-14.823h14.46v-44.466H315.29v44.466h-14.822v-44.466h-14.822zm-118.579 0h59.29v14.823h-14.823v44.466h-14.822v-44.466h-29.283v44.466h14.46v14.823h-14.822z"/><path fill="#663724" d="M182.25 355.96h29.283v44.105h-44.105l-.045-13.24-.02-4.173-.004-2.48q-.002-.825-.007-1.65-.007-1.254-.006-2.507l-.005-1.426c.087-1.276.087-1.276.81-3.445l13.738-.362z"/><path fill="#35161b" d="M211.533.587h88.934V15.41h-88.934z"/><path fill="#fdc09b" d="M270.822 355.96h29.645v44.105h-29.645z"/><path fill="#fcc09b" d="M211.533 355.96h29.645v44.105h-29.645z"/><path fill="#34161a" d="M285.645 474.176h14.822v22.414h14.822V489h14.46v22.052h-44.104z"/><path fill="#331519" d="M211.533 474.176h14.822v36.875H182.25V489h14.461v7.591h14.822z"/><path fill="#5e717a" d="M270.822 133.626h103.394v14.822H315.29v-14.46h-44.467z"/><path fill="#8fa5af" d="M374.217 252.204h.361v44.467h-29.644v-29.645h29.283z"/><path fill="#8fa5b0" d="M137.422 252.204h.361v14.822h29.283v29.645h-29.644z"/><path fill="#894e34" d="M315.289 355.96h15.184v14.46c4.624-.014 4.624-.014 9.247-.032l1.732-.003.917-.005c.735 0 1.469.018 2.203.04.626.626.405 1.431.406 2.265l-.003.826v.866q0 1.423-.006 2.846l-.002 1.968q-.002 2.595-.009 5.19-.006 3.111-.008 6.222-.005 4.731-.017 9.462h-14.822v-14.46H315.29z"/><path fill="#766456" d="M285.645 281.849h29.644v29.644h-29.644z"/><path fill="#756456" d="M196.711 281.849h29.644v29.644h-29.644z"/><path fill="#8ea4af" d="M374.578 267.026H389.4v44.467h-29.644v-14.822h14.822zm-251.978 0h14.822v29.645h14.822v14.822H122.6z"/><path fill="#d0e2e7" d="M181.889 59.876h29.644V89.16H181.89z"/><path fill="#626b7d" d="M330.473 355.96h29.283c.051 30.419.051 30.419-.362 44.105h-14.46c-.12-9.663-.24-19.327-.362-29.283l-14.1-.361z"/><path fill="#626c7d" d="M152.244 355.96h29.283v13.738l-.723.723h-13.738v29.644h-14.46a972 972 0 0 1-.384-30.187z"/><path fill="#8a4e35" d="M182.25 355.96h14.461v29.644h-14.822v14.461h-14.461c-.029-6.59-.029-6.59-.035-9.404q-.006-2.877-.02-5.755a1197 1197 0 0 1-.014-4.641q-.001-.884-.007-1.769-.008-1.24-.006-2.481l-.005-1.426c.087-1.276.087-1.276.81-3.445l13.738-.362z"/><path fill="#9fb5bc" d="M241.178 281.849H256v44.466h-14.822z"/><path fill="#341518" d="M300.467 178.093h14.822v44.467h-14.822z"/><path fill="#331519" d="M196.711 178.093h14.822v44.467h-14.822z"/><path fill="#cee0e5" d="M241.178 45.054H256v44.105h-14.822z"/><path fill="#d1e1e6" d="M270.822 133.988h44.467v14.46h-44.467z"/><path fill="#d0e0e6" d="M196.711 133.988h44.467v14.46H196.71z"/><path fill="#814a35" d="M300.467 474.176h29.644v37.237h-44.466v-.362h44.105V489h-14.461v7.591h-14.822z"/><path fill="#814a34" d="M181.889 474.176h29.644v22.414h-14.822V489h-14.46v22.052h44.104v.362H181.89z"/><path fill="#776557" d="M330.111 415.249h14.823v29.644h-74.112v-.361h59.29z"/><path fill="#ab815d" d="M241.178 415.249h29.644v14.46h14.822v.362h-59.288v-.361h14.822z"/><path fill="#d3836c" d="M359.756 192.915h14.822v44.467h-.362V222.56h-14.46zm-222.334 0h14.822v29.645h-14.46v14.822h-.362z"/><path fill="#3d4b61" d="M330.111 341.138h29.645v14.822H330.11z"/><path fill="#9e3231" d="M241.178 341.138h29.644v14.822h-29.644z"/><path fill="#3d4b62" d="M152.244 341.138h29.645v14.822h-29.645z"/><path fill="#ae825a" d="M270.822 326.315h29.645v14.823h-29.645z"/><path fill="#341519" d="M241.178 326.315h29.644v14.823h-29.644z"/><path fill="#ae835b" d="M211.533 326.315h29.645v14.823h-29.645z"/><path fill="#b3a290" d="M181.889 311.493h14.822v29.645h-14.822z"/><path fill="#b4a290" d="M315.289 311.493h14.822v29.645H315.29z"/><path fill="#2f4c73" d="M285.645 281.849h29.644v14.822h-29.644z"/><path fill="#304c73" d="M196.711 281.849h29.644v14.822h-29.644z"/><path fill="#613423" d="M359.756 163.27h14.822v29.645h-14.822z"/><path fill="#623423" d="M137.422 163.27h14.822v29.645h-14.822z"/><path fill="#33161b" d="M241.178 133.626h29.644v14.822h-29.644z"/><path fill="#36171c" d="M300.467 15.41h29.644v14.822h-29.644zm-118.578 0h29.644v14.822H181.89z"/><path fill="#786658" d="M167.066 415.249h14.823v29.283h-14.823z"/><path fill="#d7856b" d="M270.822 385.604h29.645v14.461h-29.645z"/><path fill="#d7846b" d="M211.533 385.604h29.645v14.461h-29.645z"/><path fill="#91a8b2" d="M359.756 89.52h14.46v29.284h-14.46z"/><path fill="#92a8b2" d="M137.783 89.52h14.461v29.284h-14.46z"/><path fill="#33151a" d="M359.756 59.876h14.46V89.16h-14.46z"/><path fill="#91a8b2" d="M344.934 59.876h14.46V89.16h-14.46z"/><path fill="#91a7b2" d="M152.606 59.876h14.46V89.16h-14.46z"/><path fill="#33151a" d="M137.783 59.876h14.461V89.16h-14.46z"/><path fill="#94a9b2" d="M270.822 133.626h59.29v14.822h-14.823v-14.46h-44.467z"/><path fill="#93a8b2" d="M181.889 133.626h59.289v.362H196.71v14.46h-14.822z"/><path fill="#6e352f" d="M256 400.427h14.822v14.822h-29.644v-.362H256z"/><path fill="#d78970" d="M226.355 355.96h14.823v14.822h-14.823z"/><path fill="#d6856c" d="M270.822 355.96h14.822v14.822h-14.822z"/><path fill="#a56046" d="M241.178 341.138H256v14.822h-14.822z"/><path fill="#776455" d="M315.289 311.493h14.822v14.822H315.29zm-133.4 0h14.822v14.822h-14.822z"/><path fill="#b2a190" d="M300.467 296.67h14.822v14.823h-14.822z"/><path fill="#b2a290" d="M196.711 296.67h14.822v14.823h-14.822z"/><path fill="#ccdde3" d="M359.756 281.849h14.822v14.822h-14.822z"/><path fill="#746355" d="M300.467 281.849h14.822v14.822h-14.822z"/><path fill="#756356" d="M196.711 281.849h14.822v14.822h-14.822z"/><path fill="#cbdde3" d="M137.422 281.849h14.822v14.822h-14.822z"/><path fill="#32161a" d="M374.578 267.026H389.4v14.823h-14.822zm-251.978 0h14.822v14.823H122.6z"/><path fill="#d8846b" d="M300.467 252.204h14.822v14.822h-14.822zm-103.756 0h14.822v14.822h-14.822z"/><path fill="#d8856c" d="M315.289 237.382h14.822v14.822H315.29z"/><path fill="#d8856d" d="M181.889 237.382h14.822v14.822h-14.822z"/><path fill="#92a8b3" d="M181.889 59.876h14.822V74.7h-14.822z"/><path fill="#34171c" d="M330.111 30.232h14.823v14.822H330.11z"/><path fill="#92a8b2" d="M315.289 30.232h14.822v14.822H315.29z"/><path fill="#92a7b2" d="M181.889 30.232h14.822v14.822h-14.822z"/><path fill="#34171c" d="M167.066 30.232h14.823v14.822h-14.823z"/><path fill="#94a9b3" d="M285.645 15.41h14.822v14.822h-14.822z"/><path fill="#93a7b3" d="M211.533 15.41h14.822v14.822h-14.822z"/><path fill="#fcc09b" d="M359.756 207.737h14.46v14.823h-14.46z"/><path fill="#fcc09c" d="M137.783 207.737h14.461v14.823h-14.46z"/><path fill="#32141a" d="M359.756 385.604h14.46v14.461h-14.46z"/><path fill="#31151a" d="M137.783 385.604h14.461v14.461h-14.46z"/><path fill="#321519" d="M344.934 45.054h14.46v14.46h-14.46z"/><path fill="#92a8b3" d="M330.111 45.054h14.461v14.46h-14.46zm-162.683 0h14.46v14.46h-14.46z"/><path fill="#331519" d="M152.606 45.054h14.46v14.46h-14.46z"/><path fill="#725651" d="M122.6 326.315h.361v58.928h14.461v-44.105h.361v44.105h14.461c.362.361.362.361.403 1.73q0 .915-.006 1.83l-.001.86q-.004 1.598-.012 3.194l-.022 7.208h14.46v-29.644c4.534-.12 9.067-.24 13.738-.362.753-.753.455-2.362.476-3.402l.023-.922.066-2.929.047-1.98q.06-2.433.111-4.866h.723q.014 3.156.02 6.313l.007 2.149q.007 1.541.008 3.082l.006.977c0 .767-.018 1.534-.04 2.301-.362.362-.362.362-1.664.403q-.87 0-1.739-.006l-.922-.002q-1.464-.003-2.929-.01l-1.98-.006q-2.433-.006-4.866-.017c-1.585 9.512-.593 19.278-.723 28.921h73.75v.362h-88.572v58.927h14.46v.361h-14.822v-59.288h-14.822v-14.823H122.6zm15.183 59.29v14.46h14.461v-14.46z"/><path fill="#75787e" d="M152.244 45.054h.362v14.46h14.46v-14.46h.362v14.46h29.283v.362h-29.283c.014 9.621.014 9.621.033 19.242l.001 2.725.004 1.827q.004 1.38.003 2.76l.004.827c-.004 1.861-.004 1.861-.407 2.264h-14.46v29.283h-.362V89.52h-14.46v29.283h-.362V89.52H122.6v-.362h14.822V59.515h14.822zm-14.46 14.822V89.16h14.46V59.876zm14.822 0V89.16h14.46V59.876z"/><path fill="#75757c" d="M344.572 45.054h.362v14.46h14.46v-14.46h.362v14.46h14.822V89.16H389.4v.362h-14.822v29.283h-.362V89.52h-29.644V59.876h-14.46v-.361h14.46zm.362 14.822V89.16h14.46V59.876zm14.822 0V89.16h14.46V59.876z"/><path fill="#421b13" d="M196.711 178.093h14.822v29.644h-.361l-.362-28.921h-13.376v43.02l13.738.362v-12.653h.361v13.015h-14.822z"/><path fill="#594e52" d="M122.6 326.315h.361v58.928h14.461v-44.105h.361v44.105h14.461v.361h-14.46v14.461h14.46v.362h-14.822v-14.823H122.6z"/><path fill="#775a54" d="M329.75 355.96h.723v14.46c4.624-.014 4.624-.014 9.247-.032l1.732-.003.917-.005c.735 0 1.469.018 2.203.04.626.626.405 1.431.406 2.265l-.003.826v.866q0 1.423-.006 2.846l-.002 1.968q-.002 2.595-.009 5.19l-.007 5.293q-.006 5.195-.017 10.391h-.362l-.362-28.921h-14.099c-.611-1.224-.405-2.612-.397-3.957l.002-.97q.004-1.536.011-3.072l.005-2.08q.006-2.552.018-5.105"/><path fill="#240f12" d="M152.606 400.427h14.46v.361l-1.222.028q-2.236.051-4.473.107l-1.939.045q-1.39.031-2.78.067l-.881.019c-1.331-.088-1.331-.088-2.442.457a46 46 0 0 0-.057 2.226l-.006.712q-.007 1.19-.011 2.38l-.011 1.699q-.015 2.313-.025 4.627l-.027 4.83q-.027 4.576-.05 9.153-.028 5.21-.058 10.418-.061 10.718-.117 21.437h14.1v.361h-14.461z"/><path fill="#3c4961" d="M211.533 281.849h14.822v14.822h-14.822zm.723.723a77 77 0 0 0-.035 2.96l.002.9.01 2.85.006 1.929q.006 2.369.017 4.737 2.848.013 5.695.02.97.002 1.94.007l2.78.008.881.006c.694 0 1.387-.019 2.08-.041.509-.426.509-.426.403-1.63q0-.847-.006-1.693l-.001-.898q-.004-1.426-.011-2.851l-.005-1.929q-.006-2.368-.018-4.737-2.847-.013-5.695-.02l-1.939-.007a932 932 0 0 0-2.78-.008l-.882-.006c-1.33-.128-1.33-.128-2.442.403m73.389-.723h14.822v14.822h-14.822zm.361.361v13.738h13.738V282.21z"/><path fill="#3c110e" d="M241.54 355.96h28.92v34.344h-.36v-33.983l-13.716.159c-1.431.015-2.862.03-4.337.047l-2.557.031-1.713.02q-1.296.014-2.59.03l-.776.007c-1.176-.08-1.176-.08-2.149.43-.057.669-.09 1.34-.114 2.012l-.046 1.232-.043 1.297-.047 1.301q-.059 1.597-.111 3.195h-.362z"/><path fill="#883737" d="M256 341.138h14.822v14.822H256v-.362l14.1-.723V341.5l-6.44.09-2.03.018-1.593.033-.834.002c-1.6.032-1.6.032-2.845.955l-.358.71z"/><path fill="#925c4d" d="M241.178 341.138H256v.361l-13.738.362-.723 13.737H256v.362h-14.822z"/><path fill="#3f120c" d="M330.111 237.382h14.823v.723h-14.1v6.869a165 165 0 0 1-.18 4.044l-.053.951q-.061 1.118-.128 2.235h-.362z"/><path fill="#d1907b" d="M270.822 355.96h14.822v.361c-9.82.432-9.82.432-13.737.362-.574 1.147-.405 2.381-.397 3.64l.001.774q.004 1.43.012 2.861l.022 6.463h14.1v.361h-14.823z"/><path fill="#746060" d="M181.527 355.96h.723v14.822h-15.184v-.361l1.256-.028q2.297-.051 4.594-.107l1.992-.045q1.428-.032 2.856-.068l.905-.018c1.36.093 1.36.093 2.497-.457.058-1.016.094-2.024.114-3.04l.023-.923q.035-1.465.066-2.929l.047-1.98q.06-2.433.111-4.866"/><path fill="#7f4d3d" d="M211.172 487.914h.361v8.676h-11.93v-.361c.327-.01.653-.018.99-.027q1.812-.052 3.624-.108l1.57-.045q1.128-.031 2.254-.067l1.371-.04c1 .042 1 .042 1.398-.436.057-.564.09-1.13.115-1.696l.045-1.035.044-1.088.047-1.092q.057-1.34.11-2.681"/><path fill="#686a73" d="M330.111 267.026h14.823v.362c-2.983.335-5.926.406-8.925.384l-1.305-.005q-1.574-.006-3.147-.018l-1.084 2.17h-.362z"/><path fill="#7a4d3d" d="M300.467 474.538h13.014v.361c-2.387.443-4.74.39-7.162.362a587 587 0 0 0-2.447-.023l-1.088-.012c-.876-.025-.876-.025-1.594.396-.41.73-.41.73-.723 1.446z"/></svg>