<svg xmlns="http://www.w3.org/2000/svg" width="512" height="512" viewBox="0 0 512 512"><path fill="#46525a" d="m127.441 0 1.984.004L131.697 0l2.512.008h2.628q3.58 0 7.156.008 3.738.008 7.472.006 7.08.004 14.16.016 8.056.01 16.114.016 16.578.012 33.156.036v15.184h29.646v14.46h14.46v15.184h15.184v15.184h14.46v28.92h15.184v104.12h-15.184v15.182h-14.46v14.46h14.46v14.462h15.184v15.184h14.46v44.828h-14.46v28.92h14.46v29.646h14.46v15.184h15.186v-15.184h29.644v29.644h-15.184v15.184h29.644v14.46h29.646v15.184h29.644v14.46h14.46v15.186h-14.46v14.46h15.184v-14.46h14.46v14.46h15.184v15.184h-15.184v14.46h-29.644v-14.46h-29.644V474.4h-29.646v-14.46h-29.644v-15.184h-29.644v15.184h-29.644v-29.646h15.182V415.11h-29.644v-14.46h-14.46v29.644h-15.184v29.646h-7.23v14.46h-7.954v15.184h15.184V512h-74.472v-67.242h-14.46v67.24H96.317v-22.412h14.46V474.4H81.135v15.184l-7.186.044-2.268.02-1.774.006-1.824.012c-1.41-.082-1.41-.082-2.132-.806a46 46 0 0 1-.072-3.076l.006-1.684.02-2.154.046-6.824h-14.46v-44.828h14.46v-14.46H36.305V400.65h-14.46v-74.47h14.46v-28.922h-14.46V252.43h14.46v-15.184h15.184v-14.46h14.46v-14.46h-14.46V193.14H36.305V89.024h15.184v-28.92h14.46V44.918h15.186V29.734h14.46v-14.46h29.644V.814c.724-.724.724-.724 2.2-.812"/><path fill="#36191a" d="M21.845 252.43h14.46l.724 28.92c19.326.24 38.654.48 58.566.724V252.43h15.184v29.644h-14.46v59.29h29.644v14.46h117.854v-73.75h-14.46V252.43h15.184v29.644h58.566V252.43h15.182v44.828h-14.46v28.92h14.46v29.646h14.46v15.184h15.186v-15.184h29.644v29.644h-15.184v15.184h29.644v14.46h29.646v15.184h29.644v14.46h14.46v15.186h-14.46v14.46h15.184v-14.46h14.46v14.46h15.184v15.184h-15.184v14.46h-29.644v-14.46h-29.644V474.4h-29.646v-14.46h-29.644v-15.184h-29.644v15.184h-29.644v-29.646h15.182V415.11h-29.644v-14.46h-14.46v29.644h-15.184v29.646h-7.23v14.46h-7.954v15.184h15.184V512h-74.472v-67.242h-14.46v67.24H96.317v-22.412h14.46V474.4H81.135v15.184l-7.186.044-2.268.02-1.774.006-1.824.012c-1.41-.082-1.41-.082-2.132-.806a46 46 0 0 1-.072-3.076l.006-1.684.02-2.154.046-6.824h-14.46v-44.828h14.46v-14.46H36.305V400.65h-14.46v-74.47h14.46v-28.922h-14.46z"/><path fill="#601921" d="M52.213 193.14h28.92v15.184h177.868V193.14h28.92v14.46h-14.46v15.186h15.184v14.46h15.184c.118 14.954-.334 29.88-.722 44.828h-58.566V252.43h-15.184v29.644h14.46v73.75H125.963v-14.46H96.317v-59.29h14.46V252.43H95.595v29.644c-14.588.03-14.588.03-20.784.036q-6.352.004-12.706.02-5.12.01-10.24.012l-3.914.008q-2.73.008-5.464.006l-1.652.008c-3.724-.008-3.724-.008-4.53-.812a80 80 0 0 1-.08-4.132v-2.676l.01-2.912.004-2.962q.004-3.908.018-7.814l.014-7.968q.012-7.82.034-15.642h15.184v-14.46h15.184V207.6h-14.46z"/><path fill="#5f696f" d="M303.107 296.534h15.182v.724h-14.46v28.92h14.46v29.646h14.46v15.184h15.186v-15.184h29.644v29.644h-15.184v15.184h29.644v14.46h29.646v15.184h29.644v14.46h14.46v15.186h-14.46v14.46h15.184v-14.46h14.46v14.46h15.184v15.184h-15.184v14.46h-29.644v-14.46h-29.644V474.4h-29.646v-14.46h-29.644v-15.184h-29.644v15.184h-29.644v-29.646h15.182V415.11h-29.644v-14.46h-14.46v29.644c-10.44.54-20.804.814-31.252.74q-2.184-.014-4.368-.02-5.842-.03-11.684-.07l-12.274-.066q-11.586-.06-23.168-.13l-26.408-.148q-27.126-.146-54.252-.306V400.65h148.222v28.92h14.46v-29.642h14.46v-28.922h-13.736v15.184h-15.184v-15.908h14.46c-.028-4.488-.028-4.488-.064-8.976l-.006-1.686-.012-1.732c.082-1.344.082-1.344.806-2.066a50 50 0 0 1 3.234-.07l1.774.004 2.268.02 7.184.046v-14.46h14.46v14.46h14.46v-28.92h-14.46z"/><path fill="#36191a" d="M21.845 326.18h14.46v.722H22.569v73.028h13.736l-.01-5.3q-.018-8.644-.026-17.288l-.018-10.488a5730 5730 0 0 1-.014-10.112q0-1.936-.008-3.868-.006-2.696-.006-5.396c0-.54-.004-1.076-.008-1.632.008-3.678.008-3.678.814-4.482a44 44 0 0 1 3.05-.096l1.86-.004.96.008.956-.008.86.004h1.72c1.332.096.332.096 2.054.82.064.02.078 2.048.072 3.074l-.008.872-.021.966c0 .652-.004.304-.008.976q-.012 2.424-.036 4.848l1.316-.012q2.936-.02 5.87-.034l2.072-.018.97-.006.824-.012c1.41.08.41.08 2.132.804.068.4.086 2.8.082 4.198v2.72l-.01 2.96-.004 3.012-.018 7.94q-.01 4.05-.014 8.1-.012 7.95-.036 15.9l-29.644-.724v14.46h29.644v15.184h14.46v-44.828h29.646v14.46q.712.36.446.724h-1.446v29.644l13.528-.01q22.066-.018 44.128-.026 13.384-.006 26.77-.018 11.66-.012 23.322-.014 6.18 0 12.36-.008 5.806-.006 11.616-.006l4.276-.004q2.906-.004 5.812 0l1.734-.006c3.87.01 3.87.01 4.676.816a176 176 0 0 1 .07 6.396l-.002.942q-.008 3.084-.022 6.168l-.01 4.17q-.012 5.12-.036 10.246h-7.23v14.46h-7.954v15.184H259V512h-74.472v-67.242h-14.46v67.24H96.317v-22.412h14.46V474.4H81.135v15.184l-7.186.044-2.268.02-1.774.006-1.824.012c-1.41-.082-1.41-.082-2.132-.806a46 46 0 0 1-.072-3.076l.006-1.684.02-2.154.046-6.824h-14.46v-44.828h14.46v-14.46H36.305V400.65h-14.46z"/><path fill="#5a6970" d="M125.241.814h.72v14.46h59.29v103.394h46.274c9.776.092 19.548.188 29.32.336q4.646.068 9.29.13 8.894.122 17.788.258v14.46H51.489V89.746h15.184V60.102h14.46v-14.46h-14.46V59.38h-.722V44.92h15.184V29.734h14.46v-14.46h29.644z"/><path fill="#5a676e" d="M110.779 252.43h118.578v29.644h14.46v73.75H125.963v-14.46H96.317v-59.29h14.46z"/><path fill="#59686f" d="M51.489 149.036h15.184v28.92h13.74l.72-28.92h207.512v59.288h-14.46v14.46h-.724v-15.182h14.46v-14.46h-28.92v15.182H81.135V193.14H52.213v14.46h14.46v15.186h-.722v-14.46h-14.46z"/><path fill="#785f4b" d="M303.107 296.534h15.182v.724h-14.46v28.92h14.46v29.646h14.46v.722h-14.46v44.106h-44.104v29.644c-10.44.54-20.804.814-31.252.74q-2.184-.014-4.368-.02-5.842-.03-11.684-.07l-12.274-.066q-11.586-.06-23.168-.13l-26.408-.148q-27.126-.146-54.252-.306v-29.644h148.222v28.92h14.46V399.93h14.46v-28.922h-13.736v15.184h-15.184v-15.908h14.46c-.028-4.488-.028-4.488-.064-8.976l-.006-1.686-.012-1.732c.082-1.344.082-1.344.806-2.066a50 50 0 0 1 3.234-.07l1.774.004 2.268.02 7.184.046v-14.46h14.46v14.46h14.46v-28.92h-14.46z"/><path fill="#58676f" d="M125.961.09h88.934v15.184h29.646v14.46h14.46v15.184h15.184v44.828h13.738v14.46h-88.21l-.408-35.112-.134-10.98-.072-6.644-.052-4.35c-.138-10.644.1-21.218.666-31.846h14.46V.814h-88.212z"/><path fill="#495259" d="M125.961.814h88.212v14.46h-14.46v88.934h88.21v-14.46h-13.74V60.1h14.462v28.92h15.184v104.12h-15.184q-.188-10.1-.36-20.2l-.028-1.512a2453 2453 0 0 1-.334-52.04l-1.83.006q-8.916.024-17.832.032l-9.15.018c-24.63.064-49.224-.392-73.86-.778V15.272h-59.288z"/><path fill="#859aa0" d="M110.779 252.43h29.644v14.46h29.644v74.474h-73.75v-59.29h14.46z"/><path fill="#849ba2" d="M51.489 149.036h15.184v28.92h13.74l.72-28.92h148.224v14.46h15.184v15.184H81.135v14.46H52.213v14.46h14.46v15.186h-.722v-14.46h-14.46z"/><path fill="#869ca3" d="M155.607 15.998h28.92v103.394h44.83v14.46H81.135v-14.46h73.748c-.028-23.208-.028-23.208-.064-46.414-.02-19.01.22-37.978.788-56.98"/><path fill="#361819" d="M347.935 355.824h29.644v29.644h-15.184v15.184h29.644v14.46h-44.104c-.832-16.634-.832-16.634-.768-22.594l.01-1.892q.012-2.22.034-4.434h-6.508v14.46h-7.952v14.46c4.456-.028 4.456-.028 8.912-.064l1.68-.006.72-.012c1.426.082.426.082 2.872.806v14.46h14.46v14.46h-29.644v15.186h-29.644v-29.646h15.182v-15.184h-29.644V399.93l29.644.722v-44.106h14.46v14.46h15.186z"/><path fill="#844f3c" d="M21.845 326.18h14.46v.722H22.569v73.028h13.736l-.01-5.3q-.018-8.644-.026-17.288l-.018-10.488a5730 5730 0 0 1-.014-10.112q0-1.936-.008-3.868-.006-2.696-.006-5.396c0-.54-.004-1.076-.008-1.632.008-3.678.008-3.678.814-4.482a44 44 0 0 1 3.05-.096l1.86-.004.96.008.956-.008.86.004h1.72c1.332.096.332.096 2.054.82.064.02.078 2.048.072 3.074l-.008.872-.021.966c0 .652-.004.304-.008.976q-.012 2.424-.036 4.848l1.316-.012q2.936-.02 5.87-.034l2.072-.018.97-.006.824-.012c1.41.08.41.08 2.132.804.068.4.086 2.8.082 4.198v2.72l-.01 2.96-.004 3.012-.018 7.94q-.01 4.05-.014 8.1-.012 7.95-.036 15.9l-29.644-.724v14.46h29.644v15.184h14.46v-44.828h29.646v14.46q.712.36.446.724H90.316v59.29h-14.46l.046 6.28c.026 7.804-.33 15.574-.768 23.364q-3.592.03-7.186.044l-2.072.02-1.97.006-1.824.012c-1.41-.082-1.41-.082-2.132-.806a46 46 0 0 1-.072-3.076l.006-1.684.02-2.154.046-6.824H45.49v-44.828h14.46v-14.46H30.304v-15.184h-14.46z"/><path fill="#341719" d="M52.213 193.14h28.92v15.184h177.868V193.14h28.92v14.46h-14.46v15.186h14.46v14.46h-14.46l-.722-13.738-28.92-.722v14.46h-14.462v-14.46h-118.58v14.46h-14.46v-14.46H66.673V207.6h-14.46z"/><path fill="#869ca3" d="M95.595 15.274h.722v15.184h15.184v14.46h28.922v59.29H81.135v-14.46h15.182V60.1H81.135V45.64h-14.46v13.738h-.724v-14.46h15.184V29.732h14.46z"/><path fill="#5a676d" d="M51.489 222.786h44.828v14.46h14.46v15.184H95.595v29.644c-14.588.03-14.588.03-20.784.036q-6.352.004-12.706.02-5.12.01-10.24.012l-3.914.008q-2.73.008-5.464.006l-1.652.008c-3.724-.008-3.724-.008-4.53-.812a80 80 0 0 1-.08-4.132v-2.676l.01-2.912.004-2.962q.004-3.908.018-7.814l.014-7.968q.012-7.82.034-15.642h15.184z"/><path fill="#5a676e" d="M244.541 222.786q6.002-.028 12.008-.04l4.088-.016 5.862-.016.86-.01c1.46 0 2.92.036 4.38.08.722.724.722.724.804 2.068l-.011.732-.006.684-.02 2.154-.046 6.824h14.46v-14.46h.724v14.46h15.184c.118 14.954-.334 29.88-.722 44.828H244.54V250.43h-15.184v-14.46h15.184z"/><path fill="#869ba1" d="M185.251 267.614h29.644v14.46h14.46v44.106h-15.182v15.184h-28.92z"/><path fill="#85989d" d="M81.135 193.14h177.866v15.184H81.135z"/><path fill="#413336" d="M392.761 459.94h58.568v14.46h15.184v-14.46h14.46v14.46h15.184v15.186h-15.184v14.46h-29.644v-14.46h-29.644V474.4h-28.924z"/><path fill="#331619" d="M66.673 45.64h14.46v14.462h-14.46v29.644H51.489V193.14H36.305V89.024h15.184v-28.92l14.46-.724c.24-4.534.48-9.068.724-13.74"/><path fill="#824c37" d="M303.107 296.534h15.182v.724h-14.46v28.92h14.46v29.646h14.46v.722h-14.46v44.106h-44.828v-.722h14.46v-28.922h-13.736v15.184h-15.184v-15.908h14.46c-.028-4.488-.028-4.488-.064-8.976l-.006-1.686-.012-1.732c.082-1.344.082-1.344.806-2.066a50 50 0 0 1 3.234-.07l1.774.004 2.268.02 7.184.046v-14.46h14.46v14.46h14.46v-28.92h-14.46z"/><path fill="#784938" d="M110.779 444.758h44.828v52.058h-44.828v-6.508H97.041v20.246h73.026V512h-73.75v-22.414h14.46V474.4h.724v14.46h13.74v-28.92h-14.462z"/><path fill="#869ca3" d="M199.713 44.92h15.182v15.182h14.46v14.46h15.186v29.646h-44.828z"/><path fill="#35181b" d="m116.031 237.878.45-.004h4.844l3.46-.002q4.71-.004 9.42 0h9.834q8.26-.002 16.52.002 9.566.006 19.13 0 8.198-.006 16.394-.002h9.804q4.608-.004 9.214.002h3.392q2.306-.002 4.612.004h2.612c1.916.092.916.092 2.64.814v13.738h-118.58c0-14.552 0-14.552 5.254-14.552"/><path fill="#341619" d="M288.645 89.746h14.46V193.14h-14.46z"/><path fill="#9f8c74" d="M125.241 415.112h89.654v15.184q-17.374.026-34.748.038l-16.134.018q-7.028.01-14.056.012-3.726 0-7.448.008-4.15.008-8.3.006l-2.512.008-2.272-.002h-1.984c-1.48-.088-1.48-.088-2.2-.81z"/><path fill="#3b3e4d" d="M51.489 296.534h29.646v44.83H51.489z"/><path fill="#3b3e4e" d="M259.001 297.258h29.644v43.382c-2.408.204-5.108.81-7.756.794l-1.674-.002q-3.102-.008-6.206-.024l-14.008-.044z"/><path fill="#879ba1" d="M259.001 237.97h29.644v14.46h14.46v29.644h-14.46V266.89h-29.644z"/><path fill="#becfd3" d="M81.135 193.14h88.932v14.46H81.135z"/><path fill="#311417" d="M125.961.814h88.212v14.46h-88.212z"/><path fill="#683a27" d="M199.713 459.94c16.624 0 16.624 0 22.956.362l6.688.362v28.92h14.46v7.232h-44.104z"/><path fill="#869aa0" d="M95.595 15.274h.722v15.184h15.184v14.46h14.46v15.184H81.135v-14.46h-14.46V59.38h-.724V44.92h15.184V29.734h14.46z"/><path fill="#5a6970" d="M96.317 282.074h14.46v44.106h15.186v15.184H96.317z"/><path fill="#889ba2" d="M51.489 237.97h29.646v28.92H37.029v-14.46h14.46z"/><path fill="#7e9198" d="M51.489 149.036h15.184v28.92h177.144v-14.46h.724v15.184H81.135v14.46H52.213v14.46h14.46v15.186h-.722v-14.46h-14.46z"/><path fill="#b18e68" d="M340.703 386.192h6.508q.188 3.16.36 6.326l.106.722c.376 6.98.258 13.846.258 20.872h44.104v15.184h-44.104v-14.46l-15.184-.724v-14.46h7.952z"/><path fill="#35171a" d="M325.521 415.836h7.23v44.106h-29.644v-29.646h22.414z"/><path fill="#643924" d="m275.595 355.741.824.014.774.004 2.268.02 7.184.046v15.184h14.46v28.92h15.184v.724h-42.828v-.722h14.46V371.01h-13.736v15.184h-15.184v-15.908h14.46c-.028-4.488-.028-4.488-.064-8.976l-.006-1.686-.012-1.732c.114-1.872.346-2.04 2.216-2.148"/><path fill="#381b1a" d="M347.935 355.824h29.644v29.644h-29.644z"/><path fill="#834c38" d="M154.883 371.008h59.29v14.46h-59.292z"/><path fill="#c0cfd4" d="M81.135 119.392h59.288v14.46H81.135z"/><path fill="#7f3433" d="M125.961 222.786h58.568v14.46h-58.568z"/><path fill="#462d30" d="M66.673 45.64h14.46v14.462h-14.46v29.644H37.029V193.14h-.724V89.024h15.184v-28.92l14.46-.724c.24-4.534.48-9.068.724-13.74"/><path fill="#3b3e4e" d="M110.779 444.758h44.828v15.182c-.724.724-.724.724-3.394.806q-1.786 0-3.568-.012h-1.678l-6.228-.024-14.054-.046-.722 28.92h-15.184v-15.182h.722v14.46h13.74v-28.92h-14.462z"/><path fill="#683823" d="M96.317 385.468h14.46v14.46l1.448.724H96.317v59.29h-14.46v14.46h-.722V431.02c2.392-1.198 5.054-.796 7.68-.768l1.76.01q2.148.012 4.296.034l.024-1.38q.118-7.14.246-14.286l.09-5.322q.064-3.84.136-7.68l.036-2.378a146 146 0 0 1 .914-13.78"/><path fill="#3a3d4e" d="M199.713 444.758h44.828v15.182c-15.03.82-29.802.866-44.828 0z"/><path fill="#37191b" d="M51.489 430.296h14.46c1.261.26.816 2.996.818 4.71l.006 2.58-.004 2.81.002 2.86q0 3.004-.004 6.004-.004 3.856.004 7.71v7.332l.002 2.81-.006 2.58v2.286c-.094.7-.094.7-.816 2.424h-14.46z"/><path fill="#c2d1d5" d="M125.961 44.92h14.462v29.642h-29.644v-14.46h15.184z"/><path fill="#844e3a" d="m96.317 385.468-.722 45.552-13.738-.724q-.024-8.466-.038-16.93-.004-3.93-.016-7.862a3218 3218 0 0 1-.014-7.58q-.004-2.16-.014-4.314v-2.632l-.004-2.33c.086-1.734.086-1.734.81-2.456 4.72-.674 8.86-.724 13.736-.724"/><path fill="#643623" d="M51.489 355.824h14.46c.724.722.724.722.812 2.512l-.006 2.408v2.72l-.01 2.96-.004 3.012-.018 7.94q-.01 4.05-.014 8.1-.012 7.95-.036 15.9l-7.23-.724c-.804-3.208-.806-6.34-.768-9.626l.01-1.622q.012-1.968.036-3.936h-7.232z"/><path fill="#683926" d="M155.607 459.94v36.876h-15.184v-36.152c14.46-.724 14.46-.724 15.184-.724"/><path fill="#844b38" d="M199.713 459.94h14.46v36.876h-14.46z"/><path fill="#5c1c23" d="M214.173 371.008h30.368v14.46c-19.436.604-38.846.82-58.29.772l-10.432-.014q-10.106-.01-20.212-.034v-.724h58.566z"/><path fill="#56666c" d="M81.857 178.68h158.346c-.24.954-.481.908-.724 2.892l-2.434.01q-29.292.11-58.58.236-14.162.06-28.328.114-12.34.046-24.68.1-6.54.03-13.078.052-6.148.024-12.294.052l-4.526.018q-3.074.01-6.152.026l-1.83.002c-2.956-.05-2.956-.05-5.72.836z"/><path fill="#b19474" d="M66.673 459.94h14.46v29.646h-14.46c-.722-.724-.722-.724-.804-2.066l.01-1.734.006-1.684.02-2.154.046-6.824h-14.46v-.722l14.46-.724z"/><path fill="#341c1e" d="M392.041 415.112h29.644v15.184h-29.646z"/><path fill="#88989d" d="M362.395 415.112h29.644v15.184h-29.644z"/><path fill="#5a676e" d="M110.779 252.43h15.184v29.644h-15.184z"/><path fill="#596970" d="M81.135 60.102h15.182v29.644H81.135z"/><path fill="#909ea5" d="M421.683 445.48h29.646v14.46h-29.648z"/><path fill="#34191b" d="M421.683 430.296h29.646v14.46h-29.648z"/><path fill="#b4c1c4" d="M392.041 430.296h29.644v14.46h-29.646z"/><path fill="#8b9da4" d="M66.673 60.102h14.46v29.644h-14.46z"/><path fill="#8b9ca3" d="M259.001 60.102h14.46v29.644h-14.46z"/><path fill="#c1d2d5" d="M155.607 44.92h14.46v29.642h-14.46z"/><path fill="#5c696f" d="M421.683 459.94h29.646v14.46q-6.16.028-12.318.04l-4.192.016q-3.008.012-6.014.016l-1.906.012c-1.498 0-2.996-.038-4.492-.082l-.724-.724z"/><path fill="#becfd3" d="M162.837 267.614h7.23v58.566h-7.23z"/><path fill="#824f38" d="M288.645 341.364h14.46l.362 7.048.116 2.208.088.76.092.788c.14 3.52-.066 7-.296 10.514l-.36 5.602h-14.46z"/><path fill="#613624" d="M318.289 356.546h14.46c.592 9.79.674 19.142 0 28.922h-14.46z"/><path fill="#58686f" d="M66.673 149.036h14.46v28.92c-4.31 2.156-9.646.268-14.46 0z"/><path fill="#361b1d" d="M452.051 489.586h28.922v14.46h-28.92z"/><path fill="#30161a" d="M363.119 444.758h28.92v14.46h-28.92z"/><path fill="#5e6a71" d="M363.119 430.296h28.92v14.46h-28.92z"/><path fill="#889ba1" d="M52.213 119.392h28.92v14.46h-28.92z"/><path fill="#321519" d="M214.895 15.998h28.922v14.46h-28.92zm-118.578 0h28.922v14.46h-28.92z"/><path fill="#879ba2" d="M259.001 178.68h28.92v14.46q-6 .028-12.006.04l-4.088.016-5.864.016-1.858.01c-1.46 0-2.92-.036-4.38-.08l-.724-.724z"/><path fill="#601b24" d="M125.961 371.008h28.922c0 13.014 0 13.014-.722 14.46h-28.2z"/><path fill="#754533" d="M81.135 348.594h14.46l.722 7.23 14.46.722v13.74h-14.46v-7.232H81.135z"/><path fill="#331519" d="M274.185 60.102h13.738v28.92h-13.74z"/><path fill="#633522" d="M288.645 371.008h14.46v28.92h-11.568l.724-1.446-2.17-1.446c-.774-4.264-1.082-8.86-.316-13.15.574-2.176.574-2.176-1.13-4.202-.194-2.902-.062-5.764 0-8.676"/><path fill="#849ba0" d="M52.935 149.036h13.016v28.92H52.935z"/><path fill="#8ba0a6" d="M125.961.09h88.934v15.184h29.646v14.46h14.46v.724h-15.184v-14.46h-28.92v14.46h-15.184V15.274h14.46V.814h-88.212z"/><path fill="#613c2e" d="M21.845 326.18h14.46v.722H22.569v73.028h13.736l-.01-5.3q-.018-8.644-.026-17.288l-.018-10.488a5730 5730 0 0 1-.014-10.112q0-1.936-.008-3.868-.006-2.696-.006-5.396c0-.54-.004-1.076-.008-1.632.008-3.678.008-3.678.814-4.482a44 44 0 0 1 3.05-.096l1.86-.004.96.008.956-.008.86.004h1.72c1.332.096.332.096 2.054.82.064.02.078 2.048.072 3.074l-.006.684-.02 2.154-.046 6.824h-14.46v44.828H18.845z"/><path fill="#8a6747" d="M325.521 415.836h7.23v28.92h-14.46v-14.46h7.23z"/><path fill="#643723" d="M303.107 296.534h15.182v.724h-14.46v28.92h14.46v29.646h14.46v.722h-14.46v14.46h-14.46c-.84-2.518-.82-4.53-.814-7.184l-.004-2.686c.096-2.42.096-2.42.82-5.312h13.736v-28.92h-14.46z"/><path fill="#5e3323" d="M96.317 385.468h14.46v14.46l1.448.724H96.317v59.29h-14.46v14.46h-.722v-15.184h14.46l-.012-5.992q-.018-9.824-.026-19.652-.004-5.956-.016-11.91-.012-5.752-.014-11.504l-.008-4.378q-.008-3.078-.006-6.156l-.008-1.806c.008-4.16.35-8.218.812-12.352"/><path fill="#b0bcbe" d="M465.789 444.758h.724v14.46h14.46v.722h-14.46v14.46h-15.184v-14.46h14.46z"/><path fill="#5d666c" d="M347.211 400.652h.724v14.46h14.46v15.184h-14.46v-14.46l-1.446-.724z"/><path fill="#50515d" d="M273.461 311.72h14.46c.576 3.452.814 6.568.77 10.03l-.011.508q-.012.824-.036 3.644c-2 .666-3.168.808-5.228.794l-1.584-.006-2-.02-6.372-.044z"/><path fill="#4f515d" d="M52.213 311.72h14.46v15.906l-15.184-.724-.044-5.152-.02-1.596c-.012-2.966.292-5.462.788-8.436"/><path fill="#371c1c" d="M66.673 474.4h14.46v15.186h-14.46z"/><path fill="#351e1e" d="M451.329 444.758h14.46v15.182h-14.46z"/><path fill="#84989e" d="M273.461 149.036h15.184v14.46h-15.184z"/><path fill="#c3d2d7" d="M51.489 89.746h15.184v14.46H51.489z"/><path fill="#899ba1" d="M243.817 45.64h15.184v14.462h-15.184z"/><path fill="#b7c4c7" d="M436.145 445.48h15.184v14.46h-14.46c-.24-4.772-.48-9.544-.724-14.46"/><path fill="#90a0a6" d="m392.041 430.296 15.182.724v13.738h-15.184z"/><path fill="#c4d1d5" d="m125.961 15.274 14.462.724v14.46h-14.46z"/><path fill="#b4c3c6" d="M377.579 415.836h14.46v14.46h-14.46z"/><path fill="#8c6744" d="M259.001 371.008h14.46v14.46h-14.46z"/><path fill="#ae8a64" d="M347.935 371.008h14.46v14.46h-14.46z"/><path fill="#341715" d="M318.289 356.546h14.46v14.46h-14.46z"/><path fill="#c0d0d3" d="M273.461 237.97h14.46v14.46h-14.46z"/><path fill="#331719" d="M288.645 237.97h14.46v14.46h-14.46z"/><path fill="#301618" d="M37.029 237.97h14.46v14.46h-14.46z"/><path fill="#32181a" d="M52.213 222.786h14.46v14.46h-14.46z"/><path fill="#bdcdd3" d="M52.213 178.68h14.46v14.46h-14.46z"/><path fill="#889aa0" d="M273.461 119.392h14.46v14.46h-14.46z"/><path fill="#c3d0d4" d="M66.673 60.102h14.46v14.46h-14.46z"/><path fill="#34161b" d="M259.001 45.64h14.46v14.462h-14.46z"/><path fill="#56666d" d="M96.317 45.64h14.46v14.462h-14.46z"/><path fill="#c4cfd3" d="M81.135 45.64h14.46v14.462h-14.46z"/><path fill="#8c9fa4" d="M229.357 30.458h14.46v14.46h-14.46z"/><path fill="#c7d3d9" d="M96.317 30.458h14.46v14.46h-14.46z"/><path fill="#301719" d="M81.135 30.458h14.46v14.46h-14.46z"/><path fill="#c3d0d4" d="m52.213 237.97 6.824-.046 2.152-.021.686-.006.732-.012c1.344.084.344.084 2.066.806a46 46 0 0 1 .072 3.076l-.006.684-.02 2.154-.046 6.824h-14.46z"/><path fill="#8b9ca3" d="m275.527 89.664.734.012.684.006 2.154.02 6.824.044v14.46h-14.46l-.046-6.822-.02-2.154-.006-1.684-.012-1.734c.112-1.828.32-2.036 2.148-2.148"/><path fill="#361b1c" d="M480.973 475.124h14.46v13.74h-14.46z"/><path fill="#341a1c" d="M466.513 459.94h13.736v14.46h-13.736z"/><path fill="#2e1417" d="M66.673 45.64h14.46v13.74h-14.46z"/><path fill="#33171a" d="M244.541 30.458h13.736v14.46h-13.736z"/><path fill="#483639" d="M110.779 444.758h44.828v15.182c-.724.724-.724.724-3.394.806q-1.786 0-3.568-.012h-1.678l-6.228-.024-14.054-.046-.722 28.92h-15.184v-15.182h.722v14.46h13.74v-28.92h-14.462zm.722.722v13.738l5.74.046.81.02c1.34.004 2.68-.03 4.02-.066l.722-.724c1.98-.114 3.942-.186 5.922-.228l1.798-.046 5.7-.132 3.86-.094q4.734-.116 9.472-.222v1.446q1.81.044 3.616 0l.722-.724V445.48z"/><path fill="#a39899" d="M125.961.09h88.934v15.184h29.646v14.46h14.46v.724h-15.184v-14.46h-28.92v14.46h-.724v-14.46h-14.46v-.724h14.46V.814h-88.212z"/><path fill="#44363d" d="M199.713 444.758h44.828v15.182c-15.018.82-29.816.904-44.828 0v-3.614h4.338v1.446l2.178-.012q3.99-.018 7.976-.028l3.456-.014q2.48-.014 4.96-.016l1.57-.012c1.24 0 2.48.038 3.72.08l.722.724c1.128.114 2.26.182 3.392.23l2.07.092 2.176.086 2.184.094q2.68.116 5.362.222V445.48h-43.382l-.722.446z"/><path fill="#87898e" d="M51.489 149.036h1.446c.538 9.724.84 19.212 0 28.92h13.016v-28.92h.722v28.92h13.016v.724H52.213v28.92h14.46v15.186h-.722v-14.46h-14.46z"/><path fill="#311410" d="m34.861 342.811.444.722v56.398h-7.23v-.724l5.06-.724-.72-1.446a82 82 0 0 1-.072-4.094l.008-2.458.018-2.576.01-2.592q.012-3.178.034-6.356h-1.446v-4.338h1.446c.64-1.916.854-3.212.952-5.194l.092-1.832.086-1.966.094-2.02c.292-6.934.29-13.86.222-20.8"/><path fill="#7c4e40" d="M199.713 459.94h14.46v.724l-11.568.724v28.198h-1.446v5.784h6.506l-.722.446h-7.23z"/><path fill="#7f5043" d="M154.883 371.008h59.29v.722c-6.714.7-13.38.82-20.12.794l-3.222-.002q-4.194-.006-8.386-.02l-8.596-.014q-8.4-.01-16.796-.034l-.724 11.568 3.18-.012 11.86-.028 5.1-.014c9.944-.036 19.828.06 29.75.778v.722h-51.336z"/><path fill="#613423" d="M81.135 378.238a2146 2146 0 0 1 7.184-.046l2.072-.018.97-.006.824-.012c1.41.082.41.082 2.132.804v6.508H79.135z"/><path fill="#9a9294" d="M95.595 15.274h.722v29.644h14.46v-14.46h.724v14.46h14.46v.724h-14.46v4.338h-.722v-4.34h-14.46v14.462h-.724v-14.46h-28.92V59.38h-.724V44.92h29.644V30.458h-14.46v-.724h14.46z"/><path fill="#413231" d="M347.935 355.824h29.644v29.644h-14.46v-.722h13.014V357.27h-27.476v10.846h-.722z"/><path fill="#886245" d="M340.703 386.192h6.508v14.46h-6.508z"/><path fill="#53312a" d="M287.921 371.008h.724l.108.846.164 2.4.152 2.39c.106 2.134.106 2.134.746 3.486.156 2.456.058 4.164-.724 6.508.008.568.076 3.134.18 4.7l.148 2.508c.24 2.108.24 2.108.146 3.39 2.216.516 4.571.318 7.166.34l1.694.04c1.78.04 3.564.062 5.348.088l3.628.074q4.444.09 8.888.152v.722h-42.828v-.722h14.46z"/><path fill="#2d1d21" d="M97.041 252.43h13.738v29.644h-2.892v-12.292l1.446-.722-.362-1.762a36 36 0 0 1-.36-5.786c.038-2.87-.244-5.53-.724-8.36q-2.148.154-4.294.318l-2.414.178c-1.904.014-1.904.014-2.692.95q-.252 2.37-.406 4.746l-.184 2.624-.134 2.03h-.722z"/><path fill="#261314" d="M288.645 237.97h14.46v14.46h-14.46zm.724.722v13.014h9.4l.132-2.296.184-2.99.086-1.512c.14-2.22.336-4.098.042-6.216z"/><path fill="#796968" d="M303.107 296.534h15.182v.724h-14.46v28.92h14.46v29.646h14.46v.722h-14.46v5.786h-2.168l-.724-6.508h2.17v-28.92h-14.46z"/><path fill="#3d1314" d="M129.577 237.97h57.844l-.724.446q-10.37.166-20.74.32-4.816.07-9.632.148-4.65.074-9.296.14l-3.546.056q-2.484.04-4.968.074l-2.856.044a27.4 27.4 0 0 1-6.08-.782z"/><path fill="#554c4d" d="M362.395 430.296h.724v28.922h28.92l.724-1.446v1.446h28.92v.724h-28.92v14.46h-.724v-14.46h-29.644z"/><path fill="#6c686b" d="M495.433 474.4h.724v15.186q-3.864.06-7.728.09l-2.208.036-2.14.014-1.96.024c-2.06-.18-3.612-.758-5.486-1.61l.29-1.296c.656-2.938.306-5.872.88-8.828l-4.34-.722v-1.446l-1.626.768c-2.084.71-2.888.81-4.88-.046l-.724-1.446h13.738v13.74h14.46z"/><path fill="#5c6268" d="M244.541 222.786q6-.028 12.008-.04l4.088-.016 5.862-.016.86-.01c1.46 0 2.92.036 4.38.08.722.724.722.724.804 2.068l-.011.732-.008.872-.021.966c0 .652-.004.304-.008.976q-.012 2.424-.036 4.848h-7.23v-.724h3.616l.722-13.014-3.076.368c-5.014.504-10.002.346-15.034.2l-2.154-.032-1.938-.048c-1.984.28-2.594.868-3.826 2.404z"/><path fill="#9ba1a3" d="M257.555 203.264c1.446 2.711.446 2.711.446 4.338h-88.934v-.724l1.262-.008q15.22-.114 30.434-.236l14.72-.116q7.1-.052 14.204-.112l5.418-.04q3.796-.028 7.59-.062l2.26-.012c3.7-.04 7.232-.226 10.876-.86z"/><path fill="#5c4c4d" d="M303.107 430.296h.722v28.922l1.446-3.616h1.446v1.446c2.712.848 5.42.884 8.236.952l1.544.046q2.43.07 4.86.132l3.306.096q4.042.114 8.084.22v1.448h-29.644z"/><path fill="#423944" d="M259.001 297.258h9.4v.722l-1.556.292-2.014.386-2.008.382c-1.62.226-1.62.226-2.376.11-.036 2.16-.03 4.304 0 6.462.086 11.352-.36 22.682-.724 34.028H287.2v.724H259z"/><path fill="#281112" d="M259.001 45.64h14.46v13.74h-4.338l-.722-1.446c-1.37-.338-1.37-.338-2.938-.452l-2.846-.272v-.722l6.506-.724.724-9.4h-7.954l-.722.446v-1.446l-2.17.724z"/><path fill="#574b4e" d="M451.329 474.4h.722v14.462h28.2v.724h-28.2v14.46h-.722v-14.46h-29.648v-.724h29.646z"/><path fill="#391c1b" d="m319.735 418.728 4.34.722c1.06 3.781.608 6.928.446 10.846h-7.232l.724-1.446q.046-2.17 0-4.338c-.08-4.178-.08-4.178.722-5.784"/><path fill="#774b3e" d="M318.289 384.022v15.908h-15.182v-1.448q1.56-.028 3.118-.044l1.754-.026c1.634.071.634.07 3.804.794v-1.446l1.42-.411.472-1.036c.43-2.346.43-2.346.406-5.016.084-4.8.084-4.81.376-6.511.11-.766.11-.766.832-.766"/><path fill="#7c5144" d="m128.095 459.861.824.011.97.008 2.072.018 2.08.01q2.552.012 5.106.034l-.724.448h-13.014l.05 5.616.028 5.384.03 3.744q.026 2.688.032 5.38l.024.69c0 2.764-.04 4.028-1.61 6.384q-.028-6.16-.04-12.318-.004-2.098-.016-4.192l-.016-6.014-.01-1.906c0-1.498.036-2.996.08-4.492.724-.724.724-.724 2.134-.806"/><path fill="#4d292d" d="M243.817 222.786h.724v15.184c-12.398.722-24.7.7-37.11.436q-3.768-.076-7.536-.144-7.32-.14-14.644-.292v-.724h42.66l.722-5.784h.724v5.784h14.46z"/><path fill="#281a1f" d="M241.649 252.43h2.168v29.644h-14.46v-.722l2.138-.082 2.788-.144 2.77-.128c2.312-.194 2.312-.194 3.648-1.108.506-2.278.212-4.71.16-7.336l-.01-1.742q-.022-2.75-.068-5.504l-.03-3.732q-.036-4.572-.104-9.146"/><path fill="#271519" d="M451.329 474.4v14.462h-28.922v-5.06l.724 2.168.446.724h-1.446v1.446h24.582l.724-1.446h.722v-1.446l-1.446-.724h1.446l-.722-9.4c2.168-.722 2.168-.722 2.892-.722"/><path fill="#95a3a8" d="M199.713 15.998h14.46v11.568h-.724V18.89l-4.202.678-2.364.38c-2.146.342-2.146.342-4.281.11l-.72-1.446-1.448.446z"/><path fill="#49434e" d="M65.951 297.258h15.184c.112 14.478-.234 28.916-.724 43.382h-1.446l.724-41.936-13.74-.724z"/><path fill="#78493e" d="m37.029 397.036 2.4.332c3.74.466 7.484.692 11.248.89l2.078.131.982.104.794.1c1.632.041.632.04 2.912-1.556v3.616H35.029z"/><path fill="#532f26" d="M96.317 385.468h14.46v14.46l1.448.724H96.317v-.722c3.58-.24 7.16-.48 10.846-.724v-1.446l1.446-.724v-10.844H96.317z"/><path fill="#916e53" d="M259.001 371.008h5.784v.722h-3.614l.024.664.02 2.178.026 2.16c-.07.952-.07.952-.794 4.12h2.17v1.448l10.121.446v-6.508h.724v7.23h-14.461z"/><path fill="#6e6d71" d="M96.317 282.798h.724v3.614l1.446.724h-1.446l.722 48.442h.724l1.446 5.786h-3.616z"/><path fill="#261011" d="M52.213 193.864h.722l.724 12.292 13.738.722v1.446l2.168-.722.724 3.614h-1.446l.722 7.232h-1.446l-.722 3.614h-.724v-14.46h-14.46z"/><path fill="#2a1f25" d="M259.001 193.14h28.2v2.17l-2.2-.034a1162 1162 0 0 0-8.106-.086q-1.752-.014-3.504-.044-2.52-.038-5.044-.048l-1.574-.034c-3.212 0-5.18.5-7.772 2.416z"/><path fill="#6a605d" d="M347.211 400.652h.724v14.46h14.46v.724l-2.296.08-2.992.146-1.512.05c-2.032.108-3.684.24-5.468.26-1.14 2.068-.952 3.856-.882 6.192l.136 4.564 11.568.722v.724h-13.014v-13.74l-1.446-.72z"/><path fill="#533123" d="M273.461 356.546h.724v13.74h5.784v.72h-5.784v15.186h-15.184v-.724h14.46v-14.46h-14.46v-.724h14.46z"/><path fill="#636468" d="M229.357 237.97h12.292c-2.17 2.168-2.17 2.168-4.28 2.22l-2.364-.278-4.202-.496.722 11.568 11.57.722v.724h-13.74z"/><path fill="#26151b" d="M96.317 252.43h.724v11.568h1.446v17.354h3.616v.722q-2.532.044-5.062 0c-.724-.722-.724-.722-.806-3.46q0-1.83.012-3.66l.004-1.942q.008-3.084.02-6.166l.012-4.17q.012-5.124.034-10.246"/><path fill="#3d1710" d="M123.793 496.816h29.644v.722l-1.638.108-2.158.164-2.134.152c-1.992.188-1.992.188-3.514.046-1.718.86-2.928.846-4.836.79l-1.75-.04-1.322-.05v-2.17l-1.322.342-1.752.428c-.57.14-1.14.284-1.728.432-3.054.44-4.722-.54-7.49-1.924"/><path fill="#969b9e" d="M285.753 190.248h2.17v2.892q-5.368.054-10.734.08l-3.652.03q-2.622.024-5.244.032l-1.654.022c-1.342 0-2.684-.074-4.022-.164l-1.446-1.446c2.15-1.074 4.3-.726 6.648-.634l1.55.05q2.452.086 4.906.178l3.324.114q4.08.14 8.154.292z"/><path fill="#585458" d="M36.305 252.43h.724l.054.37q.128 3.066.262 6.132l.086 2.158.092 2.06.081.906c.058.592.058.592.872 3.004.052 2.084.068 4.152.046 6.236l-.01.756q-.015 2.15-.037 4.3h10.122v.722q-2.868.028-5.74.046l-1.652.018a132 132 0 0 1-4.176-.064c-.724-.722-.724-.722-.806-3.46q0-1.83.012-3.66l.004-1.942q.008-3.084.02-6.166l.012-4.17q.012-5.124.034-10.246"/><path fill="#bec1c5" d="M51.489 89.746h15.184v14.46h-.722l-.724-13.014-12.292-.722v11.568l1.446.724-.722.446h-2.17z"/><path fill="#27151d" d="m288.645 149.76 2.17.72-.16 2.2c-.388 5.686-.624 11.344-.584 17.044l.012.746q.03 3.54.078 7.082.028 2.636.046 5.272l.031.61c.014 2.932-.24 4.278-1.592 6.984z"/><path fill="#3d1610" d="M66.673 420.174h.724v6.508l4.338-.724v2.17l2.8.044.578.026c1.466.021.466.02 2.852-.794l.724-1.446h1.446v4.34h-14.46z"/><path fill="#2c1e22" d="M259.723 49.256h.724v6.508h1.446v1.446h6.508l.722 2.17h4.34v.722h-14.462c-.07-7.838-.07-7.838 0-10.122z"/><path fill="#221213" d="M481.695 475.124h13.74v13.74h-14.462V478.74h.722c1.538 5.422.538 5.422.724 8.676h11.568l.724-11.568h-13.016z"/><path fill="#5a5c60" d="M392.041 445.48h15.182v.724h-13.014l.722 2.892q.098.83.092 3.66l.004.878c-.096.692-.096.692-.82 3.86l-2.168-.722z"/><path fill="#2c1412" d="m319.013 414.39 2.892.446v1.446h1.446l2.17-2.892v10.846c-1.446-2.892-1.446-2.892-1.446-5.786l-1.764.362c-1.852.362-1.852.362-2.576.362l-.722 8.676.446.724h-2.17q-.028-3.186-.044-6.372l-.02-1.826-.006-1.76-.012-1.616c.082-1.44.082-1.44.806-3.61"/><path fill="#1f1113" d="M244.541 30.458h7.23l-.724.446-5.06.722-.724 11.57h12.292v-13.74h.722v14.462H244.54z"/><path fill="#86989f" d="m199.713 16.721.446 2.892.446-2.168q.058 2.28.09 4.564l.05 2.566c-.148 2.372-.602 3.452-2.31 5.16h13.738v.724h-14.46z"/><path fill="#281a1e" d="m421.683 430.296.448.724c.344 2.076.608 4.1.812 6.19l.191.768q.23 2.166.444 4.334l11.568.722v.724h-14.46z"/><path fill="#909fa6" d="M274.185 149.036h13.738v13.738h-1.446l.024-2.164.02-2.808.026-2.796c.096-2.274.096-2.274-.794-3.8a78 78 0 0 0-5.83-.454l-1.66-.084q-2.04-.1-4.08-.186z"/><path fill="#633a2d" d="M37.029 341.364q3.412-.028 6.824-.046l1.966-.021.872-.006.732-.01c1.344.08.344.08 2.066.804.064.024.078 2.05.072 3.076l-.008.872-.021.966c0 .652-.004.304-.008.976q-.012 2.424-.036 4.848h-1.446v-2.892l-1.446-.724h1.446l-.722-9.4H35.028z"/><path fill="#916b4b" d="M340.703 386.914h.724l.108.48.164.954.152.932c.298.858.814 3.136.746 4.756h2.892l.722-2.168v5.784h-6.508z"/><path fill="#76878d" d="M110.779 30.458h.722v14.46h14.46v.724h-14.46v4.338h-.722v-4.34H97.041v-.72h13.738z"/><path fill="#1d0b0b" d="M81.857 459.94h6.508v.724l-5.061.446c-.24 3.818-.48 7.636-.724 11.568h23.86v.724H81.856z"/><path fill="#2d130e" d="M259.001 402.82h.722l.044 2.012q.086 3.706.186 7.406.042.602.076 3.202.052 2.306.12 4.61c.02.924.044.848.068 2.8.212 2.194.414 3.492.676 5.278.748.506.748.506 3.706.54l1.994.126.53.056v.724h-8.122z"/><path fill="#2e1722" d="M279.245 294.366v.722l7.232.724v.722h-26.03l.724-1.446.378.026c2.992.032 5.912.028 8.88-.386 2.674-.352 5.128-.42 7.816-.362"/><path fill="#7a4c3a" d="M110.055 356.546h.724v13.74h-10.122v-.724h7.23l.106-1.746c.538-7.61.538-7.61 2.062-11.27"/><path fill="#d0d1d5" d="M52.213 178.68h.722l.134 2.164.36 5.604c.218 2.564.218 2.564.676 4.524q2.366.426 4.744.768l2.624.386 2.032.292v-1.446h1.446v2.168h-13.74z"/><path fill="#422011" d="M347.935 385.468h14.46l-.722 2.17q-3.03.03-6.056.044l-1.74.02c-4.332.018-4.332.018-5.942-.788z"/><path fill="#cfd2d7" d="M66.673 60.102c1.446.724.446.724 2.171.446.062.972.076.946.07 2.918l-.006.772-.021.862-.011.872q-.012 2.296-.034 4.59h-2.17z"/><path fill="#60392e" d="M316.843 356.546h.724c.746 4.858.78 9.548.722 14.46h-13.014v-.72h9.4l.722-2.17h.724z"/><path fill="#89989b" d="m77.519 190.972.446.722v1.446H65.673l.724-2.168c3.464-1.156 6.694-1.144 10.122 0"/><path fill="#c8cdce" d="M449.881 449.096h1.448v10.122h-13.016c2.956-1.478 3.606-1.58 6.688-1.174l1.956.242.48.208.722-2.168v2.168h1.446l-.722-1.084c-1.05-2.622-.862-4.772-.724-7.592z"/><path fill="#645f62" d="M244.541 222.786h27.474v.722c-4.308.52-8.54.75-12.88.696l-2.248-.028q-2.256-.034-4.512-.1l-2.12-.032-1.91-.048c-1.968.284-2.58.882-3.804 2.404z"/><path fill="#280f0c" d="M66.673 475.124h11.57l-.724.446-7.23-.722-1.446 6.508h-.724l-.722 6.506h-.724z"/><path fill="#251518" d="M66.673 193.864h14.46v13.014h-.72l-.134-1.398-.184-1.81-.18-1.804c-.074-1.486-.074-1.486-.95-2.218v-5.06H66.673z"/><path fill="#666569" d="M105.717 237.97h5.06v14.46l-2.168-.724.362-2.032c.532-3.648.42-7.304.36-10.982l-4.336.724z"/><path fill="#402013" d="M317.567 437.526h.722v7.232h14.46v.722l-2.71.316c-2.036.254-3.992.554-5.964.13v-.722h-7.954l.722-2.892q.228-1.534.408-3.074z"/><path fill="#211316" d="M96.317 223.508h.724l.132 2.506.184 3.234.086.654c-.084 2.67-.084 2.671.044 4.898q2.188.252 4.384.406l2.42.184.872.132.724-1.446h2.892v2.17H94.32z"/><path fill="#5d6065" d="M96.317 282.074h14.46c-3.1 2.326-4.056 2.48-7.772 2.666l-2.564.144-1.954.082.724.446h-2.17z"/><path fill="#fcf6f4" d="M363.119 386.192h10.844c-1.446.446-1.446.446-4.066.536l-2.44-.09-.724 2.168-3.614.724z"/><path fill="#211316" d="M243.095 223.508h.722v13.738h-13.014l.722-1.446 2.006.05 2.604.04 2.592.052c2.28.096 2.28.096 3.644-1.588.22-1.858.37-3.65.452-5.514l.084-1.548q.1-1.89.188-3.784"/><path fill="#34140e" d="M84.027 375.346h1.446l.722.722v-.722h3.616v.722h5.784l-.724 2.17H83.303z"/><path fill="#542025" d="M125.961 371.008h9.4v1.446l-2.35.27c-3.154.526-4.806.102-7.048 3.344z"/><path fill="#29191f" d="M50.043 321.84h1.446v18.8q-.712-.358-1.446-.722l.724-14.46h-1.446z"/><path fill="#382c31" d="M123.793 341.364h2.17v14.46h-.724v-3.616h-1.446z"/><path fill="#8f9598" d="m268.491 191.288.652.114q2.02.14 4.04.292v1.446q-2.844.058-5.692.092l-1.636.036a68 68 0 0 1-4.24-.128l-1.444-1.446c2.322-1.16 4.792-.596 7.32-.406"/><path fill="#3a120e" d="M200.435 496.816h11.568c-2.856.904-4.734 2.258-8.088 2.214l-1.974-.02-1.506-.026z"/><path fill="#2a1316" d="M363.841 446.926h1.446v1.446l2.17.724-1.446.722c-.606 2.484-.606 2.484-.724 5.06l1.446.448q-1.062.106-2.168 2.168h-.724z"/><path fill="#462317" d="m322.629 424.512.722.446h2.17v4.34h-7.232l1.764-1.266c1.836-1.614 2.322-2.166 2.576-4.52"/><path fill="#6c6d70" d="M449.881 472.232c.24.716.481.432.724 2.17h-12.292l.724-1.446c1.892-.31.892-.3 4.248-.452l2.344-.164a82 82 0 0 1 4.254-.108"/><path fill="#1f1213" d="M420.237 466.448h1.446a548 548 0 0 1 .046 3.57l.026 2.008c-.072.652-.072.652-.794 2.376-1.93.1-3.85.03-5.784 0l.722-1.446c1.854-.452.854-.452 3.616-.724z"/><path fill="#2f1c1e" d="M259.001 197.48h.722l.134.82.184 2.38.178 2.366c.158 2.152.158 2.152.952 4.28-.68.94-.68.94-1.448 3.614h-2.168l-.724-1.446.724-2.17h1.446z"/><path fill="#230c0c" d="M66.673 420.174h.724v6.508l4.338-.724c-.632 2.802-.632 2.802-1.446 3.616h-3.616z"/><path fill="#31110c" d="M97.041 349.316h.722v3.616h2.17v1.446l2.17.722c-.724.724-.724.724-3.3.77l-2.486-.046c-.07-4.448-.07-4.448 0-5.784z"/><path fill="#754b3f" d="m89.541 348.548.756.01q2.148.012 4.298.036l-.724 2.892-1.446-.724v-1.446q-2.08.098-4.156.226l-2.34.128c-2.312.392-3.356.984-5.072 2.54v-2.894c2.394-1.196 5.056-.796 7.682-.768"/><path fill="#6b6d70" d="M125.961 342.81h2.17c.268 9.16.268 9.16-1.446 13.014h-.722z"/><path fill="#34160a" d="m363.119 371.73 2.892.724-1.446 2.168c-.176.986-.176.986-.092 4.114l.04 2.176.052.664 2.168.724h-2.168v1.446h-1.446z"/><path fill="#33150b" d="M317.567 430.296h.722q.086.74.136 3.48c.04.968.04.968.076.958-.212.792-.212.792-2.38 3.962v-7.954h1.446z"/><path fill="#805748" d="M297.321 341.364h5.786v8.676h-.724q-.392-1.398-.768-2.802l-.432-1.576c-.246-1.406-.246-1.406.478-2.852l-4.34-.724z"/><path fill="#908f92" d="M301.661 278.46c1.446 2.81.446 2.81.446 3.614h-14.46v-.722h11.566v-2.17z"/><path fill="#3e1a0d" d="M339.257 396.314h.724v3.616c-4.88.09-4.88.09-6.508-.724v-1.446c4.158-.814 4.158-.814 5.784 0z"/><path fill="#83634f" d="M264.785 371.008h8.676l-1.446 2.892-3.614-.724v-1.446h-3.616z"/><path fill="#431e11" d="M318.289 368.116h2.17v2.168h12.292v.724h-14.46z"/><path fill="#99a5a9" d="M199.713 15.998h10.844v.722l-8.676.724-.722 3.614h-.724z"/><path fill="#311006" d="M81.857 459.94h6.508v.724l-5.061.446c-.24 3.34-.48 6.68-.724 10.122h-.724z"/><path fill="#845846" d="M288.645 341.364h5.06l-.72 2.168h-1.448v1.446h-2.892z"/><path fill="#290f15" d="M107.887 26.842h2.892l.722 2.892h-12.29v-.722h8.676z"/><path fill="#473f49" d="M243.095 454.88h.722v4.338h-13.014v-.724l2.32-.056 3.012-.124.53-.03c1.652-.051.652-.05 3.984-.512.13-1.384.13-1.384.446-2.892"/><path fill="#70402c" d="M315.397 368.116h2.17v2.892h-12.292v-.724h9.4z"/><path fill="#959fa1" d="m37.029 253.152 2.892.724q-.344.55-.694.12c-.998 2.352-1.062 4.468-1.204 7.014l-.164 2.768-.108 2.112h-.722z"/><path fill="#909396" d="M67.397 190.972h2.168v1.446l9.4-.724v1.446H66.673z"/><path fill="#64636a" d="m452.051 485.248 3.616.722.722 2.17c-.722.722-.722.722-2.576.768l-1.76-.046z"/><path fill="#6c696d" d="M430.361 472.956v1.446h-7.954v-1.446c2.906-.608 5.074-.762 7.954 0"/><path fill="#999fa1" d="M363.119 415.836h9.4v.722l-2.396.318c-2.616.32-2.616.32-4.836.128l-1.446-.722-.722.446z"/><path fill="#39140e" d="M108.609 490.308h2.17v5.06c-.716.24-1.432.48-2.17.724z"/><path fill="#231214" d="M452.051 489.586h7.23v.722l-5.06.724-1.446 4.338h-.724z"/><path fill="#592028" d="M111.501 222.786h8.678v.722l-6.508.724-1.446 3.614h-.724z"/><path fill="#906b53" d="M318.289 430.296h7.954c-3.651.826-3.651.826-5.784 2.17l-2.17-.724z"/><path fill="#6e483d" d="m65.951 429.574 5.06.722q-1.41.494-2.892 2.892h-1.446z"/><path fill="#301924" d="m155.607 445.48.722 2.17h1.446c.24.716.481.43.724 2.168l-1.446.446h-1.446z"/><path fill="#663c30" d="M81.857 378.96h5.06l-1.354.408c-2.31.556-2.4 3.48-2.982 6.1h-.724z"/><path fill="#291514" d="M305.275 455.602h1.446v1.446l2.892.724c-.722.722-.722.722-2.936.768l-2.124-.046z"/><path fill="#3d160f" d="M311.781 400.652h5.062l-.722 2.17-4.34-.724z"/></svg>