<svg xmlns="http://www.w3.org/2000/svg" width="512" height="512" viewBox="0 0 512 512"><path fill="#36181a" d="M211.533.406h88.934V15.59h29.644v14.461h14.822v14.822h14.823v14.822h14.822V89.34H389.4v103.756h-14.822v14.822h-14.822v14.822h14.822v14.822H389.4v14.823h14.822v44.466H389.4v29.645h14.822v74.11H389.4v14.823h-29.644v14.822h-14.823v29.645h-7.23v14.822h-7.592v14.46h14.822v22.415h-74.11v-66.88H256v66.88h-74.111v-22.414h14.822v-14.46h-29.283v14.46c-.361.361-.361.361-1.763.402q-.937 0-1.876-.005l-.882-.001q-1.637-.004-3.274-.012l-7.389-.023v-14.822h-14.822V429.89h14.822v-14.46H122.6v-14.823h-14.822v-74.111H122.6V296.85h-14.822v-44.466H122.6v-14.823h14.822V222.74h14.822v-14.822h-14.822v-14.822H122.6V89.34h14.822V59.695h14.822V44.873h14.823V30.051h14.822V15.229h29.644z"/><path fill="#361819" d="M107.777 252.385H122.6v29.644h59.289v14.823h14.822v-7.592h14.822v7.592h14.822v29.644h-14.822v29.644h118.578v-74.11H389.4v-29.645h14.822v44.467H389.4v29.644h14.822v74.111H389.4v14.822h-29.644v14.823h-14.823v29.644h-7.23v14.822h-7.592v14.461h14.822v22.414h-74.11v-66.88H256v66.88h-74.111V489.18h14.822v-14.46h-29.283v14.46c-.362.362-.362.362-1.763.403q-.938 0-1.876-.006l-.882-.001q-1.638-.004-3.274-.012l-7.389-.022v-14.823h-14.822V429.89h14.822v-14.46H122.6v-14.823h-14.823v-74.111H122.6v-29.644h-14.823z"/><path fill="#46535a" d="M211.533.406h88.934v.362h-88.572v14.46h58.927v103.756h103.394v74.112h-29.283v14.822H167.067v-14.822h-29.283v14.822h-.362v-14.822H122.6V89.34h14.822V59.695h14.822V44.873h14.823V30.051h14.822V15.229h29.644z"/><path fill="#58686f" d="M152.244 207.918h.362v14.822h29.283v14.823h14.822v14.822h118.578v-14.822h14.822V222.74h44.467v14.823H389.4v44.466h-59.289v74.111H211.533v-29.644h14.822v-29.645h-14.822v-7.591h-14.822v7.591h-14.822V282.03h-59.29v-44.466h14.823V222.74h14.822z"/><path fill="#596970" d="M137.783 148.629h14.461v29.645h14.822v-29.645h207.15v44.467h-29.283v14.822H167.066v-14.822h-29.283z"/><path fill="#36181a" d="M181.889 400.607h14.822v29.645h147.86v29.283h-6.868v15.184h-7.592v14.46h14.822v22.414h-74.11v-66.88H256v66.88h-74.111V489.18h14.822v-14.822h-29.283v-14.822h14.46zM389.4 252.385h14.823v44.467H389.4v29.644h14.823v74.111H389.4v14.822h-29.644v14.461h-14.822v-44.467H330.11v-14.46h14.823v-15.184H330.11v-73.75h59.29z"/><path fill="#596a71" d="M285.645 15.59h44.466v14.461h14.822v14.822h14.823v14.822h14.822V89.34H389.4v.361h-14.822c.014 4.743.014 4.743.033 9.486l.002 1.777.006.94c0 .753-.018 1.506-.041 2.258-.706.707-1.786.406-2.727.408l-1.04-.003-1.095.001q-1.835 0-3.671-.003h-2.66q-3.214 0-6.426-.004l-7.428-.003q-9.811-.004-19.623-.012l-44.263-.022z"/><path fill="#465259" d="M211.895.768h88.572V15.59h-14.823v88.934l88.572-.362.362-14.46H389.4v103.394h-14.822v14.822h-.362v-88.934H270.822V15.23h-58.927z"/><path fill="#36181a" d="M107.777 252.385H122.6v29.644h59.289v14.823h14.822v-7.592h14.822v7.592h14.822v29.644h-14.822v-22.053h-14.822v7.23h-7.592v29.645h-7.23v7.23h-14.823v-7.23h-14.822v-14.822h14.822v-29.644h-29.644v44.466H122.6v58.928h-14.461v-73.75h14.46v-29.644h-14.822z"/><path fill="#869da4" d="M181.889 15.229h29.644v.361H182.25v14.461c4.743-.014 4.743-.014 9.486-.033l1.776-.002.94-.006c.754 0 1.507.018 2.259.041 3.495 3.495.361 9.88.361 14.822h29.283v59.65h-59.289V89.702h-14.46v14.461h-15.184v-14.46H122.6v-.362h14.822V59.695h14.822V44.873h14.822V30.051h14.823z"/><path fill="#879ea6" d="M241.178 15.59h29.644v103.756h44.467v14.46H167.067v-14.46h74.11z"/><path fill="#5a6a71" d="M211.533.406h88.934v.362h-88.572v14.46h58.927v.362h-29.644v103.756h-74.111v14.46h-29.283v-29.644h14.822v-14.46h14.46v14.822h59.29v-59.65h-29.283c-.12-4.773-.24-9.545-.362-14.462l-14.46-.361v-14.46h29.282z"/><path fill="#859da4" d="M167.066 148.629H315.29v14.822h14.822v14.823H167.066z"/><path fill="#79614d" d="M330.111 385.785h14.823v44.105h14.822v.362h-14.822v29.644h-7.23v-.361h6.868V429.89h-147.5v-29.283h133.04z"/><path fill="#58676e" d="M152.244 207.918h.362v14.822h29.283v14.823h14.822v14.822h14.822v29.644H122.6v-44.466h14.822V222.74h14.822z"/><path fill="#57686f" d="M330.111 222.74h44.467v14.823H389.4v44.466h-74.11v-44.466h14.822z"/><path fill="#869ea5" d="M211.533 252.385h14.822v14.822H256v74.111h-29.645v-44.466h-14.822v-7.592h-14.822v7.592h-14.822v-14.823h29.644z"/><path fill="#884f3a" d="M167.066 378.193h14.823v7.592h14.822v14.46h133.4v.362H197.072v29.283h147.5v.362H196.71v-29.645h-14.822v58.928h-14.461v14.822h29.283v.362h-29.283v14.46c-.362.362-.362.362-1.763.403q-.938 0-1.876-.006l-.882-.001q-1.637-.004-3.274-.012l-7.389-.022v-14.822h-14.822V429.89h14.822v-14.46h.362v14.46h14.46z"/><path fill="#869ea5" d="M270.822 267.207h29.645v14.822h14.822v44.467h-14.822v14.822h-29.645z"/><path fill="#859da3" d="M167.066 193.096h177.867v14.822H167.066z"/><path fill="#879fa6" d="M211.533 45.235h14.822v58.927h-58.927v-14.46c4.772-.12 9.544-.24 14.46-.362.12-9.663.24-19.327.362-29.283 16.626-.416 16.626-.416 22.776-.384l6.507.022zm74.112 0h14.822v14.46h14.822v14.823h14.822v29.644h-44.466z"/><path fill="#36181a" d="M197.875 237.518h1.088l1.25-.002 1.39.003h1.465q2.02-.002 4.04.002h4.352q3.772 0 7.544.003 5.454.004 10.908.005 8.847 0 17.695.006 8.598.006 17.194.008h1.07l5.313.001q22.052.006 44.105.019v14.822H196.71c0-14.802 0-14.802 1.164-14.867"/><path fill="#946a42" d="M196.711 304.443h14.822v22.053h-14.822v36.875h14.822v14.822h-14.822v-7.23h-14.822v-7.592h-14.822v-7.23h-14.823v-14.823h14.823v7.23h14.822v-7.23h7.23v-29.644h7.592z"/><path fill="#683a26" d="M403.861 326.496h.362v74.111H389.4v14.823h-29.644v-.362h29.283v-14.822h-29.283V356.14h14.822v-14.823H389.4v58.928h14.461z"/><path fill="#869da4" d="M374.217 222.74h.361v14.823H389.4v44.466h-15.183v-14.822h-29.283v-29.644h29.283z"/><path fill="#36171a" d="M374.578 89.702H389.4v103.394h-14.822z"/><path fill="#36181a" d="M122.6 89.702h14.822v103.394H122.6z"/><path fill="#869da4" d="M137.422 222.74h.361v14.823h29.283v29.644H122.6v-29.644h14.822z"/><path fill="#3b4051" d="M344.934 296.852h29.644v44.466h-29.644z"/><path fill="#becfd4" d="M167.066 193.096H256v14.822h-88.934z"/><path fill="#351619" d="M211.895.768h88.572V15.59q-5.57.017-11.14.023h-.914c-16.303.015-32.605-.1-48.907-.204l-1.029-.006q-13.29-.085-26.582-.174z"/><path fill="#a39179" d="M211.533 415.43h88.934v14.46h-88.934z"/><path fill="#864e3a" d="M211.533 459.535q14.824 0 29.645.361v36.875H196.71v-7.23h-14.46v22.052h-.362V489.18h14.822v-14.46h.362v14.46h14.46z"/><path fill="#693b27" d="M285.645 459.896h29.644v29.283h14.46v-14.46h.362v14.46h14.822v22.414h-.361v-22.052h-14.46v7.23h-44.467z"/><path fill="#3b4051" d="M137.422 296.852h29.644v29.644h-14.822v14.822h-14.822z"/><path fill="#86503c" d="M107.777 326.496h.362v73.75h14.46v-58.928h14.823v44.467h7.592v14.822H122.96v14.461h29.283v.362H122.6v-14.823h-14.823z"/><path fill="#b1946d" d="M137.422 429.89h14.822v.362h-14.46v44.105h14.46l-.022-5.58c-.015-8.271.097-16.54.203-24.81l.013-1.023q.081-6.345.168-12.692h14.46v44.105h29.645v.362h-29.283v14.46c-.362.362-.362.362-1.763.403q-.938 0-1.876-.006l-.882-.001q-1.637-.004-3.274-.012l-7.389-.022v-14.822h-14.822z"/><path fill="#5a6b72" d="M270.822 118.985h103.394v14.822H315.29v-14.461h-44.467z"/><path fill="#874e3a" d="M241.178 370.963h59.289v14.822h-59.29z"/><path fill="#833433" d="M211.533 222.74h59.29v14.823h-59.29z"/><path fill="#859da4" d="M137.783 148.629h14.461v29.645h14.822v14.822h-29.283z"/><path fill="#c0d1d5" d="M167.066 119.346h59.29v14.46h-59.29z"/><path fill="#763d37" d="M196.711 304.443h14.822v22.053h-14.822v29.645h-14.822v-14.823h7.23v-29.644h7.592z"/><path fill="#683924" d="M137.422 341.318h14.822v59.29h-7.23v-14.823h-7.592z"/><path fill="#3b3e50" d="M285.645 444.713h44.466v15.183h-44.466zm-87.839-.045.984.001 1.126-.001c.412 0 .823.002 1.246.004h1.304q1.774 0 3.55.004l3.705.003q3.51.002 7.021.008 3.996.006 7.992.007 8.221.006 16.444.019v15.183H196.71c0-15.161 0-15.161 1.095-15.228"/><path fill="#611922" d="M270.822 222.74h44.467v14.823h-44.467z"/><path fill="#c3d2d6" d="M211.533 45.235h14.822v29.283h-29.282V60.057h14.46z"/><path fill="#351719" d="M137.783 430.252h14.461v44.105h-14.46z"/><path fill="#673824" d="M167.066 378.193h14.823v7.592h-14.461v44.105h14.46v29.645h-14.46v14.822h-.362v-44.105h-14.46v29.283h-.362V415.43h.362v14.46h14.46z"/><path fill="#874e39" d="M285.645 459.896h14.822v36.875h-14.822z"/><path fill="#6a3b26" d="M226.355 459.896h14.823v36.875h-14.823z"/><path fill="#869da5" d="M137.783 118.985h88.572v.361h-59.289v14.46h-29.283z"/><path fill="#601922" d="M300.467 370.963h29.644v14.46h14.822v.362c-10.26.43-20.508.345-30.774.203l-1.021-.014q-6.336-.089-12.671-.189z"/><path fill="#966b43" d="M152.244 341.318h14.822v7.23h14.823v14.823h-14.823v-7.23h-14.822z"/><path fill="#35191b" d="M315.289 252.385h14.822v29.644H315.29z"/><path fill="#58676e" d="M196.711 252.385h14.822v29.644h-14.822z"/><path fill="#35191b" d="M181.889 252.385h14.822v29.644h-14.822z"/><path fill="#596a71" d="M152.244 148.629h14.822v29.645h-14.822z"/><path fill="#36181b" d="M300.467 15.59h29.644v14.823h-29.644z"/><path fill="#869da5" d="M344.934 178.274h29.282v14.822h-29.282z"/><path fill="#c0d2d5" d="M241.178 45.235H256v29.283h-14.822z"/><path fill="#351619" d="M182.25 15.59h29.283v14.823a910 910 0 0 1-29.283-.362z"/><path fill="#c1d2d7" d="M248.77 267.207H256v59.289h-7.23z"/><path fill="#894e39" d="M152.606 430.252h14.46v29.283h-14.46z"/><path fill="#89a0a7" d="M152.606 60.057h14.46V89.34h-14.46z"/><path fill="#37171a" d="M359.756 60.057h14.46V89.34h-14.46z"/><path fill="#889fa7" d="M344.934 60.057h14.46V89.34h-14.46z"/><path fill="#596a72" d="M167.428 60.057h14.46V89.34h-14.46z"/><path fill="#36171a" d="M137.783 60.057h14.461V89.34h-14.46z"/><path fill="#946b43" d="M196.711 304.443h14.822v21.692h-14.822v-7.23h-7.23v-7.231h7.23z"/><path fill="#613929" d="M181.889 385.785h14.822v14.46h133.4v.362H197.072v29.283h147.5v.362H196.71v-29.645h-14.822z"/><path fill="#601922" d="M330.111 355.78h14.823v15.183H330.11z"/><path fill="#621922" d="M196.711 222.74h14.822v14.823l-14.822.361z"/><path fill="#631a22" d="M226.355 370.963h14.823v14.822h-14.823z"/><path fill="#361819" d="M137.422 341.318h14.822v14.823h-14.822z"/><path fill="#683924" d="M122.6 341.318h14.822v14.823H122.6z"/><path fill="#58676e" d="M181.889 282.03h14.822v14.822h-14.822z"/><path fill="#34191a" d="M374.578 237.563H389.4v14.822h-14.822z"/><path fill="#35191b" d="M122.6 237.563h14.822v14.822H122.6z"/><path fill="#859ca4" d="M152.244 178.274h14.822v14.822h-14.822z"/><path fill="#8a9fa7" d="M285.645 15.59h14.822v14.823h-14.822z"/><path fill="#c0d0d4" d="M211.533 15.59h14.822v14.823h-14.822z"/><path fill="#864e38" d="M374.578 370.963h14.46v14.822h-14.46z"/><path fill="#bf9866" d="M167.066 348.91h14.823v14.46h-14.823z"/><path fill="#505460" d="M359.756 311.674h14.46v14.822h-14.46zm-221.973 0h14.461v14.822h-14.46z"/><path fill="#c0d1d5" d="M359.756 237.563h14.46v14.822h-14.46z"/><path fill="#c0d0d5" d="M137.783 237.563h14.461v14.822h-14.46z"/><path fill="#341819" d="M359.756 222.74h14.46v14.823h-14.46z"/><path fill="#34181a" d="M137.783 222.74h14.461v14.823h-14.46z"/><path fill="#c0d1d6" d="M137.783 178.274h14.461v14.822h-14.46z"/><path fill="#859da4" d="M359.756 148.629h14.46v14.822h-14.46z"/><path fill="#351819" d="M152.606 474.719h14.46v14.46h-14.46z"/><path fill="#879da5" d="M359.756 119.346h14.46v14.46h-14.46z"/><path fill="#879ea5" d="M359.756 89.702h14.46v14.46h-14.46z"/><path fill="#c2d3d6" d="M137.783 89.702h14.461v14.46h-14.46z"/><path fill="#c3d2d7" d="M152.606 60.057h14.46v14.46h-14.46z"/><path fill="#341619" d="M344.934 45.235h14.46v14.46h-14.46z"/><path fill="#89a0a7" d="M330.111 45.235h14.461v14.46h-14.46z"/><path fill="#c3d3d5" d="M167.428 45.235h14.46v14.46h-14.46z"/><path fill="#341618" d="M152.606 45.235h14.46v14.46h-14.46z"/><path fill="#586970" d="M182.25 45.235h14.461v14.46h-14.46z"/><path fill="#341719" d="M330.111 30.413h14.461v14.46h-14.46z"/><path fill="#88a0a7" d="M315.289 30.413h14.46v14.46h-14.46z"/><path fill="#c3d3d6" d="M182.25 30.413h14.461v14.46h-14.46z"/><path fill="#341619" d="M167.428 30.413h14.46v14.46h-14.46z"/><path fill="#be9966" d="M196.711 304.443h7.592v14.461H189.48v-7.23h7.23z"/><path fill="#857878" d="M181.889 15.229h29.644v.361H182.25v14.461h14.461v.362h-29.283v14.46h14.46v.362h-29.282v14.46c4.743-.014 4.743-.014 9.485-.032l1.777-.003.94-.005c.753 0 1.506.018 2.258.04.626.626.405 1.431.407 2.265l-.004.826v.866q0 1.422-.006 2.846l-.001 1.968q-.003 2.595-.01 5.19-.005 3.111-.007 6.222-.006 4.731-.017 9.462h14.46v.361h-14.46v14.461h58.927v.362h-59.289V89.7h-14.46v14.461h-.362v-14.46h-14.46v14.46h-.362v-14.46H122.6v-.362h14.822V59.695h14.822V44.873h14.822V30.051h14.823zm-44.105 44.828V89.34h14.46V60.057zm14.822 0V89.34h14.46V60.057z"/><path fill="#767579" d="M331.513 30.01q.937 0 1.876.006h.882l3.274.012 7.389.023v14.822h14.822v14.822h14.822V89.34H389.4v.361h-14.822v14.461h-.362v-14.46h-14.46v14.46h-.362v-14.46h-14.822V60.056h-14.46v-.362h14.46v-14.46h-29.283v-.362h14.46c-.014-4.743-.014-4.743-.032-9.485l-.003-1.777-.005-.94c0-.753.018-1.506.04-2.258.362-.362.362-.362 1.764-.403m-1.402.403v14.46h14.461v-14.46zm14.823 14.822v14.46h14.46v-14.46zm0 14.822V89.34h14.46V60.057zm14.822 0V89.34h14.46V60.057z"/><path fill="#85726d" d="M137.422 429.89h14.822v.362h-14.46v44.105h14.46v-14.822h14.822v.361h-14.46v14.461h44.105v.362h-29.283v14.46c-.362.362-.362.362-1.763.403q-.938 0-1.876-.006l-.882-.001q-1.637-.004-3.274-.012l-7.389-.022v-14.822h-14.822zm15.184 44.829v14.46h14.46v-14.46z"/><path fill="#748389" d="M152.244 60.057h.362V89.34h14.46V60.057h.362V89.34h14.46v.362h-14.46v14.46h58.927v.362h-59.289V89.702h-14.46v14.46h-.362z"/><path fill="#86949a" d="M181.889 30.413h.361v14.46h14.461v-14.46h.361v14.46h29.283v.362h-29.283v14.46l-.361.362h-14.46V89.34h-.362V60.057h-14.823V45.235h.362v14.46h14.46zm.361 14.822v14.46h14.461v-14.46z"/><path fill="#6c4133" d="M167.066 385.785h.362v44.105h14.46v.362h-14.46v44.105h-.362v-44.105h-14.46v29.283h-.362V415.43h.362v14.46h14.46z"/><path fill="#8d8182" d="M137.422 59.696h14.822v.361h-14.46V89.34h14.46v.362h-14.46v14.46h-.362v-14.46H122.6v-.362h14.822z"/><path fill="#624b48" d="M196.711 474.719h.362v14.46h14.46v.362h-14.46v7.23h-.362v-7.23h-14.46v22.052h-.362V489.18h14.822z"/><path fill="#876146" d="M152.244 341.318h5.061v.362l-3.976.361-.362 13.377h14.1v.723h-14.823z"/><path fill="#27191b" d="M330.111 282.03h3.615v.36c-.615.08-.615.08-1.242.159-1.219.063-1.219.063-1.65.565a56 56 0 0 0-.035 2.45l.002.78q0 .845.006 1.69.007 1.358.01 2.714l.01 3.87q.017 4.98.019 9.958v.988a636 636 0 0 1-.373 22.017h-.362z"/><path fill="#483c41" d="M241.178 459.535v.361a857 857 0 0 1-29.645-.361v-.362c9.927-.326 19.74-.439 29.645.362"/><path fill="#433b48" d="M240.816 449.05h.362v10.485h-2.53l.7-.34c.722-.323.722-.323 1.107-.745.057-.696.09-1.393.114-2.091l.046-1.282.043-1.349.047-1.354q.058-1.66.111-3.323"/></svg>