<svg xmlns="http://www.w3.org/2000/svg" width="512" height="512"><path fill="#422026" d="M263 0h88v15h29v14h15v15h14v15h15v29h15v117h29v14h14v15h15v15h-15v14h-14v29c-5.523 2.762-8.92 1.724-15 1l1 12c4.222 1.534 4.222 1.534 14 2v30c-12 1-12 1-15 0v2l2 1h-2v11l-14 1 1 5-2 9h-28v87h-15v30h-15v21h-44v-36h-14l-1-14-29-1v15h-14v36h-44c-1-19-1-19 0-21h-15v-30h-15l1 6c.115 3.01.046 5.986 0 9h-15v44h-30c-1-11-1-11 0-15h-15c-.086-5 .163-8.976 1-14h-15v-15h-15v-15h-15v-29H87v-58H73v-44l12-2c1.037-3.111 1.2-5.495 1.316-8.762l.127-3.388.12-3.538.13-3.572q.16-4.37.307-8.74l-3.934.496c-4.728.526-9.376.62-14.129.567l-2.333-.014q-2.802-.02-5.604-.049v2h-2l-1 12H36l-1-4h2v2l1.375-1.5C40 302 40 302 42 302v-2h-9l-1 2-3-1c-.919-3.676-.959-5.164 0-9l-15 1v-15c2.766-1.383 5.01-1.112 8.102-1.098l3.671.01 3.852.026 3.875.013q4.75.02 9.5.049v-14h15v15l4.688-.562c3.98-.478 6.199-.26 10.312.562v-73l14-1 1-29h14v-29h14v-29l14-1 1-14q6.687-.29 13.375-.562l3.852-.17 3.671-.147 3.396-.143C158 101 158 101 160 102l1 43 14 1-1-2a87 87 0 0 1-.13-4.937l-.009-3.115.006-3.378-.003-3.46q0-3.63.006-7.258c.005-3.705 0-7.41-.007-11.114q0-3.52.004-7.043l-.006-3.365.01-3.134.002-2.754c.119-2.288.483-4.25 1.127-6.442l2.809-.367 3.629-.508 3.62-.492L188 86c1.916-3.832 1.03-8.838.96-13.084-.046-4.762.235-9.22 1.04-13.916h14V44h15V29l15-1V15h29l-1-12zM154 146a110.4 110.4 0 0 0-1.114 16.252v2.368q.002 3.83.016 7.661l.005 5.347q.006 7.003.024 14.006.014 7.16.02 14.32.016 14.022.049 28.046h7l-.016 3.931q-.026 7.192-.039 14.386a3609 3609 0 0 1-.02 6.236q-.018 4.471-.023 8.943l-.015 2.835v2.608l-.007 2.308c-.07 1.781-.07 1.781 1.12 2.753 2.584.101 5.142.14 7.727.133l2.366.003q2.49 0 4.979-.006c2.521-.005 5.043 0 7.565.007q2.42 0 4.84-.004l2.267.006c4.517-.02 8.798-.4 13.256-1.139v-14h15v-11l-3-1v-2h-12l.07-2.773.055-3.602.07-3.586c.134-3.15.134-3.15-2.195-5.039h-12v-29h-15l.016-3.285q.026-6.07.039-12.139.008-2.62.02-5.24c.013-2.52.018-5.039.023-7.559l.015-2.343c0-4.583-.356-8.912-1.113-13.434h-14l.098-8.3c.025-2.8.025-2.8-1.098-5.7zm-23 15v44h-14v73h36v-44h-7v-73zm30 132v14l5.875.063 3.305.035c2.772.1 2.772.1 4.82-1.098v-14l-5.312-.062-2.989-.036c-2.799-.025-2.799-.025-5.699 1.098m-28 0c-1.405 3.511-2.125 6.464-2.062 10.219L131 307c3.104.029 6.208.047 9.313.063l2.67.025 2.568.01 2.364.016c2.281-.033 2.281-.033 5.085-1.114v-14c-6.756-.097-13.292.2-20 1m-1 73v58h14v29l14 1v14h7v-58h-7v-44zm36 0v43h7v58c2.827.942 4.632 1.135 7.563 1.125l2.378.008c2.123-.003 2.123-.003 4.059-1.133v-14h15v-87z"/><path fill="#421e25" d="M263 0h88v15h29v14h15v15h14v15h15v29h14v131h15v15h-15v15h-14v-15h-15v-15h-14v15h-29l-1 2v-16h-29v-1h29v-44h-29v30h-15v-15h-14v-29h-88v29h15v-15h14v44h-14v-14h-30v29h-14c-1.563-24.31-1.563-24.31 0-29h-15l-1-44h-14l-1-14-5-1 .007 1.777c.103 28.759.105 57.482-1.007 86.223h7c.967 4.856 1.146 9.579 1.133 14.512l.003 2.45q0 2.562-.006 5.122-.005 3.867.007 7.734c.01 21.742.01 21.742-2.137 28.182h5l-3 1 .035 2.535c.069 8.88-.34 17.614-1.035 26.465h8v14h7v15h-8l1 57 7 1v58h14v-14h15c.887 5.32 1.08 9.674 1 15h-15v44h-30c-1-11-1-11 0-15h-15c-.086-5 .163-8.976 1-14h-15v-15h-15v-15h-15v-29H87v-58H73v-44l12-2c1.037-3.111 1.2-5.495 1.316-8.762l.127-3.388.12-3.538.13-3.572q.16-4.37.307-8.74l-3.934.496c-4.728.526-9.376.62-14.129.567l-2.333-.014q-2.802-.02-5.604-.049v2h-2l-1 12H36l-1-4h2v2l1.375-1.5C40 302 40 302 42 302v-2h-9l-1 2-3-1c-.919-3.676-.959-5.164 0-9l-15 1v-15c2.766-1.383 5.01-1.112 8.102-1.098l3.671.01 3.852.026 3.875.013q4.75.02 9.5.049v-14h15v15l4.688-.562c3.98-.478 6.199-.26 10.312.562v-73l14-1 1-29h14v-29h14v-29l14-1 1-14q6.687-.29 13.375-.562l3.852-.17 3.671-.147 3.396-.143C158 101 158 101 160 102l1 43 14 1-1-2a87 87 0 0 1-.13-4.937l-.009-3.115.006-3.378-.003-3.46q0-3.63.006-7.258c.005-3.705 0-7.41-.007-11.114q0-3.52.004-7.043l-.006-3.365.01-3.134.002-2.754c.119-2.288.483-4.25 1.127-6.442l2.809-.367 3.629-.508 3.62-.492L188 86c1.916-3.832 1.03-8.838.96-13.084-.046-4.762.235-9.22 1.04-13.916h14V44h15V29l15-1V15h29l-1-12zM131 161v44h-14v73h36v-44h-7v-73zm2 132c-1.405 3.511-2.125 6.464-2.062 10.219L131 307c3.104.029 6.208.047 9.313.063l2.67.025 2.568.01 2.364.016c2.281-.033 2.281-.033 5.085-1.114v-14c-6.756-.097-13.292.2-20 1m-1 73v58h14v29l14 1v14h7v-58h-7v-44z"/><path fill="#1e4d3e" d="M263 0h88v15h29v14h15v15h14v15h15v87H205v29h-15V88h14V44h15V29l15-1V15h29l-1-12z"/><path fill="#49272e" d="M438 88h1v117h29v14h14v15h15v15h-15v14h-14v29c-5.523 2.762-8.92 1.724-15 1l1 12c4.222 1.534 4.222 1.534 14 2v30c-12 1-12 1-15 0v2l2 1-3 1v-4l-2.3.035c-.995.01-1.989.018-3.012.027l-2.989.036C441 337 441 337 438 336v15h-29v-15h-14v-14h-30v-15h-14v-29h14v-15h-29v15h-44v-29h-15v14h-43v-14h-15l-1 3-2-1v-2l-3.187.563c-3.437.394-5.52.205-8.813-.563l-.184-2.773-.254-3.602-.246-3.586c-.127-2.954-.127-2.954-1.316-5.039h2v-29h30v14h14v-44h-14v15h-15v-29h88v29h14v15h15v-30h29l-.035 9.352-.02 9.105a3488 3488 0 0 1-.02 6.26q-.017 4.537-.023 9.072l-.015 2.764c0 7.567.57 14.836 1.113 22.447h29v-15h14v15h15v15h14v-15h15v-15h-15z"/><path fill="#421d24" d="M190 59h14v29h-14v87h15v-29h219V88h14v131h15v15h-15v15h-14v-15h-15v-15h-14v15h-29l-1 2v-16h-29v-1h29v-44h-29v30h-15v-15h-14v-29h-88v29h15v-15h14v44h-14v-14h-30v29h-14c-1.563-24.31-1.563-24.31 0-29h-15l-1-44h-14l-1-14-5-1 .007 1.777c.103 28.759.105 57.482-1.007 86.223h-7q-.255-11.738-.482-23.474-.078-3.982-.166-7.966c-.301-13.92-.541-27.68.648-41.56h-15l1 5q.082 2.074.022 4.148l-.061 2.365-.082 2.507-.072 2.601q-.116 4.095-.244 8.191l-.159 5.569Q131.21 198.19 131 205h-14v-30h-15v-29h14v-29l14-1 1-14q6.687-.29 13.375-.562l3.852-.17 3.671-.147 3.396-.143C158 101 158 101 160 102l1 43 14 1-1-2a87 87 0 0 1-.13-4.937l-.009-3.115.006-3.378-.003-3.46q0-3.63.006-7.258c.005-3.705 0-7.41-.007-11.114q0-3.52.004-7.043l-.006-3.365.01-3.134.002-2.754c.119-2.288.483-4.25 1.127-6.442l2.809-.367 3.629-.508 3.62-.492L188 86c1.916-3.832 1.03-8.838.96-13.084-.046-4.762.235-9.22 1.04-13.916"/><path fill="#fcac8c" d="M219 161h88v29h14v15h15v-30h29v44h-29v15h15v15h14v14h-29v15h-44v-29h-15v14h-43v-14h-15l-1 3-2-1v-2l-3.187.563c-3.437.394-5.52.205-8.813-.563l-.184-2.773-.254-3.602c-.08-1.183-.162-2.367-.246-3.586-.127-2.954-.127-2.954-1.316-5.039h2v-29h30v14h14v-44h-14v15h-15z"/><path fill="#5e8c51" d="M277 29h59v15h15v15h14v14h15v29h-15v15H219V88h15V73h29V44h14z"/><path fill="#375e40" d="M263 0h88v29h-74v15h-14v29h-29v15h-29v43h72v15h-72v29h-15V88h14V44h15V29l15-1V15h29l-1-12z"/><path fill="#3f1d24" d="M117 336h14v15h29v14h-29v59l4-1 11 1v29h14c1 1 1 1 1.133 2.89-.014 4.164-.085 8.05-1.133 12.11h8v-58h7v57h14v-14h15c.887 5.32 1.08 9.674 1 15h-15v44h-30c-1-11-1-11 0-15h-15c-.086-5 .163-8.976 1-14h-15v-15h-15v-15h-15v-29H87q-.037-9.98-.055-19.958-.008-3.39-.02-6.78c-.013-3.262-.018-6.524-.023-9.785l-.015-3.026v-2.91l-.007-2.516c.173-4.354.686-8.689 1.12-13.025h29z"/><path fill="#55834a" d="M190 292h73v15h29v-15h44v15h-15v15h-14v14h-15v15h-15v15h-43v-59h-15v29h-29v-15h-15v-14h15z"/><path fill="#401c22" d="M395 219h14v44h15v15h14v14h-14v30h-59v-15h-14v-29h14v-29h-14v-15h-15v-14h29l1 14h29z"/><path fill="#385e41" d="M351 15h29v14h15v15h14v15h15v58h-59v-15h15V73h-15V59h-14V44h-15V29h15z"/><path fill="#538447" d="M395 409v29H234v-14h14v-14a609156 609156 0 0 1 74.472-.573l31.496-.242 15.789-.122c8.415-.062 16.828-.07 25.243-.063"/><path fill="#56844a" d="M336 322h15v14h29v15h15v29H277v-14h30v-15h14v-15h15z"/><path fill="#6b4031" d="M263 380h117v30q-25.453.035-50.907.052-11.82.007-23.64.023-10.313.015-20.623.02-5.453 0-10.904.01c-4.073.009-8.146.009-12.22.009l-3.587.01c-8.083-.01-16.061-.477-24.119-1.124v-14h29z"/><path fill="#63322a" d="M365 161h59v44h-15v14h-14v15h-29l-1 2v-16h-29v-1h29z"/><path fill="#faac8c" d="M204 205h30v14h29v15h14v29h-43v-14h-15l-1 3-2-1v-2l-3.187.563c-3.437.394-5.52.205-8.813-.563l-.184-2.773-.254-3.602c-.08-1.183-.162-2.367-.246-3.586-.127-2.954-.127-2.954-1.316-5.039h2z"/><path fill="#502f44" d="M116 117h30v29h8c.111 29.35.135 58.667-1 88h-7q-.255-11.738-.482-23.474-.078-3.982-.166-7.966c-.301-13.92-.541-27.68.648-41.56h-15l1 5q.082 2.074.022 4.148l-.061 2.365-.082 2.507-.072 2.601q-.116 4.095-.244 8.191l-.159 5.569Q131.21 198.19 131 205h-14v-30h-15v-29h14z"/><path fill="#411d26" d="M117 336h14v15h29v14h-29v59h-14v-44h-16v44H87q-.037-9.98-.055-19.958-.008-3.39-.02-6.78c-.013-3.262-.018-6.524-.023-9.785l-.015-3.026v-2.91l-.007-2.516c.173-4.354.686-8.689 1.12-13.025h29z"/><path fill="#492338" d="M153 234h7c.967 4.856 1.146 9.579 1.133 14.512l.003 2.45q0 2.562-.006 5.122-.005 3.867.007 7.734c.01 21.742.01 21.742-2.137 28.182h5l-3 1 .035 2.535c.069 8.88-.34 17.614-1.035 26.465h8v14h7v15h-8l1 57 7 1v1h-7v58h-1v-58h-7v-44h-28v58h-1v-59h29v-14h-29v-15h-14v-14h36v-15l-3-1h3z"/><path fill="#faa989" d="M365 263h30v15h14v29h-14v15h-30v-15h-14v-29h14z"/><path fill="#d0775f" d="M321 234h30v15h14v14h-29v15h-44v-29h29z"/><path fill="#834a3a" d="M88 175h29v103h-1v-73h-14v73H88q-.234-13.72-.443-27.443-.097-6.376-.205-12.753c-.361-20.991-.268-41.822.648-62.804"/><path fill="#57814b" d="M424 292h14v15h15v29h14v-29h1v30c-12 1-12 1-15 0v2l2 1-3 1v-4l-2.3.035-3.012.027-2.989.036C441 337 441 337 438 336v15h-29v-15h-14v-14h29z"/><path fill="#90b98e" d="M190 131h87v15h-72v29h-15z"/><path fill="#834738" d="M365 175h1v44h14v-44h15v15h14v14h14v1h-14v14h-14v15h-29l-1 2v-16h-29v-1h29z"/><path fill="#915446" d="M101 380h16v44h14v29h-14v15h-1v-15h-15z"/><path fill="#5e8a52" d="M277 131h103v15H277z"/><path fill="#d5745d" d="M219 161h88v14h-73v15h-15z"/><path fill="#864b3b" d="m263 380 102 1v14q-18.84.231-37.683.443-8.749.098-17.497.205-8.442.104-16.884.195-3.222.036-6.443.078-4.51.056-9.021.1l-2.694.04-2.494.021-2.154.025C268 396 268 396 263 395z"/><path fill="#ac887e" d="M438 88h1v117h29v14h14v15h15v15h-30v-15h-14v-15h-15z"/><path fill="#3e1b22" d="M263 0h87v15h-87c-1-12-1-12 0-15"/><path fill="#422025" d="M321 307h1v15h14v14h-15v15h-14v15h-30v-15h15v-15h15v-14h14z"/><path fill="#884c3e" d="M146 424v29h14c1 1 1 1 1.133 2.89l-.008 2.36.008 2.328C161 463 161 463 160 468h-14v14h-15v-14h-14v-15h14v-29c3-1 3-1 15 0"/><path fill="#365943" d="M219 307h15v59h14v14h-29z"/><path fill="#385d40" d="M350 0h1v29h-88V15h87z"/><path fill="#194c3e" d="M234 453h43v15h-14v22h-15v-7l-2.809.035c-1.197.01-2.395.018-3.629.027l-3.62.036C235 483 235 483 234 482a143 143 0 0 1-.098-6.441l.008-3.561.028-4.56z"/><path fill="#1b4e3e" d="M336 453h44v29h-15v8h-14v-22h-15z"/><path fill="#5f8853" d="M204 44h1v15h14v29h-14v43h-15V88h14z"/><path fill="#68925b" d="M219 30h15v58h-15V59h-14V44h14z"/><path fill="#faad8f" d="M88 322h14v14h15v30H88l-1 4z"/><path fill="#3e1c22" d="M336 468h15v22h14v-8h15v22h-44z"/><path fill="#97553f" d="M409 234h15v15h14v14h15v14c-9.704.983-19.261 1.104-29 1v-15h-15z"/><path fill="#401c23" d="M102 146h14v15h15c.697 3.485 1.12 5.77 1.022 9.148l-.061 2.365-.082 2.507-.072 2.601q-.116 4.095-.244 8.191l-.159 5.569Q131.21 198.19 131 205h-14v-30h-15z"/><path fill="#ac8e87" d="M43 263h15v29H44v15h-8l-1-4h2v2l1.375-1.5C40 302 40 302 42 302v-2h-9l-1 2-3-1c-.919-3.676-.959-5.164 0-9l-15 1v-15c2.766-1.383 5.01-1.112 8.102-1.098l3.671.01 3.852.026 3.875.013q4.75.02 9.5.049z"/><path fill="#94be92" d="M263 58h29v15h-14v15h-30V73h15z"/><path fill="#1a5141" d="M190 321v15h14v15h-29v-15h-7v-14c7.37-1.217 14.525-1.066 22-1"/><path fill="#502b32" d="M87 292h1q.035 12.48.052 24.959.007 5.795.023 11.591.016 5.603.02 11.204.003 2.13.01 4.257c.028 7.414-.084 14.64-1.105 21.989H73v-44l12-2c1.037-3.111 1.2-5.495 1.316-8.762l.127-3.388.12-3.538.13-3.572q.16-4.37.307-8.74"/><path fill="#8b5044" d="M146 468h15v14h14v15h-14v5l-2-1 1-4h-15c-.086-5 .163-8.976 1-14h-15v-1h15z"/><path fill="#7b4937" d="M409 292h15v30h-29v-15h14z"/><path fill="#926f5a" d="M292 292h44v15h-44z"/><path fill="#d47862" d="M336 175h29v15h-14v15h-15z"/><path fill="#7a4033" d="M321 161h15v44h-15z"/><path fill="#365f40" d="M380 131h44v15h-44z"/><path fill="#688b5a" d="M365 29h30v29h-15V44h-15z"/><path fill="#365942" d="M380 351h15v29h-30v-14h15z"/><path fill="#3f1f24" d="M438 292h15l1 13c4.065 1.477 4.065 1.477 13 2v29h-14v-29h-15z"/><path fill="#d8806b" d="M117 322h29v29h-15v-15h-14z"/><path fill="#411c23" d="M366 175h14v44h-14z"/><path fill="#4b293c" d="M168 410h7v57l3 1h-3v14h-14v-14h7z"/><path fill="#411b22" d="M336 220h29v28h-14v-14h-15z"/><path fill="#6c4d60" d="M160 351h7l1 57 7 1v1h-7v58h-1v-58h-7v-44h-28v58h-1v-59h29z"/><path fill="#854b3b" d="M234 468h29v22h-15v-7l-2.809.035c-1.197.01-2.395.018-3.629.027l-3.62.036C235 483 235 483 234 482z"/><path fill="#905f53" d="M88 175h29v103h-1v-73h-14v-29H88z"/><path fill="#864a3b" d="M351 468h29v14h-15v8h-14z"/><path fill="#5a364d" d="M153 234h7c.967 4.856 1.146 9.579 1.133 14.512l.003 2.45q0 2.562-.006 5.122-.005 3.867.007 7.734c.01 21.742.01 21.742-2.137 28.182h5l-3 1v14l-2-4h-5v4l-4-1h3z"/><path fill="#628755" d="M423 59h1v58h-15V88h14z"/><path fill="#cd7760" d="M365 307h30v15h-30z"/><path fill="#bd9e97" d="M43 263h1q.04 4.156.063 8.313l.025 2.322c.026 6.243-.516 12.071-1.088 18.365l-29 1v-15c2.766-1.383 5.01-1.112 8.102-1.098l3.671.01 3.852.026 3.875.013q4.75.02 9.5.049z"/><path fill="#3e1921" d="M146 424v29h-15v-29c3-1 3-1 15 0"/><path fill="#305741" d="M380 409h15v29h-15z"/><path fill="#23503e" d="M409 336h29v15h-29z"/><path fill="#33583f" d="M219 307h15v29h-15z"/><path fill="#214e3c" d="M263 292h29v15h-29z"/><path fill="#7f4637" d="M336 263h29v15h-29z"/><path fill="#608550" d="M219 249h15v29h-15z"/><path fill="#894b3f" d="M131 117h15v29h-15z"/><path fill="#1e4d3b" d="M219 59h15v29h-15z"/><path fill="#4d272f" d="M190 59h14v29h-19l4-4c.526-1.995.526-1.995.355-4.082l-.052-2.326-.115-2.404C189 69.633 189.04 64.486 190 59"/><path fill="#453837" d="M219 410h15v28h-15z"/><path fill="#4e232c" d="M116 117h15v29h-14c-.596-9.678-1.139-19.298-1-29"/><path fill="#401b23" d="M102 424h14v29h-14z"/><path fill="#925140" d="M117 424h14v29h-14z"/><path fill="#421d23" d="M409 278h29v14h-29z"/><path fill="#3f1b21" d="M88 176h14v29H88z"/><path fill="#431d24" d="M409 59h14v29h-14z"/><path fill="#638d56" d="M395 59h14v29h-14z"/><path fill="#451d25" d="M351 15h29v14h-29z"/><path fill="#461e26" d="M234 15h29v14h-29z"/><path fill="#8b5241" d="M160 322h8v14h7v15h-15z"/><path fill="#caafa8" d="M438 88h1v117h14v14h-15z"/><path fill="#6d3d36" d="M101 380h16v15h-15v58h-1z"/><path fill="#395d4d" d="M467 307h1v30c-12 1-12 1-15 0v2l2 1-3 1v-4l-2.3.035c-.995.01-1.989.018-3.012.027l-2.989.036C441 337 441 337 438 336v-14h15v14h14z"/><path fill="#66342e" d="M366 234h14v15h-14v14h-1v-14h-14v-1h14l-.062-5.875c-.063-5.875-.063-5.875 1.062-8.125"/><path fill="#8d554b" d="M116 137h1v9h14v14h15v1h-30z"/><path fill="#335640" d="M175 336h1v14h14v-14h14v15h-29z"/><path fill="#583c48" d="M189 453h15c1 6 1 6 1 15h-18l2-1z"/><path fill="#5c394c" d="m174 138 2 1v7c-2-2-2-2-2.125-5.125zm1 8v22h-1v-7h-14c-.125-10.625-.125-10.625 1-14l6.438-.5 3.62-.281C174 146 174 146 175 146"/><path fill="#7da072" d="M248 29v15h-14V30h-15v-1c9.88-1.1 19.122-.773 29 0"/><path fill="#6d4d4f" d="M44 292h21l-4 1v2h-2l-1 12H44z"/><path fill="#d8816f" d="M102 351h15v15h-15z"/><path fill="#3f5c43" d="M365 336h15v15h-15z"/><path fill="#8f6a59" d="M321 292h15v15h-15z"/><path fill="#67392f" d="M102 292h15v15h-15z"/><path fill="#d17a63" d="M365 263h15v15h-15z"/><path fill="#866150" d="M292 263h15v15h-15z"/><path fill="#67332a" d="M409 263h15v15h-15z"/><path fill="#3e1c22" d="M482 234h15v15h-15z"/><path fill="#987462" d="M438 234h15v15h-15z"/><path fill="#502936" d="M248 219h15v15h-15z"/><path fill="#3f191f" d="M438 219h15v15h-15z"/><path fill="#44191f" d="M321 190h15v15h-15z"/><path fill="#fbad8e" d="M219 175h15v15h-15z"/><path fill="#719462" d="M350 0h1v29h-15V15h14z"/><path fill="#926c5a" d="M321 263c10.84-.098 10.84-.098 14 0 1 1 1 1 1.098 4.16L336 278h-15z"/><path fill="#733b30" d="M453 277v15h-15v-14c4.9-1.634 9.857-1.055 15-1"/><path fill="#826461" d="M15 277c4.68.18 9.331.621 14 1v14l-15 1-.062-7.437-.028-2.346c-.007-1.74.04-3.478.09-5.217z"/><path fill="#814b39" d="M263 351h14v15h-15z"/><path fill="#3e1a21" d="M131 468h15v14h-15z"/><path fill="#411b22" d="M117 453h14v15h-14z"/><path fill="#452a30" d="M234 409h14v15h-14z"/><path fill="#3b6045" d="M219 410h15v14h-15z"/><path fill="#3d1a21" d="M219 322h15v14h-15z"/><path fill="#d4816a" d="M351 292h14v15h-14z"/><path fill="#b08e7f" d="M307 292h14v15h-14z"/><path fill="#421a20" d="M351 263h14v15h-14z"/><path fill="#b79285" d="M307 263h14v15h-14z"/><path fill="#401a20" d="M395 263h14v15h-14z"/><path fill="#502d3d" d="M277 249h15v14h-15z"/><path fill="#411b21" d="M219 249h15v14h-15z"/><path fill="#3c1b20" d="M467 249h15v14h-15z"/><path fill="#3e191e" d="M438 249h15v14h-15z"/><path fill="#411a20" d="M453 234h14v15h-14z"/><path fill="#3f191e" d="M424 234h14v15h-14z"/><path fill="#512b3a" d="M263 234h14v15h-14z"/><path fill="#b7948a" d="M468 234h14v15h-14z"/><path fill="#431e24" d="M468 219h14v15h-14z"/><path fill="#9b7765" d="M424 219h14v15h-14z"/><path fill="#64342c" d="M395 219h14v15h-14z"/><path fill="#d27962" d="M204 205h15v14h-15z"/><path fill="#d0735b" d="M307 190h14v15h-14z"/><path fill="#5b7a4e" d="M190 175h14v15h-14z"/><path fill="#411b22" d="M131 146h15v14h-15z"/><path fill="#5e8a51" d="M248 59h15v14h-15z"/><path fill="#431e24" d="M205 44h14v15h-14z"/><path fill="#411d23" d="M395 44h14v15h-14z"/><path fill="#3f1c21" d="M219 30h15v14h-15z"/><path fill="#365a40" d="M205 322h14v14h-15c-.125-9.5-.125-9.5 1-14"/><path fill="#46222a" d="M146 483h14v14h-15c-.086-5 .163-8.976 1-14"/><path fill="#462228" d="M146 454h15c.075 5.022-.007 9.036-1 14h-14z"/><path fill="#995247" d="M146 322h7v29h-7z"/><path fill="#492633" d="m322 307 14 1v14h-14z"/><path fill="#472535" d="M176 161h13v14c-3.015 1.005-5.042 1.103-8.187 1.063l-2.731-.028L176 176c-2.197-5.858-1.882-9.041 0-15"/><path fill="#421b22" d="M205 234h14v14l-14 1z"/><path fill="#884939" d="M146 468h14v14h-14z"/><path fill="#754233" d="M234 395h14v14h-14z"/><path fill="#235540" d="M395 322h14v14h-14z"/><path fill="#fbab8d" d="M117 322h14v14h-14z"/><path fill="#8d6e5b" d="M453 249h14v14h-14z"/><path fill="#65372d" d="M395 249h14v14h-14z"/><path fill="#401b21" d="M453 205h14v14h-14z"/><path fill="#3f1c22" d="M380 30h14v14h-14z"/><path fill="#739e65" d="M263 15h14v14h-14z"/><path fill="#4d2a3b" d="M219 191h15v13h-15z"/><path fill="#4c2938" d="M235 205h13v14h-13z"/><path fill="#876d6a" d="M29 292h15v15h-8l-1-4h2v2l1.375-1.5C40 302 40 302 42 302v-2h-9l-1 2-3-1c-.919-3.676-.959-5.164 0-9"/><path fill="#83af8d" d="M191 131h86v1l-2.852.031q-13.308.147-26.616.308-6.843.084-13.684.158-6.604.072-13.208.156-2.519.03-5.036.056-3.53.037-7.06.086l-2.099.017c-3.607.055-6.928.404-10.445 1.188a99 99 0 0 1-5 0z"/><path fill="#3c1820" d="M161 468h7v14h-7z"/><path fill="#9b7d77" d="M44 285q3.219-.04 6.438-.062l3.62-.036C57 285 57 285 58 286v6H44z"/><path fill="#d9866d" d="M216 207h3v12h-7l2-3c.415-2.017.415-2.017.563-4.125C215 208 215 208 216 207"/><path fill="#f4b59f" d="M234 247v2h-15l-1 3-2-1v-2l-7 1-1-2 1.712-.076q3.832-.176 7.663-.362l2.695-.119 2.578-.127 2.38-.11c6.834-.712 6.834-.712 8.972-.206"/><path fill="#6e5037" d="M263 351h14v1h-13l2 14h-4z"/><path fill="#765543" d="M161 322h7v14h-2v-13l-5 3z"/><path fill="#fab7a2" d="M263 219h1l1 12 13 2v1h-15z"/><path fill="#577e50" d="M190 125c3.674.306 4.781.758 7.313 3.563L199 131h-9z"/><path fill="#764d3a" d="M351 468h28v1a13855 13855 0 0 1-11.338.645l-2.432.136-2.237.127c-3.992.184-7.997.092-11.993.092z"/><path fill="#98806d" d="M292 292h9l-1 2-6-1v2l2 1-.937 1.563c-1.354 3.104-1.677 6.088-2.063 9.437h-1z"/><path fill="#62363e" d="M277 249h1l1 9h2v5h-4z"/><path fill="#fabaa9" d="M94 322h8v10l-2-4a141 141 0 0 0-5-5l-1 2z"/><path fill="#d48672" d="M366 263h14c-2.484 2.484-3.568 2.328-7 2.563-3.637.21-3.637.21-7 1.437z"/><path fill="#f4f3f0" d="M42 300h1v7h-7l-1-4h2v2l1.375-1.5C40 302 40 302 42 302z"/><path fill="#c57159" d="M350 249h15l-1 2-6-1v2h-2v-2l-3 2h-3z"/><path fill="#354d3c" d="M218 322h1v14h-3a100 100 0 0 1 0-5l1-1c.23-1.347.412-2.704.563-4.062z"/><path fill="#e0917c" d="M131 322h4c.37 4.554.37 4.554-1.5 6.813L132 330z"/><path fill="#fcbfaa" d="M128 322h3v8h-3z"/><path fill="#a58074" d="M438 240h1v6l9 2v1h-10z"/><path fill="#5f8e50" d="M190 325h2l-.125 3.25c.114 3.407.338 4.957 2.125 7.75h-4z"/><path fill="#f3a386" d="m234 250 3 1v4h-2l1 8h-2z"/><path fill="#d38c7c" d="M292 249h1l.375 2.938L294 255l2 1-1 2-.437 2.063L294 262l-2 1z"/><path fill="#985b50" d="M124 146h7v11h-1l-1-8-5-2z"/><path fill="#f5a289" d="M117 322h2c1.23 5.415 1.23 5.415.063 8.375L118 332h-1z"/><path fill="#998688" d="M208 248h11l-1 4-2-1v-2l-7 1z"/><path fill="#2c4c3a" d="m220 316 5 2v3h-5z"/><path fill="#f6f6f3" d="m33 304 2 3h-5l3-1z"/></svg>