<svg xmlns="http://www.w3.org/2000/svg" width="512" height="512"><path fill="#412025" d="M153 0h88v15h29v15l5-1c3.367.152 6.65.598 10 1v14h14v14h15v30l4-1 11 1v58h14v-44h30l1 12 1 3h12v29h15v29h14v30h15v73h-15l1 8h2c-.875 3.875-.875 3.875-2 5a70 70 0 0 0-.562 4.063L416 299h15l-1-7h15v-14c3.295-1.648 6.944-1.145 10.563-1.125l2.464.006c5.391.039 10.634.328 15.973 1.119 1.546 4.637 1.057 9.125 1 14h14l1 6 14 1v15l-14 1-1 7-14 1v13c-10.147.733-19.854 1.17-30 0v-14h-14l.508 3.459c.551 4.436.533 8.737.37 13.197l-.07 2.387q-.116 3.73-.245 7.457l-.159 5.094q-.193 6.202-.404 12.406h-15v58h-14v29c-5.822.97-9.305.777-15 0v15h-14l-1 14-8.398 1.465c-2.571.412-2.571.412-4.602 1.535-.469 2.816-.469 2.816-.625 6.063L358 497l-13 1c-1.104 5.613-1.104 5.613-1 9.813V511c-1 1-1 1-3.776 1.114l-3.665-.016-3.561-.008-4.56-.028L314 512v-44h-15v-15h-14v29l-14 1c.03 2.97.03 2.97.063 6 .054 5.204-.406 9.741-1.063 15h-44v-36h-14v-15h-30v15h-14v36h-44v-22h-15v-29H94a25486 25486 0 0 1-.052-30.044q-.007-6.975-.023-13.952-.016-6.74-.02-13.48-.003-2.563-.01-5.127c-.05-16.49-.05-16.49 1.105-24.397l-2.646.016q-4.845.026-9.69.039-2.099.008-4.198.02-3.012.017-6.025.023l-3.665.016C66 366 66 366 65 365c-.235-2.35-.414-4.706-.562-7.062l-.254-3.91L64 351H51c-1.286-10.714-1.286-10.714 0-15l-4 1-11-1v-29l14-1 1-13c-3.374-.066-6.45-.125-9.75.625C39 294 39 294 36 292c-.34-2.89-.34-2.89-.293-6.54l.03-3.944.075-4.141q.024-2.082.042-4.164c.035-3.404.089-6.807.146-10.211H22c-2.014-4.027-.412-9.701 0-14H7v-15h15l-.562-5.25c-.407-3.797-.384-5.964.562-9.75h14v-14h29V88h15V58h15V44h14V30l14-1 1-14h29zm191 149c-.464 2.892-.464 2.892-.625 6.125L343 161h-14v58h-15v15h-15v15h-14v13c3.15 1.05 5.388 1.101 8.688 1.063l3.011-.028L299 263l-.035 2.3c-.01.995-.018 1.989-.027 3.012l-.036 2.989c-.025 2.799-.025 2.799 1.098 5.699h14l-.098 10.84c-.267 3.023-.267 3.023 1.098 4.16 1.744.099 3.492.128 5.238.13l3.388.009 3.687-.006 3.755.003q3.939 0 7.878-.006 5.06-.006 10.12.004c3.207.004 6.414.001 9.622-.001l3.686.006 3.388-.01 2.998-.002c2.211.124 2.211.124 3.24-1.127.073-2.353.084-4.708.063-7.062L372 277h15v-72h-15v-44h-15v-3h-2v-2l2-1v-8a444 444 0 0 0-5.375-.125l-3.023-.07c-2.765-.077-2.765-.077-4.602 2.195m-44 217c-.808 4.847-1.137 9.252-1.114 14.117v2.396q.002 3.897.016 7.792l.005 5.422q.006 7.117.024 14.234.014 7.269.02 14.539.016 14.25.049 28.5h15l-.098 10.059c-.241 2.83-.241 2.83 1.098 3.941 2.073.088 4.148.107 6.223.098l3.818-.01 4.022-.026q2.016-.008 4.033-.013 4.952-.02 9.904-.049v-14h7v-2l3 1 4-1v-27h12c3.189-2.592 3.189-2.592 3.36-5.449l-.02-2.94v-3.383l-.047-3.552-.01-3.267c-.015-4.033-.057-8.065-.096-12.096L372 366z"/><path fill="#3d1b20" d="M182 15h30v117h43v14h-43v44h14v-29h59v29h14v-29h30v58h-15v15h-15v15h-14v13l14 1 .684 8.398c.166 2.581.166 2.581 1.316 4.602 3.046.47 3.046.47 6.563.625l3.628.227L314 277q.298 3.561.563 7.125l.17 1.957c.513 7.189-.202 13.482-.733 20.918H212v-8h-15v-7h-29v8h14c1.008 12.115.865 23.878 0 36h15v-7h15v-7h14v14h-14v14h14v15h29v15h-14v15h-15v-15h-14v-15h-15v-15h-44v-14h15v-29h-15v-15H95v15H80v29H66v-15l-14 1v28h14v15h-1l-1-14H51c-1.286-10.714-1.286-10.714 0-15l-4 1-11-1v-29l14-1 1-13c-3.374-.066-6.45-.125-9.75.625C39 294 39 294 36 292c-.34-2.89-.34-2.89-.293-6.54l.03-3.944.075-4.141q.024-2.082.042-4.164c.035-3.404.089-6.807.146-10.211H22c-2.014-4.027-.412-9.701 0-14H7v-15h15l-.562-5.25c-.407-3.797-.384-5.964.562-9.75h14v-14h29V88h15V58h15V44h29v14h29V44h15v73H80v30l59-1v-14h43z"/><path fill="#1b4b39" d="M153 0h88v15h29v15l5-1c3.367.152 6.65.598 10 1v14h14v14h15v89H212v-1h43v-14h-43V15h-30v117h-43v14h43v1H80v-30h88V44h-15v14h-29V44h-15V30l14-1 1-14h29z"/><path fill="#432026" d="M329 88v58h14v-44h30l1 12 1 3h12v29h15v29h14v30h15v73h-15l1 8h2c-.875 3.875-.875 3.875-2 5a70 70 0 0 0-.562 4.063L416 299h15l-1-7h15v15H314c0-14 0-14 1-15a96 96 0 0 1 5.254-.205l3.397-.06 3.697-.051 3.762-.063q4.959-.082 9.918-.153 5.057-.077 10.115-.161 9.928-.161 19.857-.307l1-14h15v-72h-15v-44h-15v-3h-2l2-11-5.437.438c-1.01.08-2.02.162-3.06.246-2.44.048-2.44.048-3.503 1.316a164 164 0 0 0-1.062 6.063l-.536 3.347L343 161c-9.26 1.253-18.32.903-27.625.563q-2.389-.081-4.777-.159c-3.867-.126-7.732-.265-11.598-.404v28h14v1c-2.228.2-4.458.384-6.687.563l-3.762.316c-5.856.156-11.71-.43-17.551-.879v-29h-59v29h-14v-43h102V88c3-1 3-1 15 0"/><path fill="#fcae8b" d="M109 175h30v30h15v-30h14v15h14v15h30v-15h14v-15h15v30h14v-29h29v29h-14v14h-15v15h-14v15h-15v14h-87v-14h-15v-15h-15z"/><path fill="#335d3a" d="M226 15h44v15l5-1c3.367.152 6.65.598 10 1v14h14v14h15v59h-88z"/><path fill="#335c3a" d="M95 44h29v14h29V44h15v73H80V58h15z"/><path fill="#5a8c4e" d="M182 15h30v117h43v14l-58 1v28h-15v-29h-43v-14h43z"/><path fill="#804b39" d="m452.402 276.863 2.598.012 2.504-.012c5.572.009 10.968.435 16.496 1.137 1.546 4.637 1.057 9.125 1 14h14l1 6 14 1v15l-14 1-1 7-14 1v13c-10.147.733-19.854 1.17-30 0v-14h-14v-1h14v-7H226v8h-14v7h-15v7h-15v-36h-14v-8h29v7h15v8h233v-29c1.938-1.938 4.826-1.133 7.402-1.137"/><path fill="#3e1b22" d="M226 161h59v29h14v-29h30v58h-15v15h-15v15h-14l.125 5.313c.125 5.312.125 5.312-2.125 8.687-2.797.34-2.797.34-6.32.293l-3.809-.03-3.996-.075q-2.01-.024-4.02-.042c-3.285-.035-6.57-.089-9.855-.146v-14h15v-15h15v-15h-15v-14h14v-29h-29v29h-14v-30h-15z"/><path fill="#824a3b" d="M387 380h15v73c-5.822.97-9.305.777-15 0v15h-14l-1 14-8.398 1.465c-2.571.412-2.571.412-4.602 1.535-.469 2.816-.469 2.816-.625 6.063L358 497l-13 1c-1.104 5.613-1.104 5.613-1 9.813V511c-1 1-1 1-3.776 1.114l-3.665-.016-3.561-.008-4.56-.028L314 512v-44h-15v-15h15l1 13 28 1v-14h7v-2h7v-27l10.84-.586L371 423l1-2v3h15z"/><path fill="#518244" d="M109 409h146v15h15v14H109z"/><path fill="#3f1e24" d="M153 278h58v14h-43v8h14c1.008 12.115.865 23.878 0 36h15v-7h15v-7h14v14h-14v14h14v15h29v15h-14v15h-15v-15h-14v-15h-15v-15h-44v-14h15v-29h-15z"/><path fill="#1a4a39" d="M168 15h14v117h-43v14h43v1H80v-30h88z"/><path fill="#411f25" d="M387 205h15v73h14l1 8h2c-.875 3.875-.875 3.875-2 5a70 70 0 0 0-.562 4.063L416 299h15l-1-7h15v15H314c0-14 0-14 1-15a96 96 0 0 1 5.254-.205l3.397-.06 3.697-.051 3.762-.063q4.959-.082 9.918-.153 5.057-.077 10.115-.161 9.928-.161 19.857-.307l1-14h15z"/><path fill="#3d191f" d="M329 88v73h-30v28h14v1c-2.228.2-4.458.384-6.687.563l-3.762.316c-5.856.156-11.71-.43-17.551-.879v-29h-59v29h-14v-43h102V88c3-1 3-1 15 0"/><path fill="#538345" d="m284 260 1 2c3.276.47 3.276.47 7.063.625l3.91.227L299 263l.184 2.336.253 3.039.247 3.023c.166 2.581.166 2.581 1.316 4.602 3.046.47 3.046.47 6.563.625l3.628.227L314 277q.298 3.561.563 7.125l.17 1.957c.513 7.189-.202 13.482-.733 20.918h-88c0-9.927.192-19.201 1-29h28v-15l28-1z"/><path fill="#305c39" d="M153 0h88v15h-73v29h-15v14h-29V44h-15V30l14-1 1-14h29z"/><path fill="#6b3d2f" d="M124 380h102v15h15v14H124z"/><path fill="#7e4838" d="M387 146h15v29h14v30h15v73h-29v-73h-15v-30h14v-28h-14z"/><path fill="#528345" d="M226 322h44v14h15v44h-30v-15h-29v-15h-14v-14h14z"/><path fill="#401d21" d="M226 314h219v7h-14l.508 3.953c.513 4.64.541 9.141.37 13.8l-.062 2.118c-.077 2.564-.166 5.128-.253 7.692L431 366h-44v-1h29v-43h-14v14h-15v-14h-51v14h-1v-14h-50v14h-15v-14h-44z"/><path fill="#fcaa86" d="M124 292h29v15h15v29h-15v14h-44v-43h15z"/><path fill="#8e776e" d="m452.402 276.863 2.598.012 2.504-.012c5.572.009 10.968.435 16.496 1.137 1.546 4.637 1.057 9.125 1 14h14l1 6 14 1v15l-14 1-1 7-14 1v13c-10.147.733-19.854 1.17-30 0v-14h-14v-1h14v-7h-14v-7h14l-.035-6.309-.02-6.026q-.008-2.1-.02-4.2a1698 1698 0 0 1-.023-6.024l-.016-3.665c.213-5.195 2.971-3.906 7.516-3.913"/><path fill="#5a8c4d" d="M226 44h15v15h14v14h15v29h-15v15h-29z"/><path fill="#598b4d" d="M153 44h15v73h-29v-15h-15V73h15V59h14z"/><path fill="#528145" d="M153 350h44v15h15v15H109v-15h44z"/><path fill="#568448" d="M80 278h44v14H95v15H80v29H66v-15l-14 1v28h14v15h-1l-1-14H51c-1.286-10.714-1.286-10.714 0-15l-4 1-11-1v-29c10.26-.88 19.74-.88 30 0v-15h14z"/><path fill="#91be90" d="M139 132h116v14l-58 1v28h-15v-29h-43z"/><path fill="#442532" d="M299 453h15l1 13 28 1v15h14v15l-12 1c-.654 3.35-1 6.388-1 9.813V511c-1 1-1 1-3.776 1.114l-3.665-.016-3.561-.008-4.56-.028L314 512v-44h-15z"/><path fill="#3d1a20" d="M299 161h30v58h-30z"/><path fill="#5e8950" d="M197 147h15v58h-30v-30h15z"/><path fill="#7d4536" d="M336 322h51v14h-15v14h-43v-13h7z"/><path fill="#d57661" d="M226 161h59v44h-1v-29h-29v29h-14v-30h-15z"/><path fill="#3c1a20" d="M154 0h87v15h-87z"/><path fill="#d4755f" d="M109 161h59v14h-14v30h-15v-30h-30z"/><path fill="#154936" d="M80 307h15v43H52v-28c4.637-1.546 9.125-1.057 14-1v15h14z"/><path fill="#824937" d="M226 380v15h-87v-14a112951 112951 0 0 1 40.755-.573 32342 32342 0 0 1 17.245-.242c9.668-.138 19.33-.207 29-.185"/><path fill="#164d3c" d="M226 453h44v29h-15v8h-14v-23h-15z"/><path fill="#194e3c" d="M124 453h44v14h-15v23h-14v-8h-15z"/><path fill="#3c1a1f" d="M387 205h15v73h-15z"/><path fill="#3d1c21" d="M226 467h15v23h14v-8h15c.679 7.842.985 14.124 0 22h-44zm-73 0h15v37h-44v-22h15v8h14z"/><path fill="#45222d" d="M255 219h30v15h-15v15h-15v14h-14v-29h14z"/><path fill="#67392c" d="M241 380h14v15h15v14h15v15h-30v-15h-14z"/><path fill="#94543b" d="M80 234h15v29H80v15H51v-15h15v-14h14z"/><path fill="#3c191f" d="M387 147h14v28h-14v30h-15v-44h15z"/><path fill="#fba987" d="M402 322h14v43h-29v-29h15z"/><path fill="#8b503c" d="M95 292h29v15h-15v43H95z"/><path fill="#3e1a21" d="M416 205h14v72h-14z"/><path fill="#174e3b" d="M299 322h36l1 15h-7v13h-30z"/><path fill="#315b3b" d="M255 132h59v15H212v-1h43z"/><path fill="#335e3c" d="M80 132h59v14h43v1H80z"/><path fill="#34573e" d="M270 336h15v44h-30v-15h15z"/><path fill="#3e1d20" d="M226 249h15v14h14v15h-28v14h-15v-15h14z"/><path fill="#814a3b" d="M358 117h14v30h15v14h-30v-3h-2l.416-2.089c1.548-8.398 2.003-16.635 2.209-25.161q.057-2.014.117-4.027.138-4.862.258-9.723"/><path fill="#412331" d="M153 278h58v14h-58z"/><path fill="#65382d" d="M183 314h43v8h-14v7h-15v7h-15a2569 2569 0 0 1-.062-9.312l-.026-2.67-.01-2.569-.016-2.364C182 317 182 317 183 314"/><path fill="#401e24" d="M314 482h15v15h13c1.585 4.853 2.31 8.826 2 14-1 1-1 1-3.776 1.114l-3.665-.016-3.561-.008-4.56-.028L314 512z"/><path fill="#3b1b20" d="M285 44h14v14h15v30h-15V59h-14z"/><path fill="#91bc8c" d="M139 59h15v29h-30V73h15z"/><path fill="#3b1b20" d="M95 44h14v15H95v29H80V58h15z"/><path fill="#90bc8c" d="M182 44h15v44h-15z"/><path fill="#4d2c32" d="M357 424c10 0 10 0 15 1v28h-14l-1 14h-14v-14h7v-2h7z"/><path fill="#68372c" d="M51 278h29v14H66v15H51z"/><path fill="#33583e" d="M227 278h28v14h-14v15h-15c-.092-9.764.197-19.262 1-29"/><path fill="#d06f5a" d="M109 336h44v14h-44z"/><path fill="#d37960" d="M358 322h29v14h-15v14h-14z"/><path fill="#452228" d="M474 278c1.546 4.637 1.057 9.125 1 14h14v7h-15v-7h-28v-13c8.877-3.55 18.651-2.29 28-1"/><path fill="#814838" d="M241 468h29v14h-15v8h-14z"/><path fill="#804838" d="M124 468h29v22h-14v-8h-15z"/><path fill="#7d4a3d" d="M387 146h15v29h14v1h-14v29h-15v-30h14v-28h-14z"/><path fill="#a6887c" d="M168 292h29v7h15v8h-30v-7h-14z"/><path fill="#33543d" d="M109 365h30v15h-30z"/><path fill="#d37965" d="M255 219h30v15h-30z"/><path fill="#3b181c" d="M182 190h30v15h-30z"/><path fill="#3e191f" d="M372 117h15v30h-15z"/><path fill="#864b3b" d="m371 421 1 3h15v29h-15v-28h-5l4-2z"/><path fill="#4f2d32" d="M372 453h15v15h-14l-1 14c-5.627.938-8.589.84-14 0v-15h14z"/><path fill="#4b2c30" d="M285 263h14l.684 8.398c.166 2.581.166 2.581 1.316 4.602 3.046.47 3.046.47 6.563.625L314 277v15h-15v-14h-14z"/><path fill="#34573f" d="M109 409h15v29h-15z"/><path fill="#3f2024" d="M36 307h14c1 1 1 1 1.114 3.684l-.016 3.539-.01 3.818-.026 4.022q-.008 2.016-.013 4.033A3769 3769 0 0 1 51 336c-4 1-4 1-15 0z"/><path fill="#3b1b1e" d="M95 292h29v15H95z"/><path fill="#d07058" d="M299 190h15v29h-15z"/><path fill="#d1755e" d="M80 190h15v29H80z"/><path fill="#6a352a" d="M80 161h15v29H80z"/><path fill="#5f8e52" d="M299 88h15v29h-15z"/><path fill="#5e8d50" d="M80 88h15v29H80z"/><path fill="#3c1b20" d="M241 15h29v15h-29zm-117 0h29v15h-29z"/><path fill="#834a3c" d="M329 482h28v15l-5.812.25c-4.618.078-4.618.078-8.075 2.797L342 502v-5h-13z"/><path fill="#31553d" d="M299 322h15v28h-15z"/><path fill="#d57860" d="M182 205h30v14h-30z"/><path fill="#3e191e" d="M241 175h14v30h-14z"/><path fill="#3d191e" d="M139 175h14v30h-14z"/><path fill="#46242b" d="M446 322q5.955-.036 11.908-.055 2.026-.008 4.054-.02c1.938-.013 3.877-.018 5.815-.023l3.54-.016C474 322 474 322 475 323c.073 2.186.084 4.375.063 6.563l-.028 3.628L475 336c-9.802.7-19.212 1.258-29 0z"/><path fill="#3e1c22" d="M387 424h14v29c-5 1-5 1-14 0z"/><path fill="#19523b" d="M80 307h14v29H80z"/><path fill="#3c1a20" d="M402 176h14v29h-14z"/><path fill="#5f8e51" d="M285 59h14v29h-14z"/><path fill="#5d8d50" d="M95 59h14v29H95z"/><path fill="#33593e" d="M66 321v29H52v-28c3-1 3-1 14-1"/><path fill="#e7dbd4" d="M460 292h14v7l3.008-.254c9.147-.707 17.843-.675 26.992.254v1h-15v7h-29z"/><path fill="#3e1c22" d="M489 300h15v14l-14 1-1 6h-15v-7h15z"/><path fill="#a6877b" d="M182 322h30v7h-15v7h-15z"/><path fill="#824939" d="M387 278h15v21h-15z"/><path fill="#608955" d="M255 132h15v15h-58v-1h43z"/><path fill="#5f8853" d="M124 132h15v14h43v1h-58z"/><path fill="#b8a7a1" d="M446 277c2.107 4.213.395 10.529 0 15h14v15h-15q-.036-6.168-.055-12.335-.008-2.1-.02-4.2a1698 1698 0 0 1-.023-6.024l-.016-3.665C445 278 445 278 446 277"/><path fill="#5f8952" d="M153 0h1v15h14v15h-15z"/><path fill="#4c313d" d="M299 453h15l1 15h-16z"/><path fill="#335a42" d="M270 409h15v15h-15z"/><path fill="#422431" d="M255 409h15v15h-15z"/><path fill="#68372b" d="M387 380h15v15h-15z"/><path fill="#814c38" d="M226 350h15v15h-15z"/><path fill="#d47e67" d="M387 350h15v15h-15z"/><path fill="#335a3f" d="M226 292h15v15h-15z"/><path fill="#3b1d1f" d="M51 292h15v15H51z"/><path fill="#34593e" d="M255 263h15v15h-15z"/><path fill="#d67f6a" d="M255 234h15v15h-15z"/><path fill="#927261" d="M51 234h15v15H51z"/><path fill="#3b1a20" d="M7 234h15v15H7z"/><path fill="#d57863" d="M124 234h15v15h-15z"/><path fill="#45202b" d="M255 219h15v15h-15z"/><path fill="#d67a64" d="M109 219h15v15h-15z"/><path fill="#67362c" d="M299 161h15v15h-15z"/><path fill="#5d8b4f" d="M270 44h15v15h-15z"/><path fill="#609053" d="M226 15h15v15h-15z"/><path fill="#573c47" d="m329 146 6.813-.125 3.832-.07C343 146 343 146 346 148l-1 1a164 164 0 0 0-1.062 6.063l-.536 3.347L343 161q-2.374.293-4.75.563l-2.672.316C333 162 333 162 329 161z"/><path fill="#412230" d="M314 161h15c.08 5.326-.113 9.68-1 15h-14z"/><path fill="#fab08e" d="M314 203v16h-15v-14l9.18-.684c2.077-.233 3.874-1.316 5.82-1.316"/><path fill="#3f2024" d="M124 30v14h-15V30c5.603-.672 9.42-1.116 15 0"/><path fill="#411d23" d="M343 482h14v15l-5.875.563-3.305.316C345 498 345 498 343 497z"/><path fill="#3e1e23" d="M278.625 29.438 285 30v14h-15V30c2.944-1.472 5.374-.85 8.625-.562"/><path fill="#3f1d23" d="M22 219h14v15H22c-1.125-10.5-1.125-10.5 0-15"/><path fill="#3f1c21" d="M358 467h14v15c-5.627.938-8.589.84-14 0z"/><path fill="#43232f" d="M227 380h14v15h-15z"/><path fill="#402431" d="M270 424h15v14h-15z"/><path fill="#7e4536" d="M241 380h14v15h-14z"/><path fill="#3b171c" d="M153 336h15v14h-15z"/><path fill="#568849" d="M299 322h15v14h-15z"/><path fill="#fca885" d="M372 322h15v14h-15z"/><path fill="#ce7660" d="M153 322h15v14h-15z"/><path fill="#cf765e" d="M139 292h14v15h-14z"/><path fill="#3d1b1f" d="M299 278h15v14h-15z"/><path fill="#1f4d3c" d="M153 278h15v14h-15z"/><path fill="#d5836c" d="M139 249h15v14h-15z"/><path fill="#401b1f" d="M51 249h15v14H51z"/><path fill="#3e1b20" d="M37 234h14v15H37z"/><path fill="#ad8d82" d="M22 234h14v15H22z"/><path fill="#947564" d="M66 219h14v15H66z"/><path fill="#ab8b7f" d="M37 219h14v15H37z"/><path fill="#fbb18e" d="M80 205h15v14H80z"/><path fill="#d47b66" d="M212 190h14v15h-14z"/><path fill="#d57c67" d="M168 190h14v15h-14z"/><path fill="#824a3a" d="M372 147h15v14h-15z"/><path fill="#598a4e" d="M124 59h15v14h-15z"/><path fill="#609052" d="M255 30h15v14h-15z"/><path fill="#5e8d52" d="M124 30h15v14h-15z"/><path fill="#3d1b20" d="M343 453h15l-1 14h-14z"/><path fill="#3c1b21" d="M22 249h14v14H22c-2.014-4.027-.412-9.701 0-14"/><path fill="#3d1a20" d="M329 468h14v14h-14z"/><path fill="#452531" d="M241 395h14v14h-14z"/><path fill="#432530" d="M212 350v14h-14v-14l5.875-.562 3.305-.317C210 349 210 349 212 350"/><path fill="#693a2c" d="M95 336h14v14H95z"/><path fill="#2d563d" d="M66 336h14v14H66z"/><path fill="#3a1d21" d="M52 336h14v14H52z"/><path fill="#33533c" d="M285 322h14v14h-14z"/><path fill="#164d39" d="M227 278h14v14h-14z"/><path fill="#cf7560" d="M212 278h14v14h-14z"/><path fill="#3f1c20" d="M66 278h14v14H66z"/><path fill="#d4826c" d="M241 249h14v14h-14z"/><path fill="#65372b" d="M95 249h14v14H95z"/><path fill="#8f725e" d="M37 249h14v14H37z"/><path fill="#a9897c" d="M51 205h14v14H51z"/><path fill="#3d1a20" d="M37 205h14v14H37z"/><path fill="#41222f" d="M299 176h15v14l-15-1z"/><path fill="#3e1c21" d="M358 147h14v14h-14z"/><path fill="#5d8c50" d="M110 44h14v14h-14z"/><path fill="#462533" d="M227 249h14l-1 14h-13z"/><path fill="#442332" d="M271 206h14v13h-14z"/><path fill="#513338" d="M474 281h1v11h14v7h-15z"/><path fill="#a2877e" d="M431 307h15v7h-15z"/><path fill="#66362b" d="M387 292h15v7h-15z"/><path fill="#cd7c69" d="M299 190h15c.293 9.96.293 9.96 0 13-3 2-3 2-6 2v-2h2v-3l2-1c.465-1.895.465-1.895.625-4.062L313 191h-13c.599 2.352 1.27 4.686 2 7l2 1a134 134 0 0 1 3 6h-8z"/><path fill="#875851" d="m371 421 1 3h5l-3 2c-.433 2.387-.433 2.387-.328 5.156l.015 3.098.063 3.246.016 3.246c-.177 5.296-.177 5.296 1.234 10.254 2.586.468 2.586.468 5.563.625l3.066.227L386 452v-6h1v7h-15v-28h-5l4-2z"/><path fill="#9f7f74" d="M201 322h11v7c-6.75.125-6.75.125-9-1v-3h-2z"/><path fill="#63332e" d="M357 455h1v27h7l-6 3c-.469 2.816-.469 2.816-.625 6.063l-.227 3.347L358 497h-1z"/><path fill="#312825" d="M255 409h1l.113 2.336.2 3.039.175 3.023L257 420c4.067 2.712 7.155 2.579 12 3v-13h1v14h-15z"/><path fill="#d68d77" d="M299 195c4.078 2.865 6.027 5.43 8 10h-8z"/><path fill="#d78971" d="M94 195h1v10h-7c.56-3.243 1.413-4.93 4-7h2z"/><path fill="#9a7b70" d="M169 293h7l-5 5 11 1v1h-14z"/><path fill="#cc7d6d" d="M139 292h14v15h-3v-4h2v-10h-13z"/><path fill="#f9b59c" d="M124 292h15v1l-2.082.148-2.73.227c-.894.07-1.787.14-2.708.21-2.724.281-2.724.281-5.48 2.415-.583 2.656-.583 2.656-.687 5.625l-.2 3.04L125 307h-1z"/><path fill="#687856" d="m284 260 1 2 3 1h-3v15h-1v-14h-14v-1l2.809-.148 3.628-.227c1.195-.07 2.39-.14 3.622-.21.97-.138 1.94-.274 2.941-.415z"/><path fill="#ce7661" d="M243 252h1l.25 3.813c.416 3.525.416 3.525 2.813 6.187l1.937 1h-8q.21-2.47.438-4.937c.08-.917.162-1.834.246-2.778C242 253 242 253 243 252"/><path fill="#904a37" d="M357 332h1v18h-3z"/><path fill="#f8bba2" d="M299 205h6l-1 2-3 1-1 10 3 1h-4z"/><path fill="#a09095" d="M357 482h8l-6 3c-.469 2.816-.469 2.816-.625 6.063l-.227 3.347L358 497h-1z"/><path fill="#fdb597" d="M372 322h8c-1.375 1.5-1.375 1.5-3 3h-2l-1 2h-2z"/><path fill="#455345" d="M255 263h5l-1.457 1.145c-2.08 2.5-2.041 4.328-2.23 7.543l-.2 3.011L256 277h-1z"/><path fill="#365e40" d="M297 331h2v5h-6a105 105 0 0 1 4-5"/><path fill="#d88c7a" d="M212 190h14v3h-3v-2h-11z"/><path fill="#c76c57" d="M358 322h12c-4.398 2.2-7.186 2.519-12 3z"/></svg>