<svg xmlns="http://www.w3.org/2000/svg" width="512" height="512"><path fill="#44292e" d="M197 0h88v14h29v15h15v15h14c2.24 6.718 1.94 7.748 0 14h15v14h14l-.254-3.332c-.593-8.38-.807-16.298.254-24.668l15-1V29q5-.293 10-.562l2.832-.17c5.553-.292 10.674-.143 16.168.732.838 7.07 1.16 14.036 1.168 21.152l.01 3.097q.007 3.21.007 6.421c.003 3.283.02 6.565.04 9.848q.005 3.13.005 6.26l.022 2.973-.01 2.753.005 2.418C417 86 417 86 415 89l-13-1v29h-15l.563 6.25c.94 12.557.02 25.193-.563 37.75q-2.937.039-5.875.063l-3.305.035C375 161 375 161 373 160v44l12-1c3.118.077 6.151.193 9.25.438l2.293.158A711 711 0 0 1 402 204v15l9.18-.879C414 218 414 218 416 219c1.423 5.174.713 9.77 0 15h15v14h-15v15h-14c.03 3.434.03 3.434.063 6.938.02 2.354.01 4.709-.063 7.062-1 1-1 1-3.941 1.098L388 278v13c-5 2-5 2-15 1v43h14c1.17 2.34 1.134 3.774 1.125 6.375l.008 2.336C388 346 388 346 387 350h15v59h-14v43h13c1 1 1 1 1.12 2.79l-.006 2.363v2.669l-.016 2.9-.005 2.956c-.005 3.128-.018 6.256-.03 9.385q-.009 3.173-.014 6.345-.017 7.796-.049 15.592l-13 1-.437 4.25c-.316 3.064-.809 5.733-1.563 8.75h-29c-.656-7.218-1.082-13.586-.562-20.687l.158-2.452q.192-2.931.404-5.861l1.828-.184 2.422-.253 2.39-.247c2.656-.311 2.656-.311 6.36-1.316v-12l-3 1c-3.386-.464-6.66-1.262-10-2l-1-14-4.348.254-5.714.308-2.858.17-2.803.147-2.555.143c-3.258-.026-6.496-.561-9.722-1.022v29h-15v22h-44v-37h-14v-14h-30v14h-14v37h-44v-22h-15v-29h-14c-1-1-1-1-1.12-2.753l.006-2.308v-2.608l.016-2.835.005-2.888c.005-3.057.018-6.114.03-9.17l.014-6.202q.017-7.617.049-15.236h-13v14c-6.375 1.22-12.478.911-18.937.563l-3.229-.159Q98.916 423.21 95 423l-1-13-14-1v-59h15l-.562-7.187c-.517-7.355-.255-14.477.562-21.813 4.779-1.078 9.115-1.073 14-1v-9l-2-1 .996-1.582c1.311-3.158 1.162-5.7 1.067-9.106A179 179 0 0 1 109 293c1-1 1-1 4.16-1.098L124 292v-15h15v-15h14v-14l-9.96.879C140 249 140 249 138 248v-14h-14v-29h-14a22780 22780 0 0 1-.443-33.753q-.097-7.84-.205-15.683c-.319-22.889-.547-45.695.648-68.564l14-1V58h15V44h14V29h15V14h29z"/><path fill="#3f6046" d="M197 0h88v14h29v15h15v15h14c2.24 6.718 1.94 7.748 0 14h15v1h-15v28h15v59h-15v14h-43v15H183v-15h-44v-14h-14V88h-15v-1l14-1V58h15V44h14V29h15V14h29z"/><path fill="#65342f" d="M416 29c.838 7.07 1.16 14.036 1.168 21.152l.01 3.097q.007 3.21.007 6.421c.003 3.283.02 6.565.04 9.848q.005 3.13.005 6.26l.022 2.973-.01 2.753.005 2.418C417 86 417 86 415 89l-13-1v29h-15l.563 6.25c.94 12.557.02 25.193-.563 37.75q-2.906.039-5.812.063l-3.27.035C375 161 375 161 372 160v59h-14v15h-15v14h-29v14h-14v13h-1v-12h-14v29h-29v29h-15v15h-29v-15h14v-14h15v-15h-44v-15h-14l-1-14-29-1v-14l-9.96.879C140 249 140 249 138 248v-14h-14v-29h-14q-.234-16.902-.443-33.805-.097-7.852-.205-15.706c-.313-22.53-.588-44.98.648-67.489h15v58h14v14h44v15h117v-15h43v-14h15V87h-15V59h15v13h14l-.254-3.332c-.593-8.38-.807-16.298.254-24.668l15-1V29q4.717-.294 9.438-.562l2.662-.17c5.78-.32 11.163-.056 16.9.732"/><path fill="#608b53" d="M212 29h58v15h15v29h29v15h15v58h-29v14h-88v-14h-29v-15h-15V73h15V59h15V44h14z"/><path fill="#5d844e" d="M139 262q9.159-.037 18.317-.055 3.117-.008 6.236-.02c2.981-.013 5.962-.018 8.943-.023l2.835-.015h2.608l2.308-.007C182 262 182 262 183 263c.144 4.668.042 9.329 0 14h14v15h44v15h-15v14h-14v15h-15v14h-14v15h-15v-58h-15v29h-14v58h-15v15H95q-.232-14.33-.443-28.663-.097-6.656-.205-13.313-.104-6.438-.195-12.877-.036-2.442-.078-4.883c-.162-9.487-.028-18.806.921-28.264 4.801-1.01 9.096-1.073 14-1v-9l-2-1 .996-1.582c1.311-3.158 1.162-5.7 1.067-9.106A179 179 0 0 1 109 293c1-1 1-1 4.16-1.098L124 292v-15h15z"/><path fill="#47222a" d="M125 205h14v29h14v-15h15v29h15v-29h14v29h15v15h29v-15h15v15h14v-15h15v-14h58v14h-29v14h-14v13h-1v-12h-14v29h-29v29h-15v15h-29v-15h14v-14h15v-15h-44v-15h-14l-1-14-29-1v-14l-9.96.879C140 249 140 249 138 248v-14h-13z"/><path fill="#48232a" d="M416 29c.838 7.07 1.16 14.036 1.168 21.152l.01 3.097q.007 3.21.007 6.421c.003 3.283.02 6.565.04 9.848q.005 3.13.005 6.26l.022 2.973-.01 2.753.005 2.418C417 86 417 86 415 89l-13-1v29h-15l.563 6.25c.94 12.557.02 25.193-.563 37.75q-2.906.039-5.812.063l-3.27.035C375 161 375 161 372 160v59h-14v15h-15v-30h15v-44h-15v-14h15V87h-15V59h15v13h14l-.254-3.332c-.593-8.38-.807-16.298.254-24.668l15-1V29q4.717-.294 9.438-.562l2.662-.17c5.78-.32 11.163-.056 16.9.732"/><path fill="#84483c" d="M285 263h29v14h14v30h-28v29h-15v14h-15v15h-14v14h-30v-14h-14v-29h29v-15h15v-29h29z"/><path fill="#3f6347" d="M270 15h15v14h44v15h14c2.24 6.718 1.94 7.748 0 14h15v1h-15v28h15v59h-15v14h-43v-14h29V88h-15V73h-29V44h-15z"/><path fill="#59854b" d="M153 409h175v29H153z"/><path fill="#673530" d="M343 160h15v44h-15v30h-58v14h-15v-14h-14v-30h44v15h14v-29h14v-15h15z"/><path fill="#66352e" d="M197 336h15v29h14v14h30v-14h14v15h-14v14h-15v15h-73v-30h15v-29h14z"/><path fill="#48674b" d="m113.16 291.902 3.903.036 3.91.027L124 292q.252 7.953.482 15.906.08 2.703.166 5.406.122 3.894.23 7.79l.083 2.425.06 2.304.061 2.005c-.104 2.743-.63 5.456-1.082 8.164h15v58h-15v15H95q-.232-14.33-.443-28.663-.097-6.656-.205-13.313-.104-6.438-.195-12.877-.036-2.442-.078-4.883c-.162-9.487-.028-18.806.921-28.264 4.801-1.01 9.096-1.073 14-1v-9l-2-1 .996-1.582c1.311-3.158 1.162-5.7 1.067-9.106A179 179 0 0 1 109 293c1-1 1-1 4.16-1.098"/><path fill="#9a745c" d="M372 160h1v44l12-1c3.118.077 6.151.193 9.25.438l2.293.158A711 711 0 0 1 402 204v15l9.18-.879C414 218 414 218 416 219c1.423 5.174.713 9.77 0 15h15v14h-15v15h-14v14h-1v-14h-14v14h-15v-14c4.9-1.634 9.857-1.055 15-1v-14h-15v14h-14v-14h-15v-14h15v-15h14z"/><path fill="#265341" d="M125 131h28v15h29v-14h-7v-1h8v15h29v14h88v15H183v-15h-44v-14h-14z"/><path fill="#432027" d="M285 234h58v14h-29v14h-14v13h-1v-12h-14v29h-29v-15h-44v-14h29v-15h15v15h14v-15h15z"/><path fill="#4c272e" d="M387 350h15v59h-14v43h13v44h-14v-14h-14v-15h14l-1-14-14-1v-43h-14v-15h29z"/><path fill="#295742" d="M314 59h15v28h29v59h-15v14h-43v-14h29V88h-15z"/><path fill="#4b262d" d="M416 29c.838 7.07 1.16 14.036 1.168 21.152l.01 3.097q.007 3.21.007 6.421c.003 3.283.02 6.565.04 9.848q.005 3.13.005 6.26l.022 2.973-.01 2.753.005 2.418C417 86 417 86 415 89l-13-1v29h-1V88h-7c-1.676-.285-3.348-.6-5-1l-1-4-1 19h-15V73h-5v-1h5l-.254-3.332c-.593-8.38-.807-16.298.254-24.668l15-1V29q4.717-.294 9.438-.562l2.662-.17c5.78-.32 11.163-.056 16.9.732"/><path fill="#965f55" d="M343 394h15v15h14v43h14c1 1 1 1 1.098 4.16L387 467h-14v15h14v14h14v-43h1v44l-13 1-.437 4.25c-.316 3.064-.809 5.733-1.563 8.75h-29c-.656-7.218-1.082-13.586-.562-20.687l.158-2.452q.192-2.931.404-5.861l1.828-.184 2.422-.253 2.39-.247c2.656-.311 2.656-.311 6.36-1.316v-12l-3 1c-3.386-.464-6.66-1.262-10-2l-1-14-4.348.254-5.714.308-2.858.17-2.803.147-2.555.143c-3.258-.026-6.496-.561-9.722-1.022v29h-1v-30h30v-29h-15z"/><path fill="#ab614b" d="M256 292h29v29h-15v15h-15l1 14h-15v15h-29v-29h29v-15h15z"/><path fill="#3c5a45" d="M285 336h43v43h-58v-29h15z"/><path fill="#673631" d="M314 248h44v14h14v-14h15v14l-15 1v14h15v-14h14v15h-13v13c-5.625 2.25-5.625 2.25-9.24 2.135l-2.425-.06c-1.274-.05-1.274-.05-2.573-.098l-2.67-.076c-2.801-.082-5.603-.179-8.404-.276l-5.713-.172c-4.66-.138-9.317-.296-13.975-.453v-29h-43v-1h14z"/><path fill="#3a5742" d="M197 263h15v14h44v44h-15v15h-29v-15h14v-14h15v-15h-44z"/><path fill="#704033" d="M292.875 378.938q3.084.008 6.168.013c4.986.01 9.971.03 14.957.049v30h-73v-15h15v-14c12.312-1.096 24.524-1.115 36.875-1.062"/><path fill="#46232a" d="M110 88h15v58h14v14h-15v44h-14a22481 22481 0 0 1-.443-33.414q-.097-7.762-.205-15.524c-.315-22.388-.575-44.695.648-67.062"/><path fill="#442128" d="M183 175h117v15H183z"/><path fill="#65332f" d="M314 263h29v29h29v44h-14v-29h-30v-30h-14z"/><path fill="#80473b" d="M373 336h13c1.308 11.906 1.111 23.787 1.063 35.75q-.009 3.242-.014 6.484c-.01 5.256-.03 10.51-.049 15.766h-29v-15h-15v-14h15v-15h15z"/><path fill="#441f27" d="M198 1h87v13h29v15h-29V15h-87z"/><path fill="#9d7968" d="M416 219c1.222 5.296.726 9.677 0 15h15v14h-15v15h-14v14h-1v-14h-14v14h-15v-14c3-1 3-1 15-1v-28h14v-15c11.625-1.125 11.625-1.125 15 0"/><path fill="#698f5b" d="M124 58c9.764-.092 19.262.197 29 1v28l-11 1c-1.04 7.793-1.069 15.459-.963 23.306l.025 2.573.036 2.33C141 118 141 118 140 119a145 145 0 0 0-.562 6.063L139 131h-14V88h-15v-1l14-1z"/><path fill="#2f574c" d="M372 292h1v43h14c1.177 2.353 1.166 3.88 1.188 6.5l.042 2.406C388 346 388 346 386 348v-12h-13v14h-15v15h-15v-29h-14v-15h14v-14h15v29h14z"/><path fill="#fcad92" d="M95 365h15v14h29v15h-15v15H95z"/><path fill="#8b4c3f" d="M256 204h44v15h-15v29h-15v-14h-14z"/><path fill="#3f5b46" d="M153 307h15v58h15v14h-30z"/><path fill="#905446" d="M372 44h1v29h14V44h14l1 43h14l-1 2-13-1v29h-1V88h-7c-1.676-.285-3.348-.6-5-1l-1-4-1 19h-15V73h-5v-1h5l-.254-3.332c-.59-8.343-.914-16.345.254-24.668"/><path fill="#723f33" d="M168 379c16.875 0 16.875 0 22.938.5l6.062.5v14h15v15h-44z"/><path fill="#6c3834" d="M343 263h15v14h29v-14h14v15h-13v13c-5.625 2.25-5.625 2.25-9.24 2.135l-2.425-.06-2.573-.098-2.67-.076c-2.801-.082-5.603-.179-8.404-.276l-5.713-.172c-4.66-.138-9.317-.296-13.975-.453z"/><path fill="#85493d" d="M241 292h15v29h-15v15h-29v-15h14v-14h15z"/><path fill="#6c8b5d" d="M314 29h15v15h14c2.24 6.718 1.94 7.748 0 14h15v1h-15v28h-14V59h-15z"/><path fill="#46252c" d="M198 467h14v37h-44v-22h15v7h15z"/><path fill="#97bb92" d="M256 59h29v14h15v29h-15V87h-15V73h-14z"/><path fill="#432027" d="M271 467h14v22h15v-7h14v21h-43z"/><path fill="#56353b" d="M401 453h1v44l-13 1-.437 4.25c-.316 3.064-.809 5.733-1.563 8.75h-29c-.656-7.215-1.08-13.59-.562-20.687L358 482h29v14h14z"/><path fill="#8c4d3f" d="M183 204h29v44h-15v-29h-14z"/><path fill="#824a3e" d="M95 350h29v15h15v14h-29v-14H95z"/><path fill="#49252b" d="M343 292h29v44h-14v-29h-15z"/><path fill="#57844c" d="M300 350h14v29h-44v-14h30z"/><path fill="#ab604a" d="M300 263h14v14h14v30h-14v-15h-14z"/><path fill="#a98b84" d="M372 160h1v44l12-1c3.118.077 6.151.193 9.25.438l2.293.158A711 711 0 0 1 402 204c.129 10.072-.235 19.956-1 30h-14v-15h-15z"/><path fill="#8e4e40" d="M328 175h15v15h-14v29h-15v-29h14z"/><path fill="#432027" d="M139 160h44v15h-44z"/><path fill="#673532" d="M343 160h15v44h-15z"/><path fill="#688d5a" d="M153 29h15v30h-29V44h14z"/><path fill="#47262b" d="m387 82 2 1v4l12 1v29h-29v-15h15z"/><path fill="#fcb096" d="M372 365h15v29h-29v-15h14z"/><path fill="#5e8252" d="M343 307h15v29h-29v-15h14z"/><path fill="#442028" d="M300 160h43v15h-43z"/><path fill="#618754" d="M343 88h15v43h-15z"/><path fill="#633832" d="M343 394h15v15h14v14h-29z"/><path fill="#8b4c3d" d="M256 380h44v14h-44z"/><path fill="#452028" d="M300 234h43v14h-43z"/><path fill="#638a56" d="M139 88v43h-14q-.185-7.98-.275-15.96-.037-2.715-.102-5.427c-.061-2.605-.09-5.207-.111-7.812l-.078-2.44c-.002-4.031.297-5.944 2.534-9.411C130 88 130 88 139 88"/><path fill="#824a3d" d="M168 467h30v22h-15v-7h-15z"/><path fill="#874c3f" d="M285 467h29v15h-14v7h-15z"/><path fill="#91584e" d="M372 44h1v29h14v29h-15V73h-5v-1h5l-.254-3.332c-.59-8.343-.914-16.345.254-24.668"/><path fill="#3c5d47" d="M270 350h30v15h-30z"/><path fill="#49272d" d="m96 320 14 1v29H95c-.764-9.768-1.441-19.246 0-29z"/><path fill="#4f2931" d="M387 263h14v15h-13v13c-6.215 2.486-9.444 1.79-16 1v-15h15z"/><path fill="#3c5846" d="M153 409h15v29h-15z"/><path fill="#421f25" d="M212 394h29v15h-29z"/><path fill="#884a3d" d="M212 321h29v15h-29z"/><path fill="#422127" d="M153 307h15v29h-15z"/><path fill="#6b3632" d="M168 219h15v29h-15z"/><path fill="#8c4d40" d="M226 219h15v29h-15z"/><path fill="#915143" d="M153 190h15v29h-15z"/><path fill="#563038" d="M285 14h29v15h-29z"/><path fill="#743d34" d="M285 263h14c.983 9.704 1.104 19.261 1 29h-15z"/><path fill="#4e2d33" d="M110 292h14v29h-13c-2.43-3.644-2.162-5.712-2-10l-2-1 .996-1.582c1.311-3.158 1.162-5.7 1.067-9.106A179 179 0 0 1 109 293z"/><path fill="#4c232c" d="m168 14 29 1v14h-29z"/><path fill="#3c5b47" d="M314 409h14v29h-14z"/><path fill="#401e25" d="M183 350h14v29h-14z"/><path fill="#3d5d44" d="M183 146h29v14h-29z"/><path fill="#638b56" d="M329 59h14v28h-14z"/><path fill="#224d3f" d="M314 59h14v28h-14z"/><path fill="#462027" d="M125 59h14v28h-14z"/><path fill="#92a283" d="M197 0h88v1h-87v14h14v14h-15V15h-23v-1h23z"/><path fill="#6e443f" d="M387 73h14l1 14h14l-1 2-13-1v29h-1V88h-7c-2.812-.187-2.812-.187-5-1-2.792-4.255-2.146-9.103-2-14"/><path fill="#295244" d="M137 336h2v29h-15v-15l14-1z"/><path fill="#d4816f" d="M372 365h1v29h-15v-15h14z"/><path fill="#5b383e" d="M329 44h14c2.24 6.718 1.94 7.748 0 14h15v1h-29z"/><path fill="#d27b6d" d="M124 379h15v15h-15z"/><path fill="#431f25" d="M270 350h15v15h-15z"/><path fill="#713c36" d="M328 292h15v15h-15z"/><path fill="#411f25" d="M241 292h15v15h-15z"/><path fill="#572b2c" d="M270 277h15v15h-15z"/><path fill="#472026" d="M372 219h15v15h-15z"/><path fill="#61302c" d="M285 219h15v15h-15z"/><path fill="#6f3e38" d="M372 102h15v15h-15z"/><path fill="#7fa375" d="M299 29h15v15h-15z"/><path fill="#6b8f5c" d="M168 29h15v15h-15z"/><path fill="#442127" d="M153 29h15v15h-15z"/><path fill="#3d5942" d="M168 262c10.84-.098 10.84-.098 14 0 1 1 1 1 1.098 4.16L183 277h-15z"/><path fill="#49242b" d="M387 263h14v15h-13l-1 5h-1v-5h-8v-1h9z"/><path fill="#4a222a" d="M416 219c1.222 5.296.726 9.677 0 15h-14v-15c10.625-1.125 10.625-1.125 14 0"/><path fill="#ce7d6d" d="M110 394h14v15h-14z"/><path fill="#431c24" d="M241 380h15v14h-15z"/><path fill="#411c23" d="M198 379h14v15h-14z"/><path fill="#385744" d="M270 365h15v14h-15z"/><path fill="#431f26" d="M285 336h15v14h-15z"/><path fill="#405e47" d="M329 321h14v15h-14z"/><path fill="#441f25" d="M212 321h14v15h-14z"/><path fill="#425f46" d="M139 321h14v15h-14z"/><path fill="#3f5c46" d="M343 307h15v14h-15z"/><path fill="#411f23" d="M226 307h15v14h-15z"/><path fill="#385440" d="M153 307h15v14h-15z"/><path fill="#7a4337" d="M300 292h14v15h-14z"/><path fill="#83483c" d="M256 292h14v15h-14z"/><path fill="#481f27" d="M329 277h14v15h-14z"/><path fill="#49252b" d="M125 277h14v15h-14z"/><path fill="#ab867a" d="M372 263h15v14h-15z"/><path fill="#945344" d="M343 263h15v14h-15z"/><path fill="#482027" d="M372 248h15v14h-15z"/><path fill="#905242" d="M328 248h15v14h-15z"/><path fill="#442025" d="M343 248h15v14h-15z"/><path fill="#482229" d="M416 234h15v14h-15z"/><path fill="#9e7a69" d="M372 234h15v14h-15z"/><path fill="#9e7b6a" d="M343 234h15v14h-15z"/><path fill="#b18b83" d="M387 219h14v15h-14z"/><path fill="#a37e6d" d="M358 219h14v15h-14z"/><path fill="#8e4e40" d="M300 219h14v15h-14z"/><path fill="#8f5041" d="M168 219h14v15h-14z"/><path fill="#8c4f41" d="M343 190h15v14h-15z"/><path fill="#608952" d="M285 59h15v14h-15z"/><path fill="#442026" d="M139 44h14v15h-14z"/><path fill="#739964" d="M270 15h15v14h-15z"/><path fill="#4a2a30" d="M358 453h14v14c-5.533 2.767-8.082 1.402-14 0z"/><path fill="#8b5045" d="M373 482h14v14h-14z"/><path fill="#8f5246" d="M373 453h14v14h-14z"/><path fill="#663833" d="M358 409h14v14h-14z"/><path fill="#84483d" d="M183 380h14v14h-14z"/><path fill="#421c24" d="M256 365h14v14h-14z"/><path fill="#472127" d="M198 336h14v14h-14z"/><path fill="#864a3f" d="M212 336h14v14h-14z"/><path fill="#562b2e" d="M300 307h14v14h-14z"/><path fill="#441e25" d="M358 263h14v14h-14z"/><path fill="#441e26" d="M314 263h14v14h-14z"/><path fill="#411f26" d="M183 263h14v14h-14z"/><path fill="#472128" d="M139 263h14v14h-14z"/><path fill="#703b33" d="M183 248h14v14h-14z"/><path fill="#472229" d="M402 248h14v14h-14z"/><path fill="#b38d84" d="M402 234h14v14h-14z"/><path fill="#472027" d="M387 234h14v14h-14z"/><path fill="#451f26" d="M358 234h14v14h-14z"/><path fill="#683530" d="M300 234h14v14h-14z"/><path fill="#462027" d="M387 205h14v14h-14z"/><path fill="#462028" d="M314 30h14v14h-14z"/><path fill="#4c252c" d="M373 336h13l1 14h-14z"/><path fill="#874e41" d="M358 409v14h-15v-7l1 2h2l.75-2.812c2.433-6.203 4.588-6.188 11.25-6.188"/><path fill="#7a8574" d="M124 58h15v1h-14v28h21l-4 1c-1.33 9.977-1.095 19.956-1 30l-2 1V88c-8.458.536-8.458.536-14 5v-5h-15v-1l14-1z"/><path fill="#7f6060" d="M401 219h1v43h14v1h-14v14h-1v-14h-26v-1h26z"/><path fill="#694f52" d="m124 200 1 4h12v1h-12v29h-1v-29h-14v-1h14z"/><path fill="#f9b3a1" d="M95 365h1c1.37 10.228 1.094 20.52 1.016 30.814A714 714 0 0 0 97 401l-2 4z"/><path fill="#a07b73" d="m372 263 4 1 1 4-4 2v7h-1z"/><path fill="#734438" d="M350.188 409.375 352 410l-1.875 1.188c-2.45 2.09-3.144 3.787-4.125 6.812h-2c-1.354-2.709-1.065-5.01-1-8l2 1c3-2 3-2 5.188-1.625"/><path fill="#1c4731" d="M300 146h28v1l-2.247.06c-3.356.095-6.71.205-10.065.315-1.168.03-2.335.062-3.538.094l-3.388.117-3.127.095c-2.863.146-2.863.146-5.635 2.319z"/><path fill="#a37c6b" d="M358 248h14v8l-.75-1.875c-1.552-2.639-2.36-3.136-5.25-4.125-2.667-.444-5.307-.73-8-1z"/><path fill="#5f704e" d="M124 87h14v1l-3.687.25c-4.098.488-6.314 1.845-9.313 4.75z"/><path fill="#415e43" d="M123 322h2v8l-4 1c-.25-5.625-.25-5.625 2-9"/><path fill="#894f46" d="M384 350h3v14l-2-1v-8l-2-1z"/><path fill="#8b6c58" d="m358 251 5 1c-1.375 2.5-1.375 2.5-3 5h-2z"/></svg>