<svg xmlns="http://www.w3.org/2000/svg" width="512" height="512" viewBox="0 0 512 512"><path fill="#33161a" d="M174.658.406h88.934V15.59h29.644v14.822h14.823v14.823h14.822v14.46h14.822V89.34h14.822v133.4h-14.822v14.822h-14.822v14.823h14.822v14.822h14.822v14.822h14.822v-29.644h14.823v-44.467h14.46v-14.822h14.823v-14.823h14.822v-14.822h14.822v14.822h14.822v59.29h-14.822v44.466h-14.822v44.467h-14.46v14.822h14.46v44.105h-29.283v30.006H382.17v14.822h-44.467v-29.644h-14.822v59.289h-14.822v29.283h-14.823v22.414H248.77v-37.236h-14.823v-14.823h-29.644v14.823H189.48v37.236h-44.467v-22.414h-14.822v-29.283h-14.823V430.25H70.903v-14.82H56.08v-59.65h14.823v-14.461h14.822v-14.822H70.903V282.03h14.822v-14.822h14.822v-14.822h14.822v-14.823h-14.46V222.74h14.46v-29.644h-14.822v29.644H85.725V89.34h14.822V59.695h14.822v-14.46h14.823V30.412h14.822V15.59h29.644z"/><path fill="#46545c" d="M174.658.406h88.934V15.59h29.644v14.822h14.823v14.823h14.822v14.46h14.822V89.34h14.822v.361h-14.822v59.29H233.947v44.105h14.823V163.45h59.289v74.111h-14.823v14.823h-14.822v14.822H159.836v-14.822h-14.822v-14.823h-14.822v-74.11h59.289v29.644h14.822V148.99H100.547V89.701H85.725v-.361h14.822V59.695h14.822v-14.46h14.823V30.412h14.822V15.59h29.644z"/><path fill="#643624" d="M159.836 282.03h30.006v14.46h58.928v-14.46h29.644v29.644h14.822v29.644h14.822v44.467h-14.822v58.927H145.014v-58.927h-14.822v-44.467h14.822v-29.644h14.822z"/><path fill="#fdbe99" d="M204.303 15.59h29.644v118.578h44.467v14.46h-44.467v44.468h14.823V163.45h59.289v74.111h-14.823v14.823h-14.822v14.822H159.836v-14.822h-14.822v-14.823h-14.822v-74.11h59.289v29.644h14.822v-44.467h-44.467v-14.822h44.467z"/><path fill="#33161a" d="M85.725 89.702h14.822v59.288h103.756v44.106H189.48V163.45h-59.29v74.111h14.823v14.823h14.822v14.822h118.578v-14.822h14.822v-14.823h14.822v-74.11H248.77v29.644h-14.822V148.99h103.756V89.702h14.822V222.74h-14.822v14.822H322.88v14.823h14.46v14.822h-44.105v44.467h-14.822v-29.645h-29.645v14.46h-58.927v-14.46h-30.006v29.645h-14.822v-44.467h-44.105v-14.822h14.46v-14.823h-14.46V222.74h14.46v-29.644h-14.822v29.644H85.725z"/><path fill="#8da2ad" d="M426.275 163.451h14.822v14.823h14.823v59.288h-14.823v44.467h-29.644v44.467H396.63v29.644h-29.283v-14.822h14.822v-14.822h-14.822V296.85h14.822v-88.933h14.46v-14.822h14.823v-14.822h14.822z"/><path fill="#5d707a" d="M248.77 15.59h44.466v14.823h14.823v14.822h14.822v14.46h14.822V89.34h14.822v.361h-14.822v29.283H248.77z"/><path fill="#5d7079" d="M145.014 15.59h44.467v103.394h-88.934V89.701H85.725v-.361h14.822V59.695h14.822v-14.46h14.823V30.413h14.822z"/><path fill="#90a6b1" d="M204.303 15.59h29.644v118.578h44.467v14.46h-44.467v44.468h-29.644v-44.467h-44.467v-14.822h44.467z"/><path fill="#b2a290" d="M263.592 296.852h14.822v14.822h14.822v59.289h-14.822v14.822h-59.289v-74.111h44.467zm-103.756 0h14.822v14.822h29.645v74.111h-44.467v-14.822h-14.822v-59.29h14.822z"/><path fill="#b2a28f" d="M145.014 415.43h148.222v29.283H145.014z"/><path fill="#814830" d="M70.903 341.318h44.466v59.29h-14.46v14.822H71.264v14.46h44.467v29.645h14.822v29.644h-.361v-29.283h-14.823v-29.644H70.903V415.43H56.08v-59.65h14.823z"/><path fill="#46555d" d="M233.947 15.59h14.823v103.394h88.933v30.006H233.947v-.361h44.467v-14.46h-44.467z"/><path fill="#755d56" d="M159.836 282.03h30.006v14.46h58.928v-14.46h29.644v14.822h-14.822v14.822h-44.467v74.111h-14.822v-74.111h-29.645v-14.822h-14.822z"/><path fill="#8da2ac" d="M337.342 252.385h.361v14.822h14.822v44.467h-14.822v14.822H308.06v-14.822h-14.823v-44.467h44.106z"/><path fill="#5c6f77" d="M100.547 252.385h.362v14.822h44.105v44.467h-14.822v14.822h-29.645v-14.822H85.725v-44.467h14.822z"/><path fill="#cfe0e7" d="M159.836 133.807q17.138-.017 34.277-.023h1.277c21.808-.008 43.615.002 65.423.204l1.419.013q8.091.076 16.182.167v14.461h-44.467v44.467h-29.644v-44.467h-44.467z"/><path fill="#90a6b1" d="M174.658 45.235h14.823v73.75h-29.645v-14.823h-14.822V74.88h14.822V59.695h14.822z"/><path fill="#8fa5b0" d="M248.77 45.235h14.822v14.822h14.822v14.822h14.822v29.283h-14.822v14.822H248.77z"/><path fill="#394760" d="M248.77 459.535h44.466v52.058H248.77zm-103.756 0h44.467v52.058h-44.467z"/><path fill="#cedee5" d="M411.814 193.457h14.461v29.283h-14.46v44.467H396.63v29.644h-14.46v-44.466h14.822v-44.467h14.822z"/><path fill="#7f472f" d="M159.836 385.785h118.578v14.822a156509 156509 0 0 1-50.488.02h-1.07l-17.193.008q-8.814.006-17.627.006-5.444 0-10.886.005-3.728.003-7.455.002-2.154 0-4.307.002-1.97.003-3.937.001l-2.113.003-1.25-.002h-1.087c-.803-.045-.803-.045-1.165-.406z"/><path fill="#d8846c" d="M248.77 163.451h59.289v74.111h-14.823V222.74h14.461v-44.466h-29.283v29.644h-14.822v-29.644H248.77z"/><path fill="#da856d" d="M130.192 163.451h59.289v14.823h-14.823v29.644h-14.822v-29.644h-29.283v44.466h14.46v14.822h-14.821z"/><path fill="#5d7079" d="M130.553 60.057h14.46v44.105h14.823v14.822H115.37V89.702h15.184z"/><path fill="#5c6e77" d="M293.236 267.207h14.823v29.645h14.822v14.822h14.822v14.822H308.06v-14.822h-14.823z"/><path fill="#fdbe98" d="M71.264 370.963h14.46v14.822h29.645v14.46h-14.822v14.823H71.264z"/><path fill="#331419" d="M175.02.768h88.21v14.46h-88.21z"/><path fill="#766456" d="M204.303 311.674h14.822v74.111h-14.822z"/><path fill="#33161a" d="M248.77 474.357h14.822v22.414h14.822v-7.592h14.46v22.414H248.77zm-74.112 0h14.823v37.236h-44.106V489.18h14.461v7.592h14.822z"/><path fill="#814831" d="M322.88 341.318h14.823v14.823h14.46l.182 6.484.057 1.936c.184 7.08.123 14.132.123 21.224h-29.644z"/><path fill="#715d51" d="M130.192 415.43h14.822v29.283h148.222V415.43h14.822v29.644H130.192z"/><path fill="#5d7079" d="M233.947 133.807h103.395v14.822h-58.928v-14.46h-44.467z"/><path fill="#8ea2ad" d="M100.547 252.385h.362v14.822h29.283v29.645h-29.645z"/><path fill="#756355" d="M293.236 341.318h14.823v44.467h-29.645v-14.822h14.822z"/><path fill="#766355" d="M130.192 341.318h14.822v29.645h14.822v14.822h-29.644z"/><path fill="#8da2ac" d="M322.88 282.03h29.645v29.644h-29.644z"/><path fill="#8da2ad" d="M85.725 267.207h14.822v29.645h14.822v14.822H85.725z"/><path fill="#32161a" d="M396.63 193.096h14.823v14.822h-14.46v44.467H382.17v-44.467h14.46z"/><path fill="#d9856c" d="M204.303 193.096h29.644v29.644h-29.644z"/><path fill="#32171b" d="M441.097 178.274h14.823v59.288h-14.823z"/><path fill="#8aa0ab" d="M219.125 148.99h14.822v44.106h-29.644v-14.822h14.822z"/><path fill="#5e7079" d="M100.909 133.807h58.927v14.822h-58.927z"/><path fill="#334e73" d="M189.48 297.213h59.29v14.46h-59.29z"/><path fill="#321519" d="M56.442 356.14h14.46v58.928h-14.46z"/><path fill="#b22b33" d="M189.842 282.03h58.928v14.46h-58.928z"/><path fill="#32171b" d="M426.275 237.563h14.822v44.466h-14.822z"/><path fill="#3b4861" d="M85.725 341.318h29.644v29.645h-14.822V356.14c-4.743.014-4.743.014-9.485.032l-1.777.003-.94.005a77 77 0 0 1-2.259-.04l-.361-.362z"/><path fill="#d0e1e6" d="M204.303 45.235h14.822V89.34h-14.822z"/><path fill="#d0e1e7" d="M159.836 60.057h14.822V89.34h-29.644V74.88h14.822z"/><path fill="#321519" d="M411.814 282.03h14.461v44.466h-14.46z"/><path fill="#7f4831" d="M263.592 474.357h29.644v37.236h-.361V489.18h-14.46v7.592h-14.823zm-118.578 0h29.644v22.414h-14.822v-7.592h-14.46v22.414h-.362z"/><path fill="#a67d5a" d="M366.986 296.852h.362v29.644h14.822v14.822h-29.645v-14.822h14.461z"/><path fill="#d4836c" d="M100.547 193.096h14.822v29.644h-14.46v14.823h-.362z"/><path fill="#b6c9cf" d="M204.303 148.629h29.644v.362h-14.822v29.283h-14.822z"/><path fill="#fdbe98" d="M367.348 370.963h14.822v29.644h-14.822z"/><path fill="#5d6374" d="M322.88 341.318h14.823v29.645h-14.822z"/><path fill="#cedfe4" d="M367.348 296.852h14.822v29.644h-14.822z"/><path fill="#344d72" d="M159.836 282.03h29.645v14.822h-29.645z"/><path fill="#341619" d="M204.303 193.096h29.644v14.822h-29.644z"/><path fill="#d7846c" d="M322.88 193.096h14.823v29.644h-14.822z"/><path fill="#351618" d="M263.592 178.274h14.822v29.644h-14.822z"/><path fill="#331519" d="M159.836 178.274h14.822v29.644h-14.822z"/><path fill="#623423" d="M322.88 163.451h14.823v29.645h-14.822z"/><path fill="#623523" d="M100.547 163.451h14.822v29.645h-14.822z"/><path fill="#34161b" d="M263.592 15.59h29.644v14.823h-29.644z"/><path fill="#33161b" d="M145.014 15.59h29.644v14.823h-29.644z"/><path fill="#aa7f58" d="M367.348 341.318h29.283v14.823h-29.283z"/><path fill="#776456" d="M130.553 415.43h14.46v29.283h-14.46z"/><path fill="#8fa5b0" d="M322.88 89.702h14.462v29.282H322.88z"/><path fill="#90a5b0" d="M100.909 89.702h14.46v29.282h-14.46z"/><path fill="#33151a" d="M322.88 60.057h14.462V89.34H322.88z"/><path fill="#90a5b1" d="M308.059 60.057h14.46V89.34h-14.46zm-192.329 0h14.462V89.34H115.73z"/><path fill="#33151a" d="M100.909 60.057h14.46V89.34h-14.46z"/><path fill="#d18169" d="M130.192 163.451h59.289v.362h-58.928v58.927h14.46v14.822h-14.821z"/><path fill="#391f23" d="M396.63 193.096h14.823v14.822h-14.46v44.467h-.362z"/><path fill="#8ea3ae" d="M233.947 133.807h59.29v14.822h-14.823v-14.46h-44.467z"/><path fill="#ac815c" d="M352.525 400.607h14.823v14.823h-14.823z"/><path fill="#5d6375" d="M100.547 356.14h14.822v14.823h-14.822z"/><path fill="#3b475f" d="M322.88 341.318h14.823v14.823h-14.822z"/><path fill="#32161a" d="M367.348 326.496h14.822v14.822h-14.822z"/><path fill="#776456" d="M278.414 311.674h14.822v14.822h-14.822zm-133.4 0h14.822v14.822h-14.822z"/><path fill="#766658" d="M174.658 296.852h14.823v14.822h-14.823z"/><path fill="#ccdde4" d="M322.88 282.03h14.823v14.822h-14.822z"/><path fill="#766457" d="M263.592 282.03h14.822v14.822h-14.822z"/><path fill="#766456" d="M159.836 282.03h14.822v14.822h-14.822z"/><path fill="#ccdde4" d="M100.547 282.03h14.822v14.822h-14.822z"/><path fill="#33151a" d="M337.703 267.207h14.822v14.822h-14.822z"/><path fill="#321619" d="M85.725 267.207h14.822v14.822H85.725z"/><path fill="#d8866e" d="M263.592 252.385h14.822v14.822h-14.822z"/><path fill="#d8856c" d="M159.836 252.385h14.822v14.822h-14.822z"/><path fill="#d9846c" d="M278.414 237.563h14.822v14.822h-14.822z"/><path fill="#d9856d" d="M145.014 237.563h14.822v14.822h-14.822z"/><path fill="#d8846c" d="M189.48 193.096h14.823v14.822H189.48z"/><path fill="#d8856d" d="M233.947 193.096h14.823v14.822h-14.823z"/><path fill="#33161a" d="M426.275 163.451h14.822v14.823h-14.822z"/><path fill="#91a6b1" d="M145.014 60.057h14.822v14.822h-14.822z"/><path fill="#331519" d="M293.236 30.413h14.823v14.822h-14.823z"/><path fill="#8fa4af" d="M278.414 30.413h14.822v14.822h-14.822zm-133.4 0h14.822v14.822h-14.822z"/><path fill="#33171c" d="M130.192 30.413h14.822v14.822h-14.822z"/><path fill="#92a6b1" d="M248.77 15.59h14.822v14.823H248.77z"/><path fill="#92a6b2" d="M174.658 15.59h14.823v14.823h-14.823z"/><path fill="#5c6375" d="M85.725 341.318h14.822v14.823l-7.208.022-2.277.01-1.777.003-.94.005a77 77 0 0 1-2.259-.04c-.361-.362-.361-.362-.402-1.73q0-.915.006-1.83v-.86q.005-1.598.012-3.195z"/><path fill="#d6846c" d="M100.547 385.785h14.822v14.46h-14.822z"/><path fill="#804730" d="M337.703 356.14h14.46v14.823h-14.46z"/><path fill="#321619" d="M71.264 341.318h14.46v14.823h-14.46z"/><path fill="#314d75" d="M249.131 282.03h14.46v14.822h-14.46z"/><path fill="#fdbf9a" d="M322.88 207.918h14.462v14.822H322.88z"/><path fill="#fdbf99" d="M100.909 207.918h14.46v14.822h-14.46z"/><path fill="#cfdee5" d="M426.637 178.274h14.46v14.822h-14.46z"/><path fill="#311519" d="M411.814 178.274h14.461v14.822h-14.46z"/><path fill="#91a5b0" d="M145.014 134.168h14.822v14.461h-14.822z"/><path fill="#321619" d="M308.059 45.235h14.822v14.46h-14.822z"/><path fill="#d8866f" d="M337.703 370.963h14.46v14.46h-14.46z"/><path fill="#ac815c" d="M396.992 356.14h14.46v14.461h-14.46z"/><path fill="#91a6b1" d="M293.236 45.235h14.461v14.46h-14.46zm-162.683 0h14.46v14.46h-14.46z"/><path fill="#311418" d="M115.73 45.235h14.462v14.46H115.73z"/><path fill="#866e69" d="M56.08 355.78h14.823v.36H56.442v58.928h14.46v-44.105h.362v44.105h29.283v-14.822h14.822v.361h-14.46v14.823H71.264v14.46h44.467v29.645h14.822v29.644h-.361v-29.283h-14.823v-29.644H70.903V415.43H56.08z"/><path fill="#78797f" d="M115.37 45.235h.36v14.46h14.462v-14.46h.361v14.46h29.283v.362h-29.283v29.644H100.91v29.283h-.362V89.701H85.725v-.361h14.822V59.695h14.822zm-14.461 14.822V89.34h14.46V60.057zm14.822 0V89.34h14.46V60.057z"/><path fill="#7c848c" d="M307.697 45.235h.362v14.46h29.644V89.34h14.822v.361h-14.822v29.283h-.361V89.701h-29.645V60.057h-14.46v-.362h14.46zm.362 14.822V89.34h14.46V60.057zm14.822 0V89.34h14.46V60.057z"/><path fill="#9c3440" d="M189.842 282.03h58.928v14.46h-58.928zm.362.36q-.014 2.85-.02 5.696-.002.97-.008 1.939a932 932 0 0 0-.008 2.78l-.005.882c0 .693.018 1.387.04 2.08.388.469.388.469 1.304.406l1.284-.001h.712q1.19.002 2.38-.002h1.699q2.314 0 4.627-.005l4.83-.003q4.576-.001 9.153-.007l10.418-.008q10.718-.006 21.437-.018.012-2.848.02-5.696.002-.969.007-1.938.005-1.39.008-2.781l.005-.881c0-.694-.018-1.387-.04-2.08-.388-.47-.388-.47-1.304-.407l-1.284.001h-.712q-1.19-.002-2.38.003h-1.699q-2.313 0-4.627.004l-4.83.003q-4.577.002-9.153.008l-10.418.008q-10.717.005-21.436.018"/><path fill="#431b13" d="M159.836 178.274h14.822v29.644h-14.822zm.723.723v28.198c3.017.307 3.017.307 6.012.41h1.245l1.261-.003 1.3.004 1.232-.001 1.118-.002c.832.049.832.049 1.208-.408.058-.603.091-1.209.115-1.815l.046-1.173.043-1.282.045-1.324c.24-7.55.138-15.062-.249-22.604z"/><path fill="#e5b299" d="M367.348 370.963h14.822v29.644h-14.822zm.723.361c-.608.609-.407 1.358-.41 2.17l.001.783-.002.82q-.001 1.35.001 2.7v1.869q-.001 1.96.001 3.92.002 2.52-.001 5.037-.002 1.93 0 3.86l-.001 1.857q-.001 1.296.002 2.592l-.002.783c-.097 1.187-.097 1.187.41 2.17h13.377v-28.56z"/><path fill="#3a2729" d="M426.275 163.451h14.822v14.823h-14.822zm.723.723v13.376c1.583.317 2.997.41 4.594.397h.705l2.587-.012 5.852-.023v-13.738z"/><path fill="#756d71" d="M337.342 60.057h.361V89.34h14.822v.362h-14.822v29.282h-.361V89.702H322.88v-.362h14.46z"/><path fill="#322226" d="M293.236 30.413h14.823v14.822h-14.823zm1.085.361c-.676 1.69-.82 2.836-.794 4.594l.003.705q.006 1.293.023 2.587l.045 5.852h13.738V30.774z"/><path fill="#3c4a64" d="M249.131 282.03h14.46v14.822h-14.46v-.362c1.658-.324 3.224-.404 4.912-.397l1.407.003 1.77.01 5.649.023V282.39h-13.376l-.362.723z"/><path fill="#312125" d="M337.703 267.207h5.061c-1.532.766-2.307.755-3.976.723-.735.735-.455 2.232-.476 3.244l-.02.774q-.037 1.437-.07 2.874l-.157 6.484 13.737.362v-14.46h.723v14.821h-14.822z"/><path fill="#9da7ad" d="M425.914 237.563h.361v44.466l-4.7-.361v-.362l3.977-.361z"/><path fill="#6b6668" d="M248.77 296.852h14.822v.361l-13.738.723c-.572 1.144-.449 2.383-.476 3.64l-.022.873q-.035 1.38-.067 2.763l-.047 1.87q-.058 2.296-.11 4.592h-.362z"/><path fill="#413f50" d="M322.88 341.318h14.823v14.823h-.361V341.68l-6.666.158-2.106.047-1.643.042-.87.018c-1.337-.088-1.337-.088-2.453.458q-.125 1.185-.203 2.372l-.092 1.312-.067 1.016h-.361z"/><path fill="#362425" d="M85.725 267.207h.723v14.1l1.084.36-1.807.362z"/><path fill="#ac866a" d="M352.525 326.496h3.254l.723.723-3.254.362v13.014l.723.362h-1.446z"/><path fill="#666a71" d="M293.236 267.207h3.977v.362l-2.224.247c-.672.049-.672.049-1.03.476-.056.51-.09 1.024-.114 1.537l-.046.936-.043.984-.047.987q-.059 1.212-.111 2.424h-.362z"/></svg>