<?xml version="1.0" encoding="UTF-8"?>
<svg version="1.1" xmlns="http://www.w3.org/2000/svg" width="2048" height="2048">
<path d="M0 0 C81.18 0 162.36 0 246 0 C246 13.53 246 27.06 246 41 C273.06 41 300.12 41 328 41 C328 54.53 328 68.06 328 82 C341.53 82 355.06 82 369 82 C369 95.53 369 109.06 369 123 C382.53 123 396.06 123 410 123 C410 136.2 410 149.4 410 163 C423.53 163 437.06 163 451 163 C451 190.06 451 217.12 451 245 C464.53 245 478.06 245 492 245 C492 353.24 492 461.48 492 573 C505.53 573 519.06 573 533 573 C533 586.53 533 600.06 533 614 C519.47 614 505.94 614 492 614 C492 627.53 492 641.06 492 655 C437.88 655 383.76 655 328 655 C328 668.53 328 682.06 328 696 C341.53 696 355.06 696 369 696 C369 709.53 369 723.06 369 737 C382.53 737 396.06 737 410 737 C410 777.59 410 818.18 410 860 C396.47 860 382.94 860 369 860 C369 981.77 369 1103.54 369 1229 C355.47 1229 341.94 1229 328 1229 C328 1289.72 328 1350.44 328 1413 C273.88 1413 219.76 1413 164 1413 C164 1379.01 164 1345.02 164 1310 C150.47 1310 136.94 1310 123 1310 C123 1343.99 123 1377.98 123 1413 C55.35 1413 -12.3 1413 -82 1413 C-82 1392.54 -82 1372.08 -82 1351 C-68.47 1351 -54.94 1351 -41 1351 C-41 1337.47 -41 1323.94 -41 1310 C-54.53 1310 -68.06 1310 -82 1310 C-82 1283.27 -82 1256.54 -82 1229 C-95.53 1229 -109.06 1229 -123 1229 C-123 1174.88 -123 1120.76 -123 1065 C-136.53 1065 -150.06 1065 -164 1065 C-164 1051.47 -164 1037.94 -164 1024 C-177.53 1024 -191.06 1024 -205 1024 C-205 1010.47 -205 996.94 -205 983 C-232.06 983 -259.12 983 -287 983 C-287 969.47 -287 955.94 -287 942 C-300.2 942 -313.4 942 -327 942 C-327 928.47 -327 914.94 -327 901 C-313.8 901 -300.6 901 -287 901 C-287 873.94 -287 846.88 -287 819 C-300.53 819 -314.06 819 -328 819 C-328 791.94 -328 764.88 -328 737 C-341.53 737 -355.06 737 -369 737 C-369 709.94 -369 682.88 -369 655 C-382.53 655 -396.06 655 -410 655 C-410 627.94 -410 600.88 -410 573 C-423.53 573 -437.06 573 -451 573 C-451 518.88 -451 464.76 -451 409 C-423.61 409 -396.22 409 -368 409 C-368 422.53 -368 436.06 -368 450 C-354.47 450 -340.94 450 -327 450 C-327 463.53 -327 477.06 -327 491 C-313.47 491 -299.94 491 -286 491 C-286 504.53 -286 518.06 -286 532 C-272.8 532 -259.6 532 -246 532 C-246 437.29 -246 342.58 -246 245 C-232.47 245 -218.94 245 -205 245 C-205.01160156 239.16441406 -205.02320313 233.32882812 -205.03515625 227.31640625 C-205.04026301 223.62955619 -205.04507678 219.94271046 -205.04882812 216.25585938 C-205.05481657 210.39802144 -205.06191689 204.54019907 -205.07543945 198.68237305 C-205.08626834 193.96212022 -205.09227684 189.24188408 -205.09487724 184.5216198 C-205.09673149 182.71661046 -205.10035209 180.91160208 -205.10573006 179.10659981 C-205.11294052 176.58740356 -205.11399094 174.0682771 -205.11352539 171.54907227 C-205.11712067 170.79525772 -205.12071594 170.04144318 -205.12442017 169.26478577 C-205.11405216 164.11405216 -205.11405216 164.11405216 -204 163 C-201.04316769 162.91132364 -198.10914786 162.88472473 -195.15234375 162.90234375 C-193.97436218 162.90385437 -193.97436218 162.90385437 -192.77258301 162.90539551 C-189.82754057 162.91064362 -186.88251888 162.92460477 -183.9375 162.9375 C-174.0684375 162.9684375 -174.0684375 162.9684375 -164 163 C-164 149.47 -164 135.94 -164 122 C-150.47 122 -136.94 122 -123 122 C-123 108.8 -123 95.6 -123 82 C-109.47 82 -95.94 82 -82 82 C-82 68.47 -82 54.94 -82 41 C-54.94 41 -27.88 41 0 41 C0 27.47 0 13.94 0 0 Z " fill="#45545C" transform="translate(901,328)"/>
<path d="M0 0 C13.53 0 27.06 0 41 0 C41 40.59 41 81.18 41 123 C81.59 123 122.18 123 164 123 C164 136.53 164 150.06 164 164 C150.47 164 136.94 164 123 164 C123 204.59 123 245.18 123 287 C203.85 287 284.7 287 368 287 C368 408.44 368 529.88 368 655 C354.8 655 341.6 655 328 655 C328 628.27 328 601.54 328 574 C219.76 574 111.52 574 0 574 C0 587.53 0 601.06 0 615 C13.53 615 27.06 615 41 615 C41 628.53 41 642.06 41 656 C135.38 656 229.76 656 327 656 C328.14969136 762.9212963 328.14969136 762.9212963 328.0625 800.3125 C328.041875 813.409375 328.02125 826.50625 328 840 C273.88 840 219.76 840 164 840 C164 806.01 164 772.02 164 737 C150.47 737 136.94 737 123 737 C123 770.99 123 804.98 123 840 C55.35 840 -12.3 840 -82 840 C-82 819.54 -82 799.08 -82 778 C-68.47 778 -54.94 778 -41 778 C-41 764.47 -41 750.94 -41 737 C-54.53 737 -68.06 737 -82 737 C-82 710.27 -82 683.54 -82 656 C-95.53 656 -109.06 656 -123 656 C-123 601.88 -123 547.76 -123 492 C-136.53 492 -150.06 492 -164 492 C-164 478.47 -164 464.94 -164 451 C-177.53 451 -191.06 451 -205 451 C-205 437.47 -205 423.94 -205 410 C-232.06 410 -259.12 410 -287 410 C-287 396.47 -287 382.94 -287 369 C-300.2 369 -313.4 369 -327 369 C-327 355.47 -327 341.94 -327 328 C-313.8 328 -300.6 328 -287 328 C-287 300.94 -287 273.88 -287 246 C-300.2 246 -313.4 246 -327 246 C-327 218.94 -327 191.88 -327 164 C-313.47 164 -299.94 164 -286 164 C-286 191.06 -286 218.12 -286 246 C-272.8 246 -259.6 246 -246 246 C-246 259.53 -246 273.06 -246 287 C-218.94 287 -191.88 287 -164 287 C-164 259.94 -164 232.88 -164 205 C-136.94 205 -109.88 205 -82 205 C-82 191.47 -82 177.94 -82 164 C-95.53 164 -109.06 164 -123 164 C-123 150.47 -123 136.94 -123 123 C-82.41 123 -41.82 123 0 123 C0 82.41 0 41.82 0 0 Z " fill="#341619" transform="translate(901,901)"/>
<path d="M0 0 C0 67.65 0 135.3 0 205 C27.06 205 54.12 205 82 205 C82 218.53 82 232.06 82 246 C68.47 246 54.94 246 41 246 C41 259.53 41 273.06 41 287 C-13.12 287 -67.24 287 -123 287 C-123 300.53 -123 314.06 -123 328 C-109.47 328 -95.94 328 -82 328 C-82 341.53 -82 355.06 -82 369 C-68.47 369 -54.94 369 -41 369 C-41 409.59 -41 450.18 -41 492 C-54.53 492 -68.06 492 -82 492 C-82 613.77 -82 735.54 -82 861 C-95.53 861 -109.06 861 -123 861 C-123 891.69 -123 922.38 -123 954 C-123.33 954 -123.66 954 -124 954 C-124 923.31 -124 892.62 -124 861 C-218.38 861 -312.76 861 -410 861 C-410 847.47 -410 833.94 -410 820 C-423.53 820 -437.06 820 -451 820 C-451 806.47 -451 792.94 -451 779 C-342.76 779 -234.52 779 -123 779 C-123 805.73 -123 832.46 -123 860 C-109.8 860 -96.6 860 -83 860 C-83 738.56 -83 617.12 -83 492 C-163.85 492 -244.7 492 -328 492 C-328 451.41 -328 410.82 -328 369 C-314.47 369 -300.94 369 -287 369 C-287 341.94 -287 314.88 -287 287 C-273.47 287 -259.94 287 -246 287 C-246 232.88 -246 178.76 -246 123 C-259.53 123 -273.06 123 -287 123 C-287 96.27 -287 69.54 -287 42 C-300.53 42 -314.06 42 -328 42 C-328 28.47 -328 14.94 -328 1 C-286.35915437 0.8725889 -244.71830869 0.74519208 -203.07746295 0.61781773 C-198.16679496 0.60279657 -193.25612697 0.58777528 -188.34545898 0.57275391 C-187.36779026 0.56976329 -186.39012154 0.56677268 -185.3828265 0.56369144 C-169.53081243 0.51520101 -153.6787984 0.46669978 -137.82678438 0.41819459 C-121.57381123 0.36846276 -105.32083805 0.31874245 -89.06786484 0.26903296 C-79.03047896 0.23833338 -68.99309312 0.2076247 -58.9557073 0.17690456 C-52.08246478 0.15586936 -45.20922223 0.13484531 -38.33597965 0.11383021 C-34.36430814 0.10168639 -30.39263665 0.08953749 -26.42096519 0.07737541 C-22.79100001 0.06625982 -19.16103478 0.05515809 -15.53106951 0.0440678 C-13.58327626 0.03811317 -11.63548305 0.03214334 -9.68768984 0.02617311 C-8.54662844 0.02268972 -7.40556704 0.01920632 -6.22992802 0.01561737 C-4.74047502 0.01106073 -4.74047502 0.01106073 -3.22093207 0.00641203 C-1 0 -1 0 0 0 Z " fill="#5B6C74" transform="translate(1352,696)"/>
<path d="M0 0 C13.53 0 27.06 0 41 0 C41 40.59 41 81.18 41 123 C81.59 123 122.18 123 164 123 C164 136.53 164 150.06 164 164 C150.47 164 136.94 164 123 164 C123 204.59 123 245.18 123 287 C203.85 287 284.7 287 368 287 C368 408.44 368 529.88 368 655 C354.8 655 341.6 655 328 655 C328 628.27 328 601.54 328 574 C287.41 574 246.82 574 205 574 C205 560.47 205 546.94 205 533 C245.59 533 286.18 533 328 533 C328 519.14 328 505.28 328 491 C273.55 491 219.1 491 163 491 C163 503.87 163 516.74 163 530 C161 532 161 532 158.87981987 532.24609566 C157.99674219 532.24425207 157.11366451 532.24240849 156.2038269 532.24050903 C155.19137909 532.24325836 154.17893127 532.24600769 153.13580322 532.24884033 C152.02090515 532.24164978 150.90600708 532.23445923 149.75732422 532.22705078 C148.5866037 532.22734283 147.41588318 532.22763489 146.20968628 532.22793579 C142.99496203 532.22677919 139.78041071 532.21673198 136.56572104 532.20278788 C133.20781292 532.19030592 129.84990161 532.18911203 126.49197388 532.18673706 C120.13129983 532.18051481 113.77069434 532.16409398 107.41005051 532.14403808 C100.16952276 532.1217022 92.92899179 532.11069148 85.68843818 532.10064721 C70.79224762 532.07972835 55.89614613 532.04304288 41 532 C41 545.53 41 559.06 41 573 C27.8 573 14.6 573 1 573 C1 559.47 1 545.94 1 532 C-12.86 532 -26.72 532 -41 532 C-41 545.86 -41 559.72 -41 574 C-54.53 574 -68.06 574 -82 574 C-82 600.73 -82 627.46 -82 655 C-95.2 655 -108.4 655 -122 655 C-122 601.21 -122 547.42 -122 492 C-41.15 492 39.7 492 123 492 C123 478.47 123 464.94 123 451 C150.06 451 177.12 451 205 451 C205 437.47 205 423.94 205 410 C218.53 410 232.06 410 246 410 C246 423.53 246 437.06 246 451 C273.06 451 300.12 451 328 451 C328 423.94 328 396.88 328 369 C314.47 369 300.94 369 287 369 C287 355.47 287 341.94 287 328 C206.15 328 125.3 328 42 328 C42 314.47 42 300.94 42 287 C55.2 287 68.4 287 82 287 C82 259.94 82 232.88 82 205 C68.47 205 54.94 205 41 205 C41 218.53 41 232.06 41 246 C13.94 246 -13.12 246 -41 246 C-41 259.53 -41 273.06 -41 287 C-54.53 287 -68.06 287 -82 287 C-82 300.53 -82 314.06 -82 328 C-41.41 328 -0.82 328 41 328 C41 341.53 41 355.06 41 369 C0.41 369 -40.18 369 -82 369 C-82 382.53 -82 396.06 -82 410 C-95.53 410 -109.06 410 -123 410 C-123 436.73 -123 463.46 -123 491 C-136.2 491 -149.4 491 -163 491 C-163 477.8 -163 464.6 -163 451 C-176.86 451 -190.72 451 -205 451 C-205 437.47 -205 423.94 -205 410 C-232.06 410 -259.12 410 -287 410 C-287 396.47 -287 382.94 -287 369 C-300.2 369 -313.4 369 -327 369 C-327 355.47 -327 341.94 -327 328 C-313.8 328 -300.6 328 -287 328 C-287 300.94 -287 273.88 -287 246 C-300.2 246 -313.4 246 -327 246 C-327 218.94 -327 191.88 -327 164 C-313.47 164 -299.94 164 -286 164 C-286 191.06 -286 218.12 -286 246 C-272.8 246 -259.6 246 -246 246 C-246 259.53 -246 273.06 -246 287 C-218.94 287 -191.88 287 -164 287 C-164 259.94 -164 232.88 -164 205 C-136.94 205 -109.88 205 -82 205 C-82 191.47 -82 177.94 -82 164 C-95.53 164 -109.06 164 -123 164 C-123 150.47 -123 136.94 -123 123 C-82.41 123 -41.82 123 0 123 C0 82.41 0 41.82 0 0 Z " fill="#34171A" transform="translate(901,901)"/>
<path d="M0 0 C13.53 0 27.06 0 41 0 C41 40.59 41 81.18 41 123 C54.53 123 68.06 123 82 123 C82 95.94 82 68.88 82 41 C95.53 41 109.06 41 123 41 C123 27.47 123 13.94 123 0 C150.06 0 177.12 0 205 0 C205 40.59 205 81.18 205 123 C218.53 123 232.06 123 246 123 C246 82.74 246 42.48 246 1 C259.53 1 273.06 1 287 1 C287 27.73 287 54.46 287 82 C300.53 82 314.06 82 328 82 C328 136.12 328 190.24 328 246 C314.47 246 300.94 246 287 246 C287 259.53 287 273.06 287 287 C246.41 287 205.82 287 164 287 C164 246.41 164 205.82 164 164 C150.47 164 136.94 164 123 164 C123 204.59 123 245.18 123 287 C82.41 287 41.82 287 0 287 C0 300.53 0 314.06 0 328 C13.53 328 27.06 328 41 328 C41 341.53 41 355.06 41 369 C13.94 369 -13.12 369 -41 369 C-41 341.94 -41 314.88 -41 287 C-54.53 287 -68.06 287 -82 287 C-82 273.47 -82 259.94 -82 246 C-68.47 246 -54.94 246 -41 246 C-41 205.41 -41 164.82 -41 123 C-27.47 123 -13.94 123 0 123 C0 82.41 0 41.82 0 0 Z " fill="#FBB48D" transform="translate(778,737)"/>
<path d="M0 0 C40.92 0 81.84 0 124 0 C124 13.53 124 27.06 124 41 C164.26 41 204.52 41 246 41 C246 67.73 246 94.46 246 122 C259.2 122 272.4 122 286 122 C286 108.8 286 95.6 286 82 C299.86 82 313.72 82 328 82 C328 95.2 328 108.4 328 122 C341.53 122 355.06 122 369 122 C369 135.86 369 149.72 369 164 C382.53 164 396.06 164 410 164 C410 190.73 410 217.46 410 245 C382.94 245 355.88 245 328 245 C328 204.74 328 164.48 328 123 C314.47 123 300.94 123 287 123 C287 163.26 287 203.52 287 245 C179.09 245 71.18 245 -40 245 C-40 231.8 -40 218.6 -40 205 C-26.8 205 -13.6 205 0 205 C0 177.94 0 150.88 0 123 C-13.53 123 -27.06 123 -41 123 C-41 149.73 -41 176.46 -41 204 C-54.53 204 -68.06 204 -82 204 C-82 177.27 -82 150.54 -82 123 C-95.2 123 -108.4 123 -122 123 C-122 122.67 -122 122.34 -122 122 C-108.8 122 -95.6 122 -82 122 C-82 108.47 -82 94.94 -82 81 C-68.47 81 -54.94 81 -41 81 C-41 67.8 -41 54.6 -41 41 C-27.47 41 -13.94 41 0 41 C0 27.47 0 13.94 0 0 Z " fill="#89A0A8" transform="translate(819,369)"/>
<path d="M0 0 C67.65 0 135.3 0 205 0 C205 13.53 205 27.06 205 41 C218.53 41 232.06 41 246 41 C246 81.59 246 122.18 246 164 C232.47 164 218.94 164 205 164 C205 285.77 205 407.54 205 533 C191.47 533 177.94 533 164 533 C164 563.69 164 594.38 164 626 C163.67 626 163.34 626 163 626 C163 595.31 163 564.62 163 533 C68.62 533 -25.76 533 -123 533 C-123 519.47 -123 505.94 -123 492 C-136.53 492 -150.06 492 -164 492 C-164 478.47 -164 464.94 -164 451 C-55.76 451 52.48 451 164 451 C164 477.73 164 504.46 164 532 C177.2 532 190.4 532 204 532 C204 410.56 204 289.12 204 164 C123.15 164 42.3 164 -41 164 C-41 123.41 -41 82.82 -41 41 C-27.47 41 -13.94 41 0 41 C0 27.47 0 13.94 0 0 Z " fill="#5C6E75" transform="translate(1065,1024)"/>
<path d="M0 0 C13.53 0 27.06 0 41 0 C41 27.06 41 54.12 41 82 C27.8 82 14.6 82 1 82 C1 95.53 1 109.06 1 123 C81.85 123 162.7 123 246 123 C246 136.53 246 150.06 246 164 C259.53 164 273.06 164 287 164 C287 191.06 287 218.12 287 246 C259.94 246 232.88 246 205 246 C205 232.47 205 218.94 205 205 C191.47 205 177.94 205 164 205 C164 218.53 164 232.06 164 246 C136.94 246 109.88 246 82 246 C82 259.53 82 273.06 82 287 C1.15 287 -79.7 287 -163 287 C-163 340.79 -163 394.58 -163 450 C-149.8 450 -136.6 450 -123 450 C-123 423.27 -123 396.54 -123 369 C-109.47 369 -95.94 369 -82 369 C-82 396.06 -82 423.12 -82 451 C-95.2 451 -108.4 451 -122 451 C-122 477.73 -122 504.46 -122 532 C-122.33 532 -122.66 532 -123 532 C-123 505.27 -123 478.54 -123 451 C-136.53 451 -150.06 451 -164 451 C-164 396.88 -164 342.76 -164 287 C-177.53 287 -191.06 287 -205 287 C-205 273.47 -205 259.94 -205 246 C-204.67 246 -204.34 246 -204 246 C-204 259.2 -204 272.4 -204 286 C-190.8 286 -177.6 286 -164 286 C-164 259.27 -164 232.54 -164 205 C-150.47 205 -136.94 205 -123 205 C-123 191.47 -123 177.94 -123 164 C-82.41 164 -41.82 164 0 164 C0 150.47 0 136.94 0 123 C-40.59 123 -81.18 123 -123 123 C-123 109.47 -123 95.94 -123 82 C-109.47 82 -95.94 82 -82 82 C-82 68.47 -82 54.94 -82 41 C-54.94 41 -27.88 41 0 41 C0 27.47 0 13.94 0 0 Z " fill="#8D533E" transform="translate(942,1106)"/>
<path d="M0 0 C27.39 0 54.78 0 83 0 C83 13.53 83 27.06 83 41 C96.53 41 110.06 41 124 41 C124 54.53 124 68.06 124 82 C137.53 82 151.06 82 165 82 C165 95.53 165 109.06 165 123 C191.73 123 218.46 123 246 123 C246 150.06 246 177.12 246 205 C232.47 205 218.94 205 205 205 C205 232.06 205 259.12 205 287 C232.06 287 259.12 287 287 287 C287 341.12 287 395.24 287 451 C259.94 451 232.88 451 205 451 C205 437.47 205 423.94 205 410 C191.8 410 178.6 410 165 410 C165 382.94 165 355.88 165 328 C151.47 328 137.94 328 124 328 C124 355.06 124 382.12 124 410 C123.67 410 123.34 410 123 410 C123 382.94 123 355.88 123 328 C109.47 328 95.94 328 82 328 C82 300.94 82 273.88 82 246 C68.47 246 54.94 246 41 246 C41 218.94 41 191.88 41 164 C27.47 164 13.94 164 0 164 C0 109.88 0 55.76 0 0 Z " fill="#8AA0AA" transform="translate(450,737)"/>
<path d="M0 0 C80.85 0 161.7 0 245 0 C245 121.44 245 242.88 245 368 C231.8 368 218.6 368 205 368 C205 341.27 205 314.54 205 287 C164.41 287 123.82 287 82 287 C82 273.47 82 259.94 82 246 C122.59 246 163.18 246 205 246 C205 232.14 205 218.28 205 204 C150.55 204 96.1 204 40 204 C40 216.87 40 229.74 40 243 C38 245 38 245 35.87981987 245.24609566 C34.99674219 245.24425207 34.11366451 245.24240849 33.2038269 245.24050903 C32.19137909 245.24325836 31.17893127 245.24600769 30.13580322 245.24884033 C28.46345612 245.2380545 28.46345612 245.2380545 26.75732422 245.22705078 C25.5866037 245.22734283 24.41588318 245.22763489 23.20968628 245.22793579 C19.99496203 245.22677919 16.78041071 245.21673198 13.56572104 245.20278788 C10.20781292 245.19030592 6.84990161 245.18911203 3.49197388 245.18673706 C-2.86870017 245.18051481 -9.22930566 245.16409398 -15.58994949 245.14403808 C-22.83047724 245.1217022 -30.07100821 245.11069148 -37.31156182 245.10064721 C-52.20775238 245.07972835 -67.10385387 245.04304288 -82 245 C-82 258.53 -82 272.06 -82 286 C-95.2 286 -108.4 286 -122 286 C-122 272.47 -122 258.94 -122 245 C-135.86 245 -149.72 245 -164 245 C-164 258.86 -164 272.72 -164 287 C-177.53 287 -191.06 287 -205 287 C-205 313.73 -205 340.46 -205 368 C-218.2 368 -231.4 368 -245 368 C-245 314.21 -245 260.42 -245 205 C-164.15 205 -83.3 205 0 205 C0 191.47 0 177.94 0 164 C27.06 164 54.12 164 82 164 C82 150.47 82 136.94 82 123 C95.53 123 109.06 123 123 123 C123 136.53 123 150.06 123 164 C150.06 164 177.12 164 205 164 C205 136.94 205 109.88 205 82 C191.47 82 177.94 82 164 82 C164 68.47 164 54.94 164 41 C109.88 41 55.76 41 0 41 C0 27.47 0 13.94 0 0 Z " fill="#35171A" transform="translate(1024,1188)"/>
<path d="M0 0 C81.18 0 162.36 0 246 0 C246 13.53 246 27.06 246 41 C273.06 41 300.12 41 328 41 C328 54.53 328 68.06 328 82 C341.53 82 355.06 82 369 82 C369 95.53 369 109.06 369 123 C382.53 123 396.06 123 410 123 C410 136.2 410 149.4 410 163 C423.53 163 437.06 163 451 163 C451 190.06 451 217.12 451 245 C464.53 245 478.06 245 492 245 C492 245.33 492 245.66 492 246 C478.47 246 464.94 246 451 246 C451.03960462 259.11903899 451.03960462 259.11903899 451.09008789 272.23803711 C451.09300701 273.87613866 451.09555558 275.51424094 451.09765625 277.15234375 C451.10277222 278.01089966 451.10788818 278.86945557 451.11315918 279.75402832 C451.1134691 281.83636052 451.06242176 283.9186036 451 286 C449.23252141 287.76747859 446.88581056 287.12250354 444.53160328 287.12908131 C443.74076267 287.12616847 442.94992206 287.12325563 442.13511658 287.12025452 C441.30121747 287.12110894 440.46731836 287.12196337 439.60814959 287.12284368 C436.79204911 287.12450104 433.97600717 287.11897295 431.15991211 287.11352539 C429.14993796 287.11324355 427.13996371 287.11340119 425.12998962 287.1139679 C419.6550079 287.11425599 414.18004787 287.10835743 408.70507121 287.10139394 C402.99019527 287.09516228 397.27531888 287.09455675 391.56044006 287.09336853 C380.73026574 287.09025466 369.90010146 287.08204052 359.06993157 287.07201904 C346.74366298 287.06085964 334.41739393 287.05534789 322.09112155 287.05032361 C296.72740879 287.03985795 271.36370496 287.02225743 246 287 C246 286.67 246 286.34 246 286 C273.06 286 300.12 286 328 286 C328 259.27 328 232.54 328 205 C314.47 205 300.94 205 287 205 C287 191.14 287 177.28 287 163 C273.47 163 259.94 163 246 163 C246 149.8 246 136.6 246 123 C232.14 123 218.28 123 204 123 C204 136.2 204 149.4 204 163 C190.8 163 177.6 163 164 163 C164 136.27 164 109.54 164 82 C123.74 82 83.48 82 42 82 C42 68.47 42 54.94 42 41 C28.14 41 14.28 41 0 41 C0 27.47 0 13.94 0 0 Z " fill="#5D6E75" transform="translate(901,328)"/>
<path d="M0 0 C27.06 0 54.12 0 82 0 C82 40.59 82 81.18 82 123 C95.53 123 109.06 123 123 123 C123 82.74 123 42.48 123 1 C136.53 1 150.06 1 164 1 C164 27.73 164 54.46 164 82 C177.53 82 191.06 82 205 82 C205 136.12 205 190.24 205 246 C191.47 246 177.94 246 164 246 C164 259.53 164 273.06 164 287 C123.41 287 82.82 287 41 287 C41 205.82 41 124.64 41 41 C27.47 41 13.94 41 0 41 C0 27.47 0 13.94 0 0 Z " fill="#8AA0AA" transform="translate(901,737)"/>
<path d="M0 0 C0 13.86 0 27.72 0 42 C-40.59 42 -81.18 42 -123 42 C-123 55.53 -123 69.06 -123 83 C-203.85 83 -284.7 83 -368 83 C-368 109.73 -368 136.46 -368 164 C-354.8 164 -341.6 164 -328 164 C-328 177.53 -328 191.06 -328 205 C-300.94 205 -273.88 205 -246 205 C-246 238.99 -246 272.98 -246 308 C-286.59 308 -327.18 308 -369 308 C-369 301.4 -369 294.8 -369 288 C-382.2 288 -395.4 288 -409 288 C-409 307.8 -409 327.6 -409 348 C-341.68 348 -274.36 348 -205 348 C-205 348.33 -205 348.66 -205 349 C-272.65 349 -340.3 349 -410 349 C-410 328.54 -410 308.08 -410 287 C-396.47 287 -382.94 287 -369 287 C-369 273.47 -369 259.94 -369 246 C-382.2 246 -395.4 246 -409 246 C-409 219.27 -409 192.54 -409 165 C-395.8 165 -382.6 165 -369 165 C-369 124.08 -369 83.16 -369 41 C-355.14 41 -341.28 41 -327 41 C-327 54.53 -327 68.06 -327 82 C-313.8 82 -300.6 82 -287 82 C-287 68.47 -287 54.94 -287 41 C-283.37008057 40.97494385 -279.74016113 40.9498877 -276.00024414 40.92407227 C-264.03800782 40.84078201 -252.07581703 40.75212328 -240.11364079 40.66066074 C-232.85743403 40.60531219 -225.60122236 40.55182757 -218.3449707 40.50268555 C-212.02263061 40.45986364 -205.70032696 40.41359078 -199.37804312 40.36312145 C-196.02845393 40.33650437 -192.67887205 40.31165099 -189.3292408 40.29092598 C-185.59582571 40.26696035 -181.86250777 40.23689542 -178.12915039 40.20532227 C-176.45141037 40.19668907 -176.45141037 40.19668907 -174.73977661 40.18788147 C-173.72870346 40.17809265 -172.71763031 40.16830383 -171.67591858 40.15821838 C-170.79191911 40.15176583 -169.90791964 40.14531328 -168.9971323 40.1386652 C-167.00079477 40.21960493 -167.00079477 40.21960493 -166 39 C-165.92451816 37.31015041 -165.91690968 35.61719048 -165.9375 33.92578125 C-165.94523437 32.86423828 -165.95296875 31.80269531 -165.9609375 30.70898438 C-165.98639522 28.49543592 -166.01240947 26.28189376 -166.0390625 24.06835938 C-166.08110069 18.20753559 -165.93720719 12.42122388 -165.49609375 6.57495117 C-165.40384521 5.3369426 -165.31159668 4.09893402 -165.21655273 2.82341003 C-165.14509033 1.89168472 -165.07362793 0.95995941 -165 0 C-149.83589632 -0.15638608 -134.67172453 -0.30427182 -119.50744915 -0.4429636 C-112.4608966 -0.50759377 -105.41438597 -0.57469146 -98.36791992 -0.64819336 C-65.55303437 -0.98906954 -32.80903896 -0.98756305 0 0 Z " fill="#3B4357" transform="translate(1229,1392)"/>
<path d="M0 0 C13.53 0 27.06 0 41 0 C41 13.53 41 27.06 41 41 C54.53 41 68.06 41 82 41 C82 81.59 82 122.18 82 164 C68.47 164 54.94 164 41 164 C41 285.77 41 407.54 41 533 C27.47 533 13.94 533 0 533 C0 563.69 0 594.38 0 626 C-0.33 626 -0.66 626 -1 626 C-1 595.31 -1 564.62 -1 533 C-95.38 533 -189.76 533 -287 533 C-287 519.47 -287 505.94 -287 492 C-300.53 492 -314.06 492 -328 492 C-328 478.47 -328 464.94 -328 451 C-219.76 451 -111.52 451 0 451 C0 477.73 0 504.46 0 532 C13.2 532 26.4 532 40 532 C40 410.56 40 289.12 40 164 C-40.85 164 -121.7 164 -205 164 C-205 163.67 -205 163.34 -205 163 C-124.15 163 -43.3 163 40 163 C40 122.74 40 82.48 40 41 C26.8 41 13.6 41 0 41 C0 27.47 0 13.94 0 0 Z " fill="#79614E" transform="translate(1229,1024)"/>
<path d="M0 0 C13.2 0 26.4 0 40 0 C40 27.06 40 54.12 40 82 C188.83 82 337.66 82 491 82 C491 95.2 491 108.4 491 122 C342.17 122 193.34 122 40 122 C40 176.12 40 230.24 40 286 C26.8 286 13.6 286 0 286 C0 191.62 0 97.24 0 0 Z " fill="#899FA7" transform="translate(697,574)"/>
<path d="M0 0 C13.53 0 27.06 0 41 0 C41 54.12 41 108.24 41 164 C54.53 164 68.06 164 82 164 C82 177.53 82 191.06 82 205 C136.12 205 190.24 205 246 205 C246 218.53 246 232.06 246 246 C191.88 246 137.76 246 82 246 C82 259.53 82 273.06 82 287 C27.88 287 -26.24 287 -82 287 C-82 273.47 -82 259.94 -82 246 C-68.47 246 -54.94 246 -41 246 C-41 232.47 -41 218.94 -41 205 C-27.47 205 -13.94 205 0 205 C0 137.35 0 69.7 0 0 Z " fill="#33171A" transform="translate(1147,737)"/>
<path d="M0 0 C94.38 0 188.76 0 286 0 C286 53.79 286 107.58 286 163 C272.47 163 258.94 163 245 163 C245 122.41 245 81.82 245 40 C217.94 40 190.88 40 163 40 C163 53.53 163 67.06 163 81 C149.47 81 135.94 81 122 81 C122 108.06 122 135.12 122 163 C108.47 163 94.94 163 81 163 C81 122.41 81 81.82 81 40 C67.47 40 53.94 40 40 40 C40 80.59 40 121.18 40 163 C26.8 163 13.6 163 0 163 C0 109.21 0 55.42 0 0 Z " fill="#341619" transform="translate(738,697)"/>
<path d="M0 0 C0 67.65 0 135.3 0 205 C-0.33 205 -0.66 205 -1 205 C-1 150.88 -1 96.76 -1 41 C-68.32 41 -135.64 41 -205 41 C-205 108.65 -205 176.3 -205 246 C-218.53 246 -232.06 246 -246 246 C-246 205.41 -246 164.82 -246 123 C-259.53 123 -273.06 123 -287 123 C-287 96.27 -287 69.54 -287 42 C-300.53 42 -314.06 42 -328 42 C-328 28.47 -328 14.94 -328 1 C-286.35915437 0.8725889 -244.71830869 0.74519208 -203.07746295 0.61781773 C-198.16679496 0.60279657 -193.25612697 0.58777528 -188.34545898 0.57275391 C-187.36779026 0.56976329 -186.39012154 0.56677268 -185.3828265 0.56369144 C-169.53081243 0.51520101 -153.6787984 0.46669978 -137.82678438 0.41819459 C-121.57381123 0.36846276 -105.32083805 0.31874245 -89.06786484 0.26903296 C-79.03047896 0.23833338 -68.99309312 0.2076247 -58.9557073 0.17690456 C-52.08246478 0.15586936 -45.20922223 0.13484531 -38.33597965 0.11383021 C-34.36430814 0.10168639 -30.39263665 0.08953749 -26.42096519 0.07737541 C-22.79100001 0.06625982 -19.16103478 0.05515809 -15.53106951 0.0440678 C-13.58327626 0.03811317 -11.63548305 0.03214334 -9.68768984 0.02617311 C-8.54662844 0.02268972 -7.40556704 0.01920632 -6.22992802 0.01561737 C-4.74047502 0.01106073 -4.74047502 0.01106073 -3.22093207 0.00641203 C-1 0 -1 0 0 0 Z " fill="#45535A" transform="translate(1352,696)"/>
<path d="M0 0 C13.53 0 27.06 0 41 0 C41 27.06 41 54.12 41 82 C27.8 82 14.6 82 1 82 C1 95.53 1 109.06 1 123 C41.26 123 81.52 123 123 123 C123 129.6 123 136.2 123 143 C129.93 143 136.86 143 144 143 C144 149.93 144 156.86 144 164 C137.07 164 130.14 164 123 164 C123 177.53 123 191.06 123 205 C95.94 205 68.88 205 41 205 C39.36028177 201.72056355 39.87959926 198.09441377 39.90234375 194.4921875 C39.90335083 193.74718994 39.90435791 193.00219238 39.90539551 192.23461914 C39.91063286 189.4480638 39.92459411 186.66153038 39.9375 183.875 C39.958125 177.64625 39.97875 171.4175 40 165 C26.47 165 12.94 165 -1 165 C-0.67 151.14 -0.34 137.28 0 123 C-40.59 123 -81.18 123 -123 123 C-123 109.47 -123 95.94 -123 82 C-109.47 82 -95.94 82 -82 82 C-82 68.47 -82 54.94 -82 41 C-54.94 41 -27.88 41 0 41 C0 27.47 0 13.94 0 0 Z " fill="#5A5D6B" transform="translate(942,1106)"/>
<path d="M0 0 C13.53 0 27.06 0 41 0 C41 54.12 41 108.24 41 164 C67.73 164 94.46 164 122 164 C122 177.53 122 191.06 122 205 C149.06 205 176.12 205 204 205 C204 245.26 204 285.52 204 327 C190.8 327 177.6 327 164 327 C164 313.8 164 300.6 164 287 C150.14 287 136.28 287 122 287 C122 273.47 122 259.94 122 246 C94.94 246 67.88 246 40 246 C40 232.47 40 218.94 40 205 C26.8 205 13.6 205 0 205 C0 191.47 0 177.94 0 164 C13.2 164 26.4 164 40 164 C40 136.94 40 109.88 40 82 C26.8 82 13.6 82 0 82 C0 54.94 0 27.88 0 0 Z " fill="#8D533E" transform="translate(574,1065)"/>
<path d="M0 0 C40.59 0 81.18 0 123 0 C123 13.53 123 27.06 123 41 C136.53 41 150.06 41 164 41 C164 68.06 164 95.12 164 123 C136.94 123 109.88 123 82 123 C82 109.47 82 95.94 82 82 C68.47 82 54.94 82 41 82 C41 95.53 41 109.06 41 123 C13.94 123 -13.12 123 -41 123 C-41 109.47 -41 95.94 -41 82 C-27.47 82 -13.94 82 0 82 C0 68.47 0 54.94 0 41 C6.93 41 13.86 41 21 41 C21 34.07 21 27.14 21 20 C14.07 20 7.14 20 0 20 C0 13.4 0 6.8 0 0 Z " fill="#3E4355" transform="translate(1065,1229)"/>
<path d="M0 0 C40.59 0 81.18 0 123 0 C123 21.12 123 42.24 123 64 C129.6 64 136.2 64 143 64 C143 76.87 143 89.74 143 103 C136.4 102.67 129.8 102.34 123 102 C123 108.93 123 115.86 123 123 C82.41 123 41.82 123 0 123 C0 82.41 0 41.82 0 0 Z " fill="#889EA9" transform="translate(1065,1024)"/>
<path d="M0 0 C0 13.86 0 27.72 0 42 C-40.59 42 -81.18 42 -123 42 C-123 55.53 -123 69.06 -123 83 C-190.65 83 -258.3 83 -328 83 C-328 69.47 -328 55.94 -328 42 C-341.53 42 -355.06 42 -369 42 C-369 41.67 -369 41.34 -369 41 C-355.14 41 -341.28 41 -327 41 C-327 54.53 -327 68.06 -327 82 C-313.8 82 -300.6 82 -287 82 C-287 68.47 -287 54.94 -287 41 C-283.37008057 40.97494385 -279.74016113 40.9498877 -276.00024414 40.92407227 C-264.03800782 40.84078201 -252.07581703 40.75212328 -240.11364079 40.66066074 C-232.85743403 40.60531219 -225.60122236 40.55182757 -218.3449707 40.50268555 C-212.02263061 40.45986364 -205.70032696 40.41359078 -199.37804312 40.36312145 C-196.02845393 40.33650437 -192.67887205 40.31165099 -189.3292408 40.29092598 C-185.59582571 40.26696035 -181.86250777 40.23689542 -178.12915039 40.20532227 C-176.45141037 40.19668907 -176.45141037 40.19668907 -174.73977661 40.18788147 C-173.72870346 40.17809265 -172.71763031 40.16830383 -171.67591858 40.15821838 C-170.79191911 40.15176583 -169.90791964 40.14531328 -168.9971323 40.1386652 C-167.00079477 40.21960493 -167.00079477 40.21960493 -166 39 C-165.92451816 37.31015041 -165.91690968 35.61719048 -165.9375 33.92578125 C-165.94523437 32.86423828 -165.95296875 31.80269531 -165.9609375 30.70898438 C-165.98639522 28.49543592 -166.01240947 26.28189376 -166.0390625 24.06835938 C-166.08110069 18.20753559 -165.93720719 12.42122388 -165.49609375 6.57495117 C-165.40384521 5.3369426 -165.31159668 4.09893402 -165.21655273 2.82341003 C-165.14509033 1.89168472 -165.07362793 0.95995941 -165 0 C-149.83589632 -0.15638608 -134.67172453 -0.30427182 -119.50744915 -0.4429636 C-112.4608966 -0.50759377 -105.41438597 -0.57469146 -98.36791992 -0.64819336 C-65.55303437 -0.98906954 -32.80903896 -0.98756305 0 0 Z " fill="#611722" transform="translate(1229,1392)"/>
<path d="M0 0 C13.53 0 27.06 0 41 0 C41 107.91 41 215.82 41 327 C27.47 327 13.94 327 0 327 C-0.12834877 296.35895059 -0.2558786 265.71789792 -0.38218227 235.07684002 C-0.39719713 231.43444605 -0.41221933 227.79205212 -0.42724609 224.1496582 C-0.43173202 223.06225344 -0.43173202 223.06225344 -0.43630856 221.95288091 C-0.48433642 210.31496337 -0.5329557 198.67704838 -0.58180541 187.03913427 C-0.63216049 175.03933719 -0.68185257 163.03953748 -0.73096704 151.03973526 C-0.75847136 144.32419801 -0.78627294 137.60866233 -0.81480408 130.89312935 C-0.91828715 106.49000196 -1.01926772 82.08697087 -1.02734375 57.68359375 C-1.02791558 56.85374596 -1.02848742 56.02389817 -1.02907658 55.16890347 C-1.03598486 42.58585052 -0.88287424 30.01503694 -0.5 17.4375 C-0.335 11.683125 -0.17 5.92875 0 0 Z " fill="#331619" transform="translate(1352,574)"/>
<path d="M0 0 C13.2 0 26.4 0 40 0 C40 53.79 40 107.58 40 163 C67.39 163 94.78 163 123 163 C123 176.53 123 190.06 123 204 C82.41 204 41.82 204 0 204 C0 190.47 0 176.94 0 163 C-13.53 163 -27.06 163 -41 163 C-41 149.47 -41 135.94 -41 122 C-27.47 122 -13.94 122 0 122 C0 81.74 0 41.48 0 0 Z " fill="#899EA6" transform="translate(1311,738)"/>
<path d="M0 0 C40.59 0 81.18 0 123 0 C123 67.65 123 135.3 123 205 C109.47 205 95.94 205 82 205 C82 164.41 82 123.82 82 82 C68.47 82 54.94 82 41 82 C41 55.27 41 28.54 41 1 C27.47 1 13.94 1 0 1 C0 0.67 0 0.34 0 0 Z " fill="#5B6C73" transform="translate(1024,737)"/>
<path d="M0 0 C13.53 0 27.06 0 41 0 C41 94.38 41 188.76 41 286 C27.47 286 13.94 286 0 286 C0 191.62 0 97.24 0 0 Z " fill="#331719" transform="translate(655,574)"/>
<path d="M0 0 C40.59 0 81.18 0 123 0 C123 13.2 123 26.4 123 40 C150.06 40 177.12 40 205 40 C205 53.53 205 67.06 205 81 C151.21 81 97.42 81 42 81 C42 67.47 42 53.94 42 40 C28.14 40 14.28 40 0 40 C0 26.8 0 13.6 0 0 Z " fill="#A3917D" transform="translate(901,1475)"/>
<path d="M0 0 C81.18 0 162.36 0 246 0 C246 13.53 246 27.06 246 41 C164.82 41 83.64 41 0 41 C0 27.47 0 13.94 0 0 Z " fill="#341719" transform="translate(901,328)"/>
<path d="M0 0 C40.59 0 81.18 0 123 0 C123 33.66 123 67.32 123 102 C95.94 102 68.88 102 41 102 C41 81.54 41 61.08 41 40 C27.47 40 13.94 40 0 40 C0 26.8 0 13.6 0 0 Z " fill="#703E29" transform="translate(1065,1598)"/>
<path d="M0 0 C13.2 0 26.4 0 40 0 C40 13.53 40 27.06 40 41 C53.53 41 67.06 41 81 41 C81 67.73 81 94.46 81 122 C94.53 122 108.06 122 122 122 C122 149.06 122 176.12 122 204 C108.47 204 94.94 204 81 204 C81 190.47 81 176.94 81 163 C74.4 163 67.8 163 61 163 C61 149.47 61 135.94 61 122 C54.4 122 47.8 122 41 122 C41 108.47 41 94.94 41 81 C34.07 81 27.14 81 20 81 C20 67.47 20 53.94 20 40 C13.4 40 6.8 40 0 40 C0 26.8 0 13.6 0 0 Z " fill="#C4D6DA" transform="translate(533,820)"/>
<path d="M0 0 C81.18 0 162.36 0 246 0 C246 13.2 246 26.4 246 40 C164.82 40 83.64 40 0 40 C0 26.8 0 13.6 0 0 Z " fill="#899EA6" transform="translate(942,656)"/>
<path d="M0 0 C13.53 0 27.06 0 41 0 C41 27.06 41 54.12 41 82 C-13.12 82 -67.24 82 -123 82 C-123 68.47 -123 54.94 -123 41 C-95.94 41 -68.88 41 -41 41 C-41 34.07 -41 27.14 -41 20 C-27.47 20 -13.94 20 0 20 C0 13.4 0 6.8 0 0 Z " fill="#693A27" transform="translate(983,1311)"/>
<path d="M0 0 C27.06 0 54.12 0 82 0 C82 27.06 82 54.12 82 82 C41.41 82 0.82 82 -41 82 C-41 68.47 -41 54.94 -41 41 C-27.47 41 -13.94 41 0 41 C0 27.47 0 13.94 0 0 Z " fill="#899FA9" transform="translate(860,1147)"/>
<path d="M0 0 C27.06 0 54.12 0 82 0 C82 54.12 82 108.24 82 164 C68.47 164 54.94 164 41 164 C41 123.41 41 82.82 41 41 C27.47 41 13.94 41 0 41 C0 27.47 0 13.94 0 0 Z " fill="#D47D65" transform="translate(901,737)"/>
<path d="M0 0 C13.53 0 27.06 0 41 0 C41 13.53 41 27.06 41 41 C67.73 41 94.46 41 122 41 C122 54.53 122 68.06 122 82 C68.21 82 14.42 82 -41 82 C-41 68.47 -41 54.94 -41 41 C-27.47 41 -13.94 41 0 41 C0 27.47 0 13.94 0 0 Z " fill="#34171A" transform="translate(1106,942)"/>
<path d="M0 0 C13.2 0 26.4 0 40 0 C40 40.59 40 81.18 40 123 C26.47 123 12.94 123 -1 123 C-1 136.53 -1 150.06 -1 164 C-14.53 164 -28.06 164 -42 164 C-42 136.94 -42 109.88 -42 82 C-28.14 82 -14.28 82 0 82 C0 54.94 0 27.88 0 0 Z " fill="#34171A" transform="translate(697,860)"/>
<path d="M0 0 C26.73 0 53.46 0 81 0 C81 13.2 81 26.4 81 40 C67.47 40 53.94 40 40 40 C40 80.59 40 121.18 40 163 C26.8 163 13.6 163 0 163 C0 109.21 0 55.42 0 0 Z " fill="#321619" transform="translate(451,738)"/>
<path d="M0 0 C135.3 0 270.6 0 410 0 C410 13.53 410 27.06 410 41 C409 42 409 42 407.26272151 42.12467116 C406.115562 42.12443719 406.115562 42.12443719 404.94522756 42.1241985 C404.06429553 42.12644579 403.18336349 42.12869308 402.27573654 42.13100848 C401.2948998 42.12838146 400.31406306 42.12575445 399.30350399 42.12304783 C397.74931362 42.1247786 397.74931362 42.1247786 396.16372547 42.12654433 C392.64509968 42.12921945 389.12651843 42.12468151 385.6078949 42.12025452 C383.07852911 42.12069004 380.54916336 42.12156459 378.01979786 42.12284368 C372.49641571 42.1246214 366.97304769 42.12326382 361.44966698 42.11920547 C353.23651532 42.11318749 345.02337048 42.11286808 336.81021702 42.11374746 C322.99653237 42.11506355 309.1828525 42.11171169 295.36916924 42.10573006 C281.68529677 42.09981978 268.0014263 42.09596548 254.31755257 42.09487724 C253.46779073 42.0948085 252.61802889 42.09473976 251.7425167 42.09466894 C247.42727813 42.09433062 243.11203955 42.09402923 238.79680098 42.09374207 C208.20543432 42.09163979 177.61407027 42.08489724 147.02270508 42.07543945 C117.2974448 42.06626002 87.57218524 42.05917396 57.84692383 42.05493164 C56.93119908 42.05480011 56.01547433 42.05466859 55.07200035 42.05453308 C45.87619582 42.05321459 36.68039129 42.05193877 27.48458675 42.05069422 C8.75047174 42.04815778 -9.98364323 42.04533652 -28.71775818 42.04234314 C-29.5791856 42.04220585 -30.44061302 42.04206856 -31.3281443 42.04192711 C-57.74013057 42.03770271 -84.1521164 42.03227076 -110.56410217 42.02565002 C-111.31419533 42.02546247 -112.06428849 42.02527491 -112.83711175 42.02508167 C-143.22474137 42.01746507 -173.61237064 42.00857204 -204 42 C-204 95.79 -204 149.58 -204 205 C-204.33 205 -204.66 205 -205 205 C-205 150.88 -205 96.76 -205 41 C-56.17 41 92.66 41 246 41 C246 27.8 246 14.6 246 1 C164.82 1 83.64 1 0 1 C0 0.67 0 0.34 0 0 Z " fill="#5B6B72" transform="translate(942,655)"/>
<path d="M0 0 C13.53 0 27.06 0 41 0 C41 26.73 41 53.46 41 81 C54.53 81 68.06 81 82 81 C82 54.27 82 27.54 82 0 C95.53 0 109.06 0 123 0 C123 27.06 123 54.12 123 82 C109.8 82 96.6 82 83 82 C83 95.2 83 108.4 83 122 C82.67 122 82.34 122 82 122 C82 108.8 82 95.6 82 82 C68.8 82 55.6 82 42 82 C42 108.73 42 135.46 42 163 C109.32 163 176.64 163 246 163 C246 163.33 246 163.66 246 164 C178.35 164 110.7 164 41 164 C41 136.94 41 109.88 41 82 C27.8 82 14.6 82 1 82 C1 203.44 1 324.88 1 450 C0.67 450 0.34 450 0 450 C0 328.56 0 207.12 0 82 C-13.53 82 -27.06 82 -41 82 C-41 81.67 -41 81.34 -41 81 C-27.47 81 -13.94 81 0 81 C0 54.27 0 27.54 0 0 Z " fill="#5C6D74" transform="translate(696,492)"/>
<path d="M0 0 C13.53 0 27.06 0 41 0 C41 13.53 41 27.06 41 41 C54.53 41 68.06 41 82 41 C82 54.53 82 68.06 82 82 C41.41 82 0.82 82 -41 82 C-41 68.47 -41 54.94 -41 41 C-27.47 41 -13.94 41 0 41 C0 27.47 0 13.94 0 0 Z " fill="#899FA7" transform="translate(983,942)"/>
<path d="M0 0 C54.12 0 108.24 0 164 0 C164 13.53 164 27.06 164 41 C109.88 41 55.76 41 0 41 C0 27.47 0 13.94 0 0 Z " fill="#34171A" transform="translate(1229,942)"/>
<path d="M0 0 C27.06 0 54.12 0 82 0 C82 13.53 82 27.06 82 41 C68.47 41 54.94 41 41 41 C41 68.06 41 95.12 41 123 C27.47 123 13.94 123 0 123 C0 82.41 0 41.82 0 0 Z " fill="#54281A" transform="translate(819,737)"/>
<path d="M0 0 C27.06 0 54.12 0 82 0 C82 13.2 82 26.4 82 40 C68.47 40 54.94 40 41 40 C41 53.53 41 67.06 41 81 C13.94 81 -13.12 81 -41 81 C-41 67.47 -41 53.94 -41 40 C-27.47 40 -13.94 40 0 40 C0 26.8 0 13.6 0 0 Z " fill="#C7D6DC" transform="translate(901,451)"/>
<path d="M0 0 C54.12 0 108.24 0 164 0 C164 13.2 164 26.4 164 40 C109.88 40 55.76 40 0 40 C0 26.8 0 13.6 0 0 Z " fill="#C3D4D9" transform="translate(778,656)"/>
<path d="M0 0 C27.06 0 54.12 0 82 0 C82 20.46 82 40.92 82 62 C41.41 62 0.82 62 -41 62 C-41 55.4 -41 48.8 -41 42 C-54.2 42 -67.4 42 -81 42 C-81 61.8 -81 81.6 -81 102 C-13.68 102 53.64 102 123 102 C123 102.33 123 102.66 123 103 C55.35 103 -12.3 103 -82 103 C-82 82.54 -82 62.08 -82 41 C-54.94 41 -27.88 41 0 41 C0 27.47 0 13.94 0 0 Z " fill="#6E3D2A" transform="translate(901,1638)"/>
<path d="M0 0 C13.53 0 27.06 0 41 0 C41 27.06 41 54.12 41 82 C13.94 82 -13.12 82 -41 82 C-41 68.47 -41 54.94 -41 41 C-27.47 41 -13.94 41 0 41 C0 27.47 0 13.94 0 0 Z " fill="#5C6D76" transform="translate(1188,1270)"/>
<path d="M0 0 C40.59 0 81.18 0 123 0 C123 13.53 123 27.06 123 41 C82.41 41 41.82 41 0 41 C0 27.47 0 13.94 0 0 Z " fill="#34161A" transform="translate(819,1229)"/>
<path d="M0 0 C40.59 0 81.18 0 123 0 C123 13.53 123 27.06 123 41 C82.41 41 41.82 41 0 41 C0 27.47 0 13.94 0 0 Z " fill="#7F272E" transform="translate(860,1065)"/>
<path d="M0 0 C13.53 0 27.06 0 41 0 C41 13.53 41 27.06 41 41 C54.53 41 68.06 41 82 41 C82 54.53 82 68.06 82 82 C54.94 82 27.88 82 0 82 C0 54.94 0 27.88 0 0 Z " fill="#FDFCFC" transform="translate(737,1024)"/>
<path d="M0 0 C13.53 0 27.06 0 41 0 C41 40.26 41 80.52 41 122 C27.47 122 13.94 122 0 122 C0 81.74 0 41.48 0 0 Z " fill="#C4D5DA" transform="translate(1024,738)"/>
<path d="M0 0 C1.55521173 0.00031721 3.11044535 0.0116478 4.66552734 0.03173828 C5.89316299 0.03598312 5.89316299 0.03598312 7.14559937 0.04031372 C9.76436877 0.05152546 12.38279848 0.07663149 15.00146484 0.10205078 C16.77489741 0.11207931 18.54833533 0.12120538 20.32177734 0.12939453 C24.6734711 0.151468 29.02491034 0.18600434 33.37646484 0.22705078 C33.5478608 4.2685309 33.71266813 8.31025611 33.87646484 12.35205078 C33.92416016 13.47482422 33.97185547 14.59759766 34.02099609 15.75439453 C34.06611328 16.88232422 34.11123047 18.01025391 34.15771484 19.17236328 C34.19960937 20.18830566 34.24150391 21.20424805 34.28466797 22.25097656 C34.42297268 28.2414831 34.37646484 34.23494791 34.37646484 40.22705078 C47.90646484 40.22705078 61.43646484 40.22705078 75.37646484 40.22705078 C75.37646484 67.28705078 75.37646484 94.34705078 75.37646484 122.22705078 C75.04646484 122.22705078 74.71646484 122.22705078 74.37646484 122.22705078 C74.37646484 108.69705078 74.37646484 95.16705078 74.37646484 81.22705078 C47.64646484 81.22705078 20.91646484 81.22705078 -6.62353516 81.22705078 C-6.76145059 41.23157579 -6.76145059 41.23157579 -6.30514526 21.30059814 C-6.26742882 19.62761454 -6.23302106 17.95455304 -6.20193481 16.28143311 C-6.15721468 13.95173826 -6.09951576 11.6227501 -6.03759766 9.29345703 C-6.02604141 8.60265549 -6.01448517 7.91185394 -6.00257874 7.20011902 C-5.84084473 2.07272066 -5.52179217 0.3459956 0 0 Z " fill="#5C2F1F" transform="translate(1153.62353515625,901.77294921875)"/>
<path d="M0 0 C13.2 0 26.4 0 40 0 C40 13.53 40 27.06 40 41 C53.53 41 67.06 41 81 41 C81 54.53 81 68.06 81 82 C54.27 82 27.54 82 0 82 C0 54.94 0 27.88 0 0 Z " fill="#34171A" transform="translate(615,1147)"/>
<path d="M0 0 C40.59 0 81.18 0 123 0 C123 13.2 123 26.4 123 40 C82.41 40 41.82 40 0 40 C0 26.8 0 13.6 0 0 Z " fill="#3B455A" transform="translate(1065,1598)"/>
<path d="M0 0 C26.73 0 53.46 0 81 0 C81 26.73 81 53.46 81 81 C67.8 81 54.6 81 41 81 C40.67 67.8 40.34 54.6 40 41 C20.2 40.505 20.2 40.505 0 40 C0 26.8 0 13.6 0 0 Z " fill="#341719" transform="translate(697,1311)"/>
<path d="M0 0 C13.2 0 26.4 0 40 0 C40 40.26 40 80.52 40 122 C26.8 122 13.6 122 0 122 C0 81.74 0 41.48 0 0 Z " fill="#331619" transform="translate(1270,1065)"/>
<path d="M0 0 C13.2 0 26.4 0 40 0 C40 40.26 40 80.52 40 122 C26.8 122 13.6 122 0 122 C0 81.74 0 41.48 0 0 Z " fill="#89A0A7" transform="translate(1311,738)"/>
<path d="M0 0 C0.33 0 0.66 0 1 0 C1 27.06 1 54.12 1 82 C14.2 82 27.4 82 41 82 C41 95.53 41 109.06 41 123 C13.94 123 -13.12 123 -41 123 C-41 109.47 -41 95.94 -41 82 C-27.47 82 -13.94 82 0 82 C0 54.94 0 27.88 0 0 Z " fill="#70382D" transform="translate(737,1106)"/>
<path d="M0 0 C26.73 0 53.46 0 81 0 C81 13.2 81 26.4 81 40 C108.06 40 135.12 40 163 40 C163 40.33 163 40.66 163 41 C109.21 41 55.42 41 0 41 C0 27.47 0 13.94 0 0 Z " fill="#813331" transform="translate(943,1434)"/>
<path d="M0 0 C13.53 0 27.06 0 41 0 C41 27.06 41 54.12 41 82 C27.47 82 13.94 82 0 82 C0 54.94 0 27.88 0 0 Z " fill="#5D6E75" transform="translate(942,1106)"/>
<path d="M0 0 C13.53 0 27.06 0 41 0 C41 27.06 41 54.12 41 82 C27.47 82 13.94 82 0 82 C0 54.94 0 27.88 0 0 Z " fill="#C3D4D8" transform="translate(696,1106)"/>
<path d="M0 0 C13.53 0 27.06 0 41 0 C41 27.06 41 54.12 41 82 C27.47 82 13.94 82 0 82 C0 54.94 0 27.88 0 0 Z " fill="#34181C" transform="translate(696,1024)"/>
<path d="M0 0 C13.53 0 27.06 0 41 0 C41 27.06 41 54.12 41 82 C27.47 82 13.94 82 0 82 C0 54.94 0 27.88 0 0 Z " fill="#C4D6DA" transform="translate(655,1024)"/>
<path d="M0 0 C13.53 0 27.06 0 41 0 C41 27.06 41 54.12 41 82 C27.47 82 13.94 82 0 82 C0 54.94 0 27.88 0 0 Z " fill="#FDFCFC" transform="translate(655,860)"/>
<path d="M0 0 C13.53 0 27.06 0 41 0 C41 27.06 41 54.12 41 82 C27.47 82 13.94 82 0 82 C0 54.94 0 27.88 0 0 Z " fill="#89A0A8" transform="translate(1229,778)"/>
<path d="M0 0 C27.06 0 54.12 0 82 0 C82 13.53 82 27.06 82 41 C54.94 41 27.88 41 0 41 C0 27.47 0 13.94 0 0 Z " fill="#34181A" transform="translate(1147,369)"/>
<path d="M0 0 C27.06 0 54.12 0 82 0 C82 13.53 82 27.06 82 41 C54.94 41 27.88 41 0 41 C0 27.47 0 13.94 0 0 Z " fill="#8CA1A9" transform="translate(1065,369)"/>
<path d="M0 0 C27.06 0 54.12 0 82 0 C82 13.53 82 27.06 82 41 C54.94 41 27.88 41 0 41 C0 27.47 0 13.94 0 0 Z " fill="#34181A" transform="translate(819,369)"/>
<path d="M0 0 C27.06 0 54.12 0 82 0 C82 13.2 82 26.4 82 40 C54.63776656 40.76271034 27.37269126 41.09537523 0 41 C0 27.47 0 13.94 0 0 Z " fill="#823230" transform="translate(1065,1393)"/>
<path d="M0 0 C26.73 0 53.46 0 81 0 C81 13.53 81 27.06 81 41 C54.27 41 27.54 41 0 41 C0 27.47 0 13.94 0 0 Z " fill="#3E4355" transform="translate(943,1188)"/>
<path d="M0 0 C13.53 0 27.06 0 41 0 C41 26.73 41 53.46 41 81 C27.47 81 13.94 81 0 81 C0 54.27 0 27.54 0 0 Z " fill="#F4F7F7" transform="translate(860,779)"/>
<path d="M0 0 C13.53 0 27.06 0 41 0 C41 26.73 41 53.46 41 81 C27.47 81 13.94 81 0 81 C0 54.27 0 27.54 0 0 Z " fill="#8CA0A8" transform="translate(737,492)"/>
<path d="M0 0 C13.53 0 27.06 0 41 0 C41.09389217 27.04094559 40.77504384 53.97034591 40 81 C26.8 81 13.6 81 0 81 C0 54.27 0 27.54 0 0 Z " fill="#44545B" transform="translate(1065,410)"/>
<path d="M0 0 C27.06 0 54.12 0 82 0 C82 13.2 82 26.4 82 40 C54.94 40 27.88 40 0 40 C0 26.8 0 13.6 0 0 Z " fill="#6C2126" transform="translate(1024,1434)"/>
<path d="M0 0 C13.2 0 26.4 0 40 0 C40 27.06 40 54.12 40 82 C26.8 82 13.6 82 0 82 C0 54.94 0 27.88 0 0 Z " fill="#33161A" transform="translate(574,1065)"/>
<path d="M0 0 C13.2 0 26.4 0 40 0 C40 27.06 40 54.12 40 82 C26.8 82 13.6 82 0 82 C0 54.94 0 27.88 0 0 Z " fill="#331618" transform="translate(820,778)"/>
<path d="M0 0 C13.2 0 26.4 0 40 0 C40 26.73 40 53.46 40 81 C26.8 81 13.6 81 0 81 C0 54.27 0 27.54 0 0 Z " fill="#341619" transform="translate(820,1557)"/>
<path d="M0 0 C13.2 0 26.4 0 40 0 C40 26.73 40 53.46 40 81 C26.8 81 13.6 81 0 81 C0 54.27 0 27.54 0 0 Z " fill="#A5937D" transform="translate(820,1475)"/>
<path d="M0 0 C26.73 0 53.46 0 81 0 C81 13.2 81 26.4 81 40 C54.27 40 27.54 40 0 40 C0 26.8 0 13.6 0 0 Z " fill="#341719" transform="translate(615,1270)"/>
<path d="M0 0 C13.2 0 26.4 0 40 0 C40 26.73 40 53.46 40 81 C26.8 81 13.6 81 0 81 C0 54.27 0 27.54 0 0 Z " fill="#32161A" transform="translate(533,983)"/>
<path d="M0 0 C13.2 0 26.4 0 40 0 C40 26.73 40 53.46 40 81 C26.8 81 13.6 81 0 81 C0 54.27 0 27.54 0 0 Z " fill="#C5D7DB" transform="translate(943,902)"/>
<path d="M0 0 C13.2 0 26.4 0 40 0 C40 26.73 40 53.46 40 81 C26.8 81 13.6 81 0 81 C0 54.27 0 27.54 0 0 Z " fill="#33161A" transform="translate(492,902)"/>
<path d="M0 0 C13.2 0 26.4 0 40 0 C40 26.73 40 53.46 40 81 C26.8 81 13.6 81 0 81 C0 54.27 0 27.54 0 0 Z " fill="#321619" transform="translate(615,861)"/>
<path d="M0 0 C13.2 0 26.4 0 40 0 C40 26.73 40 53.46 40 81 C26.8 81 13.6 81 0 81 C0 54.27 0 27.54 0 0 Z " fill="#C5D6DB" transform="translate(697,574)"/>
<path d="M0 0 C13.2 0 26.4 0 40 0 C40 26.73 40 53.46 40 81 C26.8 81 13.6 81 0 81 C0 54.27 0 27.54 0 0 Z " fill="#331618" transform="translate(1311,492)"/>
<path d="M0 0 C13.2 0 26.4 0 40 0 C40 26.73 40 53.46 40 81 C26.8 81 13.6 81 0 81 C0 54.27 0 27.54 0 0 Z " fill="#8AA0A8" transform="translate(1270,492)"/>
<path d="M0 0 C13.2 0 26.4 0 40 0 C40 26.73 40 53.46 40 81 C26.8 81 13.6 81 0 81 C0 54.27 0 27.54 0 0 Z " fill="#331618" transform="translate(697,492)"/>
<path d="M0 0 C26.73 0 53.46 0 81 0 C81 13.2 81 26.4 81 40 C54.27 40 27.54 40 0 40 C0 26.8 0 13.6 0 0 Z " fill="#5D6E75" transform="translate(861,410)"/>
<path d="M0 0 C6.6 0 13.2 0 20 0 C20 40.59 20 81.18 20 123 C13.4 123 6.8 123 0 123 C0 82.41 0 41.82 0 0 Z " fill="#C5D6DA" transform="translate(697,696)"/>
<path d="M0 0 C0.33 0 0.66 0 1 0 C1 13.2 1 26.4 1 40 C14.2 40 27.4 40 41 40 C41 26.8 41 13.6 41 0 C54.53 0 68.06 0 82 0 C82 13.53 82 27.06 82 41 C68.8 41 55.6 41 42 41 C42 94.79 42 148.58 42 204 C55.2 204 68.4 204 82 204 C82 177.27 82 150.54 82 123 C82.33 123 82.66 123 83 123 C83 149.73 83 176.46 83 204 C96.2 204 109.4 204 123 204 C123 204.33 123 204.66 123 205 C109.8 205 96.6 205 83 205 C83 231.73 83 258.46 83 286 C82.67 286 82.34 286 82 286 C82 259.27 82 232.54 82 205 C68.47 205 54.94 205 41 205 C41 150.88 41 96.76 41 41 C27.47 41 13.94 41 0 41 C0 27.47 0 13.94 0 0 Z " fill="#693C2A" transform="translate(737,1352)"/>
<path d="M0 0 C13.53 0 27.06 0 41 0 C41 13.53 41 27.06 41 41 C27.8 41 14.6 41 1 41 C1 68.06 1 95.12 1 123 C0.67 123 0.34 123 0 123 C0 82.41 0 41.82 0 0 Z " fill="#D17C65" transform="translate(778,737)"/>
<path d="M0 0 C27.06 0 54.12 0 82 0 C82 13.53 82 27.06 82 41 C68.47 41 54.94 41 41 41 C41 27.8 41 14.6 41 1 C27.47 1 13.94 1 0 1 C0 0.67 0 0.34 0 0 Z " fill="#879FA6" transform="translate(1024,737)"/>
<path d="M0 0 C13.53 0 27.06 0 41 0 C41 13.53 41 27.06 41 41 C27.47 41 13.94 41 0 41 C0 27.47 0 13.94 0 0 Z " fill="#AD8552" transform="translate(860,1434)"/>
<path d="M0 0 C13.53 0 27.06 0 41 0 C41 13.53 41 27.06 41 41 C27.47 41 13.94 41 0 41 C0 27.47 0 13.94 0 0 Z " fill="#33181C" transform="translate(1147,1270)"/>
<path d="M0 0 C13.53 0 27.06 0 41 0 C41 13.53 41 27.06 41 41 C27.47 41 13.94 41 0 41 C0 27.47 0 13.94 0 0 Z " fill="#6A3927" transform="translate(737,1270)"/>
<path d="M0 0 C13.53 0 27.06 0 41 0 C41 13.53 41 27.06 41 41 C27.47 41 13.94 41 0 41 C0 27.47 0 13.94 0 0 Z " fill="#6A3925" transform="translate(860,1270)"/>
<path d="M0 0 C13.53 0 27.06 0 41 0 C41 13.53 41 27.06 41 41 C27.47 41 13.94 41 0 41 C0 27.47 0 13.94 0 0 Z " fill="#6B3A28" transform="translate(778,1229)"/>
<path d="M0 0 C13.53 0 27.06 0 41 0 C41 13.53 41 27.06 41 41 C27.47 41 13.94 41 0 41 C0 27.47 0 13.94 0 0 Z " fill="#693A27" transform="translate(655,1229)"/>
<path d="M0 0 C13.53 0 27.06 0 41 0 C41 13.53 41 27.06 41 41 C27.47 41 13.94 41 0 41 C0 27.47 0 13.94 0 0 Z " fill="#C2D4D9" transform="translate(819,1188)"/>
<path d="M0 0 C13.53 0 27.06 0 41 0 C41 13.53 41 27.06 41 41 C27.47 41 13.94 41 0 41 C0 27.47 0 13.94 0 0 Z " fill="#8E4D3C" transform="translate(696,1188)"/>
<path d="M0 0 C13.53 0 27.06 0 41 0 C41 13.53 41 27.06 41 41 C27.47 41 13.94 41 0 41 C0 27.47 0 13.94 0 0 Z " fill="#9B6E44" transform="translate(778,1147)"/>
<path d="M0 0 C13.53 0 27.06 0 41 0 C41 13.53 41 27.06 41 41 C27.47 41 13.94 41 0 41 C0 27.47 0 13.94 0 0 Z " fill="#C3D6DB" transform="translate(1106,1065)"/>
<path d="M0 0 C13.53 0 27.06 0 41 0 C41 13.53 41 27.06 41 41 C27.47 41 13.94 41 0 41 C0 27.47 0 13.94 0 0 Z " fill="#5C6C74" transform="translate(1024,983)"/>
<path d="M0 0 C13.53 0 27.06 0 41 0 C41 13.53 41 27.06 41 41 C27.47 41 13.94 41 0 41 C0 27.47 0 13.94 0 0 Z " fill="#FCFAFA" transform="translate(696,983)"/>
<path d="M0 0 C13.53 0 27.06 0 41 0 C41 13.53 41 27.06 41 41 C27.47 41 13.94 41 0 41 C0 27.47 0 13.94 0 0 Z " fill="#D37E67" transform="translate(860,983)"/>
<path d="M0 0 C13.53 0 27.06 0 41 0 C41 13.53 41 27.06 41 41 C27.47 41 13.94 41 0 41 C0 27.47 0 13.94 0 0 Z " fill="#5B6B72" transform="translate(1065,942)"/>
<path d="M0 0 C13.53 0 27.06 0 41 0 C41 13.53 41 27.06 41 41 C27.47 41 13.94 41 0 41 C0 27.47 0 13.94 0 0 Z " fill="#46535B" transform="translate(983,942)"/>
<path d="M0 0 C13.53 0 27.06 0 41 0 C41 13.53 41 27.06 41 41 C27.47 41 13.94 41 0 41 C0 27.47 0 13.94 0 0 Z " fill="#35171A" transform="translate(942,860)"/>
<path d="M0 0 C13.53 0 27.06 0 41 0 C41 13.53 41 27.06 41 41 C27.47 41 13.94 41 0 41 C0 27.47 0 13.94 0 0 Z " fill="#8AA0A9" transform="translate(1270,860)"/>
<path d="M0 0 C13.53 0 27.06 0 41 0 C41 13.53 41 27.06 41 41 C27.47 41 13.94 41 0 41 C0 27.47 0 13.94 0 0 Z " fill="#33181A" transform="translate(1229,410)"/>
<path d="M0 0 C13.53 0 27.06 0 41 0 C41 13.53 41 27.06 41 41 C27.47 41 13.94 41 0 41 C0 27.47 0 13.94 0 0 Z " fill="#8AA0A7" transform="translate(1188,410)"/>
<path d="M0 0 C13.53 0 27.06 0 41 0 C41 13.53 41 27.06 41 41 C27.47 41 13.94 41 0 41 C0 27.47 0 13.94 0 0 Z " fill="#C6D5DA" transform="translate(819,410)"/>
<path d="M0 0 C13.53 0 27.06 0 41 0 C41 13.53 41 27.06 41 41 C27.47 41 13.94 41 0 41 C0 27.47 0 13.94 0 0 Z " fill="#46545C" transform="translate(1024,369)"/>
<path d="M0 0 C13.53 0 27.06 0 41 0 C41 13.53 41 27.06 41 41 C27.47 41 13.94 41 0 41 C0 27.47 0 13.94 0 0 Z " fill="#C8D6DB" transform="translate(901,369)"/>
<path d="M0 0 C13.2 0 26.4 0 40 0 C40 13.53 40 27.06 40 41 C26.8 41 13.6 41 0 41 C0 27.47 0 13.94 0 0 Z " fill="#341619" transform="translate(861,1638)"/>
<path d="M0 0 C13.2 0 26.4 0 40 0 C40 13.53 40 27.06 40 41 C26.8 41 13.6 41 0 41 C0 27.47 0 13.94 0 0 Z " fill="#9B6D43" transform="translate(615,1229)"/>
<path d="M0 0 C13.2 0 26.4 0 40 0 C40 13.53 40 27.06 40 41 C26.8 41 13.6 41 0 41 C0 27.47 0 13.94 0 0 Z " fill="#34181C" transform="translate(943,1188)"/>
<path d="M0 0 C13.2 0 26.4 0 40 0 C40 13.53 40 27.06 40 41 C26.8 41 13.6 41 0 41 C0 27.47 0 13.94 0 0 Z " fill="#35191C" transform="translate(1229,1024)"/>
<path d="M0 0 C13.2 0 26.4 0 40 0 C40 13.53 40 27.06 40 41 C26.8 41 13.6 41 0 41 C0 27.47 0 13.94 0 0 Z " fill="#341718" transform="translate(738,983)"/>
<path d="M0 0 C13.53 0 27.06 0 41 0 C41 13.2 41 26.4 41 40 C27.47 40 13.94 40 0 40 C0 26.8 0 13.6 0 0 Z " fill="#C5D6DA" transform="translate(983,861)"/>
<path d="M0 0 C13.2 0 26.4 0 40 0 C40 13.53 40 27.06 40 41 C26.8 41 13.6 41 0 41 C0 27.47 0 13.94 0 0 Z " fill="#5B6D74" transform="translate(1311,860)"/>
<path d="M0 0 C13.53 0 27.06 0 41 0 C41 13.2 41 26.4 41 40 C27.47 40 13.94 40 0 40 C0 26.8 0 13.6 0 0 Z " fill="#435058" transform="translate(1065,779)"/>
<path d="M0 0 C13.53 0 27.06 0 41 0 C41.04125 6.22875 41.0825 12.4575 41.125 18.875 C41.14320801 20.84065918 41.16141602 22.80631836 41.18017578 24.83154297 C41.18601558 26.38508836 41.19111235 27.93863681 41.1953125 29.4921875 C41.20554443 30.30244385 41.21577637 31.1127002 41.22631836 31.94750977 C41.22695105 33.96641636 41.12314936 35.98485274 41 38 C39 40 39 40 35.19287109 40.22705078 C33.55302585 40.22655007 31.91315879 40.21548147 30.2734375 40.1953125 C29.50878174 40.19329834 28.74412598 40.19128418 27.95629883 40.18920898 C25.095805 40.17873306 22.23539657 40.15081049 19.375 40.125 C9.784375 40.063125 9.784375 40.063125 0 40 C0 26.8 0 13.6 0 0 Z " fill="#661822" transform="translate(942,1065)"/>
<path d="M0 0 C13.2 0 26.4 0 40 0 C40 13.2 40 26.4 40 40 C26.8 40 13.6 40 0 40 C0 26.8 0 13.6 0 0 Z " fill="#34161A" transform="translate(574,1229)"/>
<path d="M0 0 C13.2 0 26.4 0 40 0 C40 13.2 40 26.4 40 40 C26.8 40 13.6 40 0 40 C0 26.8 0 13.6 0 0 Z " fill="#321618" transform="translate(1393,902)"/>
<path d="M0 0 C13.2 0 26.4 0 40 0 C40 13.2 40 26.4 40 40 C26.8 40 13.6 40 0 40 C0 26.8 0 13.6 0 0 Z " fill="#311518" transform="translate(574,820)"/>
<path d="M0 0 C13.2 0 26.4 0 40 0 C40 13.2 40 26.4 40 40 C26.8 40 13.6 40 0 40 C0 26.8 0 13.6 0 0 Z " fill="#321618" transform="translate(533,779)"/>
<path d="M0 0 C13.2 0 26.4 0 40 0 C40 13.2 40 26.4 40 40 C26.8 40 13.6 40 0 40 C0 26.8 0 13.6 0 0 Z " fill="#C5D5DA" transform="translate(492,779)"/>
<path d="M0 0 C13.2 0 26.4 0 40 0 C40 13.2 40 26.4 40 40 C26.8 40 13.6 40 0 40 C0 26.8 0 13.6 0 0 Z " fill="#889DA6" transform="translate(1311,656)"/>
<path d="M0 0 C13.2 0 26.4 0 40 0 C40 13.2 40 26.4 40 40 C26.8 40 13.6 40 0 40 C0 26.8 0 13.6 0 0 Z " fill="#8BA1A8" transform="translate(1311,574)"/>
<path d="M0 0 C13.2 0 26.4 0 40 0 C40 13.2 40 26.4 40 40 C26.8 40 13.6 40 0 40 C0 26.8 0 13.6 0 0 Z " fill="#C8D6DC" transform="translate(738,492)"/>
<path d="M0 0 C13.2 0 26.4 0 40 0 C40 13.2 40 26.4 40 40 C26.8 40 13.6 40 0 40 C0 26.8 0 13.6 0 0 Z " fill="#311517" transform="translate(1270,451)"/>
<path d="M0 0 C13.2 0 26.4 0 40 0 C40 13.2 40 26.4 40 40 C26.8 40 13.6 40 0 40 C0 26.8 0 13.6 0 0 Z " fill="#8CA1A9" transform="translate(1229,451)"/>
<path d="M0 0 C13.2 0 26.4 0 40 0 C40 13.2 40 26.4 40 40 C26.8 40 13.6 40 0 40 C0 26.8 0 13.6 0 0 Z " fill="#8AA1A8" transform="translate(861,451)"/>
<path d="M0 0 C13.2 0 26.4 0 40 0 C40 13.2 40 26.4 40 40 C26.8 40 13.6 40 0 40 C0 26.8 0 13.6 0 0 Z " fill="#5C6D74" transform="translate(820,451)"/>
<path d="M0 0 C13.2 0 26.4 0 40 0 C40 13.2 40 26.4 40 40 C26.8 40 13.6 40 0 40 C0 26.8 0 13.6 0 0 Z " fill="#C8D8DD" transform="translate(779,451)"/>
<path d="M0 0 C13.2 0 26.4 0 40 0 C40 13.2 40 26.4 40 40 C26.8 40 13.6 40 0 40 C0 26.8 0 13.6 0 0 Z " fill="#321517" transform="translate(738,451)"/>
<path d="M0 0 C13.2 0 26.4 0 40 0 C40 13.2 40 26.4 40 40 C26.8 40 13.6 40 0 40 C0 26.8 0 13.6 0 0 Z " fill="#311516" transform="translate(779,410)"/>
<path d="M0 0 C27.39 0 54.78 0 83 0 C83 13.53 83 27.06 83 41 C96.53 41 110.06 41 124 41 C124 54.53 124 68.06 124 82 C137.53 82 151.06 82 165 82 C165 95.53 165 109.06 165 123 C178.2 123 191.4 123 205 123 C205 123.33 205 123.66 205 124 C191.8 124 178.6 124 165 124 C165 150.73 165 177.46 165 205 C164.67 205 164.34 205 164 205 C164 178.27 164 151.54 164 124 C150.47 124 136.94 124 123 124 C123 96.94 123 69.88 123 42 C109.8 42 96.6 42 83 42 C83 55.2 83 68.4 83 82 C82.67 82 82.34 82 82 82 C82 68.8 82 55.6 82 42 C68.8 42 55.6 42 42 42 C42 82.26 42 122.52 42 164 C55.53 164 69.06 164 83 164 C83 217.79 83 271.58 83 327 C96.2 327 109.4 327 123 327 C123 300.27 123 273.54 123 246 C123.33 246 123.66 246 124 246 C124 300.12 124 354.24 124 410 C123.67 410 123.34 410 123 410 C123 382.94 123 355.88 123 328 C109.47 328 95.94 328 82 328 C82 274.21 82 220.42 82 165 C68.8 165 55.6 165 42 165 C42 191.73 42 218.46 42 246 C41.67 246 41.34 246 41 246 C41 178.35 41 110.7 41 41 C54.53 41 68.06 41 82 41 C82 27.8 82 14.6 82 1 C55.27 1 28.54 1 1 1 C1 54.79 1 108.58 1 164 C0.67 164 0.34 164 0 164 C0 109.88 0 55.76 0 0 Z M124 83 C124 96.2 124 109.4 124 123 C137.2 123 150.4 123 164 123 C164 109.8 164 96.6 164 83 C150.8 83 137.6 83 124 83 Z " fill="#797072" transform="translate(450,737)"/>
<path d="M0 0 C0.33 0 0.66 0 1 0 C1 53.79 1 107.58 1 163 C14.2 163 27.4 163 41 163 C41 122.74 41 82.48 41 41 C41.33 41 41.66 41 42 41 C42 81.59 42 122.18 42 164 C28.47 164 14.94 164 1 164 C1 285.44 1 406.88 1 532 C0.67 532 0.34 532 0 532 C0 410.56 0 289.12 0 164 C-80.85 164 -161.7 164 -245 164 C-245 163.67 -245 163.34 -245 163 C-164.15 163 -83.3 163 0 163 C0 109.21 0 55.42 0 0 Z " fill="#5B5254" transform="translate(1269,1024)"/>
<path d="M0 0 C0.33 0 0.66 0 1 0 C1 26.73 1 53.46 1 81 C41.26 81 81.52 81 123 81 C123 81.33 123 81.66 123 82 C109.8 82 96.6 82 83 82 C83 95.2 83 108.4 83 122 C82.67 122 82.34 122 82 122 C82 108.8 82 95.6 82 82 C68.8 82 55.6 82 42 82 C42 108.73 42 135.46 42 163 C109.32 163 176.64 163 246 163 C246 163.33 246 163.66 246 164 C178.35 164 110.7 164 41 164 C41 136.94 41 109.88 41 82 C27.8 82 14.6 82 1 82 C1 203.44 1 324.88 1 450 C0.67 450 0.34 450 0 450 C0 328.56 0 207.12 0 82 C-13.53 82 -27.06 82 -41 82 C-41 81.67 -41 81.34 -41 81 C-27.47 81 -13.94 81 0 81 C0 54.27 0 27.54 0 0 Z " fill="#777A7F" transform="translate(696,492)"/>
<path d="M0 0 C13.53 0 27.06 0 41 0 C41 6.93 41 13.86 41 21 C27.47 21 13.94 21 0 21 C0 14.07 0 7.14 0 0 Z " fill="#8A523B" transform="translate(1106,1679)"/>
<path d="M0 0 C13.53 0 27.06 0 41 0 C41 6.6 41 13.2 41 20 C27.47 20 13.94 20 0 20 C0 13.4 0 6.8 0 0 Z " fill="#89513A" transform="translate(860,1680)"/>
<path d="M0 0 C6.6 0 13.2 0 20 0 C20 12.87 20 25.74 20 39 C13.4 38.67 6.8 38.34 0 38 C0 25.46 0 12.92 0 0 Z " fill="#7E939E" transform="translate(1188,1088)"/>
<path d="M0 0 C0.33 0 0.66 0 1 0 C1 13.2 1 26.4 1 40 C14.2 40 27.4 40 41 40 C41 26.8 41 13.6 41 0 C41.33 0 41.66 0 42 0 C42 13.2 42 26.4 42 40 C55.53 40 69.06 40 83 40 C83 67.06 83 94.12 83 122 C96.53 122 110.06 122 124 122 C124 122.33 124 122.66 124 123 C110.47 123 96.94 123 83 123 C83 136.2 83 149.4 83 163 C82.67 163 82.34 163 82 163 C82 149.8 82 136.6 82 123 C68.8 123 55.6 123 42 123 C42 136.2 42 149.4 42 163 C41.67 163 41.34 163 41 163 C41 149.8 41 136.6 41 123 C27.88096101 123.03960462 27.88096101 123.03960462 14.76196289 123.09008789 C13.12386134 123.09300701 11.48575906 123.09555558 9.84765625 123.09765625 C8.55982239 123.1053302 8.55982239 123.1053302 7.24597168 123.11315918 C5.16363948 123.1134691 3.0813964 123.06242176 1 123 C-0.73141493 121.26858507 -0.11977579 119.04249956 -0.12442017 116.73521423 C-0.11902725 115.60449242 -0.11902725 115.60449242 -0.11352539 114.45092773 C-0.11367142 113.66074249 -0.11381744 112.87055725 -0.1139679 112.056427 C-0.11326857 109.43212178 -0.10547527 106.80788664 -0.09765625 104.18359375 C-0.09579214 102.36898335 -0.0943682 100.55437244 -0.09336853 98.73976135 C-0.08954279 93.9540977 -0.07971204 89.1684642 -0.06866455 84.3828125 C-0.0566573 78.64596429 -0.05204846 72.90910601 -0.04621124 67.17224884 C-0.03650031 58.4481449 -0.01734415 49.72410716 0 41 C-13.2 41 -26.4 41 -40 41 C-40 40.67 -40 40.34 -40 40 C-26.8 40 -13.6 40 0 40 C0 26.8 0 13.6 0 0 Z M1 41 C1 67.73 1 94.46 1 122 C14.2 122 27.4 122 41 122 C41 95.27 41 68.54 41 41 C27.8 41 14.6 41 1 41 Z M42 41 C42 67.73 42 94.46 42 122 C55.2 122 68.4 122 82 122 C82 95.27 82 68.54 82 41 C68.8 41 55.6 41 42 41 Z " fill="#78797D" transform="translate(1269,451)"/>
<path d="M0 0 C0.33 0 0.66 0 1 0 C1 80.85 1 161.7 1 245 C27.73 245 54.46 245 82 245 C82 231.8 82 218.6 82 205 C82.33 205 82.66 205 83 205 C83 218.2 83 231.4 83 245 C96.2 245 109.4 245 123 245 C123 245.33 123 245.66 123 246 C109.8 246 96.6 246 83 246 C83 259.2 83 272.4 83 286 C96.2 286 109.4 286 123 286 C123 286.33 123 286.66 123 287 C109.47 287 95.94 287 82 287 C82 273.47 82 259.94 82 246 C54.94 246 27.88 246 0 246 C0 232.47 0 218.94 0 205 C-13.2 205 -26.4 205 -40 205 C-40 204.67 -40 204.34 -40 204 C-26.8 204 -13.6 204 0 204 C0 136.68 0 69.36 0 0 Z " fill="#705D5B" transform="translate(614,1065)"/>
<path d="M0 0 C0 0.33 0 0.66 0 1 C-54.12 1 -108.24 1 -164 1 C-164 14.53 -164 28.06 -164 42 C-204.26 42 -244.52 42 -286 42 C-286 55.53 -286 69.06 -286 83 C-299.86 83 -313.72 83 -328 83 C-328 69.47 -328 55.94 -328 42 C-341.53 42 -355.06 42 -369 42 C-369 41.67 -369 41.34 -369 41 C-355.14 41 -341.28 41 -327 41 C-327 54.53 -327 68.06 -327 82 C-313.8 82 -300.6 82 -287 82 C-287 68.47 -287 54.94 -287 41 C-283.37008057 40.97494385 -279.74016113 40.9498877 -276.00024414 40.92407227 C-264.03800782 40.84078201 -252.07581703 40.75212328 -240.11364079 40.66066074 C-232.85743403 40.60531219 -225.60122236 40.55182757 -218.3449707 40.50268555 C-212.02263061 40.45986364 -205.70032696 40.41359078 -199.37804312 40.36312145 C-196.02845393 40.33650437 -192.67887205 40.31165099 -189.3292408 40.29092598 C-185.59582571 40.26696035 -181.86250777 40.23689542 -178.12915039 40.20532227 C-176.45141037 40.19668907 -176.45141037 40.19668907 -174.73977661 40.18788147 C-173.72870346 40.17809265 -172.71763031 40.16830383 -171.67591858 40.15821838 C-170.79191911 40.15176583 -169.90791964 40.14531328 -168.9971323 40.1386652 C-167.00079477 40.21960493 -167.00079477 40.21960493 -166 39 C-165.92451816 37.31015041 -165.91690968 35.61719048 -165.9375 33.92578125 C-165.94523437 32.86423828 -165.95296875 31.80269531 -165.9609375 30.70898438 C-165.98639522 28.49543592 -166.01240947 26.28189376 -166.0390625 24.06835938 C-166.08110069 18.20753559 -165.93720719 12.42122388 -165.49609375 6.57495117 C-165.40384521 5.3369426 -165.31159668 4.09893402 -165.21655273 2.82341003 C-165.14509033 1.89168472 -165.07362793 0.95995941 -165 0 C-149.83589632 -0.15638608 -134.67172453 -0.30427182 -119.50744915 -0.4429636 C-112.4608966 -0.50759377 -105.41438597 -0.57469146 -98.36791992 -0.64819336 C-65.56155942 -0.98898098 -32.79596267 -1.10272469 0 0 Z " fill="#50211E" transform="translate(1229,1392)"/>
<path d="M0 0 C0.33 0 0.66 0 1 0 C1 13.2 1 26.4 1 40 C14.11903899 39.96039538 14.11903899 39.96039538 27.23803711 39.90991211 C28.87613866 39.90699299 30.51424094 39.90444442 32.15234375 39.90234375 C33.44017761 39.8946698 33.44017761 39.8946698 34.75402832 39.88684082 C36.83636052 39.8865309 38.9186036 39.93757824 41 40 C42 41 42 41 42.11352539 44.78540039 C42.11327425 46.47282728 42.10771112 48.1602593 42.09765625 49.84765625 C42.09664917 50.63297729 42.09564209 51.41829834 42.09460449 52.22741699 C42.08935638 55.17245943 42.07539523 58.11748112 42.0625 61.0625 C42.041875 67.641875 42.02125 74.22125 42 81 C55.2 81 68.4 81 82 81 C82 81.33 82 81.66 82 82 C68.8 82 55.6 82 42 82 C42 108.73 42 135.46 42 163 C41.67 163 41.34 163 41 163 C41 136.27 41 109.54 41 82 C0.74 82 -39.52 82 -81 82 C-81 81.67 -81 81.34 -81 81 C-67.8 81 -54.6 81 -41 81 C-41 67.47 -41 53.94 -41 40 C-27.47 40 -13.94 40 0 40 C0 26.8 0 13.6 0 0 Z M-40 41 C-40 54.2 -40 67.4 -40 81 C-26.8 81 -13.6 81 0 81 C0 67.8 0 54.6 0 41 C-13.2 41 -26.4 41 -40 41 Z M1 41 C1 54.2 1 67.4 1 81 C14.2 81 27.4 81 41 81 C41 67.8 41 54.6 41 41 C27.8 41 14.6 41 1 41 Z " fill="#818286" transform="translate(778,410)"/>
<path d="M0 0 C13.53 0 27.06 0 41 0 C41 54.12 41 108.24 41 164 C54.53 164 68.06 164 82 164 C82 177.53 82 191.06 82 205 C81.67 205 81.34 205 81 205 C81 191.8 81 178.6 81 165 C67.8 165 54.6 165 41 165 C41 173.58 41 182.16 41 191 C40.67 191 40.34 191 40 191 C40 182.42 40 173.84 40 165 C34.74877015 165.11963539 29.49778141 165.24216547 24.24682617 165.37231445 C22.4591073 165.415727 20.67134526 165.45739729 18.88354492 165.49731445 C16.31936609 165.5548646 13.75540588 165.61860203 11.19140625 165.68359375 C9.98515343 165.70866249 9.98515343 165.70866249 8.75453186 165.73423767 C5.07330002 165.49220696 5.07330002 165.49220696 2 167 C1.83982834 169.80976518 1.74049466 172.59773596 1.68359375 175.41015625 C1.66281265 176.25219101 1.64203156 177.09422577 1.62062073 177.96177673 C1.55503188 180.66193179 1.49619724 183.36218717 1.4375 186.0625 C1.39432363 187.88868241 1.35070964 189.71485454 1.30664062 191.54101562 C1.19934106 196.02723992 1.09810034 200.5135655 1 205 C0.67 205 0.34 205 0 205 C0 191.47 0 177.94 0 164 C13.2 164 26.4 164 40 164 C40 110.21 40 56.42 40 1 C26.8 1 13.6 1 0 1 C0 0.67 0 0.34 0 0 Z " fill="#32282C" transform="translate(1147,737)"/>
<path d="M0 0 C68.31 0 136.62 0 207 0 C207 0.33 207 0.66 207 1 C205.9495604 1.00423194 204.89912081 1.00846388 203.81684971 1.01282406 C178.29684708 1.11586423 152.77687357 1.22459259 127.25692081 1.33933926 C114.91583786 1.39469641 102.57475202 1.44818244 90.23364258 1.49731445 C79.48134727 1.54012583 68.72907348 1.586396 57.97681135 1.63687855 C52.2797805 1.66350411 46.58275398 1.68835771 40.88569832 1.70907402 C35.53010709 1.72860319 30.17455688 1.75273559 24.81900215 1.78049088 C22.84727216 1.78988109 20.87553314 1.79754922 18.90378952 1.80341911 C16.22410866 1.81164696 13.54452827 1.82591396 10.86488342 1.84178162 C10.07404281 1.84275972 9.2832022 1.84373783 8.46839672 1.84474558 C4.94018386 1.54830902 4.94018386 1.54830902 2 3 C1.8909311 5.04994788 1.85308745 7.10369316 1.84178162 9.1565094 C1.83437465 10.13171827 1.83437465 10.13171827 1.82681805 11.12662834 C1.81137193 13.32082569 1.80306333 15.51499363 1.79467773 17.70922852 C1.78510479 19.27586123 1.77509506 20.84249132 1.76467896 22.40911865 C1.73756056 26.67543563 1.71658868 30.94176375 1.69667697 35.20811963 C1.67486003 39.66179276 1.64745042 44.11543129 1.62062073 48.56907654 C1.57063561 57.00864934 1.52571845 65.44824129 1.48259836 73.88785166 C1.43327561 83.49351901 1.37833914 93.09915166 1.32291877 102.70478547 C1.20900943 122.46982466 1.10218999 142.23489697 1 162 C0.67 162 0.34 162 0 162 C0 108.54 0 55.08 0 0 Z " fill="#261316" transform="translate(738,697)"/>
<path d="M0 0 C0.33 0 0.66 0 1 0 C1 13.53 1 27.06 1 41 C14.53 41 28.06 41 42 41 C42 54.53 42 68.06 42 82 C55.2 82 68.4 82 82 82 C82 82.33 82 82.66 82 83 C68.8 83 55.6 83 42 83 C42 109.73 42 136.46 42 164 C41.67 164 41.34 164 41 164 C41 137.27 41 110.54 41 83 C27.47 83 13.94 83 0 83 C0 55.61 0 28.22 0 0 Z M1 42 C1 55.2 1 68.4 1 82 C14.2 82 27.4 82 41 82 C41 68.8 41 55.6 41 42 C27.8 42 14.6 42 1 42 Z " fill="#7F7677" transform="translate(573,778)"/>
<path d="M0 0 C0.33 0 0.66 0 1 0 C1 26.73 1 53.46 1 81 C14.2 81 27.4 81 41 81 C41 81.33 41 81.66 41 82 C27.8 82 14.6 82 1 82 C1 108.73 1 135.46 1 163 C0.67 163 0.34 163 0 163 C0 136.27 0 109.54 0 82 C-13.53 82 -27.06 82 -41 82 C-41 81.67 -41 81.34 -41 81 C-27.47 81 -13.94 81 0 81 C0 54.27 0 27.54 0 0 Z " fill="#786561" transform="translate(819,1475)"/>
<path d="M0 0 C0.33 0 0.66 0 1 0 C1 13.2 1 26.4 1 40 C14.53 40 28.06 40 42 40 C42 40.33 42 40.66 42 41 C28.47 41 14.94 41 1 41 C1 81.26 1 121.52 1 163 C0.67 163 0.34 163 0 163 C0 122.74 0 82.48 0 41 C-13.2 41 -26.4 41 -40 41 C-40 40.67 -40 40.34 -40 40 C-26.8 40 -13.6 40 0 40 C0 26.8 0 13.6 0 0 Z " fill="#687B82" transform="translate(1105,451)"/>
<path d="M0 0 C12.87 0 25.74 0 39 0 C39 0.33 39 0.66 39 1 C26.79 1 14.58 1 2 1 C2 13.54 2 26.08 2 39 C14.87 39 27.74 39 41 39 C41 39.66 41 40.32 41 41 C27.47 41 13.94 41 0 41 C0 27.47 0 13.94 0 0 Z " fill="#C1C4C7" transform="translate(819,1188)"/>
<path d="M0 0 C27.06 0 54.12 0 82 0 C82 13.53 82 27.06 82 41 C81.67 41 81.34 41 81 41 C81 27.8 81 14.6 81 1 C67.8 1 54.6 1 41 1 C41 9.58 41 18.16 41 27 C40.67 27 40.34 27 40 27 C40 18.42 40 9.84 40 1 C34.74877015 1.11963539 29.49778141 1.24216547 24.24682617 1.37231445 C22.4591073 1.415727 20.67134526 1.45739729 18.88354492 1.49731445 C16.31936609 1.5548646 13.75540588 1.61860203 11.19140625 1.68359375 C10.3872377 1.70030624 9.58306915 1.71701874 8.75453186 1.73423767 C5.07330002 1.49220696 5.07330002 1.49220696 2 3 C1.83982834 5.80976518 1.74049466 8.59773596 1.68359375 11.41015625 C1.66281265 12.25219101 1.64203156 13.09422577 1.62062073 13.96177673 C1.55503188 16.66193179 1.49619724 19.36218717 1.4375 22.0625 C1.39432363 23.88868241 1.35070964 25.71485454 1.30664062 27.54101562 C1.19934106 32.02723992 1.09810034 36.5135655 1 41 C0.67 41 0.34 41 0 41 C0 27.47 0 13.94 0 0 Z " fill="#412C2A" transform="translate(1147,901)"/>
<path d="M0 0 C1.32 0.33 2.64 0.66 4 1 C3.34 1.66 2.68 2.32 2 3 C1.75430728 5.79216791 1.62636862 8.49240605 1.5859375 11.2890625 C1.56657135 12.10748627 1.5472052 12.92591003 1.5272522 13.76913452 C1.46738918 16.38764976 1.42104468 19.00620881 1.375 21.625 C1.33682636 23.39845686 1.29777499 25.17189505 1.2578125 26.9453125 C1.16168229 31.29672375 1.07767649 35.64822179 1 40 C0.67 40 0.34 40 0 40 C0 26.8 0 13.6 0 0 Z " fill="#7A3938" transform="translate(1065,1393)"/>
<path d="M0 0 C13.53 0 27.06 0 41 0 C41 0.33 41 0.66 41 1 C39.29686646 1.02187378 39.29686646 1.02187378 37.55932617 1.04418945 C33.34904391 1.10213676 29.1392985 1.17936941 24.92944336 1.26245117 C23.10694081 1.2957174 21.28433481 1.32374406 19.46166992 1.34643555 C16.8424875 1.37995081 14.22425452 1.43226352 11.60546875 1.48828125 C10.38188911 1.49786613 10.38188911 1.49786613 9.1335907 1.50764465 C4.84627632 1.48789244 4.84627632 1.48789244 1.26069641 3.52702332 C0.8446666 4.01310562 0.42863678 4.49918793 0 5 C0 3.35 0 1.7 0 0 Z " fill="#2A2025" transform="translate(1065,983)"/>
</svg>
