<?xml version="1.0" encoding="UTF-8"?>
<svg version="1.1" xmlns="http://www.w3.org/2000/svg" width="2048" height="2048">
<path d="M0 0 C81.18 0 162.36 0 246 0 C246 13.86 246 27.72 246 42 C273.06 42 300.12 42 328 42 C328 55.53 328 69.06 328 83 C341.53 83 355.06 83 369 83 C369 96.53 369 110.06 369 124 C382.53 124 396.06 124 410 124 C410 137.2 410 150.4 410 164 C423.53 164 437.06 164 451 164 C451 191.06 451 218.12 451 246 C464.53 246 478.06 246 492 246 C492 367.77 492 489.54 492 615 C478.47 615 464.94 615 451 615 C451 628.53 451 642.06 451 656 C437.47 656 423.94 656 410 656 C410 669.53 410 683.06 410 697 C423.53 697 437.06 697 451 697 C451 710.53 451 724.06 451 738 C464.53 738 478.06 738 492 738 C492 751.53 492 765.06 492 779 C505.53 779 519.06 779 533 779 C533 751.94 533 724.88 533 697 C546.53 697 560.06 697 574 697 C574 656.41 574 615.82 574 574 C587.2 574 600.4 574 614 574 C614 560.47 614 546.94 614 533 C627.53 533 641.06 533 655 533 C655 519.47 655 505.94 655 492 C668.53 492 682.06 492 696 492 C696 478.47 696 464.94 696 451 C709.53 451 723.06 451 737 451 C737 464.53 737 478.06 737 492 C750.53 492 764.06 492 778 492 C778 546.12 778 600.24 778 656 C764.47 656 750.94 656 737 656 C737 696.59 737 737.18 737 779 C723.47 779 709.94 779 696 779 C696 819.59 696 860.18 696 902 C682.8 902 669.6 902 656 902 C656 915.53 656 929.06 656 943 C669.2 943 682.4 943 696 943 C696 983.26 696 1023.52 696 1065 C669.27 1065 642.54 1065 615 1065 C615 1092.39 615 1119.78 615 1148 C601.47 1148 587.94 1148 574 1148 C574 1161.53 574 1175.06 574 1189 C533.41 1189 492.82 1189 451 1189 C451 1161.94 451 1134.88 451 1107 C437.47 1107 423.94 1107 410 1107 C410 1161.12 410 1215.24 410 1271 C396.47 1271 382.94 1271 369 1271 C369 1297.73 369 1324.46 369 1352 C355.47 1352 341.94 1352 328 1352 C328 1372.46 328 1392.92 328 1414 C287.41 1414 246.82 1414 205 1414 C205 1380.01 205 1346.02 205 1311 C191.47 1311 177.94 1311 164 1311 C164 1297.47 164 1283.94 164 1270 C136.94 1270 109.88 1270 82 1270 C82 1283.53 82 1297.06 82 1311 C68.47 1311 54.94 1311 41 1311 C41 1344.99 41 1378.98 41 1414 C0.41 1414 -40.18 1414 -82 1414 C-82 1393.54 -82 1373.08 -82 1352 C-95.53 1352 -109.06 1352 -123 1352 C-123 1325.27 -123 1298.54 -123 1271 C-136.53 1271 -150.06 1271 -164 1271 C-164 1243.94 -164 1216.88 -164 1189 C-204.59 1189 -245.18 1189 -287 1189 C-287 1175.47 -287 1161.94 -287 1148 C-300.53 1148 -314.06 1148 -328 1148 C-328 1093.55 -328 1039.1 -328 983 C-314.47 983 -300.94 983 -287 983 C-287 969.8 -287 956.6 -287 943 C-273.47 943 -259.94 943 -246 943 C-246 929.47 -246 915.94 -246 902 C-259.53 902 -273.06 902 -287 902 C-287 861.41 -287 820.82 -287 779 C-273.47 779 -259.94 779 -246 779 C-246 765.47 -246 751.94 -246 738 C-232.47 738 -218.94 738 -205 738 C-205 724.47 -205 710.94 -205 697 C-191.47 697 -177.94 697 -164 697 C-164 683.47 -164 669.94 -164 656 C-177.2 656 -190.4 656 -204 656 C-204 642.47 -204 628.94 -204 615 C-190.8 615 -177.6 615 -164 615 C-164 587.94 -164 560.88 -164 533 C-177.53 533 -191.06 533 -205 533 C-205 560.06 -205 587.12 -205 615 C-218.53 615 -232.06 615 -246 615 C-246 493.23 -246 371.46 -246 246 C-232.47 246 -218.94 246 -205 246 C-205 218.94 -205 191.88 -205 164 C-191.47 164 -177.94 164 -164 164 C-164 150.8 -164 137.6 -164 124 C-150.47 124 -136.94 124 -123 124 C-123 110.47 -123 96.94 -123 83 C-109.47 83 -95.94 83 -82 83 C-82 69.47 -82 55.94 -82 42 C-54.94 42 -27.88 42 0 42 C0 28.14 0 14.28 0 0 Z " fill="#33161A" transform="translate(901,327)"/>
<path d="M0 0 C81.18 0 162.36 0 246 0 C246 13.86 246 27.72 246 42 C273.06 42 300.12 42 328 42 C328 55.53 328 69.06 328 83 C341.53 83 355.06 83 369 83 C369 96.53 369 110.06 369 124 C382.53 124 396.06 124 410 124 C410 137.2 410 150.4 410 164 C423.53 164 437.06 164 451 164 C451 191.06 451 218.12 451 246 C464.53 246 478.06 246 492 246 C492 246.33 492 246.66 492 247 C478.47 247 464.94 247 451 247 C451 301.12 451 355.24 451 411 C356.29 411 261.58 411 164 411 C164 451.26 164 491.52 164 533 C177.53 533 191.06 533 205 533 C205 505.94 205 478.88 205 451 C259.12 451 313.24 451 369 451 C369 518.65 369 586.3 369 656 C355.47 656 341.94 656 328 656 C328 669.53 328 683.06 328 697 C314.47 697 300.94 697 287 697 C287 710.53 287 724.06 287 738 C178.76 738 70.52 738 -41 738 C-41 724.47 -41 710.94 -41 697 C-54.53 697 -68.06 697 -82 697 C-82 683.47 -82 669.94 -82 656 C-95.53 656 -109.06 656 -123 656 C-123 588.35 -123 520.7 -123 451 C-68.88 451 -14.76 451 41 451 C41 478.06 41 505.12 41 533 C54.53 533 68.06 533 82 533 C82 492.74 82 452.48 82 411 C-12.71 411 -107.42 411 -205 411 C-205 356.88 -205 302.76 -205 247 C-218.53 247 -232.06 247 -246 247 C-246 246.67 -246 246.34 -246 246 C-232.47 246 -218.94 246 -205 246 C-205 218.94 -205 191.88 -205 164 C-191.47 164 -177.94 164 -164 164 C-164 150.8 -164 137.6 -164 124 C-150.47 124 -136.94 124 -123 124 C-123 110.47 -123 96.94 -123 83 C-109.47 83 -95.94 83 -82 83 C-82 69.47 -82 55.94 -82 42 C-54.94 42 -27.88 42 0 42 C0 28.14 0 14.28 0 0 Z " fill="#46545C" transform="translate(901,327)"/>
<path d="M0 0 C27.39 0 54.78 0 83 0 C83 13.2 83 26.4 83 40 C136.79 40 190.58 40 246 40 C246 26.8 246 13.6 246 0 C273.06 0 300.12 0 328 0 C328 27.06 328 54.12 328 82 C341.53 82 355.06 82 369 82 C369 109.06 369 136.12 369 164 C382.53 164 396.06 164 410 164 C410 204.59 410 245.18 410 287 C396.47 287 382.94 287 369 287 C369 340.79 369 394.58 369 450 C233.7 450 98.4 450 -41 450 C-41 396.21 -41 342.42 -41 287 C-54.53 287 -68.06 287 -82 287 C-82 246.41 -82 205.82 -82 164 C-68.47 164 -54.94 164 -41 164 C-41 136.94 -41 109.88 -41 82 C-27.47 82 -13.94 82 0 82 C0 54.94 0 27.88 0 0 Z " fill="#643624" transform="translate(860,1106)"/>
<path d="M0 0 C27.06 0 54.12 0 82 0 C82 108.24 82 216.48 82 328 C122.59 328 163.18 328 205 328 C205 341.2 205 354.4 205 368 C164.41 368 123.82 368 82 368 C82 408.59 82 449.18 82 491 C95.53 491 109.06 491 123 491 C123 463.94 123 436.88 123 409 C177.12 409 231.24 409 287 409 C287 476.65 287 544.3 287 614 C273.47 614 259.94 614 246 614 C246 627.53 246 641.06 246 655 C232.47 655 218.94 655 205 655 C205 668.53 205 682.06 205 696 C96.76 696 -11.48 696 -123 696 C-123 682.47 -123 668.94 -123 655 C-136.53 655 -150.06 655 -164 655 C-164 641.47 -164 627.94 -164 614 C-177.53 614 -191.06 614 -205 614 C-205 546.35 -205 478.7 -205 409 C-150.88 409 -96.76 409 -41 409 C-41 436.06 -41 463.12 -41 491 C-27.47 491 -13.94 491 0 491 C0 450.41 0 409.82 0 368 C-40.59 368 -81.18 368 -123 368 C-123 354.47 -123 340.94 -123 327 C-82.41 327 -41.82 327 0 327 C0 219.09 0 111.18 0 0 Z " fill="#FDBE99" transform="translate(983,369)"/>
<path d="M0 0 C13.53 0 27.06 0 41 0 C41 54.12 41 108.24 41 164 C135.71 164 230.42 164 328 164 C328 204.26 328 244.52 328 286 C314.47 286 300.94 286 287 286 C287 258.94 287 231.88 287 204 C232.88 204 178.76 204 123 204 C123 271.65 123 339.3 123 409 C136.53 409 150.06 409 164 409 C164 422.53 164 436.06 164 450 C177.53 450 191.06 450 205 450 C205 463.53 205 477.06 205 491 C313.24 491 421.48 491 533 491 C533 477.47 533 463.94 533 450 C546.53 450 560.06 450 574 450 C574 436.47 574 422.94 574 409 C587.53 409 601.06 409 615 409 C615 341.35 615 273.7 615 204 C560.88 204 506.76 204 451 204 C451 231.06 451 258.12 451 286 C437.47 286 423.94 286 410 286 C410 245.74 410 205.48 410 164 C504.71 164 599.42 164 697 164 C697 109.88 697 55.76 697 0 C710.53 0 724.06 0 738 0 C738 121.44 738 242.88 738 368 C724.47 368 710.94 368 697 368 C697 381.53 697 395.06 697 409 C683.47 409 669.94 409 656 409 C656 422.53 656 436.06 656 450 C669.2 450 682.4 450 696 450 C696 463.53 696 477.06 696 491 C655.74 491 615.48 491 574 491 C574 531.59 574 572.18 574 614 C560.47 614 546.94 614 533 614 C533 586.94 533 559.88 533 532 C505.94 532 478.88 532 451 532 C451 545.2 451 558.4 451 572 C397.21 572 343.42 572 288 572 C288 558.8 288 545.6 288 532 C260.61 532 233.22 532 205 532 C205 559.06 205 586.12 205 614 C191.47 614 177.94 614 164 614 C164 573.41 164 532.82 164 491 C123.74 491 83.48 491 42 491 C42 477.47 42 463.94 42 450 C55.2 450 68.4 450 82 450 C82 436.47 82 422.94 82 409 C68.8 409 55.6 409 42 409 C42 395.47 42 381.94 42 368 C55.2 368 68.4 368 82 368 C82 340.94 82 313.88 82 286 C68.47 286 54.94 286 41 286 C41 313.06 41 340.12 41 368 C27.47 368 13.94 368 0 368 C0 246.56 0 125.12 0 0 Z " fill="#33161A" transform="translate(655,574)"/>
<path d="M0 0 C13.53 0 27.06 0 41 0 C41 13.53 41 27.06 41 41 C54.53 41 68.06 41 82 41 C82 95.12 82 149.24 82 205 C68.47 205 54.94 205 41 205 C41 245.59 41 286.18 41 328 C13.94 328 -13.12 328 -41 328 C-41 368.59 -41 409.18 -41 451 C-54.53 451 -68.06 451 -82 451 C-82 478.06 -82 505.12 -82 533 C-108.73 533 -135.46 533 -163 533 C-163 519.47 -163 505.94 -163 492 C-149.47 492 -135.94 492 -122 492 C-122 478.47 -122 464.94 -122 451 C-135.53 451 -149.06 451 -163 451 C-163 423.94 -163 396.88 -163 369 C-149.47 369 -135.94 369 -122 369 C-122 287.82 -122 206.64 -122 123 C-108.8 123 -95.6 123 -82 123 C-82 109.47 -82 95.94 -82 82 C-68.47 82 -54.94 82 -41 82 C-41 68.47 -41 54.94 -41 41 C-27.47 41 -13.94 41 0 41 C0 27.47 0 13.94 0 0 Z " fill="#8DA2AD" transform="translate(1597,778)"/>
<path d="M0 0 C40.59 0 81.18 0 123 0 C123 13.53 123 27.06 123 41 C136.53 41 150.06 41 164 41 C164 54.53 164 68.06 164 82 C177.53 82 191.06 82 205 82 C205 95.2 205 108.4 205 122 C218.53 122 232.06 122 246 122 C246 149.06 246 176.12 246 204 C259.53 204 273.06 204 287 204 C287 204.33 287 204.66 287 205 C273.47 205 259.94 205 246 205 C246 231.73 246 258.46 246 286 C164.82 286 83.64 286 0 286 C0 191.62 0 97.24 0 0 Z " fill="#5D707A" transform="translate(1106,369)"/>
<path d="M0 0 C40.59 0 81.18 0 123 0 C123 94.38 123 188.76 123 286 C41.82 286 -39.36 286 -123 286 C-123 259.27 -123 232.54 -123 205 C-136.53 205 -150.06 205 -164 205 C-164 204.67 -164 204.34 -164 204 C-150.47 204 -136.94 204 -123 204 C-123 176.94 -123 149.88 -123 122 C-109.47 122 -95.94 122 -82 122 C-82 108.8 -82 95.6 -82 82 C-68.47 82 -54.94 82 -41 82 C-41 68.47 -41 54.94 -41 41 C-27.47 41 -13.94 41 0 41 C0 27.47 0 13.94 0 0 Z " fill="#5D7079" transform="translate(819,369)"/>
<path d="M0 0 C27.06 0 54.12 0 82 0 C82 108.24 82 216.48 82 328 C122.59 328 163.18 328 205 328 C205 341.2 205 354.4 205 368 C164.41 368 123.82 368 82 368 C82 408.59 82 449.18 82 491 C54.94 491 27.88 491 0 491 C0 450.41 0 409.82 0 368 C-40.59 368 -81.18 368 -123 368 C-123 354.47 -123 340.94 -123 327 C-82.41 327 -41.82 327 0 327 C0 219.09 0 111.18 0 0 Z " fill="#90A6B1" transform="translate(983,369)"/>
<path d="M0 0 C13.53 0 27.06 0 41 0 C41 13.53 41 27.06 41 41 C54.53 41 68.06 41 82 41 C82 95.12 82 149.24 82 205 C68.47 205 54.94 205 41 205 C41 218.53 41 232.06 41 246 C-13.12 246 -67.24 246 -123 246 C-123 178.35 -123 110.7 -123 41 C-82.41 41 -41.82 41 0 41 C0 27.47 0 13.94 0 0 Z " fill="#B2A290" transform="translate(1147,1147)"/>
<path d="M0 0 C13.53 0 27.06 0 41 0 C41 13.53 41 27.06 41 41 C68.06 41 95.12 41 123 41 C123 108.65 123 176.3 123 246 C82.41 246 41.82 246 0 246 C0 232.47 0 218.94 0 205 C-13.53 205 -27.06 205 -41 205 C-41 150.88 -41 96.76 -41 41 C-27.47 41 -13.94 41 0 41 C0 27.47 0 13.94 0 0 Z " fill="#B2A290" transform="translate(860,1147)"/>
<path d="M0 0 C135.3 0 270.6 0 410 0 C410 26.73 410 53.46 410 81 C274.7 81 139.4 81 0 81 C0 54.27 0 27.54 0 0 Z " fill="#B2A28F" transform="translate(819,1475)"/>
<path d="M0 0 C40.59 0 81.18 0 123 0 C123 54.12 123 108.24 123 164 C109.8 164 96.6 164 83 164 C83 177.53 83 191.06 83 205 C55.94 205 28.88 205 1 205 C1 218.2 1 231.4 1 245 C41.59 245 82.18 245 124 245 C124 272.06 124 299.12 124 327 C137.53 327 151.06 327 165 327 C165 354.06 165 381.12 165 409 C164.67 409 164.34 409 164 409 C164 382.27 164 355.54 164 328 C150.47 328 136.94 328 123 328 C123 300.94 123 273.88 123 246 C82.41 246 41.82 246 0 246 C0 232.47 0 218.94 0 205 C-13.53 205 -27.06 205 -41 205 C-41 150.55 -41 96.1 -41 40 C-27.47 40 -13.94 40 0 40 C0 26.8 0 13.6 0 0 Z " fill="#814830" transform="translate(614,1270)"/>
<path d="M0 0 C13.53 0 27.06 0 41 0 C41 94.38 41 188.76 41 286 C122.18 286 203.36 286 287 286 C287 313.39 287 340.78 287 369 C192.29 369 97.58 369 0 369 C0 368.67 0 368.34 0 368 C40.59 368 81.18 368 123 368 C123 354.8 123 341.6 123 328 C82.41 328 41.82 328 0 328 C0 219.76 0 111.52 0 0 Z " fill="#46555D" transform="translate(1065,369)"/>
<path d="M0 0 C27.39 0 54.78 0 83 0 C83 13.2 83 26.4 83 40 C136.79 40 190.58 40 246 40 C246 26.8 246 13.6 246 0 C273.06 0 300.12 0 328 0 C328 13.53 328 27.06 328 41 C314.47 41 300.94 41 287 41 C287 54.53 287 68.06 287 82 C246.41 82 205.82 82 164 82 C164 149.65 164 217.3 164 287 C150.47 287 136.94 287 123 287 C123 219.35 123 151.7 123 82 C95.94 82 68.88 82 41 82 C41 68.47 41 54.94 41 41 C27.47 41 13.94 41 0 41 C0 27.47 0 13.94 0 0 Z " fill="#755D56" transform="translate(860,1106)"/>
<path d="M0 0 C0.33 0 0.66 0 1 0 C1 13.53 1 27.06 1 41 C14.53 41 28.06 41 42 41 C42 81.59 42 122.18 42 164 C28.47 164 14.94 164 1 164 C1 177.53 1 191.06 1 205 C-26.06 205 -53.12 205 -81 205 C-81 191.47 -81 177.94 -81 164 C-94.53 164 -108.06 164 -122 164 C-122 123.41 -122 82.82 -122 41 C-81.74 41 -41.48 41 0 41 C0 27.47 0 13.94 0 0 Z " fill="#8DA2AC" transform="translate(1351,1024)"/>
<path d="M0 0 C0.33 0 0.66 0 1 0 C1 13.53 1 27.06 1 41 C41.26 41 81.52 41 123 41 C123 81.59 123 122.18 123 164 C109.47 164 95.94 164 82 164 C82 177.53 82 191.06 82 205 C54.94 205 27.88 205 0 205 C0 191.47 0 177.94 0 164 C-13.53 164 -27.06 164 -41 164 C-41 123.41 -41 82.82 -41 41 C-27.47 41 -13.94 41 0 41 C0 27.47 0 13.94 0 0 Z " fill="#5C6F77" transform="translate(696,1024)"/>
<path d="M0 0 C31.60416453 -0.02973541 63.20832353 -0.05106434 94.8125 -0.0625 C95.97853115 -0.0629343 97.14456229 -0.06336861 98.34592772 -0.06381607 C158.66985281 -0.08568041 218.99078471 -0.05737205 279.3125 0.5 C281.2554917 0.51793673 281.2554917 0.51793673 283.23773575 0.53623581 C298.15869316 0.67530426 313.07929009 0.83431296 328 1 C328 14.2 328 27.4 328 41 C287.41 41 246.82 41 205 41 C205 81.59 205 122.18 205 164 C177.94 164 150.88 164 123 164 C123 123.41 123 82.82 123 41 C82.41 41 41.82 41 0 41 C0 27.47 0 13.94 0 0 Z " fill="#CFE0E7" transform="translate(860,696)"/>
<path d="M0 0 C13.53 0 27.06 0 41 0 C41 67.32 41 134.64 41 204 C13.94 204 -13.12 204 -41 204 C-41 190.47 -41 176.94 -41 163 C-54.53 163 -68.06 163 -82 163 C-82 136.27 -82 109.54 -82 82 C-68.47 82 -54.94 82 -41 82 C-41 68.14 -41 54.28 -41 40 C-27.47 40 -13.94 40 0 40 C0 26.8 0 13.6 0 0 Z " fill="#90A6B1" transform="translate(901,451)"/>
<path d="M0 0 C13.53 0 27.06 0 41 0 C41 13.53 41 27.06 41 41 C54.53 41 68.06 41 82 41 C82 54.53 82 68.06 82 82 C95.53 82 109.06 82 123 82 C123 108.73 123 135.46 123 163 C109.47 163 95.94 163 82 163 C82 176.53 82 190.06 82 204 C54.94 204 27.88 204 0 204 C0 136.68 0 69.36 0 0 Z " fill="#8FA5B0" transform="translate(1106,451)"/>
<path d="M0 0 C40.59 0 81.18 0 123 0 C123 47.52 123 95.04 123 144 C82.41 144 41.82 144 0 144 C0 96.48 0 48.96 0 0 Z " fill="#394760" transform="translate(1106,1597)"/>
<path d="M0 0 C40.59 0 81.18 0 123 0 C123 47.52 123 95.04 123 144 C82.41 144 41.82 144 0 144 C0 96.48 0 48.96 0 0 Z " fill="#394760" transform="translate(819,1597)"/>
<path d="M0 0 C13.2 0 26.4 0 40 0 C40 26.73 40 53.46 40 81 C26.8 81 13.6 81 0 81 C0 121.59 0 162.18 0 204 C-13.86 204 -27.72 204 -42 204 C-42 231.06 -42 258.12 -42 286 C-55.2 286 -68.4 286 -82 286 C-82 245.41 -82 204.82 -82 163 C-68.47 163 -54.94 163 -41 163 C-41 122.41 -41 81.82 -41 40 C-27.47 40 -13.94 40 0 40 C0 26.8 0 13.6 0 0 Z " fill="#CEDEE5" transform="translate(1557,861)"/>
<path d="M0 0 C108.24 0 216.48 0 328 0 C328 13.53 328 27.06 328 41 C286.35915541 41.02258372 244.71831242 41.04049735 203.07746295 41.05106533 C198.16679495 41.05231611 193.25612696 41.05361042 188.34545898 41.05493164 C187.36779026 41.05519395 186.39012154 41.05545626 185.3828265 41.05572652 C169.53081054 41.06008359 153.67879819 41.06797133 137.82678438 41.0771528 C121.57381142 41.08648832 105.32084036 41.09205539 89.06786484 41.09408849 C79.03047455 41.09546393 68.99309446 41.09981565 58.9557073 41.10791647 C52.08246361 41.11318268 45.20922522 41.11480458 38.33597965 41.11350138 C34.36430116 41.1128578 30.39264055 41.11387771 26.42096519 41.11920547 C22.79099039 41.1240396 19.16104564 41.12433856 15.53106951 41.12089889 C13.58327448 41.12027028 11.63547985 41.12461189 9.68768984 41.12908131 C7.97609774 41.12609474 7.97609774 41.12609474 6.22992802 41.12304783 C5.23695935 41.12342755 4.24399069 41.12380727 3.22093207 41.1241985 C1 41 1 41 0 40 C0 26.8 0 13.6 0 0 Z " fill="#7F472F" transform="translate(860,1393)"/>
<path d="M0 0 C54.12 0 108.24 0 164 0 C164 67.65 164 135.3 164 205 C150.47 205 136.94 205 123 205 C123 191.47 123 177.94 123 164 C136.2 164 149.4 164 163 164 C163 123.41 163 82.82 163 41 C136.27 41 109.54 41 82 41 C82 68.06 82 95.12 82 123 C68.47 123 54.94 123 41 123 C41 95.94 41 68.88 41 41 C27.47 41 13.94 41 0 41 C0 27.47 0 13.94 0 0 Z " fill="#D8846C" transform="translate(1106,778)"/>
<path d="M0 0 C54.12 0 108.24 0 164 0 C164 13.53 164 27.06 164 41 C150.47 41 136.94 41 123 41 C123 68.06 123 95.12 123 123 C109.47 123 95.94 123 82 123 C82 95.94 82 68.88 82 41 C55.27 41 28.54 41 1 41 C1 81.59 1 122.18 1 164 C14.2 164 27.4 164 41 164 C41 177.53 41 191.06 41 205 C27.47 205 13.94 205 0 205 C0 137.35 0 69.7 0 0 Z " fill="#DA856D" transform="translate(778,778)"/>
<path d="M0 0 C13.2 0 26.4 0 40 0 C40 40.26 40 80.52 40 122 C53.53 122 67.06 122 81 122 C81 135.53 81 149.06 81 163 C40.41 163 -0.18 163 -42 163 C-42 136.27 -42 109.54 -42 82 C-28.14 82 -14.28 82 0 82 C0 54.94 0 27.88 0 0 Z " fill="#5D7079" transform="translate(779,492)"/>
<path d="M0 0 C13.53 0 27.06 0 41 0 C41 27.06 41 54.12 41 82 C54.53 82 68.06 82 82 82 C82 95.53 82 109.06 82 123 C95.53 123 109.06 123 123 123 C123 136.53 123 150.06 123 164 C95.94 164 68.88 164 41 164 C41 150.47 41 136.94 41 123 C27.47 123 13.94 123 0 123 C0 82.41 0 41.82 0 0 Z " fill="#5C6E77" transform="translate(1229,1065)"/>
<path d="M0 0 C13.2 0 26.4 0 40 0 C40 13.53 40 27.06 40 41 C67.06 41 94.12 41 122 41 C122 54.2 122 67.4 122 81 C108.47 81 94.94 81 81 81 C81 94.53 81 108.06 81 122 C54.27 122 27.54 122 0 122 C0 81.74 0 41.48 0 0 Z " fill="#FDBE98" transform="translate(615,1352)"/>
<path d="M0 0 C80.52 0 161.04 0 244 0 C244 13.2 244 26.4 244 40 C163.48 40 82.96 40 0 40 C0 26.8 0 13.6 0 0 Z " fill="#331419" transform="translate(902,328)"/>
<path d="M0 0 C13.53 0 27.06 0 41 0 C41 67.65 41 135.3 41 205 C27.47 205 13.94 205 0 205 C0 137.35 0 69.7 0 0 Z " fill="#766456" transform="translate(983,1188)"/>
<path d="M0 0 C13.53 0 27.06 0 41 0 C41 20.46 41 40.92 41 62 C54.53 62 68.06 62 82 62 C82 55.07 82 48.14 82 41 C95.2 41 108.4 41 122 41 C122 61.46 122 81.92 122 103 C81.74 103 41.48 103 0 103 C0 69.01 0 35.02 0 0 Z " fill="#33161A" transform="translate(1106,1638)"/>
<path d="M0 0 C13.53 0 27.06 0 41 0 C41 33.99 41 67.98 41 103 C0.74 103 -39.52 103 -81 103 C-81 82.54 -81 62.08 -81 41 C-67.8 41 -54.6 41 -41 41 C-41 47.93 -41 54.86 -41 62 C-27.47 62 -13.94 62 0 62 C0 41.54 0 21.08 0 0 Z " fill="#33161A" transform="translate(901,1638)"/>
<path d="M0 0 C13.53 0 27.06 0 41 0 C41 13.53 41 27.06 41 41 C54.2 41 67.4 41 81 41 C81.165 46.919375 81.33 52.83875 81.5 58.9375 C81.55220703 60.70472412 81.60441406 62.47194824 81.65820312 64.29272461 C82.16715388 83.8762207 82 103.3832663 82 123 C54.94 123 27.88 123 0 123 C0 82.41 0 41.82 0 0 Z " fill="#814831" transform="translate(1311,1270)"/>
<path d="M0 0 C13.53 0 27.06 0 41 0 C41 26.73 41 53.46 41 81 C176.3 81 311.6 81 451 81 C451 54.27 451 27.54 451 0 C464.53 0 478.06 0 492 0 C492 27.06 492 54.12 492 82 C329.64 82 167.28 82 0 82 C0 54.94 0 27.88 0 0 Z " fill="#715D51" transform="translate(778,1475)"/>
<path d="M0 0 C94.38 0 188.76 0 286 0 C286 13.53 286 27.06 286 41 C232.21 41 178.42 41 123 41 C123 27.8 123 14.6 123 1 C82.41 1 41.82 1 0 1 C0 0.67 0 0.34 0 0 Z " fill="#5D7079" transform="translate(1065,696)"/>
<path d="M0 0 C0.33 0 0.66 0 1 0 C1 13.53 1 27.06 1 41 C27.73 41 54.46 41 82 41 C82 68.06 82 95.12 82 123 C54.94 123 27.88 123 0 123 C0 82.41 0 41.82 0 0 Z " fill="#8EA2AD" transform="translate(696,1024)"/>
<path d="M0 0 C13.53 0 27.06 0 41 0 C41 40.59 41 81.18 41 123 C13.94 123 -13.12 123 -41 123 C-41 109.47 -41 95.94 -41 82 C-27.47 82 -13.94 82 0 82 C0 54.94 0 27.88 0 0 Z " fill="#756355" transform="translate(1229,1270)"/>
<path d="M0 0 C13.53 0 27.06 0 41 0 C41 27.06 41 54.12 41 82 C54.53 82 68.06 82 82 82 C82 95.53 82 109.06 82 123 C54.94 123 27.88 123 0 123 C0 82.41 0 41.82 0 0 Z " fill="#766355" transform="translate(778,1270)"/>
<path d="M0 0 C27.06 0 54.12 0 82 0 C82 27.06 82 54.12 82 82 C54.94 82 27.88 82 0 82 C0 54.94 0 27.88 0 0 Z " fill="#8DA2AC" transform="translate(1311,1106)"/>
<path d="M0 0 C13.53 0 27.06 0 41 0 C41 27.06 41 54.12 41 82 C54.53 82 68.06 82 82 82 C82 95.53 82 109.06 82 123 C54.94 123 27.88 123 0 123 C0 82.41 0 41.82 0 0 Z " fill="#8DA2AD" transform="translate(655,1065)"/>
<path d="M0 0 C13.53 0 27.06 0 41 0 C41 13.53 41 27.06 41 41 C27.8 41 14.6 41 1 41 C1 81.59 1 122.18 1 164 C-12.53 164 -26.06 164 -40 164 C-40 123.41 -40 82.82 -40 41 C-26.8 41 -13.6 41 0 41 C0 27.47 0 13.94 0 0 Z " fill="#32161A" transform="translate(1515,860)"/>
<path d="M0 0 C27.06 0 54.12 0 82 0 C82 27.06 82 54.12 82 82 C54.94 82 27.88 82 0 82 C0 54.94 0 27.88 0 0 Z " fill="#D9856C" transform="translate(983,860)"/>
<path d="M0 0 C13.53 0 27.06 0 41 0 C41 54.12 41 108.24 41 164 C27.47 164 13.94 164 0 164 C0 109.88 0 55.76 0 0 Z " fill="#32171B" transform="translate(1638,819)"/>
<path d="M0 0 C13.53 0 27.06 0 41 0 C41 40.26 41 80.52 41 122 C13.94 122 -13.12 122 -41 122 C-41 108.47 -41 94.94 -41 81 C-27.47 81 -13.94 81 0 81 C0 54.27 0 27.54 0 0 Z " fill="#8AA0AB" transform="translate(1024,738)"/>
<path d="M0 0 C53.79 0 107.58 0 163 0 C163 13.53 163 27.06 163 41 C109.21 41 55.42 41 0 41 C0 27.47 0 13.94 0 0 Z " fill="#5E7079" transform="translate(697,696)"/>
<path d="M0 0 C54.12 0 108.24 0 164 0 C164 13.2 164 26.4 164 40 C109.88 40 55.76 40 0 40 C0 26.8 0 13.6 0 0 Z " fill="#334E73" transform="translate(942,1148)"/>
<path d="M0 0 C13.2 0 26.4 0 40 0 C40 53.79 40 107.58 40 163 C26.8 163 13.6 163 0 163 C0 109.21 0 55.42 0 0 Z " fill="#321519" transform="translate(574,1311)"/>
<path d="M0 0 C53.79 0 107.58 0 163 0 C163 13.2 163 26.4 163 40 C109.21 40 55.42 40 0 40 C0 26.8 0 13.6 0 0 Z " fill="#B22B33" transform="translate(943,1106)"/>
<path d="M0 0 C13.53 0 27.06 0 41 0 C41 40.59 41 81.18 41 123 C27.47 123 13.94 123 0 123 C0 82.41 0 41.82 0 0 Z " fill="#32171B" transform="translate(1597,983)"/>
<path d="M0 0 C27.06 0 54.12 0 82 0 C82 27.06 82 54.12 82 82 C68.47 82 54.94 82 41 82 C41 68.47 41 54.94 41 41 C27.88096101 41.03960462 27.88096101 41.03960462 14.76196289 41.09008789 C13.12386134 41.09300701 11.48575906 41.09555558 9.84765625 41.09765625 C8.55982239 41.1053302 8.55982239 41.1053302 7.24597168 41.11315918 C5.16363948 41.1134691 3.0813964 41.06242176 1 41 C0.67 40.67 0.34 40.34 0 40 C0 26.8 0 13.6 0 0 Z " fill="#3B4861" transform="translate(655,1270)"/>
<path d="M0 0 C13.53 0 27.06 0 41 0 C41 40.26 41 80.52 41 122 C27.47 122 13.94 122 0 122 C0 81.74 0 41.48 0 0 Z " fill="#D0E1E6" transform="translate(983,451)"/>
<path d="M0 0 C13.53 0 27.06 0 41 0 C41 26.73 41 53.46 41 81 C13.94 81 -13.12 81 -41 81 C-41 67.8 -41 54.6 -41 41 C-27.47 41 -13.94 41 0 41 C0 27.47 0 13.94 0 0 Z " fill="#D0E1E7" transform="translate(860,492)"/>
<path d="M0 0 C13.2 0 26.4 0 40 0 C40 40.59 40 81.18 40 123 C26.8 123 13.6 123 0 123 C0 82.41 0 41.82 0 0 Z " fill="#321519" transform="translate(1557,1106)"/>
<path d="M0 0 C27.06 0 54.12 0 82 0 C82 33.99 82 67.98 82 103 C81.67 103 81.34 103 81 103 C81 82.54 81 62.08 81 41 C67.8 41 54.6 41 41 41 C41 47.93 41 54.86 41 62 C27.47 62 13.94 62 0 62 C0 41.54 0 21.08 0 0 Z " fill="#7F4831" transform="translate(1147,1638)"/>
<path d="M0 0 C27.06 0 54.12 0 82 0 C82 20.46 82 40.92 82 62 C68.47 62 54.94 62 41 62 C41 55.07 41 48.14 41 41 C27.8 41 14.6 41 1 41 C1 61.46 1 81.92 1 103 C0.67 103 0.34 103 0 103 C0 69.01 0 35.02 0 0 Z " fill="#7F4831" transform="translate(819,1638)"/>
<path d="M0 0 C0.33 0 0.66 0 1 0 C1 27.06 1 54.12 1 82 C14.53 82 28.06 82 42 82 C42 95.53 42 109.06 42 123 C14.94 123 -12.12 123 -40 123 C-40 109.47 -40 95.94 -40 82 C-26.8 82 -13.6 82 0 82 C0 54.94 0 27.88 0 0 Z " fill="#A67D5A" transform="translate(1433,1147)"/>
<path d="M0 0 C13.53 0 27.06 0 41 0 C41 27.06 41 54.12 41 82 C27.8 82 14.6 82 1 82 C1 95.53 1 109.06 1 123 C0.67 123 0.34 123 0 123 C0 82.41 0 41.82 0 0 Z " fill="#D4836C" transform="translate(696,860)"/>
<path d="M0 0 C27.06 0 54.12 0 82 0 C82 0.33 82 0.66 82 1 C68.47 1 54.94 1 41 1 C41 27.73 41 54.46 41 82 C27.47 82 13.94 82 0 82 C0 54.94 0 27.88 0 0 Z " fill="#B6C9CF" transform="translate(983,737)"/>
<path d="M0 0 C13.53 0 27.06 0 41 0 C41 27.06 41 54.12 41 82 C27.47 82 13.94 82 0 82 C0 54.94 0 27.88 0 0 Z " fill="#FDBE98" transform="translate(1434,1352)"/>
<path d="M0 0 C13.53 0 27.06 0 41 0 C41 27.06 41 54.12 41 82 C27.47 82 13.94 82 0 82 C0 54.94 0 27.88 0 0 Z " fill="#5D6374" transform="translate(1311,1270)"/>
<path d="M0 0 C13.53 0 27.06 0 41 0 C41 27.06 41 54.12 41 82 C27.47 82 13.94 82 0 82 C0 54.94 0 27.88 0 0 Z " fill="#CEDFE4" transform="translate(1434,1147)"/>
<path d="M0 0 C27.06 0 54.12 0 82 0 C82 13.53 82 27.06 82 41 C54.94 41 27.88 41 0 41 C0 27.47 0 13.94 0 0 Z " fill="#344D72" transform="translate(860,1106)"/>
<path d="M0 0 C27.06 0 54.12 0 82 0 C82 13.53 82 27.06 82 41 C54.94 41 27.88 41 0 41 C0 27.47 0 13.94 0 0 Z " fill="#341619" transform="translate(983,860)"/>
<path d="M0 0 C13.53 0 27.06 0 41 0 C41 27.06 41 54.12 41 82 C27.47 82 13.94 82 0 82 C0 54.94 0 27.88 0 0 Z " fill="#D7846C" transform="translate(1311,860)"/>
<path d="M0 0 C13.53 0 27.06 0 41 0 C41 27.06 41 54.12 41 82 C27.47 82 13.94 82 0 82 C0 54.94 0 27.88 0 0 Z " fill="#351618" transform="translate(1147,819)"/>
<path d="M0 0 C13.53 0 27.06 0 41 0 C41 27.06 41 54.12 41 82 C27.47 82 13.94 82 0 82 C0 54.94 0 27.88 0 0 Z " fill="#331519" transform="translate(860,819)"/>
<path d="M0 0 C13.53 0 27.06 0 41 0 C41 27.06 41 54.12 41 82 C27.47 82 13.94 82 0 82 C0 54.94 0 27.88 0 0 Z " fill="#623423" transform="translate(1311,778)"/>
<path d="M0 0 C13.53 0 27.06 0 41 0 C41 27.06 41 54.12 41 82 C27.47 82 13.94 82 0 82 C0 54.94 0 27.88 0 0 Z " fill="#623523" transform="translate(696,778)"/>
<path d="M0 0 C27.06 0 54.12 0 82 0 C82 13.53 82 27.06 82 41 C54.94 41 27.88 41 0 41 C0 27.47 0 13.94 0 0 Z " fill="#34161B" transform="translate(1147,369)"/>
<path d="M0 0 C27.06 0 54.12 0 82 0 C82 13.53 82 27.06 82 41 C54.94 41 27.88 41 0 41 C0 27.47 0 13.94 0 0 Z " fill="#33161B" transform="translate(819,369)"/>
<path d="M0 0 C26.73 0 53.46 0 81 0 C81 13.53 81 27.06 81 41 C54.27 41 27.54 41 0 41 C0 27.47 0 13.94 0 0 Z " fill="#AA7F58" transform="translate(1434,1270)"/>
<path d="M0 0 C13.2 0 26.4 0 40 0 C40 26.73 40 53.46 40 81 C26.8 81 13.6 81 0 81 C0 54.27 0 27.54 0 0 Z " fill="#776456" transform="translate(779,1475)"/>
<path d="M0 0 C13.2 0 26.4 0 40 0 C40 26.73 40 53.46 40 81 C26.8 81 13.6 81 0 81 C0 54.27 0 27.54 0 0 Z " fill="#8FA5B0" transform="translate(1311,574)"/>
<path d="M0 0 C13.2 0 26.4 0 40 0 C40 26.73 40 53.46 40 81 C26.8 81 13.6 81 0 81 C0 54.27 0 27.54 0 0 Z " fill="#90A5B0" transform="translate(697,574)"/>
<path d="M0 0 C13.2 0 26.4 0 40 0 C40 26.73 40 53.46 40 81 C26.8 81 13.6 81 0 81 C0 54.27 0 27.54 0 0 Z " fill="#33151A" transform="translate(1311,492)"/>
<path d="M0 0 C13.2 0 26.4 0 40 0 C40 26.73 40 53.46 40 81 C26.8 81 13.6 81 0 81 C0 54.27 0 27.54 0 0 Z " fill="#90A5B1" transform="translate(1270,492)"/>
<path d="M0 0 C13.2 0 26.4 0 40 0 C40 26.73 40 53.46 40 81 C26.8 81 13.6 81 0 81 C0 54.27 0 27.54 0 0 Z " fill="#90A5B1" transform="translate(738,492)"/>
<path d="M0 0 C13.2 0 26.4 0 40 0 C40 26.73 40 53.46 40 81 C26.8 81 13.6 81 0 81 C0 54.27 0 27.54 0 0 Z " fill="#33151A" transform="translate(697,492)"/>
<path d="M0 0 C54.12 0 108.24 0 164 0 C164 0.33 164 0.66 164 1 C110.21 1 56.42 1 1 1 C1 54.79 1 108.58 1 164 C14.2 164 27.4 164 41 164 C41 177.53 41 191.06 41 205 C27.47 205 13.94 205 0 205 C0 137.35 0 69.7 0 0 Z " fill="#D18169" transform="translate(778,778)"/>
<path d="M0 0 C13.53 0 27.06 0 41 0 C41 13.53 41 27.06 41 41 C27.8 41 14.6 41 1 41 C1 81.59 1 122.18 1 164 C0.67 164 0.34 164 0 164 C0 109.88 0 55.76 0 0 Z " fill="#391F23" transform="translate(1515,860)"/>
<path d="M0 0 C54.12 0 108.24 0 164 0 C164 13.53 164 27.06 164 41 C150.47 41 136.94 41 123 41 C123 27.8 123 14.6 123 1 C82.41 1 41.82 1 0 1 C0 0.67 0 0.34 0 0 Z " fill="#8EA3AE" transform="translate(1065,696)"/>
<path d="M0 0 C13.53 0 27.06 0 41 0 C41 13.53 41 27.06 41 41 C27.47 41 13.94 41 0 41 C0 27.47 0 13.94 0 0 Z " fill="#AC815C" transform="translate(1393,1434)"/>
<path d="M0 0 C13.53 0 27.06 0 41 0 C41 13.53 41 27.06 41 41 C27.47 41 13.94 41 0 41 C0 27.47 0 13.94 0 0 Z " fill="#5D6375" transform="translate(696,1311)"/>
<path d="M0 0 C13.53 0 27.06 0 41 0 C41 13.53 41 27.06 41 41 C27.47 41 13.94 41 0 41 C0 27.47 0 13.94 0 0 Z " fill="#3B475F" transform="translate(1311,1270)"/>
<path d="M0 0 C13.53 0 27.06 0 41 0 C41 13.53 41 27.06 41 41 C27.47 41 13.94 41 0 41 C0 27.47 0 13.94 0 0 Z " fill="#32161A" transform="translate(1434,1229)"/>
<path d="M0 0 C13.53 0 27.06 0 41 0 C41 13.53 41 27.06 41 41 C27.47 41 13.94 41 0 41 C0 27.47 0 13.94 0 0 Z " fill="#776456" transform="translate(1188,1188)"/>
<path d="M0 0 C13.53 0 27.06 0 41 0 C41 13.53 41 27.06 41 41 C27.47 41 13.94 41 0 41 C0 27.47 0 13.94 0 0 Z " fill="#776456" transform="translate(819,1188)"/>
<path d="M0 0 C13.53 0 27.06 0 41 0 C41 13.53 41 27.06 41 41 C27.47 41 13.94 41 0 41 C0 27.47 0 13.94 0 0 Z " fill="#766658" transform="translate(901,1147)"/>
<path d="M0 0 C13.53 0 27.06 0 41 0 C41 13.53 41 27.06 41 41 C27.47 41 13.94 41 0 41 C0 27.47 0 13.94 0 0 Z " fill="#CCDDE4" transform="translate(1311,1106)"/>
<path d="M0 0 C13.53 0 27.06 0 41 0 C41 13.53 41 27.06 41 41 C27.47 41 13.94 41 0 41 C0 27.47 0 13.94 0 0 Z " fill="#766457" transform="translate(1147,1106)"/>
<path d="M0 0 C13.53 0 27.06 0 41 0 C41 13.53 41 27.06 41 41 C27.47 41 13.94 41 0 41 C0 27.47 0 13.94 0 0 Z " fill="#766456" transform="translate(860,1106)"/>
<path d="M0 0 C13.53 0 27.06 0 41 0 C41 13.53 41 27.06 41 41 C27.47 41 13.94 41 0 41 C0 27.47 0 13.94 0 0 Z " fill="#CCDDE4" transform="translate(696,1106)"/>
<path d="M0 0 C13.53 0 27.06 0 41 0 C41 13.53 41 27.06 41 41 C27.47 41 13.94 41 0 41 C0 27.47 0 13.94 0 0 Z " fill="#33151A" transform="translate(1352,1065)"/>
<path d="M0 0 C13.53 0 27.06 0 41 0 C41 13.53 41 27.06 41 41 C27.47 41 13.94 41 0 41 C0 27.47 0 13.94 0 0 Z " fill="#321619" transform="translate(655,1065)"/>
<path d="M0 0 C13.53 0 27.06 0 41 0 C41 13.53 41 27.06 41 41 C27.47 41 13.94 41 0 41 C0 27.47 0 13.94 0 0 Z " fill="#D8866E" transform="translate(1147,1024)"/>
<path d="M0 0 C13.53 0 27.06 0 41 0 C41 13.53 41 27.06 41 41 C27.47 41 13.94 41 0 41 C0 27.47 0 13.94 0 0 Z " fill="#D8856C" transform="translate(860,1024)"/>
<path d="M0 0 C13.53 0 27.06 0 41 0 C41 13.53 41 27.06 41 41 C27.47 41 13.94 41 0 41 C0 27.47 0 13.94 0 0 Z " fill="#D9846C" transform="translate(1188,983)"/>
<path d="M0 0 C13.53 0 27.06 0 41 0 C41 13.53 41 27.06 41 41 C27.47 41 13.94 41 0 41 C0 27.47 0 13.94 0 0 Z " fill="#D9856D" transform="translate(819,983)"/>
<path d="M0 0 C13.53 0 27.06 0 41 0 C41 13.53 41 27.06 41 41 C27.47 41 13.94 41 0 41 C0 27.47 0 13.94 0 0 Z " fill="#D8846C" transform="translate(942,860)"/>
<path d="M0 0 C13.53 0 27.06 0 41 0 C41 13.53 41 27.06 41 41 C27.47 41 13.94 41 0 41 C0 27.47 0 13.94 0 0 Z " fill="#D8856D" transform="translate(1065,860)"/>
<path d="M0 0 C13.53 0 27.06 0 41 0 C41 13.53 41 27.06 41 41 C27.47 41 13.94 41 0 41 C0 27.47 0 13.94 0 0 Z " fill="#33161A" transform="translate(1597,778)"/>
<path d="M0 0 C13.53 0 27.06 0 41 0 C41 13.53 41 27.06 41 41 C27.47 41 13.94 41 0 41 C0 27.47 0 13.94 0 0 Z " fill="#91A6B1" transform="translate(819,492)"/>
<path d="M0 0 C13.53 0 27.06 0 41 0 C41 13.53 41 27.06 41 41 C27.47 41 13.94 41 0 41 C0 27.47 0 13.94 0 0 Z " fill="#331519" transform="translate(1229,410)"/>
<path d="M0 0 C13.53 0 27.06 0 41 0 C41 13.53 41 27.06 41 41 C27.47 41 13.94 41 0 41 C0 27.47 0 13.94 0 0 Z " fill="#8FA4AF" transform="translate(1188,410)"/>
<path d="M0 0 C13.53 0 27.06 0 41 0 C41 13.53 41 27.06 41 41 C27.47 41 13.94 41 0 41 C0 27.47 0 13.94 0 0 Z " fill="#8FA4AF" transform="translate(819,410)"/>
<path d="M0 0 C13.53 0 27.06 0 41 0 C41 13.53 41 27.06 41 41 C27.47 41 13.94 41 0 41 C0 27.47 0 13.94 0 0 Z " fill="#33171C" transform="translate(778,410)"/>
<path d="M0 0 C13.53 0 27.06 0 41 0 C41 13.53 41 27.06 41 41 C27.47 41 13.94 41 0 41 C0 27.47 0 13.94 0 0 Z " fill="#92A6B1" transform="translate(1106,369)"/>
<path d="M0 0 C13.53 0 27.06 0 41 0 C41 13.53 41 27.06 41 41 C27.47 41 13.94 41 0 41 C0 27.47 0 13.94 0 0 Z " fill="#92A6B2" transform="translate(901,369)"/>
<path d="M0 0 C13.53 0 27.06 0 41 0 C41 13.53 41 27.06 41 41 C34.420625 41.020625 27.84125 41.04125 21.0625 41.0625 C18.98332275 41.071604 16.90414551 41.08070801 14.76196289 41.09008789 C13.12386134 41.09300701 11.48575906 41.09555558 9.84765625 41.09765625 C8.55982239 41.1053302 8.55982239 41.1053302 7.24597168 41.11315918 C5.16363948 41.1134691 3.0813964 41.06242176 1 41 C0 40 0 40 -0.11352539 36.21459961 C-0.11327425 34.52717272 -0.10771112 32.8397407 -0.09765625 31.15234375 C-0.09664917 30.36702271 -0.09564209 29.58170166 -0.09460449 28.77258301 C-0.08935638 25.82754057 -0.07539523 22.88251888 -0.0625 19.9375 C-0.041875 13.358125 -0.02125 6.77875 0 0 Z " fill="#5C6375" transform="translate(655,1270)"/>
<path d="M0 0 C13.53 0 27.06 0 41 0 C41 13.2 41 26.4 41 40 C27.47 40 13.94 40 0 40 C0 26.8 0 13.6 0 0 Z " fill="#D6846C" transform="translate(696,1393)"/>
<path d="M0 0 C13.2 0 26.4 0 40 0 C40 13.53 40 27.06 40 41 C26.8 41 13.6 41 0 41 C0 27.47 0 13.94 0 0 Z " fill="#804730" transform="translate(1352,1311)"/>
<path d="M0 0 C13.2 0 26.4 0 40 0 C40 13.53 40 27.06 40 41 C26.8 41 13.6 41 0 41 C0 27.47 0 13.94 0 0 Z " fill="#321619" transform="translate(615,1270)"/>
<path d="M0 0 C13.2 0 26.4 0 40 0 C40 13.53 40 27.06 40 41 C26.8 41 13.6 41 0 41 C0 27.47 0 13.94 0 0 Z " fill="#314D75" transform="translate(1107,1106)"/>
<path d="M0 0 C13.2 0 26.4 0 40 0 C40 13.53 40 27.06 40 41 C26.8 41 13.6 41 0 41 C0 27.47 0 13.94 0 0 Z " fill="#FDBF9A" transform="translate(1311,901)"/>
<path d="M0 0 C13.2 0 26.4 0 40 0 C40 13.53 40 27.06 40 41 C26.8 41 13.6 41 0 41 C0 27.47 0 13.94 0 0 Z " fill="#FDBF99" transform="translate(697,901)"/>
<path d="M0 0 C13.2 0 26.4 0 40 0 C40 13.53 40 27.06 40 41 C26.8 41 13.6 41 0 41 C0 27.47 0 13.94 0 0 Z " fill="#CFDEE5" transform="translate(1598,819)"/>
<path d="M0 0 C13.2 0 26.4 0 40 0 C40 13.53 40 27.06 40 41 C26.8 41 13.6 41 0 41 C0 27.47 0 13.94 0 0 Z " fill="#311519" transform="translate(1557,819)"/>
<path d="M0 0 C13.53 0 27.06 0 41 0 C41 13.2 41 26.4 41 40 C27.47 40 13.94 40 0 40 C0 26.8 0 13.6 0 0 Z " fill="#91A5B0" transform="translate(819,697)"/>
<path d="M0 0 C13.53 0 27.06 0 41 0 C41 13.2 41 26.4 41 40 C27.47 40 13.94 40 0 40 C0 26.8 0 13.6 0 0 Z " fill="#321619" transform="translate(1270,451)"/>
<path d="M0 0 C13.2 0 26.4 0 40 0 C40 13.2 40 26.4 40 40 C26.8 40 13.6 40 0 40 C0 26.8 0 13.6 0 0 Z " fill="#D8866F" transform="translate(1352,1352)"/>
<path d="M0 0 C13.2 0 26.4 0 40 0 C40 13.2 40 26.4 40 40 C26.8 40 13.6 40 0 40 C0 26.8 0 13.6 0 0 Z " fill="#AC815C" transform="translate(1516,1311)"/>
<path d="M0 0 C13.2 0 26.4 0 40 0 C40 13.2 40 26.4 40 40 C26.8 40 13.6 40 0 40 C0 26.8 0 13.6 0 0 Z " fill="#91A6B1" transform="translate(1229,451)"/>
<path d="M0 0 C13.2 0 26.4 0 40 0 C40 13.2 40 26.4 40 40 C26.8 40 13.6 40 0 40 C0 26.8 0 13.6 0 0 Z " fill="#91A6B1" transform="translate(779,451)"/>
<path d="M0 0 C13.2 0 26.4 0 40 0 C40 13.2 40 26.4 40 40 C26.8 40 13.6 40 0 40 C0 26.8 0 13.6 0 0 Z " fill="#311418" transform="translate(738,451)"/>
<path d="M0 0 C13.53 0 27.06 0 41 0 C41 0.33 41 0.66 41 1 C27.8 1 14.6 1 1 1 C1 54.79 1 108.58 1 164 C14.2 164 27.4 164 41 164 C41 123.74 41 83.48 41 42 C41.33 42 41.66 42 42 42 C42 82.26 42 122.52 42 164 C68.73 164 95.46 164 123 164 C123 150.47 123 136.94 123 123 C136.53 123 150.06 123 164 123 C164 123.33 164 123.66 164 124 C150.8 124 137.6 124 124 124 C124 137.53 124 151.06 124 165 C96.94 165 69.88 165 42 165 C42 178.2 42 191.4 42 205 C82.59 205 123.18 205 165 205 C165 232.06 165 259.12 165 287 C178.53 287 192.06 287 206 287 C206 314.06 206 341.12 206 369 C205.67 369 205.34 369 205 369 C205 342.27 205 315.54 205 288 C191.47 288 177.94 288 164 288 C164 260.94 164 233.88 164 206 C123.41 206 82.82 206 41 206 C41 192.47 41 178.94 41 165 C27.47 165 13.94 165 0 165 C0 110.55 0 56.1 0 0 Z " fill="#866E69" transform="translate(573,1310)"/>
<path d="M0 0 C0.33 0 0.66 0 1 0 C1 13.2 1 26.4 1 40 C14.2 40 27.4 40 41 40 C41 26.8 41 13.6 41 0 C41.33 0 41.66 0 42 0 C42 13.2 42 26.4 42 40 C68.73 40 95.46 40 123 40 C123 40.33 123 40.66 123 41 C96.27 41 69.54 41 42 41 C42 68.06 42 95.12 42 123 C14.94 123 -12.12 123 -40 123 C-40 149.73 -40 176.46 -40 204 C-40.33 204 -40.66 204 -41 204 C-41 177.27 -41 150.54 -41 123 C-54.53 123 -68.06 123 -82 123 C-82 122.67 -82 122.34 -82 122 C-68.47 122 -54.94 122 -41 122 C-41 94.94 -41 67.88 -41 40 C-27.47 40 -13.94 40 0 40 C0 26.8 0 13.6 0 0 Z M-40 41 C-40 67.73 -40 94.46 -40 122 C-26.8 122 -13.6 122 0 122 C0 95.27 0 68.54 0 41 C-13.2 41 -26.4 41 -40 41 Z M1 41 C1 67.73 1 94.46 1 122 C14.2 122 27.4 122 41 122 C41 95.27 41 68.54 41 41 C27.8 41 14.6 41 1 41 Z " fill="#78797F" transform="translate(737,451)"/>
<path d="M0 0 C0.33 0 0.66 0 1 0 C1 13.2 1 26.4 1 40 C28.06 40 55.12 40 83 40 C83 67.06 83 94.12 83 122 C96.53 122 110.06 122 124 122 C124 122.33 124 122.66 124 123 C110.47 123 96.94 123 83 123 C83 149.73 83 176.46 83 204 C82.67 204 82.34 204 82 204 C82 177.27 82 150.54 82 123 C54.94 123 27.88 123 0 123 C0 95.94 0 68.88 0 41 C-13.2 41 -26.4 41 -40 41 C-40 40.67 -40 40.34 -40 40 C-26.8 40 -13.6 40 0 40 C0 26.8 0 13.6 0 0 Z M1 41 C1 67.73 1 94.46 1 122 C14.2 122 27.4 122 41 122 C41 95.27 41 68.54 41 41 C27.8 41 14.6 41 1 41 Z M42 41 C42 67.73 42 94.46 42 122 C55.2 122 68.4 122 82 122 C82 95.27 82 68.54 82 41 C68.8 41 55.6 41 42 41 Z " fill="#7C848C" transform="translate(1269,451)"/>
<path d="M0 0 C53.79 0 107.58 0 163 0 C163 13.2 163 26.4 163 40 C109.21 40 55.42 40 0 40 C0 26.8 0 13.6 0 0 Z M1 1 C0.97535072 6.25105442 0.95716432 11.50207545 0.94506836 16.75317383 C0.94002782 18.54094021 0.93319546 20.32870245 0.92456055 22.11645508 C0.9124827 24.68051168 0.90676906 27.24451397 0.90234375 29.80859375 C0.89718246 30.6127623 0.89202118 31.41693085 0.88670349 32.24546814 C0.88650785 34.16401715 0.93798017 36.08245368 1 38 C2.07204691 39.296371 2.07204691 39.296371 4.60620975 39.12304783 C5.77780864 39.12212604 6.94940752 39.12120424 8.1565094 39.12025452 C9.13171827 39.12153615 9.13171827 39.12153615 10.12662834 39.12284368 C12.3208558 39.12450026 14.51500802 39.11897425 16.70922852 39.11352539 C18.27585854 39.11324353 19.8424887 39.11340123 21.40911865 39.1139679 C25.67546377 39.11425592 29.94178102 39.10835843 34.20811963 39.10139394 C38.66177051 39.09516118 43.11542197 39.09455666 47.56907654 39.09336853 C56.00867443 39.09025498 64.44825944 39.08204128 72.88785166 39.07201904 C82.49349444 39.06085863 92.09913782 39.05534764 101.70478547 39.05032361 C121.46986418 39.03985868 141.23493128 39.02225879 161 39 C161.02464928 33.74894558 161.04283568 28.49792455 161.05493164 23.24682617 C161.05997218 21.45905979 161.06680454 19.67129755 161.07543945 17.88354492 C161.0875173 15.31948832 161.09323094 12.75548603 161.09765625 10.19140625 C161.10281754 9.3872377 161.10797882 8.58306915 161.11329651 7.75453186 C161.11349215 5.83598285 161.06201983 3.91754632 161 2 C159.92795309 0.703629 159.92795309 0.703629 157.39379025 0.87695217 C156.22219136 0.87787396 155.05059248 0.87879576 153.8434906 0.87974548 C153.19335135 0.87889106 152.5432121 0.87803663 151.87337166 0.87715632 C149.6791442 0.87549974 147.48499198 0.88102575 145.29077148 0.88647461 C143.72414146 0.88675647 142.1575113 0.88659877 140.59088135 0.8860321 C136.32453623 0.88574408 132.05821898 0.89164157 127.79188037 0.89860606 C123.33822949 0.90483882 118.88457803 0.90544334 114.43092346 0.90663147 C105.99132557 0.90974502 97.55174056 0.91795872 89.11214834 0.92798096 C79.50650556 0.93914137 69.90086218 0.94465236 60.29521453 0.94967639 C40.53013582 0.96014132 20.76506872 0.97774121 1 1 Z " fill="#9C3440" transform="translate(943,1106)"/>
<path d="M0 0 C13.53 0 27.06 0 41 0 C41 27.06 41 54.12 41 82 C27.47 82 13.94 82 0 82 C0 54.94 0 27.88 0 0 Z M2 2 C2 27.74 2 53.48 2 80 C10.34597561 80.84988472 10.34597561 80.84988472 18.62890625 81.1328125 C19.76521484 81.13410156 20.90152344 81.13539063 22.07226562 81.13671875 C23.22404297 81.13285156 24.37582031 81.12898437 25.5625 81.125 C27.34237305 81.13080078 27.34237305 81.13080078 29.15820312 81.13671875 C30.84526367 81.13478516 30.84526367 81.13478516 32.56640625 81.1328125 C33.58677979 81.13168457 34.60715332 81.13055664 35.65844727 81.12939453 C37.95896755 81.26337056 37.95896755 81.26337056 39 80 C39.15954706 78.33111116 39.25160675 76.65571388 39.31640625 74.98046875 C39.35846191 73.90958008 39.40051758 72.83869141 39.44384766 71.73535156 C39.50258057 69.97916504 39.50258057 69.97916504 39.5625 68.1875 C39.6042334 66.97932617 39.6459668 65.77115234 39.68896484 64.52636719 C40.34986639 43.64187837 40.06996067 22.86423309 39 2 C26.79 2 14.58 2 2 2 Z " fill="#431B13" transform="translate(860,819)"/>
<path d="M0 0 C13.53 0 27.06 0 41 0 C41 27.06 41 54.12 41 82 C27.47 82 13.94 82 0 82 C0 54.94 0 27.88 0 0 Z M2 1 C0.31767661 2.68232339 0.87424608 4.75423024 0.86447144 6.99983215 C0.86649567 7.7146727 0.8685199 8.42951324 0.87060547 9.16601562 C0.86885315 9.91558029 0.86710083 10.66514496 0.86529541 11.43742371 C0.8608768 13.92705569 0.8638149 16.41661723 0.8671875 18.90625 C0.86651446 20.62878432 0.86554444 22.35131855 0.86428833 24.07385254 C0.86281135 27.68872988 0.86496593 31.30358255 0.86962891 34.91845703 C0.8753262 39.56266493 0.8720472 44.20681504 0.86605644 48.85102081 C0.86245084 52.40936726 0.86358941 55.9676999 0.86618423 59.52604675 C0.86685351 61.23894762 0.86602507 62.95184972 0.86370468 64.66474915 C0.86117817 67.05452822 0.8650187 69.44421241 0.87060547 71.83398438 C0.86858124 72.54882492 0.86655701 73.26366547 0.86447144 74.00016785 C0.59596134 77.28172318 0.59596134 77.28172318 2 80 C14.21 80 26.42 80 39 80 C39 53.93 39 27.86 39 1 C26.79 1 14.58 1 2 1 Z " fill="#E5B299" transform="translate(1434,1352)"/>
<path d="M0 0 C13.53 0 27.06 0 41 0 C41 13.53 41 27.06 41 41 C27.47 41 13.94 41 0 41 C0 27.47 0 13.94 0 0 Z M2 2 C2 14.21 2 26.42 2 39 C6.37943992 39.87588798 10.28937351 40.13055618 14.70703125 40.09765625 C15.35071655 40.09664917 15.99440186 40.09564209 16.65759277 40.09460449 C19.04258019 40.08940599 21.42754205 40.07544492 23.8125 40.0625 C31.8253125 40.0315625 31.8253125 40.0315625 40 40 C40 27.46 40 14.92 40 2 C27.46 2 14.92 2 2 2 Z " fill="#3A2729" transform="translate(1597,778)"/>
<path d="M0 0 C0.33 0 0.66 0 1 0 C1 26.73 1 53.46 1 81 C14.53 81 28.06 81 42 81 C42 81.33 42 81.66 42 82 C28.47 82 14.94 82 1 82 C1 108.73 1 135.46 1 163 C0.67 163 0.34 163 0 163 C0 136.27 0 109.54 0 82 C-13.2 82 -26.4 82 -40 82 C-40 81.67 -40 81.34 -40 81 C-26.8 81 -13.6 81 0 81 C0 54.27 0 27.54 0 0 Z " fill="#756D71" transform="translate(1351,492)"/>
<path d="M0 0 C13.53 0 27.06 0 41 0 C41 13.53 41 27.06 41 41 C27.47 41 13.94 41 0 41 C0 27.47 0 13.94 0 0 Z M3 1 C1.13009682 5.67475795 0.73227674 8.84553277 0.8046875 13.70703125 C0.80670166 14.35071655 0.80871582 14.99440186 0.81079102 15.65759277 C0.82118826 18.04263522 0.84911053 20.42757541 0.875 22.8125 C0.91625 28.154375 0.9575 33.49625 1 39 C13.54 39 26.08 39 39 39 C39 26.46 39 13.92 39 1 C27.12 1 15.24 1 3 1 Z " fill="#322226" transform="translate(1229,410)"/>
<path d="M0 0 C13.2 0 26.4 0 40 0 C40 13.53 40 27.06 40 41 C26.8 41 13.6 41 0 41 C0 40.67 0 40.34 0 40 C4.58556772 39.10336328 8.9170222 38.88366809 13.5859375 38.90234375 C15.51252197 38.90609009 15.51252197 38.90609009 17.47802734 38.90991211 C19.09402832 38.91901611 20.7100293 38.92812012 22.375 38.9375 C30.109375 38.9684375 30.109375 38.9684375 38 39 C38 26.46 38 13.92 38 1 C25.79 1 13.58 1 1 1 C0.67 1.66 0.34 2.32 0 3 C0 2.01 0 1.02 0 0 Z " fill="#3C4A64" transform="translate(1107,1106)"/>
<path d="M0 0 C4.62 0 9.24 0 14 0 C9.76130354 2.11934823 7.61666041 2.0871068 3 2 C0.96646802 4.03353198 1.74328725 8.17494326 1.68359375 10.97265625 C1.66494263 11.67934448 1.6462915 12.38603271 1.6270752 13.11413574 C1.55858389 15.76345879 1.49855902 18.41299524 1.4375 21.0625 C1.293125 26.981875 1.14875 32.90125 1 39 C19.81 39.495 19.81 39.495 39 40 C39 26.8 39 13.6 39 0 C39.66 0 40.32 0 41 0 C41 13.53 41 27.06 41 41 C27.47 41 13.94 41 0 41 C0 27.47 0 13.94 0 0 Z " fill="#312125" transform="translate(1352,1065)"/>
<path d="M0 0 C0.33 0 0.66 0 1 0 C1 40.59 1 81.18 1 123 C-3.29 122.67 -7.58 122.34 -12 122 C-12 121.67 -12 121.34 -12 121 C-6.555 120.505 -6.555 120.505 -1 120 C-0.505 60.6 -0.505 60.6 0 0 Z " fill="#9DA7AD" transform="translate(1596,983)"/>
<path d="M0 0 C13.53 0 27.06 0 41 0 C41 0.33 41 0.66 41 1 C22.19 1.99 22.19 1.99 3 3 C1.41769192 6.16461615 1.75842187 9.59079367 1.68359375 13.0703125 C1.66281265 13.86654022 1.64203156 14.66276794 1.62062073 15.48312378 C1.55515851 18.03032685 1.49625585 20.57763425 1.4375 23.125 C1.3943116 24.85027127 1.35069721 26.57553193 1.30664062 28.30078125 C1.19948055 32.53374685 1.09820377 36.76681753 1 41 C0.67 41 0.34 41 0 41 C0 27.47 0 13.94 0 0 Z " fill="#6B6668" transform="translate(1106,1147)"/>
<path d="M0 0 C13.53 0 27.06 0 41 0 C41 13.53 41 27.06 41 41 C40.67 41 40.34 41 40 41 C40 27.8 40 14.6 40 1 C30.8734375 1.2165625 30.8734375 1.2165625 21.5625 1.4375 C18.67866577 1.50215454 18.67866577 1.50215454 15.73657227 1.56811523 C14.22150718 1.60622264 12.7064511 1.64469043 11.19140625 1.68359375 C10.39762573 1.70006958 9.60384521 1.71654541 8.78601074 1.73352051 C5.08800797 1.48968991 5.08800797 1.48968991 2 3 C1.76518307 5.18292774 1.58636677 7.37203174 1.4375 9.5625 C1.35371094 10.76003906 1.26992187 11.95757813 1.18359375 13.19140625 C1.12300781 14.11824219 1.06242187 15.04507812 1 16 C0.67 16 0.34 16 0 16 C0 10.72 0 5.44 0 0 Z " fill="#413F50" transform="translate(1311,1270)"/>
<path d="M0 0 C0.66 0 1.32 0 2 0 C2 12.87 2 25.74 2 39 C2.99 39.33 3.98 39.66 5 40 C2.525 40.495 2.525 40.495 0 41 C0 27.47 0 13.94 0 0 Z " fill="#362425" transform="translate(655,1065)"/>
<path d="M0 0 C2.97 0 5.94 0 9 0 C9.66 0.66 10.32 1.32 11 2 C6.545 2.495 6.545 2.495 2 3 C2 14.88 2 26.76 2 39 C2.66 39.33 3.32 39.66 4 40 C2.68 40 1.36 40 0 40 C0 26.8 0 13.6 0 0 Z " fill="#AC866A" transform="translate(1393,1229)"/>
<path d="M0 0 C3.63 0 7.26 0 11 0 C11 0.33 11 0.66 11 1 C8.94921875 1.22786458 6.8984375 1.45572917 4.84765625 1.68359375 C2.98859771 1.81886614 2.98859771 1.81886614 2 3 C1.84379445 4.41327947 1.74943827 5.8335459 1.68359375 7.25390625 C1.64169922 8.10791016 1.59980469 8.96191406 1.55664062 9.84179688 C1.51732422 10.73962891 1.47800781 11.63746094 1.4375 12.5625 C1.39431641 13.46419922 1.35113281 14.36589844 1.30664062 15.29492188 C1.20021858 17.52978485 1.09820012 19.76476308 1 22 C0.67 22 0.34 22 0 22 C0 14.74 0 7.48 0 0 Z " fill="#666A71" transform="translate(1229,1065)"/>
</svg>
