<svg xmlns="http://www.w3.org/2000/svg" width="512" height="512" viewBox="0 0 512 512"><path fill="#8ba0a9" d="M204.122.587h88.934V15.41H322.7v14.823h14.822v14.822h14.822v14.46h14.823V89.16h14.822v118.578h14.822v14.822H381.99v14.823H322.7v14.822h14.822v14.822h14.822v44.467h-14.822v88.572h14.822v14.822c4.743-.014 4.743-.014 9.486-.033l1.777-.002.94-.006c.753 0 1.506.018 2.258.04.362.362.362.362.403 1.73q0 .916-.006 1.831l-.001.86q-.004 1.598-.012 3.194l-.022 7.208h14.822v14.822h14.822v44.829h-44.467v-15.184H322.7v37.236h-59.289v-37.236H248.59v37.236h-74.111v-22.414H189.3v-14.46h-14.822v-29.645h-14.823V296.67h14.823v-29.645h-14.823v-14.822h-14.822v-14.822h-14.822v-44.467h-14.822V89.159h14.822l-.013-6.393-.005-3.998q-.002-3.177-.01-6.353-.005-2.56-.006-5.12l-.004-1.957a897 897 0 0 1-.003-2.733l-.004-.825c.004-1.863.004-1.863.406-2.265a89 89 0 0 1 3.199-.036l.86.001q1.598.004 3.194.012l7.208.023V45.054h14.822V30.232h14.823V15.409h29.644z"/><path fill="#35181c" d="M159.655 296.67h14.823v74.112H189.3v-29.644h44.467v14.822h14.822v14.822h14.822v-44.467h-14.822v-14.822h88.572v88.933h14.822v14.823h15.184v14.46h14.822v14.823h14.822v44.828h-44.467v-15.184H322.7v37.237h-59.289v-37.237h-14.822v37.237h-74.111v-22.415H189.3v-14.46h-14.822v-29.645h-14.823z"/><path fill="#5d6d74" d="M159.655 148.448h14.823v44.467H189.3v-29.644h14.822v-14.823h29.645v44.467h14.822v-44.467h14.822v29.645h14.822v59.289h-14.822v14.822h74.111v14.822h14.822v44.467h-14.822v88.572h14.822v14.822h14.461v.362h-14.822v-14.823H337.16v-88.933h-88.572v14.822h14.822v44.467h-14.822V355.96h-14.822v-14.823H189.3v29.645h-14.822V267.026h-14.823v-14.822h-14.822v-59.289h14.822z"/><path fill="#fcba94" d="M159.655 148.448h14.823v44.467H189.3v-29.644h14.822v-14.823h29.645v44.467h14.822v-44.467h14.822v29.645h14.822v59.289h-14.822v14.822h-44.467v-44.467h-14.822v44.467h-59.289v-59.289h14.822z"/><path fill="#8ba3ac" d="M204.122.587h88.934v29.645H263.41v29.644h14.46v44.105H160.018v-14.46h14.46V59.876h29.645V45.054h14.822V30.232h-14.822z"/><path fill="#844d34" d="M278.233 326.315H322.7v59.29h-14.822v29.282h29.644v15.184h14.823v14.46h44.466v44.829h-44.466v-30.006H322.7v-14.822h-14.822v-29.283H263.41v-29.645h14.822z"/><path fill="#5c6e75" d="M293.056 15.41H322.7v14.822h14.822v14.822h14.823v14.46h14.822V89.16h14.822v.362h-14.822c.014 4.742.014 4.742.032 9.485l.003 1.777.006.94c0 .753-.019 1.506-.041 2.258-.64.64-1.488.406-2.339.409l-.866-.004-.914.001-3.054-.003h-2.18q-2.968 0-5.938-.004-3.099-.004-6.198-.003-5.872-.002-11.746-.008-7.933-.007-15.865-.009-12.506-.005-25.011-.017V59.876h-14.823v44.467H159.655v-.362h118.217V59.876h-14.46V30.232h29.644z"/><path fill="#47565e" d="M278.233 59.876h14.823v44.467l73.75-.362.36-14.46h14.823v118.216h-14.822v-88.933H145.195V89.52h14.46v14.822h118.578z"/><path fill="#8aa1a9" d="M204.122 148.448h29.645v44.467h14.822v-44.467h14.822v29.645h14.822v59.289h-14.822v14.822h-44.467V163.27h-14.822z"/><path fill="#8ba1ac" d="M218.944 281.849h14.823v29.644h14.822v14.822h14.822v44.467H248.59V355.96h-14.822v-14.822H189.3v29.644h-14.822v-74.111h44.466z"/><path fill="#5d6f76" d="M307.878 148.448h59.289v59.29h29.644v14.821h-74.11v-14.822h-14.823z"/><path fill="#35181b" d="M204.122 207.737h14.822v44.467h44.467v14.822H248.59v44.467h-14.822v-29.645h-14.823v14.823h-44.466v-29.645h-14.823v-14.822h44.467z"/><path fill="#34181b" d="M293.056 148.448h14.822v59.29H322.7v14.821h59.29v14.823H322.7v14.822h-59.289v-14.822h14.822v-14.823h14.823z"/><path fill="#341619" d="M145.195 133.988h103.394v58.927h-14.822v-44.467h-29.645v14.823H189.3v29.644h-14.822v-44.467h-14.823v44.467h-14.46z"/><path fill="#8a9ea6" d="M322.7 415.249h14.822v14.822h14.823v14.46h44.466v44.829h-44.466v-30.006H322.7v-14.822h-14.822v-14.46H322.7z"/><path fill="#47565d" d="M367.167 133.626v14.822h-74.111v74.111h-14.823v-44.466h-14.822v-29.645H248.59v-14.46l50.488-.155 1.07-.003 63.518-.195 1.25-.003 1.087-.004z"/><path fill="#3a4359" d="M174.478 415.249h15.183v29.283h14.461v14.822h29.645v37.236H189.3v-7.23h-14.46v21.691h73.749v.362h-74.111v-22.414H189.3v-14.461h-14.822v-29.645h-14.823v-.361h14.823z"/><path fill="#8ba2aa" d="M159.655 119.165h148.223v14.461H159.655z"/><path fill="#8aa0ab" d="M263.411 252.204h44.467v23.137h7.23v14.1h-7.23v7.23H263.41z"/><path fill="#34171a" d="M367.167 89.52h14.822v118.217h-14.822z"/><path fill="#5a6271" d="M278.233 326.315H322.7v44.467h-15.184v-14.46h-29.283z"/><path fill="#5d6e75" d="M263.411 148.448h29.645v74.111h-14.823v-44.466h-14.822z"/><path fill="#34171a" d="M115.189 89.52h14.822v103.395h-14.822z"/><path fill="#341619" d="M204.122.587h88.934V15.41H263.41v14.46h-14.82V15.41h-44.467z"/><path fill="#5d6f76" d="M174.478 15.41h29.644v14.822h14.822v14.822h-14.822v14.822h-29.644V45.054H189.3V30.232h-14.822z"/><path fill="#766454" d="M204.122 415.249h14.822v14.46h59.29v7.592h14.822v7.23q-10.19.095-20.381.182l-.763.006c-13.641.117-27.282.21-40.925.197l-.958-.001q-5.542-.007-11.085-.022v-14.822h-14.822z"/><path fill="#33161a" d="M293.056 148.448h14.822v59.29H322.7v14.821h-14.822l-.362-14.46-13.737.361.361 2.53-.361.362a61 61 0 0 0-.115 2.487l-.022.753q-.035 1.192-.067 2.387l-.047 1.614q-.058 1.983-.11 3.966h-.362z"/><path fill="#5d6f76" d="M204.122 15.41h44.467v14.46h14.822V15.41h29.645v14.822h-88.934z"/><path fill="#ccdee2" d="M174.478 296.67H189.3v74.112h-14.822z"/><path fill="#d7826a" d="M204.122 148.448h29.645v59.29h-14.823V163.27h-14.822z"/><path fill="#8ba3ab" d="M293.056 59.876h14.822V74.7H322.7v29.282h-29.644z"/><path fill="#34171b" d="M381.99 444.893h14.46V489h-44.105v-14.823h29.644z"/><path fill="#5c6c73" d="M307.878 118.804h59.289v14.822c-.362.362-.362.362-.99.407h-.838l-.965.002-1.074-.003-1.135.001q-1.908.001-3.816-.002h-2.744q-2.994.002-5.99 0-4.454-.004-8.908-.002l-14.981-.003q-7.42-.004-14.841-.004h-5.611q-16.59-.002-33.178-.007l-32.239-.008h-1.003l-30.292-.004h-.943l-28.645-.006h-.822l-32.957-.01v58.928h-.362v-59.289h163.045z"/><path fill="#8aa0a9" d="M233.767 222.56h14.822v14.822h14.822v14.822h-44.467v-14.822h14.823z"/><path fill="#34181b" d="M322.7 222.56h59.29v14.822H322.7z"/><path fill="#5a2d1e" d="M174.478 148.448h29.644v14.823H189.3v29.644h-14.822z"/><path fill="#c8dadf" d="M204.122 45.054h29.645v14.822h-14.823v14.822H189.3V59.876h14.822z"/><path fill="#8da1a8" d="M144.833 45.054h14.822v14.822h-14.46v14.461h14.46v14.822h-29.283V59.515h14.461z"/><path fill="#c9dbe0" d="M159.655 119.165h59.29v14.461h-59.29z"/><path fill="#713f2c" d="M204.122 474.538h29.645v22.052H189.3v-7.23h-14.46v21.691h73.749v.362h-74.111v-22.414h29.644z"/><path fill="#6a3926" d="M278.233 400.427h29.645v14.46h29.644v.362H322.7v14.822h-14.822V415.25H263.41v-.362h14.822z"/><path fill="#76402b" d="M278.233 474.176h29.645v22.414h-29.645z"/><path fill="#661a25" d="M204.122 355.96h15.184v14.822h29.283v14.822h-29.645v-14.822h-14.822z"/><path fill="#3a455a" d="M263.411 459.354h44.467v14.822H263.41z"/><path fill="#3f475b" d="M278.233 326.315H322.7v14.823h-44.467z"/><path fill="#5e6e76" d="M248.589 326.315h14.822v44.467H248.59z"/><path fill="#35191c" d="M337.522 267.026h14.823v44.467h-14.823z"/><path fill="#8aa0a8" d="M352.345 207.737h44.466v14.823h-44.466z"/><path fill="#c8dade" d="M248.589 148.448h14.822v44.467H248.59zM159.655 30.232H189.3v14.822h-14.822v14.822h-14.823z"/><path fill="#5c2f20" d="m297.42 208.064.872.001q1.38.004 2.762.011l1.871.005q2.295.006 4.591.018c.27 1.92.405 3.761.397 5.705l-.003 1.402-.01 1.75-.022 5.604H322.7v29.644h-.361v-14.822h-29.283c-.05-14.799-.05-14.799.158-21.285l.043-1.415c.113-3.189.113-3.189.522-4.414q.023-.903 0-1.808c1.147-.573 2.381-.405 3.64-.396"/><path fill="#5b6d75" d="M145.195 59.876h29.283V89.16h-14.823V74.337h-14.46z"/><path fill="#331619" d="M130.372 192.915h14.461v44.467h-14.46z"/><path fill="#8aa0a8" d="M352.345 148.448h14.46v44.467h-14.46z"/><path fill="#c2d0d4" d="M337.522 430.071h14.823v14.46h44.466v44.83h-44.466v-.362h44.105v-44.106h-14.46v14.461h-15.185v-7.23h-14.822v-7.23h-14.46z"/><path fill="#ae9c88" d="M174.478 415.249H189.3v29.644h-14.46v29.283h14.46v.362h-14.822v-29.645h-14.823v-.361h14.823z"/><path fill="#8da2ab" d="M174.478 296.67h.361v44.468h14.46v29.644h-14.821z"/><path fill="#8c9ca4" d="M366.805 415.249h.362v14.46h14.822v14.823h-29.644v-14.46h-14.823v-.362h29.283z"/><path fill="#904038" d="M174.478 385.604h29.644v14.823h-29.644z"/><path fill="#5d6d74" d="M218.944 281.849h14.823v29.644h-14.823z"/><path fill="#80252d" d="M189.3 267.026h29.644v14.823H189.3z"/><path fill="#8aa1a9" d="M322.7 163.27h14.822v29.645H322.7z"/><path fill="#f2f6f5" d="M189.3 163.27h14.822v29.645H189.3z"/><path fill="#36181b" d="M293.056 15.41H322.7v14.822h-29.644z"/><path fill="#35181b" d="M174.478 15.41h29.644v14.822h-29.644z"/><path fill="#46555d" d="M263.411 30.232h14.822a910 910 0 0 1-.361 29.283h-14.46z"/><path fill="#331618" d="M174.84 163.27h14.46v29.645h-14.46z"/><path fill="#8fa5af" d="M263.411 15.41h29.645v14.46H263.41z"/><path fill="#34171b" d="M174.84 444.893h14.46v29.283h-14.46z"/><path fill="#ae9c89" d="M219.306 430.071h29.283v14.46h-29.283z"/><path fill="#c9dbdf" d="M219.306 208.099h14.46v29.283h-14.46z"/><path fill="#c9dbe0" d="M130.372 89.52h14.461v29.284h-14.46z"/><path fill="#35171a" d="M352.345 59.876h14.46V89.16h-14.46z"/><path fill="#8ba3ab" d="M337.522 59.876h14.461V89.16h-14.46z"/><path fill="#34161a" d="M130.372 59.876h14.461V89.16h-14.46z"/><path fill="#ccdde1" d="M130.372 133.626h7.23v44.467h-7.23z"/><path fill="#475259" d="M204.122.587h.362v14.461h88.572v.361H263.41V29.87h-14.82V15.41h-44.467z"/><path fill="#5c6d74" d="M366.805 148.448h.362v59.29h-14.822v-14.823h14.46z"/><path fill="#d4826a" d="M159.655 148.448h14.823v14.823h-14.461v29.644h-.362z"/><path fill="#611921" d="M218.944 267.026h14.823c.621 1.554.813 2.174.806 3.743l-.002 1.114-.014 1.154v1.128c-.04 6.933-.04 6.933-.79 7.684a93 93 0 0 1-3.278.035l-.882-.001q-1.637-.004-3.274-.012l-7.389-.022z"/><path fill="#5e7077" d="M307.878 415.249H322.7v14.822h-14.822z"/><path fill="#bc8b4a" d="M233.767 400.427h14.822v14.822h-14.822z"/><path fill="#673524" d="M204.122 385.604h14.822v14.823h-14.822z"/><path fill="#973936" d="M233.767 370.782h14.822v14.822h-14.822z"/><path fill="#c38e4b" d="M204.122 355.96h14.822v14.822h-14.822z"/><path fill="#74858c" d="M174.478 355.96H189.3v14.822h-14.822z"/><path fill="#5d6e75" d="M233.767 311.493h14.822v14.822h-14.822z"/><path fill="#ccdee3" d="M278.233 267.026h14.823v14.823h-14.823z"/><path fill="#35181a" d="M144.833 237.382h14.822v14.822h-14.822z"/><path fill="#5d6d74" d="M248.589 237.382h14.822v14.822H248.59z"/><path fill="#d38169" d="M189.3 237.382h14.822v14.822H189.3z"/><path fill="#5c6b73" d="M263.411 222.56h14.822v14.822h-14.822z"/><path fill="#48575f" d="M233.767 222.56h14.822v14.822h-14.822z"/><path fill="#351719" d="M218.944 192.915h14.823v14.822h-14.823z"/><path fill="#8aa1a9" d="M337.522 192.915h14.823v14.822h-14.823z"/><path fill="#46555d" d="M263.411 163.27h14.822v14.823h-14.822z"/><path fill="#89a0a8" d="M263.411 148.448h14.822v14.823h-14.822z"/><path fill="#5b6d74" d="M174.478 45.054H189.3v14.822h-14.822z"/><path fill="#8ba3ab" d="M189.3 45.054h14.822v14.822H189.3z"/><path fill="#341619" d="M322.7 30.232h14.822v14.822H322.7z"/><path fill="#8da4ad" d="M307.878 30.232H322.7v14.822h-14.822z"/><path fill="#c9dbdf" d="M174.478 30.232H189.3v14.822h-14.822z"/><path fill="#35191b" d="M159.655 30.232h14.823v14.822h-14.823z"/><path fill="#c9d9de" d="M204.122 15.41h14.822v14.822h-14.822z"/><path fill="#34191d" d="M366.805 430.071h15.184v14.46h-15.184z"/><path fill="#34171a" d="M189.661 474.176h14.461V489h-14.46z"/><path fill="#ae9c88" d="M204.122 415.249h14.822v14.46h-14.822z"/><path fill="#ae7b56" d="M174.478 385.604H189.3v14.461h-14.822z"/><path fill="#a7674b" d="M278.233 385.604h14.823v14.461h-14.823z"/><path fill="#35191c" d="M322.7 252.204h14.46v14.822H322.7z"/><path fill="#cadbe0" d="M233.767 193.277h14.822v14.46h-14.822z"/><path fill="#8da4ad" d="M278.233 45.054h14.823v14.46h-14.823z"/><path fill="#c9dbdf" d="M337.522 430.071h14.461v14.46h-14.46z"/><path fill="#c9dadf" d="M322.7 415.249h14.46v14.46H322.7z"/><path fill="#321619" d="M381.99 208.099h14.46v14.46h-14.46z"/><path fill="#8ba1aa" d="M352.345 119.165h14.46v14.461h-14.46z"/><path fill="#8ca3ab" d="M352.345 89.52h14.46v14.462h-14.46z"/><path fill="#cadbe0" d="M145.195 59.876h14.46v14.461h-14.46z"/><path fill="#331618" d="M337.522 45.054h14.461v14.46h-14.46z"/><path fill="#8ea5ad" d="M322.7 45.054h14.46v14.46H322.7z"/><path fill="#331618" d="M145.195 45.054h14.46v14.46h-14.46z"/><path fill="#7f858a" d="M130.01 59.876h.362V89.16h14.461V74.7h.362v14.46h29.283v.362h-14.461v14.46h-.362v-14.46h-14.46v29.283h162.683v.361H144.833V89.521h-14.46v147.86h-.362V89.522h-14.822v-.362h14.822z"/><path fill="#935740" d="M278.233 488.999h14.823v7.591h-14.823z"/><path fill="#8b5038" d="M189.3 489.36h14.822v7.23H189.3z"/><path fill="#5c4031" d="M278.233 437.301h14.823v7.23h-14.823z"/><path fill="#8095a0" d="M307.878 275.341h7.23v14.1h-7.23z"/><path fill="#61747b" d="M277.872 45.054h.361v14.46h29.645v.362h-29.645v44.467H159.655v-.362h118.217V59.876h-14.46v-.361h14.46z"/><path fill="#69595a" d="M322.339 341.138h.361v29.644h-15.184v-14.46h-29.283v-6.508h.362v5.423l2.643-.012q4.317-.018 8.632-.026 2.618-.005 5.235-.017 2.524-.011 5.05-.014.964-.002 1.929-.008 1.348-.007 2.695-.005l.812-.008c1.843.007 1.843.007 2.648.813.064 1.09.084 2.145.071 3.234l-.003.97a613 613 0 0 1-.022 3.071l-.01 2.08q-.013 2.553-.036 5.106h14.1z"/><path fill="#31262a" d="M293.056 148.448h14.822v59.29H322.7v14.821h-.361V208.1h-14.461v2.892h-.362V208.1l-13.737.361.361 2.53-.361.362a61 61 0 0 0-.115 2.487l-.022.753q-.035 1.192-.067 2.387l-.047 1.614q-.058 1.983-.11 3.966h-.362v-14.822h14.46V148.81h-14.46z"/><path fill="#837d81" d="M352.345 59.515h14.822v29.644h14.822v.362h-14.822v14.46h-.362v-14.46h-29.283v-.362h14.461l-.013-6.393-.005-3.998q-.002-3.177-.01-6.353-.005-2.56-.006-5.12 0-.979-.004-1.957a897 897 0 0 1-.003-2.733l-.004-.825c.004-1.862.004-1.862.407-2.265m0 .361V89.16h14.46V59.876z"/><path fill="#847470" d="M174.478 415.249h.361v29.283h14.46v.361h-14.46v29.283h14.46v.362h-14.821v-29.645h-14.823v-.361h14.823z"/><path fill="#6d8289" d="M277.872 45.054h.361v14.46h29.645v.362h-29.645v44.105h-.361V59.876h-14.46v-.361h14.46z"/><path fill="#88878b" d="M367.167 207.737h29.644v14.823h-.361v-14.461h-14.46v14.46h-2.531v-.361h1.807V208.46h-14.1z"/><path fill="#b78a5a" d="M204.122 355.96h14.822v14.822h-14.822zm.723 1.084v13.015q2.848.013 5.695.02l1.94.007q1.39.007 2.78.008l.88.006c.695 0 1.388-.019 2.081-.041.509-.426.509-.426.403-1.63q0-.847-.006-1.693l-.001-.898q-.004-1.425-.012-2.851l-.005-1.928q-.006-2.37-.017-4.738a903 903 0 0 0-4.998-.04q-.85-.005-1.699-.014a355 355 0 0 0-2.447-.016l-.763-.012c-1.548 0-2.332.206-3.83.805"/><path fill="#b08559" d="M233.767 400.427h14.822v14.822h-14.822zm.723.723c-.09.95-.155 1.893-.204 2.847q-.022.374-.047.76c-.177 3.253-.124 6.513-.11 9.769q2.924.013 5.849.02.995.002 1.991.007 1.428.006 2.856.008l.905.006c.712 0 1.424-.019 2.136-.041.508-.426.508-.426.402-1.63q0-.847-.005-1.693l-.002-.898q-.003-1.425-.011-2.851l-.005-1.929q-.006-2.369-.018-4.737-2.847-.013-5.695-.02l-1.939-.007a932 932 0 0 0-2.78-.008l-.881-.006c-1.33-.128-1.33-.128-2.442.403"/><path fill="#402c2a" d="M293.056 207.737H322.7v14.823h-.361v-14.461h-14.461v2.892h-.362v-2.892l-13.737.361.361 2.531-.361.361a61 61 0 0 0-.115 2.487l-.022.753q-.035 1.192-.067 2.387l-.047 1.614q-.058 1.983-.11 3.967h-.362z"/><path fill="#504046" d="m233.405 473.092.362 1.446c-1.285.428-2.432.396-3.767.375l-.825-.009q-1.353-.016-2.707-.036l-1.887-.023q-1.983-.024-3.964-.053-2.527-.036-5.053-.064l-3.904-.05q-.93-.013-1.861-.024c-3.234-.039-6.438-.102-9.654-.478v-.361l1.247-.011q5.802-.054 11.603-.112 2.982-.03 5.966-.057 2.876-.026 5.752-.056 1.1-.012 2.2-.02l3.07-.031.928-.007c1.358.113 1.358.113 2.494-.43"/><path fill="#35282c" d="M322.7 30.232h.362c.349 4.704.404 9.383.361 14.099l.638-.006q1.49-.01 2.977-.017l1.003-.009c3.07-.01 6.034.2 9.12.393v-14.46h.361v14.822H322.7z"/><path fill="#702a2f" d="M189.3 267.026h29.644v.362c-6.109.405-12.204.393-18.324.361q-2.895-.014-5.789-.022l-1.34-.01-1.222-.003-1.08-.006c-.795-.05-.795-.05-1.166.403a72 72 0 0 0-.035 2.882l.001.874q.004 1.388.011 2.774l.005 1.876q.007 2.304.018 4.609l7.953.361v.362H189.3z"/><path fill="#a9bcc2" d="M351.983 430.071h.362v14.46h14.46v.362h-14.46v7.23h-.362v-7.23h-14.46v-.361h14.46z"/><path fill="#7c4e3e" d="M263.411 385.604h14.822v.362l-13.737.361a21 21 0 0 0-.565 3.525l-.092 1.08-.066.818h-.362z"/><path fill="#d6dbde" d="M174.84 296.67h8.314v.362l-.658.028q-1.467.063-2.935.13l-1.035.044-.985.045-.913.04c-.706 0-.706 0-1.066.436-.057.696-.09 1.394-.114 2.092l-.046 1.281-.043 1.35-.048 1.353q-.057 1.662-.11 3.324h-.362z"/></svg>