<?xml version="1.0" encoding="UTF-8"?>
<svg version="1.1" xmlns="http://www.w3.org/2000/svg" width="2048" height="2048">
<path d="M0 0 C81.18 0 162.36 0 246 0 C246 13.53 246 27.06 246 41 C273.06 41 300.12 41 328 41 C328 54.53 328 68.06 328 82 C341.53 82 355.06 82 369 82 C369 95.53 369 109.06 369 123 C382.53 123 396.06 123 410 123 C410 136.2 410 149.4 410 163 C423.53 163 437.06 163 451 163 C451 190.06 451 217.12 451 245 C464.53 245 478.06 245 492 245 C492 353.24 492 461.48 492 573 C505.53 573 519.06 573 533 573 C533 586.53 533 600.06 533 614 C519.47 614 505.94 614 492 614 C492 627.53 492 641.06 492 655 C437.88 655 383.76 655 328 655 C328 668.53 328 682.06 328 696 C341.53 696 355.06 696 369 696 C369 709.53 369 723.06 369 737 C382.53 737 396.06 737 410 737 C410 777.59 410 818.18 410 860 C396.47 860 382.94 860 369 860 C369 940.85 369 1021.7 369 1105 C382.53 1105 396.06 1105 410 1105 C410 1118.53 410 1132.06 410 1146 C423.11903899 1145.96039538 423.11903899 1145.96039538 436.23803711 1145.90991211 C437.87613866 1145.90699299 439.51424094 1145.90444442 441.15234375 1145.90234375 C442.01089966 1145.89722778 442.86945557 1145.89211182 443.75402832 1145.88684082 C445.83636052 1145.8865309 447.9186036 1145.93757824 450 1146 C451 1147 451 1147 451.11352539 1150.78540039 C451.11327425 1152.47282728 451.10771112 1154.1602593 451.09765625 1155.84765625 C451.09664917 1156.63297729 451.09564209 1157.41829834 451.09460449 1158.22741699 C451.08935638 1161.17245943 451.07539523 1164.11748112 451.0625 1167.0625 C451.041875 1173.641875 451.02125 1180.22125 451 1187 C464.53 1187 478.06 1187 492 1187 C492 1200.53 492 1214.06 492 1228 C505.53 1228 519.06 1228 533 1228 C533 1268.92 533 1309.84 533 1352 C492.41 1352 451.82 1352 410 1352 C410 1338.14 410 1324.28 410 1310 C382.94 1310 355.88 1310 328 1310 C328 1343.99 328 1377.98 328 1413 C273.88 1413 219.76 1413 164 1413 C164 1379.01 164 1345.02 164 1310 C150.47 1310 136.94 1310 123 1310 C123 1343.99 123 1377.98 123 1413 C55.35 1413 -12.3 1413 -82 1413 C-82 1392.54 -82 1372.08 -82 1351 C-68.47 1351 -54.94 1351 -41 1351 C-41 1337.8 -41 1324.6 -41 1311 C-54.53 1311 -68.06 1311 -82 1311 C-82 1283.94 -82 1256.88 -82 1229 C-95.53 1229 -109.06 1229 -123 1229 C-123 1093.7 -123 958.4 -123 819 C-109.47 819 -95.94 819 -82 819 C-82 791.94 -82 764.88 -82 737 C-95.53 737 -109.06 737 -123 737 C-123 723.47 -123 709.94 -123 696 C-136.53 696 -150.06 696 -164 696 C-164 682.47 -164 668.94 -164 655 C-177.53 655 -191.06 655 -205 655 C-205 614.41 -205 573.82 -205 532 C-218.53 532 -232.06 532 -246 532 C-246 437.29 -246 342.58 -246 245 C-232.47 245 -218.94 245 -205 245 C-205.01160156 239.16441406 -205.02320313 233.32882812 -205.03515625 227.31640625 C-205.04026301 223.62955619 -205.04507678 219.94271046 -205.04882812 216.25585938 C-205.05481657 210.39802144 -205.06191689 204.54019907 -205.07543945 198.68237305 C-205.08626834 193.96212022 -205.09227684 189.24188408 -205.09487724 184.5216198 C-205.09673149 182.71661046 -205.10035209 180.91160208 -205.10573006 179.10659981 C-205.11294052 176.58740356 -205.11399094 174.0682771 -205.11352539 171.54907227 C-205.11712067 170.79525772 -205.12071594 170.04144318 -205.12442017 169.26478577 C-205.11405216 164.11405216 -205.11405216 164.11405216 -204 163 C-201.04316769 162.91132364 -198.10914786 162.88472473 -195.15234375 162.90234375 C-193.97436218 162.90385437 -193.97436218 162.90385437 -192.77258301 162.90539551 C-189.82754057 162.91064362 -186.88251888 162.92460477 -183.9375 162.9375 C-177.358125 162.958125 -170.77875 162.97875 -164 163 C-164 149.8 -164 136.6 -164 123 C-150.47 123 -136.94 123 -123 123 C-123 109.47 -123 95.94 -123 82 C-109.47 82 -95.94 82 -82 82 C-82 68.47 -82 54.94 -82 41 C-54.94 41 -27.88 41 0 41 C0 27.47 0 13.94 0 0 Z " fill="#8BA0A9" transform="translate(901,328)"/>
<path d="M0 0 C13.53 0 27.06 0 41 0 C41 67.65 41 135.3 41 205 C54.53 205 68.06 205 82 205 C82 177.94 82 150.88 82 123 C122.59 123 163.18 123 205 123 C205 136.53 205 150.06 205 164 C218.53 164 232.06 164 246 164 C246 177.53 246 191.06 246 205 C259.53 205 273.06 205 287 205 C287 164.41 287 123.82 287 82 C273.47 82 259.94 82 246 82 C246 68.47 246 54.94 246 41 C326.85 41 407.7 41 491 41 C491 122.18 491 203.36 491 287 C504.53 287 518.06 287 532 287 C532 300.53 532 314.06 532 328 C545.86 328 559.72 328 574 328 C574 341.2 574 354.4 574 368 C587.53 368 601.06 368 615 368 C615 381.53 615 395.06 615 409 C628.53 409 642.06 409 656 409 C656 449.92 656 490.84 656 533 C615.41 533 574.82 533 533 533 C533 519.14 533 505.28 533 491 C505.94 491 478.88 491 451 491 C451 524.99 451 558.98 451 594 C396.88 594 342.76 594 287 594 C287 560.01 287 526.02 287 491 C273.47 491 259.94 491 246 491 C246 524.99 246 558.98 246 594 C178.35 594 110.7 594 41 594 C41 573.54 41 553.08 41 532 C54.53 532 68.06 532 82 532 C82 518.8 82 505.6 82 492 C68.47 492 54.94 492 41 492 C41 464.94 41 437.88 41 410 C27.47 410 13.94 410 0 410 C0 274.7 0 139.4 0 0 Z " fill="#35181C" transform="translate(778,1147)"/>
<path d="M0 0 C13.53 0 27.06 0 41 0 C41 40.59 41 81.18 41 123 C54.53 123 68.06 123 82 123 C82 95.94 82 68.88 82 41 C95.53 41 109.06 41 123 41 C123 27.47 123 13.94 123 0 C150.06 0 177.12 0 205 0 C205 40.59 205 81.18 205 123 C218.53 123 232.06 123 246 123 C246 82.41 246 41.82 246 0 C259.53 0 273.06 0 287 0 C287 27.06 287 54.12 287 82 C300.53 82 314.06 82 328 82 C328 136.12 328 190.24 328 246 C314.47 246 300.94 246 287 246 C287 259.53 287 273.06 287 287 C354.65 287 422.3 287 492 287 C492 300.53 492 314.06 492 328 C505.53 328 519.06 328 533 328 C533 368.59 533 409.18 533 451 C519.47 451 505.94 451 492 451 C492 531.85 492 612.7 492 696 C505.53 696 519.06 696 533 696 C533 709.53 533 723.06 533 737 C546.2 737 559.4 737 573 737 C573 737.33 573 737.66 573 738 C559.47 738 545.94 738 532 738 C532 724.47 532 710.94 532 697 C518.47 697 504.94 697 491 697 C491 615.82 491 534.64 491 451 C410.15 451 329.3 451 246 451 C246 464.53 246 478.06 246 492 C259.53 492 273.06 492 287 492 C287 532.59 287 573.18 287 615 C273.47 615 259.94 615 246 615 C246 601.47 246 587.94 246 574 C232.47 574 218.94 574 205 574 C205 560.47 205 546.94 205 533 C164.41 533 123.82 533 82 533 C82 560.06 82 587.12 82 615 C68.47 615 54.94 615 41 615 C41 520.29 41 425.58 41 328 C27.47 328 13.94 328 0 328 C0 314.47 0 300.94 0 287 C-13.53 287 -27.06 287 -41 287 C-41 232.88 -41 178.76 -41 123 C-27.47 123 -13.94 123 0 123 C0 82.41 0 41.82 0 0 Z " fill="#5D6D74" transform="translate(778,737)"/>
<path d="M0 0 C13.53 0 27.06 0 41 0 C41 40.59 41 81.18 41 123 C54.53 123 68.06 123 82 123 C82 95.94 82 68.88 82 41 C95.53 41 109.06 41 123 41 C123 27.47 123 13.94 123 0 C150.06 0 177.12 0 205 0 C205 40.59 205 81.18 205 123 C218.53 123 232.06 123 246 123 C246 82.41 246 41.82 246 0 C259.53 0 273.06 0 287 0 C287 27.06 287 54.12 287 82 C300.53 82 314.06 82 328 82 C328 136.12 328 190.24 328 246 C314.47 246 300.94 246 287 246 C287 259.53 287 273.06 287 287 C246.41 287 205.82 287 164 287 C164 246.41 164 205.82 164 164 C150.47 164 136.94 164 123 164 C123 204.59 123 245.18 123 287 C68.88 287 14.76 287 -41 287 C-41 232.88 -41 178.76 -41 123 C-27.47 123 -13.94 123 0 123 C0 82.41 0 41.82 0 0 Z " fill="#FCBA94" transform="translate(778,737)"/>
<path d="M0 0 C81.18 0 162.36 0 246 0 C246 27.06 246 54.12 246 82 C218.94 82 191.88 82 164 82 C164 109.06 164 136.12 164 164 C177.2 164 190.4 164 204 164 C204 204.26 204 244.52 204 286 C96.42 286 -11.16 286 -122 286 C-122 272.8 -122 259.6 -122 246 C-108.8 246 -95.6 246 -82 246 C-82 218.94 -82 191.88 -82 164 C-54.94 164 -27.88 164 0 164 C0 150.47 0 136.94 0 123 C13.53 123 27.06 123 41 123 C41 109.47 41 95.94 41 82 C27.47 82 13.94 82 0 82 C0 54.94 0 27.88 0 0 Z " fill="#8BA3AC" transform="translate(901,328)"/>
<path d="M0 0 C40.59 0 81.18 0 123 0 C123 54.12 123 108.24 123 164 C109.47 164 95.94 164 82 164 C82 190.73 82 217.46 82 245 C109.06 245 136.12 245 164 245 C164 258.86 164 272.72 164 287 C177.53 287 191.06 287 205 287 C205 300.2 205 313.4 205 327 C245.59 327 286.18 327 328 327 C328 367.92 328 408.84 328 451 C287.41 451 246.82 451 205 451 C205 423.61 205 396.22 205 368 C177.94 368 150.88 368 123 368 C123 354.47 123 340.94 123 327 C109.47 327 95.94 327 82 327 C82 300.27 82 273.54 82 246 C41.41 246 0.82 246 -41 246 C-41 218.94 -41 191.88 -41 164 C-27.47 164 -13.94 164 0 164 C0 109.88 0 55.76 0 0 Z " fill="#844D34" transform="translate(1106,1229)"/>
<path d="M0 0 C27.06 0 54.12 0 82 0 C82 13.53 82 27.06 82 41 C95.53 41 109.06 41 123 41 C123 54.53 123 68.06 123 82 C136.53 82 150.06 82 164 82 C164 95.2 164 108.4 164 122 C177.53 122 191.06 122 205 122 C205 149.06 205 176.12 205 204 C218.53 204 232.06 204 246 204 C246 204.33 246 204.66 246 205 C232.47 205 218.94 205 205 205 C205.03960462 218.11903899 205.03960462 218.11903899 205.09008789 231.23803711 C205.09300701 232.87613866 205.09555558 234.51424094 205.09765625 236.15234375 C205.10277222 237.01089966 205.10788818 237.86945557 205.11315918 238.75402832 C205.1134691 240.83636052 205.06242176 242.9186036 205 245 C203.23252141 246.76747859 200.88581056 246.12250354 198.53160328 246.12908131 C197.74076267 246.12616847 196.94992206 246.12325563 196.13511658 246.12025452 C195.30121747 246.12110894 194.46731836 246.12196337 193.60814959 246.12284368 C190.79204911 246.12450104 187.97600717 246.11897295 185.15991211 246.11352539 C183.14993796 246.11324355 181.13996371 246.11340119 179.12998962 246.1139679 C173.6550079 246.11425599 168.18004787 246.10835743 162.70507121 246.10139394 C156.99019527 246.09516228 151.27531888 246.09455675 145.56044006 246.09336853 C134.73026574 246.09025466 123.90010146 246.08204052 113.06993157 246.07201904 C98.44093821 246.0587749 83.81194213 246.05335845 69.1829443 246.04751682 C46.12195534 246.03810066 23.06098757 246.01818212 0 246 C0 205.41 0 164.82 0 123 C-13.53 123 -27.06 123 -41 123 C-41 163.59 -41 204.18 -41 246 C-149.24 246 -257.48 246 -369 246 C-369 245.67 -369 245.34 -369 245 C-261.09 245 -153.18 245 -42 245 C-42 204.74 -42 164.48 -42 123 C-55.2 123 -68.4 123 -82 123 C-82 95.94 -82 68.88 -82 41 C-54.94 41 -27.88 41 0 41 C0 27.47 0 13.94 0 0 Z " fill="#5C6E75" transform="translate(1147,369)"/>
<path d="M0 0 C13.53 0 27.06 0 41 0 C41 40.59 41 81.18 41 123 C108.32 122.67 175.64 122.34 245 122 C245.33 108.8 245.66 95.6 246 82 C259.53 82 273.06 82 287 82 C287 189.91 287 297.82 287 409 C273.47 409 259.94 409 246 409 C246 327.82 246 246.64 246 163 C43.38 163 -159.24 163 -368 163 C-368 136.27 -368 109.54 -368 82 C-354.8 82 -341.6 82 -328 82 C-328 95.53 -328 109.06 -328 123 C-219.76 123 -111.52 123 0 123 C0 82.41 0 41.82 0 0 Z " fill="#47565E" transform="translate(1106,492)"/>
<path d="M0 0 C27.06 0 54.12 0 82 0 C82 40.59 82 81.18 82 123 C95.53 123 109.06 123 123 123 C123 82.41 123 41.82 123 0 C136.53 0 150.06 0 164 0 C164 27.06 164 54.12 164 82 C177.53 82 191.06 82 205 82 C205 136.12 205 190.24 205 246 C191.47 246 177.94 246 164 246 C164 259.53 164 273.06 164 287 C123.41 287 82.82 287 41 287 C41 205.82 41 124.64 41 41 C27.47 41 13.94 41 0 41 C0 27.47 0 13.94 0 0 Z " fill="#8AA1A9" transform="translate(901,737)"/>
<path d="M0 0 C13.53 0 27.06 0 41 0 C41 27.06 41 54.12 41 82 C54.53 82 68.06 82 82 82 C82 95.53 82 109.06 82 123 C95.53 123 109.06 123 123 123 C123 163.59 123 204.18 123 246 C109.47 246 95.94 246 82 246 C82 232.47 82 218.94 82 205 C68.47 205 54.94 205 41 205 C41 191.47 41 177.94 41 164 C0.41 164 -40.18 164 -82 164 C-82 191.06 -82 218.12 -82 246 C-95.53 246 -109.06 246 -123 246 C-123 178.35 -123 110.7 -123 41 C-82.41 41 -41.82 41 0 41 C0 27.47 0 13.94 0 0 Z " fill="#8BA1AC" transform="translate(942,1106)"/>
<path d="M0 0 C54.12 0 108.24 0 164 0 C164 54.12 164 108.24 164 164 C191.06 164 218.12 164 246 164 C246 177.53 246 191.06 246 205 C178.35 205 110.7 205 41 205 C41 191.47 41 177.94 41 164 C27.47 164 13.94 164 0 164 C0 109.88 0 55.76 0 0 Z " fill="#5D6F76" transform="translate(1188,737)"/>
<path d="M0 0 C13.53 0 27.06 0 41 0 C41 40.59 41 81.18 41 123 C81.59 123 122.18 123 164 123 C164 136.53 164 150.06 164 164 C150.47 164 136.94 164 123 164 C123 204.59 123 245.18 123 287 C109.47 287 95.94 287 82 287 C82 259.94 82 232.88 82 205 C68.47 205 54.94 205 41 205 C41 218.53 41 232.06 41 246 C0.41 246 -40.18 246 -82 246 C-82 218.94 -82 191.88 -82 164 C-95.53 164 -109.06 164 -123 164 C-123 150.47 -123 136.94 -123 123 C-82.41 123 -41.82 123 0 123 C0 82.41 0 41.82 0 0 Z " fill="#35181B" transform="translate(901,901)"/>
<path d="M0 0 C13.53 0 27.06 0 41 0 C41 54.12 41 108.24 41 164 C54.53 164 68.06 164 82 164 C82 177.53 82 191.06 82 205 C136.12 205 190.24 205 246 205 C246 218.53 246 232.06 246 246 C191.88 246 137.76 246 82 246 C82 259.53 82 273.06 82 287 C27.88 287 -26.24 287 -82 287 C-82 273.47 -82 259.94 -82 246 C-68.47 246 -54.94 246 -41 246 C-41 232.47 -41 218.94 -41 205 C-27.47 205 -13.94 205 0 205 C0 137.35 0 69.7 0 0 Z " fill="#34181B" transform="translate(1147,737)"/>
<path d="M0 0 C94.38 0 188.76 0 286 0 C286 53.79 286 107.58 286 163 C272.47 163 258.94 163 245 163 C245 122.41 245 81.82 245 40 C217.94 40 190.88 40 163 40 C163 53.53 163 67.06 163 81 C149.47 81 135.94 81 122 81 C122 108.06 122 135.12 122 163 C108.47 163 94.94 163 81 163 C81 122.41 81 81.82 81 40 C67.47 40 53.94 40 40 40 C40 80.59 40 121.18 40 163 C26.8 163 13.6 163 0 163 C0 109.21 0 55.42 0 0 Z " fill="#341619" transform="translate(738,697)"/>
<path d="M0 0 C13.53 0 27.06 0 41 0 C41 13.53 41 27.06 41 41 C54.53 41 68.06 41 82 41 C82 54.2 82 67.4 82 81 C122.59 81 163.18 81 205 81 C205 121.92 205 162.84 205 205 C164.41 205 123.82 205 82 205 C82 177.61 82 150.22 82 122 C54.94 122 27.88 122 0 122 C0 108.47 0 94.94 0 81 C-13.53 81 -27.06 81 -41 81 C-41 67.8 -41 54.6 -41 41 C-27.47 41 -13.94 41 0 41 C0 27.47 0 13.94 0 0 Z " fill="#8A9EA6" transform="translate(1229,1475)"/>
<path d="M0 0 C0 13.53 0 27.06 0 41 C-67.65 41 -135.3 41 -205 41 C-205 108.65 -205 176.3 -205 246 C-218.53 246 -232.06 246 -246 246 C-246 205.41 -246 164.82 -246 123 C-259.53 123 -273.06 123 -287 123 C-287 95.94 -287 68.88 -287 41 C-300.53 41 -314.06 41 -328 41 C-328 27.8 -328 14.6 -328 1 C-286.35915437 0.8725889 -244.71830869 0.74519208 -203.07746295 0.61781773 C-198.16679496 0.60279657 -193.25612697 0.58777528 -188.34545898 0.57275391 C-187.36779026 0.56976329 -186.39012154 0.56677268 -185.3828265 0.56369144 C-169.53081243 0.51520101 -153.6787984 0.46669978 -137.82678438 0.41819459 C-121.57381123 0.36846276 -105.32083805 0.31874245 -89.06786484 0.26903296 C-79.03047896 0.23833338 -68.99309312 0.2076247 -58.9557073 0.17690456 C-52.08246478 0.15586936 -45.20922223 0.13484531 -38.33597965 0.11383021 C-34.36430814 0.10168639 -30.39263665 0.08953749 -26.42096519 0.07737541 C-22.79100001 0.06625982 -19.16103478 0.05515809 -15.53106951 0.0440678 C-13.58327626 0.03811317 -11.63548305 0.03214334 -9.68768984 0.02617311 C-8.54662844 0.02268972 -7.40556704 0.01920632 -6.22992802 0.01561737 C-4.74047502 0.01106073 -4.74047502 0.01106073 -3.22093207 0.00641203 C-1 0 -1 0 0 0 Z " fill="#47565D" transform="translate(1352,696)"/>
<path d="M0 0 C13.86 0 27.72 0 42 0 C42 26.73 42 53.46 42 81 C55.2 81 68.4 81 82 81 C82 94.53 82 108.06 82 122 C109.06 122 136.12 122 164 122 C164 155.99 164 189.98 164 225 C123.41 225 82.82 225 41 225 C41 218.4 41 211.8 41 205 C27.8 205 14.6 205 1 205 C1 224.8 1 244.6 1 265 C68.32 265 135.64 265 205 265 C205 265.33 205 265.66 205 266 C137.35 266 69.7 266 0 266 C0 245.54 0 225.08 0 204 C13.53 204 27.06 204 41 204 C41 190.8 41 177.6 41 164 C27.47 164 13.94 164 0 164 C0 136.94 0 109.88 0 82 C-13.53 82 -27.06 82 -41 82 C-41 81.67 -41 81.34 -41 81 C-27.47 81 -13.94 81 0 81 C0 54.27 0 27.54 0 0 Z " fill="#3A4359" transform="translate(819,1475)"/>
<path d="M0 0 C135.3 0 270.6 0 410 0 C410 13.2 410 26.4 410 40 C274.7 40 139.4 40 0 40 C0 26.8 0 13.6 0 0 Z " fill="#8BA2AA" transform="translate(778,656)"/>
<path d="M0 0 C40.59 0 81.18 0 123 0 C123 21.12 123 42.24 123 64 C129.6 64 136.2 64 143 64 C143 76.87 143 89.74 143 103 C136.4 103 129.8 103 123 103 C123 109.6 123 116.2 123 123 C82.41 123 41.82 123 0 123 C0 82.41 0 41.82 0 0 Z " fill="#8AA0AB" transform="translate(1065,1024)"/>
<path d="M0 0 C13.53 0 27.06 0 41 0 C41 107.91 41 215.82 41 327 C27.47 327 13.94 327 0 327 C0 219.09 0 111.18 0 0 Z " fill="#34171A" transform="translate(1352,574)"/>
<path d="M0 0 C40.59 0 81.18 0 123 0 C123 40.59 123 81.18 123 123 C109.14 123 95.28 123 81 123 C81 109.8 81 96.6 81 83 C54.27 83 27.54 83 0 83 C0 55.61 0 28.22 0 0 Z " fill="#5A6271" transform="translate(1106,1229)"/>
<path d="M0 0 C27.06 0 54.12 0 82 0 C82 67.65 82 135.3 82 205 C68.47 205 54.94 205 41 205 C41 164.41 41 123.82 41 82 C27.47 82 13.94 82 0 82 C0 54.94 0 27.88 0 0 Z " fill="#5D6E75" transform="translate(1065,737)"/>
<path d="M0 0 C13.53 0 27.06 0 41 0 C41 94.38 41 188.76 41 286 C27.47 286 13.94 286 0 286 C0 191.62 0 97.24 0 0 Z " fill="#34171A" transform="translate(655,574)"/>
<path d="M0 0 C81.18 0 162.36 0 246 0 C246 13.53 246 27.06 246 41 C218.94 41 191.88 41 164 41 C164 54.2 164 67.4 164 81 C150.47 81 136.94 81 123 81 C123 67.8 123 54.6 123 41 C82.41 41 41.82 41 0 41 C0 27.47 0 13.94 0 0 Z " fill="#341619" transform="translate(901,328)"/>
<path d="M0 0 C27.06 0 54.12 0 82 0 C82 13.53 82 27.06 82 41 C95.53 41 109.06 41 123 41 C123 54.53 123 68.06 123 82 C109.47 82 95.94 82 82 82 C82 95.53 82 109.06 82 123 C54.94 123 27.88 123 0 123 C0 109.47 0 95.94 0 82 C13.53 82 27.06 82 41 82 C41 68.47 41 54.94 41 41 C27.47 41 13.94 41 0 41 C0 27.47 0 13.94 0 0 Z " fill="#5D6F76" transform="translate(819,369)"/>
<path d="M0 0 C13.53 0 27.06 0 41 0 C41 13.2 41 26.4 41 40 C95.12 40 149.24 40 205 40 C205 46.93 205 53.86 205 61 C218.53 61 232.06 61 246 61 C246 67.6 246 74.2 246 81 C227.20838444 81.17267822 208.4167243 81.3396291 189.625 81.5 C188.9289426 81.50594854 188.2328852 81.51189708 187.51573515 81.51802588 C149.78128111 81.84008216 112.04866824 82.09968765 74.3125 82.0625 C72.99962383 82.06121597 72.99962383 82.06121597 71.66022491 82.05990601 C61.44011124 82.04911582 51.22009765 82.02639337 41 82 C41 68.47 41 54.94 41 41 C27.47 41 13.94 41 0 41 C0 27.47 0 13.94 0 0 Z " fill="#766454" transform="translate(901,1475)"/>
<path d="M0 0 C13.53 0 27.06 0 41 0 C41 54.12 41 108.24 41 164 C54.53 164 68.06 164 82 164 C82 177.53 82 191.06 82 205 C68.47 205 54.94 205 41 205 C40.67 191.8 40.34 178.6 40 165 C27.46 165.33 14.92 165.66 2 166 C2.33 168.31 2.66 170.62 3 173 C2.67 173.33 2.34 173.66 2 174 C1.84111908 176.28988781 1.74861927 178.58443441 1.68359375 180.87890625 C1.66281265 181.5655687 1.64203156 182.25223114 1.62062073 182.95970154 C1.55505857 185.16052935 1.49620985 187.36147975 1.4375 189.5625 C1.39432108 191.05144514 1.350707 192.54037773 1.30664062 194.02929688 C1.1993707 197.68606553 1.09812228 201.34297318 1 205 C0.67 205 0.34 205 0 205 C0 137.35 0 69.7 0 0 Z " fill="#33161A" transform="translate(1147,737)"/>
<path d="M0 0 C40.59 0 81.18 0 123 0 C123 13.2 123 26.4 123 40 C136.53 40 150.06 40 164 40 C164 26.8 164 13.6 164 0 C191.06 0 218.12 0 246 0 C246 13.53 246 27.06 246 41 C164.82 41 83.64 41 0 41 C0 27.47 0 13.94 0 0 Z " fill="#5D6F76" transform="translate(901,369)"/>
<path d="M0 0 C13.53 0 27.06 0 41 0 C41 67.65 41 135.3 41 205 C27.47 205 13.94 205 0 205 C0 137.35 0 69.7 0 0 Z " fill="#CCDEE2" transform="translate(819,1147)"/>
<path d="M0 0 C27.06 0 54.12 0 82 0 C82 54.12 82 108.24 82 164 C68.47 164 54.94 164 41 164 C41 123.41 41 82.82 41 41 C27.47 41 13.94 41 0 41 C0 27.47 0 13.94 0 0 Z " fill="#D7826A" transform="translate(901,737)"/>
<path d="M0 0 C13.53 0 27.06 0 41 0 C41 13.53 41 27.06 41 41 C54.53 41 68.06 41 82 41 C82 67.73 82 94.46 82 122 C54.94 122 27.88 122 0 122 C0 81.74 0 41.48 0 0 Z " fill="#8BA3AB" transform="translate(1147,492)"/>
<path d="M0 0 C13.2 0 26.4 0 40 0 C40 40.26 40 80.52 40 122 C-0.26 122 -40.52 122 -82 122 C-82 108.47 -82 94.94 -82 81 C-54.94 81 -27.88 81 0 81 C0 54.27 0 27.54 0 0 Z " fill="#34171B" transform="translate(1393,1557)"/>
<path d="M0 0 C54.12 0 108.24 0 164 0 C164 13.53 164 27.06 164 41 C163 42 163 42 161.26272151 42.12467116 C160.115562 42.12443719 160.115562 42.12443719 158.94522756 42.1241985 C158.06429553 42.12644579 157.18336349 42.12869308 156.27573654 42.13100848 C155.2948998 42.12838146 154.31406306 42.12575445 153.30350399 42.12304783 C151.74931362 42.1247786 151.74931362 42.1247786 150.16372547 42.12654433 C146.64509968 42.12921945 143.12651843 42.12468151 139.6078949 42.12025452 C137.07852911 42.12069004 134.54916336 42.12156459 132.01979786 42.12284368 C126.49641571 42.1246214 120.97304769 42.12326382 115.44966698 42.11920547 C107.23651532 42.11318749 99.02337048 42.11286808 90.81021702 42.11374746 C76.99653237 42.11506355 63.1828525 42.11171169 49.36916924 42.10573006 C35.68529677 42.09981978 22.0014263 42.09596548 8.31755257 42.09487724 C7.46779073 42.0948085 6.61802889 42.09473976 5.7425167 42.09466894 C1.42727813 42.09433062 -2.88796045 42.09402923 -7.20319902 42.09374207 C-37.79456568 42.09163979 -68.38592973 42.08489724 -98.97729492 42.07543945 C-128.7025552 42.06626002 -158.42781476 42.05917396 -188.15307617 42.05493164 C-189.06880092 42.05480011 -189.98452567 42.05466859 -190.92799965 42.05453308 C-200.12380418 42.05321459 -209.31960871 42.05193877 -218.51541325 42.05069422 C-237.24952826 42.04815778 -255.98364323 42.04533652 -274.71775818 42.04234314 C-275.5791856 42.04220585 -276.44061302 42.04206856 -277.3281443 42.04192711 C-303.74013057 42.03770271 -330.1521164 42.03227076 -356.56410217 42.02565002 C-357.31419533 42.02546247 -358.06428849 42.02527491 -358.83711175 42.02508167 C-389.22474137 42.01746507 -419.61237064 42.00857204 -450 42 C-450 95.79 -450 149.58 -450 205 C-450.33 205 -450.66 205 -451 205 C-451 150.88 -451 96.76 -451 41 C-302.17 41 -153.34 41 0 41 C0 27.47 0 13.94 0 0 Z " fill="#5C6C73" transform="translate(1188,655)"/>
<path d="M0 0 C13.53 0 27.06 0 41 0 C41 13.53 41 27.06 41 41 C54.53 41 68.06 41 82 41 C82 54.53 82 68.06 82 82 C41.41 82 0.82 82 -41 82 C-41 68.47 -41 54.94 -41 41 C-27.47 41 -13.94 41 0 41 C0 27.47 0 13.94 0 0 Z " fill="#8AA0A9" transform="translate(983,942)"/>
<path d="M0 0 C54.12 0 108.24 0 164 0 C164 13.53 164 27.06 164 41 C109.88 41 55.76 41 0 41 C0 27.47 0 13.94 0 0 Z " fill="#34181B" transform="translate(1229,942)"/>
<path d="M0 0 C27.06 0 54.12 0 82 0 C82 13.53 82 27.06 82 41 C68.47 41 54.94 41 41 41 C41 68.06 41 95.12 41 123 C27.47 123 13.94 123 0 123 C0 82.41 0 41.82 0 0 Z " fill="#5A2D1E" transform="translate(819,737)"/>
<path d="M0 0 C27.06 0 54.12 0 82 0 C82 13.53 82 27.06 82 41 C68.47 41 54.94 41 41 41 C41 54.53 41 68.06 41 82 C13.94 82 -13.12 82 -41 82 C-41 68.47 -41 54.94 -41 41 C-27.47 41 -13.94 41 0 41 C0 27.47 0 13.94 0 0 Z " fill="#C8DADF" transform="translate(901,451)"/>
<path d="M0 0 C13.53 0 27.06 0 41 0 C41 13.53 41 27.06 41 41 C27.8 41 14.6 41 1 41 C1 54.2 1 67.4 1 81 C14.2 81 27.4 81 41 81 C41 94.53 41 108.06 41 122 C14.27 122 -12.46 122 -40 122 C-40 94.94 -40 67.88 -40 40 C-26.8 40 -13.6 40 0 40 C0 26.8 0 13.6 0 0 Z " fill="#8DA1A8" transform="translate(737,451)"/>
<path d="M0 0 C54.12 0 108.24 0 164 0 C164 13.2 164 26.4 164 40 C109.88 40 55.76 40 0 40 C0 26.8 0 13.6 0 0 Z " fill="#C9DBE0" transform="translate(778,656)"/>
<path d="M0 0 C27.06 0 54.12 0 82 0 C82 20.13 82 40.26 82 61 C41.41 61 0.82 61 -41 61 C-41 54.4 -41 47.8 -41 41 C-54.2 41 -67.4 41 -81 41 C-81 60.8 -81 80.6 -81 101 C-13.68 101 53.64 101 123 101 C123 101.33 123 101.66 123 102 C55.35 102 -12.3 102 -82 102 C-82 81.54 -82 61.08 -82 40 C-54.94 40 -27.88 40 0 40 C0 26.8 0 13.6 0 0 Z " fill="#713F2C" transform="translate(901,1639)"/>
<path d="M0 0 C27.06 0 54.12 0 82 0 C82 13.2 82 26.4 82 40 C109.06 40 136.12 40 164 40 C164 40.33 164 40.66 164 41 C150.47 41 136.94 41 123 41 C123 54.53 123 68.06 123 82 C109.47 82 95.94 82 82 82 C82 68.47 82 54.94 82 41 C41.41 41 0.82 41 -41 41 C-41 40.67 -41 40.34 -41 40 C-27.47 40 -13.94 40 0 40 C0 26.8 0 13.6 0 0 Z " fill="#6A3926" transform="translate(1106,1434)"/>
<path d="M0 0 C27.06 0 54.12 0 82 0 C82 20.46 82 40.92 82 62 C54.94 62 27.88 62 0 62 C0 41.54 0 21.08 0 0 Z " fill="#76402B" transform="translate(1106,1638)"/>
<path d="M0 0 C13.86 0 27.72 0 42 0 C42 13.53 42 27.06 42 41 C68.73 41 95.46 41 123 41 C123 54.53 123 68.06 123 82 C95.94 82 68.88 82 41 82 C41 68.47 41 54.94 41 41 C27.47 41 13.94 41 0 41 C0 27.47 0 13.94 0 0 Z " fill="#661A25" transform="translate(901,1311)"/>
<path d="M0 0 C40.59 0 81.18 0 123 0 C123 13.53 123 27.06 123 41 C82.41 41 41.82 41 0 41 C0 27.47 0 13.94 0 0 Z " fill="#3A455A" transform="translate(1065,1597)"/>
<path d="M0 0 C40.59 0 81.18 0 123 0 C123 13.53 123 27.06 123 41 C82.41 41 41.82 41 0 41 C0 27.47 0 13.94 0 0 Z " fill="#3F475B" transform="translate(1106,1229)"/>
<path d="M0 0 C13.53 0 27.06 0 41 0 C41 40.59 41 81.18 41 123 C27.47 123 13.94 123 0 123 C0 82.41 0 41.82 0 0 Z " fill="#5E6E76" transform="translate(1024,1229)"/>
<path d="M0 0 C13.53 0 27.06 0 41 0 C41 40.59 41 81.18 41 123 C27.47 123 13.94 123 0 123 C0 82.41 0 41.82 0 0 Z " fill="#35191C" transform="translate(1270,1065)"/>
<path d="M0 0 C40.59 0 81.18 0 123 0 C123 13.53 123 27.06 123 41 C82.41 41 41.82 41 0 41 C0 27.47 0 13.94 0 0 Z " fill="#8AA0A8" transform="translate(1311,901)"/>
<path d="M0 0 C13.53 0 27.06 0 41 0 C41 40.59 41 81.18 41 123 C27.47 123 13.94 123 0 123 C0 82.41 0 41.82 0 0 Z " fill="#C8DADE" transform="translate(1024,737)"/>
<path d="M0 0 C27.06 0 54.12 0 82 0 C82 13.53 82 27.06 82 41 C68.47 41 54.94 41 41 41 C41 54.53 41 68.06 41 82 C27.47 82 13.94 82 0 82 C0 54.94 0 27.88 0 0 Z " fill="#C8DADE" transform="translate(778,410)"/>
<path d="M0 0 C0.79622772 0.00141495 1.59245544 0.0028299 2.41281128 0.00428772 C4.9601413 0.0098928 7.50738397 0.02244611 10.0546875 0.03515625 C11.77994665 0.0401706 13.50520717 0.04473362 15.23046875 0.04882812 C19.46357541 0.05986388 23.69661664 0.07713189 27.9296875 0.09765625 C28.67637473 5.40972873 29.04902535 10.50187015 29.02734375 15.87890625 C29.02484619 17.15830078 29.02234863 18.43769531 29.01977539 19.75585938 C29.01067139 21.35365234 29.00156738 22.95144531 28.9921875 24.59765625 C28.9715625 29.71265625 28.9509375 34.82765625 28.9296875 40.09765625 C42.4596875 40.09765625 55.9896875 40.09765625 69.9296875 40.09765625 C69.9296875 67.15765625 69.9296875 94.21765625 69.9296875 122.09765625 C69.5996875 122.09765625 69.2696875 122.09765625 68.9296875 122.09765625 C68.9296875 108.56765625 68.9296875 95.03765625 68.9296875 81.09765625 C42.1996875 81.09765625 15.4696875 81.09765625 -12.0703125 81.09765625 C-12.20814008 40.16286401 -12.20814008 40.16286401 -11.6328125 22.22265625 C-11.59357666 20.93029053 -11.55434082 19.6379248 -11.51391602 18.30639648 C-11.20021979 9.48737813 -11.20021979 9.48737813 -10.0703125 6.09765625 C-10.03156329 4.43144009 -10.0252839 2.76371453 -10.0703125 1.09765625 C-6.89740537 -0.48879732 -3.48205866 -0.02312588 0 0 Z " fill="#5C2F20" transform="translate(1159.0703125,901.90234375)"/>
<path d="M0 0 C26.73 0 53.46 0 81 0 C81 26.73 81 53.46 81 81 C67.47 81 53.94 81 40 81 C40 67.47 40 53.94 40 40 C26.8 40 13.6 40 0 40 C0 26.8 0 13.6 0 0 Z " fill="#5B6D75" transform="translate(738,492)"/>
<path d="M0 0 C13.2 0 26.4 0 40 0 C40 40.59 40 81.18 40 123 C26.8 123 13.6 123 0 123 C0 82.41 0 41.82 0 0 Z " fill="#331619" transform="translate(697,860)"/>
<path d="M0 0 C13.2 0 26.4 0 40 0 C40 40.59 40 81.18 40 123 C26.8 123 13.6 123 0 123 C0 82.41 0 41.82 0 0 Z " fill="#8AA0A8" transform="translate(1311,737)"/>
<path d="M0 0 C13.53 0 27.06 0 41 0 C41 13.2 41 26.4 41 40 C81.59 40 122.18 40 164 40 C164 80.92 164 121.84 164 164 C123.41 164 82.82 164 41 164 C41 163.67 41 163.34 41 163 C81.26 163 121.52 163 163 163 C163 122.74 163 82.48 163 41 C149.8 41 136.6 41 123 41 C123 54.2 123 67.4 123 81 C109.14 81 95.28 81 81 81 C81 74.4 81 67.8 81 61 C67.47 61 53.94 61 40 61 C40 54.4 40 47.8 40 41 C26.8 41 13.6 41 0 41 C0 27.47 0 13.94 0 0 Z " fill="#C2D0D4" transform="translate(1270,1516)"/>
<path d="M0 0 C13.53 0 27.06 0 41 0 C41 27.06 41 54.12 41 82 C27.8 82 14.6 82 1 82 C1 108.73 1 135.46 1 163 C14.2 163 27.4 163 41 163 C41 163.33 41 163.66 41 164 C27.47 164 13.94 164 0 164 C0 136.94 0 109.88 0 82 C-13.53 82 -27.06 82 -41 82 C-41 81.67 -41 81.34 -41 81 C-27.47 81 -13.94 81 0 81 C0 54.27 0 27.54 0 0 Z " fill="#AE9C88" transform="translate(819,1475)"/>
<path d="M0 0 C0.33 0 0.66 0 1 0 C1 40.59 1 81.18 1 123 C14.2 123 27.4 123 41 123 C41 150.06 41 177.12 41 205 C27.47 205 13.94 205 0 205 C0 137.35 0 69.7 0 0 Z " fill="#8DA2AB" transform="translate(819,1147)"/>
<path d="M0 0 C0.33 0 0.66 0 1 0 C1 13.2 1 26.4 1 40 C14.53 40 28.06 40 42 40 C42 53.53 42 67.06 42 81 C14.94 81 -12.12 81 -40 81 C-40 67.8 -40 54.6 -40 41 C-53.53 41 -67.06 41 -81 41 C-81 40.67 -81 40.34 -81 40 C-54.27 40 -27.54 40 0 40 C0 26.8 0 13.6 0 0 Z " fill="#8C9CA4" transform="translate(1351,1475)"/>
<path d="M0 0 C27.06 0 54.12 0 82 0 C82 13.53 82 27.06 82 41 C54.94 41 27.88 41 0 41 C0 27.47 0 13.94 0 0 Z " fill="#904038" transform="translate(819,1393)"/>
<path d="M0 0 C13.53 0 27.06 0 41 0 C41 27.06 41 54.12 41 82 C27.47 82 13.94 82 0 82 C0 54.94 0 27.88 0 0 Z " fill="#5D6D74" transform="translate(942,1106)"/>
<path d="M0 0 C27.06 0 54.12 0 82 0 C82 13.53 82 27.06 82 41 C54.94 41 27.88 41 0 41 C0 27.47 0 13.94 0 0 Z " fill="#80252D" transform="translate(860,1065)"/>
<path d="M0 0 C13.53 0 27.06 0 41 0 C41 27.06 41 54.12 41 82 C27.47 82 13.94 82 0 82 C0 54.94 0 27.88 0 0 Z " fill="#8AA1A9" transform="translate(1229,778)"/>
<path d="M0 0 C13.53 0 27.06 0 41 0 C41 27.06 41 54.12 41 82 C27.47 82 13.94 82 0 82 C0 54.94 0 27.88 0 0 Z " fill="#F2F6F5" transform="translate(860,778)"/>
<path d="M0 0 C27.06 0 54.12 0 82 0 C82 13.53 82 27.06 82 41 C54.94 41 27.88 41 0 41 C0 27.47 0 13.94 0 0 Z " fill="#36181B" transform="translate(1147,369)"/>
<path d="M0 0 C27.06 0 54.12 0 82 0 C82 13.53 82 27.06 82 41 C54.94 41 27.88 41 0 41 C0 27.47 0 13.94 0 0 Z " fill="#35181B" transform="translate(819,369)"/>
<path d="M0 0 C13.53 0 27.06 0 41 0 C41.09389217 27.04094559 40.77504384 53.97034591 40 81 C26.8 81 13.6 81 0 81 C0 54.27 0 27.54 0 0 Z " fill="#46555D" transform="translate(1065,410)"/>
<path d="M0 0 C13.2 0 26.4 0 40 0 C40 27.06 40 54.12 40 82 C26.8 82 13.6 82 0 82 C0 54.94 0 27.88 0 0 Z " fill="#331618" transform="translate(820,778)"/>
<path d="M0 0 C27.06 0 54.12 0 82 0 C82 13.2 82 26.4 82 40 C54.94 40 27.88 40 0 40 C0 26.8 0 13.6 0 0 Z " fill="#8FA5AF" transform="translate(1065,369)"/>
<path d="M0 0 C13.2 0 26.4 0 40 0 C40 26.73 40 53.46 40 81 C26.8 81 13.6 81 0 81 C0 54.27 0 27.54 0 0 Z " fill="#34171B" transform="translate(820,1557)"/>
<path d="M0 0 C26.73 0 53.46 0 81 0 C81 13.2 81 26.4 81 40 C54.27 40 27.54 40 0 40 C0 26.8 0 13.6 0 0 Z " fill="#AE9C89" transform="translate(943,1516)"/>
<path d="M0 0 C13.2 0 26.4 0 40 0 C40 26.73 40 53.46 40 81 C26.8 81 13.6 81 0 81 C0 54.27 0 27.54 0 0 Z " fill="#C9DBDF" transform="translate(943,902)"/>
<path d="M0 0 C13.2 0 26.4 0 40 0 C40 26.73 40 53.46 40 81 C26.8 81 13.6 81 0 81 C0 54.27 0 27.54 0 0 Z " fill="#C9DBE0" transform="translate(697,574)"/>
<path d="M0 0 C13.2 0 26.4 0 40 0 C40 26.73 40 53.46 40 81 C26.8 81 13.6 81 0 81 C0 54.27 0 27.54 0 0 Z " fill="#35171A" transform="translate(1311,492)"/>
<path d="M0 0 C13.2 0 26.4 0 40 0 C40 26.73 40 53.46 40 81 C26.8 81 13.6 81 0 81 C0 54.27 0 27.54 0 0 Z " fill="#8BA3AB" transform="translate(1270,492)"/>
<path d="M0 0 C13.2 0 26.4 0 40 0 C40 26.73 40 53.46 40 81 C26.8 81 13.6 81 0 81 C0 54.27 0 27.54 0 0 Z " fill="#34161A" transform="translate(697,492)"/>
<path d="M0 0 C6.6 0 13.2 0 20 0 C20 40.59 20 81.18 20 123 C13.4 123 6.8 123 0 123 C0 82.41 0 41.82 0 0 Z " fill="#CCDDE1" transform="translate(697,696)"/>
<path d="M0 0 C0.33 0 0.66 0 1 0 C1 13.2 1 26.4 1 40 C81.85 40 162.7 40 246 40 C246 40.33 246 40.66 246 41 C218.94 41 191.88 41 164 41 C164 54.2 164 67.4 164 81 C150.47 81 136.94 81 123 81 C123 67.8 123 54.6 123 41 C82.41 41 41.82 41 0 41 C0 27.47 0 13.94 0 0 Z " fill="#475259" transform="translate(901,328)"/>
<path d="M0 0 C0.33 0 0.66 0 1 0 C1 54.12 1 108.24 1 164 C-12.53 164 -26.06 164 -40 164 C-40 150.47 -40 136.94 -40 123 C-26.8 123 -13.6 123 0 123 C0 82.41 0 41.82 0 0 Z " fill="#5C6D74" transform="translate(1351,737)"/>
<path d="M0 0 C13.53 0 27.06 0 41 0 C41 13.53 41 27.06 41 41 C27.8 41 14.6 41 1 41 C1 68.06 1 95.12 1 123 C0.67 123 0.34 123 0 123 C0 82.41 0 41.82 0 0 Z " fill="#D4826A" transform="translate(778,737)"/>
<path d="M0 0 C13.53 0 27.06 0 41 0 C42.71895979 4.29739948 43.25007119 6.01365875 43.23046875 10.3515625 C43.22853516 11.36863281 43.22660156 12.38570312 43.22460938 13.43359375 C43.20624023 15.01333984 43.20624023 15.01333984 43.1875 16.625 C43.18685547 17.65496094 43.18621094 18.68492188 43.18554688 19.74609375 C43.07699834 38.92300166 43.07699834 38.92300166 41 41 C37.97043757 41.08870641 34.9631329 41.11526582 31.93359375 41.09765625 C31.1286145 41.09664917 30.32363525 41.09564209 29.4942627 41.09460449 C26.47532739 41.08935614 23.45641233 41.075395 20.4375 41.0625 C10.3209375 41.0315625 10.3209375 41.0315625 0 41 C0 27.47 0 13.94 0 0 Z " fill="#611921" transform="translate(942,1065)"/>
<path d="M0 0 C13.53 0 27.06 0 41 0 C41 13.53 41 27.06 41 41 C27.47 41 13.94 41 0 41 C0 27.47 0 13.94 0 0 Z " fill="#5E7077" transform="translate(1188,1475)"/>
<path d="M0 0 C13.53 0 27.06 0 41 0 C41 13.53 41 27.06 41 41 C27.47 41 13.94 41 0 41 C0 27.47 0 13.94 0 0 Z " fill="#BC8B4A" transform="translate(983,1434)"/>
<path d="M0 0 C13.53 0 27.06 0 41 0 C41 13.53 41 27.06 41 41 C27.47 41 13.94 41 0 41 C0 27.47 0 13.94 0 0 Z " fill="#673524" transform="translate(901,1393)"/>
<path d="M0 0 C13.53 0 27.06 0 41 0 C41 13.53 41 27.06 41 41 C27.47 41 13.94 41 0 41 C0 27.47 0 13.94 0 0 Z " fill="#973936" transform="translate(983,1352)"/>
<path d="M0 0 C13.53 0 27.06 0 41 0 C41 13.53 41 27.06 41 41 C27.47 41 13.94 41 0 41 C0 27.47 0 13.94 0 0 Z " fill="#C38E4B" transform="translate(901,1311)"/>
<path d="M0 0 C13.53 0 27.06 0 41 0 C41 13.53 41 27.06 41 41 C27.47 41 13.94 41 0 41 C0 27.47 0 13.94 0 0 Z " fill="#74858C" transform="translate(819,1311)"/>
<path d="M0 0 C13.53 0 27.06 0 41 0 C41 13.53 41 27.06 41 41 C27.47 41 13.94 41 0 41 C0 27.47 0 13.94 0 0 Z " fill="#5D6E75" transform="translate(983,1188)"/>
<path d="M0 0 C13.53 0 27.06 0 41 0 C41 13.53 41 27.06 41 41 C27.47 41 13.94 41 0 41 C0 27.47 0 13.94 0 0 Z " fill="#CCDEE3" transform="translate(1106,1065)"/>
<path d="M0 0 C13.53 0 27.06 0 41 0 C41 13.53 41 27.06 41 41 C27.47 41 13.94 41 0 41 C0 27.47 0 13.94 0 0 Z " fill="#35181A" transform="translate(737,983)"/>
<path d="M0 0 C13.53 0 27.06 0 41 0 C41 13.53 41 27.06 41 41 C27.47 41 13.94 41 0 41 C0 27.47 0 13.94 0 0 Z " fill="#5D6D74" transform="translate(1024,983)"/>
<path d="M0 0 C13.53 0 27.06 0 41 0 C41 13.53 41 27.06 41 41 C27.47 41 13.94 41 0 41 C0 27.47 0 13.94 0 0 Z " fill="#D38169" transform="translate(860,983)"/>
<path d="M0 0 C13.53 0 27.06 0 41 0 C41 13.53 41 27.06 41 41 C27.47 41 13.94 41 0 41 C0 27.47 0 13.94 0 0 Z " fill="#5C6B73" transform="translate(1065,942)"/>
<path d="M0 0 C13.53 0 27.06 0 41 0 C41 13.53 41 27.06 41 41 C27.47 41 13.94 41 0 41 C0 27.47 0 13.94 0 0 Z " fill="#48575F" transform="translate(983,942)"/>
<path d="M0 0 C13.53 0 27.06 0 41 0 C41 13.53 41 27.06 41 41 C27.47 41 13.94 41 0 41 C0 27.47 0 13.94 0 0 Z " fill="#351719" transform="translate(942,860)"/>
<path d="M0 0 C13.53 0 27.06 0 41 0 C41 13.53 41 27.06 41 41 C27.47 41 13.94 41 0 41 C0 27.47 0 13.94 0 0 Z " fill="#8AA1A9" transform="translate(1270,860)"/>
<path d="M0 0 C13.53 0 27.06 0 41 0 C41 13.53 41 27.06 41 41 C27.47 41 13.94 41 0 41 C0 27.47 0 13.94 0 0 Z " fill="#46555D" transform="translate(1065,778)"/>
<path d="M0 0 C13.53 0 27.06 0 41 0 C41 13.53 41 27.06 41 41 C27.47 41 13.94 41 0 41 C0 27.47 0 13.94 0 0 Z " fill="#89A0A8" transform="translate(1065,737)"/>
<path d="M0 0 C13.53 0 27.06 0 41 0 C41 13.53 41 27.06 41 41 C27.47 41 13.94 41 0 41 C0 27.47 0 13.94 0 0 Z " fill="#5B6D74" transform="translate(819,451)"/>
<path d="M0 0 C13.53 0 27.06 0 41 0 C41 13.53 41 27.06 41 41 C27.47 41 13.94 41 0 41 C0 27.47 0 13.94 0 0 Z " fill="#8BA3AB" transform="translate(860,451)"/>
<path d="M0 0 C13.53 0 27.06 0 41 0 C41 13.53 41 27.06 41 41 C27.47 41 13.94 41 0 41 C0 27.47 0 13.94 0 0 Z " fill="#341619" transform="translate(1229,410)"/>
<path d="M0 0 C13.53 0 27.06 0 41 0 C41 13.53 41 27.06 41 41 C27.47 41 13.94 41 0 41 C0 27.47 0 13.94 0 0 Z " fill="#8DA4AD" transform="translate(1188,410)"/>
<path d="M0 0 C13.53 0 27.06 0 41 0 C41 13.53 41 27.06 41 41 C27.47 41 13.94 41 0 41 C0 27.47 0 13.94 0 0 Z " fill="#C9DBDF" transform="translate(819,410)"/>
<path d="M0 0 C13.53 0 27.06 0 41 0 C41 13.53 41 27.06 41 41 C27.47 41 13.94 41 0 41 C0 27.47 0 13.94 0 0 Z " fill="#35191B" transform="translate(778,410)"/>
<path d="M0 0 C13.53 0 27.06 0 41 0 C41 13.53 41 27.06 41 41 C27.47 41 13.94 41 0 41 C0 27.47 0 13.94 0 0 Z " fill="#C9D9DE" transform="translate(901,369)"/>
<path d="M0 0 C13.86 0 27.72 0 42 0 C42 13.2 42 26.4 42 40 C28.14 40 14.28 40 0 40 C0 26.8 0 13.6 0 0 Z " fill="#34191D" transform="translate(1351,1516)"/>
<path d="M0 0 C13.2 0 26.4 0 40 0 C40 13.53 40 27.06 40 41 C26.8 41 13.6 41 0 41 C0 27.47 0 13.94 0 0 Z " fill="#34171A" transform="translate(861,1638)"/>
<path d="M0 0 C13.53 0 27.06 0 41 0 C41 13.2 41 26.4 41 40 C27.47 40 13.94 40 0 40 C0 26.8 0 13.6 0 0 Z " fill="#AE9C88" transform="translate(901,1475)"/>
<path d="M0 0 C13.53 0 27.06 0 41 0 C41 13.2 41 26.4 41 40 C27.47 40 13.94 40 0 40 C0 26.8 0 13.6 0 0 Z " fill="#AE7B56" transform="translate(819,1393)"/>
<path d="M0 0 C13.53 0 27.06 0 41 0 C41 13.2 41 26.4 41 40 C27.47 40 13.94 40 0 40 C0 26.8 0 13.6 0 0 Z " fill="#A7674B" transform="translate(1106,1393)"/>
<path d="M0 0 C13.2 0 26.4 0 40 0 C40 13.53 40 27.06 40 41 C26.8 41 13.6 41 0 41 C0 27.47 0 13.94 0 0 Z " fill="#35191C" transform="translate(1229,1024)"/>
<path d="M0 0 C13.53 0 27.06 0 41 0 C41 13.2 41 26.4 41 40 C27.47 40 13.94 40 0 40 C0 26.8 0 13.6 0 0 Z " fill="#CADBE0" transform="translate(983,861)"/>
<path d="M0 0 C13.53 0 27.06 0 41 0 C41 13.2 41 26.4 41 40 C27.47 40 13.94 40 0 40 C0 26.8 0 13.6 0 0 Z " fill="#8DA4AD" transform="translate(1106,451)"/>
<path d="M0 0 C13.2 0 26.4 0 40 0 C40 13.2 40 26.4 40 40 C26.8 40 13.6 40 0 40 C0 26.8 0 13.6 0 0 Z " fill="#C9DBDF" transform="translate(1270,1516)"/>
<path d="M0 0 C13.2 0 26.4 0 40 0 C40 13.2 40 26.4 40 40 C26.8 40 13.6 40 0 40 C0 26.8 0 13.6 0 0 Z " fill="#C9DADF" transform="translate(1229,1475)"/>
<path d="M0 0 C13.2 0 26.4 0 40 0 C40 13.2 40 26.4 40 40 C26.8 40 13.6 40 0 40 C0 26.8 0 13.6 0 0 Z " fill="#321619" transform="translate(1393,902)"/>
<path d="M0 0 C13.2 0 26.4 0 40 0 C40 13.2 40 26.4 40 40 C26.8 40 13.6 40 0 40 C0 26.8 0 13.6 0 0 Z " fill="#8BA1AA" transform="translate(1311,656)"/>
<path d="M0 0 C13.2 0 26.4 0 40 0 C40 13.2 40 26.4 40 40 C26.8 40 13.6 40 0 40 C0 26.8 0 13.6 0 0 Z " fill="#8CA3AB" transform="translate(1311,574)"/>
<path d="M0 0 C13.2 0 26.4 0 40 0 C40 13.2 40 26.4 40 40 C26.8 40 13.6 40 0 40 C0 26.8 0 13.6 0 0 Z " fill="#CADBE0" transform="translate(738,492)"/>
<path d="M0 0 C13.2 0 26.4 0 40 0 C40 13.2 40 26.4 40 40 C26.8 40 13.6 40 0 40 C0 26.8 0 13.6 0 0 Z " fill="#331618" transform="translate(1270,451)"/>
<path d="M0 0 C13.2 0 26.4 0 40 0 C40 13.2 40 26.4 40 40 C26.8 40 13.6 40 0 40 C0 26.8 0 13.6 0 0 Z " fill="#8EA5AD" transform="translate(1229,451)"/>
<path d="M0 0 C13.2 0 26.4 0 40 0 C40 13.2 40 26.4 40 40 C26.8 40 13.6 40 0 40 C0 26.8 0 13.6 0 0 Z " fill="#331618" transform="translate(738,451)"/>
<path d="M0 0 C0.33 0 0.66 0 1 0 C1 26.73 1 53.46 1 81 C14.2 81 27.4 81 41 81 C41 67.8 41 54.6 41 41 C41.33 41 41.66 41 42 41 C42 54.2 42 67.4 42 81 C68.73 81 95.46 81 123 81 C123 81.33 123 81.66 123 82 C109.8 82 96.6 82 83 82 C83 95.2 83 108.4 83 122 C82.67 122 82.34 122 82 122 C82 108.8 82 95.6 82 82 C68.8 82 55.6 82 42 82 C42 108.73 42 135.46 42 163 C190.5 163 339 163 492 163 C492 163.33 492 163.66 492 164 C343.17 164 194.34 164 41 164 C41 136.94 41 109.88 41 82 C27.8 82 14.6 82 1 82 C1 216.97 1 351.94 1 491 C0.67 491 0.34 491 0 491 C0 356.03 0 221.06 0 82 C-13.53 82 -27.06 82 -41 82 C-41 81.67 -41 81.34 -41 81 C-27.47 81 -13.94 81 0 81 C0 54.27 0 27.54 0 0 Z " fill="#7F858A" transform="translate(696,492)"/>
<path d="M0 0 C13.53 0 27.06 0 41 0 C41 6.93 41 13.86 41 21 C27.47 21 13.94 21 0 21 C0 14.07 0 7.14 0 0 Z " fill="#935740" transform="translate(1106,1679)"/>
<path d="M0 0 C13.53 0 27.06 0 41 0 C41 6.6 41 13.2 41 20 C27.47 20 13.94 20 0 20 C0 13.4 0 6.8 0 0 Z " fill="#8B5038" transform="translate(860,1680)"/>
<path d="M0 0 C13.53 0 27.06 0 41 0 C41 6.6 41 13.2 41 20 C27.47 20 13.94 20 0 20 C0 13.4 0 6.8 0 0 Z " fill="#5C4031" transform="translate(1106,1536)"/>
<path d="M0 0 C6.6 0 13.2 0 20 0 C20 12.87 20 25.74 20 39 C13.4 39 6.8 39 0 39 C0 26.13 0 13.26 0 0 Z " fill="#8095A0" transform="translate(1188,1088)"/>
<path d="M0 0 C0.33 0 0.66 0 1 0 C1 13.2 1 26.4 1 40 C28.06 40 55.12 40 83 40 C83 40.33 83 40.66 83 41 C55.94 41 28.88 41 1 41 C1 81.59 1 122.18 1 164 C-107.24 164 -215.48 164 -327 164 C-327 163.67 -327 163.34 -327 163 C-219.09 163 -111.18 163 0 163 C0 122.74 0 82.48 0 41 C-13.2 41 -26.4 41 -40 41 C-40 40.67 -40 40.34 -40 40 C-26.8 40 -13.6 40 0 40 C0 26.8 0 13.6 0 0 Z " fill="#61747B" transform="translate(1105,451)"/>
<path d="M0 0 C0.33 0 0.66 0 1 0 C1 27.06 1 54.12 1 82 C-12.86 82 -26.72 82 -41 82 C-41 68.8 -41 55.6 -41 42 C-67.73 42 -94.46 42 -122 42 C-122 36.06 -122 30.12 -122 24 C-121.67 24 -121.34 24 -121 24 C-121 28.95 -121 33.9 -121 39 C-117.3805542 38.98428955 -117.3805542 38.98428955 -113.68798828 38.96826172 C-105.72918004 38.93517101 -97.77036882 38.91304997 -89.81151009 38.89637566 C-84.98449195 38.88592374 -80.15754409 38.87173896 -75.33056641 38.84912109 C-70.67514222 38.82744278 -66.01978578 38.81544199 -61.36431503 38.81024551 C-59.58524381 38.80654072 -57.80617644 38.79930652 -56.02713394 38.78853989 C-53.54160706 38.77409146 -51.05636267 38.77201925 -48.57080078 38.77294922 C-47.82993225 38.76575867 -47.08906372 38.75856812 -46.32574463 38.75115967 C-41.22810432 38.77189568 -41.22810432 38.77189568 -39 41 C-38.82453518 44.01308951 -38.76872555 46.93310454 -38.8046875 49.9453125 C-38.8075174 50.8303244 -38.81034729 51.7153363 -38.81326294 52.62716675 C-38.8244776 55.45991412 -38.8495843 58.29234784 -38.875 61.125 C-38.88502815 63.04296419 -38.89415428 64.96093333 -38.90234375 66.87890625 C-38.92272146 71.5861562 -38.96186727 76.2927261 -39 81 C-26.13 81 -13.26 81 0 81 C0 54.27 0 27.54 0 0 Z " fill="#69595A" transform="translate(1228,1270)"/>
<path d="M0 0 C13.53 0 27.06 0 41 0 C41 54.12 41 108.24 41 164 C54.53 164 68.06 164 82 164 C82 177.53 82 191.06 82 205 C81.67 205 81.34 205 81 205 C81 191.8 81 178.6 81 165 C67.8 165 54.6 165 41 165 C41 167.64 41 170.28 41 173 C40.67 173 40.34 173 40 173 C40 170.36 40 167.72 40 165 C27.46 165.33 14.92 165.66 2 166 C2.33 168.31 2.66 170.62 3 173 C2.67 173.33 2.34 173.66 2 174 C1.84111908 176.28988781 1.74861927 178.58443441 1.68359375 180.87890625 C1.66281265 181.5655687 1.64203156 182.25223114 1.62062073 182.95970154 C1.55505857 185.16052935 1.49620985 187.36147975 1.4375 189.5625 C1.39432108 191.05144514 1.350707 192.54037773 1.30664062 194.02929688 C1.1993707 197.68606553 1.09812228 201.34297318 1 205 C0.67 205 0.34 205 0 205 C0 191.47 0 177.94 0 164 C13.2 164 26.4 164 40 164 C40 110.21 40 56.42 40 1 C26.8 1 13.6 1 0 1 C0 0.67 0 0.34 0 0 Z " fill="#31262A" transform="translate(1147,737)"/>
<path d="M0 0 C13.53 0 27.06 0 41 0 C41 27.06 41 54.12 41 82 C54.53 82 68.06 82 82 82 C82 82.33 82 82.66 82 83 C68.47 83 54.94 83 41 83 C41 96.2 41 109.4 41 123 C40.67 123 40.34 123 40 123 C40 109.8 40 96.6 40 83 C13.27 83 -13.46 83 -41 83 C-41 82.67 -41 82.34 -41 82 C-27.8 82 -14.6 82 -1 82 C-1.01160156 76.16441406 -1.02320313 70.32882812 -1.03515625 64.31640625 C-1.04026301 60.62955619 -1.04507678 56.94271046 -1.04882812 53.25585938 C-1.05481657 47.39802144 -1.06191689 41.54019907 -1.07543945 35.68237305 C-1.08626834 30.96212022 -1.09227684 26.24188408 -1.09487724 21.5216198 C-1.09673149 19.71661046 -1.10035209 17.91160208 -1.10573006 16.10659981 C-1.11294052 13.58740356 -1.11399094 11.0682771 -1.11352539 8.54907227 C-1.11712067 7.79525772 -1.12071594 7.04144318 -1.12442017 6.26478577 C-1.11405216 1.11405216 -1.11405216 1.11405216 0 0 Z M0 1 C0 27.73 0 54.46 0 82 C13.2 82 26.4 82 40 82 C40 55.27 40 28.54 40 1 C26.8 1 13.6 1 0 1 Z " fill="#837D81" transform="translate(1311,491)"/>
<path d="M0 0 C0.33 0 0.66 0 1 0 C1 26.73 1 53.46 1 81 C14.2 81 27.4 81 41 81 C41 81.33 41 81.66 41 82 C27.8 82 14.6 82 1 82 C1 108.73 1 135.46 1 163 C14.2 163 27.4 163 41 163 C41 163.33 41 163.66 41 164 C27.47 164 13.94 164 0 164 C0 136.94 0 109.88 0 82 C-13.53 82 -27.06 82 -41 82 C-41 81.67 -41 81.34 -41 81 C-27.47 81 -13.94 81 0 81 C0 54.27 0 27.54 0 0 Z " fill="#847470" transform="translate(819,1475)"/>
<path d="M0 0 C0.33 0 0.66 0 1 0 C1 13.2 1 26.4 1 40 C28.06 40 55.12 40 83 40 C83 40.33 83 40.66 83 41 C55.94 41 28.88 41 1 41 C1 81.26 1 121.52 1 163 C0.67 163 0.34 163 0 163 C0 122.74 0 82.48 0 41 C-13.2 41 -26.4 41 -40 41 C-40 40.67 -40 40.34 -40 40 C-26.8 40 -13.6 40 0 40 C0 26.8 0 13.6 0 0 Z " fill="#6D8289" transform="translate(1105,451)"/>
<path d="M0 0 C27.06 0 54.12 0 82 0 C82 13.53 82 27.06 82 41 C81.67 41 81.34 41 81 41 C81 27.8 81 14.6 81 1 C67.8 1 54.6 1 41 1 C41 14.2 41 27.4 41 41 C38.69 41 36.38 41 34 41 C34 40.67 34 40.34 34 40 C35.65 40 37.3 40 39 40 C39 27.46 39 14.92 39 2 C26.13 2 13.26 2 0 2 C0 1.34 0 0.68 0 0 Z " fill="#88878B" transform="translate(1352,901)"/>
<path d="M0 0 C13.53 0 27.06 0 41 0 C41 13.53 41 27.06 41 41 C27.47 41 13.94 41 0 41 C0 27.47 0 13.94 0 0 Z M2 3 C2 14.88 2 26.76 2 39 C7.25111196 39.02290839 12.50205178 39.04283563 17.75317383 39.05493164 C19.54094021 39.05997218 21.32870245 39.06680454 23.11645508 39.07543945 C25.68051168 39.0875173 28.24451397 39.09323094 30.80859375 39.09765625 C32.01484657 39.10539818 32.01484657 39.10539818 33.24546814 39.11329651 C35.16401715 39.11349215 37.08245368 39.06201983 39 39 C40.40625551 37.82170415 40.40625551 37.82170415 40.11352539 34.48999023 C40.11336626 32.92951578 40.10767142 31.36903607 40.09765625 29.80859375 C40.09553383 28.57883568 40.09553383 28.57883568 40.09336853 27.32423401 C40.08775289 24.69528618 40.07519779 22.06642227 40.0625 19.4375 C40.05748701 17.65950643 40.05292376 15.88151154 40.04882812 14.10351562 C40.03777839 9.73564455 40.02050331 5.36783652 40 1 C35.39186151 0.95042142 30.78387963 0.91419615 26.17553711 0.89013672 C24.60910333 0.88010274 23.04268817 0.86647246 21.47631836 0.84912109 C19.21984247 0.82475775 16.96361506 0.81349084 14.70703125 0.8046875 C14.01100296 0.79436493 13.31497467 0.78404236 12.59785461 0.77340698 C8.31529121 0.77242724 6.14573591 1.34170564 2 3 Z " fill="#B78A5A" transform="translate(901,1311)"/>
<path d="M0 0 C13.53 0 27.06 0 41 0 C41 13.53 41 27.06 41 41 C27.47 41 13.94 41 0 41 C0 27.47 0 13.94 0 0 Z M2 2 C1.75277126 4.63100211 1.57315394 7.23753158 1.4375 9.875 C1.39431641 10.56980469 1.35113281 11.26460937 1.30664062 11.98046875 C0.81719839 20.97688318 0.96354925 29.993773 1 39 C6.39346988 39.02464849 11.78690725 39.04283531 17.18041992 39.05493164 C19.01668875 39.05997231 20.85295354 39.06680477 22.68920898 39.07543945 C25.32276401 39.08751672 27.95626616 39.09323081 30.58984375 39.09765625 C31.82890724 39.10539818 31.82890724 39.10539818 33.09300232 39.11329651 C35.06236368 39.11349205 37.03161614 39.06204152 39 39 C40.40625551 37.82170415 40.40625551 37.82170415 40.11352539 34.48999023 C40.11336626 32.92951578 40.10767142 31.36903607 40.09765625 29.80859375 C40.09553383 28.57883568 40.09553383 28.57883568 40.09336853 27.32423401 C40.08775289 24.69528618 40.07519779 22.06642227 40.0625 19.4375 C40.05748701 17.65950643 40.05292376 15.88151154 40.04882812 14.10351562 C40.03777839 9.73564455 40.02050331 5.36783652 40 1 C34.74894558 0.97535072 29.49792455 0.95716432 24.24682617 0.94506836 C22.45905979 0.94002782 20.67129755 0.93319546 18.88354492 0.92456055 C16.31948832 0.9124827 13.75548603 0.90676906 11.19140625 0.90234375 C10.3872377 0.89718246 9.58306915 0.89202118 8.75453186 0.88670349 C5.07696209 0.53258989 5.07696209 0.53258989 2 2 Z " fill="#B08559" transform="translate(983,1434)"/>
<path d="M0 0 C27.06 0 54.12 0 82 0 C82 13.53 82 27.06 82 41 C81.67 41 81.34 41 81 41 C81 27.8 81 14.6 81 1 C67.8 1 54.6 1 41 1 C41 3.64 41 6.28 41 9 C40.67 9 40.34 9 40 9 C40 6.36 40 3.72 40 1 C21.19 1.495 21.19 1.495 2 2 C2.33 4.31 2.66 6.62 3 9 C2.67 9.33 2.34 9.66 2 10 C1.84111908 12.28988781 1.74861927 14.58443441 1.68359375 16.87890625 C1.66281265 17.5655687 1.64203156 18.25223114 1.62062073 18.95970154 C1.55505857 21.16052935 1.49620985 23.36147975 1.4375 25.5625 C1.39432108 27.05144514 1.350707 28.54037773 1.30664062 30.02929688 C1.1993707 33.68606553 1.09812228 37.34297318 1 41 C0.67 41 0.34 41 0 41 C0 27.47 0 13.94 0 0 Z " fill="#402C2A" transform="translate(1147,901)"/>
<path d="M0 0 C0.495 1.98 0.495 1.98 1 4 C-2.55369071 5.18456357 -5.72505832 5.09670872 -9.41796875 5.03759766 C-10.54792015 5.02559578 -10.54792015 5.02559578 -11.70069885 5.01335144 C-14.196391 4.98543074 -16.69191051 4.94994259 -19.1875 4.9140625 C-20.92805581 4.89227942 -22.66861582 4.87083048 -24.40917969 4.84970093 C-28.06434263 4.80416445 -31.71943281 4.75495979 -35.37451172 4.703125 C-40.0332845 4.63728913 -44.69211348 4.57982415 -49.35102844 4.52509499 C-52.95099308 4.48196363 -56.55089289 4.43460754 -60.15078735 4.38599777 C-61.86657148 4.36326647 -63.58237203 4.34173964 -65.29818726 4.32149124 C-74.24196848 4.21335166 -83.10420074 4.04043806 -92 3 C-92 2.67 -92 2.34 -92 2 C-90.86216568 1.98969254 -89.72433136 1.97938507 -88.55201721 1.96876526 C-77.85363589 1.87120863 -67.15531505 1.76849186 -56.4570322 1.66066074 C-50.95632032 1.60538501 -45.45560318 1.55195771 -39.95483398 1.50268555 C-34.65098717 1.45511042 -29.34720724 1.40277037 -24.04343987 1.34705925 C-22.01516309 1.32660454 -19.98686795 1.30789674 -17.95855904 1.29092598 C-15.12798516 1.26695068 -12.29753895 1.23688713 -9.46704102 1.20532227 C-8.61971909 1.1995668 -7.77239716 1.19381134 -6.8993988 1.18788147 C-3.14330256 1.49942903 -3.14330256 1.49942903 0 0 Z " fill="#504046" transform="translate(982,1635)"/>
<path d="M0 0 C0.33 0 0.66 0 1 0 C1.96639442 13.01181059 2.1183055 25.95545355 2 39 C2.87398437 38.99214478 2.87398437 38.99214478 3.765625 38.98413086 C6.51040482 38.96282213 9.25516721 38.95017403 12 38.9375 C12.91523437 38.92912109 13.83046875 38.92074219 14.7734375 38.91210938 C23.26291923 38.88303581 31.46326493 39.46645406 40 40 C40 26.8 40 13.6 40 0 C40.33 0 40.66 0 41 0 C41 13.53 41 27.06 41 41 C27.47 41 13.94 41 0 41 C0 27.47 0 13.94 0 0 Z " fill="#35282C" transform="translate(1229,410)"/>
<path d="M0 0 C27.06 0 54.12 0 82 0 C82 0.33 82 0.66 82 1 C65.10109654 2.12150341 48.24202526 2.08686 31.3125 2 C25.97526619 1.97310978 20.63806151 1.95353075 15.30078125 1.9375 C14.07813065 1.92920166 12.85548004 1.92090332 11.59577942 1.91235352 C10.47918442 1.90905029 9.36258942 1.90574707 8.2121582 1.90234375 C7.22657425 1.89710693 6.2409903 1.89187012 5.22554016 1.88647461 C3.02722723 1.74938419 3.02722723 1.74938419 2 3 C1.91144839 5.6662603 1.88475327 8.30647114 1.90234375 10.97265625 C1.9037587 11.77029892 1.90517365 12.56794159 1.90663147 13.38975525 C1.91224684 15.94737435 1.92480188 18.50490718 1.9375 21.0625 C1.94251302 22.79231645 1.94707627 24.52213426 1.95117188 26.25195312 C1.96137209 30.50136239 1.98094432 34.75058416 2 39 C9.26 39.33 16.52 39.66 24 40 C24 40.33 24 40.66 24 41 C16.08 41 8.16 41 0 41 C0 27.47 0 13.94 0 0 Z " fill="#702A2F" transform="translate(860,1065)"/>
<path d="M0 0 C0.33 0 0.66 0 1 0 C1 13.2 1 26.4 1 40 C14.2 40 27.4 40 41 40 C41 40.33 41 40.66 41 41 C27.8 41 14.6 41 1 41 C1 47.6 1 54.2 1 61 C0.67 61 0.34 61 0 61 C0 54.4 0 47.8 0 41 C-13.2 41 -26.4 41 -40 41 C-40 40.67 -40 40.34 -40 40 C-26.8 40 -13.6 40 0 40 C0 26.8 0 13.6 0 0 Z " fill="#A9BCC2" transform="translate(1310,1516)"/>
<path d="M0 0 C13.53 0 27.06 0 41 0 C41 0.33 41 0.66 41 1 C22.19 1.495 22.19 1.495 3 2 C2.16055822 5.35776713 1.72311831 8.32258026 1.4375 11.75 C1.35371094 12.73484375 1.26992187 13.7196875 1.18359375 14.734375 C1.12300781 15.48203125 1.06242187 16.2296875 1 17 C0.67 17 0.34 17 0 17 C0 11.39 0 5.78 0 0 Z " fill="#7C4E3E" transform="translate(1065,1393)"/>
<path d="M0 0 C7.59 0 15.18 0 23 0 C23 0.33 23 0.66 23 1 C22.39937744 1.02505615 21.79875488 1.0501123 21.17993164 1.07592773 C18.47388563 1.1915528 15.76821717 1.31442936 13.0625 1.4375 C11.64420898 1.49647461 11.64420898 1.49647461 10.19726562 1.55664062 C9.29814453 1.59853516 8.39902344 1.64042969 7.47265625 1.68359375 C6.22367554 1.73858032 6.22367554 1.73858032 4.94946289 1.79467773 C2.99661142 1.79367103 2.99661142 1.79367103 2 3 C1.84193469 4.92478813 1.748865 6.8549921 1.68359375 8.78515625 C1.64169922 9.95498047 1.59980469 11.12480469 1.55664062 12.33007812 C1.51732422 13.56177734 1.47800781 14.79347656 1.4375 16.0625 C1.39431641 17.29806641 1.35113281 18.53363281 1.30664062 19.80664062 C1.20015802 22.87097335 1.09814576 25.93539073 1 29 C0.67 29 0.34 29 0 29 C0 19.43 0 9.86 0 0 Z " fill="#D6DBDE" transform="translate(820,1147)"/>
</svg>
