<?xml version="1.0" encoding="UTF-8"?>
<svg version="1.1" xmlns="http://www.w3.org/2000/svg" width="2048" height="2048">
<path d="M0 0 C81.18 0 162.36 0 246 0 C246 13.86 246 27.72 246 42 C273.06 42 300.12 42 328 42 C328 55.2 328 68.4 328 82 C341.53 82 355.06 82 369 82 C369 95.53 369 109.06 369 123 C382.53 123 396.06 123 410 123 C410 136.53 410 150.06 410 164 C423.53 164 437.06 164 451 164 C451 191.06 451 218.12 451 246 C464.53 246 478.06 246 492 246 C492 340.71 492 435.42 492 533 C478.47 533 464.94 533 451 533 C451 546.53 451 560.06 451 574 C437.47 574 423.94 574 410 574 C410 587.53 410 601.06 410 615 C423.53 615 437.06 615 451 615 C451 628.53 451 642.06 451 656 C464.53 656 478.06 656 492 656 C492 669.53 492 683.06 492 697 C505.53 697 519.06 697 533 697 C533 737.59 533 778.18 533 820 C519.47 820 505.94 820 492 820 C492 847.06 492 874.12 492 902 C505.53 902 519.06 902 533 902 C533 969.65 533 1037.3 533 1107 C519.47 1107 505.94 1107 492 1107 C492 1120.53 492 1134.06 492 1148 C464.94 1148 437.88 1148 410 1148 C410 1161.53 410 1175.06 410 1189 C396.47 1189 382.94 1189 369 1189 C369 1216.06 369 1243.12 369 1271 C362.4 1271 355.8 1271 349 1271 C349 1284.53 349 1298.06 349 1312 C342.07 1312 335.14 1312 328 1312 C328 1325.2 328 1338.4 328 1352 C341.53 1352 355.06 1352 369 1352 C369 1372.46 369 1392.92 369 1414 C301.35 1414 233.7 1414 164 1414 C164 1352.95 164 1291.9 164 1229 C150.47 1229 136.94 1229 123 1229 C123 1290.05 123 1351.1 123 1414 C55.35 1414 -12.3 1414 -82 1414 C-82 1393.54 -82 1373.08 -82 1352 C-68.47 1352 -54.94 1352 -41 1352 C-41 1338.8 -41 1325.6 -41 1312 C-67.73 1312 -94.46 1312 -122 1312 C-122 1325.2 -122 1338.4 -122 1352 C-123 1353 -123 1353 -126.87719727 1353.11352539 C-128.60694166 1353.11327423 -130.33669105 1353.10771043 -132.06640625 1353.09765625 C-132.8713855 1353.09664917 -133.67636475 1353.09564209 -134.5057373 1353.09460449 C-137.52467261 1353.08935614 -140.54358767 1353.075395 -143.5625 1353.0625 C-150.306875 1353.041875 -157.05125 1353.02125 -164 1353 C-164 1339.47 -164 1325.94 -164 1312 C-177.53 1312 -191.06 1312 -205 1312 C-205 1271.08 -205 1230.16 -205 1188 C-191.47 1188 -177.94 1188 -164 1188 C-164 1174.8 -164 1161.6 -164 1148 C-191.06 1148 -218.12 1148 -246 1148 C-246 1134.47 -246 1120.94 -246 1107 C-259.53 1107 -273.06 1107 -287 1107 C-287 1039.35 -287 971.7 -287 902 C-273.47 902 -259.94 902 -246 902 C-246 874.94 -246 847.88 -246 820 C-259.53 820 -273.06 820 -287 820 C-287 779.41 -287 738.82 -287 697 C-273.47 697 -259.94 697 -246 697 C-246 683.47 -246 669.94 -246 656 C-232.47 656 -218.94 656 -205 656 C-205 642.47 -205 628.94 -205 615 C-191.47 615 -177.94 615 -164 615 C-164 601.47 -164 587.94 -164 574 C-177.53 574 -191.06 574 -205 574 C-205 560.47 -205 546.94 -205 533 C-218.53 533 -232.06 533 -246 533 C-246 438.29 -246 343.58 -246 246 C-232.47 246 -218.94 246 -205 246 C-205 218.94 -205 191.88 -205 164 C-191.47 164 -177.94 164 -164 164 C-164 150.47 -164 136.94 -164 123 C-150.47 123 -136.94 123 -123 123 C-123 109.47 -123 95.94 -123 82 C-109.47 82 -95.94 82 -82 82 C-82 68.47 -82 54.94 -82 41 C-54.94 41 -27.88 41 0 41 C0 27.47 0 13.94 0 0 Z " fill="#36181A" transform="translate(901,327)"/>
<path d="M0 0 C13.53 0 27.06 0 41 0 C41 27.06 41 54.12 41 82 C95.12 82 149.24 82 205 82 C205 95.53 205 109.06 205 123 C218.53 123 232.06 123 246 123 C246 116.07 246 109.14 246 102 C259.53 102 273.06 102 287 102 C287 108.93 287 115.86 287 123 C300.53 123 314.06 123 328 123 C328 150.06 328 177.12 328 205 C314.47 205 300.94 205 287 205 C287 232.06 287 259.12 287 287 C395.24 287 503.48 287 615 287 C615 219.35 615 151.7 615 82 C669.12 82 723.24 82 779 82 C779 54.94 779 27.88 779 0 C792.53 0 806.06 0 820 0 C820 40.59 820 81.18 820 123 C806.47 123 792.94 123 779 123 C779 150.06 779 177.12 779 205 C792.53 205 806.06 205 820 205 C820 272.65 820 340.3 820 410 C806.47 410 792.94 410 779 410 C779 423.53 779 437.06 779 451 C751.94 451 724.88 451 697 451 C697 464.53 697 478.06 697 492 C683.47 492 669.94 492 656 492 C656 519.06 656 546.12 656 574 C649.4 574 642.8 574 636 574 C636 587.53 636 601.06 636 615 C629.07 615 622.14 615 615 615 C615 628.2 615 641.4 615 655 C628.53 655 642.06 655 656 655 C656 675.46 656 695.92 656 717 C588.35 717 520.7 717 451 717 C451 655.95 451 594.9 451 532 C437.47 532 423.94 532 410 532 C410 593.05 410 654.1 410 717 C342.35 717 274.7 717 205 717 C205 696.54 205 676.08 205 655 C218.53 655 232.06 655 246 655 C246 641.8 246 628.6 246 615 C219.27 615 192.54 615 165 615 C165 628.2 165 641.4 165 655 C164 656 164 656 160.12280273 656.11352539 C158.39305834 656.11327423 156.66330895 656.10771043 154.93359375 656.09765625 C154.1286145 656.09664917 153.32363525 656.09564209 152.4942627 656.09460449 C149.47532739 656.08935614 146.45641233 656.075395 143.4375 656.0625 C133.3209375 656.0315625 133.3209375 656.0315625 123 656 C123 642.47 123 628.94 123 615 C109.47 615 95.94 615 82 615 C82 574.08 82 533.16 82 491 C95.53 491 109.06 491 123 491 C123 477.8 123 464.6 123 451 C95.94 451 68.88 451 41 451 C41 437.47 41 423.94 41 410 C27.47 410 13.94 410 0 410 C0 342.35 0 274.7 0 205 C13.53 205 27.06 205 41 205 C41 177.94 41 150.88 41 123 C27.47 123 13.94 123 0 123 C0 82.41 0 41.82 0 0 Z " fill="#361819" transform="translate(614,1024)"/>
<path d="M0 0 C81.18 0 162.36 0 246 0 C246 0.33 246 0.66 246 1 C165.15 1 84.3 1 1 1 C1 14.2 1 27.4 1 41 C54.79 41 108.58 41 164 41 C164 135.71 164 230.42 164 328 C258.38 328 352.76 328 450 328 C450 395.65 450 463.3 450 533 C423.27 533 396.54 533 369 533 C369 546.53 369 560.06 369 574 C206.64 574 44.28 574 -123 574 C-123 560.47 -123 546.94 -123 533 C-149.73 533 -176.46 533 -204 533 C-204 546.53 -204 560.06 -204 574 C-204.33 574 -204.66 574 -205 574 C-205 560.47 -205 546.94 -205 533 C-218.53 533 -232.06 533 -246 533 C-246 438.29 -246 343.58 -246 246 C-232.47 246 -218.94 246 -205 246 C-205 218.94 -205 191.88 -205 164 C-191.47 164 -177.94 164 -164 164 C-164 150.47 -164 136.94 -164 123 C-150.47 123 -136.94 123 -123 123 C-123 109.47 -123 95.94 -123 82 C-109.47 82 -95.94 82 -82 82 C-82 68.47 -82 54.94 -82 41 C-54.94 41 -27.88 41 0 41 C0 27.47 0 13.94 0 0 Z " fill="#46535A" transform="translate(901,327)"/>
<path d="M0 0 C0.33 0 0.66 0 1 0 C1 13.53 1 27.06 1 41 C27.73 41 54.46 41 82 41 C82 54.53 82 68.06 82 82 C95.53 82 109.06 82 123 82 C123 95.53 123 109.06 123 123 C231.24 123 339.48 123 451 123 C451 109.47 451 95.94 451 82 C464.53 82 478.06 82 492 82 C492 68.47 492 54.94 492 41 C532.59 41 573.18 41 615 41 C615 54.53 615 68.06 615 82 C628.53 82 642.06 82 656 82 C656 122.59 656 163.18 656 205 C601.88 205 547.76 205 492 205 C492 272.65 492 340.3 492 410 C383.76 410 275.52 410 164 410 C164 382.94 164 355.88 164 328 C177.53 328 191.06 328 205 328 C205 300.94 205 273.88 205 246 C191.47 246 177.94 246 164 246 C164 239.07 164 232.14 164 225 C150.47 225 136.94 225 123 225 C123 231.93 123 238.86 123 246 C109.47 246 95.94 246 82 246 C82 232.47 82 218.94 82 205 C27.88 205 -26.24 205 -82 205 C-82 164.41 -82 123.82 -82 82 C-68.47 82 -54.94 82 -41 82 C-41 68.47 -41 54.94 -41 41 C-27.47 41 -13.94 41 0 41 C0 27.47 0 13.94 0 0 Z " fill="#58686F" transform="translate(737,901)"/>
<path d="M0 0 C13.2 0 26.4 0 40 0 C40 27.06 40 54.12 40 82 C53.53 82 67.06 82 81 82 C81 54.94 81 27.88 81 0 C270.09 0 459.18 0 654 0 C654 40.59 654 81.18 654 123 C627.27 123 600.54 123 573 123 C573 136.53 573 150.06 573 164 C410.64 164 248.28 164 81 164 C81 150.47 81 136.94 81 123 C54.27 123 27.54 123 0 123 C0 82.41 0 41.82 0 0 Z " fill="#596970" transform="translate(697,737)"/>
<path d="M0 0 C13.53 0 27.06 0 41 0 C41 27.06 41 54.12 41 82 C175.97 82 310.94 82 450 82 C450 108.73 450 135.46 450 163 C443.73 163 437.46 163 431 163 C431 176.86 431 190.72 431 205 C424.07 205 417.14 205 410 205 C410 218.2 410 231.4 410 245 C423.53 245 437.06 245 451 245 C451 265.46 451 285.92 451 307 C383.35 307 315.7 307 246 307 C246 245.95 246 184.9 246 122 C232.47 122 218.94 122 205 122 C205 183.05 205 244.1 205 307 C137.35 307 69.7 307 0 307 C0 286.54 0 266.08 0 245 C13.53 245 27.06 245 41 245 C41 231.47 41 217.94 41 204 C14.27 204 -12.46 204 -40 204 C-40 190.47 -40 176.94 -40 163 C-26.8 163 -13.6 163 0 163 C0 109.21 0 55.42 0 0 Z " fill="#36181A" transform="translate(819,1434)"/>
<path d="M0 0 C13.53 0 27.06 0 41 0 C41 40.59 41 81.18 41 123 C27.47 123 13.94 123 0 123 C0 150.06 0 177.12 0 205 C13.53 205 27.06 205 41 205 C41 272.65 41 340.3 41 410 C27.47 410 13.94 410 0 410 C0 423.53 0 437.06 0 451 C-27.06 451 -54.12 451 -82 451 C-82 464.2 -82 477.4 -82 491 C-95.53 491 -109.06 491 -123 491 C-123 450.41 -123 409.82 -123 368 C-136.53 368 -150.06 368 -164 368 C-164 354.8 -164 341.6 -164 328 C-150.47 328 -136.94 328 -123 328 C-123 314.14 -123 300.28 -123 286 C-136.53 286 -150.06 286 -164 286 C-164 218.68 -164 151.36 -164 82 C-109.88 82 -55.76 82 0 82 C0 54.94 0 27.88 0 0 Z " fill="#36181A" transform="translate(1393,1024)"/>
<path d="M0 0 C40.59 0 81.18 0 123 0 C123 13.2 123 26.4 123 40 C136.53 40 150.06 40 164 40 C164 53.53 164 67.06 164 81 C177.53 81 191.06 81 205 81 C205 94.53 205 108.06 205 122 C218.53 122 232.06 122 246 122 C246 149.06 246 176.12 246 204 C259.53 204 273.06 204 287 204 C287 204.33 287 204.66 287 205 C273.47 205 259.94 205 246 205 C246.03960462 218.11903899 246.03960462 218.11903899 246.09008789 231.23803711 C246.09300701 232.87613866 246.09555558 234.51424094 246.09765625 236.15234375 C246.10277222 237.01089966 246.10788818 237.86945557 246.11315918 238.75402832 C246.1134691 240.83636052 246.06242176 242.9186036 246 245 C244.04613595 246.95386405 241.05867917 246.12302926 238.45768833 246.12908077 C237.50758853 246.12616811 236.55748873 246.12325544 235.57859802 246.12025452 C234.57970047 246.12111053 233.58080292 246.12196655 232.55163574 246.12284851 C229.16648622 246.12451445 225.78138529 246.11896272 222.39624023 246.11352539 C219.94310285 246.11321932 217.48996538 246.1133521 215.03682804 246.11389065 C209.11241763 246.11409423 203.18802628 246.10979405 197.26362065 246.10338932 C190.41471876 246.09620593 183.56582451 246.09539548 176.71691895 246.09460449 C158.6237769 246.08934829 140.53063822 246.07538726 122.4375 246.0625 C82.033125 246.041875 41.62875 246.02125 0 246 C0 164.82 0 83.64 0 0 Z " fill="#596A71" transform="translate(1106,369)"/>
<path d="M0 0 C80.85 0 161.7 0 245 0 C245 13.53 245 27.06 245 41 C231.47 41 217.94 41 204 41 C204 122.18 204 203.36 204 287 C325.275 286.505 325.275 286.505 449 286 C449.33 272.8 449.66 259.6 450 246 C463.53 246 477.06 246 491 246 C491 340.38 491 434.76 491 532 C477.47 532 463.94 532 450 532 C450 545.53 450 559.06 450 573 C449.67 573 449.34 573 449 573 C449 491.82 449 410.64 449 327 C354.62 327 260.24 327 163 327 C163 232.29 163 137.58 163 40 C109.21 40 55.42 40 0 40 C0 26.8 0 13.6 0 0 Z " fill="#465259" transform="translate(902,328)"/>
<path d="M0 0 C13.53 0 27.06 0 41 0 C41 27.06 41 54.12 41 82 C95.12 82 149.24 82 205 82 C205 95.53 205 109.06 205 123 C218.53 123 232.06 123 246 123 C246 116.07 246 109.14 246 102 C259.53 102 273.06 102 287 102 C287 108.93 287 115.86 287 123 C300.53 123 314.06 123 328 123 C328 150.06 328 177.12 328 205 C314.47 205 300.94 205 287 205 C287 184.87 287 164.74 287 144 C273.47 144 259.94 144 246 144 C246 150.6 246 157.2 246 164 C239.07 164 232.14 164 225 164 C225 191.06 225 218.12 225 246 C218.4 246 211.8 246 205 246 C205 252.6 205 259.2 205 266 C191.47 266 177.94 266 164 266 C164 259.4 164 252.8 164 246 C150.47 246 136.94 246 123 246 C123 232.47 123 218.94 123 205 C136.53 205 150.06 205 164 205 C164 177.94 164 150.88 164 123 C136.94 123 109.88 123 82 123 C82 163.59 82 204.18 82 246 C68.47 246 54.94 246 41 246 C41 299.79 41 353.58 41 409 C27.8 409 14.6 409 1 409 C1 341.68 1 274.36 1 205 C14.2 205 27.4 205 41 205 C41 177.94 41 150.88 41 123 C27.47 123 13.94 123 0 123 C0 82.41 0 41.82 0 0 Z " fill="#36181A" transform="translate(614,1024)"/>
<path d="M0 0 C27.06 0 54.12 0 82 0 C82 0.33 82 0.66 82 1 C55.27 1 28.54 1 1 1 C1 14.2 1 27.4 1 41 C14.11903899 40.96039538 14.11903899 40.96039538 27.23803711 40.90991211 C28.87613866 40.90699299 30.51424094 40.90444442 32.15234375 40.90234375 C33.44017761 40.8946698 33.44017761 40.8946698 34.75402832 40.88684082 C36.83636052 40.8865309 38.9186036 40.93757824 41 41 C50.66666667 50.66666667 42 68.3292689 42 82 C68.73 82 95.46 82 123 82 C123 136.45 123 190.9 123 247 C68.88 247 14.76 247 -41 247 C-41 233.47 -41 219.94 -41 206 C-54.2 206 -67.4 206 -81 206 C-81 219.2 -81 232.4 -81 246 C-94.86 246 -108.72 246 -123 246 C-123 232.8 -123 219.6 -123 206 C-136.53 206 -150.06 206 -164 206 C-164 205.67 -164 205.34 -164 205 C-150.47 205 -136.94 205 -123 205 C-123 177.94 -123 150.88 -123 123 C-109.47 123 -95.94 123 -82 123 C-82 109.47 -82 95.94 -82 82 C-68.47 82 -54.94 82 -41 82 C-41 68.47 -41 54.94 -41 41 C-27.47 41 -13.94 41 0 41 C0 27.47 0 13.94 0 0 Z " fill="#869DA4" transform="translate(819,368)"/>
<path d="M0 0 C27.06 0 54.12 0 82 0 C82 94.71 82 189.42 82 287 C122.59 287 163.18 287 205 287 C205 300.2 205 313.4 205 327 C69.7 327 -65.6 327 -205 327 C-205 313.8 -205 300.6 -205 287 C-137.35 287 -69.7 287 0 287 C0 192.29 0 97.58 0 0 Z " fill="#879EA6" transform="translate(983,369)"/>
<path d="M0 0 C81.18 0 162.36 0 246 0 C246 0.33 246 0.66 246 1 C165.15 1 84.3 1 1 1 C1 14.2 1 27.4 1 41 C54.79 41 108.58 41 164 41 C164 41.33 164 41.66 164 42 C136.94 42 109.88 42 82 42 C82 136.71 82 231.42 82 329 C14.35 329 -53.3 329 -123 329 C-123 342.2 -123 355.4 -123 369 C-149.73 369 -176.46 369 -204 369 C-204 341.94 -204 314.88 -204 287 C-190.47 287 -176.94 287 -163 287 C-163 273.8 -163 260.6 -163 247 C-149.8 247 -136.6 247 -123 247 C-123 260.53 -123 274.06 -123 288 C-68.88 288 -14.76 288 41 288 C41 233.55 41 179.1 41 123 C14.27 123 -12.46 123 -40 123 C-40.33 109.8 -40.66 96.6 -41 83 C-60.8 82.505 -60.8 82.505 -81 82 C-81 68.8 -81 55.6 -81 42 C-54.27 42 -27.54 42 0 42 C0 28.14 0 14.28 0 0 Z " fill="#5A6A71" transform="translate(901,327)"/>
<path d="M0 0 C135.3 0 270.6 0 410 0 C410 13.53 410 27.06 410 41 C423.53 41 437.06 41 451 41 C451 54.53 451 68.06 451 82 C302.17 82 153.34 82 0 82 C0 54.94 0 27.88 0 0 Z " fill="#859DA4" transform="translate(778,737)"/>
<path d="M0 0 C13.53 0 27.06 0 41 0 C41 40.26 41 80.52 41 122 C54.53 122 68.06 122 82 122 C82 122.33 82 122.66 82 123 C68.47 123 54.94 123 41 123 C41 150.06 41 177.12 41 205 C34.4 205 27.8 205 21 205 C21 204.67 21 204.34 21 204 C27.27 204 33.54 204 40 204 C40 176.94 40 149.88 40 122 C-94.64 122 -229.28 122 -368 122 C-368 95.27 -368 68.54 -368 41 C-246.56 41 -125.12 41 0 41 C0 27.47 0 13.94 0 0 Z " fill="#79614D" transform="translate(1229,1393)"/>
<path d="M0 0 C0.33 0 0.66 0 1 0 C1 13.53 1 27.06 1 41 C27.73 41 54.46 41 82 41 C82 54.53 82 68.06 82 82 C95.53 82 109.06 82 123 82 C123 95.53 123 109.06 123 123 C136.53 123 150.06 123 164 123 C164 150.06 164 177.12 164 205 C82.82 205 1.64 205 -82 205 C-82 164.41 -82 123.82 -82 82 C-68.47 82 -54.94 82 -41 82 C-41 68.47 -41 54.94 -41 41 C-27.47 41 -13.94 41 0 41 C0 27.47 0 13.94 0 0 Z " fill="#58676E" transform="translate(737,901)"/>
<path d="M0 0 C40.59 0 81.18 0 123 0 C123 13.53 123 27.06 123 41 C136.53 41 150.06 41 164 41 C164 81.59 164 122.18 164 164 C96.35 164 28.7 164 -41 164 C-41 123.41 -41 82.82 -41 41 C-27.47 41 -13.94 41 0 41 C0 27.47 0 13.94 0 0 Z " fill="#57686F" transform="translate(1229,942)"/>
<path d="M0 0 C13.53 0 27.06 0 41 0 C41 13.53 41 27.06 41 41 C68.06 41 95.12 41 123 41 C123 108.65 123 176.3 123 246 C95.94 246 68.88 246 41 246 C41 205.41 41 164.82 41 123 C27.47 123 13.94 123 0 123 C0 116.07 0 109.14 0 102 C-13.53 102 -27.06 102 -41 102 C-41 108.93 -41 115.86 -41 123 C-54.53 123 -68.06 123 -82 123 C-82 109.47 -82 95.94 -82 82 C-54.94 82 -27.88 82 0 82 C0 54.94 0 27.88 0 0 Z " fill="#869EA5" transform="translate(901,1024)"/>
<path d="M0 0 C13.53 0 27.06 0 41 0 C41 6.93 41 13.86 41 21 C54.53 21 68.06 21 82 21 C82 34.2 82 47.4 82 61 C203.77 61 325.54 61 451 61 C451 61.33 451 61.66 451 62 C329.56 62 208.12 62 83 62 C83 88.73 83 115.46 83 143 C217.64 143 352.28 143 491 143 C491 143.33 491 143.66 491 144 C356.03 144 221.06 144 82 144 C82 116.94 82 89.88 82 62 C68.47 62 54.94 62 41 62 C41 115.79 41 169.58 41 225 C27.8 225 14.6 225 1 225 C1 238.53 1 252.06 1 266 C27.73 266 54.46 266 82 266 C82 266.33 82 266.66 82 267 C55.27 267 28.54 267 1 267 C1 280.2 1 293.4 1 307 C0 308 0 308 -3.87719727 308.11352539 C-5.60694166 308.11327423 -7.33669105 308.10771043 -9.06640625 308.09765625 C-9.8713855 308.09664917 -10.67636475 308.09564209 -11.5057373 308.09460449 C-14.52467261 308.08935614 -17.54358767 308.075395 -20.5625 308.0625 C-30.6790625 308.0315625 -30.6790625 308.0315625 -41 308 C-41 294.47 -41 280.94 -41 267 C-54.53 267 -68.06 267 -82 267 C-82 226.08 -82 185.16 -82 143 C-68.47 143 -54.94 143 -41 143 C-41 129.8 -41 116.6 -41 103 C-40.67 103 -40.34 103 -40 103 C-40 116.2 -40 129.4 -40 143 C-26.8 143 -13.6 143 0 143 C0 95.81 0 48.62 0 0 Z " fill="#884F3A" transform="translate(778,1372)"/>
<path d="M0 0 C27.06 0 54.12 0 82 0 C82 13.53 82 27.06 82 41 C95.53 41 109.06 41 123 41 C123 81.59 123 122.18 123 164 C109.47 164 95.94 164 82 164 C82 177.53 82 191.06 82 205 C54.94 205 27.88 205 0 205 C0 137.35 0 69.7 0 0 Z " fill="#869EA5" transform="translate(1065,1065)"/>
<path d="M0 0 C162.36 0 324.72 0 492 0 C492 13.53 492 27.06 492 41 C329.64 41 167.28 41 0 41 C0 27.47 0 13.94 0 0 Z " fill="#859DA3" transform="translate(778,860)"/>
<path d="M0 0 C13.53 0 27.06 0 41 0 C41 53.79 41 107.58 41 163 C-12.79 163 -66.58 163 -122 163 C-122 149.8 -122 136.6 -122 123 C-108.8 122.67 -95.6 122.34 -82 122 C-81.67 95.27 -81.34 68.54 -81 41 C-35.01234568 39.85030864 -35.01234568 39.85030864 -18 39.9375 C-12.06 39.958125 -6.12 39.97875 0 40 C0 26.8 0 13.6 0 0 Z " fill="#879FA6" transform="translate(901,451)"/>
<path d="M0 0 C13.53 0 27.06 0 41 0 C41 13.2 41 26.4 41 40 C54.53 40 68.06 40 82 40 C82 53.53 82 67.06 82 81 C95.53 81 109.06 81 123 81 C123 108.06 123 135.12 123 163 C82.41 163 41.82 163 0 163 C0 109.21 0 55.42 0 0 Z " fill="#879FA6" transform="translate(1106,451)"/>
<path d="M0 0 C1.489453 0.00056958 1.489453 0.00056958 3.00899595 0.00115067 C4.15005735 -0.00084038 5.29111875 -0.00283143 6.46675777 -0.00488281 C8.37089865 -0.00051355 8.37089865 -0.00051355 10.31350702 0.00394398 C11.66318 0.0035084 13.0128529 0.00263373 14.36252534 0.00135481 C18.08859133 -0.00089268 21.81462884 0.00313458 25.5406912 0.00813287 C29.55229939 0.01243357 33.56390584 0.01099122 37.57551569 0.0102306 C44.53163595 0.00970512 51.48774686 0.0128544 58.44386476 0.01846844 C68.50136169 0.02658022 78.55885408 0.02919833 88.61635392 0.03045643 C104.93223186 0.03264746 121.24810481 0.03930891 137.56398004 0.04875904 C153.41749541 0.05793185 169.27100943 0.06501333 185.12452692 0.06926686 C186.58925416 0.06966094 186.58925416 0.06966094 188.08357186 0.07006299 C192.98209252 0.07136798 197.88061318 0.0726317 202.77913386 0.07387489 C243.44578221 0.08424908 284.11242436 0.10214313 324.77906793 0.1241985 C324.77906793 13.6541985 324.77906793 27.1841985 324.77906793 41.1241985 C216.53906793 41.1241985 108.29906793 41.1241985 -3.22093207 41.1241985 C-3.22093207 0.18012029 -3.22093207 0.18012029 0 0 Z " fill="#36181A" transform="translate(863.2209320664406,982.8758015036583)"/>
<path d="M0 0 C13.53 0 27.06 0 41 0 C41 20.13 41 40.26 41 61 C27.47 61 13.94 61 0 61 C0 94.66 0 128.32 0 163 C13.53 163 27.06 163 41 163 C41 176.53 41 190.06 41 204 C27.47 204 13.94 204 0 204 C0 197.4 0 190.8 0 184 C-13.53 184 -27.06 184 -41 184 C-41 177.07 -41 170.14 -41 163 C-54.53 163 -68.06 163 -82 163 C-82 156.4 -82 149.8 -82 143 C-95.53 143 -109.06 143 -123 143 C-123 129.47 -123 115.94 -123 102 C-109.47 102 -95.94 102 -82 102 C-82 108.6 -82 115.2 -82 122 C-68.47 122 -54.94 122 -41 122 C-41 115.4 -41 108.8 -41 102 C-34.4 102 -27.8 102 -21 102 C-21 74.94 -21 47.88 -21 20 C-14.07 20 -7.14 20 0 20 C0 13.4 0 6.8 0 0 Z " fill="#946A42" transform="translate(860,1168)"/>
<path d="M0 0 C0.33 0 0.66 0 1 0 C1 67.65 1 135.3 1 205 C-12.53 205 -26.06 205 -40 205 C-40 218.53 -40 232.06 -40 246 C-67.06 246 -94.12 246 -122 246 C-122 245.67 -122 245.34 -122 245 C-95.27 245 -68.54 245 -41 245 C-41 231.47 -41 217.94 -41 204 C-67.73 204 -94.46 204 -122 204 C-122 163.74 -122 123.48 -122 82 C-108.47 82 -94.94 82 -81 82 C-81 68.47 -81 54.94 -81 41 C-67.47 41 -53.94 41 -40 41 C-40 94.79 -40 148.58 -40 204 C-26.8 204 -13.6 204 0 204 C0 136.68 0 69.36 0 0 Z " fill="#683A26" transform="translate(1433,1229)"/>
<path d="M0 0 C0.33 0 0.66 0 1 0 C1 13.53 1 27.06 1 41 C14.53 41 28.06 41 42 41 C42 81.59 42 122.18 42 164 C28.14 164 14.28 164 0 164 C0 150.47 0 136.94 0 123 C-26.73 123 -53.46 123 -81 123 C-81 95.94 -81 68.88 -81 41 C-54.27 41 -27.54 41 0 41 C0 27.47 0 13.94 0 0 Z " fill="#869DA4" transform="translate(1351,942)"/>
<path d="M0 0 C13.53 0 27.06 0 41 0 C41 94.38 41 188.76 41 286 C27.47 286 13.94 286 0 286 C0 191.62 0 97.24 0 0 Z " fill="#36171A" transform="translate(1352,574)"/>
<path d="M0 0 C13.53 0 27.06 0 41 0 C41 94.38 41 188.76 41 286 C27.47 286 13.94 286 0 286 C0 191.62 0 97.24 0 0 Z " fill="#36181A" transform="translate(655,574)"/>
<path d="M0 0 C0.33 0 0.66 0 1 0 C1 13.53 1 27.06 1 41 C27.73 41 54.46 41 82 41 C82 68.06 82 95.12 82 123 C41.41 123 0.82 123 -41 123 C-41 95.94 -41 68.88 -41 41 C-27.47 41 -13.94 41 0 41 C0 27.47 0 13.94 0 0 Z " fill="#869DA4" transform="translate(696,942)"/>
<path d="M0 0 C27.06 0 54.12 0 82 0 C82 40.59 82 81.18 82 123 C54.94 123 27.88 123 0 123 C0 82.41 0 41.82 0 0 Z " fill="#3B4051" transform="translate(1270,1147)"/>
<path d="M0 0 C81.18 0 162.36 0 246 0 C246 13.53 246 27.06 246 41 C164.82 41 83.64 41 0 41 C0 27.47 0 13.94 0 0 Z " fill="#BECFD4" transform="translate(778,860)"/>
<path d="M0 0 C80.85 0 161.7 0 245 0 C245 13.53 245 27.06 245 41 C234.72913588 41.02958009 224.45838662 41.05204583 214.1875 41.0625 C212.93589458 41.06378403 212.93589458 41.06378403 211.65900421 41.06509399 C166.56352116 41.10543069 121.46930873 40.7872008 76.375 40.5 C75.43607139 40.49402628 74.49714278 40.48805257 73.52976179 40.48189783 C49.0198101 40.32586623 24.509895 40.16468996 0 40 C0 26.8 0 13.6 0 0 Z " fill="#351619" transform="translate(902,328)"/>
<path d="M0 0 C81.18 0 162.36 0 246 0 C246 13.2 246 26.4 246 40 C164.82 40 83.64 40 0 40 C0 26.8 0 13.6 0 0 Z " fill="#A39179" transform="translate(901,1475)"/>
<path d="M0 0 C27.33536578 0 54.67276128 0.33348198 82 1 C82 34.66 82 68.32 82 103 C41.41 103 0.82 103 -41 103 C-41 96.4 -41 89.8 -41 83 C-54.2 83 -67.4 83 -81 83 C-81 103.13 -81 123.26 -81 144 C-81.33 144 -81.66 144 -82 144 C-82 123.54 -82 103.08 -82 82 C-68.47 82 -54.94 82 -41 82 C-41 68.8 -41 55.6 -41 42 C-40.67 42 -40.34 42 -40 42 C-40 55.2 -40 68.4 -40 82 C-26.8 82 -13.6 82 0 82 C0 54.94 0 27.88 0 0 Z " fill="#864E3A" transform="translate(901,1597)"/>
<path d="M0 0 C27.06 0 54.12 0 82 0 C82 26.73 82 53.46 82 81 C95.2 81 108.4 81 122 81 C122 67.8 122 54.6 122 41 C122.33 41 122.66 41 123 41 C123 54.2 123 67.4 123 81 C136.53 81 150.06 81 164 81 C164 101.46 164 121.92 164 143 C163.67 143 163.34 143 163 143 C163 122.87 163 102.74 163 82 C149.8 82 136.6 82 123 82 C123 88.6 123 95.2 123 102 C82.41 102 41.82 102 0 102 C0 68.34 0 34.68 0 0 Z " fill="#693B27" transform="translate(1106,1598)"/>
<path d="M0 0 C27.06 0 54.12 0 82 0 C82 27.06 82 54.12 82 82 C68.47 82 54.94 82 41 82 C41 95.53 41 109.06 41 123 C27.47 123 13.94 123 0 123 C0 82.41 0 41.82 0 0 Z " fill="#3B4051" transform="translate(696,1147)"/>
<path d="M0 0 C0.33 0 0.66 0 1 0 C1 67.32 1 134.64 1 204 C14.2 204 27.4 204 41 204 C41 150.21 41 96.42 41 41 C54.53 41 68.06 41 82 41 C82 81.59 82 122.18 82 164 C88.93 164 95.86 164 103 164 C103 177.53 103 191.06 103 205 C82.87 205 62.74 205 42 205 C42 218.2 42 231.4 42 245 C68.73 245 95.46 245 123 245 C123 245.33 123 245.66 123 246 C95.94 246 68.88 246 41 246 C41 232.47 41 218.94 41 205 C27.47 205 13.94 205 0 205 C0 137.35 0 69.7 0 0 Z " fill="#86503C" transform="translate(614,1229)"/>
<path d="M0 0 C13.53 0 27.06 0 41 0 C41 0.33 41 0.66 41 1 C27.8 1 14.6 1 1 1 C1 41.26 1 81.52 1 123 C14.2 123 27.4 123 41 123 C40.979375 117.905625 40.95875 112.81125 40.9375 107.5625 C40.8965018 84.68550354 41.20690484 61.81212503 41.5 38.9375 C41.51195782 38.00401356 41.52391563 37.07052711 41.53623581 36.1087532 C41.68654679 24.40577562 41.84272576 12.70288832 42 1 C55.2 1 68.4 1 82 1 C82 41.26 82 81.52 82 123 C109.06 123 136.12 123 164 123 C164 123.33 164 123.66 164 124 C137.27 124 110.54 124 83 124 C83 137.2 83 150.4 83 164 C82 165 82 165 78.12280273 165.11352539 C76.39305834 165.11327423 74.66330895 165.10771043 72.93359375 165.09765625 C72.1286145 165.09664917 71.32363525 165.09564209 70.4942627 165.09460449 C67.47532739 165.08935614 64.45641233 165.075395 61.4375 165.0625 C51.3209375 165.0315625 51.3209375 165.0315625 41 165 C41 151.47 41 137.94 41 124 C27.47 124 13.94 124 0 124 C0 83.08 0 42.16 0 0 Z " fill="#B1946D" transform="translate(696,1515)"/>
<path d="M0 0 C94.38 0 188.76 0 286 0 C286 13.53 286 27.06 286 41 C232.21 41 178.42 41 123 41 C123 27.8 123 14.6 123 1 C82.41 1 41.82 1 0 1 C0 0.67 0 0.34 0 0 Z " fill="#5A6B72" transform="translate(1065,655)"/>
<path d="M0 0 C54.12 0 108.24 0 164 0 C164 13.53 164 27.06 164 41 C109.88 41 55.76 41 0 41 C0 27.47 0 13.94 0 0 Z " fill="#874E3A" transform="translate(983,1352)"/>
<path d="M0 0 C54.12 0 108.24 0 164 0 C164 13.53 164 27.06 164 41 C109.88 41 55.76 41 0 41 C0 27.47 0 13.94 0 0 Z " fill="#833433" transform="translate(901,942)"/>
<path d="M0 0 C13.2 0 26.4 0 40 0 C40 27.06 40 54.12 40 82 C53.53 82 67.06 82 81 82 C81 95.53 81 109.06 81 123 C54.27 123 27.54 123 0 123 C0 82.41 0 41.82 0 0 Z " fill="#859DA4" transform="translate(697,737)"/>
<path d="M0 0 C54.12 0 108.24 0 164 0 C164 13.2 164 26.4 164 40 C109.88 40 55.76 40 0 40 C0 26.8 0 13.6 0 0 Z " fill="#C0D1D5" transform="translate(778,656)"/>
<path d="M0 0 C13.53 0 27.06 0 41 0 C41 20.13 41 40.26 41 61 C27.47 61 13.94 61 0 61 C0 88.06 0 115.12 0 143 C-13.53 143 -27.06 143 -41 143 C-41 129.47 -41 115.94 -41 102 C-34.4 102 -27.8 102 -21 102 C-21 74.94 -21 47.88 -21 20 C-14.07 20 -7.14 20 0 20 C0 13.4 0 6.8 0 0 Z " fill="#763D37" transform="translate(860,1168)"/>
<path d="M0 0 C13.53 0 27.06 0 41 0 C41 54.12 41 108.24 41 164 C34.4 164 27.8 164 21 164 C21 150.47 21 136.94 21 123 C14.07 123 7.14 123 0 123 C0 82.41 0 41.82 0 0 Z " fill="#683924" transform="translate(696,1270)"/>
<path d="M0 0 C40.59 0 81.18 0 123 0 C123 13.86 123 27.72 123 42 C82.41 42 41.82 42 0 42 C0 28.14 0 14.28 0 0 Z " fill="#3B3E50" transform="translate(1106,1556)"/>
<path d="M0 0 C0.89874816 0.00092179 1.79749632 0.00184359 2.72347927 0.00279331 C3.75138073 0.00141865 4.77928219 0.00004398 5.83833218 -0.00137234 C6.975527 0.00222294 8.11272182 0.00581821 9.2843771 0.00952244 C10.47445873 0.00937641 11.66454037 0.00923038 12.89068508 0.00907993 C16.16326569 0.00965889 19.43580402 0.01468801 22.70837617 0.02165389 C26.1250196 0.02788815 29.54166379 0.02849128 32.95831203 0.0296793 C39.43232563 0.0327924 45.90632242 0.0410055 52.3803286 0.05102879 C59.74901216 0.06219058 67.11769651 0.06770054 74.48638642 0.07272422 C89.64814618 0.08318814 104.8098841 0.10153335 119.97163296 0.12304783 C119.97163296 13.98304783 119.97163296 27.84304783 119.97163296 42.12304783 C79.38163296 42.12304783 38.79163296 42.12304783 -3.02836704 42.12304783 C-3.02836704 0.18371132 -3.02836704 0.18371132 0 0 Z " fill="#3B3E50" transform="translate(863.0283670425415,1555.8769521713257)"/>
<path d="M0 0 C40.59 0 81.18 0 123 0 C123 13.53 123 27.06 123 41 C82.41 41 41.82 41 0 41 C0 27.47 0 13.94 0 0 Z " fill="#611922" transform="translate(1065,942)"/>
<path d="M0 0 C13.53 0 27.06 0 41 0 C41 26.73 41 53.46 41 81 C14.27 81 -12.46 81 -40 81 C-40 67.8 -40 54.6 -40 41 C-26.8 41 -13.6 41 0 41 C0 27.47 0 13.94 0 0 Z " fill="#C3D2D6" transform="translate(901,451)"/>
<path d="M0 0 C13.2 0 26.4 0 40 0 C40 40.26 40 80.52 40 122 C26.8 122 13.6 122 0 122 C0 81.74 0 41.48 0 0 Z " fill="#351719" transform="translate(697,1516)"/>
<path d="M0 0 C13.53 0 27.06 0 41 0 C41 6.93 41 13.86 41 21 C27.8 21 14.6 21 1 21 C1 61.26 1 101.52 1 143 C14.2 143 27.4 143 41 143 C41 170.06 41 197.12 41 225 C27.8 225 14.6 225 1 225 C1 238.53 1 252.06 1 266 C0.67 266 0.34 266 0 266 C0 225.74 0 185.48 0 144 C-13.2 144 -26.4 144 -40 144 C-40 170.73 -40 197.46 -40 225 C-40.33 225 -40.66 225 -41 225 C-41 184.74 -41 144.48 -41 103 C-40.67 103 -40.34 103 -40 103 C-40 116.2 -40 129.4 -40 143 C-26.8 143 -13.6 143 0 143 C0 95.81 0 48.62 0 0 Z " fill="#673824" transform="translate(778,1372)"/>
<path d="M0 0 C13.53 0 27.06 0 41 0 C41 33.66 41 67.32 41 102 C27.47 102 13.94 102 0 102 C0 68.34 0 34.68 0 0 Z " fill="#874E39" transform="translate(1106,1598)"/>
<path d="M0 0 C13.53 0 27.06 0 41 0 C41 33.66 41 67.32 41 102 C27.47 102 13.94 102 0 102 C0 68.34 0 34.68 0 0 Z " fill="#6A3B26" transform="translate(942,1598)"/>
<path d="M0 0 C80.85 0 161.7 0 245 0 C245 0.33 245 0.66 245 1 C190.88 1 136.76 1 81 1 C81 14.2 81 27.4 81 41 C54.27 41 27.54 41 0 41 C0 27.47 0 13.94 0 0 Z " fill="#869DA5" transform="translate(697,655)"/>
<path d="M0 0 C27.06 0 54.12 0 82 0 C82 13.2 82 26.4 82 40 C95.53 40 109.06 40 123 40 C123 40.33 123 40.66 123 41 C94.61671787 42.18904032 66.27159166 41.95293263 37.875 41.5625 C36.94236958 41.54968616 36.00973915 41.53687233 35.0488472 41.5236702 C23.36567588 41.3619566 11.68288329 41.18263286 0 41 C0 27.47 0 13.94 0 0 Z " fill="#601922" transform="translate(1147,1352)"/>
<path d="M0 0 C13.53 0 27.06 0 41 0 C41 6.6 41 13.2 41 20 C54.53 20 68.06 20 82 20 C82 33.53 82 47.06 82 61 C68.47 61 54.94 61 41 61 C41 54.4 41 47.8 41 41 C27.47 41 13.94 41 0 41 C0 27.47 0 13.94 0 0 Z " fill="#966B43" transform="translate(737,1270)"/>
<path d="M0 0 C13.53 0 27.06 0 41 0 C41 27.06 41 54.12 41 82 C27.47 82 13.94 82 0 82 C0 54.94 0 27.88 0 0 Z " fill="#35191B" transform="translate(1188,1024)"/>
<path d="M0 0 C13.53 0 27.06 0 41 0 C41 27.06 41 54.12 41 82 C27.47 82 13.94 82 0 82 C0 54.94 0 27.88 0 0 Z " fill="#58676E" transform="translate(860,1024)"/>
<path d="M0 0 C13.53 0 27.06 0 41 0 C41 27.06 41 54.12 41 82 C27.47 82 13.94 82 0 82 C0 54.94 0 27.88 0 0 Z " fill="#35191B" transform="translate(819,1024)"/>
<path d="M0 0 C13.53 0 27.06 0 41 0 C41 27.06 41 54.12 41 82 C27.47 82 13.94 82 0 82 C0 54.94 0 27.88 0 0 Z " fill="#596A71" transform="translate(737,737)"/>
<path d="M0 0 C27.06 0 54.12 0 82 0 C82 13.53 82 27.06 82 41 C54.94 41 27.88 41 0 41 C0 27.47 0 13.94 0 0 Z " fill="#36181B" transform="translate(1147,369)"/>
<path d="M0 0 C26.73 0 53.46 0 81 0 C81 13.53 81 27.06 81 41 C54.27 41 27.54 41 0 41 C0 27.47 0 13.94 0 0 Z " fill="#869DA5" transform="translate(1270,819)"/>
<path d="M0 0 C13.53 0 27.06 0 41 0 C41 26.73 41 53.46 41 81 C27.47 81 13.94 81 0 81 C0 54.27 0 27.54 0 0 Z " fill="#C0D2D5" transform="translate(983,451)"/>
<path d="M0 0 C26.73 0 53.46 0 81 0 C81 13.53 81 27.06 81 41 C53.95905441 41.09389217 27.02965409 40.77504384 0 40 C0 26.8 0 13.6 0 0 Z " fill="#351619" transform="translate(820,369)"/>
<path d="M0 0 C6.6 0 13.2 0 20 0 C20 54.12 20 108.24 20 164 C13.4 164 6.8 164 0 164 C0 109.88 0 55.76 0 0 Z " fill="#C1D2D7" transform="translate(1004,1065)"/>
<path d="M0 0 C13.2 0 26.4 0 40 0 C40 26.73 40 53.46 40 81 C26.8 81 13.6 81 0 81 C0 54.27 0 27.54 0 0 Z " fill="#894E39" transform="translate(738,1516)"/>
<path d="M0 0 C13.2 0 26.4 0 40 0 C40 26.73 40 53.46 40 81 C26.8 81 13.6 81 0 81 C0 54.27 0 27.54 0 0 Z " fill="#89A0A7" transform="translate(738,492)"/>
<path d="M0 0 C13.2 0 26.4 0 40 0 C40 26.73 40 53.46 40 81 C26.8 81 13.6 81 0 81 C0 54.27 0 27.54 0 0 Z " fill="#37171A" transform="translate(1311,492)"/>
<path d="M0 0 C13.2 0 26.4 0 40 0 C40 26.73 40 53.46 40 81 C26.8 81 13.6 81 0 81 C0 54.27 0 27.54 0 0 Z " fill="#889FA7" transform="translate(1270,492)"/>
<path d="M0 0 C13.2 0 26.4 0 40 0 C40 26.73 40 53.46 40 81 C26.8 81 13.6 81 0 81 C0 54.27 0 27.54 0 0 Z " fill="#596A72" transform="translate(779,492)"/>
<path d="M0 0 C13.2 0 26.4 0 40 0 C40 26.73 40 53.46 40 81 C26.8 81 13.6 81 0 81 C0 54.27 0 27.54 0 0 Z " fill="#36171A" transform="translate(697,492)"/>
<path d="M0 0 C13.53 0 27.06 0 41 0 C41 19.8 41 39.6 41 60 C27.47 60 13.94 60 0 60 C0 53.4 0 46.8 0 40 C-6.6 40 -13.2 40 -20 40 C-20 33.4 -20 26.8 -20 20 C-13.4 20 -6.8 20 0 20 C0 13.4 0 6.8 0 0 Z " fill="#946B43" transform="translate(860,1168)"/>
<path d="M0 0 C13.53 0 27.06 0 41 0 C41 13.2 41 26.4 41 40 C162.77 40 284.54 40 410 40 C410 40.33 410 40.66 410 41 C288.56 41 167.12 41 42 41 C42 67.73 42 94.46 42 122 C176.64 122 311.28 122 450 122 C450 122.33 450 122.66 450 123 C315.03 123 180.06 123 41 123 C41 95.94 41 68.88 41 41 C27.47 41 13.94 41 0 41 C0 27.47 0 13.94 0 0 Z " fill="#613929" transform="translate(819,1393)"/>
<path d="M0 0 C13.53 0 27.06 0 41 0 C41 13.86 41 27.72 41 42 C27.47 42 13.94 42 0 42 C0 28.14 0 14.28 0 0 Z " fill="#601922" transform="translate(1229,1310)"/>
<path d="M0 0 C13.53 0 27.06 0 41 0 C41 13.53 41 27.06 41 41 C27.47 41.33 13.94 41.66 0 42 C0 28.14 0 14.28 0 0 Z " fill="#621922" transform="translate(860,942)"/>
<path d="M0 0 C13.53 0 27.06 0 41 0 C41 13.53 41 27.06 41 41 C27.47 41 13.94 41 0 41 C0 27.47 0 13.94 0 0 Z " fill="#631A22" transform="translate(942,1352)"/>
<path d="M0 0 C13.53 0 27.06 0 41 0 C41 13.53 41 27.06 41 41 C27.47 41 13.94 41 0 41 C0 27.47 0 13.94 0 0 Z " fill="#361819" transform="translate(696,1270)"/>
<path d="M0 0 C13.53 0 27.06 0 41 0 C41 13.53 41 27.06 41 41 C27.47 41 13.94 41 0 41 C0 27.47 0 13.94 0 0 Z " fill="#683924" transform="translate(655,1270)"/>
<path d="M0 0 C13.53 0 27.06 0 41 0 C41 13.53 41 27.06 41 41 C27.47 41 13.94 41 0 41 C0 27.47 0 13.94 0 0 Z " fill="#58676E" transform="translate(819,1106)"/>
<path d="M0 0 C13.53 0 27.06 0 41 0 C41 13.53 41 27.06 41 41 C27.47 41 13.94 41 0 41 C0 27.47 0 13.94 0 0 Z " fill="#34191A" transform="translate(1352,983)"/>
<path d="M0 0 C13.53 0 27.06 0 41 0 C41 13.53 41 27.06 41 41 C27.47 41 13.94 41 0 41 C0 27.47 0 13.94 0 0 Z " fill="#35191B" transform="translate(655,983)"/>
<path d="M0 0 C13.53 0 27.06 0 41 0 C41 13.53 41 27.06 41 41 C27.47 41 13.94 41 0 41 C0 27.47 0 13.94 0 0 Z " fill="#859CA4" transform="translate(737,819)"/>
<path d="M0 0 C13.53 0 27.06 0 41 0 C41 13.53 41 27.06 41 41 C27.47 41 13.94 41 0 41 C0 27.47 0 13.94 0 0 Z " fill="#8A9FA7" transform="translate(1106,369)"/>
<path d="M0 0 C13.53 0 27.06 0 41 0 C41 13.53 41 27.06 41 41 C27.47 41 13.94 41 0 41 C0 27.47 0 13.94 0 0 Z " fill="#C0D0D4" transform="translate(901,369)"/>
<path d="M0 0 C13.2 0 26.4 0 40 0 C40 13.53 40 27.06 40 41 C26.8 41 13.6 41 0 41 C0 27.47 0 13.94 0 0 Z " fill="#864E38" transform="translate(1352,1352)"/>
<path d="M0 0 C13.53 0 27.06 0 41 0 C41 13.2 41 26.4 41 40 C27.47 40 13.94 40 0 40 C0 26.8 0 13.6 0 0 Z " fill="#BF9866" transform="translate(778,1291)"/>
<path d="M0 0 C13.2 0 26.4 0 40 0 C40 13.53 40 27.06 40 41 C26.8 41 13.6 41 0 41 C0 27.47 0 13.94 0 0 Z " fill="#505460" transform="translate(1311,1188)"/>
<path d="M0 0 C13.2 0 26.4 0 40 0 C40 13.53 40 27.06 40 41 C26.8 41 13.6 41 0 41 C0 27.47 0 13.94 0 0 Z " fill="#505460" transform="translate(697,1188)"/>
<path d="M0 0 C13.2 0 26.4 0 40 0 C40 13.53 40 27.06 40 41 C26.8 41 13.6 41 0 41 C0 27.47 0 13.94 0 0 Z " fill="#C0D1D5" transform="translate(1311,983)"/>
<path d="M0 0 C13.2 0 26.4 0 40 0 C40 13.53 40 27.06 40 41 C26.8 41 13.6 41 0 41 C0 27.47 0 13.94 0 0 Z " fill="#C0D0D5" transform="translate(697,983)"/>
<path d="M0 0 C13.2 0 26.4 0 40 0 C40 13.53 40 27.06 40 41 C26.8 41 13.6 41 0 41 C0 27.47 0 13.94 0 0 Z " fill="#341819" transform="translate(1311,942)"/>
<path d="M0 0 C13.2 0 26.4 0 40 0 C40 13.53 40 27.06 40 41 C26.8 41 13.6 41 0 41 C0 27.47 0 13.94 0 0 Z " fill="#34181A" transform="translate(697,942)"/>
<path d="M0 0 C13.2 0 26.4 0 40 0 C40 13.53 40 27.06 40 41 C26.8 41 13.6 41 0 41 C0 27.47 0 13.94 0 0 Z " fill="#C0D1D6" transform="translate(697,819)"/>
<path d="M0 0 C13.2 0 26.4 0 40 0 C40 13.53 40 27.06 40 41 C26.8 41 13.6 41 0 41 C0 27.47 0 13.94 0 0 Z " fill="#859DA4" transform="translate(1311,737)"/>
<path d="M0 0 C13.2 0 26.4 0 40 0 C40 13.2 40 26.4 40 40 C26.8 40 13.6 40 0 40 C0 26.8 0 13.6 0 0 Z " fill="#351819" transform="translate(738,1639)"/>
<path d="M0 0 C13.2 0 26.4 0 40 0 C40 13.2 40 26.4 40 40 C26.8 40 13.6 40 0 40 C0 26.8 0 13.6 0 0 Z " fill="#879DA5" transform="translate(1311,656)"/>
<path d="M0 0 C13.2 0 26.4 0 40 0 C40 13.2 40 26.4 40 40 C26.8 40 13.6 40 0 40 C0 26.8 0 13.6 0 0 Z " fill="#879EA5" transform="translate(1311,574)"/>
<path d="M0 0 C13.2 0 26.4 0 40 0 C40 13.2 40 26.4 40 40 C26.8 40 13.6 40 0 40 C0 26.8 0 13.6 0 0 Z " fill="#C2D3D6" transform="translate(697,574)"/>
<path d="M0 0 C13.2 0 26.4 0 40 0 C40 13.2 40 26.4 40 40 C26.8 40 13.6 40 0 40 C0 26.8 0 13.6 0 0 Z " fill="#C3D2D7" transform="translate(738,492)"/>
<path d="M0 0 C13.2 0 26.4 0 40 0 C40 13.2 40 26.4 40 40 C26.8 40 13.6 40 0 40 C0 26.8 0 13.6 0 0 Z " fill="#341619" transform="translate(1270,451)"/>
<path d="M0 0 C13.2 0 26.4 0 40 0 C40 13.2 40 26.4 40 40 C26.8 40 13.6 40 0 40 C0 26.8 0 13.6 0 0 Z " fill="#89A0A7" transform="translate(1229,451)"/>
<path d="M0 0 C13.2 0 26.4 0 40 0 C40 13.2 40 26.4 40 40 C26.8 40 13.6 40 0 40 C0 26.8 0 13.6 0 0 Z " fill="#C3D3D5" transform="translate(779,451)"/>
<path d="M0 0 C13.2 0 26.4 0 40 0 C40 13.2 40 26.4 40 40 C26.8 40 13.6 40 0 40 C0 26.8 0 13.6 0 0 Z " fill="#341618" transform="translate(738,451)"/>
<path d="M0 0 C13.2 0 26.4 0 40 0 C40 13.2 40 26.4 40 40 C26.8 40 13.6 40 0 40 C0 26.8 0 13.6 0 0 Z " fill="#586970" transform="translate(820,451)"/>
<path d="M0 0 C13.2 0 26.4 0 40 0 C40 13.2 40 26.4 40 40 C26.8 40 13.6 40 0 40 C0 26.8 0 13.6 0 0 Z " fill="#341719" transform="translate(1229,410)"/>
<path d="M0 0 C13.2 0 26.4 0 40 0 C40 13.2 40 26.4 40 40 C26.8 40 13.6 40 0 40 C0 26.8 0 13.6 0 0 Z " fill="#88A0A7" transform="translate(1188,410)"/>
<path d="M0 0 C13.2 0 26.4 0 40 0 C40 13.2 40 26.4 40 40 C26.8 40 13.6 40 0 40 C0 26.8 0 13.6 0 0 Z " fill="#C3D3D6" transform="translate(820,410)"/>
<path d="M0 0 C13.2 0 26.4 0 40 0 C40 13.2 40 26.4 40 40 C26.8 40 13.6 40 0 40 C0 26.8 0 13.6 0 0 Z " fill="#341619" transform="translate(779,410)"/>
<path d="M0 0 C6.93 0 13.86 0 21 0 C21 13.2 21 26.4 21 40 C7.47 40 -6.06 40 -20 40 C-20 33.4 -20 26.8 -20 20 C-13.4 20 -6.8 20 0 20 C0 13.4 0 6.8 0 0 Z " fill="#BE9966" transform="translate(860,1168)"/>
<path d="M0 0 C27.06 0 54.12 0 82 0 C82 0.33 82 0.66 82 1 C55.27 1 28.54 1 1 1 C1 14.2 1 27.4 1 41 C14.2 41 27.4 41 41 41 C41 41.33 41 41.66 41 42 C14.27 42 -12.46 42 -40 42 C-40 55.2 -40 68.4 -40 82 C-26.8 82 -13.6 82 0 82 C0 82.33 0 82.66 0 83 C-26.73 83 -53.46 83 -81 83 C-81 96.2 -81 109.4 -81 123 C-67.88096101 122.96039538 -67.88096101 122.96039538 -54.76196289 122.90991211 C-53.12386134 122.90699299 -51.48575906 122.90444442 -49.84765625 122.90234375 C-48.55982239 122.8946698 -48.55982239 122.8946698 -47.24597168 122.88684082 C-45.16363948 122.8865309 -43.0813964 122.93757824 -41 123 C-39.26858507 124.73141493 -39.88022421 126.95750044 -39.87557983 129.26478577 C-39.88097275 130.39550758 -39.88097275 130.39550758 -39.88647461 131.54907227 C-39.88632858 132.33925751 -39.88618256 133.12944275 -39.8860321 133.943573 C-39.88673143 136.56787822 -39.89452473 139.19211336 -39.90234375 141.81640625 C-39.90420786 143.63101665 -39.9056318 145.44562756 -39.90663147 147.26023865 C-39.91045721 152.0459023 -39.92028796 156.8315358 -39.93133545 161.6171875 C-39.9433427 167.35403571 -39.94795154 173.09089399 -39.95378876 178.82775116 C-39.96349969 187.5518551 -39.98265585 196.27589284 -40 205 C-26.8 205 -13.6 205 0 205 C0 205.33 0 205.66 0 206 C-13.2 206 -26.4 206 -40 206 C-40 219.2 -40 232.4 -40 246 C13.79 246 67.58 246 123 246 C123 246.33 123 246.66 123 247 C68.88 247 14.76 247 -41 247 C-41 233.47 -41 219.94 -41 206 C-54.2 206 -67.4 206 -81 206 C-81 219.2 -81 232.4 -81 246 C-81.33 246 -81.66 246 -82 246 C-82 232.8 -82 219.6 -82 206 C-95.2 206 -108.4 206 -122 206 C-122 219.2 -122 232.4 -122 246 C-122.33 246 -122.66 246 -123 246 C-123 232.8 -123 219.6 -123 206 C-136.53 206 -150.06 206 -164 206 C-164 205.67 -164 205.34 -164 205 C-150.47 205 -136.94 205 -123 205 C-123 177.94 -123 150.88 -123 123 C-109.47 123 -95.94 123 -82 123 C-82 109.47 -82 95.94 -82 82 C-68.47 82 -54.94 82 -41 82 C-41 68.47 -41 54.94 -41 41 C-27.47 41 -13.94 41 0 41 C0 27.47 0 13.94 0 0 Z M-122 124 C-122 150.73 -122 177.46 -122 205 C-108.8 205 -95.6 205 -82 205 C-82 178.27 -82 151.54 -82 124 C-95.2 124 -108.4 124 -122 124 Z M-81 124 C-81 150.73 -81 177.46 -81 205 C-67.8 205 -54.6 205 -41 205 C-41 178.27 -41 151.54 -41 124 C-54.2 124 -67.4 124 -81 124 Z " fill="#857878" transform="translate(819,368)"/>
<path d="M0 0 C1.7297444 0.00025116 3.45949379 0.00581496 5.18920898 0.01586914 C5.99418823 0.01687622 6.79916748 0.0178833 7.62854004 0.0189209 C10.64747534 0.02416925 13.66639041 0.0381304 16.68530273 0.05102539 C23.42967773 0.07165039 30.17405273 0.09227539 37.12280273 0.11352539 C37.12280273 13.64352539 37.12280273 27.17352539 37.12280273 41.11352539 C50.65280273 41.11352539 64.18280273 41.11352539 78.12280273 41.11352539 C78.12280273 54.64352539 78.12280273 68.17352539 78.12280273 82.11352539 C91.65280273 82.11352539 105.18280273 82.11352539 119.12280273 82.11352539 C119.12280273 109.17352539 119.12280273 136.23352539 119.12280273 164.11352539 C132.65280273 164.11352539 146.18280273 164.11352539 160.12280273 164.11352539 C160.12280273 164.44352539 160.12280273 164.77352539 160.12280273 165.11352539 C146.59280273 165.11352539 133.06280273 165.11352539 119.12280273 165.11352539 C119.12280273 178.31352539 119.12280273 191.51352539 119.12280273 205.11352539 C118.79280273 205.11352539 118.46280273 205.11352539 118.12280273 205.11352539 C118.12280273 191.91352539 118.12280273 178.71352539 118.12280273 165.11352539 C104.92280273 165.11352539 91.72280273 165.11352539 78.12280273 165.11352539 C78.12280273 178.31352539 78.12280273 191.51352539 78.12280273 205.11352539 C77.79280273 205.11352539 77.46280273 205.11352539 77.12280273 205.11352539 C77.12280273 191.91352539 77.12280273 178.71352539 77.12280273 165.11352539 C63.59280273 165.11352539 50.06280273 165.11352539 36.12280273 165.11352539 C36.12280273 138.05352539 36.12280273 110.99352539 36.12280273 83.11352539 C22.92280273 83.11352539 9.72280273 83.11352539 -3.87719727 83.11352539 C-3.87719727 82.78352539 -3.87719727 82.45352539 -3.87719727 82.11352539 C9.32280273 82.11352539 22.52280273 82.11352539 36.12280273 82.11352539 C36.12280273 68.91352539 36.12280273 55.71352539 36.12280273 42.11352539 C9.39280273 42.11352539 -17.33719727 42.11352539 -44.87719727 42.11352539 C-44.87719727 41.78352539 -44.87719727 41.45352539 -44.87719727 41.11352539 C-31.67719727 41.11352539 -18.47719727 41.11352539 -4.87719727 41.11352539 C-4.91680188 27.9944864 -4.91680188 27.9944864 -4.96728516 14.87548828 C-4.97020428 13.23738673 -4.97275285 11.59928445 -4.97485352 9.96118164 C-4.97996948 9.10262573 -4.98508545 8.24406982 -4.99035645 7.35949707 C-4.99066636 5.27716487 -4.93961902 3.1949218 -4.87719727 1.11352539 C-3.87719727 0.11352539 -3.87719727 0.11352539 0 0 Z M-3.87719727 1.11352539 C-3.87719727 14.31352539 -3.87719727 27.51352539 -3.87719727 41.11352539 C9.32280273 41.11352539 22.52280273 41.11352539 36.12280273 41.11352539 C36.12280273 27.91352539 36.12280273 14.71352539 36.12280273 1.11352539 C22.92280273 1.11352539 9.72280273 1.11352539 -3.87719727 1.11352539 Z M37.12280273 42.11352539 C37.12280273 55.31352539 37.12280273 68.51352539 37.12280273 82.11352539 C50.32280273 82.11352539 63.52280273 82.11352539 77.12280273 82.11352539 C77.12280273 68.91352539 77.12280273 55.71352539 77.12280273 42.11352539 C63.92280273 42.11352539 50.72280273 42.11352539 37.12280273 42.11352539 Z M37.12280273 83.11352539 C37.12280273 109.84352539 37.12280273 136.57352539 37.12280273 164.11352539 C50.32280273 164.11352539 63.52280273 164.11352539 77.12280273 164.11352539 C77.12280273 137.38352539 77.12280273 110.65352539 77.12280273 83.11352539 C63.92280273 83.11352539 50.72280273 83.11352539 37.12280273 83.11352539 Z M78.12280273 83.11352539 C78.12280273 109.84352539 78.12280273 136.57352539 78.12280273 164.11352539 C91.32280273 164.11352539 104.52280273 164.11352539 118.12280273 164.11352539 C118.12280273 137.38352539 118.12280273 110.65352539 118.12280273 83.11352539 C104.92280273 83.11352539 91.72280273 83.11352539 78.12280273 83.11352539 Z " fill="#767579" transform="translate(1232.877197265625,408.886474609375)"/>
<path d="M0 0 C13.53 0 27.06 0 41 0 C41 0.33 41 0.66 41 1 C27.8 1 14.6 1 1 1 C1 41.26 1 81.52 1 123 C14.2 123 27.4 123 41 123 C41 109.47 41 95.94 41 82 C54.53 82 68.06 82 82 82 C82 82.33 82 82.66 82 83 C68.8 83 55.6 83 42 83 C42 96.2 42 109.4 42 123 C82.26 123 122.52 123 164 123 C164 123.33 164 123.66 164 124 C137.27 124 110.54 124 83 124 C83 137.2 83 150.4 83 164 C82 165 82 165 78.12280273 165.11352539 C76.39305834 165.11327423 74.66330895 165.10771043 72.93359375 165.09765625 C72.1286145 165.09664917 71.32363525 165.09564209 70.4942627 165.09460449 C67.47532739 165.08935614 64.45641233 165.075395 61.4375 165.0625 C51.3209375 165.0315625 51.3209375 165.0315625 41 165 C41 151.47 41 137.94 41 124 C27.47 124 13.94 124 0 124 C0 83.08 0 42.16 0 0 Z M42 124 C42 137.2 42 150.4 42 164 C55.2 164 68.4 164 82 164 C82 150.8 82 137.6 82 124 C68.8 124 55.6 124 42 124 Z " fill="#85726D" transform="translate(696,1515)"/>
<path d="M0 0 C0.33 0 0.66 0 1 0 C1 26.73 1 53.46 1 81 C14.2 81 27.4 81 41 81 C41 54.27 41 27.54 41 0 C41.33 0 41.66 0 42 0 C42 26.73 42 53.46 42 81 C55.2 81 68.4 81 82 81 C82 81.33 82 81.66 82 82 C68.8 82 55.6 82 42 82 C42 95.2 42 108.4 42 122 C95.79 122 149.58 122 205 122 C205 122.33 205 122.66 205 123 C150.88 123 96.76 123 41 123 C41 109.47 41 95.94 41 82 C27.8 82 14.6 82 1 82 C1 95.2 1 108.4 1 122 C0.67 122 0.34 122 0 122 C0 81.74 0 41.48 0 0 Z " fill="#748389" transform="translate(737,492)"/>
<path d="M0 0 C0.33 0 0.66 0 1 0 C1 13.2 1 26.4 1 40 C14.2 40 27.4 40 41 40 C41 26.8 41 13.6 41 0 C41.33 0 41.66 0 42 0 C42 13.2 42 26.4 42 40 C68.73 40 95.46 40 123 40 C123 40.33 123 40.66 123 41 C96.27 41 69.54 41 42 41 C42 54.2 42 67.4 42 81 C41.67 81.33 41.34 81.66 41 82 C27.8 82 14.6 82 1 82 C1 108.73 1 135.46 1 163 C0.67 163 0.34 163 0 163 C0 136.27 0 109.54 0 82 C-13.53 82 -27.06 82 -41 82 C-41 68.47 -41 54.94 -41 41 C-40.67 41 -40.34 41 -40 41 C-40 54.2 -40 67.4 -40 81 C-26.8 81 -13.6 81 0 81 C0 54.27 0 27.54 0 0 Z M1 41 C1 54.2 1 67.4 1 81 C14.2 81 27.4 81 41 81 C41 67.8 41 54.6 41 41 C27.8 41 14.6 41 1 41 Z " fill="#86949A" transform="translate(819,410)"/>
<path d="M0 0 C0.33 0 0.66 0 1 0 C1 40.26 1 80.52 1 122 C14.2 122 27.4 122 41 122 C41 122.33 41 122.66 41 123 C27.8 123 14.6 123 1 123 C1 163.26 1 203.52 1 245 C0.67 245 0.34 245 0 245 C0 204.74 0 164.48 0 123 C-13.2 123 -26.4 123 -40 123 C-40 149.73 -40 176.46 -40 204 C-40.33 204 -40.66 204 -41 204 C-41 163.74 -41 123.48 -41 82 C-40.67 82 -40.34 82 -40 82 C-40 95.2 -40 108.4 -40 122 C-26.8 122 -13.6 122 0 122 C0 81.74 0 41.48 0 0 Z " fill="#6C4133" transform="translate(778,1393)"/>
<path d="M0 0 C13.53 0 27.06 0 41 0 C41 0.33 41 0.66 41 1 C27.8 1 14.6 1 1 1 C1 27.73 1 54.46 1 82 C14.2 82 27.4 82 41 82 C41 82.33 41 82.66 41 83 C27.8 83 14.6 83 1 83 C1 96.2 1 109.4 1 123 C0.67 123 0.34 123 0 123 C0 109.8 0 96.6 0 83 C-13.53 83 -27.06 83 -41 83 C-41 82.67 -41 82.34 -41 82 C-27.47 82 -13.94 82 0 82 C0 54.94 0 27.88 0 0 Z " fill="#8D8182" transform="translate(696,491)"/>
<path d="M0 0 C0.33 0 0.66 0 1 0 C1 13.2 1 26.4 1 40 C14.2 40 27.4 40 41 40 C41 40.33 41 40.66 41 41 C27.8 41 14.6 41 1 41 C1 47.6 1 54.2 1 61 C0.67 61 0.34 61 0 61 C0 54.4 0 47.8 0 41 C-13.2 41 -26.4 41 -40 41 C-40 61.13 -40 81.26 -40 102 C-40.33 102 -40.66 102 -41 102 C-41 81.54 -41 61.08 -41 40 C-27.47 40 -13.94 40 0 40 C0 26.8 0 13.6 0 0 Z " fill="#624B48" transform="translate(860,1639)"/>
<path d="M0 0 C4.62 0 9.24 0 14 0 C14 0.33 14 0.66 14 1 C10.37 1.33 6.74 1.66 3 2 C2.67 14.21 2.34 26.42 2 39 C14.87 39 27.74 39 41 39 C41 39.66 41 40.32 41 41 C27.47 41 13.94 41 0 41 C0 27.47 0 13.94 0 0 Z " fill="#876146" transform="translate(737,1270)"/>
<path d="M0 0 C3.3 0 6.6 0 10 0 C10 0.33 10 0.66 10 1 C8.2984375 1.2165625 8.2984375 1.2165625 6.5625 1.4375 C3.19222799 1.61171478 3.19222799 1.61171478 2 3 C1.91066965 5.25676808 1.89317003 7.5163856 1.90234375 9.77490234 C1.90378136 10.48701118 1.90521896 11.19912003 1.90670013 11.93280792 C1.91048572 13.49242205 1.91659675 15.0520318 1.92469788 16.61162949 C1.9376426 19.11349861 1.94464479 21.61532198 1.95007324 24.11721802 C1.95834842 27.68500844 1.96904493 31.25277904 1.98168945 34.82055664 C2.01331559 44.00274478 2.02606115 53.18494931 2.03125 62.3671875 C2.03179886 63.26916115 2.03234772 64.1711348 2.03291321 65.10044098 C2.03964806 85.4097429 1.69584197 105.70214177 1 126 C0.67 126 0.34 126 0 126 C0 84.42 0 42.84 0 0 Z " fill="#27191B" transform="translate(1229,1106)"/>
<path d="M0 0 C0 0.33 0 0.66 0 1 C-27.35155345 1.13942836 -54.65997642 0.80619942 -82 0 C-82 -0.33 -82 -0.66 -82 -1 C-54.54203281 -1.90236614 -27.39910266 -2.2152466 0 0 Z " fill="#483C41" transform="translate(983,1597)"/>
<path d="M0 0 C0.33 0 0.66 0 1 0 C1 9.57 1 19.14 1 29 C-1.31 29 -3.62 29 -6 29 C-5.0409375 28.5359375 -5.0409375 28.5359375 -4.0625 28.0625 C-2.06389179 27.1654837 -2.06389179 27.1654837 -1 26 C-0.84193469 24.07521187 -0.748865 22.1450079 -0.68359375 20.21484375 C-0.64169922 19.04501953 -0.59980469 17.87519531 -0.55664062 16.66992188 C-0.49766602 14.82237305 -0.49766602 14.82237305 -0.4375 12.9375 C-0.37272461 11.08415039 -0.37272461 11.08415039 -0.30664062 9.19335938 C-0.20015802 6.12902665 -0.09814576 3.06460927 0 0 Z " fill="#433B48" transform="translate(982,1568)"/>
</svg>
