<svg xmlns="http://www.w3.org/2000/svg" width="512" height="512" viewBox="0 0 512 512"><path fill="#45545c" d="M241.178.587h88.933V15.41h29.645v14.823h14.822v14.822H389.4v14.46h14.822V89.16h14.823v118.578h14.822v14.822h-14.822v14.823h-59.29v14.822h14.823v14.822H389.4v44.467h-14.822v133.4h-14.822v66.52h-59.29v-37.237h-14.822v37.236h-74.11v-22.414h14.822v-14.822h-14.823v-29.283h-14.822v-59.29h-14.822v-14.821h-14.822V355.96h-29.645v-14.822h-14.46v-14.822h14.46v-29.644H122.6v-29.645h-14.822v-29.644H92.955v-29.645H78.133v-59.289h30.006v14.822h14.822v14.823h14.823v14.822h14.46V89.159h14.823l-.013-6.393-.005-3.998q-.003-3.177-.01-6.353-.006-2.56-.007-5.12 0-.978-.004-1.957a897 897 0 0 1-.002-2.733l-.004-.825c.003-1.863.003-1.863.406-2.265a89 89 0 0 1 3.199-.036l.86.001q1.598.004 3.194.012l7.208.023V44.692h14.822v-14.46h14.822V15.409h29.645z"/><path fill="#341619" d="M241.178 207.737H256v44.467h44.467v14.822h-14.823v44.467h88.572v133.039h-14.46v-29.283H241.178v14.822H256v14.822h103.394c.416 38.654.416 38.654.384 52.172l-.022 14.347h-59.29v-37.236h-14.822v37.236h-74.11v-22.414h14.822v-14.822h-14.823v-29.283h-14.822v-59.289h-14.822v-14.822h-14.822V355.96h-29.645v-14.823h-14.46v-14.822h14.46v-29.644h-14.46v-29.645h14.822v29.645h14.46v14.822h29.645v-29.645h29.644v-14.822h-14.822v-14.822h44.467z"/><path fill="#5b6c74" d="M404.223 133.626v74.111h29.644v14.822h-14.822v14.823h-59.29v14.822h14.823v14.822H389.4v44.467h-14.822v133.4h-14.822v33.621h-.362v-33.621H256v-14.822h-14.822v-14.822h118.578v29.283h14.46v-133.04h-88.571v-44.466h14.822v-29.644h14.822v-59.29h-14.822V148.81h-14.822v-14.822l50.487-.155 1.071-.003 63.517-.195 1.25-.003 1.088-.004z"/><path fill="#34171a" d="M241.178 207.737H256v44.467h44.467v14.822h-14.823v44.467h88.572v133.039h-14.46v-29.283h-44.467v-14.823h44.467v-15.183h-59.65v14.099c-.724.723-.724.723-1.49.812l-.968-.002-1.109.003-1.221-.008h-1.283q-1.743 0-3.486-.009-1.821-.005-3.642-.006-3.45-.004-6.899-.015-3.926-.011-7.852-.016-8.078-.011-16.156-.036v14.822h-14.46v-14.822h-15.184v15.184h-14.823v29.283h-14.46v-58.928h88.571v-14.822h29.645V355.96h14.822v14.822h29.645v-29.645h-14.823v-14.822h-88.571v-14.822h14.46v-29.645H256v14.823h-29.644v14.822h-14.823v14.822H256v14.822h-44.467v14.823h-14.822v29.283h-14.46v-14.461h-15.184V355.96h-29.645v-14.823h-14.46v-14.822h14.46v-29.644h-14.46v-29.645h14.822v29.645h14.46v14.822h29.645v-29.645h29.644v-14.822h-14.822v-14.822h44.467z"/><path fill="#fbb48d" d="M196.711 148.448h14.822v44.467h14.822v-29.644h14.823v-14.823h29.644v44.467h14.822V148.81h14.823v29.283h14.822v59.289h-14.822v14.822H256v-44.467h-14.822v44.467H196.71v14.822h14.822v14.822H181.89v-29.644h-14.822v-14.822h14.822v-44.467h14.822z"/><path fill="#89a0a8" d="M211.533 15.41h44.828v14.822h44.106v29.283h14.46V45.054h15.184v14.46h14.822v15.184h14.823v29.283H330.11V59.876h-14.82v44.105H197.073v-14.46h14.46V59.876h-14.822V89.16h-14.822V59.876h-14.461v-.361h14.46V44.692h14.823v-14.46h14.822z"/><path fill="#5c6e75" d="M300.467 252.204h74.111v14.822H389.4v44.467h-14.822v133.4h-14.822v33.621h-.362v-33.62H256V430.07h-14.822v-14.822h118.578v29.283h14.46V311.493h-88.571v-44.467h14.822z"/><path fill="#8d533e" d="M256 281.849h14.822v29.644h-14.46v14.822h88.571v14.823h14.823v29.644H330.11V355.96h-14.82v14.822h-29.645v14.822h-88.571v58.928h14.46v-29.283h14.823v29.644h-14.461v29.283h-.362v-29.283h-14.822v-59.289H181.89v-14.822h.361v14.46h14.461V355.96h14.822v-14.822H256v-14.823h-44.467v-14.822h14.823v-14.822H256z"/><path fill="#8aa0aa" d="M78.133 148.448h30.006v14.823h14.822v14.822h14.822v14.822h29.283v29.644h-14.822v29.645h29.645v59.289h-29.645V296.67h-14.46v-29.645H122.96v29.645h-.361v-29.645h-14.823v-29.644H92.955v-29.645H78.133z"/><path fill="#35171a" d="M285.645 311.493h88.571v133.039h-14.46v-29.283h-44.467v-14.822h44.467v-15.184h-59.65v14.099c-.724.723-.724.723-1.49.812l-.968-.002-1.109.003-1.221-.008h-1.283q-1.743 0-3.486-.009-1.821-.005-3.642-.006-3.45-.004-6.899-.015-3.926-.011-7.852-.016-8.078-.011-16.156-.036v14.822h-14.46v-14.822h-15.184v15.184h-14.823v29.283h-14.46v-58.928h88.572v-14.822h29.644V355.96h14.822v14.822h29.645v-29.644h-14.823v-14.823h-59.288z"/><path fill="#5d6e75" d="M241.178.587h88.933V15.41h29.645v14.823h14.822v14.822H389.4v14.46h14.822V89.16h14.823v.362h-14.823c.015 4.742.015 4.742.033 9.485l.003 1.777.005.94c0 .753-.018 1.506-.04 2.258-.64.64-1.488.406-2.34.409l-.865-.004-.914.001-3.054-.003h-2.18q-2.97 0-5.938-.004-3.099-.004-6.198-.003-5.872-.002-11.746-.008-6.684-.006-13.369-.008-13.753-.006-27.508-.018v-.362h29.645V74.698h-14.823V59.515h-14.822V45.054h-15.184v14.46h-14.46V30.233h-44.105V15.409h-15.184z"/><path fill="#8aa0aa" d="M241.178 148.448h29.644v44.467h14.822V148.81h14.823v29.283h14.822v59.289h-14.822v14.822H256V163.27h-14.822z"/><path fill="#3b4357" d="M359.756 385.243v15.184h-44.467v14.822h-88.572v29.283h14.46v14.822h29.645v37.236h-44.466v-7.23h-14.461v21.691h73.75v.362h-74.112v-22.415h14.823v-14.822h-14.461v-29.283h14.46v-44.828h15.184v14.822H256v-14.822l3.977-.027q6.486-.046 12.973-.096l7.87-.057q3.428-.023 6.857-.05 1.817-.015 3.633-.026 2.025-.014 4.049-.031l1.225-.007 1.108-.01.968-.007c.722.029.722.029 1.084-.412.027-.61.03-1.223.022-1.834l-.008-1.163-.028-2.401a76 76 0 0 1 .196-6.324l.101-1.356.078-1.021q8.223-.085 16.447-.16 3.821-.035 7.642-.075c11.863-.123 23.7-.122 35.562.235"/><path fill="#79614e" d="M359.756 252.204h14.822v14.822H389.4v44.467h-14.822v133.4h-14.822v33.621h-.362v-33.62H256V430.07h-14.822v-14.822h118.578v29.283h14.46V311.493h-88.571v-.362h88.571v-44.105h-14.46z"/><path fill="#899fa7" d="M167.428 89.52h14.46v29.645h163.045v14.461H181.89v59.289h-14.461z"/><path fill="#33171a" d="M330.111 148.448h14.823v59.29h14.822v14.821h59.289v14.823h-59.29v14.822h-59.288v-14.822h14.822v-14.823h14.822z"/><path fill="#341619" d="M182.25 133.988h103.394v58.927h-14.822v-44.467h-29.644v14.823h-14.823v29.644h-14.822v-44.467h-14.822v44.467h-14.46z"/><path fill="#45535a" d="M404.223 133.626v74.111h-.362v-59.289h-73.75v74.111H315.29v-44.466h-14.822V148.81h-14.822v-14.822l50.487-.155 1.071-.003 63.517-.195 1.25-.003 1.088-.004z"/><path fill="#5a5d6b" d="M256 281.849h14.822v29.644h-14.46v14.822h44.105v7.23h7.592v7.593h-7.592v14.822h-29.645c-.593-1.186-.405-2.497-.397-3.799l.002-.816q.002-1.512.011-3.022l.023-6.824h-14.823c.12-5.01.24-10.021.362-15.184h-44.467v-14.822h14.823v-14.822H256z"/><path fill="#8d533e" d="M122.961 267.026h14.822v59.29h29.283v14.822h29.645v44.105h-14.46v-14.461h-15.185V355.96h-29.644v-14.822h-14.46v-14.823h14.46v-29.644h-14.46z"/><path fill="#3e4355" d="M300.467 326.315h44.466v14.823h14.823v29.644H330.11V355.96h-14.82v14.822h-29.644V355.96h14.822v-14.822h7.592v-7.592h-7.592z"/><path fill="#889ea9" d="M300.467 252.204h44.466v23.137h7.23v14.1c-2.385-.12-4.771-.24-7.23-.362v7.592h-44.466z"/><path fill="#611722" d="M359.756 385.243v15.184h-44.467v14.822h-74.111v-14.822h-14.822v-.362h15.183v14.822H256v-14.822l3.977-.027q6.486-.046 12.973-.096l7.87-.057q3.428-.023 6.857-.05 1.817-.015 3.633-.026 2.025-.014 4.049-.031l1.225-.007 1.108-.01.968-.007c.722.029.722.029 1.084-.412.027-.61.03-1.223.022-1.834l-.008-1.163-.028-2.401a76 76 0 0 1 .196-6.324l.101-1.356.078-1.021q8.223-.085 16.447-.16 3.821-.035 7.642-.075c11.863-.123 23.7-.122 35.562.235"/><path fill="#331619" d="M404.223 89.52h14.822v118.217h-14.822l-.155-37.182-.003-.794-.137-32.92a6770 6770 0 0 1-.077-26.467v-.909a440 440 0 0 1 .19-13.64z"/><path fill="#899ea6" d="M389.4 148.81h14.461v58.927h30.006v14.822H389.4v-14.822h-14.822v-14.822H389.4z"/><path fill="#5b6c73" d="M285.645 148.448h44.466v74.111H315.29v-44.466h-14.822V148.81h-14.822z"/><path fill="#331719" d="M152.244 89.52h14.822v103.395h-14.822z"/><path fill="#a3917d" d="M241.178 415.249h44.466v14.46h29.645v14.823h-58.927V429.71h-15.184z"/><path fill="#341719" d="M241.178.587h88.933V15.41h-88.933z"/><path fill="#703e29" d="M300.467 459.716h44.466v36.874H315.29v-22.414h-14.822z"/><path fill="#c4d6da" d="M108.139 178.454h14.46v14.823h14.823v29.283h14.822v29.644h-14.822v-14.822h-7.23V222.56h-7.23v-14.823h-7.593v-14.822h-7.23z"/><path fill="#899ea6" d="M256 119.165h88.933v14.461H256z"/><path fill="#693a27" d="M270.822 355.96h14.822v29.644h-59.288v-14.822H256v-7.592h14.822z"/><path fill="#899fa9" d="M226.355 296.67H256v29.645h-44.467v-14.822h14.822z"/><path fill="#d47d65" d="M241.178 148.448h29.644v59.29H256V163.27h-14.822z"/><path fill="#34171a" d="M315.289 222.56h14.822v14.822h29.283v14.822h-58.927v-14.822h14.822zm-147.861-29.645h14.46v44.467h-14.822v14.822h-14.822V222.56h15.184z"/><path fill="#321619" d="M78.494 148.81h29.283v14.46H92.955v44.467h-14.46z"/><path fill="#5b6b72" d="M256 118.804h148.222v14.822c-.361.362-.361.362-.99.407h-.837l-.965.002-1.075-.003-1.135.001q-1.908.001-3.816-.002h-2.743q-2.996.002-5.99 0-4.455-.004-8.908-.002l-14.982-.003q-7.42-.004-14.84-.004h-5.612q-16.588-.002-33.178-.007l-32.238-.008h-1.003l-31.236-.004-28.645-.006h-.822l-32.957-.01v58.928h-.361v-59.289h163.044v-14.46H256z"/><path fill="#5c6d74" d="M167.066 59.876h14.823V89.16h14.822V59.876h14.822v29.645h-14.46v14.46h-.362v-14.46h-14.46v29.283H256v.361h-74.111V89.521h-14.461v133.038h-.362V89.521h-14.822v-.362h14.822z"/><path fill="#899fa7" d="M270.822 222.56h14.822v14.822h14.823v14.822H256v-14.822h14.822z"/><path fill="#34171a" d="M359.756 222.56h59.289v14.822h-59.29z"/><path fill="#54281a" d="M211.533 148.448h29.645v14.823h-14.823v29.644h-14.822z"/><path fill="#c7d6dc" d="M241.178 45.054h29.644v14.46H256v14.823h-29.644V59.515h14.822z"/><path fill="#c3d4d9" d="M196.711 119.165H256v14.461h-59.29z"/><path fill="#6e3d2a" d="M241.178 474.176h29.644v22.414h-44.466v-7.23h-14.461v21.691h73.75v.362h-74.112v-22.414h29.645z"/><path fill="#5c6d76" d="M344.934 341.138h14.822v29.644H330.11V355.96h14.823z"/><path fill="#34161a" d="M211.533 326.315H256v14.823h-44.467z"/><path fill="#7f272e" d="M226.355 267.026h44.467v14.823h-44.467z"/><path fill="#fdfcfc" d="M181.889 252.204h14.822v14.822h14.822v14.823H181.89z"/><path fill="#c4d5da" d="M285.645 148.81h14.822v44.105h-14.822z"/><path fill="#5c2f1f" d="M332.506 208.017q.843 0 1.686.011l.897.003q1.42.007 2.84.023l1.923.01q2.36.011 4.72.035.093 2.19.18 4.383l.053 1.23.05 1.236.045 1.113c.05 2.166.034 4.332.034 6.499h14.822v29.644h-.362v-14.822h-29.283c-.05-14.46-.05-14.46.115-21.665l.038-1.814q.025-1.263.06-2.527l.012-.756c.058-1.854.174-2.478 2.17-2.603"/><path fill="#34171a" d="M137.783 296.67h14.461v14.823h14.822v14.822h-29.283z"/><path fill="#3b455a" d="M300.467 459.716h44.466v14.46h-44.466z"/><path fill="#341719" d="M167.428 355.96h29.283v29.283h-14.46c-.12-4.772-.24-9.544-.362-14.46l-14.461-.362z"/><path fill="#331619" d="M374.578 267.026h14.46v44.106h-14.46z"/><path fill="#89a0a7" d="M389.4 148.81h14.461v44.105h-14.46z"/><path fill="#70382d" d="M181.889 281.849h.361v29.644h14.461v14.822h-29.645v-14.822h14.823z"/><path fill="#813331" d="M256.362 400.427h29.282v14.46h29.645v.362h-58.927z"/><path fill="#5d6e75" d="M256 281.849h14.822v29.644H256z"/><path fill="#c3d4d8" d="M167.066 281.849h14.823v29.644h-14.823z"/><path fill="#34181c" d="M167.066 252.204h14.823v29.645h-14.823z"/><path fill="#c4d6da" d="M152.244 252.204h14.822v29.645h-14.822z"/><path fill="#fdfcfc" d="M152.244 192.915h14.822v29.645h-14.822z"/><path fill="#89a0a8" d="M359.756 163.27h14.822v29.645h-14.822z"/><path fill="#34181a" d="M330.111 15.41h29.645v14.822H330.11z"/><path fill="#8ca1a9" d="M300.467 15.41h29.644v14.822h-29.644z"/><path fill="#34181a" d="M211.533 15.41h29.645v14.822h-29.645z"/><path fill="#823230" d="M300.467 385.604h29.644v14.461a944 944 0 0 1-29.644.362z"/><path fill="#3e4355" d="M256.362 311.493h29.282v14.822h-29.282z"/><path fill="#f4f7f7" d="M226.355 163.632h14.823v29.283h-14.823z"/><path fill="#8ca0a8" d="M181.889 59.876h14.822V89.16h-14.822z"/><path fill="#44545b" d="M300.467 30.232h14.822a910 910 0 0 1-.362 29.283h-14.46z"/><path fill="#6c2126" d="M285.645 400.427h29.644v14.46h-29.644z"/><path fill="#33161a" d="M122.961 267.026h14.461v29.645h-14.46z"/><path fill="#331618" d="M211.895 163.27h14.46v29.645h-14.46z"/><path fill="#341619" d="M211.895 444.893h14.46v29.283h-14.46z"/><path fill="#a5937d" d="M211.895 415.249h14.46v29.283h-14.46z"/><path fill="#341719" d="M137.783 341.138h29.283v14.46h-29.283z"/><path fill="#32161a" d="M108.139 237.382h14.46v29.283h-14.46z"/><path fill="#c5d7db" d="M256.362 208.099h14.46v29.283h-14.46z"/><path fill="#33161a" d="M93.317 208.099h14.46v29.283h-14.46z"/><path fill="#321619" d="M137.783 193.277h14.461v29.283h-14.46z"/><path fill="#c5d6db" d="M167.428 89.52h14.46v29.284h-14.46z"/><path fill="#331618" d="M389.4 59.876h14.461V89.16h-14.46z"/><path fill="#8aa0a8" d="M374.578 59.876h14.46V89.16h-14.46z"/><path fill="#331618" d="M167.428 59.876h14.46V89.16h-14.46z"/><path fill="#5d6e75" d="M226.717 30.232H256v14.46h-29.283z"/><path fill="#c5d6da" d="M167.428 133.626h7.23v44.467h-7.23z"/><path fill="#693c2a" d="M181.889 370.782h.361v14.46h14.461v-14.46h14.822v14.822h-14.46v58.928h14.46v-29.283h.362v29.283h14.46v.361h-14.46v29.283h-.362v-29.283h-14.822v-59.289h-14.822z"/><path fill="#d17c65" d="M196.711 148.448h14.822v14.823h-14.46v29.644h-.362z"/><path fill="#879fa6" d="M285.645 148.448h29.644v14.823h-14.822V148.81h-14.822z"/><path fill="#ad8552" d="M226.355 400.427h14.823v14.822h-14.823z"/><path fill="#33181c" d="M330.111 341.138h14.823v14.822H330.11z"/><path fill="#6a3927" d="M181.889 341.138h14.822v14.822h-14.822z"/><path fill="#6a3925" d="M226.355 341.138h14.823v14.822h-14.823z"/><path fill="#6b3a28" d="M196.711 326.315h14.822v14.823h-14.822z"/><path fill="#693a27" d="M152.244 326.315h14.822v14.823h-14.822z"/><path fill="#c2d4d9" d="M211.533 311.493h14.822v14.822h-14.822z"/><path fill="#8e4d3c" d="M167.066 311.493h14.823v14.822h-14.823z"/><path fill="#9b6e44" d="M196.711 296.67h14.822v14.823h-14.822z"/><path fill="#c3d6db" d="M315.289 267.026h14.822v14.823H315.29z"/><path fill="#5c6c74" d="M285.645 237.382h14.822v14.822h-14.822z"/><path fill="#fcfafa" d="M167.066 237.382h14.823v14.822h-14.823z"/><path fill="#d37e67" d="M226.355 237.382h14.823v14.822h-14.823z"/><path fill="#5b6b72" d="M300.467 222.56h14.822v14.822h-14.822z"/><path fill="#46535b" d="M270.822 222.56h14.822v14.822h-14.822z"/><path fill="#35171a" d="M256 192.915h14.822v14.822H256z"/><path fill="#8aa0a9" d="M374.578 192.915H389.4v14.822h-14.822z"/><path fill="#33181a" d="M359.756 30.232h14.822v14.822h-14.822z"/><path fill="#8aa0a7" d="M344.934 30.232h14.822v14.822h-14.822z"/><path fill="#c6d5da" d="M211.533 30.232h14.822v14.822h-14.822z"/><path fill="#46545c" d="M285.645 15.41h14.822v14.822h-14.822z"/><path fill="#c8d6db" d="M241.178 15.41H256v14.822h-14.822z"/><path fill="#341619" d="M226.717 474.176h14.46V489h-14.46z"/><path fill="#9b6d43" d="M137.783 326.315h14.461v14.823h-14.46z"/><path fill="#34181c" d="M256.362 311.493h14.46v14.822h-14.46z"/><path fill="#35191c" d="M359.756 252.204h14.46v14.822h-14.46z"/><path fill="#341718" d="M182.25 237.382h14.461v14.822h-14.46z"/><path fill="#c5d6da" d="M270.822 193.277h14.822v14.46h-14.822z"/><path fill="#5b6d74" d="M389.4 192.915h14.461v14.822h-14.46z"/><path fill="#435058" d="M300.467 163.632h14.822v14.46h-14.822z"/><path fill="#661822" d="M256 267.026h14.822l.045 6.824.02 2.153.006 1.685.011.888c0 .73-.037 1.46-.082 2.188-.723.723-.723.723-2.1.805q-.888 0-1.778-.011l-.837-.003q-1.552-.006-3.103-.023l-7.004-.045z"/><path fill="#34161a" d="M122.961 326.315h14.461v14.461h-14.46z"/><path fill="#321618" d="M419.045 208.099h14.46v14.46h-14.46z"/><path fill="#311518" d="M122.961 178.454h14.461v14.461h-14.46z"/><path fill="#321618" d="M108.139 163.632h14.46v14.46h-14.46z"/><path fill="#c5d5da" d="M93.317 163.632h14.46v14.46h-14.46z"/><path fill="#889da6" d="M389.4 119.165h14.461v14.461h-14.46z"/><path fill="#8ba1a8" d="M389.4 89.52h14.461v14.462h-14.46z"/><path fill="#c8d6dc" d="M182.25 59.876h14.461v14.461h-14.46z"/><path fill="#311517" d="M374.578 45.054h14.46v14.46h-14.46z"/><path fill="#8ca1a9" d="M359.756 45.054h14.46v14.46h-14.46z"/><path fill="#8aa1a8" d="M226.717 45.054h14.46v14.46h-14.46z"/><path fill="#5c6d74" d="M211.895 45.054h14.46v14.46h-14.46z"/><path fill="#c8d8dd" d="M197.073 45.054h14.46v14.46h-14.46z"/><path fill="#321517" d="M182.25 45.054h14.461v14.46h-14.46z"/><path fill="#311516" d="M197.073 30.232h14.46v14.46h-14.46z"/><path fill="#797072" d="M78.133 148.448h30.006v14.823h14.822v14.822h14.822v14.822h14.461v.362h-14.46v29.282h-.362v-29.282H122.6v-29.645h-14.461v14.46h-.362v-14.46h-14.46v44.105h14.822v58.928h14.46v-29.283h.362v59.289h-.361v-29.645h-14.823V208.1h-14.46v29.283h-.362V163.27h14.822v-14.46H78.494v58.927h-.361zm44.828 30.006v14.461h14.46v-14.46z"/><path fill="#5b5254" d="M374.217 252.204h.361v58.927h14.46v-44.105h.362v44.467h-14.822v133.039h-.361V311.493h-88.572v-.362h88.572z"/><path fill="#777a7f" d="M167.066 59.876h.362V89.16h44.105v.362h-14.46v14.46h-.362v-14.46h-14.46v29.283H256v.361h-74.111V89.521h-14.461v133.038h-.362V89.521h-14.822v-.362h14.822z"/><path fill="#8a523b" d="M315.289 488.999h14.822v7.591H315.29z"/><path fill="#89513a" d="M226.355 489.36h14.823v7.23h-14.823z"/><path fill="#7e939e" d="M344.934 275.341h7.23v14.1c-2.386-.12-4.772-.24-7.23-.362z"/><path fill="#78797d" d="M374.217 45.054h.361v14.46h14.46v-14.46h.362v14.46h14.823V89.16h14.822v.362h-14.822v14.46h-.362v-14.46h-14.46v14.46h-.362v-14.46c-4.743.014-4.743.014-9.486.032l-1.776.003-.94.006c-.754 0-1.507-.019-2.259-.041-.626-.626-.405-1.431-.406-2.265l.003-.826v-.866q0-1.422.006-2.846l.002-1.968q.002-2.595.009-5.19l.008-6.222q.005-4.731.017-9.462h-14.461v-.361h14.46zm.361 14.822V89.16h14.46V59.876zm14.822 0V89.16h14.461V59.876z"/><path fill="#705d5b" d="M137.422 267.026h.361v88.572h29.283v-14.46h.362v14.46h14.46v.362h-14.46v14.46h14.46v.362h-14.822V355.96h-29.644v-14.822h-14.46v-.362h14.46z"/><path fill="#50211e" d="M359.756 385.243v.361h-59.29v14.823h-44.104v14.822h-15.184v-14.822h-14.822v-.362h15.183v14.822H256v-14.822l3.977-.027q6.486-.046 12.973-.096l7.87-.057q3.428-.023 6.857-.05 1.817-.015 3.633-.026 2.025-.014 4.049-.031l1.225-.007 1.108-.01.968-.007c.722.029.722.029 1.084-.412.027-.61.03-1.223.022-1.834l-.008-1.163-.028-2.401a76 76 0 0 1 .196-6.324l.101-1.356.078-1.021q8.223-.085 16.447-.16 3.821-.035 7.642-.075c11.86-.123 23.705-.164 35.562.235"/><path fill="#818286" d="M196.711 30.232h.362v14.46c4.742-.014 4.742-.014 9.485-.032l1.777-.003.94-.005c.753 0 1.506.018 2.258.04.362.362.362.362.403 1.73q0 .915-.006 1.83l-.001.86q-.004 1.598-.012 3.195l-.022 7.208h14.46v.361h-14.46V89.16h-.362V59.876h-44.105v-.361h14.46V44.692h14.823zm-14.46 14.822v14.46h14.46v-14.46zm14.822 0v14.46h14.46v-14.46z"/><path fill="#32282c" d="M330.111 148.448h14.823v59.29h14.822v14.821h-.362V208.1h-14.46v9.4h-.362v-9.4q-2.848.064-5.695.134l-1.939.046q-1.39.03-2.78.067l-.882.018c-1.33-.087-1.33-.087-2.442.458a83 83 0 0 0-.114 3.04l-.023.923q-.035 1.464-.066 2.928l-.047 1.98q-.06 2.434-.111 4.866h-.362v-14.822h14.461V148.81h-14.46z"/><path fill="#261316" d="M182.25 133.988h74.834v.361l-1.15.005q-13.839.055-27.678.118-6.692.03-13.385.057-5.83.023-11.661.05-3.09.015-6.179.026-2.904.01-5.808.026l-2.139.009q-1.452.004-2.906.013l-.866.001c-1.276-.107-1.276-.107-2.339.418a46 46 0 0 0-.057 2.226l-.005.712q-.008 1.19-.012 2.38l-.01 1.699q-.015 2.314-.025 4.627l-.028 4.83q-.026 4.576-.05 9.153-.027 5.21-.057 10.418-.062 10.719-.117 21.436h-.362z"/><path fill="#7f7677" d="M122.6 163.27h.361v14.823h14.822v14.822h14.461v.362h-14.46v29.282h-.362v-29.282H122.6zm.361 15.184v14.461h14.461v-14.46z"/><path fill="#786561" d="M211.533 415.249h.362v29.283h14.46v.361h-14.46v29.283h-.362v-29.283h-14.822v-.361h14.822z"/><path fill="#687b82" d="M314.927 45.054h.362v14.46h14.822v.362H315.29v44.105h-.362V59.876h-14.46v-.361h14.46z"/><path fill="#c1c4c7" d="M211.533 311.493h14.1v.362h-13.377v13.737h14.1v.723h-14.823z"/><path fill="#412c2a" d="M330.111 207.737h29.645v14.823h-.362v-14.461h-14.46v9.4h-.362v-9.4q-2.848.064-5.695.134l-1.939.046q-1.39.03-2.78.067l-.882.018c-1.33-.087-1.33-.087-2.442.458a83 83 0 0 0-.114 3.04l-.023.923q-.035 1.464-.066 2.928l-.047 1.98q-.06 2.434-.111 4.867h-.362z"/><path fill="#7a3938" d="m300.467 385.604 1.446.362-.723.723a41 41 0 0 0-.15 2.997l-.021.896q-.032 1.42-.055 2.84l-.043 1.924a1113 1113 0 0 0-.093 4.72h-.361z"/><path fill="#2a2025" d="M300.467 237.382h14.822v.361l-1.244.016q-2.283.033-4.566.08l-1.976.03q-1.42.019-2.84.05l-.894.008c-1.55-.007-1.55-.007-2.846.73l-.456.532z"/></svg>