<?xml version="1.0" encoding="UTF-8"?>
<svg version="1.1" xmlns="http://www.w3.org/2000/svg" width="2048" height="2048">
<path d="M0 0 C81.18 0 162.36 0 246 0 C246 13.53 246 27.06 246 41 C273.06 41 300.12 41 328 41 C328 54.53 328 68.06 328 82 C341.53 82 355.06 82 369 82 C369 95.53 369 109.06 369 123 C382.53 123 396.06 123 410 123 C410 136.2 410 149.4 410 163 C423.53 163 437.06 163 451 163 C451 190.06 451 217.12 451 245 C464.53 245 478.06 245 492 245 C492 366.77 492 488.54 492 614 C478.47 614 464.94 614 451 614 C451 586.94 451 559.88 451 532 C437.47 532 423.94 532 410 532 C410 559.06 410 586.12 410 614 C423.2 614 436.4 614 450 614 C450 627.53 450 641.06 450 655 C436.8 655 423.6 655 410 655 C410 668.53 410 682.06 410 696 C423.53 696 437.06 696 451 696 C451 709.53 451 723.06 451 737 C464.53 737 478.06 737 492 737 C492 750.53 492 764.06 492 778 C505.53 778 519.06 778 533 778 C533 818.59 533 859.18 533 901 C519.47 901 505.94 901 492 901 C492 955.12 492 1009.24 492 1065 C478.47 1065 464.94 1065 451 1065 C451 1078.53 451 1092.06 451 1106 C437.47 1106 423.94 1106 410 1106 C410 1160.12 410 1214.24 410 1270 C396.47 1270 382.94 1270 369 1270 C369 1296.73 369 1323.46 369 1351 C355.47 1351 341.94 1351 328 1351 C328 1371.46 328 1391.92 328 1413 C287.41 1413 246.82 1413 205 1413 C205 1379.01 205 1345.02 205 1310 C191.47 1310 177.94 1310 164 1310 C164 1296.47 164 1282.94 164 1269 C136.94 1269 109.88 1269 82 1269 C82 1282.53 82 1296.06 82 1310 C68.47 1310 54.94 1310 41 1310 C41 1343.99 41 1377.98 41 1413 C0.41 1413 -40.18 1413 -82 1413 C-82 1392.54 -82 1372.08 -82 1351 C-95.53 1351 -109.06 1351 -123 1351 C-123 1324.27 -123 1297.54 -123 1270 C-136.53 1270 -150.06 1270 -164 1270 C-164 1215.88 -164 1161.76 -164 1106 C-177.53 1106 -191.06 1106 -205 1106 C-205 1092.47 -205 1078.94 -205 1065 C-218.53 1065 -232.06 1065 -246 1065 C-246 1010.88 -246 956.76 -246 901 C-259.53 901 -273.06 901 -287 901 C-287 860.41 -287 819.82 -287 778 C-273.47 778 -259.94 778 -246 778 C-246 764.47 -246 750.94 -246 737 C-232.47 737 -218.94 737 -205 737 C-205 723.47 -205 709.94 -205 696 C-191.47 696 -177.94 696 -164 696 C-164 682.47 -164 668.94 -164 655 C-177.2 655 -190.4 655 -204 655 C-204 641.47 -204 627.94 -204 614 C-190.8 614 -177.6 614 -164 614 C-164 586.94 -164 559.88 -164 532 C-177.53 532 -191.06 532 -205 532 C-205 559.06 -205 586.12 -205 614 C-218.53 614 -232.06 614 -246 614 C-246 492.23 -246 370.46 -246 245 C-232.47 245 -218.94 245 -205 245 C-205 217.94 -205 190.88 -205 163 C-191.47 163 -177.94 163 -164 163 C-164 149.8 -164 136.6 -164 123 C-150.47 123 -136.94 123 -123 123 C-123 109.47 -123 95.94 -123 82 C-109.47 82 -95.94 82 -82 82 C-82 68.47 -82 54.94 -82 41 C-54.94 41 -27.88 41 0 41 C0 27.47 0 13.94 0 0 Z " fill="#34161A" transform="translate(901,328)"/>
<path d="M0 0 C13.53 0 27.06 0 41 0 C41 53.79 41 107.58 41 163 C135.71 163 230.42 163 328 163 C328 325.36 328 487.72 328 655 C382.12 655 436.24 655 492 655 C492 668.53 492 682.06 492 696 C464.94 696 437.88 696 410 696 C410 750.12 410 804.24 410 860 C490.85 860 571.7 860 655 860 C655 913.79 655 967.58 655 1023 C641.8 1023 628.6 1023 615 1023 C615 1050.06 615 1077.12 615 1105 C601.47 1105 587.94 1105 574 1105 C574 1125.46 574 1145.92 574 1167 C533.41 1167 492.82 1167 451 1167 C451 1133.01 451 1099.02 451 1064 C437.47 1064 423.94 1064 410 1064 C410 1050.47 410 1036.94 410 1023 C382.94 1023 355.88 1023 328 1023 C328 1036.53 328 1050.06 328 1064 C314.47 1064 300.94 1064 287 1064 C287 1097.99 287 1131.98 287 1167 C246.41 1167 205.82 1167 164 1167 C164 1146.54 164 1126.08 164 1105 C150.47 1105 136.94 1105 123 1105 C123 1078.27 123 1051.54 123 1024 C109.47 1024 95.94 1024 82 1024 C82 969.88 82 915.76 82 860 C68.47 860 54.94 860 41 860 C41 846.47 41 832.94 41 819 C27.47 819 13.94 819 0 819 C0 764.88 0 710.76 0 655 C-13.53 655 -27.06 655 -41 655 C-41 614.41 -41 573.82 -41 532 C-27.47 532 -13.94 532 0 532 C0 518.47 0 504.94 0 491 C13.53 491 27.06 491 41 491 C41 477.47 41 463.94 41 450 C54.53 450 68.06 450 82 450 C82 436.47 82 422.94 82 409 C68.8 409 55.6 409 42 409 C42 395.47 42 381.94 42 368 C55.2 368 68.4 368 82 368 C82 340.94 82 313.88 82 286 C68.47 286 54.94 286 41 286 C41 313.06 41 340.12 41 368 C27.47 368 13.94 368 0 368 C0 246.56 0 125.12 0 0 Z " fill="#34161A" transform="translate(655,574)"/>
<path d="M0 0 C27.06 0 54.12 0 82 0 C82 40.59 82 81.18 82 123 C162.85 123 243.7 123 327 123 C327 176.79 327 230.58 327 286 C313.8 286 300.6 286 287 286 C287 313.06 287 340.12 287 368 C273.47 368 259.94 368 246 368 C246 388.46 246 408.92 246 430 C205.41 430 164.82 430 123 430 C123 396.01 123 362.02 123 327 C109.47 327 95.94 327 82 327 C82 313.47 82 299.94 82 286 C54.94 286 27.88 286 0 286 C0 299.53 0 313.06 0 327 C-13.53 327 -27.06 327 -41 327 C-41 360.99 -41 394.98 -41 430 C-81.59 430 -122.18 430 -164 430 C-164 409.54 -164 389.08 -164 368 C-177.53 368 -191.06 368 -205 368 C-205 340.94 -205 313.88 -205 286 C-218.2 286 -231.4 286 -245 286 C-245 232.21 -245 178.42 -245 123 C-164.15 123 -83.3 123 0 123 C0 82.41 0 41.82 0 0 Z " fill="#34161A" transform="translate(983,1311)"/>
<path d="M0 0 C27.06 0 54.12 0 82 0 C82 107.91 82 215.82 82 327 C176.38 327 270.76 327 368 327 C368 340.53 368 354.06 368 368 C273.62 368 179.24 368 82 368 C82 530.36 82 692.72 82 860 C54.94 860 27.88 860 0 860 C0 697.64 0 535.28 0 368 C-94.38 368 -188.76 368 -286 368 C-286 354.47 -286 340.94 -286 327 C-191.62 327 -97.24 327 0 327 C0 219.09 0 111.18 0 0 Z " fill="#5E717A" transform="translate(983,369)"/>
<path d="M0 0 C40.59 0 81.18 0 123 0 C123 94.38 123 188.76 123 286 C34.24843803 286.62227213 34.24843803 286.62227213 9.328125 286.7734375 C8.48697427 286.77855583 7.64582354 286.78367415 6.77918339 286.78894758 C-23.21076123 286.97090274 -53.2003688 287.11232851 -83.19094467 287.12338257 C-86.06664111 287.12500233 -88.94232967 287.12855382 -91.81802368 287.13256836 C-96.2203303 287.13827821 -100.6226021 287.13876314 -105.02490997 287.13431931 C-106.59290803 287.13332877 -108.16090799 287.13389568 -109.72890472 287.13615799 C-111.8115782 287.13866392 -113.89414159 287.13499179 -115.97680664 287.12939453 C-117.70164024 287.12820114 -117.70164024 287.12820114 -119.46131897 287.12698364 C-122 287 -122 287 -123 286 C-123.09504251 283.47458998 -123.12557158 280.97662874 -123.11352539 278.45092773 C-123.11367142 277.66074249 -123.11381744 276.87055725 -123.1139679 276.056427 C-123.11326857 273.43212178 -123.10547527 270.80788664 -123.09765625 268.18359375 C-123.09579214 266.36898335 -123.0943682 264.55437244 -123.09336853 262.73976135 C-123.08954279 257.9540977 -123.07971204 253.1684642 -123.06866455 248.3828125 C-123.0566573 242.64596429 -123.05204846 236.90910601 -123.04621124 231.17224884 C-123.03650031 222.4481449 -123.01734415 213.72410716 -123 205 C-136.53 205 -150.06 205 -164 205 C-164 204.67 -164 204.34 -164 204 C-150.47 204 -136.94 204 -123 204 C-123 176.94 -123 149.88 -123 122 C-109.47 122 -95.94 122 -82 122 C-82 108.8 -82 95.6 -82 82 C-68.47 82 -54.94 82 -41 82 C-41 68.47 -41 54.94 -41 41 C-27.47 41 -13.94 41 0 41 C0 27.47 0 13.94 0 0 Z " fill="#5D7079" transform="translate(819,369)"/>
<path d="M0 0 C40.59 0 81.18 0 123 0 C123 13.53 123 27.06 123 41 C136.53 41 150.06 41 164 41 C164 54.53 164 68.06 164 82 C177.53 82 191.06 82 205 82 C205 95.2 205 108.4 205 122 C218.53 122 232.06 122 246 122 C246 149.06 246 176.12 246 204 C259.53 204 273.06 204 287 204 C287 204.33 287 204.66 287 205 C273.47 205 259.94 205 246 205 C246 231.73 246 258.46 246 286 C164.82 286 83.64 286 0 286 C0 191.62 0 97.24 0 0 Z " fill="#5D7079" transform="translate(1106,369)"/>
<path d="M0 0 C81.18 0 162.36 0 246 0 C246 13.53 246 27.06 246 41 C232.47 41 218.94 41 205 41 C205 135.38 205 229.76 205 327 C286.18 327 367.36 327 451 327 C451 354.06 451 381.12 451 409 C450.67 409 450.34 409 450 409 C450 395.47 450 381.94 450 368 C355.62 368 261.24 368 164 368 C164 260.09 164 152.18 164 41 C136.94 41 109.88 41 82 41 C82 148.91 82 256.82 82 368 C-12.38 368 -106.76 368 -204 368 C-204 381.53 -204 395.06 -204 409 C-204.33 409 -204.66 409 -205 409 C-205 381.94 -205 354.88 -205 327 C-123.82 327 -42.64 327 41 327 C41 232.62 41 138.24 41 41 C27.47 41 13.94 41 0 41 C0 27.47 0 13.94 0 0 Z " fill="#44555E" transform="translate(901,328)"/>
<path d="M0 0 C27.06 0 54.12 0 82 0 C82 162.36 82 324.72 82 492 C54.94 492 27.88 492 0 492 C0 329.64 0 167.28 0 0 Z " fill="#8EA4AF" transform="translate(983,737)"/>
<path d="M0 0 C54.12 0 108.24 0 164 0 C164 13.2 164 26.4 164 40 C177.53 40 191.06 40 205 40 C205 26.8 205 13.6 205 0 C232.06 0 259.12 0 287 0 C287 13.2 287 26.4 287 40 C300.53 40 314.06 40 328 40 C328 26.8 328 13.6 328 0 C382.12 0 436.24 0 492 0 C492 27.06 492 54.12 492 82 C424.35 82 356.7 82 287 82 C287 68.47 287 54.94 287 41 C259.94 41 232.88 41 205 41 C205 54.2 205 67.4 205 81 C137.35 81 69.7 81 0 81 C0 54.27 0 27.54 0 0 Z " fill="#B1A28F" transform="translate(778,1475)"/>
<path d="M0 0 C13.53 0 27.06 0 41 0 C41 40.59 41 81.18 41 123 C54.53 123 68.06 123 82 123 C82 82.41 82 41.82 82 0 C108.73 0 135.46 0 163 0 C163 40.59 163 81.18 163 123 C149.8 123 136.6 123 123 123 C123 150.06 123 177.12 123 205 C109.47 205 95.94 205 82 205 C82 218.53 82 232.06 82 246 C54.94 246 27.88 246 0 246 C0 164.82 0 83.64 0 0 Z " fill="#FCC09B" transform="translate(1106,819)"/>
<path d="M0 0 C26.73 0 53.46 0 81 0 C81 40.59 81 81.18 81 123 C94.53 123 108.06 123 122 123 C122 82.41 122 41.82 122 0 C135.53 0 149.06 0 163 0 C163 81.18 163 162.36 163 246 C135.94 246 108.88 246 81 246 C81 232.47 81 218.94 81 205 C67.47 205 53.94 205 40 205 C40 177.94 40 150.88 40 123 C26.8 123 13.6 123 0 123 C0 82.41 0 41.82 0 0 Z " fill="#FCC09B" transform="translate(779,819)"/>
<path d="M0 0 C0.33 0 0.66 0 1 0 C1 53.79 1 107.58 1 163 C14.2 163 27.4 163 41 163 C41 122.74 41 82.48 41 41 C81.59 41 122.18 41 164 41 C165.16630884 88.81866253 165.16630884 88.81866253 165.13037109 102.55517578 C165.12467021 105.15011658 165.13057297 107.74490594 165.13671875 110.33984375 C165.1360627 112.01822954 165.13479153 113.69661525 165.1328125 115.375 C165.13483673 116.13804443 165.13686096 116.90108887 165.13894653 117.68725586 C165.1151483 122.8848517 165.1151483 122.8848517 164 124 C161.1883662 124.08861992 158.40141745 124.11522355 155.58984375 124.09765625 C154.74780899 124.0962413 153.90577423 124.09482635 153.03822327 124.09336853 C150.33794665 124.08775263 147.63775172 124.07519748 144.9375 124.0625 C143.11132932 124.05748705 141.28515734 124.05292379 139.45898438 124.04882812 C134.97262458 124.03777804 130.48632616 124.02050279 126 124 C125.12803446 128.53349977 124.84978921 132.86050309 124.79467773 137.47412109 C124.78464501 138.20834604 124.77461229 138.94257099 124.76427555 139.69904518 C124.73309089 142.05714471 124.70820279 144.41526117 124.68359375 146.7734375 C124.66517179 148.23674034 124.64633414 149.70003801 124.6270752 151.16333008 C124.55885288 156.56715888 124.4986561 161.97108661 124.4375 167.375 C124.293125 179.46125 124.14875 191.5475 124 204 C164.26 204 204.52 204 246 204 C246 163.74 246 123.48 246 82 C273.06 82 300.12 82 328 82 C328 122.59 328 163.18 328 205 C247.15 205 166.3 205 83 205 C83 258.79 83 312.58 83 368 C96.2 368 109.4 368 123 368 C123 368.33 123 368.66 123 369 C109.47 369 95.94 369 82 369 C82 314.88 82 260.76 82 205 C68.47 205 54.94 205 41 205 C41 191.47 41 177.94 41 164 C27.47 164 13.94 164 0 164 C0 109.88 0 55.76 0 0 Z " fill="#515A6C" transform="translate(655,1229)"/>
<path d="M0 0 C27.06 0 54.12 0 82 0 C82 107.91 82 215.82 82 327 C54.94 327 27.88 327 0 327 C0 219.09 0 111.18 0 0 Z " fill="#92A8B3" transform="translate(983,369)"/>
<path d="M0 0 C54.45 0 108.9 0 165 0 C165 13.2 165 26.4 165 40 C177.78993795 39.96039595 177.78993795 39.96039595 190.57983398 39.90991211 C192.1769199 39.90699297 193.77400655 39.90444441 195.37109375 39.90234375 C196.20805786 39.89722778 197.04502197 39.89211182 197.90734863 39.88684082 C199.93858265 39.88653076 201.96972471 39.93759812 204 40 C223.56470745 59.56470745 205 95.33132537 205 123 C137.35 123 69.7 123 0 123 C0 82.41 0 41.82 0 0 Z " fill="#663724" transform="translate(1065,1311)"/>
<path d="M0 0 C0.33 0 0.66 0 1 0 C1 13.53 1 27.06 1 41 C14.53 41 28.06 41 42 41 C42 81.59 42 122.18 42 164 C28.47 164 14.94 164 1 164 C1 177.53 1 191.06 1 205 C-26.06 205 -53.12 205 -81 205 C-81 191.47 -81 177.94 -81 164 C-94.53 164 -108.06 164 -122 164 C-122 123.41 -122 82.82 -122 41 C-81.74 41 -41.48 41 0 41 C0 27.47 0 13.94 0 0 Z " fill="#5F717B" transform="translate(1351,1024)"/>
<path d="M0 0 C0.33 0 0.66 0 1 0 C1 13.53 1 27.06 1 41 C41.26 41 81.52 41 123 41 C123 81.59 123 122.18 123 164 C109.47 164 95.94 164 82 164 C82 177.53 82 191.06 82 205 C54.94 205 27.88 205 0 205 C0 191.47 0 177.94 0 164 C-13.53 164 -27.06 164 -41 164 C-41 123.41 -41 82.82 -41 41 C-27.47 41 -13.94 41 0 41 C0 27.47 0 13.94 0 0 Z " fill="#5F717B" transform="translate(696,1024)"/>
<path d="M0 0 C13.53 0 27.06 0 41 0 C41 94.38 41 188.76 41 286 C122.18 286 203.36 286 287 286 C287 313.06 287 340.12 287 368 C286.67 368 286.34 368 286 368 C286 354.47 286 340.94 286 327 C191.62 327 97.24 327 0 327 C0 219.09 0 111.18 0 0 Z " fill="#45555E" transform="translate(1065,369)"/>
<path d="M0 0 C13.53 0 27.06 0 41 0 C41 67.32 41 134.64 41 204 C13.94 204 -13.12 204 -41 204 C-41 190.47 -41 176.94 -41 163 C-54.53 163 -68.06 163 -82 163 C-82 122.74 -82 82.48 -82 41 C-34.86265432 39.85030864 -34.86265432 39.85030864 -17.9375 39.9375 C-12.018125 39.958125 -6.09875 39.97875 0 40 C0 26.8 0 13.6 0 0 Z " fill="#91A8B3" transform="translate(901,451)"/>
<path d="M0 0 C13.53 0 27.06 0 41 0 C41 40.59 41 81.18 41 123 C27.14 123 13.28 123 -1 123 C-1 176.79 -1 230.58 -1 286 C-14.2 286 -27.4 286 -41 286 C-41 245.74 -41 205.48 -41 164 C-81.59 164 -122.18 164 -164 164 C-164 136.94 -164 109.88 -164 82 C-150.47 82 -136.94 82 -123 82 C-123 95.53 -123 109.06 -123 123 C-95.94 123 -68.88 123 -41 123 C-41 109.47 -41 95.94 -41 82 C-27.47 82 -13.94 82 0 82 C0 54.94 0 27.88 0 0 Z " fill="#33161A" transform="translate(1393,1106)"/>
<path d="M0 0 C13.53 0 27.06 0 41 0 C41 27.06 41 54.12 41 82 C54.53 82 68.06 82 82 82 C82 95.53 82 109.06 82 123 C109.06 123 136.12 123 164 123 C164 109.47 164 95.94 164 82 C177.53 82 191.06 82 205 82 C205 109.06 205 136.12 205 164 C164.41 164 123.82 164 82 164 C82 204.26 82 244.52 82 286 C68.8 286 55.6 286 42 286 C42 232.21 42 178.42 42 123 C28.14 123 14.28 123 0 123 C0 82.41 0 41.82 0 0 Z " fill="#33161A" transform="translate(614,1106)"/>
<path d="M0 0 C13.53 0 27.06 0 41 0 C41 13.2 41 26.4 41 40 C54.53 40 68.06 40 82 40 C82 53.86 82 67.72 82 82 C95.53 82 109.06 82 123 82 C123 108.73 123 135.46 123 163 C109.47 163 95.94 163 82 163 C82 176.53 82 190.06 82 204 C54.94 204 27.88 204 0 204 C0 136.68 0 69.36 0 0 Z " fill="#91A8B2" transform="translate(1106,451)"/>
<path d="M0 0 C40.59 0 81.18 0 123 0 C123 47.52 123 95.04 123 144 C82.41 144 41.82 144 0 144 C0 96.48 0 48.96 0 0 Z " fill="#3A475F" transform="translate(819,1597)"/>
<path d="M0 0 C40.59 0 81.18 0 123 0 C123 47.52 123 95.04 123 144 C82.41 144 41.82 144 0 144 C0 96.48 0 48.96 0 0 Z " fill="#3A475F" transform="translate(1106,1597)"/>
<path d="M0 0 C0.33 0 0.66 0 1 0 C1 54.12 1 108.24 1 164 C-12.53 164 -26.06 164 -40 164 C-40 177.53 -40 191.06 -40 205 C-53.53 205 -67.06 205 -81 205 C-81 259.12 -81 313.24 -81 369 C-94.53 369 -108.06 369 -122 369 C-122 368.67 -122 368.34 -122 368 C-108.8 368 -95.6 368 -82 368 C-82 314.21 -82 260.42 -82 205 C-95.2 205 -108.4 205 -122 205 C-122.33 177.94 -122.66 150.88 -123 123 C-142.305 122.505 -142.305 122.505 -162 122 C-162.165 116.245625 -162.33 110.49125 -162.5 104.5625 C-162.55220703 102.84748291 -162.60441406 101.13246582 -162.65820312 99.36547852 C-163.17768523 79.89623757 -163 60.50330642 -163 41 C-122.41 41 -81.82 41 -40 41 C-40 81.26 -40 121.52 -40 163 C-26.8 163 -13.6 163 0 163 C0 109.21 0 55.42 0 0 Z " fill="#535A6A" transform="translate(1392,1229)"/>
<path d="M0 0 C13.53 0 27.06 0 41 0 C41 121.44 41 242.88 41 368 C27.47 368 13.94 368 0 368 C0 246.56 0 125.12 0 0 Z " fill="#CDDEE3" transform="translate(983,738)"/>
<path d="M0 0 C40.59 0 81.18 0 123 0 C123 27.06 123 54.12 123 82 C109.47 82 95.94 82 82 82 C82 95.2 82 108.4 82 122 C41.74 122 1.48 122 -40 122 C-40 108.8 -40 95.6 -40 82 C-26.8 82 -13.6 82 0 82 C0 54.94 0 27.88 0 0 Z " fill="#5C7079" transform="translate(819,369)"/>
<path d="M0 0 C54.12 0 108.24 0 164 0 C164 67.65 164 135.3 164 205 C150.47 205 136.94 205 123 205 C123 191.47 123 177.94 123 164 C136.2 164 149.4 164 163 164 C163 123.41 163 82.82 163 41 C136.27 41 109.54 41 82 41 C82 81.59 82 122.18 82 164 C68.47 164 54.94 164 41 164 C41 123.41 41 82.82 41 41 C27.47 41 13.94 41 0 41 C0 27.47 0 13.94 0 0 Z " fill="#D7846C" transform="translate(1106,778)"/>
<path d="M0 0 C54.12 0 108.24 0 164 0 C164 13.53 164 27.06 164 41 C150.47 41 136.94 41 123 41 C123 81.59 123 122.18 123 164 C109.47 164 95.94 164 82 164 C82 123.41 82 82.82 82 41 C55.27 41 28.54 41 1 41 C1 81.59 1 122.18 1 164 C14.2 164 27.4 164 41 164 C41 177.53 41 191.06 41 205 C27.47 205 13.94 205 0 205 C0 137.35 0 69.7 0 0 Z " fill="#D7846C" transform="translate(778,778)"/>
<path d="M0 0 C26.73 0 53.46 0 81 0 C81 40.26 81 80.52 81 122 C40.74 122 0.48 122 -41 122 C-41.04125 109.91375 -41.0825 97.8275 -41.125 85.375 C-41.14320801 81.56630371 -41.16141602 77.75760742 -41.18017578 73.83349609 C-41.18920898 69.16333008 -41.18920898 69.16333008 -41.19088745 66.97329712 C-41.1939478 65.45188221 -41.20095947 63.93047199 -41.21115112 62.40908813 C-41.22585599 60.09734743 -41.22780981 57.78590178 -41.22705078 55.47412109 C-41.231492 54.17284271 -41.23593323 52.87156433 -41.24050903 51.53085327 C-41 48 -41 48 -39 42 C-26.46 41.67 -13.92 41.34 -1 41 C-0.67 27.47 -0.34 13.94 0 0 Z " fill="#663724" transform="translate(820,1311)"/>
<path d="M0 0 C81.18 0 162.36 0 246 0 C246 13.53 246 27.06 246 41 C164.82 41 83.64 41 0 41 C0 27.47 0 13.94 0 0 Z " fill="#35161B" transform="translate(901,328)"/>
<path d="M0 0 C27.06 0 54.12 0 82 0 C82 40.26 82 80.52 82 122 C54.94 122 27.88 122 0 122 C0 81.74 0 41.48 0 0 Z " fill="#FDC09B" transform="translate(1065,1311)"/>
<path d="M0 0 C27.06 0 54.12 0 82 0 C82 40.26 82 80.52 82 122 C54.94 122 27.88 122 0 122 C0 81.74 0 41.48 0 0 Z " fill="#FCC09B" transform="translate(901,1311)"/>
<path d="M0 0 C13.53 0 27.06 0 41 0 C41 20.46 41 40.92 41 62 C54.53 62 68.06 62 82 62 C82 55.07 82 48.14 82 41 C95.2 41 108.4 41 122 41 C122 61.13 122 81.26 122 102 C81.74 102 41.48 102 0 102 C0 68.34 0 34.68 0 0 Z " fill="#34161A" transform="translate(1106,1638)"/>
<path d="M0 0 C13.53 0 27.06 0 41 0 C41 33.66 41 67.32 41 102 C0.74 102 -39.52 102 -81 102 C-81 81.87 -81 61.74 -81 41 C-67.8 41 -54.6 41 -41 41 C-41 47.93 -41 54.86 -41 62 C-27.47 62 -13.94 62 0 62 C0 41.54 0 21.08 0 0 Z " fill="#331519" transform="translate(901,1638)"/>
<path d="M0 0 C94.38 0 188.76 0 286 0 C286 13.53 286 27.06 286 41 C232.21 41 178.42 41 123 41 C123 27.8 123 14.6 123 1 C82.41 1 41.82 1 0 1 C0 0.67 0 0.34 0 0 Z " fill="#5E717A" transform="translate(1065,696)"/>
<path d="M0 0 C0.33 0 0.66 0 1 0 C1 40.59 1 81.18 1 123 C-26.06 123 -53.12 123 -81 123 C-81 95.94 -81 68.88 -81 41 C-54.27 41 -27.54 41 0 41 C0 27.47 0 13.94 0 0 Z " fill="#8FA5AF" transform="translate(1351,1024)"/>
<path d="M0 0 C0.33 0 0.66 0 1 0 C1 13.53 1 27.06 1 41 C27.73 41 54.46 41 82 41 C82 68.06 82 95.12 82 123 C54.94 123 27.88 123 0 123 C0 82.41 0 41.82 0 0 Z " fill="#8FA5B0" transform="translate(696,1024)"/>
<path d="M0 0 C13.86 0 27.72 0 42 0 C42 13.2 42 26.4 42 40 C54.78993795 39.96039595 54.78993795 39.96039595 67.57983398 39.90991211 C69.1769199 39.90699297 70.77400655 39.90444441 72.37109375 39.90234375 C73.20805786 39.89722778 74.04502197 39.89211182 74.90734863 39.88684082 C76.93858265 39.88653076 78.96972471 39.93759812 81 40 C82.73141493 41.73141493 82.11977579 43.95750044 82.12442017 46.26478577 C82.11902725 47.39550758 82.11902725 47.39550758 82.11352539 48.54907227 C82.11367142 49.33925751 82.11381744 50.12944275 82.1139679 50.943573 C82.11326857 53.56787822 82.10547527 56.19211336 82.09765625 58.81640625 C82.09579214 60.63101665 82.0943682 62.44562756 82.09336853 64.26023865 C82.08954279 69.0459023 82.07971204 73.8315358 82.06866455 78.6171875 C82.0566573 84.35403571 82.05204846 90.09089399 82.04621124 95.82775116 C82.03650031 104.5518551 82.01734415 113.27589284 82 122 C68.47 122 54.94 122 41 122 C41 108.8 41 95.6 41 82 C27.47 82 13.94 82 0 82 C0 54.94 0 27.88 0 0 Z " fill="#894E34" transform="translate(1188,1311)"/>
<path d="M0 0 C27.06 0 54.12 0 82 0 C82 27.06 82 54.12 82 82 C54.94 82 27.88 82 0 82 C0 54.94 0 27.88 0 0 Z " fill="#766456" transform="translate(1106,1106)"/>
<path d="M0 0 C27.06 0 54.12 0 82 0 C82 27.06 82 54.12 82 82 C54.94 82 27.88 82 0 82 C0 54.94 0 27.88 0 0 Z " fill="#756456" transform="translate(860,1106)"/>
<path d="M0 0 C13.53 0 27.06 0 41 0 C41 40.59 41 81.18 41 123 C13.94 123 -13.12 123 -41 123 C-41 109.47 -41 95.94 -41 82 C-27.47 82 -13.94 82 0 82 C0 54.94 0 27.88 0 0 Z " fill="#8EA4AF" transform="translate(1352,1065)"/>
<path d="M0 0 C13.53 0 27.06 0 41 0 C41 27.06 41 54.12 41 82 C54.53 82 68.06 82 82 82 C82 95.53 82 109.06 82 123 C54.94 123 27.88 123 0 123 C0 82.41 0 41.82 0 0 Z " fill="#8EA4AF" transform="translate(655,1065)"/>
<path d="M0 0 C27.06 0 54.12 0 82 0 C82 26.73 82 53.46 82 81 C54.94 81 27.88 81 0 81 C0 54.27 0 27.54 0 0 Z " fill="#D0E2E7" transform="translate(819,492)"/>
<path d="M0 0 C26.73 0 53.46 0 81 0 C81.14285714 84.14285714 81.14285714 84.14285714 80 122 C66.8 122 53.6 122 40 122 C39.67 95.27 39.34 68.54 39 41 C19.695 40.505 19.695 40.505 0 40 C0 26.8 0 13.6 0 0 Z " fill="#626B7D" transform="translate(1230,1311)"/>
<path d="M0 0 C26.73 0 53.46 0 81 0 C81 12.54 81 25.08 81 38 C80.01 38.99 80.01 38.99 79 40 C66.46 40 53.92 40 41 40 C41 67.06 41 94.12 41 122 C27.8 122 14.6 122 1 122 C0.20043986 94.14760578 -0.12725946 66.36146665 -0.0625 38.5 C-0.041875 25.795 -0.02125 13.09 0 0 Z " fill="#626C7D" transform="translate(737,1311)"/>
<path d="M0 0 C13.2 0 26.4 0 40 0 C40 27.06 40 54.12 40 82 C26.47 82 12.94 82 -1 82 C-1 95.2 -1 108.4 -1 122 C-14.2 122 -27.4 122 -41 122 C-41.08021762 103.77277442 -41.08021762 103.77277442 -41.09765625 95.98828125 C-41.10960021 90.68176257 -41.1237127 85.37531308 -41.15087891 80.06884766 C-41.17264927 75.78946806 -41.18457748 71.51016268 -41.18975449 67.23073196 C-41.19344271 65.60010231 -41.2006449 63.96947659 -41.21146011 62.33887863 C-41.22603086 60.05053761 -41.22797562 57.76250122 -41.22705078 55.47412109 C-41.231492 54.17284271 -41.23593323 52.87156433 -41.24050903 51.53085327 C-41 48 -41 48 -39 42 C-26.46 41.67 -13.92 41.34 -1 41 C-0.67 27.47 -0.34 13.94 0 0 Z " fill="#8A4E35" transform="translate(820,1311)"/>
<path d="M0 0 C13.53 0 27.06 0 41 0 C41 40.59 41 81.18 41 123 C27.47 123 13.94 123 0 123 C0 82.41 0 41.82 0 0 Z " fill="#9FB5BC" transform="translate(983,1106)"/>
<path d="M0 0 C13.53 0 27.06 0 41 0 C41 40.59 41 81.18 41 123 C27.47 123 13.94 123 0 123 C0 82.41 0 41.82 0 0 Z " fill="#341518" transform="translate(1147,819)"/>
<path d="M0 0 C13.53 0 27.06 0 41 0 C41 40.59 41 81.18 41 123 C27.47 123 13.94 123 0 123 C0 82.41 0 41.82 0 0 Z " fill="#331519" transform="translate(860,819)"/>
<path d="M0 0 C13.53 0 27.06 0 41 0 C41 40.26 41 80.52 41 122 C27.47 122 13.94 122 0 122 C0 81.74 0 41.48 0 0 Z " fill="#CEE0E5" transform="translate(983,451)"/>
<path d="M0 0 C40.59 0 81.18 0 123 0 C123 13.2 123 26.4 123 40 C82.41 40 41.82 40 0 40 C0 26.8 0 13.6 0 0 Z " fill="#D1E1E6" transform="translate(1065,697)"/>
<path d="M0 0 C40.59 0 81.18 0 123 0 C123 13.2 123 26.4 123 40 C82.41 40 41.82 40 0 40 C0 26.8 0 13.6 0 0 Z " fill="#D0E0E6" transform="translate(860,697)"/>
<path d="M0 0 C27.06 0 54.12 0 82 0 C82 33.99 82 67.98 82 103 C41.41 103 0.82 103 -41 103 C-41 102.67 -41 102.34 -41 102 C-0.74 102 39.52 102 81 102 C81 81.87 81 61.74 81 41 C67.8 41 54.6 41 41 41 C41 47.93 41 54.86 41 62 C27.47 62 13.94 62 0 62 C0 41.54 0 21.08 0 0 Z " fill="#814A35" transform="translate(1147,1638)"/>
<path d="M0 0 C27.06 0 54.12 0 82 0 C82 20.46 82 40.92 82 62 C68.47 62 54.94 62 41 62 C41 55.07 41 48.14 41 41 C27.8 41 14.6 41 1 41 C1 61.13 1 81.26 1 102 C41.26 102 81.52 102 123 102 C123 102.33 123 102.66 123 103 C82.41 103 41.82 103 0 103 C0 69.01 0 35.02 0 0 Z " fill="#814A34" transform="translate(819,1638)"/>
<path d="M0 0 C13.53 0 27.06 0 41 0 C41 27.06 41 54.12 41 82 C-26.65 82 -94.3 82 -164 82 C-164 81.67 -164 81.34 -164 81 C-109.88 81 -55.76 81 0 81 C0 54.27 0 27.54 0 0 Z " fill="#776557" transform="translate(1229,1475)"/>
<path d="M0 0 C27.06 0 54.12 0 82 0 C82 13.2 82 26.4 82 40 C95.53 40 109.06 40 123 40 C123 40.33 123 40.66 123 41 C68.88 41 14.76 41 -41 41 C-41 40.67 -41 40.34 -41 40 C-27.47 40 -13.94 40 0 40 C0 26.8 0 13.6 0 0 Z " fill="#AB815D" transform="translate(983,1475)"/>
<path d="M0 0 C13.53 0 27.06 0 41 0 C41 40.59 41 81.18 41 123 C40.67 123 40.34 123 40 123 C40 109.47 40 95.94 40 82 C26.8 82 13.6 82 0 82 C0 54.94 0 27.88 0 0 Z " fill="#D3836C" transform="translate(1311,860)"/>
<path d="M0 0 C13.53 0 27.06 0 41 0 C41 27.06 41 54.12 41 82 C27.8 82 14.6 82 1 82 C1 95.53 1 109.06 1 123 C0.67 123 0.34 123 0 123 C0 82.41 0 41.82 0 0 Z " fill="#D3836C" transform="translate(696,860)"/>
<path d="M0 0 C27.06 0 54.12 0 82 0 C82 13.53 82 27.06 82 41 C54.94 41 27.88 41 0 41 C0 27.47 0 13.94 0 0 Z " fill="#3D4B61" transform="translate(1229,1270)"/>
<path d="M0 0 C27.06 0 54.12 0 82 0 C82 13.53 82 27.06 82 41 C54.94 41 27.88 41 0 41 C0 27.47 0 13.94 0 0 Z " fill="#9E3231" transform="translate(983,1270)"/>
<path d="M0 0 C27.06 0 54.12 0 82 0 C82 13.53 82 27.06 82 41 C54.94 41 27.88 41 0 41 C0 27.47 0 13.94 0 0 Z " fill="#3D4B62" transform="translate(737,1270)"/>
<path d="M0 0 C27.06 0 54.12 0 82 0 C82 13.53 82 27.06 82 41 C54.94 41 27.88 41 0 41 C0 27.47 0 13.94 0 0 Z " fill="#AE825A" transform="translate(1065,1229)"/>
<path d="M0 0 C27.06 0 54.12 0 82 0 C82 13.53 82 27.06 82 41 C54.94 41 27.88 41 0 41 C0 27.47 0 13.94 0 0 Z " fill="#341519" transform="translate(983,1229)"/>
<path d="M0 0 C27.06 0 54.12 0 82 0 C82 13.53 82 27.06 82 41 C54.94 41 27.88 41 0 41 C0 27.47 0 13.94 0 0 Z " fill="#AE835B" transform="translate(901,1229)"/>
<path d="M0 0 C13.53 0 27.06 0 41 0 C41 27.06 41 54.12 41 82 C27.47 82 13.94 82 0 82 C0 54.94 0 27.88 0 0 Z " fill="#B3A290" transform="translate(819,1188)"/>
<path d="M0 0 C13.53 0 27.06 0 41 0 C41 27.06 41 54.12 41 82 C27.47 82 13.94 82 0 82 C0 54.94 0 27.88 0 0 Z " fill="#B4A290" transform="translate(1188,1188)"/>
<path d="M0 0 C27.06 0 54.12 0 82 0 C82 13.53 82 27.06 82 41 C54.94 41 27.88 41 0 41 C0 27.47 0 13.94 0 0 Z " fill="#2F4C73" transform="translate(1106,1106)"/>
<path d="M0 0 C27.06 0 54.12 0 82 0 C82 13.53 82 27.06 82 41 C54.94 41 27.88 41 0 41 C0 27.47 0 13.94 0 0 Z " fill="#304C73" transform="translate(860,1106)"/>
<path d="M0 0 C13.53 0 27.06 0 41 0 C41 27.06 41 54.12 41 82 C27.47 82 13.94 82 0 82 C0 54.94 0 27.88 0 0 Z " fill="#613423" transform="translate(1311,778)"/>
<path d="M0 0 C13.53 0 27.06 0 41 0 C41 27.06 41 54.12 41 82 C27.47 82 13.94 82 0 82 C0 54.94 0 27.88 0 0 Z " fill="#623423" transform="translate(696,778)"/>
<path d="M0 0 C27.06 0 54.12 0 82 0 C82 13.53 82 27.06 82 41 C54.94 41 27.88 41 0 41 C0 27.47 0 13.94 0 0 Z " fill="#33161B" transform="translate(983,696)"/>
<path d="M0 0 C27.06 0 54.12 0 82 0 C82 13.53 82 27.06 82 41 C54.94 41 27.88 41 0 41 C0 27.47 0 13.94 0 0 Z " fill="#36171C" transform="translate(1147,369)"/>
<path d="M0 0 C27.06 0 54.12 0 82 0 C82 13.53 82 27.06 82 41 C54.94 41 27.88 41 0 41 C0 27.47 0 13.94 0 0 Z " fill="#36171C" transform="translate(819,369)"/>
<path d="M0 0 C13.53 0 27.06 0 41 0 C41 26.73 41 53.46 41 81 C27.47 81 13.94 81 0 81 C0 54.27 0 27.54 0 0 Z " fill="#786658" transform="translate(778,1475)"/>
<path d="M0 0 C27.06 0 54.12 0 82 0 C82 13.2 82 26.4 82 40 C54.94 40 27.88 40 0 40 C0 26.8 0 13.6 0 0 Z " fill="#D7856B" transform="translate(1065,1393)"/>
<path d="M0 0 C27.06 0 54.12 0 82 0 C82 13.2 82 26.4 82 40 C54.94 40 27.88 40 0 40 C0 26.8 0 13.6 0 0 Z " fill="#D7846B" transform="translate(901,1393)"/>
<path d="M0 0 C13.2 0 26.4 0 40 0 C40 26.73 40 53.46 40 81 C26.8 81 13.6 81 0 81 C0 54.27 0 27.54 0 0 Z " fill="#91A8B2" transform="translate(1311,574)"/>
<path d="M0 0 C13.2 0 26.4 0 40 0 C40 26.73 40 53.46 40 81 C26.8 81 13.6 81 0 81 C0 54.27 0 27.54 0 0 Z " fill="#92A8B2" transform="translate(697,574)"/>
<path d="M0 0 C13.2 0 26.4 0 40 0 C40 26.73 40 53.46 40 81 C26.8 81 13.6 81 0 81 C0 54.27 0 27.54 0 0 Z " fill="#33151A" transform="translate(1311,492)"/>
<path d="M0 0 C13.2 0 26.4 0 40 0 C40 26.73 40 53.46 40 81 C26.8 81 13.6 81 0 81 C0 54.27 0 27.54 0 0 Z " fill="#91A8B2" transform="translate(1270,492)"/>
<path d="M0 0 C13.2 0 26.4 0 40 0 C40 26.73 40 53.46 40 81 C26.8 81 13.6 81 0 81 C0 54.27 0 27.54 0 0 Z " fill="#91A7B2" transform="translate(738,492)"/>
<path d="M0 0 C13.2 0 26.4 0 40 0 C40 26.73 40 53.46 40 81 C26.8 81 13.6 81 0 81 C0 54.27 0 27.54 0 0 Z " fill="#33151A" transform="translate(697,492)"/>
<path d="M0 0 C54.12 0 108.24 0 164 0 C164 13.53 164 27.06 164 41 C150.47 41 136.94 41 123 41 C123 27.8 123 14.6 123 1 C82.41 1 41.82 1 0 1 C0 0.67 0 0.34 0 0 Z " fill="#94A9B2" transform="translate(1065,696)"/>
<path d="M0 0 C54.12 0 108.24 0 164 0 C164 0.33 164 0.66 164 1 C123.41 1 82.82 1 41 1 C41 14.2 41 27.4 41 41 C27.47 41 13.94 41 0 41 C0 27.47 0 13.94 0 0 Z " fill="#93A8B2" transform="translate(819,696)"/>
<path d="M0 0 C13.53 0 27.06 0 41 0 C41 13.53 41 27.06 41 41 C13.94 41 -13.12 41 -41 41 C-41 40.67 -41 40.34 -41 40 C-27.47 40 -13.94 40 0 40 C0 26.8 0 13.6 0 0 Z " fill="#6E352F" transform="translate(1024,1434)"/>
<path d="M0 0 C13.53 0 27.06 0 41 0 C41 13.53 41 27.06 41 41 C27.47 41 13.94 41 0 41 C0 27.47 0 13.94 0 0 Z " fill="#D78970" transform="translate(942,1311)"/>
<path d="M0 0 C13.53 0 27.06 0 41 0 C41 13.53 41 27.06 41 41 C27.47 41 13.94 41 0 41 C0 27.47 0 13.94 0 0 Z " fill="#D6856C" transform="translate(1065,1311)"/>
<path d="M0 0 C13.53 0 27.06 0 41 0 C41 13.53 41 27.06 41 41 C27.47 41 13.94 41 0 41 C0 27.47 0 13.94 0 0 Z " fill="#A56046" transform="translate(983,1270)"/>
<path d="M0 0 C13.53 0 27.06 0 41 0 C41 13.53 41 27.06 41 41 C27.47 41 13.94 41 0 41 C0 27.47 0 13.94 0 0 Z " fill="#776455" transform="translate(1188,1188)"/>
<path d="M0 0 C13.53 0 27.06 0 41 0 C41 13.53 41 27.06 41 41 C27.47 41 13.94 41 0 41 C0 27.47 0 13.94 0 0 Z " fill="#776455" transform="translate(819,1188)"/>
<path d="M0 0 C13.53 0 27.06 0 41 0 C41 13.53 41 27.06 41 41 C27.47 41 13.94 41 0 41 C0 27.47 0 13.94 0 0 Z " fill="#B2A190" transform="translate(1147,1147)"/>
<path d="M0 0 C13.53 0 27.06 0 41 0 C41 13.53 41 27.06 41 41 C27.47 41 13.94 41 0 41 C0 27.47 0 13.94 0 0 Z " fill="#B2A290" transform="translate(860,1147)"/>
<path d="M0 0 C13.53 0 27.06 0 41 0 C41 13.53 41 27.06 41 41 C27.47 41 13.94 41 0 41 C0 27.47 0 13.94 0 0 Z " fill="#CCDDE3" transform="translate(1311,1106)"/>
<path d="M0 0 C13.53 0 27.06 0 41 0 C41 13.53 41 27.06 41 41 C27.47 41 13.94 41 0 41 C0 27.47 0 13.94 0 0 Z " fill="#746355" transform="translate(1147,1106)"/>
<path d="M0 0 C13.53 0 27.06 0 41 0 C41 13.53 41 27.06 41 41 C27.47 41 13.94 41 0 41 C0 27.47 0 13.94 0 0 Z " fill="#756356" transform="translate(860,1106)"/>
<path d="M0 0 C13.53 0 27.06 0 41 0 C41 13.53 41 27.06 41 41 C27.47 41 13.94 41 0 41 C0 27.47 0 13.94 0 0 Z " fill="#CBDDE3" transform="translate(696,1106)"/>
<path d="M0 0 C13.53 0 27.06 0 41 0 C41 13.53 41 27.06 41 41 C27.47 41 13.94 41 0 41 C0 27.47 0 13.94 0 0 Z " fill="#32161A" transform="translate(1352,1065)"/>
<path d="M0 0 C13.53 0 27.06 0 41 0 C41 13.53 41 27.06 41 41 C27.47 41 13.94 41 0 41 C0 27.47 0 13.94 0 0 Z " fill="#32161A" transform="translate(655,1065)"/>
<path d="M0 0 C13.53 0 27.06 0 41 0 C41 13.53 41 27.06 41 41 C27.47 41 13.94 41 0 41 C0 27.47 0 13.94 0 0 Z " fill="#D8846B" transform="translate(1147,1024)"/>
<path d="M0 0 C13.53 0 27.06 0 41 0 C41 13.53 41 27.06 41 41 C27.47 41 13.94 41 0 41 C0 27.47 0 13.94 0 0 Z " fill="#D8846B" transform="translate(860,1024)"/>
<path d="M0 0 C13.53 0 27.06 0 41 0 C41 13.53 41 27.06 41 41 C27.47 41 13.94 41 0 41 C0 27.47 0 13.94 0 0 Z " fill="#D8856C" transform="translate(1188,983)"/>
<path d="M0 0 C13.53 0 27.06 0 41 0 C41 13.53 41 27.06 41 41 C27.47 41 13.94 41 0 41 C0 27.47 0 13.94 0 0 Z " fill="#D8856D" transform="translate(819,983)"/>
<path d="M0 0 C13.53 0 27.06 0 41 0 C41 13.53 41 27.06 41 41 C27.47 41 13.94 41 0 41 C0 27.47 0 13.94 0 0 Z " fill="#92A8B3" transform="translate(819,492)"/>
<path d="M0 0 C13.53 0 27.06 0 41 0 C41 13.53 41 27.06 41 41 C27.47 41 13.94 41 0 41 C0 27.47 0 13.94 0 0 Z " fill="#34171C" transform="translate(1229,410)"/>
<path d="M0 0 C13.53 0 27.06 0 41 0 C41 13.53 41 27.06 41 41 C27.47 41 13.94 41 0 41 C0 27.47 0 13.94 0 0 Z " fill="#92A8B2" transform="translate(1188,410)"/>
<path d="M0 0 C13.53 0 27.06 0 41 0 C41 13.53 41 27.06 41 41 C27.47 41 13.94 41 0 41 C0 27.47 0 13.94 0 0 Z " fill="#92A7B2" transform="translate(819,410)"/>
<path d="M0 0 C13.53 0 27.06 0 41 0 C41 13.53 41 27.06 41 41 C27.47 41 13.94 41 0 41 C0 27.47 0 13.94 0 0 Z " fill="#34171C" transform="translate(778,410)"/>
<path d="M0 0 C13.53 0 27.06 0 41 0 C41 13.53 41 27.06 41 41 C27.47 41 13.94 41 0 41 C0 27.47 0 13.94 0 0 Z " fill="#94A9B3" transform="translate(1106,369)"/>
<path d="M0 0 C13.53 0 27.06 0 41 0 C41 13.53 41 27.06 41 41 C27.47 41 13.94 41 0 41 C0 27.47 0 13.94 0 0 Z " fill="#93A7B3" transform="translate(901,369)"/>
<path d="M0 0 C13.2 0 26.4 0 40 0 C40 13.53 40 27.06 40 41 C26.8 41 13.6 41 0 41 C0 27.47 0 13.94 0 0 Z " fill="#FCC09B" transform="translate(1311,901)"/>
<path d="M0 0 C13.2 0 26.4 0 40 0 C40 13.53 40 27.06 40 41 C26.8 41 13.6 41 0 41 C0 27.47 0 13.94 0 0 Z " fill="#FCC09C" transform="translate(697,901)"/>
<path d="M0 0 C13.2 0 26.4 0 40 0 C40 13.2 40 26.4 40 40 C26.8 40 13.6 40 0 40 C0 26.8 0 13.6 0 0 Z " fill="#32141A" transform="translate(1311,1393)"/>
<path d="M0 0 C13.2 0 26.4 0 40 0 C40 13.2 40 26.4 40 40 C26.8 40 13.6 40 0 40 C0 26.8 0 13.6 0 0 Z " fill="#31151A" transform="translate(697,1393)"/>
<path d="M0 0 C13.2 0 26.4 0 40 0 C40 13.2 40 26.4 40 40 C26.8 40 13.6 40 0 40 C0 26.8 0 13.6 0 0 Z " fill="#321519" transform="translate(1270,451)"/>
<path d="M0 0 C13.2 0 26.4 0 40 0 C40 13.2 40 26.4 40 40 C26.8 40 13.6 40 0 40 C0 26.8 0 13.6 0 0 Z " fill="#92A8B3" transform="translate(1229,451)"/>
<path d="M0 0 C13.2 0 26.4 0 40 0 C40 13.2 40 26.4 40 40 C26.8 40 13.6 40 0 40 C0 26.8 0 13.6 0 0 Z " fill="#92A8B3" transform="translate(779,451)"/>
<path d="M0 0 C13.2 0 26.4 0 40 0 C40 13.2 40 26.4 40 40 C26.8 40 13.6 40 0 40 C0 26.8 0 13.6 0 0 Z " fill="#331519" transform="translate(738,451)"/>
<path d="M0 0 C0.33 0 0.66 0 1 0 C1 53.79 1 107.58 1 163 C14.2 163 27.4 163 41 163 C41 122.74 41 82.48 41 41 C41.33 41 41.66 41 42 41 C42 81.26 42 121.52 42 163 C55.2 163 68.4 163 82 163 C83 164 83 164 83.11352539 167.78540039 C83.11327425 169.47282728 83.10771112 171.1602593 83.09765625 172.84765625 C83.09664917 173.63297729 83.09564209 174.41829834 83.09460449 175.22741699 C83.08935638 178.17245943 83.07539523 181.11748112 83.0625 184.0625 C83.041875 190.641875 83.02125 197.22125 83 204 C96.2 204 109.4 204 123 204 C123 176.94 123 149.88 123 122 C135.54 121.67 148.08 121.34 161 121 C163.08204358 118.91795642 162.25821292 114.4661444 162.31640625 111.58984375 C162.3475779 110.32679161 162.3475779 110.32679161 162.37937927 109.03822327 C162.44496812 106.33806821 162.50380276 103.63781283 162.5625 100.9375 C162.60567637 99.11131759 162.64929036 97.28514546 162.69335938 95.45898438 C162.80065894 90.97276008 162.90189966 86.4864345 163 82 C163.66 82 164.32 82 165 82 C165.02464638 87.82071622 165.0428343 93.64140234 165.05493164 99.4621582 C165.05997267 101.44393441 165.06680538 103.42570689 165.07543945 105.4074707 C165.08751515 108.24952109 165.09323045 111.09152247 165.09765625 113.93359375 C165.10281754 114.82525742 165.10797882 115.71692108 165.11329651 116.63560486 C165.11349177 118.75740601 165.0621003 120.8791078 165 123 C164 124 164 124 160.39819336 124.11352539 C158.79540144 124.11336625 157.1926044 124.10767063 155.58984375 124.09765625 C154.74780899 124.0962413 153.90577423 124.09482635 153.03822327 124.09336853 C150.33794665 124.08775263 147.63775172 124.07519748 144.9375 124.0625 C143.11132932 124.05748705 141.28515734 124.05292379 139.45898438 124.04882812 C134.97262458 124.03777804 130.48632616 124.02050279 126 124 C121.61465723 150.31205663 124.36044005 177.3274366 124 204 C191.32 204 258.64 204 328 204 C328 204.33 328 204.66 328 205 C247.15 205 166.3 205 83 205 C83 258.79 83 312.58 83 368 C96.2 368 109.4 368 123 368 C123 368.33 123 368.66 123 369 C109.47 369 95.94 369 82 369 C82 314.88 82 260.76 82 205 C68.47 205 54.94 205 41 205 C41 191.47 41 177.94 41 164 C27.47 164 13.94 164 0 164 C0 109.88 0 55.76 0 0 Z M42 164 C42 177.2 42 190.4 42 204 C55.2 204 68.4 204 82 204 C82 190.8 82 177.6 82 164 C68.8 164 55.6 164 42 164 Z " fill="#725651" transform="translate(655,1229)"/>
<path d="M0 0 C0.33 0 0.66 0 1 0 C1 13.2 1 26.4 1 40 C14.2 40 27.4 40 41 40 C41 26.8 41 13.6 41 0 C41.33 0 41.66 0 42 0 C42 13.2 42 26.4 42 40 C68.73 40 95.46 40 123 40 C123 40.33 123 40.66 123 41 C96.27 41 69.54 41 42 41 C42.03961576 67.61219267 42.03961576 67.61219267 42.09008789 94.22436523 C42.09460449 99.3614502 42.09460449 99.3614502 42.09544373 101.76332092 C42.09698329 103.44744633 42.10050847 105.1315706 42.10557556 106.81568909 C42.11285292 109.36078824 42.11390742 111.9058198 42.11352539 114.45092773 C42.1171235 115.20616698 42.12072161 115.96140623 42.12442875 116.73953152 C42.11402634 121.88597366 42.11402634 121.88597366 41 123 C27.8 123 14.6 123 1 123 C1 149.73 1 176.46 1 204 C0.67 204 0.34 204 0 204 C0 177.27 0 150.54 0 123 C-13.2 123 -26.4 123 -40 123 C-40 149.73 -40 176.46 -40 204 C-40.33 204 -40.66 204 -41 204 C-41 177.27 -41 150.54 -41 123 C-54.53 123 -68.06 123 -82 123 C-82 122.67 -82 122.34 -82 122 C-68.47 122 -54.94 122 -41 122 C-41 94.94 -41 67.88 -41 40 C-27.47 40 -13.94 40 0 40 C0 26.8 0 13.6 0 0 Z M-40 41 C-40 67.73 -40 94.46 -40 122 C-26.8 122 -13.6 122 0 122 C0 95.27 0 68.54 0 41 C-13.2 41 -26.4 41 -40 41 Z M1 41 C1 67.73 1 94.46 1 122 C14.2 122 27.4 122 41 122 C41 95.27 41 68.54 41 41 C27.8 41 14.6 41 1 41 Z " fill="#75787E" transform="translate(737,451)"/>
<path d="M0 0 C0.33 0 0.66 0 1 0 C1 13.2 1 26.4 1 40 C14.2 40 27.4 40 41 40 C41 26.8 41 13.6 41 0 C41.33 0 41.66 0 42 0 C42 13.2 42 26.4 42 40 C55.53 40 69.06 40 83 40 C83 67.06 83 94.12 83 122 C96.53 122 110.06 122 124 122 C124 122.33 124 122.66 124 123 C110.47 123 96.94 123 83 123 C83 149.73 83 176.46 83 204 C82.67 204 82.34 204 82 204 C82 177.27 82 150.54 82 123 C54.94 123 27.88 123 0 123 C0 95.94 0 68.88 0 41 C-13.2 41 -26.4 41 -40 41 C-40 40.67 -40 40.34 -40 40 C-26.8 40 -13.6 40 0 40 C0 26.8 0 13.6 0 0 Z M1 41 C1 67.73 1 94.46 1 122 C14.2 122 27.4 122 41 122 C41 95.27 41 68.54 41 41 C27.8 41 14.6 41 1 41 Z M42 41 C42 67.73 42 94.46 42 122 C55.2 122 68.4 122 82 122 C82 95.27 82 68.54 82 41 C68.8 41 55.6 41 42 41 Z " fill="#75757C" transform="translate(1269,451)"/>
<path d="M0 0 C13.53 0 27.06 0 41 0 C41 27.06 41 54.12 41 82 C40.67 82 40.34 82 40 82 C39.67 55.6 39.34 29.2 39 2 C26.79 2 14.58 2 2 2 C2 41.27 2 80.54 2 121 C20.81 121.495 20.81 121.495 40 122 C40 110.45 40 98.9 40 87 C40.33 87 40.66 87 41 87 C41 98.88 41 110.76 41 123 C27.47 123 13.94 123 0 123 C0 82.41 0 41.82 0 0 Z " fill="#421B13" transform="translate(860,819)"/>
<path d="M0 0 C0.33 0 0.66 0 1 0 C1 53.79 1 107.58 1 163 C14.2 163 27.4 163 41 163 C41 122.74 41 82.48 41 41 C41.33 41 41.66 41 42 41 C42 81.26 42 121.52 42 163 C55.2 163 68.4 163 82 163 C82 163.33 82 163.66 82 164 C68.8 164 55.6 164 42 164 C42 177.2 42 190.4 42 204 C55.2 204 68.4 204 82 204 C82 204.33 82 204.66 82 205 C68.47 205 54.94 205 41 205 C41 191.47 41 177.94 41 164 C27.47 164 13.94 164 0 164 C0 109.88 0 55.76 0 0 Z " fill="#594E52" transform="translate(655,1229)"/>
<path d="M0 0 C0.66 0 1.32 0 2 0 C2 13.2 2 26.4 2 40 C14.78993795 39.96039595 14.78993795 39.96039595 27.57983398 39.90991211 C29.1769199 39.90699297 30.77400655 39.90444441 32.37109375 39.90234375 C33.20805786 39.89722778 34.04502197 39.89211182 34.90734863 39.88684082 C36.93858265 39.88653076 38.96972471 39.93759812 41 40 C42.73141493 41.73141493 42.11977579 43.95750044 42.12442017 46.26478577 C42.11902725 47.39550758 42.11902725 47.39550758 42.11352539 48.54907227 C42.11367142 49.33925751 42.11381744 50.12944275 42.1139679 50.943573 C42.11326857 53.56787822 42.10547527 56.19211336 42.09765625 58.81640625 C42.09579214 60.63101665 42.0943682 62.44562756 42.09336853 64.26023865 C42.08954279 69.0459023 42.07971204 73.8315358 42.06866455 78.6171875 C42.05845163 83.49674064 42.05387117 88.37629864 42.04882812 93.25585938 C42.03808982 102.83725286 42.02101273 112.41862393 42 122 C41.67 122 41.34 122 41 122 C40.67 95.6 40.34 69.2 40 42 C27.13 42 14.26 42 1 42 C-0.69196504 38.61606992 -0.11986549 34.77522209 -0.09765625 31.0546875 C-0.0962413 30.1696756 -0.09482635 29.2846637 -0.09336853 28.37283325 C-0.0877614 25.54018809 -0.07520771 22.70762136 -0.0625 19.875 C-0.05748592 17.95703239 -0.05292285 16.03906354 -0.04882812 14.12109375 C-0.03778966 9.41403218 -0.02052025 4.7070294 0 0 Z " fill="#775A54" transform="translate(1228,1311)"/>
<path d="M0 0 C13.2 0 26.4 0 40 0 C40 0.33 40 0.66 40 1 C38.88439697 1.02505615 37.76879395 1.0501123 36.61938477 1.07592773 C32.4950741 1.16983421 28.3709385 1.27009514 24.24682617 1.37231445 C22.4591073 1.415727 20.67134526 1.45739729 18.88354492 1.49731445 C16.31936609 1.5548646 13.75540588 1.61860203 11.19140625 1.68359375 C10.3872377 1.70030624 9.58306915 1.71701874 8.75453186 1.73423767 C5.07330002 1.49220696 5.07330002 1.49220696 2 3 C1.8909311 5.04994788 1.85308745 7.10369316 1.84178162 9.1565094 C1.83437465 10.13171827 1.83437465 10.13171827 1.82681805 11.12662834 C1.81137193 13.32082569 1.80306333 15.51499363 1.79467773 17.70922852 C1.78510479 19.27586123 1.77509506 20.84249132 1.76467896 22.40911865 C1.73756056 26.67543563 1.71658868 30.94176375 1.69667697 35.20811963 C1.67486003 39.66179276 1.64745042 44.11543129 1.62062073 48.56907654 C1.57063561 57.00864934 1.52571845 65.44824129 1.48259836 73.88785166 C1.43327561 83.49351901 1.37833914 93.09915166 1.32291877 102.70478547 C1.20900942 122.46982623 1.10293117 142.2348988 1 162 C13.87 162 26.74 162 40 162 C40 162.33 40 162.66 40 163 C26.8 163 13.6 163 0 163 C0 109.21 0 55.42 0 0 Z " fill="#240F12" transform="translate(738,1434)"/>
<path d="M0 0 C13.53 0 27.06 0 41 0 C41 13.53 41 27.06 41 41 C27.47 41 13.94 41 0 41 C0 27.47 0 13.94 0 0 Z M2 2 C1.91141354 4.73894085 1.88476521 7.4525327 1.90234375 10.19140625 C1.9037587 11.01124496 1.90517365 11.83108368 1.90663147 12.67576599 C1.91224711 15.30471382 1.92480221 17.93357773 1.9375 20.5625 C1.94251299 22.34049357 1.94707624 24.11848846 1.95117188 25.89648438 C1.96222161 30.26435545 1.97949669 34.63216348 2 39 C7.25105442 39.02464928 12.50207545 39.04283568 17.75317383 39.05493164 C19.54094021 39.05997218 21.32870245 39.06680454 23.11645508 39.07543945 C25.68051168 39.0875173 28.24451397 39.09323094 30.80859375 39.09765625 C32.01484657 39.10539818 32.01484657 39.10539818 33.24546814 39.11329651 C35.16401715 39.11349215 37.08245368 39.06201983 39 39 C40.40625551 37.82170415 40.40625551 37.82170415 40.11352539 34.48999023 C40.11336626 32.92951578 40.10767142 31.36903607 40.09765625 29.80859375 C40.09553383 28.57883568 40.09553383 28.57883568 40.09336853 27.32423401 C40.08775289 24.69528618 40.07519779 22.06642227 40.0625 19.4375 C40.05748701 17.65950643 40.05292376 15.88151154 40.04882812 14.10351562 C40.03777839 9.73564455 40.02050331 5.36783652 40 1 C34.74894558 0.97535072 29.49792455 0.95716432 24.24682617 0.94506836 C22.45905979 0.94002782 20.67129755 0.93319546 18.88354492 0.92456055 C16.31948832 0.9124827 13.75548603 0.90676906 11.19140625 0.90234375 C10.3872377 0.89718246 9.58306915 0.89202118 8.75453186 0.88670349 C5.07696209 0.53258989 5.07696209 0.53258989 2 2 Z " fill="#3C4961" transform="translate(901,1106)"/>
<path d="M0 0 C13.53 0 27.06 0 41 0 C41 13.53 41 27.06 41 41 C27.47 41 13.94 41 0 41 C0 27.47 0 13.94 0 0 Z M1 1 C1 13.54 1 26.08 1 39 C13.54 39 26.08 39 39 39 C39 26.46 39 13.92 39 1 C26.46 1 13.92 1 1 1 Z " fill="#3C4961" transform="translate(1106,1106)"/>
<path d="M0 0 C26.4 0 52.8 0 80 0 C80 31.35 80 62.7 80 95 C79.67 95 79.34 95 79 95 C79 63.98 79 32.96 79 1 C66.480625 1.144375 53.96125 1.28875 41.0625 1.4375 C37.10386963 1.48060303 33.14523926 1.52370605 29.06665039 1.56811523 C25.53001345 1.61135028 25.53001345 1.61135028 21.99339294 1.65589905 C20.41345797 1.67516849 18.83349838 1.6924789 17.25352478 1.70826721 C14.86563206 1.7325042 12.47789028 1.76288231 10.09008789 1.79467773 C9.02749174 1.80333312 9.02749174 1.80333312 7.94342899 1.81216335 C4.69036788 1.58874092 4.69036788 1.58874092 2 3 C1.84213692 4.85174706 1.74892644 6.7090911 1.68359375 8.56640625 C1.64169922 9.69111328 1.59980469 10.81582031 1.55664062 11.97460938 C1.51732422 13.15861328 1.47800781 14.34261719 1.4375 15.5625 C1.39431641 16.75037109 1.35113281 17.93824219 1.30664062 19.16210938 C1.20016454 22.10794784 1.09815159 25.0538743 1 28 C0.67 28 0.34 28 0 28 C0 18.76 0 9.52 0 0 Z " fill="#3C110E" transform="translate(984,1311)"/>
<path d="M0 0 C13.53 0 27.06 0 41 0 C41 13.53 41 27.06 41 41 C27.47 41 13.94 41 0 41 C0 40.67 0 40.34 0 40 C12.87 39.34 25.74 38.68 39 38 C39 25.79 39 13.58 39 1 C33.121875 1.0825 27.24375 1.165 21.1875 1.25 C19.33535889 1.26579102 17.48321777 1.28158203 15.57495117 1.29785156 C14.10592506 1.32721788 12.63692706 1.35804306 11.16796875 1.390625 C10.02503357 1.39231689 10.02503357 1.39231689 8.85900879 1.39404297 C4.43465143 1.48417118 4.43465143 1.48417118 0.98950195 4.03808594 C0.66296631 4.68551758 0.33643066 5.33294922 0 6 C0 4.02 0 2.04 0 0 Z " fill="#883737" transform="translate(1024,1270)"/>
<path d="M0 0 C13.53 0 27.06 0 41 0 C41 0.33 41 0.66 41 1 C22.19 1.495 22.19 1.495 3 2 C2.34 14.54 1.68 27.08 1 40 C14.2 40 27.4 40 41 40 C41 40.33 41 40.66 41 41 C27.47 41 13.94 41 0 41 C0 27.47 0 13.94 0 0 Z " fill="#925C4D" transform="translate(983,1270)"/>
<path d="M0 0 C13.53 0 27.06 0 41 0 C41 0.66 41 1.32 41 2 C28.13 2 15.26 2 2 2 C2 8.27 2 14.54 2 21 C1.86870133 24.73966748 1.72397128 28.45565421 1.5 32.1875 C1.45230469 33.05568359 1.40460938 33.92386719 1.35546875 34.81835938 C1.24161195 36.87916743 1.12158118 38.93963323 1 41 C0.67 41 0.34 41 0 41 C0 27.47 0 13.94 0 0 Z " fill="#3F120C" transform="translate(1229,983)"/>
<path d="M0 0 C13.53 0 27.06 0 41 0 C41 0.33 41 0.66 41 1 C13.83596307 2.19388403 13.83596307 2.19388403 3 2 C1.41337353 5.17325294 1.87911748 8.58783547 1.90234375 12.0703125 C1.90335083 12.77599365 1.90435791 13.4816748 1.90539551 14.20874023 C1.91063172 16.84750999 1.92459298 19.48625661 1.9375 22.125 C1.958125 28.02375 1.97875 33.9225 2 40 C14.87 40 27.74 40 41 40 C41 40.33 41 40.66 41 41 C27.47 41 13.94 41 0 41 C0 27.47 0 13.94 0 0 Z " fill="#D1907B" transform="translate(1065,1311)"/>
<path d="M0 0 C0.66 0 1.32 0 2 0 C2 13.53 2 27.06 2 41 C-11.86 41 -25.72 41 -40 41 C-40 40.67 -40 40.34 -40 40 C-38.28115601 39.96241577 -38.28115601 39.96241577 -36.52758789 39.92407227 C-32.29146402 39.83016894 -28.05551072 39.72990725 -23.81958008 39.62768555 C-21.98335753 39.5842718 -20.14709292 39.54260161 -18.31079102 39.50268555 C-15.67711689 39.44513831 -13.04365579 39.38140002 -10.41015625 39.31640625 C-9.58411392 39.29969376 -8.75807159 39.28298126 -7.90699768 39.26576233 C-4.14523247 39.52192567 -4.14523247 39.52192567 -1 38 C-0.83982834 35.19023482 -0.74049466 32.40226404 -0.68359375 29.58984375 C-0.66281265 28.74780899 -0.64203156 27.90577423 -0.62062073 27.03822327 C-0.55503188 24.33806821 -0.49619724 21.63781283 -0.4375 18.9375 C-0.39432363 17.11131759 -0.35070964 15.28514546 -0.30664062 13.45898438 C-0.19934106 8.97276008 -0.09810034 4.4864345 0 0 Z " fill="#746060" transform="translate(818,1311)"/>
<path d="M0 0 C0.33 0 0.66 0 1 0 C1 7.92 1 15.84 1 24 C-9.89 24 -20.78 24 -32 24 C-32 23.67 -32 23.34 -32 23 C-31.09644775 22.97494385 -30.19289551 22.9498877 -29.26196289 22.92407227 C-25.9203572 22.82912683 -22.57893748 22.72988379 -19.23754883 22.62768555 C-17.7893576 22.5842837 -16.34111346 22.54261256 -14.89282227 22.50268555 C-12.81510441 22.44510938 -10.73765427 22.38137972 -8.66015625 22.31640625 C-7.40855713 22.27974854 -6.15695801 22.24309082 -4.86743164 22.20532227 C-2.10369496 22.32196094 -2.10369496 22.32196094 -1 21 C-0.84313751 19.44051458 -0.74923361 17.87457332 -0.68359375 16.30859375 C-0.64169922 15.36435547 -0.59980469 14.42011719 -0.55664062 13.44726562 C-0.51732422 12.45404297 -0.47800781 11.46082031 -0.4375 10.4375 C-0.39431641 9.44041016 -0.35113281 8.44332031 -0.30664062 7.41601562 C-0.20019702 4.9441585 -0.09818072 2.4721969 0 0 Z " fill="#7F4D3D" transform="translate(900,1676)"/>
<path d="M0 0 C13.53 0 27.06 0 41 0 C41 0.33 41 0.66 41 1 C32.74973532 1.92808938 24.6096172 2.1230629 16.3125 2.0625 C15.12205078 2.05798828 13.93160156 2.05347656 12.70507812 2.04882812 C9.80333064 2.03717452 6.90169374 2.02081559 4 2 C3.01 3.98 2.02 5.96 1 8 C0.67 8 0.34 8 0 8 C0 5.36 0 2.72 0 0 Z " fill="#686A73" transform="translate(1229,1065)"/>
<path d="M0 0 C11.88 0 23.76 0 36 0 C36 0.33 36 0.66 36 1 C29.39493525 2.22351416 22.88685533 2.07678344 16.1875 2 C13.93103665 1.97457506 11.67451852 1.95351336 9.41796875 1.9375 C8.42563232 1.92589844 7.4332959 1.91429687 6.41088867 1.90234375 C3.98731615 1.83523906 3.98731615 1.83523906 2 3 C0.86649466 5.01669827 0.86649466 5.01669827 0 7 C0 4.69 0 2.38 0 0 Z " fill="#7A4D3D" transform="translate(1147,1639)"/>
</svg>
